<?xml version="1.0" encoding="UTF-8" standalone="no"?>
<!-- Created with Inkscape (http://www.inkscape.org/) -->

<svg
   width="210mm"
   height="297mm"
   viewBox="0 0 210 297"
   version="1.1"
   id="svg5"
   sodipodi:docname="drawing.svg"
   inkscape:version="1.3 (0e150ed6c4, 2023-07-21)"
   xmlns:inkscape="http://www.inkscape.org/namespaces/inkscape"
   xmlns:sodipodi="http://sodipodi.sourceforge.net/DTD/sodipodi-0.dtd"
   xmlns="http://www.w3.org/2000/svg"
   xmlns:svg="http://www.w3.org/2000/svg">
  <sodipodi:namedview
     id="namedview7"
     pagecolor="#ffffff"
     bordercolor="#666666"
     borderopacity="1.0"
     inkscape:showpageshadow="2"
     inkscape:pageopacity="0.0"
     inkscape:pagecheckerboard="true"
     inkscape:deskcolor="#d1d1d1"
     inkscape:document-units="mm"
     showgrid="false"
     inkscape:zoom="3.9408308"
     inkscape:cx="266.44128"
     inkscape:cy="341.67922"
     inkscape:window-width="2560"
     inkscape:window-height="1371"
     inkscape:window-x="0"
     inkscape:window-y="0"
     inkscape:window-maximized="1"
     inkscape:current-layer="layer2"
     showguides="true">
    <sodipodi:guide
       position="80,224.01994"
       orientation="-1,0"
       id="guide10922"
       inkscape:locked="false"
       inkscape:label=""
       inkscape:color="rgb(0,134,229)" />
    <sodipodi:guide
       position="23.716319,212.06212"
       orientation="0,-1"
       id="guide10930"
       inkscape:locked="false" />
    <sodipodi:guide
       position="35.98649,237.58201"
       orientation="0,-1"
       id="guide10959"
       inkscape:locked="false" />
    <sodipodi:guide
       position="70,198.8229"
       orientation="-1,0"
       id="guide1685"
       inkscape:locked="false"
       inkscape:label=""
       inkscape:color="rgb(0,134,229)" />
    <sodipodi:guide
       position="90,185.62501"
       orientation="-1,0"
       id="guide1687"
       inkscape:locked="false"
       inkscape:label=""
       inkscape:color="rgb(0,134,229)" />
    <sodipodi:guide
       position="50,171.28773"
       orientation="-1,0"
       id="guide1740"
       inkscape:locked="false"
       inkscape:label=""
       inkscape:color="rgb(0,134,229)" />
    <sodipodi:guide
       position="110,161.508"
       orientation="-1,0"
       id="guide1742"
       inkscape:locked="false"
       inkscape:label=""
       inkscape:color="rgb(0,134,229)" />
    <sodipodi:guide
       position="74.511108,167.75088"
       orientation="0,-1"
       id="guide1744"
       inkscape:locked="false" />
    <sodipodi:guide
       position="37.496078,250.41313"
       orientation="0,-1"
       id="guide2"
       inkscape:locked="false" />
  </sodipodi:namedview>
  <defs
     id="defs2" />
  <g
     inkscape:label="Welefant"
     inkscape:groupmode="layer"
     id="layer1">
    <path
       id="path1064"
       style="fill:#d000f7;fill-opacity:1;stroke:none;stroke-width:0.231119px;stroke-linecap:butt;stroke-linejoin:miter;stroke-opacity:1"
       inkscape:label="Edges"
       d="M 55.525293 46.413704 C 55.228656 46.403704 54.938549 46.408483 54.656095 46.428691 C 50.136852 46.752003 39.999468 56.305597 40.000142 59.401025 C 41.505075 67.525339 43.921637 82.441108 51.142615 85.005147 C 50.173223 85.067787 48.072549 89.44689 48.205326 94.270732 C 48.275286 96.812613 48.557259 106.26433 50.031055 115.83841 C 51.971964 128.44696 51.176534 133.06668 52.986947 134.63674 C 56.172053 137.399 63.583399 136.16681 66.645544 135.14782 C 69.70769 134.12883 68.985792 130.29218 70.353845 129.5771 C 71.676939 128.88552 75.039158 129.02923 79.90365 129.01848 C 84.768142 129.00768 88.241019 128.88422 89.600216 129.59467 C 90.968268 130.30975 90.24585 134.14642 93.308 135.16539 C 96.370141 136.1844 105.10442 137.53544 108.28951 134.77317 C 109.46388 133.75472 109.66875 123.16823 110.66715 115.43275 C 112.37661 102.18797 112.20948 97.48594 111.94045 92.488411 C 111.65926 87.264826 108.28435 84.967424 108.28435 84.967424 C 112.21905 82.773433 119.14736 67.306491 119.99113 59.400509 C 120.00763 57.652359 109.55156 46.875936 104.27477 46.796627 C 99.011273 46.717516 94.1629 50.623851 90.460111 55.920618 C 90.08443 55.872952 89.836097 55.807843 89.791935 55.72063 C 89.63961 55.419809 89.78153 48.884446 89.869967 46.700509 C 80.821908 46.909353 74.415647 46.559965 71.304692 46.56925 C 70.860269 46.570609 70.483058 46.579017 70.175045 46.597673 C 70.369301 47.535973 70.640149 55.326291 70.166777 55.616243 C 70.093234 55.661286 69.856907 55.692127 69.555961 55.717013 C 65.72636 49.983391 59.910833 46.561556 55.525293 46.413704 z M 52.686707 70.288733 C 53.179672 70.304143 53.540916 70.614664 53.569857 71.483492 C 53.7509 74.529284 53.312558 76.152484 52.536845 77.017004 C 51.819826 77.816111 50.532458 75.642136 49.743217 74.7882 C 48.786618 73.753186 49.034249 72.072603 49.874992 71.565141 C 50.400455 71.247976 51.68042 70.3298 52.586454 70.28925 C 52.620431 70.287729 52.653842 70.287706 52.686707 70.288733 z M 107.27304 70.440145 C 107.3059 70.439122 107.33983 70.439141 107.37381 70.440662 C 108.27985 70.481206 109.55929 71.398871 110.08475 71.716036 C 110.9255 72.2235 112.13686 73.356688 110.21705 74.939095 C 109.31976 75.678681 108.14095 77.967006 107.42393 77.1679 C 106.64821 76.303377 106.20936 74.680186 106.39041 71.634387 C 106.41934 70.765558 106.78007 70.455495 107.27304 70.440145 z " />
    <g
       inkscape:groupmode="layer"
       id="layer6"
       inkscape:label="Trunk">
      <path
         id="path5555-9-6"
         style="fill:#d2c6bd;fill-opacity:1;stroke:none;stroke-width:0.959214;stroke-linecap:round;stroke-linejoin:round;stroke-dasharray:none;stroke-opacity:1"
         inkscape:label="Trunk"
         d="M 75.464424,129.4315 C 72.976119,124.862 72.035457,104.3279 71.314079,98.671926 70.592701,93.015986 67.660702,87.966465 66.752153,84.597247 66.166165,77.18302 63.502042,69.991509 65.09762,65.384367 c 1.595578,-4.607143 5.153337,-7.927346 5.868948,-8.653707 6.907328,-0.124482 11.01893,0.06675 17.817052,-0.03976 0.581718,0.153841 3.677823,3.064051 4.98952,8.804707 1.311699,5.740656 -0.184924,12.066643 -1.180524,18.899738 -0.63372,3.877492 -3.550835,8.013942 -4.272213,13.66989 -0.721377,5.655965 -2.882202,26.558725 -4.488604,31.311695 z"
         sodipodi:nodetypes="csczcczcscc" />
    </g>
    <g
       inkscape:groupmode="layer"
       id="layer2"
       inkscape:label="Silkscreen"
       transform="matrix(0.96757737,0,0,0.97062361,1.296905,1.350124)">
      <path
         style="fill:none;stroke:#ffffff;stroke-width:1.165;stroke-linecap:round;stroke-linejoin:miter;stroke-dasharray:none;stroke-opacity:1"
         d="m 51.342888,86.741791 c 0,0 3.710603,1.539776 9.566791,2.501601 5.856188,0.961825 6.464121,-2.765453 6.464121,-2.765453"
         id="path2001"
         sodipodi:nodetypes="czc"
         inkscape:label="EarL" />
      <path
         style="fill:none;stroke:#ffffff;stroke-width:1.165;stroke-linecap:round;stroke-linejoin:miter;stroke-dasharray:none;stroke-opacity:1"
         d="m 111.14382,86.468929 c 0,0 -3.49387,2.491319 -9.87808,2.797571 -6.384207,0.306252 -6.821448,-2.473944 -6.821448,-2.473944"
         id="path2001-7"
         sodipodi:nodetypes="czc"
         inkscape:label="EarR" />
      <path
         id="path5555-9"
         style="fill:none;fill-opacity:1;stroke:#ffffff;stroke-width:0.989799;stroke-linecap:round;stroke-linejoin:round;stroke-dasharray:none;stroke-opacity:1"
         inkscape:label="Trunk"
         d="M 76.64216,131.94954 C 74.070474,127.24174 73.098291,106.08617 72.35274,100.25902 71.60719,94.4319 68.576942,89.229553 67.637948,85.758364 67.032324,78.119742 64.278929,70.710576 65.927973,65.963997 c 1.649045,-4.74658 5.326021,-8.167271 6.065612,-8.915615 7.138786,-0.12825 11.388164,0.06877 18.414084,-0.04096 0.601211,0.158497 3.801064,3.156786 5.156715,9.071186 1.355652,5.9144 -0.191121,12.431846 -1.220083,19.471748 -0.654955,3.994846 -3.66982,8.256487 -4.415371,14.083615 -0.745549,5.827139 -2.978782,27.362529 -4.639013,32.259349 z"
         sodipodi:nodetypes="csczcczcscc" />
      <path
         style="fill:#ffffff;fill-opacity:1;stroke:none;stroke-width:0.264583px;stroke-linecap:butt;stroke-linejoin:miter;stroke-opacity:1"
         d="m 112.69194,104.33718 c -18.939333,-2.99674 -17.149159,-7.089731 -21.841899,-8.064671 0.98269,-5.12932 3.812071,-10.481117 3.812071,-10.481117 0,0 2.873934,8.171878 6.762158,11.440658 3.88822,3.26877 11.83229,4.81091 11.99679,5.50433"
         id="path9647-4"
         sodipodi:nodetypes="ccczc"
         inkscape:label="ToothR" />
      <path
         style="fill:#ffffff;fill-opacity:1;stroke:none;stroke-width:0.264583px;stroke-linecap:butt;stroke-linejoin:miter;stroke-opacity:1"
         d="m 50.513364,104.6755 c 18.939327,-2.99674 16.12377,-7.468786 20.81651,-8.443726 -0.98269,-5.12932 -4.12215,-11.147922 -4.12215,-11.147922 0,0 -2.56386,8.838683 -6.452079,12.107463 -3.88822,3.268765 -10.806901,5.189965 -10.971401,5.883385"
         id="path9647-4-8"
         sodipodi:nodetypes="ccczc"
         inkscape:label="ToothL" />
      <path
         id="rect9794"
         style="fill:#ffffff;stroke-width:0.58921;stroke-linecap:round;stroke-linejoin:round;stroke-miterlimit:3"
         d="m 71.301946,46.563726 c -0.444423,0.0014 -0.821632,0.0098 -1.129647,0.02842 0.194257,0.938303 0.465149,8.728618 -0.0082,9.018572 -0.492739,0.301787 -7.016143,0.07554 -7.15512,0.334345 -0.350422,0.652561 -0.361699,4.257455 0.274064,4.356641 6.70885,1.046653 24.128736,-2.278443 33.129066,-0.004 0.343225,0.08674 0.203395,-4.401597 0,-4.352706 -0.281205,0.06759 -6.385796,0.238533 -6.622914,-0.229741 -0.152325,-0.300821 -0.01034,-6.836399 0.07809,-9.020342 -9.048077,0.208845 -15.454313,-0.140544 -18.565276,-0.131258 z"
         sodipodi:nodetypes="scsssssscss"
         transform="matrix(1.0335091,0,0,1.0302655,-1.3403631,-1.3909862)"
         inkscape:label="Hut" />
      <path
         style="fill:#ffffff;fill-opacity:0.98242188;stroke:none;stroke-width:0.173805px;stroke-linecap:butt;stroke-linejoin:miter;stroke-opacity:1"
         d="m 52.464636,132.62652 c -0.178931,-3.25863 0.902108,-1.30522 2.185519,-1.03057 2.026728,0.43373 2.568393,1.38044 2.531965,3.29033 -0.08213,4.30603 0.373939,3.53204 -1.82955,2.73498 -1.406899,-0.50891 -2.709004,-1.73612 -2.887934,-4.99474 z"
         id="path2146-3-6-7"
         sodipodi:nodetypes="sssss"
         inkscape:label="Toe1" />
      <path
         style="fill:#ffffff;fill-opacity:0.98242188;stroke:none;stroke-width:0.178391px;stroke-linecap:butt;stroke-linejoin:miter;stroke-opacity:1"
         d="m 58.116869,134.39788 c 0.274149,-2.19912 1.155231,-1.76397 3.207267,-1.2289 2.207052,0.57549 4.237646,-1.88347 3.744033,0.49498 -0.493613,2.37845 0.503054,4.86145 -3.38594,4.8897 -3.089286,0.0224 -4.207922,0.9986 -3.56536,-4.15578 z"
         id="path2146-3-0"
         sodipodi:nodetypes="sszss"
         inkscape:label="Toe2" />
      <path
         style="fill:#ffffff;fill-opacity:0.98242188;stroke:none;stroke-width:0.173805px;stroke-linecap:butt;stroke-linejoin:miter;stroke-opacity:1"
         d="m 67.475837,132.35592 c 1.237235,-0.29023 2.400218,-1.01772 2.454882,0.045 0.110712,2.15242 -0.648409,4.08941 -2.874267,5.04372 -0.650772,0.27901 -1.867209,0.80301 -1.481757,-1.54303 0.311552,-1.89625 0.38084,-3.1891 1.901142,-3.54573 z"
         id="path2146-3-6-2-9"
         sodipodi:nodetypes="sssss"
         inkscape:label="Toe3" />
      <path
         style="fill:#ffffff;fill-opacity:0.98242188;stroke:none;stroke-width:0.173805px;stroke-linecap:butt;stroke-linejoin:miter;stroke-opacity:1"
         d="m 111.07973,131.13615 c 0.17893,-3.25863 -1.70364,0.17071 -2.98705,0.44536 -2.02673,0.43373 -2.2464,0.69005 -2.20997,2.59994 0.0821,4.30603 0.88355,3.88216 3.08704,3.0851 1.4069,-0.50891 1.93105,-2.87178 2.10998,-6.1304 z"
         id="path2146-3-6-6-3"
         sodipodi:nodetypes="sssss"
         inkscape:label="Toe6" />
      <path
         style="fill:#ffffff;fill-opacity:0.98242188;stroke:none;stroke-width:0.178391px;stroke-linecap:butt;stroke-linejoin:miter;stroke-opacity:1"
         d="m 104.94796,133.69305 c -0.23763,-0.90376 -1.15523,-1.76397 -3.20727,-1.2289 -2.207055,0.57549 -3.936747,-0.97928 -3.76598,1.95983 0.170767,2.93912 -0.48084,3.47893 3.40789,3.42485 3.4381,-0.0478 5.11895,1.75284 3.56536,-4.15578 z"
         id="path2146-3-7-6"
         sodipodi:nodetypes="sszss"
         inkscape:label="Toe5" />
      <path
         style="fill:#ffffff;fill-opacity:0.98242188;stroke:none;stroke-width:0.173805px;stroke-linecap:butt;stroke-linejoin:miter;stroke-opacity:1"
         d="m 95.072771,131.91791 c -1.836149,-1.04647 -2.541424,-1.01424 -2.56507,-0.38431 -0.08085,2.15374 1.061304,4.41182 3.287154,5.36613 0.65078,0.27901 1.709359,0.67431 1.69527,-1.70295 -0.02449,-4.13295 -1.098446,-2.52718 -2.417354,-3.27887 z"
         id="path2146-3-6-2-5-0"
         sodipodi:nodetypes="sssss"
         inkscape:label="Toe4" />
      <path
         id="path2146-5-4-6"
         style="fill:#ffffff;fill-opacity:0.83284998;stroke:none;stroke-width:0.264583px;stroke-linecap:butt;stroke-linejoin:miter;stroke-opacity:1"
         inkscape:label="EarL"
         d="m 57.335391,49.257082 c -1.239099,0.0038 -2.430965,0.270358 -3.495557,0.6687 -2.671908,0.99976 -10.888359,8.60297 -11.421849,9.88888 -0.533499,1.285911 4.430224,15.398158 8.57146,19.704818 4.141236,4.30667 4.500528,-3.78236 6.124837,-8.85069 1.624298,-5.068329 8.884672,-16.444203 5.878625,-19.178803 -1.808325,-1.645033 -3.78672,-2.2387 -5.657516,-2.232905 z M 52.968525,77.98074 c -0.741049,0.8233 -2.071108,-1.41627 -2.8868,-2.29606 -0.988658,-1.06634 -0.732874,-2.79788 0.136045,-3.32071 0.868919,-0.52282 3.733595,-2.630336 3.818662,-0.0842 0.18711,3.13799 -0.266196,4.81028 -1.067907,5.70097 z"
         sodipodi:nodetypes="ssssssssszcs" />
      <path
         id="path2146-5-4-5-2"
         style="fill:#ffffff;fill-opacity:0.83284998;stroke:none;stroke-width:0.264583px;stroke-linecap:butt;stroke-linejoin:miter;stroke-opacity:1"
         inkscape:label="EarR"
         d="m 105.31094,49.400394 c 1.2391,0.0038 2.43097,0.270358 3.49556,0.6687 2.67191,0.99976 10.88836,8.60297 11.42185,9.88888 0.5335,1.285911 -4.43023,15.398156 -8.57146,19.704816 -4.14124,4.30667 -4.50053,-3.78235 -6.12484,-8.85069 -1.6243,-5.068327 -8.884674,-16.444201 -5.878624,-19.178801 1.808324,-1.645033 3.786724,-2.2387 5.657514,-2.232905 z m 4.36687,28.723656 c 0.74105,0.8233 1.95944,-1.53409 2.8868,-2.29606 1.98416,-1.6303 0.73287,-2.79788 -0.13605,-3.32071 -0.86892,-0.52282 -3.73359,-2.630334 -3.81866,-0.0842 -0.18711,3.13799 0.2662,4.81029 1.06791,5.70097 z"
         sodipodi:nodetypes="ssssssssszcs" />
    </g>
    <g
       inkscape:groupmode="layer"
       id="layer3"
       inkscape:label="Pads"
       transform="matrix(0.96757737,0,0,0.97062361,1.296905,1.350124)">
      <path
         id="path2146-5-4"
         style="fill:#ffffff;fill-opacity:1;stroke:none;stroke-width:0.264583px;stroke-linecap:butt;stroke-linejoin:miter;stroke-opacity:1"
         inkscape:label="EarL"
         d="m 57.335336,49.249727 c -1.239099,0.0038 -2.430965,0.270358 -3.495557,0.6687 -2.671908,0.99976 -10.888359,8.60297 -11.421849,9.88888 -0.533499,1.285911 4.430224,15.398154 8.57146,19.704821 4.141236,4.306667 4.500528,-3.78236 6.124837,-8.850691 1.624298,-5.068331 8.884672,-16.444205 5.878625,-19.178805 -1.808325,-1.645033 -3.78672,-2.2387 -5.657516,-2.232905 z m -4.366866,28.72366 c -0.741049,0.823293 -2.071108,-1.416277 -2.8868,-2.296062 -0.988658,-1.066343 -0.732874,-2.797883 0.136045,-3.320707 0.868919,-0.522824 3.733595,-2.630339 3.818662,-0.0842 0.18711,3.137987 -0.266196,4.81028 -1.067907,5.700969 z"
         sodipodi:nodetypes="ssssssssszcs" />
      <path
         id="path2146-5-4-5"
         style="fill:#ffffff;fill-opacity:1;stroke:none;stroke-width:0.264583px;stroke-linecap:butt;stroke-linejoin:miter;stroke-opacity:1"
         inkscape:label="EarR"
         d="m 105.31088,49.393039 c 1.2391,0.0038 2.43097,0.270358 3.49556,0.6687 2.67191,0.99976 10.88836,8.60297 11.42185,9.88888 0.5335,1.285911 -4.43023,15.398154 -8.57146,19.704821 -4.14124,4.306667 -4.50053,-3.78236 -6.12484,-8.850691 -1.6243,-5.068331 -8.884669,-16.444205 -5.878619,-19.178805 1.808319,-1.645033 3.786719,-2.2387 5.657509,-2.232905 z m 4.36687,28.72366 c 0.74105,0.823293 1.95944,-1.53409 2.8868,-2.296062 1.98416,-1.630303 0.73287,-2.797883 -0.13605,-3.320707 -0.86892,-0.522824 -3.73359,-2.630339 -3.81866,-0.0842 -0.18711,3.137987 0.2662,4.81028 1.06791,5.700969 z"
         sodipodi:nodetypes="ssssssssszcs" />
      <path
         style="fill:#ffffff;fill-opacity:1;stroke:none;stroke-width:0.173805px;stroke-linecap:butt;stroke-linejoin:miter;stroke-opacity:1"
         d="m 52.455198,132.62294 c -0.178931,-3.25863 0.902108,-1.30522 2.185519,-1.03057 2.026728,0.43373 2.568393,1.38044 2.531965,3.29033 -0.08213,4.30603 0.373939,3.53204 -1.82955,2.73498 -1.406899,-0.50891 -2.709004,-1.73612 -2.887934,-4.99474 z"
         id="path2146-3-6"
         sodipodi:nodetypes="sssss"
         inkscape:label="Toe1" />
      <path
         style="fill:#ffffff;fill-opacity:1;stroke:none;stroke-width:0.178391px;stroke-linecap:butt;stroke-linejoin:miter;stroke-opacity:1"
         d="m 58.107431,134.3943 c 0.274149,-2.19912 1.155231,-1.76397 3.207267,-1.2289 2.207052,0.57549 4.237646,-1.88347 3.744033,0.49498 -0.493613,2.37845 0.503054,4.86145 -3.38594,4.8897 -3.089286,0.0224 -4.207922,0.9986 -3.56536,-4.15578 z"
         id="path2146-3"
         sodipodi:nodetypes="sszss"
         inkscape:label="Toe2" />
      <path
         style="fill:#ffffff;fill-opacity:1;stroke:none;stroke-width:0.173805px;stroke-linecap:butt;stroke-linejoin:miter;stroke-opacity:1"
         d="m 67.466399,132.35234 c 1.237235,-0.29023 2.400218,-1.01772 2.454882,0.045 0.110712,2.15242 -0.648409,4.08941 -2.874267,5.04372 -0.650772,0.27901 -1.867209,0.80301 -1.481757,-1.54303 0.311552,-1.89625 0.38084,-3.1891 1.901142,-3.54573 z"
         id="path2146-3-6-2"
         sodipodi:nodetypes="sssss"
         inkscape:label="Toe3" />
      <path
         style="fill:#ffffff;fill-opacity:1;stroke:none;stroke-width:0.173805px;stroke-linecap:butt;stroke-linejoin:miter;stroke-opacity:1"
         d="m 111.07029,131.13257 c 0.17893,-3.25863 -1.70364,0.17071 -2.98705,0.44536 -2.02673,0.43373 -2.2464,0.69005 -2.20997,2.59994 0.0821,4.30603 0.88355,3.88216 3.08704,3.0851 1.4069,-0.50891 1.93105,-2.87178 2.10998,-6.1304 z"
         id="path2146-3-6-6"
         sodipodi:nodetypes="sssss"
         inkscape:label="Toe6" />
      <path
         style="fill:#ffffff;fill-opacity:1;stroke:none;stroke-width:0.178391px;stroke-linecap:butt;stroke-linejoin:miter;stroke-opacity:1"
         d="m 104.93852,133.68947 c -0.23763,-0.90376 -1.15523,-1.76397 -3.20727,-1.2289 -2.207053,0.57549 -3.936745,-0.97928 -3.765978,1.95983 0.170767,2.93912 -0.48084,3.47893 3.407888,3.42485 3.4381,-0.0478 5.11895,1.75284 3.56536,-4.15578 z"
         id="path2146-3-7"
         sodipodi:nodetypes="sszss"
         inkscape:label="Toe5" />
      <path
         style="fill:#ffffff;fill-opacity:1;stroke:none;stroke-width:0.173805px;stroke-linecap:butt;stroke-linejoin:miter;stroke-opacity:1"
         d="m 95.063333,131.91433 c -1.836149,-1.04647 -2.541424,-1.01424 -2.56507,-0.38431 -0.08085,2.15374 1.061304,4.41182 3.287154,5.36613 0.65078,0.27901 1.709359,0.67431 1.69527,-1.70295 -0.02449,-4.13295 -1.098446,-2.52718 -2.417354,-3.27887 z"
         id="path2146-3-6-2-5"
         sodipodi:nodetypes="sssss"
         inkscape:label="Toe4" />
    </g>
    <g
       inkscape:groupmode="layer"
       id="layer4"
       inkscape:label="LEDMatrix"
       transform="translate(-2.0485756,-3.3632663)">
      <rect
         style="fill:#000000;fill-opacity:1;stroke:none;stroke-width:1.165;stroke-miterlimit:3;stroke-dasharray:none;stroke-opacity:1"
         id="rect2477"
         width="3.3"
         height="2.9000001"
         x="60.348576"
         y="90"
         inkscape:label="LED1" />
      <rect
         style="fill:#000000;fill-opacity:1;stroke:none;stroke-width:1.165;stroke-miterlimit:3;stroke-dasharray:none;stroke-opacity:1"
         id="rect2477-6"
         width="3.3"
         height="2.9000001"
         x="75.448578"
         y="90"
         inkscape:label="LED2" />
      <rect
         style="fill:#000000;fill-opacity:1;stroke:none;stroke-width:1.165;stroke-miterlimit:3;stroke-dasharray:none;stroke-opacity:1"
         id="rect2477-6-0"
         width="3.3"
         height="2.9000001"
         x="85.448212"
         y="90"
         inkscape:label="LED3" />
      <rect
         style="fill:#000000;fill-opacity:1;stroke:none;stroke-width:1.165;stroke-miterlimit:3;stroke-dasharray:none;stroke-opacity:1"
         id="rect2477-6-0-6"
         width="3.3"
         height="2.9000001"
         x="-102.44857"
         y="-92.900017"
         transform="scale(-1)"
         inkscape:label="LED4" />
      <rect
         style="fill:#000000;fill-opacity:1;stroke:none;stroke-width:1.165;stroke-miterlimit:3;stroke-dasharray:none;stroke-opacity:1"
         id="rect2477-61"
         width="3.3"
         height="2.9000001"
         x="60.348576"
         y="98" />
      <rect
         style="fill:#000000;fill-opacity:1;stroke:none;stroke-width:1.165;stroke-miterlimit:3;stroke-dasharray:none;stroke-opacity:1"
         id="rect2477-6-8"
         width="3.3"
         height="2.9000001"
         x="75.448578"
         y="98" />
      <rect
         style="fill:#000000;fill-opacity:1;stroke:none;stroke-width:1.165;stroke-miterlimit:3;stroke-dasharray:none;stroke-opacity:1"
         id="rect2477-6-0-7"
         width="3.3"
         height="2.9000001"
         x="85.448212"
         y="98" />
      <rect
         style="fill:#000000;fill-opacity:1;stroke:none;stroke-width:1.165;stroke-miterlimit:3;stroke-dasharray:none;stroke-opacity:1"
         id="rect2477-6-0-6-9"
         width="3.3"
         height="2.9000001"
         x="-102.44857"
         y="-100.90002"
         transform="scale(-1)" />
      <rect
         style="fill:#000000;fill-opacity:1;stroke:none;stroke-width:1.165;stroke-miterlimit:3;stroke-dasharray:none;stroke-opacity:1"
         id="rect2477-0"
         width="3.3"
         height="2.9000001"
         x="60.348576"
         y="106" />
      <rect
         style="fill:#000000;fill-opacity:1;stroke:none;stroke-width:1.165;stroke-miterlimit:3;stroke-dasharray:none;stroke-opacity:1"
         id="rect2477-6-2"
         width="3.3"
         height="2.9000001"
         x="75.448578"
         y="106" />
      <rect
         style="fill:#000000;fill-opacity:1;stroke:none;stroke-width:1.165;stroke-miterlimit:3;stroke-dasharray:none;stroke-opacity:1"
         id="rect2477-6-0-3"
         width="3.3"
         height="2.9000001"
         x="85.448212"
         y="106" />
      <rect
         style="fill:#000000;fill-opacity:1;stroke:none;stroke-width:1.165;stroke-miterlimit:3;stroke-dasharray:none;stroke-opacity:1"
         id="rect2477-6-0-6-7"
         width="3.3"
         height="2.9000001"
         x="-102.44857"
         y="-108.90002"
         transform="scale(-1)" />
      <rect
         style="fill:#000000;fill-opacity:1;stroke:none;stroke-width:1.165;stroke-miterlimit:3;stroke-dasharray:none;stroke-opacity:1"
         id="rect2477-61-9"
         width="3.3"
         height="2.9000001"
         x="60.348576"
         y="114" />
      <rect
         style="fill:#000000;fill-opacity:1;stroke:none;stroke-width:1.165;stroke-miterlimit:3;stroke-dasharray:none;stroke-opacity:1"
         id="rect2477-6-8-2"
         width="3.3"
         height="2.9000001"
         x="75.448578"
         y="114" />
      <rect
         style="fill:#000000;fill-opacity:1;stroke:none;stroke-width:1.165;stroke-miterlimit:3;stroke-dasharray:none;stroke-opacity:1"
         id="rect2477-6-0-7-2"
         width="3.3"
         height="2.9000001"
         x="85.448212"
         y="114" />
      <rect
         style="fill:#000000;fill-opacity:1;stroke:none;stroke-width:1.165;stroke-miterlimit:3;stroke-dasharray:none;stroke-opacity:1"
         id="rect2477-6-0-6-9-8"
         width="3.3"
         height="2.9000001"
         x="-102.44857"
         y="-116.90002"
         transform="scale(-1)" />
    </g>
    <g
       inkscape:groupmode="layer"
       id="layer5"
       inkscape:label="HeadLEDs">
      <rect
         style="fill:#000000;fill-opacity:1;stroke:none;stroke-width:1.165;stroke-miterlimit:3;stroke-dasharray:none;stroke-opacity:1"
         id="rect2477-6-9"
         width="3.3"
         height="2.9000001"
         x="70"
         y="78.5"
         inkscape:label="EyeL" />
      <rect
         style="fill:#000000;fill-opacity:1;stroke:none;stroke-width:1.165;stroke-miterlimit:3;stroke-dasharray:none;stroke-opacity:1"
         id="rect2477-6-0-31"
         width="3.3"
         height="2.9000001"
         x="86.699997"
         y="78.5"
         inkscape:label="EyeR" />
    </g>
  </g>
</svg>
