<?xml version="1.0" encoding="UTF-8" standalone="no"?>
<!-- Created with Inkscape (http://www.inkscape.org/) -->

<svg
   width="210mm"
   height="297mm"
   viewBox="0 0 210 297"
   version="1.1"
   id="svg1151"
   inkscape:version="1.3 (0e150ed6c4, 2023-07-21)"
   sodipodi:docname="footprint_silk.svg"
   xmlns:inkscape="http://www.inkscape.org/namespaces/inkscape"
   xmlns:sodipodi="http://sodipodi.sourceforge.net/DTD/sodipodi-0.dtd"
   xmlns="http://www.w3.org/2000/svg"
   xmlns:svg="http://www.w3.org/2000/svg">
  <sodipodi:namedview
     id="namedview1153"
     pagecolor="#ffffff"
     bordercolor="#666666"
     borderopacity="1.0"
     inkscape:showpageshadow="2"
     inkscape:pageopacity="0"
     inkscape:pagecheckerboard="true"
     inkscape:deskcolor="#d1d1d1"
     inkscape:document-units="mm"
     showgrid="false"
     inkscape:zoom="2.7865881"
     inkscape:cx="521.42618"
     inkscape:cy="204.73065"
     inkscape:window-width="2560"
     inkscape:window-height="1371"
     inkscape:window-x="0"
     inkscape:window-y="0"
     inkscape:window-maximized="1"
     inkscape:current-layer="layer2-3" />
  <defs
     id="defs1148" />
  <g
     inkscape:label="Layer 1"
     inkscape:groupmode="layer"
     id="layer1">
    <g
       inkscape:groupmode="layer"
       id="layer2"
       inkscape:label="Silkscreen"
       transform="matrix(0.96757737,0,0,0.97062361,54.46758,-39.031385)">
      <g
         inkscape:groupmode="layer"
         id="layer2-3"
         inkscape:label="Silkscreen"
         transform="translate(-12.837656,-9.8965064)">
        <path
           style="fill:none;stroke:#ffffff;stroke-width:1.165;stroke-linecap:round;stroke-linejoin:miter;stroke-dasharray:none;stroke-opacity:1"
           d="m 54.642053,103.91267 c 0,0 3.710603,1.53978 9.566791,2.5016 5.856188,0.96183 6.464121,-2.76545 6.464121,-2.76545"
           id="path2001"
           sodipodi:nodetypes="czc"
           inkscape:label="EarL" />
        <path
           style="fill:none;stroke:#ffffff;stroke-width:1.165;stroke-linecap:round;stroke-linejoin:miter;stroke-dasharray:none;stroke-opacity:1"
           d="m 114.44299,103.63981 c 0,0 -3.49387,2.49132 -9.87808,2.79757 -6.384212,0.30625 -6.821453,-2.47394 -6.821453,-2.47394"
           id="path2001-7"
           sodipodi:nodetypes="czc"
           inkscape:label="EarR" />
        <path
           id="path5555-9"
           style="fill:none;fill-opacity:1;stroke:#ffffff;stroke-width:0.989799;stroke-linecap:round;stroke-linejoin:round;stroke-dasharray:none;stroke-opacity:1"
           inkscape:label="Trunk"
           d="m 79.941325,149.12042 c -2.571686,-4.7078 -3.543869,-25.86337 -4.28942,-31.69052 -0.74555,-5.82712 -3.775798,-11.02947 -4.714792,-14.50066 -0.605624,-7.638618 -3.359019,-15.047784 -1.709975,-19.794363 1.649045,-4.74658 5.326021,-8.167271 6.065612,-8.915615 7.138786,-0.12825 11.388164,0.06877 18.414084,-0.04096 0.601211,0.158497 3.801064,3.156786 5.156715,9.071186 1.355651,5.9144 -0.191121,12.431846 -1.220083,19.471752 -0.654955,3.99484 -3.66982,8.25648 -4.415371,14.08361 -0.745549,5.82714 -2.978782,27.36253 -4.639013,32.25935 z"
           sodipodi:nodetypes="csczcczcscc" />
        <path
           style="fill:#ffffff;fill-opacity:1;stroke:none;stroke-width:0.264583px;stroke-linecap:butt;stroke-linejoin:miter;stroke-opacity:1"
           d="m 115.99111,121.50806 c -18.939338,-2.99674 -17.149164,-7.08973 -21.841904,-8.06467 0.98269,-5.12932 3.812071,-10.48112 3.812071,-10.48112 0,0 2.873933,8.17188 6.762163,11.44066 3.88822,3.26877 11.83229,4.81091 11.99679,5.50433"
           id="path9647-4"
           sodipodi:nodetypes="ccczc"
           inkscape:label="ToothR" />
        <path
           style="fill:#ffffff;fill-opacity:1;stroke:none;stroke-width:0.264583px;stroke-linecap:butt;stroke-linejoin:miter;stroke-opacity:1"
           d="m 53.812529,121.84638 c 18.939327,-2.99674 16.12377,-7.46879 20.81651,-8.44373 -0.98269,-5.12932 -4.12215,-11.14792 -4.12215,-11.14792 0,0 -2.56386,8.83868 -6.452079,12.10746 -3.88822,3.26877 -10.806901,5.18997 -10.971401,5.88339"
           id="path9647-4-8"
           sodipodi:nodetypes="ccczc"
           inkscape:label="ToothL" />
        <path
           id="rect9794"
           style="fill:#ffffff;stroke-width:0.607998;stroke-linecap:round;stroke-linejoin:round;stroke-miterlimit:3"
           d="m 75.650012,63.752894 c -0.459315,0.0014 -0.849164,0.0101 -1.1675,0.02928 0.200766,0.966701 0.480736,8.992794 -0.0085,9.291524 -0.50925,0.31092 -7.251248,0.07783 -7.394882,0.344464 -0.362164,0.672311 -0.373819,4.386309 0.283248,4.488497 6.933658,1.07833 24.937268,-2.347401 34.239202,-0.0041 0.35472,0.08937 0.21021,-4.534814 0,-4.484443 -0.29064,0.06963 -6.599789,0.245752 -6.844853,-0.236694 -0.157429,-0.309926 -0.01069,-7.043306 0.08071,-9.293348 -9.35127,0.215166 -15.972173,-0.144797 -19.187382,-0.13523 z"
           sodipodi:nodetypes="scsssssscss"
           inkscape:label="Hut" />
        <path
           style="fill:#ffffff;fill-opacity:0.982422;stroke:none;stroke-width:0.173805px;stroke-linecap:butt;stroke-linejoin:miter;stroke-opacity:1"
           d="m 55.763801,149.7974 c -0.178931,-3.25863 0.902108,-1.30522 2.185519,-1.03057 2.026728,0.43373 2.568393,1.38044 2.531965,3.29033 -0.08213,4.30603 0.373939,3.53204 -1.82955,2.73498 -1.406899,-0.50891 -2.709004,-1.73612 -2.887934,-4.99474 z"
           id="path2146-3-6-7"
           sodipodi:nodetypes="sssss"
           inkscape:label="Toe1" />
        <path
           style="fill:#ffffff;fill-opacity:0.982422;stroke:none;stroke-width:0.178391px;stroke-linecap:butt;stroke-linejoin:miter;stroke-opacity:1"
           d="m 61.416034,151.56876 c 0.274149,-2.19912 1.155231,-1.76397 3.207267,-1.2289 2.207052,0.57549 4.237646,-1.88347 3.744033,0.49498 -0.493613,2.37845 0.503054,4.86145 -3.38594,4.8897 -3.089286,0.0224 -4.207922,0.9986 -3.56536,-4.15578 z"
           id="path2146-3-0"
           sodipodi:nodetypes="sszss"
           inkscape:label="Toe2" />
        <path
           style="fill:#ffffff;fill-opacity:0.982422;stroke:none;stroke-width:0.173805px;stroke-linecap:butt;stroke-linejoin:miter;stroke-opacity:1"
           d="m 70.775002,149.5268 c 1.237235,-0.29023 2.400218,-1.01772 2.454882,0.045 0.110712,2.15242 -0.648409,4.08941 -2.874267,5.04372 -0.650772,0.27901 -1.867209,0.80301 -1.481757,-1.54303 0.311552,-1.89625 0.38084,-3.1891 1.901142,-3.54573 z"
           id="path2146-3-6-2-9"
           sodipodi:nodetypes="sssss"
           inkscape:label="Toe3" />
        <path
           style="fill:#ffffff;fill-opacity:0.982422;stroke:none;stroke-width:0.173805px;stroke-linecap:butt;stroke-linejoin:miter;stroke-opacity:1"
           d="m 114.3789,148.30703 c 0.17893,-3.25863 -1.70364,0.17071 -2.98705,0.44536 -2.02673,0.43373 -2.2464,0.69005 -2.20997,2.59994 0.0821,4.30603 0.88355,3.88216 3.08704,3.0851 1.4069,-0.50891 1.93105,-2.87178 2.10998,-6.1304 z"
           id="path2146-3-6-6-3"
           sodipodi:nodetypes="sssss"
           inkscape:label="Toe6" />
        <path
           style="fill:#ffffff;fill-opacity:0.982422;stroke:none;stroke-width:0.178391px;stroke-linecap:butt;stroke-linejoin:miter;stroke-opacity:1"
           d="m 108.24713,150.86393 c -0.23763,-0.90376 -1.15523,-1.76397 -3.20727,-1.2289 -2.20706,0.57549 -3.93675,-0.97928 -3.76599,1.95983 0.17077,2.93912 -0.48084,3.47893 3.4079,3.42485 3.4381,-0.0478 5.11895,1.75284 3.56536,-4.15578 z"
           id="path2146-3-7-6"
           sodipodi:nodetypes="sszss"
           inkscape:label="Toe5" />
        <path
           style="fill:#ffffff;fill-opacity:0.982422;stroke:none;stroke-width:0.173805px;stroke-linecap:butt;stroke-linejoin:miter;stroke-opacity:1"
           d="m 98.371936,149.08879 c -1.836149,-1.04647 -2.541424,-1.01424 -2.56507,-0.38431 -0.08085,2.15374 1.061304,4.41182 3.287154,5.36613 0.65078,0.27901 1.70936,0.67431 1.69527,-1.70295 -0.0245,-4.13295 -1.098446,-2.52718 -2.417354,-3.27887 z"
           id="path2146-3-6-2-5-0"
           sodipodi:nodetypes="sssss"
           inkscape:label="Toe4" />
        <path
           id="path2146-5-4-6"
           style="fill:#ffffff;fill-opacity:0.83285;stroke:none;stroke-width:0.264583px;stroke-linecap:butt;stroke-linejoin:miter;stroke-opacity:1"
           inkscape:label="EarL"
           d="m 60.634556,66.427962 c -1.239099,0.0038 -2.430965,0.270358 -3.495557,0.6687 -2.671908,0.99976 -10.888359,8.60297 -11.421849,9.88888 -0.533499,1.285911 4.430224,15.398158 8.57146,19.704818 4.141236,4.30667 4.500528,-3.78236 6.124837,-8.85069 1.624298,-5.068329 8.884672,-16.444203 5.878625,-19.178803 -1.808325,-1.645033 -3.78672,-2.2387 -5.657516,-2.232905 z M 56.26769,95.15162 c -0.741049,0.8233 -2.071108,-1.41627 -2.8868,-2.29606 -0.988658,-1.06634 -0.732874,-2.79788 0.136045,-3.32071 0.868919,-0.52282 3.733595,-2.630336 3.818662,-0.0842 0.18711,3.13799 -0.266196,4.81028 -1.067907,5.70097 z"
           sodipodi:nodetypes="ssssssssszcs" />
        <path
           id="path2146-5-4-5-2"
           style="fill:#ffffff;fill-opacity:0.83285;stroke:none;stroke-width:0.264583px;stroke-linecap:butt;stroke-linejoin:miter;stroke-opacity:1"
           inkscape:label="EarR"
           d="m 108.61011,66.571274 c 1.2391,0.0038 2.43097,0.270358 3.49556,0.6687 2.67191,0.99976 10.88836,8.60297 11.42185,9.88888 0.5335,1.285911 -4.43023,15.398156 -8.57146,19.704816 -4.14124,4.30667 -4.50053,-3.78235 -6.12484,-8.85069 -1.6243,-5.068327 -8.884679,-16.444201 -5.87863,-19.178801 1.80833,-1.645033 3.78673,-2.2387 5.65752,-2.232905 z m 4.36687,28.723656 c 0.74105,0.8233 1.95944,-1.53409 2.8868,-2.29606 1.98416,-1.6303 0.73287,-2.79788 -0.13605,-3.32071 -0.86892,-0.52282 -3.73359,-2.630334 -3.81866,-0.0842 -0.18711,3.13799 0.2662,4.81029 1.06791,5.70097 z"
           sodipodi:nodetypes="ssssssssszcs" />
      </g>
    </g>
  </g>
</svg>
