<?xml version="1.0" encoding="UTF-8" standalone="no"?>
<!-- Created with Inkscape (http://www.inkscape.org/) -->

<svg
   width="210mm"
   height="297mm"
   viewBox="0 0 210 297"
   version="1.1"
   id="svg883"
   inkscape:version="1.2.2 (b0a8486541, 2022-12-01)"
   sodipodi:docname="footprint_pads.svg"
   xmlns:inkscape="http://www.inkscape.org/namespaces/inkscape"
   xmlns:sodipodi="http://sodipodi.sourceforge.net/DTD/sodipodi-0.dtd"
   xmlns="http://www.w3.org/2000/svg"
   xmlns:svg="http://www.w3.org/2000/svg">
  <sodipodi:namedview
     id="namedview885"
     pagecolor="#ffffff"
     bordercolor="#666666"
     borderopacity="1.0"
     inkscape:showpageshadow="2"
     inkscape:pageopacity="0.0"
     inkscape:pagecheckerboard="0"
     inkscape:deskcolor="#d1d1d1"
     inkscape:document-units="mm"
     showgrid="false"
     inkscape:zoom="1.3895"
     inkscape:cx="537.96331"
     inkscape:cy="289.31271"
     inkscape:window-width="1920"
     inkscape:window-height="1011"
     inkscape:window-x="0"
     inkscape:window-y="0"
     inkscape:window-maximized="1"
     inkscape:current-layer="layer3-6" />
  <defs
     id="defs880" />
  <g
     inkscape:label="Layer 1"
     inkscape:groupmode="layer"
     id="layer1">
    <g
       inkscape:groupmode="layer"
       id="layer3"
       inkscape:label="Pads"
       transform="matrix(0.96757737,0,0,0.97062361,70.217488,-31.350487)">
      <g
         inkscape:groupmode="layer"
         id="layer3-6"
         inkscape:label="Pads"
         transform="translate(-33.119414,31.348644)">
        <path
           id="path2146-5-4"
           style="fill:#d2c6bd;fill-opacity:1;stroke:none;stroke-width:0.264583px;stroke-linecap:butt;stroke-linejoin:miter;stroke-opacity:1"
           inkscape:label="EarL"
           d="m 57.335336,49.249727 c -1.239099,0.0038 -2.430965,0.270358 -3.495557,0.6687 -2.671908,0.99976 -10.888359,8.60297 -11.421849,9.88888 -0.533499,1.285911 4.430224,15.398154 8.57146,19.704821 4.141236,4.306667 4.500528,-3.78236 6.124837,-8.850691 1.624298,-5.068331 8.884672,-16.444205 5.878625,-19.178805 -1.808325,-1.645033 -3.78672,-2.2387 -5.657516,-2.232905 z m -4.366866,28.72366 c -0.741049,0.823293 -2.071108,-1.416277 -2.8868,-2.296062 -0.988658,-1.066343 -0.732874,-2.797883 0.136045,-3.320707 0.868919,-0.522824 3.733595,-2.630339 3.818662,-0.0842 0.18711,3.137987 -0.266196,4.81028 -1.067907,5.700969 z"
           sodipodi:nodetypes="ssssssssszcs" />
        <path
           id="path2146-5-4-5"
           style="fill:#d2c6bd;fill-opacity:1;stroke:none;stroke-width:0.264583px;stroke-linecap:butt;stroke-linejoin:miter;stroke-opacity:1"
           inkscape:label="EarR"
           d="m 105.31088,49.393039 c 1.2391,0.0038 2.43097,0.270358 3.49556,0.6687 2.67191,0.99976 10.88836,8.60297 11.42185,9.88888 0.5335,1.285911 -4.43023,15.398154 -8.57146,19.704821 -4.14124,4.306667 -4.50053,-3.78236 -6.12484,-8.850691 -1.6243,-5.068331 -8.884669,-16.444205 -5.878619,-19.178805 1.808319,-1.645033 3.786719,-2.2387 5.657509,-2.232905 z m 4.36687,28.72366 c 0.74105,0.823293 1.95944,-1.53409 2.8868,-2.296062 1.98416,-1.630303 0.73287,-2.797883 -0.13605,-3.320707 -0.86892,-0.522824 -3.73359,-2.630339 -3.81866,-0.0842 -0.18711,3.137987 0.2662,4.81028 1.06791,5.700969 z"
           sodipodi:nodetypes="ssssssssszcs" />
        <path
           style="fill:#d2c6bd;fill-opacity:1;stroke:none;stroke-width:0.173805px;stroke-linecap:butt;stroke-linejoin:miter;stroke-opacity:1"
           d="m 52.692559,134.35838 c -0.232999,-1.47764 0.235646,-1.77439 1.29888,-1.13086 1.063234,0.64353 1.367837,0.57829 1.269263,1.81391 -0.09857,1.23563 -0.251895,2.49761 -0.833431,1.88489 -0.581538,-0.61271 -1.501713,-1.0903 -1.734712,-2.56794 z"
           id="path2146-3-6"
           sodipodi:nodetypes="zzzzz"
           inkscape:label="Toe1" />
        <path
           style="fill:#d2c6bd;fill-opacity:1;stroke:none;stroke-width:0.145896px;stroke-linecap:butt;stroke-linejoin:miter;stroke-opacity:1"
           d="m 55.50666,136.02384 c -0.03859,-1.37865 0.843954,-1.7054 2.573807,-1.89156 1.729853,-0.18616 3.56599,1.16677 3.487664,2.78102 -0.07834,1.61424 -0.139065,1.31841 -3.446366,1.17582 -3.307298,-0.14258 -2.576517,-0.68664 -2.615105,-2.06528 z"
           id="path2146-3"
           sodipodi:nodetypes="zzzzz"
           inkscape:label="Toe2" />
        <path
           style="fill:#d2c6bd;fill-opacity:1;stroke:none;stroke-width:0.173805px;stroke-linecap:butt;stroke-linejoin:miter;stroke-opacity:1"
           d="m 62.352783,137.05227 c 0.01276,-1.18381 -0.510987,-3.36032 2.730634,-3.1753 3.241621,0.18502 3.308688,-0.47422 4.178377,0.6866 0.86969,1.16082 -2.020953,2.45526 -4.225307,3.04835 -2.204354,0.59309 -2.696464,0.62416 -2.683704,-0.55965 z"
           id="path2146-3-5"
           sodipodi:nodetypes="zzzzz"
           inkscape:label="Toe4" />
        <path
           style="fill:#d2c6bd;fill-opacity:1;stroke:none;stroke-width:0.172879px;stroke-linecap:butt;stroke-linejoin:miter;stroke-opacity:1"
           d="m 93.366362,135.06847 c -0.267588,-1.71212 1.373692,-1.61005 3.58411,-1.00753 2.210418,0.60252 2.825307,-0.20381 3.070568,1.65606 0.24527,1.85988 -0.24634,2.21725 -2.219221,1.88164 -1.97287,-0.33562 -4.167869,-0.81805 -4.435457,-2.53017 z"
           id="path2146-3-1"
           sodipodi:nodetypes="zzzzz"
           inkscape:label="Toe7" />
        <path
           style="fill:#d2c6bd;fill-opacity:1;stroke:none;stroke-width:0.168434px;stroke-linecap:butt;stroke-linejoin:miter;stroke-opacity:1"
           d="m 110.94466,133.96017 c 0.17313,-2.07693 -0.48665,-2.4978 -1.33377,-2.05518 -0.84712,0.44262 -1.18285,1.28232 -1.35099,3.07218 -0.16814,1.78986 0.0149,2.45358 0.92938,2.0858 0.91447,-0.36778 1.58225,-1.02587 1.75538,-3.1028 z"
           id="path2146-3-6-9-0"
           sodipodi:nodetypes="zzzzz"
           inkscape:label="Toe10" />
        <path
           style="fill:#d2c6bd;fill-opacity:1;stroke:none;stroke-width:0.168434px;stroke-linecap:butt;stroke-linejoin:miter;stroke-opacity:1"
           d="m 100.70228,136.36876 c -0.0659,-2.4542 0.92933,-1.99186 3.92959,-2.57505 3.00026,-0.58318 2.76814,1.10825 2.97394,2.00091 0.2058,0.89266 0.41364,1.98318 -1.89283,2.2358 -2.30646,0.2526 -4.94482,0.79254 -5.0107,-1.66166 z"
           id="path2146-3-5-3"
           sodipodi:nodetypes="zzzzz"
           inkscape:label="Toe9" />
      </g>
    </g>
  </g>
</svg>
