<?xml version="1.0" encoding="UTF-8" standalone="no"?>
<!-- Created with Inkscape (http://www.inkscape.org/) -->

<svg
   width="210mm"
   height="297mm"
   viewBox="0 0 210 297"
   version="1.1"
   id="svg453"
   inkscape:version="1.3 (0e150ed6c4, 2023-07-21)"
   sodipodi:docname="footprint_mask.svg"
   xmlns:inkscape="http://www.inkscape.org/namespaces/inkscape"
   xmlns:sodipodi="http://sodipodi.sourceforge.net/DTD/sodipodi-0.dtd"
   xmlns="http://www.w3.org/2000/svg"
   xmlns:svg="http://www.w3.org/2000/svg">
  <sodipodi:namedview
     id="namedview455"
     pagecolor="#ffffff"
     bordercolor="#666666"
     borderopacity="1.0"
     inkscape:showpageshadow="2"
     inkscape:pageopacity="0.0"
     inkscape:pagecheckerboard="true"
     inkscape:deskcolor="#d1d1d1"
     inkscape:document-units="mm"
     showgrid="false"
     inkscape:zoom="3.9408306"
     inkscape:cx="512.83605"
     inkscape:cy="117.10729"
     inkscape:window-width="2560"
     inkscape:window-height="1371"
     inkscape:window-x="0"
     inkscape:window-y="0"
     inkscape:window-maximized="1"
     inkscape:current-layer="layer2"
     showguides="false" />
  <defs
     id="defs450" />
  <g
     inkscape:label="Layer 1"
     inkscape:groupmode="layer"
     id="layer1">
    <g
       inkscape:groupmode="layer"
       id="layer2"
       inkscape:label="Silkscreen"
       transform="matrix(0.96757737,0,0,0.97062361,74.015442,-6.6637856)">
      <path
         style="fill:#d2c6bd;fill-opacity:1;stroke:none;stroke-width:0.989799;stroke-linecap:round;stroke-linejoin:round;stroke-dasharray:none;stroke-opacity:1"
         d="m 91.366442,21.884598 c -7.364507,-0.364792 -16.703621,0.782495 -23.246927,0.96099 -1.059917,1.427418 -2.141248,3.187493 -2.840241,5.199461 -0.7703,2.217219 -0.523006,5.19043 0.03151,8.570115 0.550381,3.354488 1.379316,7.105946 1.691433,10.941443 0.903482,3.332752 3.964265,8.604363 4.726079,14.5586 0.378906,2.96149 0.804734,9.685508 1.461245,16.279331 0.328257,3.29691 0.712786,6.556505 1.173909,9.27342 0.441024,2.598476 0.978792,4.60312 1.526937,5.703117 l 7.885166,-0.05058 c 0.771167,-2.467189 1.73493,-8.815127 2.569996,-15.351882 0.858238,-6.718135 1.602014,-13.550464 1.976632,-16.47845 0.762901,-5.962742 3.792517,-10.289051 4.417915,-14.099667 1.032874,-7.063625 2.545911,-13.525976 1.226783,-19.281027 -0.622642,-2.716448 -1.641426,-4.772666 -2.600438,-6.224872 z"
         id="path1" />
    </g>
    <g
       inkscape:groupmode="layer"
       id="layer3"
       inkscape:label="Pads"
       transform="matrix(0.96757737,0,0,0.97062361,74.015442,-6.6637856)" />
  </g>
</svg>
