<?xml version="1.0" encoding="UTF-8" standalone="no"?>
<!-- Created with Inkscape (http://www.inkscape.org/) -->

<svg
   width="210mm"
   height="297mm"
   viewBox="0 0 210 297"
   version="1.1"
   id="svg2340"
   inkscape:version="1.3 (0e150ed6c4, 2023-07-21)"
   sodipodi:docname="outline.svg"
   xmlns:inkscape="http://www.inkscape.org/namespaces/inkscape"
   xmlns:sodipodi="http://sodipodi.sourceforge.net/DTD/sodipodi-0.dtd"
   xmlns="http://www.w3.org/2000/svg"
   xmlns:svg="http://www.w3.org/2000/svg">
  <sodipodi:namedview
     id="namedview2342"
     pagecolor="#ffffff"
     bordercolor="#666666"
     borderopacity="1.0"
     inkscape:showpageshadow="2"
     inkscape:pageopacity="0.0"
     inkscape:pagecheckerboard="0"
     inkscape:deskcolor="#d1d1d1"
     inkscape:document-units="mm"
     showgrid="false"
     inkscape:zoom="5.5731764"
     inkscape:cx="387.30158"
     inkscape:cy="604.59239"
     inkscape:window-width="2560"
     inkscape:window-height="1371"
     inkscape:window-x="0"
     inkscape:window-y="0"
     inkscape:window-maximized="1"
     inkscape:current-layer="layer1" />
  <defs
     id="defs2337" />
  <g
     inkscape:label="Layer 1"
     inkscape:groupmode="layer"
     id="layer1">
    <path
       id="path1064"
       style="fill:#d000f7;fill-opacity:1;stroke:none;stroke-width:0.231119px;stroke-linecap:butt;stroke-linejoin:miter;stroke-opacity:1"
       inkscape:label="Edges"
       d="m 85.904318,121.97797 c -0.296637,-0.01 -0.586744,-0.005 -0.869198,0.015 -4.519243,0.32331 -14.656627,9.8769 -14.655953,12.97233 1.504933,8.12431 3.921495,23.04008 11.142473,25.60412 -0.969392,0.0626 -3.070066,4.44174 -2.937289,9.26559 0.06996,2.54188 0.351933,11.99359 1.825729,21.56767 1.940909,12.60855 1.145479,17.22827 2.955892,18.79833 3.185106,2.76226 10.596452,1.53007 13.658597,0.51108 3.062141,-1.01899 2.340248,-4.85564 3.708301,-5.57072 1.32309,-0.69158 4.68531,-0.54787 9.5498,-0.55862 4.8645,-0.0108 8.33737,-0.13426 9.69657,0.57619 1.36805,0.71508 0.64564,4.55175 3.70779,5.57072 3.06214,1.01901 11.79642,2.37005 14.98151,-0.39222 1.17436,-1.01845 1.37923,-11.60494 2.37763,-19.34042 1.70946,-13.24478 1.54233,-17.94681 1.2733,-22.94433 -0.28118,-5.22359 -3.65609,-7.52099 -3.65609,-7.52099 3.9347,-2.19399 10.863,-17.66093 11.70677,-25.56692 0.0165,-1.74815 -10.43957,-12.52457 -15.71636,-12.60388 -5.26349,-0.0791 -10.11186,3.82723 -13.81465,9.12399 -0.37568,-0.0477 -0.62402,-0.11277 -0.66818,-0.19999 -0.15232,-0.30082 -0.0104,-6.83618 0.078,-9.02012 -9.04806,0.20885 -15.45432,-0.14054 -18.56527,-0.13125 -0.44443,0.001 -0.82164,0.01 -1.12965,0.0284 0.19425,0.93829 0.4651,8.72861 -0.008,9.01856 -0.0735,0.045 -0.30987,0.0759 -0.610818,0.10077 -3.829601,-5.73362 -9.645128,-9.15545 -14.030668,-9.3033 z"
       sodipodi:nodetypes="scccssssscsssssccscscccccss" />
  </g>
</svg>
