G04 #@! TF.GenerationSoftware,KiCad,Pcbnew,7.0.2.1-36-g582732918d-dirty-deb11*
G04 #@! TF.CreationDate,2024-01-19T22:43:06+00:00*
G04 #@! TF.ProjectId,owlThief,6f776c54-6869-4656-962e-6b696361645f,rev?*
G04 #@! TF.SameCoordinates,Original*
G04 #@! TF.FileFunction,Copper,L1,Top*
G04 #@! TF.FilePolarity,Positive*
%FSLAX46Y46*%
G04 Gerber Fmt 4.6, Leading zero omitted, Abs format (unit mm)*
G04 Created by KiCad (PCBNEW 7.0.2.1-36-g582732918d-dirty-deb11) date 2024-01-19 22:43:06*
%MOMM*%
%LPD*%
G01*
G04 APERTURE LIST*
G04 #@! TA.AperFunction,EtchedComponent*
%ADD10C,0.010000*%
G04 #@! TD*
G04 APERTURE END LIST*
D10*
X226264039Y-50578920D02*
X226573052Y-50691275D01*
X226847134Y-50865432D01*
X227078633Y-51091268D01*
X227259899Y-51358663D01*
X227383282Y-51657494D01*
X227441130Y-51977642D01*
X227425794Y-52308983D01*
X227389323Y-52472088D01*
X227254406Y-52802970D01*
X227057578Y-53087095D01*
X226809437Y-53318088D01*
X226520579Y-53489575D01*
X226201602Y-53595180D01*
X225863102Y-53628529D01*
X225534577Y-53587828D01*
X225241824Y-53479230D01*
X224964647Y-53303152D01*
X224721854Y-53076107D01*
X224532251Y-52814607D01*
X224445615Y-52631772D01*
X224386668Y-52405967D01*
X224356554Y-52142941D01*
X224357989Y-51883295D01*
X224383633Y-51705490D01*
X224448146Y-51523655D01*
X224553666Y-51317626D01*
X224680533Y-51120805D01*
X224809087Y-50966595D01*
X224830459Y-50946328D01*
X225010738Y-50809506D01*
X225225271Y-50684994D01*
X225436799Y-50593189D01*
X225522035Y-50567750D01*
X225630667Y-50551957D01*
X225786795Y-50541381D01*
X225927744Y-50538487D01*
X226264039Y-50578920D01*
G04 #@! TA.AperFunction,EtchedComponent*
G36*
X226264039Y-50578920D02*
G01*
X226573052Y-50691275D01*
X226847134Y-50865432D01*
X227078633Y-51091268D01*
X227259899Y-51358663D01*
X227383282Y-51657494D01*
X227441130Y-51977642D01*
X227425794Y-52308983D01*
X227389323Y-52472088D01*
X227254406Y-52802970D01*
X227057578Y-53087095D01*
X226809437Y-53318088D01*
X226520579Y-53489575D01*
X226201602Y-53595180D01*
X225863102Y-53628529D01*
X225534577Y-53587828D01*
X225241824Y-53479230D01*
X224964647Y-53303152D01*
X224721854Y-53076107D01*
X224532251Y-52814607D01*
X224445615Y-52631772D01*
X224386668Y-52405967D01*
X224356554Y-52142941D01*
X224357989Y-51883295D01*
X224383633Y-51705490D01*
X224448146Y-51523655D01*
X224553666Y-51317626D01*
X224680533Y-51120805D01*
X224809087Y-50966595D01*
X224830459Y-50946328D01*
X225010738Y-50809506D01*
X225225271Y-50684994D01*
X225436799Y-50593189D01*
X225522035Y-50567750D01*
X225630667Y-50551957D01*
X225786795Y-50541381D01*
X225927744Y-50538487D01*
X226264039Y-50578920D01*
G37*
G04 #@! TD.AperFunction*
X198462916Y-50552460D02*
X198798386Y-50638218D01*
X199102029Y-50798751D01*
X199363997Y-51027070D01*
X199574442Y-51316186D01*
X199597354Y-51357595D01*
X199669164Y-51501904D01*
X199713869Y-51627276D01*
X199739300Y-51765651D01*
X199753290Y-51948969D01*
X199755848Y-52003955D01*
X199750180Y-52321537D01*
X199697166Y-52587505D01*
X199588462Y-52825389D01*
X199415728Y-53058721D01*
X199359933Y-53120862D01*
X199094064Y-53350759D01*
X198790882Y-53513915D01*
X198464346Y-53606504D01*
X198128419Y-53624702D01*
X197797061Y-53564683D01*
X197770812Y-53556270D01*
X197431065Y-53401436D01*
X197144536Y-53181423D01*
X196915209Y-52899823D01*
X196794586Y-52676354D01*
X196743639Y-52538804D01*
X196713807Y-52387582D01*
X196700357Y-52193765D01*
X196698419Y-52088622D01*
X196699886Y-51893655D01*
X196712364Y-51751633D01*
X196742031Y-51630973D01*
X196795065Y-51500091D01*
X196826758Y-51432455D01*
X197020593Y-51117856D01*
X197266999Y-50866914D01*
X197558387Y-50683711D01*
X197887167Y-50572328D01*
X198245751Y-50536848D01*
X198462916Y-50552460D01*
G04 #@! TA.AperFunction,EtchedComponent*
G36*
X198462916Y-50552460D02*
G01*
X198798386Y-50638218D01*
X199102029Y-50798751D01*
X199363997Y-51027070D01*
X199574442Y-51316186D01*
X199597354Y-51357595D01*
X199669164Y-51501904D01*
X199713869Y-51627276D01*
X199739300Y-51765651D01*
X199753290Y-51948969D01*
X199755848Y-52003955D01*
X199750180Y-52321537D01*
X199697166Y-52587505D01*
X199588462Y-52825389D01*
X199415728Y-53058721D01*
X199359933Y-53120862D01*
X199094064Y-53350759D01*
X198790882Y-53513915D01*
X198464346Y-53606504D01*
X198128419Y-53624702D01*
X197797061Y-53564683D01*
X197770812Y-53556270D01*
X197431065Y-53401436D01*
X197144536Y-53181423D01*
X196915209Y-52899823D01*
X196794586Y-52676354D01*
X196743639Y-52538804D01*
X196713807Y-52387582D01*
X196700357Y-52193765D01*
X196698419Y-52088622D01*
X196699886Y-51893655D01*
X196712364Y-51751633D01*
X196742031Y-51630973D01*
X196795065Y-51500091D01*
X196826758Y-51432455D01*
X197020593Y-51117856D01*
X197266999Y-50866914D01*
X197558387Y-50683711D01*
X197887167Y-50572328D01*
X198245751Y-50536848D01*
X198462916Y-50552460D01*
G37*
G04 #@! TD.AperFunction*
X200119477Y-99743316D02*
X200433445Y-99852190D01*
X200717671Y-100026852D01*
X200961108Y-100262891D01*
X201152713Y-100555898D01*
X201215691Y-100696456D01*
X201254711Y-100829043D01*
X201292179Y-101012947D01*
X201321672Y-101214960D01*
X201328534Y-101279674D01*
X201358393Y-101516321D01*
X201402031Y-101702198D01*
X201468100Y-101871045D01*
X201493698Y-101923637D01*
X201683095Y-102212015D01*
X201925056Y-102444279D01*
X202207204Y-102616004D01*
X202517162Y-102722764D01*
X202842554Y-102760134D01*
X203171004Y-102723687D01*
X203456182Y-102625433D01*
X203741220Y-102463315D01*
X203965520Y-102267354D01*
X204135882Y-102027170D01*
X204259107Y-101732380D01*
X204341996Y-101372602D01*
X204360786Y-101244564D01*
X204414329Y-100922475D01*
X204486349Y-100665362D01*
X204585228Y-100454141D01*
X204719349Y-100269725D01*
X204846200Y-100139305D01*
X205106954Y-99931219D01*
X205372993Y-99797549D01*
X205665956Y-99729635D01*
X205902667Y-99716586D01*
X206233244Y-99740060D01*
X206512085Y-99814916D01*
X206760293Y-99949372D01*
X206985348Y-100138242D01*
X207170422Y-100345095D01*
X207303884Y-100562055D01*
X207395134Y-100810555D01*
X207453571Y-101112028D01*
X207468660Y-101240332D01*
X207500524Y-101486077D01*
X207543530Y-101678507D01*
X207605536Y-101848907D01*
X207640315Y-101923848D01*
X207824946Y-102211309D01*
X208062218Y-102441371D01*
X208339940Y-102611094D01*
X208645926Y-102717537D01*
X208967988Y-102757759D01*
X209293935Y-102728821D01*
X209611581Y-102627781D01*
X209889087Y-102466363D01*
X210116355Y-102263570D01*
X210288776Y-102024036D01*
X210412113Y-101736121D01*
X210492131Y-101388185D01*
X210516560Y-101199202D01*
X210592360Y-100806836D01*
X210732924Y-100468994D01*
X210938247Y-100185688D01*
X211208318Y-99956931D01*
X211440919Y-99826911D01*
X211577470Y-99769721D01*
X211704580Y-99735718D01*
X211853201Y-99719322D01*
X212054284Y-99714956D01*
X212062167Y-99714953D01*
X212265507Y-99719017D01*
X212415364Y-99734927D01*
X212542690Y-99768261D01*
X212678437Y-99824597D01*
X212683414Y-99826911D01*
X212996944Y-100018410D01*
X213255402Y-100272626D01*
X213448586Y-100576164D01*
X213503916Y-100691756D01*
X213541832Y-100786758D01*
X213565443Y-100881191D01*
X213577863Y-100995078D01*
X213582203Y-101148438D01*
X213581575Y-101361293D01*
X213580990Y-101428020D01*
X213554539Y-101917727D01*
X213479897Y-102363568D01*
X213349963Y-102795570D01*
X213157631Y-103243755D01*
X213145515Y-103268627D01*
X212834501Y-103811143D01*
X212463306Y-104297802D01*
X212038118Y-104725316D01*
X211565126Y-105090395D01*
X211050519Y-105389751D01*
X210500487Y-105620095D01*
X209921217Y-105778138D01*
X209318900Y-105860591D01*
X208699723Y-105864166D01*
X208329313Y-105827987D01*
X207897556Y-105740617D01*
X207444550Y-105598248D01*
X206997236Y-105411961D01*
X206582551Y-105192836D01*
X206259125Y-104976422D01*
X206132614Y-104880337D01*
X206029184Y-104801985D01*
X205970621Y-104757869D01*
X205969709Y-104757190D01*
X205909608Y-104763464D01*
X205793824Y-104825808D01*
X205627501Y-104941400D01*
X205609043Y-104955210D01*
X205118175Y-105273141D01*
X204582075Y-105526902D01*
X204013830Y-105713380D01*
X203426527Y-105829460D01*
X202833251Y-105872028D01*
X202247090Y-105837969D01*
X202035740Y-105805524D01*
X201441416Y-105656657D01*
X200878418Y-105433558D01*
X200352860Y-105141961D01*
X199870856Y-104787601D01*
X199438520Y-104376212D01*
X199061966Y-103913529D01*
X198747307Y-103405285D01*
X198500658Y-102857215D01*
X198343849Y-102342896D01*
X198293528Y-102090369D01*
X198255182Y-101813068D01*
X198230675Y-101535102D01*
X198221867Y-101280580D01*
X198230621Y-101073612D01*
X198240451Y-101004169D01*
X198347548Y-100646970D01*
X198522239Y-100336941D01*
X198760172Y-100079831D01*
X199056998Y-99881390D01*
X199109557Y-99855519D01*
X199446488Y-99740571D01*
X199786809Y-99704640D01*
X200119477Y-99743316D01*
G04 #@! TA.AperFunction,EtchedComponent*
G36*
X200119477Y-99743316D02*
G01*
X200433445Y-99852190D01*
X200717671Y-100026852D01*
X200961108Y-100262891D01*
X201152713Y-100555898D01*
X201215691Y-100696456D01*
X201254711Y-100829043D01*
X201292179Y-101012947D01*
X201321672Y-101214960D01*
X201328534Y-101279674D01*
X201358393Y-101516321D01*
X201402031Y-101702198D01*
X201468100Y-101871045D01*
X201493698Y-101923637D01*
X201683095Y-102212015D01*
X201925056Y-102444279D01*
X202207204Y-102616004D01*
X202517162Y-102722764D01*
X202842554Y-102760134D01*
X203171004Y-102723687D01*
X203456182Y-102625433D01*
X203741220Y-102463315D01*
X203965520Y-102267354D01*
X204135882Y-102027170D01*
X204259107Y-101732380D01*
X204341996Y-101372602D01*
X204360786Y-101244564D01*
X204414329Y-100922475D01*
X204486349Y-100665362D01*
X204585228Y-100454141D01*
X204719349Y-100269725D01*
X204846200Y-100139305D01*
X205106954Y-99931219D01*
X205372993Y-99797549D01*
X205665956Y-99729635D01*
X205902667Y-99716586D01*
X206233244Y-99740060D01*
X206512085Y-99814916D01*
X206760293Y-99949372D01*
X206985348Y-100138242D01*
X207170422Y-100345095D01*
X207303884Y-100562055D01*
X207395134Y-100810555D01*
X207453571Y-101112028D01*
X207468660Y-101240332D01*
X207500524Y-101486077D01*
X207543530Y-101678507D01*
X207605536Y-101848907D01*
X207640315Y-101923848D01*
X207824946Y-102211309D01*
X208062218Y-102441371D01*
X208339940Y-102611094D01*
X208645926Y-102717537D01*
X208967988Y-102757759D01*
X209293935Y-102728821D01*
X209611581Y-102627781D01*
X209889087Y-102466363D01*
X210116355Y-102263570D01*
X210288776Y-102024036D01*
X210412113Y-101736121D01*
X210492131Y-101388185D01*
X210516560Y-101199202D01*
X210592360Y-100806836D01*
X210732924Y-100468994D01*
X210938247Y-100185688D01*
X211208318Y-99956931D01*
X211440919Y-99826911D01*
X211577470Y-99769721D01*
X211704580Y-99735718D01*
X211853201Y-99719322D01*
X212054284Y-99714956D01*
X212062167Y-99714953D01*
X212265507Y-99719017D01*
X212415364Y-99734927D01*
X212542690Y-99768261D01*
X212678437Y-99824597D01*
X212683414Y-99826911D01*
X212996944Y-100018410D01*
X213255402Y-100272626D01*
X213448586Y-100576164D01*
X213503916Y-100691756D01*
X213541832Y-100786758D01*
X213565443Y-100881191D01*
X213577863Y-100995078D01*
X213582203Y-101148438D01*
X213581575Y-101361293D01*
X213580990Y-101428020D01*
X213554539Y-101917727D01*
X213479897Y-102363568D01*
X213349963Y-102795570D01*
X213157631Y-103243755D01*
X213145515Y-103268627D01*
X212834501Y-103811143D01*
X212463306Y-104297802D01*
X212038118Y-104725316D01*
X211565126Y-105090395D01*
X211050519Y-105389751D01*
X210500487Y-105620095D01*
X209921217Y-105778138D01*
X209318900Y-105860591D01*
X208699723Y-105864166D01*
X208329313Y-105827987D01*
X207897556Y-105740617D01*
X207444550Y-105598248D01*
X206997236Y-105411961D01*
X206582551Y-105192836D01*
X206259125Y-104976422D01*
X206132614Y-104880337D01*
X206029184Y-104801985D01*
X205970621Y-104757869D01*
X205969709Y-104757190D01*
X205909608Y-104763464D01*
X205793824Y-104825808D01*
X205627501Y-104941400D01*
X205609043Y-104955210D01*
X205118175Y-105273141D01*
X204582075Y-105526902D01*
X204013830Y-105713380D01*
X203426527Y-105829460D01*
X202833251Y-105872028D01*
X202247090Y-105837969D01*
X202035740Y-105805524D01*
X201441416Y-105656657D01*
X200878418Y-105433558D01*
X200352860Y-105141961D01*
X199870856Y-104787601D01*
X199438520Y-104376212D01*
X199061966Y-103913529D01*
X198747307Y-103405285D01*
X198500658Y-102857215D01*
X198343849Y-102342896D01*
X198293528Y-102090369D01*
X198255182Y-101813068D01*
X198230675Y-101535102D01*
X198221867Y-101280580D01*
X198230621Y-101073612D01*
X198240451Y-101004169D01*
X198347548Y-100646970D01*
X198522239Y-100336941D01*
X198760172Y-100079831D01*
X199056998Y-99881390D01*
X199109557Y-99855519D01*
X199446488Y-99740571D01*
X199786809Y-99704640D01*
X200119477Y-99743316D01*
G37*
G04 #@! TD.AperFunction*
X200180946Y-75169644D02*
X200495794Y-75296244D01*
X200784519Y-75496319D01*
X200862929Y-75569367D01*
X201064376Y-75817632D01*
X201207953Y-76108442D01*
X201298374Y-76453000D01*
X201327495Y-76673025D01*
X201368183Y-76972173D01*
X201433230Y-77212080D01*
X201532712Y-77416962D01*
X201676704Y-77611033D01*
X201752803Y-77695064D01*
X202018473Y-77919935D01*
X202319392Y-78077027D01*
X202641756Y-78162280D01*
X202971759Y-78171631D01*
X203217425Y-78125978D01*
X203551200Y-77990304D01*
X203841566Y-77790318D01*
X204077213Y-77535659D01*
X204238398Y-77255788D01*
X204270667Y-77151674D01*
X204306517Y-76988643D01*
X204340833Y-76791995D01*
X204360988Y-76649568D01*
X204425696Y-76292328D01*
X204524740Y-75998639D01*
X204665957Y-75751637D01*
X204857188Y-75534459D01*
X204896024Y-75498581D01*
X205159193Y-75306471D01*
X205448601Y-75185057D01*
X205779018Y-75128990D01*
X205931012Y-75123645D01*
X206114497Y-75126962D01*
X206252208Y-75143538D01*
X206380143Y-75181863D01*
X206534301Y-75250426D01*
X206595475Y-75280350D01*
X206869812Y-75443768D01*
X207084865Y-75640627D01*
X207261122Y-75891667D01*
X207332602Y-76026544D01*
X207381123Y-76131091D01*
X207413568Y-76224375D01*
X207432988Y-76327223D01*
X207442431Y-76460461D01*
X207444946Y-76644917D01*
X207444390Y-76790122D01*
X207398694Y-77391506D01*
X207271140Y-77978959D01*
X207064198Y-78546146D01*
X206780335Y-79086733D01*
X206422019Y-79594384D01*
X206291339Y-79749637D01*
X205927243Y-80109953D01*
X205499312Y-80440355D01*
X205026347Y-80729360D01*
X204527147Y-80965485D01*
X204020514Y-81137246D01*
X204018833Y-81137698D01*
X203853340Y-81180157D01*
X203708848Y-81210641D01*
X203565342Y-81231123D01*
X203402809Y-81243576D01*
X203201233Y-81249974D01*
X202940601Y-81252289D01*
X202854667Y-81252474D01*
X202529539Y-81250235D01*
X202266322Y-81240091D01*
X202042363Y-81218338D01*
X201835008Y-81181272D01*
X201621606Y-81125189D01*
X201379504Y-81046387D01*
X201196264Y-80981316D01*
X200709425Y-80765630D01*
X200226459Y-80474295D01*
X200010756Y-80317986D01*
X199770345Y-80134132D01*
X199460422Y-80367894D01*
X199185336Y-80553529D01*
X198859571Y-80738756D01*
X198515510Y-80906753D01*
X198185536Y-81040700D01*
X198124839Y-81061670D01*
X197699275Y-81173190D01*
X197226809Y-81244503D01*
X196735890Y-81274008D01*
X196254969Y-81260102D01*
X195812497Y-81201184D01*
X195776857Y-81193898D01*
X195520674Y-81136892D01*
X195315695Y-81082262D01*
X195129449Y-81019478D01*
X194929465Y-80938004D01*
X194772452Y-80868094D01*
X194233574Y-80577868D01*
X193743572Y-80221716D01*
X193306942Y-79805813D01*
X192928176Y-79336334D01*
X192611766Y-78819453D01*
X192362207Y-78261344D01*
X192183991Y-77668182D01*
X192098460Y-77193392D01*
X192070201Y-76756820D01*
X192106467Y-76372241D01*
X192208331Y-76035590D01*
X192376866Y-75742804D01*
X192527404Y-75569367D01*
X192806181Y-75347574D01*
X193114552Y-75199346D01*
X193440744Y-75124375D01*
X193772988Y-75122354D01*
X194099510Y-75192972D01*
X194408539Y-75335922D01*
X194688305Y-75550896D01*
X194763475Y-75627969D01*
X194947016Y-75869123D01*
X195073276Y-76135675D01*
X195150268Y-76447510D01*
X195174772Y-76648408D01*
X195237253Y-77033103D01*
X195354372Y-77357533D01*
X195530129Y-77629288D01*
X195768525Y-77855957D01*
X195837655Y-77905971D01*
X196147925Y-78070623D01*
X196477174Y-78157864D01*
X196812841Y-78168857D01*
X197142365Y-78104764D01*
X197453186Y-77966747D01*
X197732743Y-77755969D01*
X197761483Y-77727954D01*
X197953418Y-77495613D01*
X198088413Y-77232811D01*
X198173941Y-76922195D01*
X198205541Y-76696608D01*
X198256188Y-76357927D01*
X198338030Y-76080375D01*
X198459071Y-75843656D01*
X198626858Y-75627969D01*
X198895751Y-75391822D01*
X199197377Y-75227608D01*
X199519966Y-75135635D01*
X199851746Y-75116211D01*
X200180946Y-75169644D01*
G04 #@! TA.AperFunction,EtchedComponent*
G36*
X200180946Y-75169644D02*
G01*
X200495794Y-75296244D01*
X200784519Y-75496319D01*
X200862929Y-75569367D01*
X201064376Y-75817632D01*
X201207953Y-76108442D01*
X201298374Y-76453000D01*
X201327495Y-76673025D01*
X201368183Y-76972173D01*
X201433230Y-77212080D01*
X201532712Y-77416962D01*
X201676704Y-77611033D01*
X201752803Y-77695064D01*
X202018473Y-77919935D01*
X202319392Y-78077027D01*
X202641756Y-78162280D01*
X202971759Y-78171631D01*
X203217425Y-78125978D01*
X203551200Y-77990304D01*
X203841566Y-77790318D01*
X204077213Y-77535659D01*
X204238398Y-77255788D01*
X204270667Y-77151674D01*
X204306517Y-76988643D01*
X204340833Y-76791995D01*
X204360988Y-76649568D01*
X204425696Y-76292328D01*
X204524740Y-75998639D01*
X204665957Y-75751637D01*
X204857188Y-75534459D01*
X204896024Y-75498581D01*
X205159193Y-75306471D01*
X205448601Y-75185057D01*
X205779018Y-75128990D01*
X205931012Y-75123645D01*
X206114497Y-75126962D01*
X206252208Y-75143538D01*
X206380143Y-75181863D01*
X206534301Y-75250426D01*
X206595475Y-75280350D01*
X206869812Y-75443768D01*
X207084865Y-75640627D01*
X207261122Y-75891667D01*
X207332602Y-76026544D01*
X207381123Y-76131091D01*
X207413568Y-76224375D01*
X207432988Y-76327223D01*
X207442431Y-76460461D01*
X207444946Y-76644917D01*
X207444390Y-76790122D01*
X207398694Y-77391506D01*
X207271140Y-77978959D01*
X207064198Y-78546146D01*
X206780335Y-79086733D01*
X206422019Y-79594384D01*
X206291339Y-79749637D01*
X205927243Y-80109953D01*
X205499312Y-80440355D01*
X205026347Y-80729360D01*
X204527147Y-80965485D01*
X204020514Y-81137246D01*
X204018833Y-81137698D01*
X203853340Y-81180157D01*
X203708848Y-81210641D01*
X203565342Y-81231123D01*
X203402809Y-81243576D01*
X203201233Y-81249974D01*
X202940601Y-81252289D01*
X202854667Y-81252474D01*
X202529539Y-81250235D01*
X202266322Y-81240091D01*
X202042363Y-81218338D01*
X201835008Y-81181272D01*
X201621606Y-81125189D01*
X201379504Y-81046387D01*
X201196264Y-80981316D01*
X200709425Y-80765630D01*
X200226459Y-80474295D01*
X200010756Y-80317986D01*
X199770345Y-80134132D01*
X199460422Y-80367894D01*
X199185336Y-80553529D01*
X198859571Y-80738756D01*
X198515510Y-80906753D01*
X198185536Y-81040700D01*
X198124839Y-81061670D01*
X197699275Y-81173190D01*
X197226809Y-81244503D01*
X196735890Y-81274008D01*
X196254969Y-81260102D01*
X195812497Y-81201184D01*
X195776857Y-81193898D01*
X195520674Y-81136892D01*
X195315695Y-81082262D01*
X195129449Y-81019478D01*
X194929465Y-80938004D01*
X194772452Y-80868094D01*
X194233574Y-80577868D01*
X193743572Y-80221716D01*
X193306942Y-79805813D01*
X192928176Y-79336334D01*
X192611766Y-78819453D01*
X192362207Y-78261344D01*
X192183991Y-77668182D01*
X192098460Y-77193392D01*
X192070201Y-76756820D01*
X192106467Y-76372241D01*
X192208331Y-76035590D01*
X192376866Y-75742804D01*
X192527404Y-75569367D01*
X192806181Y-75347574D01*
X193114552Y-75199346D01*
X193440744Y-75124375D01*
X193772988Y-75122354D01*
X194099510Y-75192972D01*
X194408539Y-75335922D01*
X194688305Y-75550896D01*
X194763475Y-75627969D01*
X194947016Y-75869123D01*
X195073276Y-76135675D01*
X195150268Y-76447510D01*
X195174772Y-76648408D01*
X195237253Y-77033103D01*
X195354372Y-77357533D01*
X195530129Y-77629288D01*
X195768525Y-77855957D01*
X195837655Y-77905971D01*
X196147925Y-78070623D01*
X196477174Y-78157864D01*
X196812841Y-78168857D01*
X197142365Y-78104764D01*
X197453186Y-77966747D01*
X197732743Y-77755969D01*
X197761483Y-77727954D01*
X197953418Y-77495613D01*
X198088413Y-77232811D01*
X198173941Y-76922195D01*
X198205541Y-76696608D01*
X198256188Y-76357927D01*
X198338030Y-76080375D01*
X198459071Y-75843656D01*
X198626858Y-75627969D01*
X198895751Y-75391822D01*
X199197377Y-75227608D01*
X199519966Y-75135635D01*
X199851746Y-75116211D01*
X200180946Y-75169644D01*
G37*
G04 #@! TD.AperFunction*
X203041876Y-87439807D02*
X203192761Y-87451434D01*
X203313226Y-87476441D01*
X203430344Y-87519434D01*
X203497985Y-87549993D01*
X203802813Y-87736358D01*
X204045767Y-87980193D01*
X204226159Y-88280448D01*
X204343300Y-88636069D01*
X204386208Y-88906301D01*
X204414339Y-89111795D01*
X204454880Y-89317299D01*
X204500083Y-89484844D01*
X204510171Y-89513609D01*
X204635040Y-89752318D01*
X204819636Y-89984856D01*
X205041080Y-90186474D01*
X205259619Y-90324332D01*
X205386980Y-90381877D01*
X205501290Y-90417216D01*
X205630882Y-90435561D01*
X205804088Y-90442124D01*
X205902667Y-90442622D01*
X206107902Y-90439272D01*
X206257446Y-90425847D01*
X206380122Y-90397282D01*
X206504757Y-90348512D01*
X206545985Y-90329584D01*
X206850809Y-90143364D01*
X207093228Y-89900269D01*
X207272461Y-89601482D01*
X207387729Y-89248188D01*
X207427754Y-88992173D01*
X207449690Y-88804390D01*
X207475548Y-88632020D01*
X207500651Y-88505174D01*
X207507142Y-88481138D01*
X207638953Y-88186368D01*
X207843877Y-87917307D01*
X208111517Y-87685731D01*
X208324730Y-87555310D01*
X208438525Y-87500087D01*
X208541578Y-87465356D01*
X208659511Y-87446451D01*
X208817945Y-87438702D01*
X208971833Y-87437410D01*
X209180363Y-87440051D01*
X209331260Y-87451519D01*
X209451450Y-87476339D01*
X209567856Y-87519034D01*
X209633080Y-87548510D01*
X209939425Y-87737286D01*
X210190798Y-87986218D01*
X210379357Y-88285128D01*
X210497263Y-88623837D01*
X210510173Y-88687127D01*
X210527536Y-88867701D01*
X210528095Y-89104417D01*
X210513451Y-89370777D01*
X210485208Y-89640281D01*
X210444969Y-89886430D01*
X210434710Y-89934622D01*
X210270118Y-90495400D01*
X210035207Y-91037135D01*
X209738241Y-91545957D01*
X209387484Y-92007995D01*
X208991200Y-92409381D01*
X208927592Y-92464130D01*
X208428957Y-92831529D01*
X207897917Y-93125904D01*
X207341966Y-93347041D01*
X206768595Y-93494723D01*
X206185298Y-93568735D01*
X205599566Y-93568862D01*
X205018893Y-93494887D01*
X204450769Y-93346596D01*
X203902689Y-93123772D01*
X203382143Y-92826199D01*
X203111494Y-92631527D01*
X202843794Y-92423500D01*
X202542314Y-92652211D01*
X202084972Y-92951738D01*
X201574441Y-93201814D01*
X201031446Y-93394282D01*
X200476710Y-93520984D01*
X200258178Y-93551201D01*
X199985439Y-93577791D01*
X199760742Y-93588710D01*
X199548912Y-93583876D01*
X199314772Y-93563209D01*
X199192833Y-93548730D01*
X198836021Y-93484400D01*
X198447144Y-93380685D01*
X198062379Y-93248317D01*
X197788567Y-93132166D01*
X197269960Y-92843846D01*
X196786180Y-92484786D01*
X196348598Y-92065598D01*
X195968583Y-91596892D01*
X195716202Y-91197959D01*
X195535892Y-90830107D01*
X195387861Y-90435945D01*
X195274135Y-90029332D01*
X195196740Y-89624125D01*
X195157701Y-89234183D01*
X195159045Y-88873363D01*
X195202796Y-88555523D01*
X195290981Y-88294521D01*
X195291606Y-88293241D01*
X195478161Y-88002521D01*
X195726786Y-87752053D01*
X196017301Y-87562010D01*
X196028864Y-87556266D01*
X196152584Y-87499916D01*
X196262698Y-87464609D01*
X196385924Y-87445562D01*
X196548980Y-87437990D01*
X196695167Y-87436955D01*
X196901222Y-87439583D01*
X197049132Y-87450552D01*
X197165337Y-87474486D01*
X197276278Y-87516012D01*
X197352744Y-87551998D01*
X197515211Y-87648805D01*
X197686446Y-87776746D01*
X197787828Y-87867879D01*
X197967334Y-88077028D01*
X198096033Y-88302629D01*
X198182886Y-88565605D01*
X198236855Y-88886880D01*
X198241120Y-88926206D01*
X198315710Y-89324000D01*
X198449216Y-89669161D01*
X198637728Y-89957404D01*
X198877338Y-90184442D01*
X199164136Y-90345989D01*
X199494213Y-90437759D01*
X199634265Y-90453743D01*
X199978291Y-90447639D01*
X200285956Y-90373190D01*
X200577121Y-90225352D01*
X200604384Y-90207482D01*
X200850828Y-90009739D01*
X201036942Y-89780621D01*
X201169378Y-89507717D01*
X201254786Y-89178614D01*
X201287931Y-88931805D01*
X201348707Y-88570140D01*
X201458947Y-88266279D01*
X201625588Y-88004812D01*
X201780391Y-87837925D01*
X201981660Y-87664684D01*
X202169762Y-87547646D01*
X202369991Y-87477180D01*
X202607641Y-87443655D01*
X202833500Y-87436955D01*
X203041876Y-87439807D01*
G04 #@! TA.AperFunction,EtchedComponent*
G36*
X203041876Y-87439807D02*
G01*
X203192761Y-87451434D01*
X203313226Y-87476441D01*
X203430344Y-87519434D01*
X203497985Y-87549993D01*
X203802813Y-87736358D01*
X204045767Y-87980193D01*
X204226159Y-88280448D01*
X204343300Y-88636069D01*
X204386208Y-88906301D01*
X204414339Y-89111795D01*
X204454880Y-89317299D01*
X204500083Y-89484844D01*
X204510171Y-89513609D01*
X204635040Y-89752318D01*
X204819636Y-89984856D01*
X205041080Y-90186474D01*
X205259619Y-90324332D01*
X205386980Y-90381877D01*
X205501290Y-90417216D01*
X205630882Y-90435561D01*
X205804088Y-90442124D01*
X205902667Y-90442622D01*
X206107902Y-90439272D01*
X206257446Y-90425847D01*
X206380122Y-90397282D01*
X206504757Y-90348512D01*
X206545985Y-90329584D01*
X206850809Y-90143364D01*
X207093228Y-89900269D01*
X207272461Y-89601482D01*
X207387729Y-89248188D01*
X207427754Y-88992173D01*
X207449690Y-88804390D01*
X207475548Y-88632020D01*
X207500651Y-88505174D01*
X207507142Y-88481138D01*
X207638953Y-88186368D01*
X207843877Y-87917307D01*
X208111517Y-87685731D01*
X208324730Y-87555310D01*
X208438525Y-87500087D01*
X208541578Y-87465356D01*
X208659511Y-87446451D01*
X208817945Y-87438702D01*
X208971833Y-87437410D01*
X209180363Y-87440051D01*
X209331260Y-87451519D01*
X209451450Y-87476339D01*
X209567856Y-87519034D01*
X209633080Y-87548510D01*
X209939425Y-87737286D01*
X210190798Y-87986218D01*
X210379357Y-88285128D01*
X210497263Y-88623837D01*
X210510173Y-88687127D01*
X210527536Y-88867701D01*
X210528095Y-89104417D01*
X210513451Y-89370777D01*
X210485208Y-89640281D01*
X210444969Y-89886430D01*
X210434710Y-89934622D01*
X210270118Y-90495400D01*
X210035207Y-91037135D01*
X209738241Y-91545957D01*
X209387484Y-92007995D01*
X208991200Y-92409381D01*
X208927592Y-92464130D01*
X208428957Y-92831529D01*
X207897917Y-93125904D01*
X207341966Y-93347041D01*
X206768595Y-93494723D01*
X206185298Y-93568735D01*
X205599566Y-93568862D01*
X205018893Y-93494887D01*
X204450769Y-93346596D01*
X203902689Y-93123772D01*
X203382143Y-92826199D01*
X203111494Y-92631527D01*
X202843794Y-92423500D01*
X202542314Y-92652211D01*
X202084972Y-92951738D01*
X201574441Y-93201814D01*
X201031446Y-93394282D01*
X200476710Y-93520984D01*
X200258178Y-93551201D01*
X199985439Y-93577791D01*
X199760742Y-93588710D01*
X199548912Y-93583876D01*
X199314772Y-93563209D01*
X199192833Y-93548730D01*
X198836021Y-93484400D01*
X198447144Y-93380685D01*
X198062379Y-93248317D01*
X197788567Y-93132166D01*
X197269960Y-92843846D01*
X196786180Y-92484786D01*
X196348598Y-92065598D01*
X195968583Y-91596892D01*
X195716202Y-91197959D01*
X195535892Y-90830107D01*
X195387861Y-90435945D01*
X195274135Y-90029332D01*
X195196740Y-89624125D01*
X195157701Y-89234183D01*
X195159045Y-88873363D01*
X195202796Y-88555523D01*
X195290981Y-88294521D01*
X195291606Y-88293241D01*
X195478161Y-88002521D01*
X195726786Y-87752053D01*
X196017301Y-87562010D01*
X196028864Y-87556266D01*
X196152584Y-87499916D01*
X196262698Y-87464609D01*
X196385924Y-87445562D01*
X196548980Y-87437990D01*
X196695167Y-87436955D01*
X196901222Y-87439583D01*
X197049132Y-87450552D01*
X197165337Y-87474486D01*
X197276278Y-87516012D01*
X197352744Y-87551998D01*
X197515211Y-87648805D01*
X197686446Y-87776746D01*
X197787828Y-87867879D01*
X197967334Y-88077028D01*
X198096033Y-88302629D01*
X198182886Y-88565605D01*
X198236855Y-88886880D01*
X198241120Y-88926206D01*
X198315710Y-89324000D01*
X198449216Y-89669161D01*
X198637728Y-89957404D01*
X198877338Y-90184442D01*
X199164136Y-90345989D01*
X199494213Y-90437759D01*
X199634265Y-90453743D01*
X199978291Y-90447639D01*
X200285956Y-90373190D01*
X200577121Y-90225352D01*
X200604384Y-90207482D01*
X200850828Y-90009739D01*
X201036942Y-89780621D01*
X201169378Y-89507717D01*
X201254786Y-89178614D01*
X201287931Y-88931805D01*
X201348707Y-88570140D01*
X201458947Y-88266279D01*
X201625588Y-88004812D01*
X201780391Y-87837925D01*
X201981660Y-87664684D01*
X202169762Y-87547646D01*
X202369991Y-87477180D01*
X202607641Y-87443655D01*
X202833500Y-87436955D01*
X203041876Y-87439807D01*
G37*
G04 #@! TD.AperFunction*
X223991319Y-80287710D02*
X224141602Y-80303899D01*
X224269476Y-80337495D01*
X224405958Y-80394137D01*
X224411565Y-80396743D01*
X224695309Y-80568506D01*
X224947749Y-80797208D01*
X225145621Y-81060635D01*
X225188643Y-81138705D01*
X225246581Y-81260986D01*
X225283065Y-81367788D01*
X225302960Y-81485441D01*
X225311133Y-81640277D01*
X225312500Y-81808960D01*
X225311256Y-82000733D01*
X225302996Y-82139938D01*
X225280924Y-82254531D01*
X225238248Y-82372466D01*
X225168171Y-82521700D01*
X225111870Y-82634460D01*
X224983096Y-82909724D01*
X224878987Y-83178926D01*
X224795796Y-83458266D01*
X224729771Y-83763945D01*
X224677166Y-84112166D01*
X224634230Y-84519128D01*
X224611726Y-84795887D01*
X224584166Y-85609173D01*
X224617590Y-86464751D01*
X224709960Y-87348374D01*
X224859236Y-88245797D01*
X225063381Y-89142773D01*
X225320356Y-90025056D01*
X225389814Y-90233472D01*
X225990590Y-91884121D01*
X226642825Y-93471089D01*
X227346053Y-94993520D01*
X228099811Y-96450561D01*
X228903633Y-97841356D01*
X229757055Y-99165052D01*
X230659614Y-100420793D01*
X231499679Y-101475582D01*
X231790757Y-101813218D01*
X232127469Y-102186037D01*
X232494541Y-102578314D01*
X232876697Y-102974326D01*
X233258663Y-103358348D01*
X233625165Y-103714659D01*
X233960926Y-104027533D01*
X234096667Y-104148863D01*
X235165264Y-105037089D01*
X236273148Y-105855722D01*
X237422202Y-106605568D01*
X238614312Y-107287432D01*
X239851363Y-107902117D01*
X241135239Y-108450429D01*
X242467827Y-108933171D01*
X243851011Y-109351150D01*
X245286675Y-109705169D01*
X246776706Y-109996033D01*
X248322988Y-110224547D01*
X248333098Y-110225814D01*
X248484235Y-110242697D01*
X248567628Y-110244443D01*
X248599161Y-110229163D01*
X248594713Y-110194968D01*
X248594616Y-110194719D01*
X248574070Y-110139372D01*
X248528375Y-110014762D01*
X248461293Y-109831203D01*
X248376589Y-109599009D01*
X248278027Y-109328492D01*
X248169371Y-109029967D01*
X248123035Y-108902578D01*
X247398811Y-106955153D01*
X246660933Y-105057627D01*
X245910753Y-103212716D01*
X245149623Y-101423131D01*
X244378895Y-99691587D01*
X243599921Y-98020796D01*
X242814054Y-96413472D01*
X242022646Y-94872329D01*
X241227049Y-93400080D01*
X240428615Y-91999437D01*
X239628695Y-90673116D01*
X238828644Y-89423828D01*
X238029811Y-88254288D01*
X237405049Y-87394622D01*
X237020658Y-86887535D01*
X236658829Y-86425380D01*
X236297851Y-85980922D01*
X235920989Y-85532749D01*
X235710747Y-85279636D01*
X235553432Y-85069886D01*
X235441704Y-84887391D01*
X235368225Y-84716043D01*
X235325657Y-84539735D01*
X235306662Y-84342359D01*
X235303463Y-84177288D01*
X235305962Y-83973845D01*
X235316403Y-83828477D01*
X235339705Y-83714649D01*
X235380790Y-83605823D01*
X235427320Y-83509372D01*
X235604930Y-83240479D01*
X235843734Y-82999936D01*
X236120482Y-82809941D01*
X236204102Y-82767660D01*
X236346252Y-82708487D01*
X236477450Y-82674491D01*
X236631028Y-82659561D01*
X236806000Y-82657309D01*
X237122844Y-82678021D01*
X237386428Y-82742736D01*
X237621153Y-82861733D01*
X237851421Y-83045291D01*
X237946409Y-83137736D01*
X238138950Y-83343590D01*
X238371848Y-83610005D01*
X238637767Y-83927586D01*
X238929371Y-84286937D01*
X239239324Y-84678665D01*
X239560292Y-85093373D01*
X239884936Y-85521667D01*
X240205923Y-85954153D01*
X240515916Y-86381433D01*
X240807578Y-86794115D01*
X240857103Y-86865455D01*
X241683663Y-88100121D01*
X242511020Y-89416260D01*
X243337692Y-90810708D01*
X244162195Y-92280302D01*
X244983048Y-93821878D01*
X245798768Y-95432273D01*
X246607871Y-97108324D01*
X247408877Y-98846866D01*
X248200302Y-100644737D01*
X248980664Y-102498774D01*
X249748480Y-104405812D01*
X250502268Y-106362688D01*
X251240545Y-108366239D01*
X251961829Y-110413302D01*
X252149704Y-110961992D01*
X252240802Y-111234527D01*
X252306210Y-111444714D01*
X252349959Y-111609483D01*
X252376077Y-111745764D01*
X252388595Y-111870489D01*
X252391545Y-111977992D01*
X252355168Y-112342899D01*
X252244159Y-112668299D01*
X252059780Y-112952223D01*
X251803290Y-113192702D01*
X251495667Y-113378303D01*
X251357300Y-113441590D01*
X251239257Y-113481669D01*
X251113291Y-113504202D01*
X250951154Y-113514854D01*
X250797167Y-113518329D01*
X250587680Y-113519457D01*
X250383807Y-113517196D01*
X250217610Y-113512028D01*
X250162167Y-113508772D01*
X249223542Y-113432497D01*
X248355663Y-113348593D01*
X247544795Y-113255002D01*
X246777199Y-113149662D01*
X246039139Y-113030515D01*
X245316878Y-112895500D01*
X244596679Y-112742558D01*
X243864806Y-112569628D01*
X243812167Y-112556568D01*
X242314207Y-112146266D01*
X240872277Y-111674194D01*
X239482499Y-111138411D01*
X238140995Y-110536976D01*
X236843886Y-109867949D01*
X235587295Y-109129388D01*
X234367344Y-108319353D01*
X233180155Y-107435902D01*
X232530089Y-106909957D01*
X232255011Y-106672622D01*
X231936150Y-106383612D01*
X231585559Y-106054899D01*
X231215288Y-105698455D01*
X230837387Y-105326255D01*
X230463909Y-104950269D01*
X230106905Y-104582472D01*
X229778424Y-104234835D01*
X229490520Y-103919331D01*
X229299042Y-103699917D01*
X228365658Y-102550101D01*
X227482302Y-101355938D01*
X226646472Y-100112958D01*
X225855666Y-98816694D01*
X225107381Y-97462675D01*
X224399116Y-96046435D01*
X223728367Y-94563502D01*
X223092632Y-93009410D01*
X222645975Y-91818455D01*
X222467877Y-91312871D01*
X222318810Y-90858286D01*
X222191381Y-90429263D01*
X222078201Y-90000369D01*
X221971879Y-89546168D01*
X221930863Y-89357556D01*
X221707956Y-88155207D01*
X221560697Y-86989780D01*
X221488984Y-85860375D01*
X221481333Y-85363175D01*
X221500499Y-84567380D01*
X221558924Y-83840182D01*
X221658001Y-83174453D01*
X221799122Y-82563062D01*
X221983680Y-81998882D01*
X222213065Y-81474782D01*
X222257870Y-81386751D01*
X222436126Y-81071888D01*
X222610821Y-80826488D01*
X222794248Y-80636845D01*
X222998701Y-80489251D01*
X223123619Y-80421499D01*
X223270716Y-80353152D01*
X223391684Y-80311793D01*
X223518137Y-80290843D01*
X223681694Y-80283720D01*
X223787610Y-80283287D01*
X223991319Y-80287710D01*
G04 #@! TA.AperFunction,EtchedComponent*
G36*
X223991319Y-80287710D02*
G01*
X224141602Y-80303899D01*
X224269476Y-80337495D01*
X224405958Y-80394137D01*
X224411565Y-80396743D01*
X224695309Y-80568506D01*
X224947749Y-80797208D01*
X225145621Y-81060635D01*
X225188643Y-81138705D01*
X225246581Y-81260986D01*
X225283065Y-81367788D01*
X225302960Y-81485441D01*
X225311133Y-81640277D01*
X225312500Y-81808960D01*
X225311256Y-82000733D01*
X225302996Y-82139938D01*
X225280924Y-82254531D01*
X225238248Y-82372466D01*
X225168171Y-82521700D01*
X225111870Y-82634460D01*
X224983096Y-82909724D01*
X224878987Y-83178926D01*
X224795796Y-83458266D01*
X224729771Y-83763945D01*
X224677166Y-84112166D01*
X224634230Y-84519128D01*
X224611726Y-84795887D01*
X224584166Y-85609173D01*
X224617590Y-86464751D01*
X224709960Y-87348374D01*
X224859236Y-88245797D01*
X225063381Y-89142773D01*
X225320356Y-90025056D01*
X225389814Y-90233472D01*
X225990590Y-91884121D01*
X226642825Y-93471089D01*
X227346053Y-94993520D01*
X228099811Y-96450561D01*
X228903633Y-97841356D01*
X229757055Y-99165052D01*
X230659614Y-100420793D01*
X231499679Y-101475582D01*
X231790757Y-101813218D01*
X232127469Y-102186037D01*
X232494541Y-102578314D01*
X232876697Y-102974326D01*
X233258663Y-103358348D01*
X233625165Y-103714659D01*
X233960926Y-104027533D01*
X234096667Y-104148863D01*
X235165264Y-105037089D01*
X236273148Y-105855722D01*
X237422202Y-106605568D01*
X238614312Y-107287432D01*
X239851363Y-107902117D01*
X241135239Y-108450429D01*
X242467827Y-108933171D01*
X243851011Y-109351150D01*
X245286675Y-109705169D01*
X246776706Y-109996033D01*
X248322988Y-110224547D01*
X248333098Y-110225814D01*
X248484235Y-110242697D01*
X248567628Y-110244443D01*
X248599161Y-110229163D01*
X248594713Y-110194968D01*
X248594616Y-110194719D01*
X248574070Y-110139372D01*
X248528375Y-110014762D01*
X248461293Y-109831203D01*
X248376589Y-109599009D01*
X248278027Y-109328492D01*
X248169371Y-109029967D01*
X248123035Y-108902578D01*
X247398811Y-106955153D01*
X246660933Y-105057627D01*
X245910753Y-103212716D01*
X245149623Y-101423131D01*
X244378895Y-99691587D01*
X243599921Y-98020796D01*
X242814054Y-96413472D01*
X242022646Y-94872329D01*
X241227049Y-93400080D01*
X240428615Y-91999437D01*
X239628695Y-90673116D01*
X238828644Y-89423828D01*
X238029811Y-88254288D01*
X237405049Y-87394622D01*
X237020658Y-86887535D01*
X236658829Y-86425380D01*
X236297851Y-85980922D01*
X235920989Y-85532749D01*
X235710747Y-85279636D01*
X235553432Y-85069886D01*
X235441704Y-84887391D01*
X235368225Y-84716043D01*
X235325657Y-84539735D01*
X235306662Y-84342359D01*
X235303463Y-84177288D01*
X235305962Y-83973845D01*
X235316403Y-83828477D01*
X235339705Y-83714649D01*
X235380790Y-83605823D01*
X235427320Y-83509372D01*
X235604930Y-83240479D01*
X235843734Y-82999936D01*
X236120482Y-82809941D01*
X236204102Y-82767660D01*
X236346252Y-82708487D01*
X236477450Y-82674491D01*
X236631028Y-82659561D01*
X236806000Y-82657309D01*
X237122844Y-82678021D01*
X237386428Y-82742736D01*
X237621153Y-82861733D01*
X237851421Y-83045291D01*
X237946409Y-83137736D01*
X238138950Y-83343590D01*
X238371848Y-83610005D01*
X238637767Y-83927586D01*
X238929371Y-84286937D01*
X239239324Y-84678665D01*
X239560292Y-85093373D01*
X239884936Y-85521667D01*
X240205923Y-85954153D01*
X240515916Y-86381433D01*
X240807578Y-86794115D01*
X240857103Y-86865455D01*
X241683663Y-88100121D01*
X242511020Y-89416260D01*
X243337692Y-90810708D01*
X244162195Y-92280302D01*
X244983048Y-93821878D01*
X245798768Y-95432273D01*
X246607871Y-97108324D01*
X247408877Y-98846866D01*
X248200302Y-100644737D01*
X248980664Y-102498774D01*
X249748480Y-104405812D01*
X250502268Y-106362688D01*
X251240545Y-108366239D01*
X251961829Y-110413302D01*
X252149704Y-110961992D01*
X252240802Y-111234527D01*
X252306210Y-111444714D01*
X252349959Y-111609483D01*
X252376077Y-111745764D01*
X252388595Y-111870489D01*
X252391545Y-111977992D01*
X252355168Y-112342899D01*
X252244159Y-112668299D01*
X252059780Y-112952223D01*
X251803290Y-113192702D01*
X251495667Y-113378303D01*
X251357300Y-113441590D01*
X251239257Y-113481669D01*
X251113291Y-113504202D01*
X250951154Y-113514854D01*
X250797167Y-113518329D01*
X250587680Y-113519457D01*
X250383807Y-113517196D01*
X250217610Y-113512028D01*
X250162167Y-113508772D01*
X249223542Y-113432497D01*
X248355663Y-113348593D01*
X247544795Y-113255002D01*
X246777199Y-113149662D01*
X246039139Y-113030515D01*
X245316878Y-112895500D01*
X244596679Y-112742558D01*
X243864806Y-112569628D01*
X243812167Y-112556568D01*
X242314207Y-112146266D01*
X240872277Y-111674194D01*
X239482499Y-111138411D01*
X238140995Y-110536976D01*
X236843886Y-109867949D01*
X235587295Y-109129388D01*
X234367344Y-108319353D01*
X233180155Y-107435902D01*
X232530089Y-106909957D01*
X232255011Y-106672622D01*
X231936150Y-106383612D01*
X231585559Y-106054899D01*
X231215288Y-105698455D01*
X230837387Y-105326255D01*
X230463909Y-104950269D01*
X230106905Y-104582472D01*
X229778424Y-104234835D01*
X229490520Y-103919331D01*
X229299042Y-103699917D01*
X228365658Y-102550101D01*
X227482302Y-101355938D01*
X226646472Y-100112958D01*
X225855666Y-98816694D01*
X225107381Y-97462675D01*
X224399116Y-96046435D01*
X223728367Y-94563502D01*
X223092632Y-93009410D01*
X222645975Y-91818455D01*
X222467877Y-91312871D01*
X222318810Y-90858286D01*
X222191381Y-90429263D01*
X222078201Y-90000369D01*
X221971879Y-89546168D01*
X221930863Y-89357556D01*
X221707956Y-88155207D01*
X221560697Y-86989780D01*
X221488984Y-85860375D01*
X221481333Y-85363175D01*
X221500499Y-84567380D01*
X221558924Y-83840182D01*
X221658001Y-83174453D01*
X221799122Y-82563062D01*
X221983680Y-81998882D01*
X222213065Y-81474782D01*
X222257870Y-81386751D01*
X222436126Y-81071888D01*
X222610821Y-80826488D01*
X222794248Y-80636845D01*
X222998701Y-80489251D01*
X223123619Y-80421499D01*
X223270716Y-80353152D01*
X223391684Y-80311793D01*
X223518137Y-80290843D01*
X223681694Y-80283720D01*
X223787610Y-80283287D01*
X223991319Y-80287710D01*
G37*
G04 #@! TD.AperFunction*
X236846514Y-30585712D02*
X236996733Y-30595229D01*
X237112306Y-30616348D01*
X237218211Y-30653276D01*
X237314284Y-30697780D01*
X237507089Y-30807927D01*
X237678639Y-30942913D01*
X237836839Y-31113173D01*
X237989595Y-31329139D01*
X238144809Y-31601245D01*
X238310386Y-31939925D01*
X238391878Y-32120203D01*
X238732946Y-32981283D01*
X239003980Y-33871124D01*
X239209236Y-34803918D01*
X239227227Y-34905400D01*
X239258389Y-35096764D01*
X239282060Y-35275417D01*
X239299223Y-35457916D01*
X239310858Y-35660816D01*
X239317949Y-35900671D01*
X239321478Y-36194037D01*
X239322416Y-36509955D01*
X239321618Y-36860520D01*
X239318233Y-37142358D01*
X239311318Y-37371390D01*
X239299931Y-37563540D01*
X239283129Y-37734732D01*
X239259969Y-37900886D01*
X239229610Y-38077371D01*
X239029761Y-38947450D01*
X238755889Y-39778015D01*
X238406872Y-40571257D01*
X237981588Y-41329366D01*
X237478916Y-42054533D01*
X236897734Y-42748949D01*
X236764741Y-42891988D01*
X236393912Y-43283820D01*
X236603967Y-43516387D01*
X236777191Y-43718826D01*
X236979702Y-43972546D01*
X237196145Y-44256888D01*
X237411169Y-44551190D01*
X237609419Y-44834792D01*
X237775544Y-45087032D01*
X237799164Y-45124788D01*
X238300281Y-46011225D01*
X238732107Y-46938931D01*
X239091448Y-47898519D01*
X239375111Y-48880601D01*
X239579901Y-49875790D01*
X239683748Y-50664357D01*
X239688906Y-50760421D01*
X239693750Y-50940387D01*
X239698278Y-51203490D01*
X239702487Y-51548966D01*
X239706374Y-51976050D01*
X239709935Y-52483979D01*
X239713168Y-53071987D01*
X239716070Y-53739312D01*
X239718637Y-54485187D01*
X239720868Y-55308849D01*
X239722757Y-56209533D01*
X239724304Y-57186475D01*
X239725504Y-58238910D01*
X239726356Y-59366075D01*
X239726854Y-60567205D01*
X239727000Y-61713984D01*
X239727000Y-72325209D01*
X240245583Y-72711727D01*
X241292891Y-73535960D01*
X242332659Y-74441922D01*
X243365157Y-75429928D01*
X244390650Y-76500291D01*
X245409409Y-77653324D01*
X246421699Y-78889341D01*
X247427789Y-80208655D01*
X248427947Y-81611580D01*
X249422441Y-83098429D01*
X250279204Y-84453931D01*
X251254468Y-86084783D01*
X252220988Y-87797334D01*
X253177645Y-89588959D01*
X254123319Y-91457034D01*
X255056891Y-93398935D01*
X255977243Y-95412038D01*
X256883254Y-97493718D01*
X257773806Y-99641351D01*
X258647780Y-101852313D01*
X259504055Y-104123980D01*
X260341513Y-106453728D01*
X261159034Y-108838932D01*
X261955500Y-111276969D01*
X262601663Y-113344955D01*
X262768492Y-113895479D01*
X262944267Y-114485751D01*
X263125193Y-115102395D01*
X263307472Y-115732035D01*
X263487307Y-116361296D01*
X263660899Y-116976802D01*
X263824452Y-117565178D01*
X263974169Y-118113049D01*
X264106251Y-118607038D01*
X264216902Y-119033770D01*
X264218176Y-119038788D01*
X264297556Y-119476673D01*
X264302949Y-119873523D01*
X264234241Y-120229674D01*
X264091315Y-120545459D01*
X263874056Y-120821215D01*
X263582350Y-121057275D01*
X263507372Y-121104396D01*
X263240381Y-121241402D01*
X262895591Y-121380179D01*
X262479810Y-121519342D01*
X261999849Y-121657507D01*
X261462514Y-121793287D01*
X260874615Y-121925299D01*
X260242961Y-122052157D01*
X259574360Y-122172477D01*
X258875621Y-122284873D01*
X258153553Y-122387960D01*
X257414965Y-122480355D01*
X256666665Y-122560671D01*
X256088833Y-122613354D01*
X255413474Y-122662981D01*
X254686562Y-122703591D01*
X253925736Y-122734879D01*
X253148634Y-122756544D01*
X252372894Y-122768282D01*
X251616154Y-122769789D01*
X250896051Y-122760764D01*
X250230225Y-122740904D01*
X249817613Y-122721063D01*
X248020410Y-122587515D01*
X246276514Y-122393926D01*
X244578104Y-122138836D01*
X242917361Y-121820788D01*
X241286466Y-121438326D01*
X239677601Y-120989991D01*
X238468391Y-120605512D01*
X237696616Y-120347018D01*
X237240725Y-120753816D01*
X236600087Y-121274809D01*
X235934035Y-121716162D01*
X235238236Y-122080232D01*
X234508359Y-122369379D01*
X233987725Y-122525099D01*
X233922075Y-122542944D01*
X233863231Y-122559879D01*
X233808961Y-122575930D01*
X233757035Y-122591120D01*
X233705223Y-122605472D01*
X233651293Y-122619010D01*
X233593016Y-122631758D01*
X233528160Y-122643738D01*
X233454495Y-122654975D01*
X233369791Y-122665492D01*
X233271816Y-122675313D01*
X233158341Y-122684461D01*
X233027134Y-122692960D01*
X232875966Y-122700833D01*
X232702604Y-122708104D01*
X232504820Y-122714796D01*
X232280382Y-122720933D01*
X232027060Y-122726539D01*
X231742623Y-122731637D01*
X231424840Y-122736250D01*
X231071481Y-122740403D01*
X230680315Y-122744118D01*
X230249112Y-122747419D01*
X229775642Y-122750331D01*
X229257672Y-122752876D01*
X228692974Y-122755077D01*
X228079316Y-122756960D01*
X227414468Y-122758546D01*
X226696198Y-122759860D01*
X225922278Y-122760925D01*
X225090475Y-122761765D01*
X224198560Y-122762403D01*
X223244301Y-122762862D01*
X222225469Y-122763167D01*
X221139832Y-122763341D01*
X219985160Y-122763408D01*
X218759223Y-122763390D01*
X217459789Y-122763313D01*
X216084629Y-122763198D01*
X214631511Y-122763070D01*
X213098205Y-122762952D01*
X211482480Y-122762868D01*
X211469500Y-122762867D01*
X190218167Y-122762112D01*
X189969756Y-122659980D01*
X189649836Y-122484274D01*
X189383494Y-122243480D01*
X189183228Y-121956921D01*
X189032833Y-121684622D01*
X189033609Y-120964955D01*
X189036377Y-120657335D01*
X189045300Y-120409714D01*
X189062425Y-120197527D01*
X189089797Y-119996205D01*
X189129463Y-119781182D01*
X189134087Y-119758455D01*
X189166825Y-119630525D01*
X192398333Y-119630525D01*
X192440084Y-119641626D01*
X192565448Y-119651079D01*
X192774590Y-119658886D01*
X193067675Y-119665051D01*
X193444870Y-119669578D01*
X193906339Y-119672469D01*
X194452249Y-119673728D01*
X194615635Y-119673788D01*
X196832937Y-119673788D01*
X196840900Y-119642038D01*
X200061469Y-119642038D01*
X200103074Y-119645107D01*
X200225443Y-119648094D01*
X200424677Y-119650987D01*
X200696872Y-119653772D01*
X201038128Y-119656434D01*
X201444543Y-119658960D01*
X201912216Y-119661336D01*
X202437245Y-119663547D01*
X203015728Y-119665581D01*
X203643764Y-119667424D01*
X204317452Y-119669060D01*
X205032890Y-119670477D01*
X205786176Y-119671661D01*
X206573409Y-119672598D01*
X207390688Y-119673273D01*
X208234110Y-119673674D01*
X208991952Y-119673788D01*
X217923238Y-119673788D01*
X217884784Y-119572648D01*
X217786246Y-119348673D01*
X217650529Y-119087840D01*
X217493962Y-118818904D01*
X217332877Y-118570620D01*
X217251442Y-118457484D01*
X216850542Y-117994619D01*
X216393962Y-117592656D01*
X215888755Y-117255635D01*
X215341971Y-116987596D01*
X214760664Y-116792580D01*
X214151885Y-116674628D01*
X214136500Y-116672717D01*
X214031398Y-116665201D01*
X213848451Y-116658316D01*
X213594479Y-116652061D01*
X213276300Y-116646437D01*
X212900734Y-116641444D01*
X212474600Y-116637082D01*
X212004718Y-116633351D01*
X211497907Y-116630250D01*
X210960987Y-116627781D01*
X210400775Y-116625942D01*
X209824093Y-116624733D01*
X209237759Y-116624156D01*
X208648593Y-116624209D01*
X208063413Y-116624894D01*
X207489040Y-116626209D01*
X206932292Y-116628154D01*
X206399989Y-116630731D01*
X205898951Y-116633938D01*
X205435995Y-116637776D01*
X205017943Y-116642245D01*
X204651613Y-116647345D01*
X204343824Y-116653076D01*
X204101396Y-116659437D01*
X203931148Y-116666429D01*
X203849500Y-116672717D01*
X203258700Y-116785513D01*
X202687689Y-116973634D01*
X202145920Y-117231359D01*
X201642846Y-117552969D01*
X201187921Y-117932745D01*
X200790599Y-118364966D01*
X200582042Y-118649704D01*
X200506884Y-118770311D01*
X200416491Y-118927298D01*
X200320185Y-119102896D01*
X200227286Y-119279341D01*
X200147114Y-119438865D01*
X200088989Y-119563702D01*
X200062232Y-119636085D01*
X200061469Y-119642038D01*
X196840900Y-119642038D01*
X196925368Y-119305254D01*
X197109937Y-118698540D01*
X197358151Y-118081924D01*
X197657668Y-117482850D01*
X197990051Y-116937778D01*
X198207538Y-116615477D01*
X197133852Y-116637906D01*
X196732888Y-116648124D01*
X196402063Y-116661809D01*
X196126857Y-116681144D01*
X195892752Y-116708308D01*
X195685231Y-116745482D01*
X195489773Y-116794848D01*
X195291862Y-116858585D01*
X195076977Y-116938874D01*
X195044167Y-116951776D01*
X194467739Y-117222081D01*
X193947881Y-117555339D01*
X193484178Y-117951880D01*
X193076215Y-118412038D01*
X192881240Y-118683647D01*
X192771228Y-118858348D01*
X192660956Y-119049976D01*
X192559478Y-119240782D01*
X192475847Y-119413015D01*
X192419114Y-119548924D01*
X192398333Y-119630525D01*
X189166825Y-119630525D01*
X189338698Y-118958909D01*
X189616315Y-118202222D01*
X189967065Y-117488157D01*
X190391076Y-116816476D01*
X190888476Y-116186941D01*
X191282663Y-115768971D01*
X191894180Y-115221448D01*
X192544102Y-114749297D01*
X193231227Y-114353056D01*
X193954353Y-114033265D01*
X194712277Y-113790464D01*
X195503799Y-113625193D01*
X196240005Y-113543443D01*
X196673843Y-113514288D01*
X196351302Y-113069788D01*
X195468249Y-111791626D01*
X194617393Y-110435646D01*
X193798874Y-109002394D01*
X193012830Y-107492414D01*
X192259401Y-105906252D01*
X191538728Y-104244453D01*
X190850949Y-102507562D01*
X190196203Y-100696125D01*
X189574632Y-98810686D01*
X188986373Y-96851792D01*
X188431567Y-94819987D01*
X187910354Y-92715816D01*
X187422872Y-90539826D01*
X186969261Y-88292560D01*
X186549661Y-85974565D01*
X186164212Y-83586385D01*
X185813052Y-81128566D01*
X185496322Y-78601653D01*
X185214162Y-76006192D01*
X184966709Y-73342727D01*
X184754105Y-70611803D01*
X184576489Y-67813967D01*
X184524894Y-66862955D01*
X184492985Y-66230690D01*
X184464717Y-65628156D01*
X184439835Y-65045071D01*
X184418081Y-64471151D01*
X184399200Y-63896111D01*
X184382934Y-63309670D01*
X184369027Y-62701543D01*
X184357222Y-62061448D01*
X184347262Y-61379100D01*
X184345966Y-61265282D01*
X187454498Y-61265282D01*
X187456660Y-61450547D01*
X187461129Y-61691389D01*
X187467728Y-61978128D01*
X187476279Y-62301084D01*
X187485504Y-62614890D01*
X187588045Y-65370491D01*
X187724450Y-68070118D01*
X187894479Y-70712706D01*
X188097892Y-73297190D01*
X188334449Y-75822504D01*
X188603910Y-78287582D01*
X188906037Y-80691360D01*
X189240587Y-83032771D01*
X189607323Y-85310750D01*
X190006004Y-87524232D01*
X190436390Y-89672151D01*
X190898241Y-91753442D01*
X191391318Y-93767039D01*
X191915381Y-95711877D01*
X192470189Y-97586890D01*
X193055504Y-99391013D01*
X193671084Y-101123181D01*
X194316691Y-102782327D01*
X194992084Y-104367387D01*
X195697024Y-105877295D01*
X196431271Y-107310985D01*
X197194585Y-108667392D01*
X197986725Y-109945451D01*
X198218905Y-110296955D01*
X198797894Y-111134613D01*
X199375448Y-111914745D01*
X199970676Y-112661960D01*
X200602684Y-113400869D01*
X200804767Y-113627322D01*
X201289964Y-114166047D01*
X201574899Y-114056002D01*
X201881344Y-113947930D01*
X202238172Y-113838622D01*
X202611777Y-113737547D01*
X202968554Y-113654174D01*
X203084083Y-113630764D01*
X203144563Y-113620006D01*
X203211663Y-113610335D01*
X203289948Y-113601693D01*
X203383981Y-113594023D01*
X203498327Y-113587268D01*
X203637551Y-113581370D01*
X203806217Y-113576272D01*
X204008890Y-113571917D01*
X204250134Y-113568248D01*
X204534514Y-113565206D01*
X204866594Y-113562736D01*
X205250939Y-113560780D01*
X205692113Y-113559280D01*
X206194681Y-113558179D01*
X206763207Y-113557420D01*
X207402255Y-113556946D01*
X208116391Y-113556699D01*
X208910179Y-113556622D01*
X214517500Y-113556622D01*
X215004333Y-113655109D01*
X215800464Y-113857135D01*
X216558862Y-114131592D01*
X217275659Y-114474903D01*
X217946990Y-114883487D01*
X218568985Y-115353765D01*
X219137779Y-115882156D01*
X219649503Y-116465082D01*
X220100290Y-117098962D01*
X220486273Y-117780218D01*
X220803585Y-118505268D01*
X221040933Y-119242645D01*
X221156546Y-119673788D01*
X226734543Y-119673788D01*
X227687619Y-119673434D01*
X228556297Y-119672371D01*
X229340843Y-119670596D01*
X230041523Y-119668107D01*
X230658604Y-119664903D01*
X231192351Y-119660981D01*
X231643030Y-119656339D01*
X232010908Y-119650976D01*
X232296250Y-119644889D01*
X232499322Y-119638076D01*
X232620390Y-119630535D01*
X232638946Y-119628389D01*
X232843420Y-119593085D01*
X233081062Y-119541918D01*
X233304521Y-119485195D01*
X233329926Y-119477989D01*
X233497646Y-119423890D01*
X233686938Y-119353678D01*
X233881613Y-119274545D01*
X234065484Y-119193680D01*
X234222363Y-119118276D01*
X234336061Y-119055524D01*
X234390390Y-119012615D01*
X234392799Y-119005828D01*
X234356717Y-118977642D01*
X234257355Y-118920041D01*
X234107819Y-118840130D01*
X233921215Y-118745012D01*
X233810716Y-118690348D01*
X232378364Y-117947417D01*
X230981397Y-117138101D01*
X229614405Y-116258760D01*
X228271978Y-115305755D01*
X226948705Y-114275445D01*
X225778167Y-113286516D01*
X225543752Y-113074976D01*
X225263603Y-112812109D01*
X224948954Y-112509226D01*
X224611034Y-112177637D01*
X224261077Y-111828653D01*
X223910315Y-111473584D01*
X223569978Y-111123739D01*
X223251299Y-110790431D01*
X222965510Y-110484969D01*
X222723843Y-110218663D01*
X222662230Y-110148788D01*
X221517735Y-108782770D01*
X220430976Y-107367518D01*
X219400303Y-105900202D01*
X218424069Y-104377992D01*
X217500624Y-102798059D01*
X216628320Y-101157573D01*
X215805509Y-99453705D01*
X215030542Y-97683624D01*
X214301771Y-95844502D01*
X214251922Y-95711707D01*
X213826295Y-94521684D01*
X213458047Y-93377063D01*
X213144114Y-92263957D01*
X212881432Y-91168482D01*
X212666936Y-90076751D01*
X212497562Y-88974880D01*
X212370246Y-87848981D01*
X212290302Y-86823122D01*
X212272952Y-86449470D01*
X212263126Y-86018501D01*
X212260476Y-85549201D01*
X212262077Y-85361969D01*
X215367081Y-85361969D01*
X215397646Y-86460803D01*
X215480925Y-87584166D01*
X215615388Y-88719458D01*
X215799508Y-89854078D01*
X216031754Y-90975428D01*
X216310598Y-92070906D01*
X216634510Y-93127913D01*
X216681174Y-93265710D01*
X217332303Y-95059382D01*
X218041671Y-96811063D01*
X218806166Y-98513974D01*
X219622678Y-100161336D01*
X220488095Y-101746368D01*
X220880386Y-102416960D01*
X221826883Y-103924921D01*
X222825227Y-105367144D01*
X223874906Y-106743158D01*
X224975404Y-108052495D01*
X226126208Y-109294684D01*
X227326803Y-110469256D01*
X228576675Y-111575741D01*
X229875311Y-112613671D01*
X231222195Y-113582575D01*
X232616814Y-114481983D01*
X234058653Y-115311427D01*
X235547198Y-116070436D01*
X236128667Y-116341971D01*
X237683012Y-117004689D01*
X239276341Y-117594685D01*
X240910226Y-118112411D01*
X242586235Y-118558319D01*
X244305940Y-118932863D01*
X246070910Y-119236493D01*
X246288667Y-119268597D01*
X246964695Y-119359572D01*
X247663302Y-119439483D01*
X248398567Y-119509621D01*
X249184569Y-119571281D01*
X250035386Y-119625754D01*
X250395000Y-119645714D01*
X250590311Y-119653091D01*
X250856407Y-119658701D01*
X251179427Y-119662595D01*
X251545508Y-119664827D01*
X251940788Y-119665450D01*
X252351405Y-119664515D01*
X252763498Y-119662077D01*
X253163204Y-119658187D01*
X253536662Y-119652898D01*
X253870009Y-119646263D01*
X254149384Y-119638336D01*
X254332000Y-119630727D01*
X255427311Y-119559833D01*
X256527367Y-119460714D01*
X257603527Y-119336328D01*
X258627150Y-119189632D01*
X258671167Y-119182610D01*
X258909949Y-119142651D01*
X259180843Y-119094516D01*
X259470130Y-119040935D01*
X259764087Y-118984636D01*
X260048995Y-118928348D01*
X260311132Y-118874799D01*
X260536779Y-118826718D01*
X260712215Y-118786834D01*
X260823718Y-118757875D01*
X260848033Y-118749688D01*
X260867770Y-118733559D01*
X260876776Y-118698621D01*
X260873142Y-118635537D01*
X260854956Y-118534970D01*
X260820307Y-118387581D01*
X260767285Y-118184033D01*
X260693979Y-117914989D01*
X260629971Y-117684122D01*
X260171757Y-116078008D01*
X259676362Y-114416648D01*
X259149499Y-112717790D01*
X258596882Y-110999186D01*
X258024222Y-109278585D01*
X257437234Y-107573736D01*
X256841630Y-105902391D01*
X256807947Y-105809622D01*
X255970250Y-103558375D01*
X255118430Y-101375047D01*
X254253090Y-99260759D01*
X253374836Y-97216632D01*
X252484270Y-95243785D01*
X251581996Y-93343340D01*
X250668619Y-91516417D01*
X249744742Y-89764137D01*
X248810969Y-88087620D01*
X247867904Y-86487987D01*
X246916151Y-84966358D01*
X245956313Y-83523855D01*
X244988994Y-82161596D01*
X244014799Y-80880705D01*
X243034331Y-79682299D01*
X242242282Y-78779788D01*
X241978674Y-78495264D01*
X241675414Y-78178323D01*
X241345671Y-77841953D01*
X241002613Y-77499143D01*
X240659407Y-77162879D01*
X240329221Y-76846151D01*
X240025224Y-76561944D01*
X239760582Y-76323249D01*
X239684667Y-76257141D01*
X238709419Y-75458474D01*
X237736421Y-74744252D01*
X236765258Y-74114295D01*
X235795511Y-73568422D01*
X234826763Y-73106453D01*
X233858598Y-72728208D01*
X232890598Y-72433508D01*
X231922347Y-72222172D01*
X230953428Y-72094019D01*
X229983424Y-72048871D01*
X229939982Y-72048788D01*
X229501250Y-72054674D01*
X229065616Y-72073355D01*
X228613096Y-72106372D01*
X228123709Y-72155261D01*
X227577471Y-72221562D01*
X227411898Y-72243419D01*
X226192103Y-72438381D01*
X225036980Y-72687673D01*
X223946596Y-72991234D01*
X222921019Y-73349000D01*
X221960317Y-73760908D01*
X221064558Y-74226896D01*
X220233809Y-74746901D01*
X219468138Y-75320861D01*
X218767613Y-75948712D01*
X218132301Y-76630393D01*
X217562271Y-77365840D01*
X217057590Y-78154991D01*
X216618326Y-78997784D01*
X216244546Y-79894154D01*
X215936319Y-80844041D01*
X215693712Y-81847381D01*
X215516792Y-82904111D01*
X215470213Y-83288288D01*
X215390761Y-84300264D01*
X215367081Y-85361969D01*
X212262077Y-85361969D01*
X212264655Y-85060556D01*
X212275315Y-84571551D01*
X212292109Y-84101172D01*
X212314690Y-83668405D01*
X212342710Y-83292236D01*
X212357689Y-83140122D01*
X212525782Y-81922393D01*
X212759969Y-80756477D01*
X213060073Y-79642687D01*
X213425918Y-78581338D01*
X213857329Y-77572744D01*
X214354130Y-76617219D01*
X214916145Y-75715076D01*
X215543198Y-74866631D01*
X216235113Y-74072196D01*
X216991715Y-73332086D01*
X217812828Y-72646615D01*
X218518000Y-72136465D01*
X219400272Y-71581495D01*
X220333523Y-71079674D01*
X221320200Y-70630226D01*
X222362753Y-70232375D01*
X223463630Y-69885344D01*
X224625280Y-69588358D01*
X225850151Y-69340641D01*
X227140692Y-69141416D01*
X228424000Y-68996902D01*
X228744212Y-68973870D01*
X229123855Y-68957927D01*
X229540772Y-68949072D01*
X229972808Y-68947309D01*
X230397807Y-68952637D01*
X230793614Y-68965059D01*
X231138072Y-68984575D01*
X231281500Y-68996738D01*
X232067618Y-69091177D01*
X232826675Y-69220626D01*
X233573711Y-69389257D01*
X234323764Y-69601244D01*
X235091876Y-69860760D01*
X235893084Y-70171978D01*
X236583750Y-70467985D01*
X236592271Y-70456645D01*
X236599874Y-70412003D01*
X236606602Y-70330127D01*
X236612499Y-70207084D01*
X236617607Y-70038943D01*
X236621970Y-69821769D01*
X236625631Y-69551632D01*
X236628635Y-69224597D01*
X236631023Y-68836733D01*
X236632840Y-68384107D01*
X236634129Y-67862787D01*
X236634933Y-67268839D01*
X236635296Y-66598332D01*
X236635261Y-65847333D01*
X236635247Y-65798567D01*
X236633828Y-61105622D01*
X236497664Y-61274822D01*
X236299283Y-61510566D01*
X236061477Y-61776325D01*
X235805161Y-62049946D01*
X235551255Y-62309278D01*
X235320676Y-62532167D01*
X235245272Y-62601135D01*
X234485220Y-63235927D01*
X233697069Y-63801033D01*
X232875974Y-64298505D01*
X232017088Y-64730397D01*
X231115565Y-65098761D01*
X230166560Y-65405649D01*
X229165227Y-65653117D01*
X228106719Y-65843215D01*
X227365667Y-65939225D01*
X227028307Y-65968694D01*
X226624118Y-65990899D01*
X226170624Y-66005842D01*
X225685349Y-66013528D01*
X225185818Y-66013960D01*
X224689555Y-66007143D01*
X224214084Y-65993081D01*
X223776930Y-65971778D01*
X223395618Y-65943237D01*
X223344000Y-65938301D01*
X222177394Y-65802000D01*
X221015847Y-65623276D01*
X219844972Y-65399179D01*
X218650385Y-65126756D01*
X217417701Y-64803059D01*
X216471837Y-64528568D01*
X216253057Y-64464193D01*
X216062348Y-64410927D01*
X215914594Y-64372702D01*
X215824678Y-64353454D01*
X215805304Y-64352370D01*
X215776597Y-64389939D01*
X215708095Y-64493252D01*
X215603945Y-64655683D01*
X215468296Y-64870606D01*
X215305298Y-65131395D01*
X215119098Y-65431426D01*
X214913846Y-65764071D01*
X214693690Y-66122707D01*
X214564607Y-66333788D01*
X214332867Y-66711638D01*
X214109332Y-67073026D01*
X213898767Y-67410452D01*
X213705938Y-67716420D01*
X213535613Y-67983429D01*
X213392558Y-68203982D01*
X213281538Y-68370580D01*
X213207320Y-68475724D01*
X213186589Y-68501688D01*
X212989645Y-68679829D01*
X212744174Y-68832194D01*
X212727838Y-68840355D01*
X212580347Y-68908881D01*
X212458964Y-68950421D01*
X212332064Y-68971590D01*
X212168024Y-68979005D01*
X212062167Y-68979622D01*
X211867126Y-68976539D01*
X211725351Y-68962993D01*
X211605534Y-68932538D01*
X211476371Y-68878725D01*
X211405110Y-68844310D01*
X211234084Y-68745331D01*
X211066242Y-68624568D01*
X210956968Y-68526810D01*
X210902076Y-68456275D01*
X210808302Y-68320610D01*
X210680385Y-68127246D01*
X210523067Y-67883619D01*
X210341086Y-67597159D01*
X210139185Y-67275301D01*
X209922101Y-66925477D01*
X209694577Y-66555121D01*
X209585411Y-66376122D01*
X209359292Y-66004793D01*
X209145886Y-65654950D01*
X208949329Y-65333330D01*
X208773756Y-65046672D01*
X208623303Y-64801715D01*
X208502106Y-64605196D01*
X208414301Y-64463855D01*
X208364023Y-64384430D01*
X208353856Y-64369568D01*
X208304069Y-64369343D01*
X208184019Y-64392056D01*
X208004180Y-64435158D01*
X207775029Y-64496097D01*
X207507041Y-64572324D01*
X207439413Y-64592223D01*
X205943034Y-65006951D01*
X204493464Y-65351200D01*
X203090588Y-65624965D01*
X201734288Y-65828239D01*
X200424450Y-65961016D01*
X199160956Y-66023290D01*
X197943689Y-66015056D01*
X196772535Y-65936307D01*
X195647376Y-65787038D01*
X194568095Y-65567241D01*
X193534578Y-65276912D01*
X192546707Y-64916044D01*
X191604366Y-64484632D01*
X190707438Y-63982668D01*
X190276244Y-63705414D01*
X189848131Y-63398885D01*
X189403435Y-63046458D01*
X188959608Y-62663958D01*
X188534105Y-62267210D01*
X188144378Y-61872038D01*
X187807881Y-61494266D01*
X187722649Y-61390106D01*
X187614053Y-61258454D01*
X187525699Y-61158982D01*
X187470011Y-61105291D01*
X187457802Y-61100208D01*
X187454820Y-61145276D01*
X187454498Y-61265282D01*
X184345966Y-61265282D01*
X184338892Y-60644216D01*
X184331853Y-59846513D01*
X184325891Y-58975708D01*
X184325212Y-58861955D01*
X184321053Y-57947587D01*
X184319424Y-57062274D01*
X184320258Y-56210770D01*
X184323485Y-55397831D01*
X184329039Y-54628214D01*
X184336851Y-53906672D01*
X184346854Y-53237962D01*
X184358979Y-52626840D01*
X184372432Y-52106171D01*
X187496697Y-52106171D01*
X187527583Y-52660122D01*
X187660672Y-53677139D01*
X187859563Y-54661292D01*
X188122286Y-55608011D01*
X188446870Y-56512727D01*
X188831344Y-57370870D01*
X189273738Y-58177871D01*
X189772082Y-58929162D01*
X190324406Y-59620172D01*
X190705000Y-60028358D01*
X191333274Y-60606204D01*
X192008509Y-61118904D01*
X192731781Y-61566773D01*
X193504166Y-61950129D01*
X194326740Y-62269290D01*
X195200578Y-62524571D01*
X196126757Y-62716289D01*
X197106352Y-62844762D01*
X198140440Y-62910307D01*
X199230097Y-62913239D01*
X200314667Y-62858547D01*
X200983155Y-62794679D01*
X201712565Y-62699247D01*
X202486595Y-62575398D01*
X203288941Y-62426278D01*
X204103301Y-62255032D01*
X204913371Y-62064806D01*
X205702849Y-61858747D01*
X206142220Y-61734000D01*
X206656941Y-61583163D01*
X206277970Y-60963392D01*
X206171570Y-60789328D01*
X206028238Y-60554760D01*
X205855158Y-60271449D01*
X205659514Y-59951156D01*
X205563096Y-59793288D01*
X209210424Y-59793288D01*
X210636295Y-62127811D01*
X210884357Y-62532530D01*
X211119290Y-62913066D01*
X211337408Y-63263623D01*
X211535022Y-63578406D01*
X211708446Y-63851617D01*
X211853992Y-64077460D01*
X211967974Y-64250138D01*
X212046704Y-64363855D01*
X212086495Y-64412814D01*
X212090430Y-64413811D01*
X212116937Y-64370057D01*
X212183801Y-64260323D01*
X212287203Y-64090861D01*
X212423325Y-63867921D01*
X212588349Y-63597753D01*
X212778457Y-63286607D01*
X212989831Y-62940735D01*
X213218653Y-62566386D01*
X213461105Y-62169811D01*
X213516454Y-62079288D01*
X213819157Y-61584224D01*
X217482218Y-61584224D01*
X217482259Y-61584356D01*
X217527102Y-61601912D01*
X217640819Y-61637252D01*
X217810362Y-61686782D01*
X218022681Y-61746908D01*
X218264728Y-61814037D01*
X218523453Y-61884576D01*
X218785806Y-61954930D01*
X219038740Y-62021506D01*
X219269205Y-62080711D01*
X219428167Y-62120239D01*
X220639487Y-62393614D01*
X221795680Y-62609508D01*
X222903215Y-62768527D01*
X223968562Y-62871276D01*
X224998191Y-62918362D01*
X225998573Y-62910390D01*
X226976177Y-62847967D01*
X227087126Y-62837355D01*
X228069116Y-62703412D01*
X229004265Y-62500868D01*
X229891478Y-62230368D01*
X230729660Y-61892558D01*
X231517715Y-61488083D01*
X232254548Y-61017586D01*
X232939063Y-60481715D01*
X233570165Y-59881114D01*
X234146759Y-59216427D01*
X234667749Y-58488300D01*
X234784312Y-58304311D01*
X235198432Y-57570792D01*
X235564843Y-56791021D01*
X235880977Y-55976218D01*
X236144264Y-55137605D01*
X236352133Y-54286401D01*
X236502016Y-53433826D01*
X236591343Y-52591102D01*
X236617544Y-51769449D01*
X236578049Y-50980087D01*
X236538808Y-50643075D01*
X236372856Y-49746225D01*
X236127726Y-48878860D01*
X235803828Y-48041578D01*
X235401571Y-47234979D01*
X234921364Y-46459662D01*
X234363618Y-45716225D01*
X233728740Y-45005268D01*
X233017141Y-44327389D01*
X232229230Y-43683187D01*
X231366167Y-43073756D01*
X231075700Y-42886864D01*
X230782671Y-42705673D01*
X230496332Y-42535237D01*
X230225935Y-42380609D01*
X229980733Y-42246840D01*
X229769978Y-42138983D01*
X229602924Y-42062091D01*
X229488822Y-42021217D01*
X229437618Y-42020626D01*
X229408272Y-42063746D01*
X229340117Y-42170750D01*
X229238383Y-42333213D01*
X229108305Y-42542712D01*
X228955115Y-42790819D01*
X228784046Y-43069112D01*
X228619222Y-43338256D01*
X228421148Y-43664939D01*
X228248809Y-43954575D01*
X228105677Y-44201022D01*
X227995221Y-44398138D01*
X227920914Y-44539780D01*
X227886223Y-44619805D01*
X227886133Y-44635782D01*
X227944792Y-44654506D01*
X228065571Y-44694114D01*
X228230301Y-44748618D01*
X228402833Y-44806033D01*
X229130109Y-45092454D01*
X229817545Y-45450932D01*
X230461099Y-45876802D01*
X231056730Y-46365394D01*
X231600396Y-46912042D01*
X232088055Y-47512078D01*
X232515667Y-48160834D01*
X232879188Y-48853641D01*
X233174579Y-49585834D01*
X233397797Y-50352743D01*
X233462261Y-50649288D01*
X233541011Y-51182351D01*
X233579689Y-51762809D01*
X233578529Y-52363599D01*
X233537765Y-52957660D01*
X233457630Y-53517927D01*
X233436526Y-53625354D01*
X233234617Y-54396645D01*
X232955520Y-55138175D01*
X232603118Y-55844587D01*
X232181296Y-56510525D01*
X231693940Y-57130630D01*
X231144932Y-57699547D01*
X230538159Y-58211919D01*
X229877503Y-58662387D01*
X229713677Y-58759361D01*
X229071851Y-59085539D01*
X228379423Y-59357382D01*
X227656008Y-59567863D01*
X227175167Y-59669028D01*
X226832190Y-59715912D01*
X226434227Y-59747031D01*
X226009580Y-59761827D01*
X225586554Y-59759741D01*
X225193450Y-59740216D01*
X224931500Y-59713286D01*
X224122066Y-59564749D01*
X223349838Y-59340359D01*
X222612823Y-59039238D01*
X221909028Y-58660504D01*
X221236459Y-58203276D01*
X220891787Y-57928660D01*
X220718008Y-57778241D01*
X220547494Y-57622721D01*
X220403389Y-57483595D01*
X220329955Y-57406737D01*
X220144991Y-57201012D01*
X218808325Y-59386150D01*
X218569959Y-59776312D01*
X218345540Y-60144591D01*
X218138844Y-60484730D01*
X217953645Y-60790472D01*
X217793718Y-61055559D01*
X217662837Y-61273735D01*
X217564777Y-61438743D01*
X217503312Y-61544325D01*
X217482218Y-61584224D01*
X213819157Y-61584224D01*
X214914215Y-59793288D01*
X213501866Y-59782145D01*
X213075243Y-59779589D01*
X212591801Y-59778057D01*
X212079383Y-59777549D01*
X211565830Y-59778065D01*
X211078985Y-59779606D01*
X210649970Y-59782145D01*
X209210424Y-59793288D01*
X205563096Y-59793288D01*
X205448489Y-59605642D01*
X205229268Y-59246669D01*
X205009035Y-58885997D01*
X204941661Y-58775652D01*
X203984322Y-57207682D01*
X203789911Y-57415738D01*
X203674764Y-57531005D01*
X203517237Y-57678087D01*
X203340741Y-57835506D01*
X203214500Y-57943661D01*
X202563901Y-58436069D01*
X201876938Y-58853216D01*
X201158279Y-59193905D01*
X200412590Y-59456935D01*
X199644537Y-59641108D01*
X198858787Y-59745224D01*
X198060006Y-59768084D01*
X197252862Y-59708488D01*
X196695167Y-59618993D01*
X196197491Y-59496326D01*
X195666770Y-59320715D01*
X195126417Y-59102308D01*
X194599844Y-58851257D01*
X194110463Y-58577710D01*
X193753000Y-58343488D01*
X193504892Y-58151295D01*
X193224895Y-57908077D01*
X192930131Y-57630968D01*
X192637719Y-57337101D01*
X192364780Y-57043611D01*
X192128435Y-56767632D01*
X191965681Y-56554788D01*
X191622128Y-56016019D01*
X191309885Y-55421795D01*
X191041191Y-54799152D01*
X190828285Y-54175129D01*
X190741805Y-53851227D01*
X190598313Y-53075249D01*
X190536376Y-52301153D01*
X190538773Y-52191394D01*
X193644286Y-52191394D01*
X193693846Y-52764616D01*
X193815496Y-53328033D01*
X194009048Y-53874490D01*
X194274316Y-54396831D01*
X194611112Y-54887900D01*
X195019250Y-55340542D01*
X195038887Y-55359506D01*
X195379076Y-55663277D01*
X195712808Y-55910234D01*
X196068863Y-56120552D01*
X196263124Y-56217738D01*
X196836574Y-56444267D01*
X197432474Y-56590773D01*
X198043238Y-56656393D01*
X198661280Y-56640263D01*
X199221290Y-56554317D01*
X199770663Y-56394986D01*
X200309493Y-56158562D01*
X200822976Y-55852510D01*
X201231713Y-55540417D01*
X201434688Y-55350350D01*
X201650674Y-55119713D01*
X201858966Y-54872835D01*
X202038858Y-54634045D01*
X202151904Y-54459184D01*
X202225541Y-54332080D01*
X198049833Y-47488278D01*
X197770811Y-47512703D01*
X197254486Y-47595957D01*
X196729793Y-47751371D01*
X196213992Y-47970406D01*
X195724341Y-48244528D01*
X195278099Y-48565198D01*
X194892525Y-48923882D01*
X194871280Y-48946880D01*
X194484375Y-49428661D01*
X194170682Y-49943572D01*
X193930013Y-50484456D01*
X193762182Y-51044159D01*
X193667002Y-51615523D01*
X193644286Y-52191394D01*
X190538773Y-52191394D01*
X190553134Y-51534107D01*
X190645727Y-50779281D01*
X190811295Y-50041842D01*
X191046977Y-49326961D01*
X191349912Y-48639806D01*
X191717241Y-47985546D01*
X192146103Y-47369349D01*
X192633637Y-46796385D01*
X193176983Y-46271822D01*
X193773282Y-45800829D01*
X194419672Y-45388576D01*
X195113293Y-45040230D01*
X195754715Y-44792582D01*
X195944345Y-44726287D01*
X196100396Y-44666396D01*
X196207618Y-44619152D01*
X196250763Y-44590800D01*
X196250984Y-44589411D01*
X196229059Y-44546141D01*
X196167840Y-44439052D01*
X196072302Y-44276495D01*
X195947418Y-44066823D01*
X195798161Y-43818389D01*
X195629505Y-43539545D01*
X195455769Y-43253961D01*
X194663167Y-41954635D01*
X194218667Y-42192326D01*
X193243499Y-42750675D01*
X192342230Y-43343036D01*
X191515604Y-43968635D01*
X190764365Y-44626695D01*
X190089259Y-45316442D01*
X189491029Y-46037099D01*
X188970421Y-46787892D01*
X188528179Y-47568045D01*
X188165048Y-48376782D01*
X188089784Y-48574955D01*
X187873592Y-49249347D01*
X187703451Y-49959548D01*
X187582097Y-50685674D01*
X187512267Y-51407843D01*
X187496697Y-52106171D01*
X184372432Y-52106171D01*
X184373159Y-52078061D01*
X184389326Y-51596380D01*
X184407412Y-51186554D01*
X184427349Y-50853337D01*
X184442160Y-50670455D01*
X184576230Y-49683095D01*
X184791596Y-48702310D01*
X185084912Y-47736709D01*
X185452831Y-46794906D01*
X185892008Y-45885512D01*
X186399097Y-45017138D01*
X186942374Y-44235788D01*
X187095808Y-44036118D01*
X187252427Y-43838036D01*
X187395272Y-43662643D01*
X187507383Y-43531041D01*
X187520736Y-43516122D01*
X187731161Y-43283288D01*
X187355923Y-42890635D01*
X186763796Y-42212548D01*
X186245825Y-41495950D01*
X185803253Y-40743416D01*
X185437320Y-39957518D01*
X185149269Y-39140832D01*
X184940339Y-38295930D01*
X184839922Y-37674122D01*
X184803736Y-37282211D01*
X184785205Y-36836540D01*
X184783951Y-36421462D01*
X187894298Y-36421462D01*
X187898918Y-36810030D01*
X187918216Y-37175130D01*
X187952200Y-37491352D01*
X187967933Y-37587800D01*
X188132795Y-38255959D01*
X188379324Y-38906287D01*
X188705777Y-39535480D01*
X189110408Y-40140236D01*
X189591474Y-40717252D01*
X189657890Y-40788316D01*
X190030953Y-41182508D01*
X190437714Y-40887894D01*
X190608304Y-40767572D01*
X197596654Y-40767572D01*
X197601717Y-40795406D01*
X197616488Y-40820854D01*
X197643863Y-40865259D01*
X197713342Y-40978592D01*
X197822892Y-41157527D01*
X197970481Y-41398741D01*
X198154076Y-41698909D01*
X198371646Y-42054704D01*
X198621157Y-42462803D01*
X198900577Y-42919881D01*
X199207874Y-43422612D01*
X199541017Y-43967671D01*
X199897971Y-44551735D01*
X200276705Y-45171477D01*
X200675187Y-45823574D01*
X201091384Y-46504699D01*
X201523264Y-47211529D01*
X201968795Y-47940738D01*
X202425943Y-48689001D01*
X202492048Y-48797205D01*
X207308947Y-56681788D01*
X216815854Y-56681788D01*
X218239259Y-54352124D01*
X221924864Y-54352124D01*
X221954568Y-54426169D01*
X222021403Y-54538393D01*
X222097633Y-54655217D01*
X222436980Y-55094919D01*
X222842266Y-55494669D01*
X223301402Y-55847378D01*
X223802297Y-56145958D01*
X224332861Y-56383319D01*
X224881005Y-56552371D01*
X225434639Y-56646027D01*
X225503000Y-56652030D01*
X225716154Y-56667022D01*
X225883442Y-56672643D01*
X226040059Y-56668269D01*
X226221200Y-56653278D01*
X226377844Y-56636534D01*
X226990329Y-56526905D01*
X227576807Y-56339206D01*
X228129935Y-56076802D01*
X228642373Y-55743056D01*
X229018339Y-55426722D01*
X229438252Y-54977466D01*
X229786540Y-54490762D01*
X230063471Y-53973640D01*
X230269316Y-53433124D01*
X230404345Y-52876241D01*
X230468828Y-52310018D01*
X230463036Y-51741481D01*
X230387238Y-51177657D01*
X230241705Y-50625573D01*
X230026706Y-50092255D01*
X229742513Y-49584729D01*
X229389394Y-49110022D01*
X228967621Y-48675160D01*
X228751701Y-48491301D01*
X228361284Y-48217367D01*
X227920764Y-47975251D01*
X227452266Y-47774041D01*
X226977916Y-47622826D01*
X226519839Y-47530693D01*
X226374139Y-47514645D01*
X226074500Y-47489291D01*
X224042500Y-50819340D01*
X223745734Y-51305673D01*
X223460727Y-51772719D01*
X223190676Y-52215241D01*
X222938776Y-52628002D01*
X222708226Y-53005765D01*
X222502220Y-53343292D01*
X222323956Y-53635345D01*
X222176630Y-53876688D01*
X222063439Y-54062084D01*
X221987580Y-54186294D01*
X221952248Y-54244082D01*
X221950906Y-54246268D01*
X221925805Y-54298183D01*
X221924864Y-54352124D01*
X218239259Y-54352124D01*
X221633270Y-48797205D01*
X222091949Y-48046506D01*
X222539293Y-47314385D01*
X222973270Y-46604167D01*
X223391848Y-45919178D01*
X223792994Y-45262741D01*
X224174676Y-44638181D01*
X224534863Y-44048824D01*
X224871521Y-43497993D01*
X225182619Y-42989014D01*
X225466125Y-42525211D01*
X225720007Y-42109909D01*
X225942231Y-41746433D01*
X226130767Y-41438108D01*
X226283582Y-41188258D01*
X226398644Y-41000208D01*
X226473921Y-40877282D01*
X226507380Y-40822807D01*
X226508629Y-40820804D01*
X226526188Y-40788340D01*
X226526632Y-40760245D01*
X226500184Y-40731798D01*
X226437066Y-40698280D01*
X226327502Y-40654973D01*
X226161715Y-40597157D01*
X225929927Y-40520112D01*
X225791370Y-40474592D01*
X224271594Y-40012194D01*
X222688594Y-39601246D01*
X222318654Y-39520412D01*
X231498199Y-39520412D01*
X231498607Y-39521988D01*
X231578510Y-39561700D01*
X231717168Y-39639945D01*
X231902341Y-39749129D01*
X232121786Y-39881658D01*
X232363260Y-40029939D01*
X232614523Y-40186378D01*
X232863331Y-40343381D01*
X233097442Y-40493354D01*
X233304615Y-40628704D01*
X233472607Y-40741837D01*
X233531352Y-40782900D01*
X233712956Y-40909920D01*
X233872182Y-41017404D01*
X233995443Y-41096475D01*
X234069154Y-41138255D01*
X234081685Y-41142535D01*
X234128517Y-41114515D01*
X234218753Y-41036258D01*
X234338862Y-40920185D01*
X234458921Y-40796205D01*
X234934057Y-40246267D01*
X235329798Y-39687490D01*
X235651411Y-39109858D01*
X235904159Y-38503359D01*
X236093308Y-37857977D01*
X236155955Y-37568288D01*
X236195754Y-37288757D01*
X236220714Y-36950334D01*
X236230872Y-36577476D01*
X236226265Y-36194641D01*
X236206929Y-35826285D01*
X236172901Y-35496867D01*
X236152647Y-35366955D01*
X236119459Y-35187766D01*
X236089850Y-35042090D01*
X236067759Y-34948562D01*
X236059030Y-34924243D01*
X236026947Y-34950363D01*
X235939772Y-35031980D01*
X235802111Y-35164551D01*
X235618571Y-35343538D01*
X235393759Y-35564400D01*
X235132282Y-35822596D01*
X234838747Y-36113586D01*
X234517761Y-36432829D01*
X234173931Y-36775784D01*
X233811863Y-37137913D01*
X233745677Y-37204213D01*
X233381925Y-37569520D01*
X233037154Y-37917402D01*
X232715830Y-38243252D01*
X232422419Y-38542466D01*
X232161386Y-38810436D01*
X231937198Y-39042556D01*
X231754319Y-39234219D01*
X231617216Y-39380821D01*
X231530354Y-39477754D01*
X231498199Y-39520412D01*
X222318654Y-39520412D01*
X221046988Y-39242546D01*
X219351396Y-38936888D01*
X217606435Y-38685069D01*
X215816723Y-38487886D01*
X213986880Y-38346135D01*
X213193849Y-38302663D01*
X212762649Y-38284511D01*
X212373763Y-38274509D01*
X211998579Y-38272647D01*
X211608484Y-38278915D01*
X211174866Y-38293302D01*
X210970680Y-38301861D01*
X209336676Y-38398579D01*
X207713797Y-38543910D01*
X206110992Y-38736323D01*
X204537209Y-38974286D01*
X203001398Y-39256268D01*
X201512506Y-39580740D01*
X200079482Y-39946170D01*
X198711275Y-40351028D01*
X198396496Y-40452918D01*
X198117125Y-40545216D01*
X197908774Y-40615631D01*
X197761997Y-40668618D01*
X197667348Y-40708634D01*
X197615383Y-40740133D01*
X197596654Y-40767572D01*
X190608304Y-40767572D01*
X190641914Y-40743866D01*
X190885848Y-40577692D01*
X191136952Y-40411289D01*
X191335654Y-40283545D01*
X191565205Y-40141332D01*
X191816526Y-39989745D01*
X192057569Y-39847908D01*
X192238659Y-39744716D01*
X192403723Y-39651140D01*
X192537430Y-39572007D01*
X192624785Y-39516414D01*
X192651409Y-39494308D01*
X192622575Y-39459925D01*
X192539315Y-39371923D01*
X192407229Y-39235880D01*
X192231922Y-39057372D01*
X192018995Y-38841976D01*
X191774050Y-38595268D01*
X191502691Y-38322826D01*
X191210521Y-38030226D01*
X190903140Y-37723044D01*
X190586153Y-37406858D01*
X190265162Y-37087243D01*
X189945769Y-36769778D01*
X189633577Y-36460038D01*
X189334188Y-36163600D01*
X189053206Y-35886040D01*
X188796231Y-35632937D01*
X188568868Y-35409866D01*
X188376719Y-35222403D01*
X188225386Y-35076127D01*
X188120471Y-34976612D01*
X188067578Y-34929437D01*
X188062297Y-34926379D01*
X188046540Y-34974659D01*
X188021198Y-35087677D01*
X187990262Y-35246598D01*
X187968453Y-35369042D01*
X187929071Y-35675558D01*
X187904351Y-36034835D01*
X187894298Y-36421462D01*
X184783951Y-36421462D01*
X184783772Y-36362289D01*
X184798883Y-35884639D01*
X184829979Y-35428769D01*
X184876504Y-35019861D01*
X184902136Y-34858955D01*
X185090477Y-33973645D01*
X185335763Y-33132991D01*
X185645036Y-32313249D01*
X185685611Y-32217878D01*
X185861525Y-31827471D01*
X186024035Y-31509417D01*
X186180328Y-31253947D01*
X186337590Y-31051290D01*
X186503009Y-30891674D01*
X186683771Y-30765330D01*
X186800197Y-30702599D01*
X186919984Y-30647732D01*
X187026239Y-30612773D01*
X187144218Y-30593350D01*
X187299178Y-30585091D01*
X187487667Y-30583585D01*
X187695146Y-30585755D01*
X187842649Y-30594860D01*
X187954826Y-30615288D01*
X188056329Y-30651427D01*
X188165000Y-30704140D01*
X188211090Y-30732797D01*
X188275469Y-30781507D01*
X188361120Y-30853162D01*
X188471028Y-30950657D01*
X188608176Y-31076883D01*
X188775546Y-31234736D01*
X188976124Y-31427107D01*
X189212892Y-31656891D01*
X189488835Y-31926981D01*
X189806935Y-32240270D01*
X190170176Y-32599652D01*
X190581542Y-33008020D01*
X191044017Y-33468268D01*
X191560584Y-33983288D01*
X192044254Y-34466112D01*
X195690675Y-38107827D01*
X196298754Y-37885804D01*
X197770897Y-37384464D01*
X199309767Y-36930665D01*
X200911537Y-36525142D01*
X202572384Y-36168628D01*
X204288480Y-35861859D01*
X206056002Y-35605567D01*
X207871123Y-35400488D01*
X209730018Y-35247356D01*
X210199500Y-35217374D01*
X210627655Y-35197031D01*
X211117786Y-35182929D01*
X211647431Y-35175069D01*
X212194130Y-35173451D01*
X212735422Y-35178074D01*
X213248846Y-35188939D01*
X213711942Y-35206046D01*
X213924833Y-35217374D01*
X215813000Y-35359044D01*
X217655592Y-35553623D01*
X219449317Y-35800472D01*
X221190884Y-36098952D01*
X222876999Y-36448423D01*
X224504372Y-36848245D01*
X226069710Y-37297780D01*
X227569721Y-37796387D01*
X227992644Y-37950297D01*
X228429121Y-38112361D01*
X232077811Y-34468379D01*
X232642862Y-33904366D01*
X233151285Y-33397585D01*
X233606063Y-32945144D01*
X234010177Y-32544150D01*
X234366610Y-32191710D01*
X234678345Y-31884933D01*
X234948365Y-31620925D01*
X235179652Y-31396795D01*
X235375189Y-31209649D01*
X235537958Y-31056596D01*
X235670942Y-30934742D01*
X235777124Y-30841195D01*
X235859486Y-30773064D01*
X235921010Y-30727454D01*
X235959333Y-30704140D01*
X236073467Y-30649067D01*
X236174917Y-30613863D01*
X236288336Y-30594138D01*
X236438375Y-30585506D01*
X236636667Y-30583585D01*
X236846514Y-30585712D01*
G04 #@! TA.AperFunction,EtchedComponent*
G36*
X236846514Y-30585712D02*
G01*
X236996733Y-30595229D01*
X237112306Y-30616348D01*
X237218211Y-30653276D01*
X237314284Y-30697780D01*
X237507089Y-30807927D01*
X237678639Y-30942913D01*
X237836839Y-31113173D01*
X237989595Y-31329139D01*
X238144809Y-31601245D01*
X238310386Y-31939925D01*
X238391878Y-32120203D01*
X238732946Y-32981283D01*
X239003980Y-33871124D01*
X239209236Y-34803918D01*
X239227227Y-34905400D01*
X239258389Y-35096764D01*
X239282060Y-35275417D01*
X239299223Y-35457916D01*
X239310858Y-35660816D01*
X239317949Y-35900671D01*
X239321478Y-36194037D01*
X239322416Y-36509955D01*
X239321618Y-36860520D01*
X239318233Y-37142358D01*
X239311318Y-37371390D01*
X239299931Y-37563540D01*
X239283129Y-37734732D01*
X239259969Y-37900886D01*
X239229610Y-38077371D01*
X239029761Y-38947450D01*
X238755889Y-39778015D01*
X238406872Y-40571257D01*
X237981588Y-41329366D01*
X237478916Y-42054533D01*
X236897734Y-42748949D01*
X236764741Y-42891988D01*
X236393912Y-43283820D01*
X236603967Y-43516387D01*
X236777191Y-43718826D01*
X236979702Y-43972546D01*
X237196145Y-44256888D01*
X237411169Y-44551190D01*
X237609419Y-44834792D01*
X237775544Y-45087032D01*
X237799164Y-45124788D01*
X238300281Y-46011225D01*
X238732107Y-46938931D01*
X239091448Y-47898519D01*
X239375111Y-48880601D01*
X239579901Y-49875790D01*
X239683748Y-50664357D01*
X239688906Y-50760421D01*
X239693750Y-50940387D01*
X239698278Y-51203490D01*
X239702487Y-51548966D01*
X239706374Y-51976050D01*
X239709935Y-52483979D01*
X239713168Y-53071987D01*
X239716070Y-53739312D01*
X239718637Y-54485187D01*
X239720868Y-55308849D01*
X239722757Y-56209533D01*
X239724304Y-57186475D01*
X239725504Y-58238910D01*
X239726356Y-59366075D01*
X239726854Y-60567205D01*
X239727000Y-61713984D01*
X239727000Y-72325209D01*
X240245583Y-72711727D01*
X241292891Y-73535960D01*
X242332659Y-74441922D01*
X243365157Y-75429928D01*
X244390650Y-76500291D01*
X245409409Y-77653324D01*
X246421699Y-78889341D01*
X247427789Y-80208655D01*
X248427947Y-81611580D01*
X249422441Y-83098429D01*
X250279204Y-84453931D01*
X251254468Y-86084783D01*
X252220988Y-87797334D01*
X253177645Y-89588959D01*
X254123319Y-91457034D01*
X255056891Y-93398935D01*
X255977243Y-95412038D01*
X256883254Y-97493718D01*
X257773806Y-99641351D01*
X258647780Y-101852313D01*
X259504055Y-104123980D01*
X260341513Y-106453728D01*
X261159034Y-108838932D01*
X261955500Y-111276969D01*
X262601663Y-113344955D01*
X262768492Y-113895479D01*
X262944267Y-114485751D01*
X263125193Y-115102395D01*
X263307472Y-115732035D01*
X263487307Y-116361296D01*
X263660899Y-116976802D01*
X263824452Y-117565178D01*
X263974169Y-118113049D01*
X264106251Y-118607038D01*
X264216902Y-119033770D01*
X264218176Y-119038788D01*
X264297556Y-119476673D01*
X264302949Y-119873523D01*
X264234241Y-120229674D01*
X264091315Y-120545459D01*
X263874056Y-120821215D01*
X263582350Y-121057275D01*
X263507372Y-121104396D01*
X263240381Y-121241402D01*
X262895591Y-121380179D01*
X262479810Y-121519342D01*
X261999849Y-121657507D01*
X261462514Y-121793287D01*
X260874615Y-121925299D01*
X260242961Y-122052157D01*
X259574360Y-122172477D01*
X258875621Y-122284873D01*
X258153553Y-122387960D01*
X257414965Y-122480355D01*
X256666665Y-122560671D01*
X256088833Y-122613354D01*
X255413474Y-122662981D01*
X254686562Y-122703591D01*
X253925736Y-122734879D01*
X253148634Y-122756544D01*
X252372894Y-122768282D01*
X251616154Y-122769789D01*
X250896051Y-122760764D01*
X250230225Y-122740904D01*
X249817613Y-122721063D01*
X248020410Y-122587515D01*
X246276514Y-122393926D01*
X244578104Y-122138836D01*
X242917361Y-121820788D01*
X241286466Y-121438326D01*
X239677601Y-120989991D01*
X238468391Y-120605512D01*
X237696616Y-120347018D01*
X237240725Y-120753816D01*
X236600087Y-121274809D01*
X235934035Y-121716162D01*
X235238236Y-122080232D01*
X234508359Y-122369379D01*
X233987725Y-122525099D01*
X233922075Y-122542944D01*
X233863231Y-122559879D01*
X233808961Y-122575930D01*
X233757035Y-122591120D01*
X233705223Y-122605472D01*
X233651293Y-122619010D01*
X233593016Y-122631758D01*
X233528160Y-122643738D01*
X233454495Y-122654975D01*
X233369791Y-122665492D01*
X233271816Y-122675313D01*
X233158341Y-122684461D01*
X233027134Y-122692960D01*
X232875966Y-122700833D01*
X232702604Y-122708104D01*
X232504820Y-122714796D01*
X232280382Y-122720933D01*
X232027060Y-122726539D01*
X231742623Y-122731637D01*
X231424840Y-122736250D01*
X231071481Y-122740403D01*
X230680315Y-122744118D01*
X230249112Y-122747419D01*
X229775642Y-122750331D01*
X229257672Y-122752876D01*
X228692974Y-122755077D01*
X228079316Y-122756960D01*
X227414468Y-122758546D01*
X226696198Y-122759860D01*
X225922278Y-122760925D01*
X225090475Y-122761765D01*
X224198560Y-122762403D01*
X223244301Y-122762862D01*
X222225469Y-122763167D01*
X221139832Y-122763341D01*
X219985160Y-122763408D01*
X218759223Y-122763390D01*
X217459789Y-122763313D01*
X216084629Y-122763198D01*
X214631511Y-122763070D01*
X213098205Y-122762952D01*
X211482480Y-122762868D01*
X211469500Y-122762867D01*
X190218167Y-122762112D01*
X189969756Y-122659980D01*
X189649836Y-122484274D01*
X189383494Y-122243480D01*
X189183228Y-121956921D01*
X189032833Y-121684622D01*
X189033609Y-120964955D01*
X189036377Y-120657335D01*
X189045300Y-120409714D01*
X189062425Y-120197527D01*
X189089797Y-119996205D01*
X189129463Y-119781182D01*
X189134087Y-119758455D01*
X189166825Y-119630525D01*
X192398333Y-119630525D01*
X192440084Y-119641626D01*
X192565448Y-119651079D01*
X192774590Y-119658886D01*
X193067675Y-119665051D01*
X193444870Y-119669578D01*
X193906339Y-119672469D01*
X194452249Y-119673728D01*
X194615635Y-119673788D01*
X196832937Y-119673788D01*
X196840900Y-119642038D01*
X200061469Y-119642038D01*
X200103074Y-119645107D01*
X200225443Y-119648094D01*
X200424677Y-119650987D01*
X200696872Y-119653772D01*
X201038128Y-119656434D01*
X201444543Y-119658960D01*
X201912216Y-119661336D01*
X202437245Y-119663547D01*
X203015728Y-119665581D01*
X203643764Y-119667424D01*
X204317452Y-119669060D01*
X205032890Y-119670477D01*
X205786176Y-119671661D01*
X206573409Y-119672598D01*
X207390688Y-119673273D01*
X208234110Y-119673674D01*
X208991952Y-119673788D01*
X217923238Y-119673788D01*
X217884784Y-119572648D01*
X217786246Y-119348673D01*
X217650529Y-119087840D01*
X217493962Y-118818904D01*
X217332877Y-118570620D01*
X217251442Y-118457484D01*
X216850542Y-117994619D01*
X216393962Y-117592656D01*
X215888755Y-117255635D01*
X215341971Y-116987596D01*
X214760664Y-116792580D01*
X214151885Y-116674628D01*
X214136500Y-116672717D01*
X214031398Y-116665201D01*
X213848451Y-116658316D01*
X213594479Y-116652061D01*
X213276300Y-116646437D01*
X212900734Y-116641444D01*
X212474600Y-116637082D01*
X212004718Y-116633351D01*
X211497907Y-116630250D01*
X210960987Y-116627781D01*
X210400775Y-116625942D01*
X209824093Y-116624733D01*
X209237759Y-116624156D01*
X208648593Y-116624209D01*
X208063413Y-116624894D01*
X207489040Y-116626209D01*
X206932292Y-116628154D01*
X206399989Y-116630731D01*
X205898951Y-116633938D01*
X205435995Y-116637776D01*
X205017943Y-116642245D01*
X204651613Y-116647345D01*
X204343824Y-116653076D01*
X204101396Y-116659437D01*
X203931148Y-116666429D01*
X203849500Y-116672717D01*
X203258700Y-116785513D01*
X202687689Y-116973634D01*
X202145920Y-117231359D01*
X201642846Y-117552969D01*
X201187921Y-117932745D01*
X200790599Y-118364966D01*
X200582042Y-118649704D01*
X200506884Y-118770311D01*
X200416491Y-118927298D01*
X200320185Y-119102896D01*
X200227286Y-119279341D01*
X200147114Y-119438865D01*
X200088989Y-119563702D01*
X200062232Y-119636085D01*
X200061469Y-119642038D01*
X196840900Y-119642038D01*
X196925368Y-119305254D01*
X197109937Y-118698540D01*
X197358151Y-118081924D01*
X197657668Y-117482850D01*
X197990051Y-116937778D01*
X198207538Y-116615477D01*
X197133852Y-116637906D01*
X196732888Y-116648124D01*
X196402063Y-116661809D01*
X196126857Y-116681144D01*
X195892752Y-116708308D01*
X195685231Y-116745482D01*
X195489773Y-116794848D01*
X195291862Y-116858585D01*
X195076977Y-116938874D01*
X195044167Y-116951776D01*
X194467739Y-117222081D01*
X193947881Y-117555339D01*
X193484178Y-117951880D01*
X193076215Y-118412038D01*
X192881240Y-118683647D01*
X192771228Y-118858348D01*
X192660956Y-119049976D01*
X192559478Y-119240782D01*
X192475847Y-119413015D01*
X192419114Y-119548924D01*
X192398333Y-119630525D01*
X189166825Y-119630525D01*
X189338698Y-118958909D01*
X189616315Y-118202222D01*
X189967065Y-117488157D01*
X190391076Y-116816476D01*
X190888476Y-116186941D01*
X191282663Y-115768971D01*
X191894180Y-115221448D01*
X192544102Y-114749297D01*
X193231227Y-114353056D01*
X193954353Y-114033265D01*
X194712277Y-113790464D01*
X195503799Y-113625193D01*
X196240005Y-113543443D01*
X196673843Y-113514288D01*
X196351302Y-113069788D01*
X195468249Y-111791626D01*
X194617393Y-110435646D01*
X193798874Y-109002394D01*
X193012830Y-107492414D01*
X192259401Y-105906252D01*
X191538728Y-104244453D01*
X190850949Y-102507562D01*
X190196203Y-100696125D01*
X189574632Y-98810686D01*
X188986373Y-96851792D01*
X188431567Y-94819987D01*
X187910354Y-92715816D01*
X187422872Y-90539826D01*
X186969261Y-88292560D01*
X186549661Y-85974565D01*
X186164212Y-83586385D01*
X185813052Y-81128566D01*
X185496322Y-78601653D01*
X185214162Y-76006192D01*
X184966709Y-73342727D01*
X184754105Y-70611803D01*
X184576489Y-67813967D01*
X184524894Y-66862955D01*
X184492985Y-66230690D01*
X184464717Y-65628156D01*
X184439835Y-65045071D01*
X184418081Y-64471151D01*
X184399200Y-63896111D01*
X184382934Y-63309670D01*
X184369027Y-62701543D01*
X184357222Y-62061448D01*
X184347262Y-61379100D01*
X184345966Y-61265282D01*
X187454498Y-61265282D01*
X187456660Y-61450547D01*
X187461129Y-61691389D01*
X187467728Y-61978128D01*
X187476279Y-62301084D01*
X187485504Y-62614890D01*
X187588045Y-65370491D01*
X187724450Y-68070118D01*
X187894479Y-70712706D01*
X188097892Y-73297190D01*
X188334449Y-75822504D01*
X188603910Y-78287582D01*
X188906037Y-80691360D01*
X189240587Y-83032771D01*
X189607323Y-85310750D01*
X190006004Y-87524232D01*
X190436390Y-89672151D01*
X190898241Y-91753442D01*
X191391318Y-93767039D01*
X191915381Y-95711877D01*
X192470189Y-97586890D01*
X193055504Y-99391013D01*
X193671084Y-101123181D01*
X194316691Y-102782327D01*
X194992084Y-104367387D01*
X195697024Y-105877295D01*
X196431271Y-107310985D01*
X197194585Y-108667392D01*
X197986725Y-109945451D01*
X198218905Y-110296955D01*
X198797894Y-111134613D01*
X199375448Y-111914745D01*
X199970676Y-112661960D01*
X200602684Y-113400869D01*
X200804767Y-113627322D01*
X201289964Y-114166047D01*
X201574899Y-114056002D01*
X201881344Y-113947930D01*
X202238172Y-113838622D01*
X202611777Y-113737547D01*
X202968554Y-113654174D01*
X203084083Y-113630764D01*
X203144563Y-113620006D01*
X203211663Y-113610335D01*
X203289948Y-113601693D01*
X203383981Y-113594023D01*
X203498327Y-113587268D01*
X203637551Y-113581370D01*
X203806217Y-113576272D01*
X204008890Y-113571917D01*
X204250134Y-113568248D01*
X204534514Y-113565206D01*
X204866594Y-113562736D01*
X205250939Y-113560780D01*
X205692113Y-113559280D01*
X206194681Y-113558179D01*
X206763207Y-113557420D01*
X207402255Y-113556946D01*
X208116391Y-113556699D01*
X208910179Y-113556622D01*
X214517500Y-113556622D01*
X215004333Y-113655109D01*
X215800464Y-113857135D01*
X216558862Y-114131592D01*
X217275659Y-114474903D01*
X217946990Y-114883487D01*
X218568985Y-115353765D01*
X219137779Y-115882156D01*
X219649503Y-116465082D01*
X220100290Y-117098962D01*
X220486273Y-117780218D01*
X220803585Y-118505268D01*
X221040933Y-119242645D01*
X221156546Y-119673788D01*
X226734543Y-119673788D01*
X227687619Y-119673434D01*
X228556297Y-119672371D01*
X229340843Y-119670596D01*
X230041523Y-119668107D01*
X230658604Y-119664903D01*
X231192351Y-119660981D01*
X231643030Y-119656339D01*
X232010908Y-119650976D01*
X232296250Y-119644889D01*
X232499322Y-119638076D01*
X232620390Y-119630535D01*
X232638946Y-119628389D01*
X232843420Y-119593085D01*
X233081062Y-119541918D01*
X233304521Y-119485195D01*
X233329926Y-119477989D01*
X233497646Y-119423890D01*
X233686938Y-119353678D01*
X233881613Y-119274545D01*
X234065484Y-119193680D01*
X234222363Y-119118276D01*
X234336061Y-119055524D01*
X234390390Y-119012615D01*
X234392799Y-119005828D01*
X234356717Y-118977642D01*
X234257355Y-118920041D01*
X234107819Y-118840130D01*
X233921215Y-118745012D01*
X233810716Y-118690348D01*
X232378364Y-117947417D01*
X230981397Y-117138101D01*
X229614405Y-116258760D01*
X228271978Y-115305755D01*
X226948705Y-114275445D01*
X225778167Y-113286516D01*
X225543752Y-113074976D01*
X225263603Y-112812109D01*
X224948954Y-112509226D01*
X224611034Y-112177637D01*
X224261077Y-111828653D01*
X223910315Y-111473584D01*
X223569978Y-111123739D01*
X223251299Y-110790431D01*
X222965510Y-110484969D01*
X222723843Y-110218663D01*
X222662230Y-110148788D01*
X221517735Y-108782770D01*
X220430976Y-107367518D01*
X219400303Y-105900202D01*
X218424069Y-104377992D01*
X217500624Y-102798059D01*
X216628320Y-101157573D01*
X215805509Y-99453705D01*
X215030542Y-97683624D01*
X214301771Y-95844502D01*
X214251922Y-95711707D01*
X213826295Y-94521684D01*
X213458047Y-93377063D01*
X213144114Y-92263957D01*
X212881432Y-91168482D01*
X212666936Y-90076751D01*
X212497562Y-88974880D01*
X212370246Y-87848981D01*
X212290302Y-86823122D01*
X212272952Y-86449470D01*
X212263126Y-86018501D01*
X212260476Y-85549201D01*
X212262077Y-85361969D01*
X215367081Y-85361969D01*
X215397646Y-86460803D01*
X215480925Y-87584166D01*
X215615388Y-88719458D01*
X215799508Y-89854078D01*
X216031754Y-90975428D01*
X216310598Y-92070906D01*
X216634510Y-93127913D01*
X216681174Y-93265710D01*
X217332303Y-95059382D01*
X218041671Y-96811063D01*
X218806166Y-98513974D01*
X219622678Y-100161336D01*
X220488095Y-101746368D01*
X220880386Y-102416960D01*
X221826883Y-103924921D01*
X222825227Y-105367144D01*
X223874906Y-106743158D01*
X224975404Y-108052495D01*
X226126208Y-109294684D01*
X227326803Y-110469256D01*
X228576675Y-111575741D01*
X229875311Y-112613671D01*
X231222195Y-113582575D01*
X232616814Y-114481983D01*
X234058653Y-115311427D01*
X235547198Y-116070436D01*
X236128667Y-116341971D01*
X237683012Y-117004689D01*
X239276341Y-117594685D01*
X240910226Y-118112411D01*
X242586235Y-118558319D01*
X244305940Y-118932863D01*
X246070910Y-119236493D01*
X246288667Y-119268597D01*
X246964695Y-119359572D01*
X247663302Y-119439483D01*
X248398567Y-119509621D01*
X249184569Y-119571281D01*
X250035386Y-119625754D01*
X250395000Y-119645714D01*
X250590311Y-119653091D01*
X250856407Y-119658701D01*
X251179427Y-119662595D01*
X251545508Y-119664827D01*
X251940788Y-119665450D01*
X252351405Y-119664515D01*
X252763498Y-119662077D01*
X253163204Y-119658187D01*
X253536662Y-119652898D01*
X253870009Y-119646263D01*
X254149384Y-119638336D01*
X254332000Y-119630727D01*
X255427311Y-119559833D01*
X256527367Y-119460714D01*
X257603527Y-119336328D01*
X258627150Y-119189632D01*
X258671167Y-119182610D01*
X258909949Y-119142651D01*
X259180843Y-119094516D01*
X259470130Y-119040935D01*
X259764087Y-118984636D01*
X260048995Y-118928348D01*
X260311132Y-118874799D01*
X260536779Y-118826718D01*
X260712215Y-118786834D01*
X260823718Y-118757875D01*
X260848033Y-118749688D01*
X260867770Y-118733559D01*
X260876776Y-118698621D01*
X260873142Y-118635537D01*
X260854956Y-118534970D01*
X260820307Y-118387581D01*
X260767285Y-118184033D01*
X260693979Y-117914989D01*
X260629971Y-117684122D01*
X260171757Y-116078008D01*
X259676362Y-114416648D01*
X259149499Y-112717790D01*
X258596882Y-110999186D01*
X258024222Y-109278585D01*
X257437234Y-107573736D01*
X256841630Y-105902391D01*
X256807947Y-105809622D01*
X255970250Y-103558375D01*
X255118430Y-101375047D01*
X254253090Y-99260759D01*
X253374836Y-97216632D01*
X252484270Y-95243785D01*
X251581996Y-93343340D01*
X250668619Y-91516417D01*
X249744742Y-89764137D01*
X248810969Y-88087620D01*
X247867904Y-86487987D01*
X246916151Y-84966358D01*
X245956313Y-83523855D01*
X244988994Y-82161596D01*
X244014799Y-80880705D01*
X243034331Y-79682299D01*
X242242282Y-78779788D01*
X241978674Y-78495264D01*
X241675414Y-78178323D01*
X241345671Y-77841953D01*
X241002613Y-77499143D01*
X240659407Y-77162879D01*
X240329221Y-76846151D01*
X240025224Y-76561944D01*
X239760582Y-76323249D01*
X239684667Y-76257141D01*
X238709419Y-75458474D01*
X237736421Y-74744252D01*
X236765258Y-74114295D01*
X235795511Y-73568422D01*
X234826763Y-73106453D01*
X233858598Y-72728208D01*
X232890598Y-72433508D01*
X231922347Y-72222172D01*
X230953428Y-72094019D01*
X229983424Y-72048871D01*
X229939982Y-72048788D01*
X229501250Y-72054674D01*
X229065616Y-72073355D01*
X228613096Y-72106372D01*
X228123709Y-72155261D01*
X227577471Y-72221562D01*
X227411898Y-72243419D01*
X226192103Y-72438381D01*
X225036980Y-72687673D01*
X223946596Y-72991234D01*
X222921019Y-73349000D01*
X221960317Y-73760908D01*
X221064558Y-74226896D01*
X220233809Y-74746901D01*
X219468138Y-75320861D01*
X218767613Y-75948712D01*
X218132301Y-76630393D01*
X217562271Y-77365840D01*
X217057590Y-78154991D01*
X216618326Y-78997784D01*
X216244546Y-79894154D01*
X215936319Y-80844041D01*
X215693712Y-81847381D01*
X215516792Y-82904111D01*
X215470213Y-83288288D01*
X215390761Y-84300264D01*
X215367081Y-85361969D01*
X212262077Y-85361969D01*
X212264655Y-85060556D01*
X212275315Y-84571551D01*
X212292109Y-84101172D01*
X212314690Y-83668405D01*
X212342710Y-83292236D01*
X212357689Y-83140122D01*
X212525782Y-81922393D01*
X212759969Y-80756477D01*
X213060073Y-79642687D01*
X213425918Y-78581338D01*
X213857329Y-77572744D01*
X214354130Y-76617219D01*
X214916145Y-75715076D01*
X215543198Y-74866631D01*
X216235113Y-74072196D01*
X216991715Y-73332086D01*
X217812828Y-72646615D01*
X218518000Y-72136465D01*
X219400272Y-71581495D01*
X220333523Y-71079674D01*
X221320200Y-70630226D01*
X222362753Y-70232375D01*
X223463630Y-69885344D01*
X224625280Y-69588358D01*
X225850151Y-69340641D01*
X227140692Y-69141416D01*
X228424000Y-68996902D01*
X228744212Y-68973870D01*
X229123855Y-68957927D01*
X229540772Y-68949072D01*
X229972808Y-68947309D01*
X230397807Y-68952637D01*
X230793614Y-68965059D01*
X231138072Y-68984575D01*
X231281500Y-68996738D01*
X232067618Y-69091177D01*
X232826675Y-69220626D01*
X233573711Y-69389257D01*
X234323764Y-69601244D01*
X235091876Y-69860760D01*
X235893084Y-70171978D01*
X236583750Y-70467985D01*
X236592271Y-70456645D01*
X236599874Y-70412003D01*
X236606602Y-70330127D01*
X236612499Y-70207084D01*
X236617607Y-70038943D01*
X236621970Y-69821769D01*
X236625631Y-69551632D01*
X236628635Y-69224597D01*
X236631023Y-68836733D01*
X236632840Y-68384107D01*
X236634129Y-67862787D01*
X236634933Y-67268839D01*
X236635296Y-66598332D01*
X236635261Y-65847333D01*
X236635247Y-65798567D01*
X236633828Y-61105622D01*
X236497664Y-61274822D01*
X236299283Y-61510566D01*
X236061477Y-61776325D01*
X235805161Y-62049946D01*
X235551255Y-62309278D01*
X235320676Y-62532167D01*
X235245272Y-62601135D01*
X234485220Y-63235927D01*
X233697069Y-63801033D01*
X232875974Y-64298505D01*
X232017088Y-64730397D01*
X231115565Y-65098761D01*
X230166560Y-65405649D01*
X229165227Y-65653117D01*
X228106719Y-65843215D01*
X227365667Y-65939225D01*
X227028307Y-65968694D01*
X226624118Y-65990899D01*
X226170624Y-66005842D01*
X225685349Y-66013528D01*
X225185818Y-66013960D01*
X224689555Y-66007143D01*
X224214084Y-65993081D01*
X223776930Y-65971778D01*
X223395618Y-65943237D01*
X223344000Y-65938301D01*
X222177394Y-65802000D01*
X221015847Y-65623276D01*
X219844972Y-65399179D01*
X218650385Y-65126756D01*
X217417701Y-64803059D01*
X216471837Y-64528568D01*
X216253057Y-64464193D01*
X216062348Y-64410927D01*
X215914594Y-64372702D01*
X215824678Y-64353454D01*
X215805304Y-64352370D01*
X215776597Y-64389939D01*
X215708095Y-64493252D01*
X215603945Y-64655683D01*
X215468296Y-64870606D01*
X215305298Y-65131395D01*
X215119098Y-65431426D01*
X214913846Y-65764071D01*
X214693690Y-66122707D01*
X214564607Y-66333788D01*
X214332867Y-66711638D01*
X214109332Y-67073026D01*
X213898767Y-67410452D01*
X213705938Y-67716420D01*
X213535613Y-67983429D01*
X213392558Y-68203982D01*
X213281538Y-68370580D01*
X213207320Y-68475724D01*
X213186589Y-68501688D01*
X212989645Y-68679829D01*
X212744174Y-68832194D01*
X212727838Y-68840355D01*
X212580347Y-68908881D01*
X212458964Y-68950421D01*
X212332064Y-68971590D01*
X212168024Y-68979005D01*
X212062167Y-68979622D01*
X211867126Y-68976539D01*
X211725351Y-68962993D01*
X211605534Y-68932538D01*
X211476371Y-68878725D01*
X211405110Y-68844310D01*
X211234084Y-68745331D01*
X211066242Y-68624568D01*
X210956968Y-68526810D01*
X210902076Y-68456275D01*
X210808302Y-68320610D01*
X210680385Y-68127246D01*
X210523067Y-67883619D01*
X210341086Y-67597159D01*
X210139185Y-67275301D01*
X209922101Y-66925477D01*
X209694577Y-66555121D01*
X209585411Y-66376122D01*
X209359292Y-66004793D01*
X209145886Y-65654950D01*
X208949329Y-65333330D01*
X208773756Y-65046672D01*
X208623303Y-64801715D01*
X208502106Y-64605196D01*
X208414301Y-64463855D01*
X208364023Y-64384430D01*
X208353856Y-64369568D01*
X208304069Y-64369343D01*
X208184019Y-64392056D01*
X208004180Y-64435158D01*
X207775029Y-64496097D01*
X207507041Y-64572324D01*
X207439413Y-64592223D01*
X205943034Y-65006951D01*
X204493464Y-65351200D01*
X203090588Y-65624965D01*
X201734288Y-65828239D01*
X200424450Y-65961016D01*
X199160956Y-66023290D01*
X197943689Y-66015056D01*
X196772535Y-65936307D01*
X195647376Y-65787038D01*
X194568095Y-65567241D01*
X193534578Y-65276912D01*
X192546707Y-64916044D01*
X191604366Y-64484632D01*
X190707438Y-63982668D01*
X190276244Y-63705414D01*
X189848131Y-63398885D01*
X189403435Y-63046458D01*
X188959608Y-62663958D01*
X188534105Y-62267210D01*
X188144378Y-61872038D01*
X187807881Y-61494266D01*
X187722649Y-61390106D01*
X187614053Y-61258454D01*
X187525699Y-61158982D01*
X187470011Y-61105291D01*
X187457802Y-61100208D01*
X187454820Y-61145276D01*
X187454498Y-61265282D01*
X184345966Y-61265282D01*
X184338892Y-60644216D01*
X184331853Y-59846513D01*
X184325891Y-58975708D01*
X184325212Y-58861955D01*
X184321053Y-57947587D01*
X184319424Y-57062274D01*
X184320258Y-56210770D01*
X184323485Y-55397831D01*
X184329039Y-54628214D01*
X184336851Y-53906672D01*
X184346854Y-53237962D01*
X184358979Y-52626840D01*
X184372432Y-52106171D01*
X187496697Y-52106171D01*
X187527583Y-52660122D01*
X187660672Y-53677139D01*
X187859563Y-54661292D01*
X188122286Y-55608011D01*
X188446870Y-56512727D01*
X188831344Y-57370870D01*
X189273738Y-58177871D01*
X189772082Y-58929162D01*
X190324406Y-59620172D01*
X190705000Y-60028358D01*
X191333274Y-60606204D01*
X192008509Y-61118904D01*
X192731781Y-61566773D01*
X193504166Y-61950129D01*
X194326740Y-62269290D01*
X195200578Y-62524571D01*
X196126757Y-62716289D01*
X197106352Y-62844762D01*
X198140440Y-62910307D01*
X199230097Y-62913239D01*
X200314667Y-62858547D01*
X200983155Y-62794679D01*
X201712565Y-62699247D01*
X202486595Y-62575398D01*
X203288941Y-62426278D01*
X204103301Y-62255032D01*
X204913371Y-62064806D01*
X205702849Y-61858747D01*
X206142220Y-61734000D01*
X206656941Y-61583163D01*
X206277970Y-60963392D01*
X206171570Y-60789328D01*
X206028238Y-60554760D01*
X205855158Y-60271449D01*
X205659514Y-59951156D01*
X205563096Y-59793288D01*
X209210424Y-59793288D01*
X210636295Y-62127811D01*
X210884357Y-62532530D01*
X211119290Y-62913066D01*
X211337408Y-63263623D01*
X211535022Y-63578406D01*
X211708446Y-63851617D01*
X211853992Y-64077460D01*
X211967974Y-64250138D01*
X212046704Y-64363855D01*
X212086495Y-64412814D01*
X212090430Y-64413811D01*
X212116937Y-64370057D01*
X212183801Y-64260323D01*
X212287203Y-64090861D01*
X212423325Y-63867921D01*
X212588349Y-63597753D01*
X212778457Y-63286607D01*
X212989831Y-62940735D01*
X213218653Y-62566386D01*
X213461105Y-62169811D01*
X213516454Y-62079288D01*
X213819157Y-61584224D01*
X217482218Y-61584224D01*
X217482259Y-61584356D01*
X217527102Y-61601912D01*
X217640819Y-61637252D01*
X217810362Y-61686782D01*
X218022681Y-61746908D01*
X218264728Y-61814037D01*
X218523453Y-61884576D01*
X218785806Y-61954930D01*
X219038740Y-62021506D01*
X219269205Y-62080711D01*
X219428167Y-62120239D01*
X220639487Y-62393614D01*
X221795680Y-62609508D01*
X222903215Y-62768527D01*
X223968562Y-62871276D01*
X224998191Y-62918362D01*
X225998573Y-62910390D01*
X226976177Y-62847967D01*
X227087126Y-62837355D01*
X228069116Y-62703412D01*
X229004265Y-62500868D01*
X229891478Y-62230368D01*
X230729660Y-61892558D01*
X231517715Y-61488083D01*
X232254548Y-61017586D01*
X232939063Y-60481715D01*
X233570165Y-59881114D01*
X234146759Y-59216427D01*
X234667749Y-58488300D01*
X234784312Y-58304311D01*
X235198432Y-57570792D01*
X235564843Y-56791021D01*
X235880977Y-55976218D01*
X236144264Y-55137605D01*
X236352133Y-54286401D01*
X236502016Y-53433826D01*
X236591343Y-52591102D01*
X236617544Y-51769449D01*
X236578049Y-50980087D01*
X236538808Y-50643075D01*
X236372856Y-49746225D01*
X236127726Y-48878860D01*
X235803828Y-48041578D01*
X235401571Y-47234979D01*
X234921364Y-46459662D01*
X234363618Y-45716225D01*
X233728740Y-45005268D01*
X233017141Y-44327389D01*
X232229230Y-43683187D01*
X231366167Y-43073756D01*
X231075700Y-42886864D01*
X230782671Y-42705673D01*
X230496332Y-42535237D01*
X230225935Y-42380609D01*
X229980733Y-42246840D01*
X229769978Y-42138983D01*
X229602924Y-42062091D01*
X229488822Y-42021217D01*
X229437618Y-42020626D01*
X229408272Y-42063746D01*
X229340117Y-42170750D01*
X229238383Y-42333213D01*
X229108305Y-42542712D01*
X228955115Y-42790819D01*
X228784046Y-43069112D01*
X228619222Y-43338256D01*
X228421148Y-43664939D01*
X228248809Y-43954575D01*
X228105677Y-44201022D01*
X227995221Y-44398138D01*
X227920914Y-44539780D01*
X227886223Y-44619805D01*
X227886133Y-44635782D01*
X227944792Y-44654506D01*
X228065571Y-44694114D01*
X228230301Y-44748618D01*
X228402833Y-44806033D01*
X229130109Y-45092454D01*
X229817545Y-45450932D01*
X230461099Y-45876802D01*
X231056730Y-46365394D01*
X231600396Y-46912042D01*
X232088055Y-47512078D01*
X232515667Y-48160834D01*
X232879188Y-48853641D01*
X233174579Y-49585834D01*
X233397797Y-50352743D01*
X233462261Y-50649288D01*
X233541011Y-51182351D01*
X233579689Y-51762809D01*
X233578529Y-52363599D01*
X233537765Y-52957660D01*
X233457630Y-53517927D01*
X233436526Y-53625354D01*
X233234617Y-54396645D01*
X232955520Y-55138175D01*
X232603118Y-55844587D01*
X232181296Y-56510525D01*
X231693940Y-57130630D01*
X231144932Y-57699547D01*
X230538159Y-58211919D01*
X229877503Y-58662387D01*
X229713677Y-58759361D01*
X229071851Y-59085539D01*
X228379423Y-59357382D01*
X227656008Y-59567863D01*
X227175167Y-59669028D01*
X226832190Y-59715912D01*
X226434227Y-59747031D01*
X226009580Y-59761827D01*
X225586554Y-59759741D01*
X225193450Y-59740216D01*
X224931500Y-59713286D01*
X224122066Y-59564749D01*
X223349838Y-59340359D01*
X222612823Y-59039238D01*
X221909028Y-58660504D01*
X221236459Y-58203276D01*
X220891787Y-57928660D01*
X220718008Y-57778241D01*
X220547494Y-57622721D01*
X220403389Y-57483595D01*
X220329955Y-57406737D01*
X220144991Y-57201012D01*
X218808325Y-59386150D01*
X218569959Y-59776312D01*
X218345540Y-60144591D01*
X218138844Y-60484730D01*
X217953645Y-60790472D01*
X217793718Y-61055559D01*
X217662837Y-61273735D01*
X217564777Y-61438743D01*
X217503312Y-61544325D01*
X217482218Y-61584224D01*
X213819157Y-61584224D01*
X214914215Y-59793288D01*
X213501866Y-59782145D01*
X213075243Y-59779589D01*
X212591801Y-59778057D01*
X212079383Y-59777549D01*
X211565830Y-59778065D01*
X211078985Y-59779606D01*
X210649970Y-59782145D01*
X209210424Y-59793288D01*
X205563096Y-59793288D01*
X205448489Y-59605642D01*
X205229268Y-59246669D01*
X205009035Y-58885997D01*
X204941661Y-58775652D01*
X203984322Y-57207682D01*
X203789911Y-57415738D01*
X203674764Y-57531005D01*
X203517237Y-57678087D01*
X203340741Y-57835506D01*
X203214500Y-57943661D01*
X202563901Y-58436069D01*
X201876938Y-58853216D01*
X201158279Y-59193905D01*
X200412590Y-59456935D01*
X199644537Y-59641108D01*
X198858787Y-59745224D01*
X198060006Y-59768084D01*
X197252862Y-59708488D01*
X196695167Y-59618993D01*
X196197491Y-59496326D01*
X195666770Y-59320715D01*
X195126417Y-59102308D01*
X194599844Y-58851257D01*
X194110463Y-58577710D01*
X193753000Y-58343488D01*
X193504892Y-58151295D01*
X193224895Y-57908077D01*
X192930131Y-57630968D01*
X192637719Y-57337101D01*
X192364780Y-57043611D01*
X192128435Y-56767632D01*
X191965681Y-56554788D01*
X191622128Y-56016019D01*
X191309885Y-55421795D01*
X191041191Y-54799152D01*
X190828285Y-54175129D01*
X190741805Y-53851227D01*
X190598313Y-53075249D01*
X190536376Y-52301153D01*
X190538773Y-52191394D01*
X193644286Y-52191394D01*
X193693846Y-52764616D01*
X193815496Y-53328033D01*
X194009048Y-53874490D01*
X194274316Y-54396831D01*
X194611112Y-54887900D01*
X195019250Y-55340542D01*
X195038887Y-55359506D01*
X195379076Y-55663277D01*
X195712808Y-55910234D01*
X196068863Y-56120552D01*
X196263124Y-56217738D01*
X196836574Y-56444267D01*
X197432474Y-56590773D01*
X198043238Y-56656393D01*
X198661280Y-56640263D01*
X199221290Y-56554317D01*
X199770663Y-56394986D01*
X200309493Y-56158562D01*
X200822976Y-55852510D01*
X201231713Y-55540417D01*
X201434688Y-55350350D01*
X201650674Y-55119713D01*
X201858966Y-54872835D01*
X202038858Y-54634045D01*
X202151904Y-54459184D01*
X202225541Y-54332080D01*
X198049833Y-47488278D01*
X197770811Y-47512703D01*
X197254486Y-47595957D01*
X196729793Y-47751371D01*
X196213992Y-47970406D01*
X195724341Y-48244528D01*
X195278099Y-48565198D01*
X194892525Y-48923882D01*
X194871280Y-48946880D01*
X194484375Y-49428661D01*
X194170682Y-49943572D01*
X193930013Y-50484456D01*
X193762182Y-51044159D01*
X193667002Y-51615523D01*
X193644286Y-52191394D01*
X190538773Y-52191394D01*
X190553134Y-51534107D01*
X190645727Y-50779281D01*
X190811295Y-50041842D01*
X191046977Y-49326961D01*
X191349912Y-48639806D01*
X191717241Y-47985546D01*
X192146103Y-47369349D01*
X192633637Y-46796385D01*
X193176983Y-46271822D01*
X193773282Y-45800829D01*
X194419672Y-45388576D01*
X195113293Y-45040230D01*
X195754715Y-44792582D01*
X195944345Y-44726287D01*
X196100396Y-44666396D01*
X196207618Y-44619152D01*
X196250763Y-44590800D01*
X196250984Y-44589411D01*
X196229059Y-44546141D01*
X196167840Y-44439052D01*
X196072302Y-44276495D01*
X195947418Y-44066823D01*
X195798161Y-43818389D01*
X195629505Y-43539545D01*
X195455769Y-43253961D01*
X194663167Y-41954635D01*
X194218667Y-42192326D01*
X193243499Y-42750675D01*
X192342230Y-43343036D01*
X191515604Y-43968635D01*
X190764365Y-44626695D01*
X190089259Y-45316442D01*
X189491029Y-46037099D01*
X188970421Y-46787892D01*
X188528179Y-47568045D01*
X188165048Y-48376782D01*
X188089784Y-48574955D01*
X187873592Y-49249347D01*
X187703451Y-49959548D01*
X187582097Y-50685674D01*
X187512267Y-51407843D01*
X187496697Y-52106171D01*
X184372432Y-52106171D01*
X184373159Y-52078061D01*
X184389326Y-51596380D01*
X184407412Y-51186554D01*
X184427349Y-50853337D01*
X184442160Y-50670455D01*
X184576230Y-49683095D01*
X184791596Y-48702310D01*
X185084912Y-47736709D01*
X185452831Y-46794906D01*
X185892008Y-45885512D01*
X186399097Y-45017138D01*
X186942374Y-44235788D01*
X187095808Y-44036118D01*
X187252427Y-43838036D01*
X187395272Y-43662643D01*
X187507383Y-43531041D01*
X187520736Y-43516122D01*
X187731161Y-43283288D01*
X187355923Y-42890635D01*
X186763796Y-42212548D01*
X186245825Y-41495950D01*
X185803253Y-40743416D01*
X185437320Y-39957518D01*
X185149269Y-39140832D01*
X184940339Y-38295930D01*
X184839922Y-37674122D01*
X184803736Y-37282211D01*
X184785205Y-36836540D01*
X184783951Y-36421462D01*
X187894298Y-36421462D01*
X187898918Y-36810030D01*
X187918216Y-37175130D01*
X187952200Y-37491352D01*
X187967933Y-37587800D01*
X188132795Y-38255959D01*
X188379324Y-38906287D01*
X188705777Y-39535480D01*
X189110408Y-40140236D01*
X189591474Y-40717252D01*
X189657890Y-40788316D01*
X190030953Y-41182508D01*
X190437714Y-40887894D01*
X190608304Y-40767572D01*
X197596654Y-40767572D01*
X197601717Y-40795406D01*
X197616488Y-40820854D01*
X197643863Y-40865259D01*
X197713342Y-40978592D01*
X197822892Y-41157527D01*
X197970481Y-41398741D01*
X198154076Y-41698909D01*
X198371646Y-42054704D01*
X198621157Y-42462803D01*
X198900577Y-42919881D01*
X199207874Y-43422612D01*
X199541017Y-43967671D01*
X199897971Y-44551735D01*
X200276705Y-45171477D01*
X200675187Y-45823574D01*
X201091384Y-46504699D01*
X201523264Y-47211529D01*
X201968795Y-47940738D01*
X202425943Y-48689001D01*
X202492048Y-48797205D01*
X207308947Y-56681788D01*
X216815854Y-56681788D01*
X218239259Y-54352124D01*
X221924864Y-54352124D01*
X221954568Y-54426169D01*
X222021403Y-54538393D01*
X222097633Y-54655217D01*
X222436980Y-55094919D01*
X222842266Y-55494669D01*
X223301402Y-55847378D01*
X223802297Y-56145958D01*
X224332861Y-56383319D01*
X224881005Y-56552371D01*
X225434639Y-56646027D01*
X225503000Y-56652030D01*
X225716154Y-56667022D01*
X225883442Y-56672643D01*
X226040059Y-56668269D01*
X226221200Y-56653278D01*
X226377844Y-56636534D01*
X226990329Y-56526905D01*
X227576807Y-56339206D01*
X228129935Y-56076802D01*
X228642373Y-55743056D01*
X229018339Y-55426722D01*
X229438252Y-54977466D01*
X229786540Y-54490762D01*
X230063471Y-53973640D01*
X230269316Y-53433124D01*
X230404345Y-52876241D01*
X230468828Y-52310018D01*
X230463036Y-51741481D01*
X230387238Y-51177657D01*
X230241705Y-50625573D01*
X230026706Y-50092255D01*
X229742513Y-49584729D01*
X229389394Y-49110022D01*
X228967621Y-48675160D01*
X228751701Y-48491301D01*
X228361284Y-48217367D01*
X227920764Y-47975251D01*
X227452266Y-47774041D01*
X226977916Y-47622826D01*
X226519839Y-47530693D01*
X226374139Y-47514645D01*
X226074500Y-47489291D01*
X224042500Y-50819340D01*
X223745734Y-51305673D01*
X223460727Y-51772719D01*
X223190676Y-52215241D01*
X222938776Y-52628002D01*
X222708226Y-53005765D01*
X222502220Y-53343292D01*
X222323956Y-53635345D01*
X222176630Y-53876688D01*
X222063439Y-54062084D01*
X221987580Y-54186294D01*
X221952248Y-54244082D01*
X221950906Y-54246268D01*
X221925805Y-54298183D01*
X221924864Y-54352124D01*
X218239259Y-54352124D01*
X221633270Y-48797205D01*
X222091949Y-48046506D01*
X222539293Y-47314385D01*
X222973270Y-46604167D01*
X223391848Y-45919178D01*
X223792994Y-45262741D01*
X224174676Y-44638181D01*
X224534863Y-44048824D01*
X224871521Y-43497993D01*
X225182619Y-42989014D01*
X225466125Y-42525211D01*
X225720007Y-42109909D01*
X225942231Y-41746433D01*
X226130767Y-41438108D01*
X226283582Y-41188258D01*
X226398644Y-41000208D01*
X226473921Y-40877282D01*
X226507380Y-40822807D01*
X226508629Y-40820804D01*
X226526188Y-40788340D01*
X226526632Y-40760245D01*
X226500184Y-40731798D01*
X226437066Y-40698280D01*
X226327502Y-40654973D01*
X226161715Y-40597157D01*
X225929927Y-40520112D01*
X225791370Y-40474592D01*
X224271594Y-40012194D01*
X222688594Y-39601246D01*
X222318654Y-39520412D01*
X231498199Y-39520412D01*
X231498607Y-39521988D01*
X231578510Y-39561700D01*
X231717168Y-39639945D01*
X231902341Y-39749129D01*
X232121786Y-39881658D01*
X232363260Y-40029939D01*
X232614523Y-40186378D01*
X232863331Y-40343381D01*
X233097442Y-40493354D01*
X233304615Y-40628704D01*
X233472607Y-40741837D01*
X233531352Y-40782900D01*
X233712956Y-40909920D01*
X233872182Y-41017404D01*
X233995443Y-41096475D01*
X234069154Y-41138255D01*
X234081685Y-41142535D01*
X234128517Y-41114515D01*
X234218753Y-41036258D01*
X234338862Y-40920185D01*
X234458921Y-40796205D01*
X234934057Y-40246267D01*
X235329798Y-39687490D01*
X235651411Y-39109858D01*
X235904159Y-38503359D01*
X236093308Y-37857977D01*
X236155955Y-37568288D01*
X236195754Y-37288757D01*
X236220714Y-36950334D01*
X236230872Y-36577476D01*
X236226265Y-36194641D01*
X236206929Y-35826285D01*
X236172901Y-35496867D01*
X236152647Y-35366955D01*
X236119459Y-35187766D01*
X236089850Y-35042090D01*
X236067759Y-34948562D01*
X236059030Y-34924243D01*
X236026947Y-34950363D01*
X235939772Y-35031980D01*
X235802111Y-35164551D01*
X235618571Y-35343538D01*
X235393759Y-35564400D01*
X235132282Y-35822596D01*
X234838747Y-36113586D01*
X234517761Y-36432829D01*
X234173931Y-36775784D01*
X233811863Y-37137913D01*
X233745677Y-37204213D01*
X233381925Y-37569520D01*
X233037154Y-37917402D01*
X232715830Y-38243252D01*
X232422419Y-38542466D01*
X232161386Y-38810436D01*
X231937198Y-39042556D01*
X231754319Y-39234219D01*
X231617216Y-39380821D01*
X231530354Y-39477754D01*
X231498199Y-39520412D01*
X222318654Y-39520412D01*
X221046988Y-39242546D01*
X219351396Y-38936888D01*
X217606435Y-38685069D01*
X215816723Y-38487886D01*
X213986880Y-38346135D01*
X213193849Y-38302663D01*
X212762649Y-38284511D01*
X212373763Y-38274509D01*
X211998579Y-38272647D01*
X211608484Y-38278915D01*
X211174866Y-38293302D01*
X210970680Y-38301861D01*
X209336676Y-38398579D01*
X207713797Y-38543910D01*
X206110992Y-38736323D01*
X204537209Y-38974286D01*
X203001398Y-39256268D01*
X201512506Y-39580740D01*
X200079482Y-39946170D01*
X198711275Y-40351028D01*
X198396496Y-40452918D01*
X198117125Y-40545216D01*
X197908774Y-40615631D01*
X197761997Y-40668618D01*
X197667348Y-40708634D01*
X197615383Y-40740133D01*
X197596654Y-40767572D01*
X190608304Y-40767572D01*
X190641914Y-40743866D01*
X190885848Y-40577692D01*
X191136952Y-40411289D01*
X191335654Y-40283545D01*
X191565205Y-40141332D01*
X191816526Y-39989745D01*
X192057569Y-39847908D01*
X192238659Y-39744716D01*
X192403723Y-39651140D01*
X192537430Y-39572007D01*
X192624785Y-39516414D01*
X192651409Y-39494308D01*
X192622575Y-39459925D01*
X192539315Y-39371923D01*
X192407229Y-39235880D01*
X192231922Y-39057372D01*
X192018995Y-38841976D01*
X191774050Y-38595268D01*
X191502691Y-38322826D01*
X191210521Y-38030226D01*
X190903140Y-37723044D01*
X190586153Y-37406858D01*
X190265162Y-37087243D01*
X189945769Y-36769778D01*
X189633577Y-36460038D01*
X189334188Y-36163600D01*
X189053206Y-35886040D01*
X188796231Y-35632937D01*
X188568868Y-35409866D01*
X188376719Y-35222403D01*
X188225386Y-35076127D01*
X188120471Y-34976612D01*
X188067578Y-34929437D01*
X188062297Y-34926379D01*
X188046540Y-34974659D01*
X188021198Y-35087677D01*
X187990262Y-35246598D01*
X187968453Y-35369042D01*
X187929071Y-35675558D01*
X187904351Y-36034835D01*
X187894298Y-36421462D01*
X184783951Y-36421462D01*
X184783772Y-36362289D01*
X184798883Y-35884639D01*
X184829979Y-35428769D01*
X184876504Y-35019861D01*
X184902136Y-34858955D01*
X185090477Y-33973645D01*
X185335763Y-33132991D01*
X185645036Y-32313249D01*
X185685611Y-32217878D01*
X185861525Y-31827471D01*
X186024035Y-31509417D01*
X186180328Y-31253947D01*
X186337590Y-31051290D01*
X186503009Y-30891674D01*
X186683771Y-30765330D01*
X186800197Y-30702599D01*
X186919984Y-30647732D01*
X187026239Y-30612773D01*
X187144218Y-30593350D01*
X187299178Y-30585091D01*
X187487667Y-30583585D01*
X187695146Y-30585755D01*
X187842649Y-30594860D01*
X187954826Y-30615288D01*
X188056329Y-30651427D01*
X188165000Y-30704140D01*
X188211090Y-30732797D01*
X188275469Y-30781507D01*
X188361120Y-30853162D01*
X188471028Y-30950657D01*
X188608176Y-31076883D01*
X188775546Y-31234736D01*
X188976124Y-31427107D01*
X189212892Y-31656891D01*
X189488835Y-31926981D01*
X189806935Y-32240270D01*
X190170176Y-32599652D01*
X190581542Y-33008020D01*
X191044017Y-33468268D01*
X191560584Y-33983288D01*
X192044254Y-34466112D01*
X195690675Y-38107827D01*
X196298754Y-37885804D01*
X197770897Y-37384464D01*
X199309767Y-36930665D01*
X200911537Y-36525142D01*
X202572384Y-36168628D01*
X204288480Y-35861859D01*
X206056002Y-35605567D01*
X207871123Y-35400488D01*
X209730018Y-35247356D01*
X210199500Y-35217374D01*
X210627655Y-35197031D01*
X211117786Y-35182929D01*
X211647431Y-35175069D01*
X212194130Y-35173451D01*
X212735422Y-35178074D01*
X213248846Y-35188939D01*
X213711942Y-35206046D01*
X213924833Y-35217374D01*
X215813000Y-35359044D01*
X217655592Y-35553623D01*
X219449317Y-35800472D01*
X221190884Y-36098952D01*
X222876999Y-36448423D01*
X224504372Y-36848245D01*
X226069710Y-37297780D01*
X227569721Y-37796387D01*
X227992644Y-37950297D01*
X228429121Y-38112361D01*
X232077811Y-34468379D01*
X232642862Y-33904366D01*
X233151285Y-33397585D01*
X233606063Y-32945144D01*
X234010177Y-32544150D01*
X234366610Y-32191710D01*
X234678345Y-31884933D01*
X234948365Y-31620925D01*
X235179652Y-31396795D01*
X235375189Y-31209649D01*
X235537958Y-31056596D01*
X235670942Y-30934742D01*
X235777124Y-30841195D01*
X235859486Y-30773064D01*
X235921010Y-30727454D01*
X235959333Y-30704140D01*
X236073467Y-30649067D01*
X236174917Y-30613863D01*
X236288336Y-30594138D01*
X236438375Y-30585506D01*
X236636667Y-30583585D01*
X236846514Y-30585712D01*
G37*
G04 #@! TD.AperFunction*
M02*
