<?xml version="1.0" encoding="UTF-8" standalone="no"?>
<svg
   width="1000"
   height="1000"
   viewBox="0 0 264.58333 264.58333"
   version="1.1"
   id="svg2018"
   sodipodi:docname="hacrafu.svg"
   inkscape:version="1.3.2 (091e20ef0f, 2023-11-25, custom)"
   xmlns:inkscape="http://www.inkscape.org/namespaces/inkscape"
   xmlns:sodipodi="http://sodipodi.sourceforge.net/DTD/sodipodi-0.dtd"
   xmlns="http://www.w3.org/2000/svg"
   xmlns:svg="http://www.w3.org/2000/svg"
   xmlns:rdf="http://www.w3.org/1999/02/22-rdf-syntax-ns#"
   xmlns:cc="http://creativecommons.org/ns#"
   xmlns:dc="http://purl.org/dc/elements/1.1/">
  <sodipodi:namedview
     id="namedview1"
     pagecolor="#ffffff"
     bordercolor="#666666"
     borderopacity="1.0"
     inkscape:showpageshadow="2"
     inkscape:pageopacity="0.0"
     inkscape:pagecheckerboard="0"
     inkscape:deskcolor="#d1d1d1"
     inkscape:zoom="1.165"
     inkscape:cx="500"
     inkscape:cy="500"
     inkscape:window-width="2560"
     inkscape:window-height="1371"
     inkscape:window-x="0"
     inkscape:window-y="0"
     inkscape:window-maximized="1"
     inkscape:current-layer="svg2018" />
  <defs
     id="defs2012" />
  <metadata
     id="metadata2015">
    <rdf:RDF>
      <cc:Work
         rdf:about="">
        <dc:format>image/svg+xml</dc:format>
        <dc:type
           rdf:resource="http://purl.org/dc/dcmitype/StillImage" />
        <dc:title />
      </cc:Work>
    </rdf:RDF>
  </metadata>
  <g
     id="layer1"
     style="fill:#ffffff;fill-opacity:1">
    <path
       id="path15408"
       style="color:#000000;font-style:normal;font-variant:normal;font-weight:normal;font-stretch:normal;font-size:medium;line-height:normal;font-family:sans-serif;font-variant-ligatures:normal;font-variant-position:normal;font-variant-caps:normal;font-variant-numeric:normal;font-variant-alternates:normal;font-variant-east-asian:normal;font-feature-settings:normal;font-variation-settings:normal;text-indent:0;text-align:start;text-decoration:none;text-decoration-line:none;text-decoration-style:solid;text-decoration-color:#000000;letter-spacing:normal;word-spacing:normal;text-transform:none;writing-mode:lr-tb;direction:ltr;text-orientation:mixed;dominant-baseline:auto;baseline-shift:baseline;text-anchor:start;white-space:normal;shape-padding:0;shape-margin:0;inline-size:0;clip-rule:nonzero;display:inline;overflow:visible;visibility:visible;isolation:auto;mix-blend-mode:normal;color-interpolation:sRGB;color-interpolation-filters:linearRGB;solid-color:#000000;solid-opacity:1;vector-effect:none;fill:#ffffff;fill-opacity:1;fill-rule:nonzero;stroke:none;stroke-width:1;stroke-linecap:butt;stroke-linejoin:bevel;stroke-miterlimit:4;stroke-dasharray:none;stroke-dashoffset:0;stroke-opacity:1;paint-order:stroke fill markers;color-rendering:auto;image-rendering:auto;shape-rendering:auto;text-rendering:auto;enable-background:accumulate;stop-color:#000000"
       d="m 132.15266,13.229167 c -5.80975,0 -10.75257,3.888966 -12.37858,9.187552 H 25.942602 l -3.943945,3.966683 v 89.492208 c -5.083352,1.75264 -8.76949,6.58444 -8.76949,12.24008 0,7.12345 5.845216,12.96872 12.968717,12.96872 7.1235,0 12.945979,-5.84527 12.945979,-12.96872 0,-5.84255 -3.917942,-10.80697 -9.2568,-12.40441 V 30.327348 h 90.002257 c 1.73287,5.11233 6.58267,8.816515 12.26334,8.816515 7.12354,0 12.96871,-5.822529 12.96871,-12.945979 0,-7.123548 -5.84517,-12.968717 -12.96871,-12.968717 z m 72.22143,0 c -7.1235,0 -12.94547,5.845169 -12.94547,12.968717 0,7.12345 5.82197,12.945979 12.94547,12.945979 5.68062,0 10.54512,-3.704188 12.284,-8.816515 h 17.78341 v 67.952955 h 1.52084 c -5.97412,1.14217 -10.52236,6.418457 -10.52236,12.713957 0,7.12345 5.82202,12.96871 12.94547,12.96871 7.1235,0 12.96871,-5.84526 12.96871,-12.96871 0,-6.29558 -4.5666,-11.571875 -10.54509,-12.713957 h 1.54358 V 26.383402 l -3.94395,-3.966683 h -21.63486 c -1.63174,-5.298579 -6.59005,-9.187552 -12.39975,-9.187552 z m -72.22143,5.521626 c 4.13841,0 7.44708,3.30857 7.44708,7.447091 0,4.138275 -3.30867,7.424352 -7.44708,7.424352 -4.13828,0 -7.42436,-3.286077 -7.42436,-7.424352 0,-4.138521 3.28608,-7.447091 7.42436,-7.447091 z m 72.22143,0 c 4.13843,0 7.44709,3.30857 7.44709,7.447091 0,4.138275 -3.30866,7.424352 -7.44709,7.424352 -4.13842,0 -7.42384,-3.286077 -7.42384,-7.424352 0,-4.138521 3.28542,-7.447091 7.42384,-7.447091 z m 34.01136,84.819107 c 4.13847,0 7.44724,3.28589 7.44709,7.42436 1.5e-4,4.13842 -3.30862,7.44709 -7.44709,7.44709 -4.13828,0 -7.42436,-3.30867 -7.42436,-7.44709 0,-4.13847 3.28608,-7.42436 7.42436,-7.42436 z M 26.197884,120.69186 c 4.138423,0 7.424352,3.28541 7.424352,7.42383 0,4.13828 -3.285929,7.42384 -7.424352,7.42384 -4.138375,0 -7.447091,-3.28556 -7.447091,-7.42384 0,-4.13842 3.308716,-7.42383 7.447091,-7.42383 z m 212.187566,47.07257 c -7.12345,0 -12.94547,5.82202 -12.94547,12.94547 0,5.76927 3.81909,10.69935 9.05526,12.36565 h -0.0537 v 41.80675 h -44.36732 c -1.54931,-5.42807 -6.57076,-9.44232 -12.47314,-9.44232 -7.12345,0 -12.96871,5.84517 -12.96871,12.96872 0,7.12345 5.84526,12.94546 12.96871,12.94546 5.58597,0 10.38483,-3.58051 12.19667,-8.56071 h 48.61099 l 3.94395,-3.9672 v -45.7507 h -0.0749 c 5.24203,-1.66629 9.07645,-6.59637 9.07645,-12.36565 0,-7.12345 -5.84521,-12.94547 -12.96871,-12.94547 z m 0,5.52163 c 4.13847,0 7.44724,3.28542 7.44709,7.42384 1.5e-4,4.13847 -3.30862,7.4476 -7.44709,7.4476 -4.13828,0 -7.42436,-3.30913 -7.42436,-7.4476 0,-4.13842 3.28608,-7.42384 7.42436,-7.42384 z M 26.197884,187.25265 c -7.123501,0 -12.968717,5.82186 -12.968717,12.94546 0,5.91354 4.029575,10.94242 9.473323,12.48141 h -0.703833 v 26.14673 l 3.943945,3.9672 h 69.441755 c 1.805665,4.98022 6.590063,8.56071 12.176003,8.56071 7.1235,0 12.96872,-5.82201 12.96872,-12.94546 0,-7.12355 -5.84522,-12.96872 -12.96872,-12.96872 -5.90232,0 -10.907054,4.01429 -12.450921,9.44232 H 29.887063 v -22.20278 h -0.195336 c 5.438211,-1.53905 9.452136,-6.56795 9.452136,-12.48141 0,-7.1236 -5.822479,-12.94546 -12.945979,-12.94546 z m 0,5.52163 c 4.138423,0 7.424352,3.2854 7.424352,7.42383 0,4.13827 -3.285929,7.44709 -7.424352,7.44709 -4.138375,0 -7.447091,-3.30882 -7.447091,-7.44709 0,-4.13843 3.308716,-7.42398 7.447091,-7.42383 z m 81.362476,38.18733 c 4.13842,0 7.44709,3.30856 7.44709,7.44709 0,4.13827 -3.30867,7.42384 -7.44709,7.42384 -4.13847,0 -7.42384,-3.28557 -7.42384,-7.42384 0,-4.13853 3.28537,-7.44709 7.42384,-7.44709 z m 70.04068,0 c 4.13842,0 7.42436,3.30856 7.42436,7.44709 0,4.13827 -3.28594,7.42384 -7.42436,7.42384 -4.13838,0 -7.42383,-3.28557 -7.42383,-7.42384 0,-4.13853 3.28545,-7.44709 7.42383,-7.44709 z" />
    <path
       d="M 134.18258,42.579083 V 64.757828 H 115.85016 V 42.579083 h -12.2761 v 55.651735 h 12.2761 V 75.88828 h 18.33242 V 98.230818 H 147.2771 V 42.579083 Z"
       style="font-style:normal;font-variant:normal;font-weight:bold;font-stretch:normal;font-size:6.88988px;line-height:0.75;font-family:'Glacial Indifference';-inkscape-font-specification:'Glacial Indifference Bold';text-align:end;letter-spacing:0.259309px;word-spacing:0px;text-anchor:end;fill:#ffffff;fill-opacity:1;stroke:none;stroke-width:1;stroke-miterlimit:4;stroke-dasharray:none"
       id="path15383" />
    <path
       d="m 188.41321,80.225799 c 0,4.746821 -3.68288,9.00251 -8.59331,9.00251 -4.91044,0 -8.59331,-4.255689 -8.59331,-9.00251 0,-4.746722 3.68287,-9.002411 8.59331,-9.002411 4.91043,0 8.59331,4.255689 8.59331,9.002411 z m 12.27608,-18.00492 h -12.27608 v 4.337519 c -3.19184,-3.928316 -7.77491,-5.237805 -12.35807,-5.237805 -10.23002,0 -17.92308,8.920679 -17.92308,18.905206 0,9.984626 7.69306,18.823327 17.92308,18.823327 4.58316,0 9.9028,-1.473002 12.35807,-5.155925 v 4.337617 h 12.27608 z"
       style="font-style:normal;font-variant:normal;font-weight:bold;font-stretch:normal;font-size:6.88988px;line-height:0.75;font-family:'Glacial Indifference';-inkscape-font-specification:'Glacial Indifference Bold';text-align:end;letter-spacing:0.259309px;word-spacing:0px;text-anchor:end;fill:#ffffff;fill-opacity:1;stroke:none;stroke-width:1;stroke-miterlimit:4;stroke-dasharray:none"
       id="path15385" />
    <path
       d="m 102.21279,140.70612 c -2.291576,4.91053 -7.856729,8.26594 -13.585569,8.26594 -9.002517,0 -16.204511,-7.69302 -16.204511,-17.18652 0,-9.41171 7.201994,-17.18661 16.204511,-17.18661 5.646994,0 11.212148,3.11001 13.503729,8.10227 h 13.66742 c -3.76475,-11.37584 -14.48584,-19.55995 -27.171149,-19.55995 -15.795304,0 -28.644307,12.849 -28.644307,28.64429 0,15.7952 12.849003,28.64419 28.644307,28.64419 12.685309,0 23.488249,-8.26583 27.252989,-19.72361 z"
       style="font-style:normal;font-variant:normal;font-weight:bold;font-stretch:normal;font-size:6.88988px;line-height:0.75;font-family:'Glacial Indifference';-inkscape-font-specification:'Glacial Indifference Bold';text-align:end;letter-spacing:0.259309px;word-spacing:0px;text-anchor:end;fill:#ffffff;fill-opacity:1;stroke:none;stroke-width:1;stroke-miterlimit:4;stroke-dasharray:none"
       id="path15387" />
    <path
       d="m 146.29499,132.604 c 1.88238,0 3.6829,0.57252 4.91054,2.04591 h 0.1639 v -11.1303 c -0.98234,-0.4905 -2.61894,-0.81841 -3.6829,-0.81841 -4.5012,0 -7.6112,2.5371 -9.49346,5.23776 v -4.41935 h -12.27622 v 36.09182 h 12.27622 v -18.00507 c 0,-4.33752 3.5191,-9.00236 8.10215,-9.00236 z"
       style="font-style:normal;font-variant:normal;font-weight:bold;font-stretch:normal;font-size:6.88988px;line-height:0.75;font-family:'Glacial Indifference';-inkscape-font-specification:'Glacial Indifference Bold';text-align:end;letter-spacing:0.259309px;word-spacing:0px;text-anchor:end;fill:#ffffff;fill-opacity:1;stroke:none;stroke-width:1;stroke-miterlimit:4;stroke-dasharray:none"
       id="path15389" />
    <path
       d="m 188.41321,141.60636 c 0,4.74687 -3.68288,9.00256 -8.59331,9.00256 -4.91044,0 -8.59331,-4.25569 -8.59331,-9.00256 0,-4.74672 3.68287,-9.00236 8.59331,-9.00236 4.91043,0 8.59331,4.25564 8.59331,9.00236 z m 12.27608,-18.00492 h -12.27608 v 4.33752 c -3.19184,-3.92832 -7.77491,-5.23776 -12.35807,-5.23776 -10.23002,0 -17.92308,8.92068 -17.92308,18.90516 0,9.98467 7.69306,18.82337 17.92308,18.82337 4.58316,0 9.9028,-1.47305 12.35807,-5.15592 v 4.33762 h 12.27608 z"
       style="font-style:normal;font-variant:normal;font-weight:bold;font-stretch:normal;font-size:6.88988px;line-height:0.75;font-family:'Glacial Indifference';-inkscape-font-specification:'Glacial Indifference Bold';text-align:end;letter-spacing:0.259309px;word-spacing:0px;text-anchor:end;fill:#ffffff;fill-opacity:1;stroke:none;stroke-width:1;stroke-miterlimit:4;stroke-dasharray:none"
       id="path15391" />
    <path
       d="m 154.77665,198.64945 v -11.13031 h -19.15072 v -11.04857 h 19.96914 v -11.13031 h -32.24524 v 55.65177 h 12.2761 v -22.34258 z"
       style="font-style:normal;font-variant:normal;font-weight:bold;font-stretch:normal;font-size:6.88988px;line-height:0.75;font-family:'Glacial Indifference';-inkscape-font-specification:'Glacial Indifference Bold';text-align:end;letter-spacing:0.259309px;word-spacing:0px;text-anchor:end;fill:#ffffff;fill-opacity:1;stroke:none;stroke-width:1;stroke-miterlimit:4;stroke-dasharray:none"
       id="path15393" />
    <path
       d="m 166.85938,205.44223 c 0,9.73899 3.92832,16.36821 13.58558,16.36821 4.74672,0 8.59316,-2.12789 11.04842,-5.2379 v 4.41949 h 12.27614 v -36.09182 h -12.27614 v 18.08676 c 0,4.8287 -3.02803,9.00251 -6.87461,9.00251 -3.84644,0 -5.4833,-2.37339 -5.4833,-6.54725 v -20.54202 h -12.27609 z"
       style="font-style:normal;font-variant:normal;font-weight:bold;font-stretch:normal;font-size:6.88988px;line-height:0.75;font-family:'Glacial Indifference';-inkscape-font-specification:'Glacial Indifference Bold';text-align:end;letter-spacing:0.259309px;word-spacing:0px;text-anchor:end;fill:#ffffff;fill-opacity:1;stroke:none;stroke-width:1;stroke-miterlimit:4;stroke-dasharray:none"
       id="path15395" />
  </g>
</svg>
