<?xml version="1.0" encoding="UTF-8" standalone="no"?>
<svg
   version="1.1"
   width="81.620491mm"
   height="82.69249mm"
   viewBox="0 0 81.62049 82.692491"
   id="svg42"
   sodipodi:docname="schnee.svg"
   xml:space="preserve"
   inkscape:version="1.3 (0e150ed6c4, 2023-07-21)"
   xmlns:inkscape="http://www.inkscape.org/namespaces/inkscape"
   xmlns:sodipodi="http://sodipodi.sourceforge.net/DTD/sodipodi-0.dtd"
   xmlns="http://www.w3.org/2000/svg"
   xmlns:svg="http://www.w3.org/2000/svg"
   xmlns:rdf="http://www.w3.org/1999/02/22-rdf-syntax-ns#"
   xmlns:cc="http://creativecommons.org/ns#"
   xmlns:dc="http://purl.org/dc/elements/1.1/"><defs
     id="defs42" /><sodipodi:namedview
     id="namedview42"
     pagecolor="#ffffff"
     bordercolor="#666666"
     borderopacity="1.0"
     inkscape:showpageshadow="2"
     inkscape:pageopacity="0.0"
     inkscape:pagecheckerboard="0"
     inkscape:deskcolor="#d1d1d1"
     inkscape:document-units="mm"
     showgrid="false"
     showguides="true"
     inkscape:zoom="6.6708186"
     inkscape:cx="257.08989"
     inkscape:cy="256.41531"
     inkscape:window-width="1920"
     inkscape:window-height="1011"
     inkscape:window-x="0"
     inkscape:window-y="0"
     inkscape:window-maximized="1"
     inkscape:current-layer="g190"><sodipodi:guide
       position="176.87843,135.23945"
       orientation="0,-1"
       id="guide167"
       inkscape:locked="false" /></sodipodi:namedview><title
     id="title1">SVG Image created as baumsatz-Edge_Cuts.svg date 2023/10/08 19:42:38 </title><desc
     id="desc1">Image generated by PCBNEW </desc><g
     style="fill:#000000;fill-opacity:1;stroke:#000000;stroke-linecap:round;stroke-linejoin:round;stroke-opacity:1"
     id="g1"
     transform="translate(142.83079,-2.1259801)" /><g
     style="fill:#000000;fill-opacity:0;stroke:#000000;stroke-width:0;stroke-linecap:round;stroke-linejoin:round;stroke-opacity:1"
     id="g2"
     transform="translate(142.83079,-2.1259801)" /><g
     id="g190"
     transform="translate(8.4859855,-11.633518)"><path
       style="fill:#000000;fill-opacity:1;stroke:none;stroke-width:0.264583px;stroke-linecap:butt;stroke-linejoin:miter;stroke-opacity:1"
       d="m -2.4751563,80.391531 c 3.31800143,-0.208826 3.39670105,-2.409585 7.4207886,-1.423528 4.48283,1.098466 6.6686187,1.458682 10.1862267,-1.175169 5.056763,-3.786311 10.290226,-0.794655 12.801379,0.312967 3.366278,1.4848 6.028665,4.47904 9.661928,3.817382 4.398272,-0.800974 6.02036,-4.294284 10.564789,-4.016189 5.256204,0.321651 12.314369,-4.13479 16.383506,-3.089894 1.49915,0.38496 3.648664,4.002079 7.100378,7.293745 2.848431,2.716356 1.949589,12.734164 -4.381689,6.246175 -2.526575,-2.589112 -4.471444,-0.322958 -6.786314,1.059688 -2.445921,1.460922 -11.042541,1.542813 -14.982612,0.722849 -4.838913,-1.007021 -9.24335,1.921749 -13.715818,2.024266 -4.461823,0.102274 -2.752471,-3.419265 -9.061322,-4.106798 -3.660106,-0.398875 -12.227874,2.113722 -14.1011809,1.944503 -4.2940796,-0.387892 -4.6047935,-2.237923 -9.679962,-2.170196 -3.10099,0.04138 -8.5607734,3.70466 -7.2027873,-1.1499 0.5906294,-2.111396 3.1013927,-6.120517 5.7926899,-6.289901 z"
       id="path165"
       sodipodi:nodetypes="sssssssssssssssss" /><path
       style="fill:#000000;fill-opacity:1;stroke:none;stroke-width:0.264583px;stroke-linecap:butt;stroke-linejoin:miter;stroke-opacity:1"
       d="m 8.7431689,39.627089 c -1.6128857,1.619398 -0.7181278,5.349436 1.3626311,4.045249 1.790232,-1.122089 3.557547,-0.859214 5.105621,-1.035581 1.990598,-0.226783 3.342582,2.591159 8.183953,0.982714 1.33736,-0.44431 1.780303,0.253443 3.584468,0.878526 4.262596,1.476848 3.989932,0.297703 5.481425,0.304225 3.9315,0.01719 5.767057,0.135101 7.026699,-1.070485 1.99528,-1.909655 4.86541,-1.856461 7.185252,-0.748591 2.440689,1.165582 5.340728,1.383397 8.087449,0.86069 1.895763,-0.360768 7.486175,1.301046 1.395635,-4.670833 -1.950362,-1.912364 -3.578438,-3.991263 -6.174243,-4.321118 -2.069685,-0.263 -2.333962,1.080131 -4.418513,0.881881 -2.870005,-0.27295 -4.938703,1.987717 -7.209805,0.916052 -2.709164,-1.278373 -3.327446,2.137296 -5.515044,1.638037 -1.475084,-0.336648 -3.036863,-1.271185 -4.662869,-1.398559 -1.593467,-0.124825 -4.297301,0.212326 -5.738151,-0.374131 -2.434359,-0.990837 -0.795666,-2.69188 -3.250522,-3.609549 -2.469653,-0.9232 -3.824156,-0.863863 -5.114489,1.038549 -2.068743,1.639979 -3.527611,3.780998 -5.3294971,5.682924 z"
       id="path166"
       sodipodi:nodetypes="sssssssssssssssssss" /><path
       style="fill:#000000;fill-opacity:1;stroke:none;stroke-width:0.264583px;stroke-linecap:butt;stroke-linejoin:miter;stroke-opacity:1"
       d="m 25.592102,19.003474 c -2.923434,5.273339 4.585523,1.468348 5.986778,2.07158 1.254629,0.540111 1.488673,3.572306 3.380237,1.721286 1.824605,-1.785497 2.307739,-0.695342 3.735397,-1.142691 3.398926,-1.065036 0.18375,-4.69913 -1.060831,-6.083849 -1.63159,-1.815305 -3.191313,-4.55134 -5.186278,-4.554276 -1.022377,-0.0015 -5.415505,5.390817 -6.855303,7.98795 z"
       id="path167"
       sodipodi:nodetypes="sssssss" /></g><metadata
     id="metadata190"><rdf:RDF><cc:Work
         rdf:about=""><dc:title>SVG Image created as baumsatz-Edge_Cuts.svg date 2023/10/08 19:42:38 </dc:title></cc:Work></rdf:RDF></metadata></svg>
