<?xml version="1.0" encoding="UTF-8" standalone="no"?>
<!-- Created with Inkscape (http://www.inkscape.org/) -->

<svg
   width="136.53334"
   height="47.786667"
   id="svg2759"
   sodipodi:version="0.32"
   inkscape:version="1.2.2 (b0a8486541, 2022-12-01)"
   version="1.0"
   sodipodi:docname="by-nc-sa.eu.svg"
   inkscape:output_extension="org.inkscape.output.svg.inkscape"
   viewBox="0 0 128 44.799999"
   xmlns:inkscape="http://www.inkscape.org/namespaces/inkscape"
   xmlns:sodipodi="http://sodipodi.sourceforge.net/DTD/sodipodi-0.dtd"
   xmlns="http://www.w3.org/2000/svg"
   xmlns:svg="http://www.w3.org/2000/svg"
   xmlns:rdf="http://www.w3.org/1999/02/22-rdf-syntax-ns#"
   xmlns:cc="http://creativecommons.org/ns#"
   xmlns:dc="http://purl.org/dc/elements/1.1/">
  <defs
     id="defs2761" />
  <sodipodi:namedview
     id="base"
     pagecolor="#ffffff"
     bordercolor="#8b8b8b"
     borderopacity="1"
     gridtolerance="10000"
     guidetolerance="10"
     objecttolerance="10"
     inkscape:pageopacity="0.0"
     inkscape:pageshadow="2"
     inkscape:zoom="9.32373"
     inkscape:cx="68.26667"
     inkscape:cy="23.917467"
     inkscape:document-units="px"
     inkscape:current-layer="layer1"
     width="120px"
     height="42px"
     inkscape:showpageshadow="false"
     inkscape:window-width="1920"
     inkscape:window-height="1011"
     inkscape:window-x="0"
     inkscape:window-y="0"
     inkscape:pagecheckerboard="0"
     inkscape:deskcolor="#d1d1d1"
     showgrid="false"
     inkscape:window-maximized="1" />
  <metadata
     id="metadata2764">
    <rdf:RDF>
      <cc:Work
         rdf:about="">
        <dc:format>image/svg+xml</dc:format>
        <dc:type
           rdf:resource="http://purl.org/dc/dcmitype/StillImage" />
      </cc:Work>
    </rdf:RDF>
  </metadata>
  <g
     inkscape:label="Layer 1"
     inkscape:groupmode="layer"
     id="layer1">
    <g
       id="g2630">
      <path
         id="path3817_5_"
         nodetypes="ccccccc"
         d="M 3.4083297,0.45268464 116.76243,0.65404185 c 1.58383,0 2.99881,-0.23483394 2.99881,3.16052515 l -0.13878,37.329077 H 0.54733418 V 3.675801 c 0,-1.6743929 0.16206577,-3.22311636 2.86099552,-3.22311636 z"
         style="fill:none" />
      <path
         id="path120"
         d="M 2.2485351 0 C 1.0092281 0 -2.7755547e-16 1.0080231 0 2.246704 L 0 41.493529 C 0 41.77348 0.22673899 42.000731 0.50720213 42.000731 L 119.49279 42.000731 C 119.77327 42.000731 120 41.77347 120 41.493529 L 120 2.246704 C 120 1.0080231 118.99163 1.6653328e-15 117.75329 0 L 2.2485351 0 z M 2.2485351 1.0144043 L 117.75329 1.0144043 C 118.43262 1.0144043 118.98559 1.5674357 118.98559 2.246704 L 118.98559 29.467162 L 36.428832 29.467162 C 33.402867 34.938132 27.571855 38.653563 20.881347 38.653563 C 14.188892 38.653563 8.3597202 34.94153 5.3356931 29.467162 L 1.0144043 29.467162 L 1.0144043 2.246704 C 1.0143944 1.5674357 1.5691901 1.0144043 2.2485351 1.0144043 z M 80.916135 32.583617 C 81.281039 32.583617 81.62471 32.637113 81.948849 32.742919 C 82.273964 32.847721 82.566058 33.000681 82.822262 33.202513 C 83.079443 33.403383 83.290713 33.652646 83.457638 33.949584 C 83.624564 34.24652 83.728913 34.588014 83.77258 34.971312 L 82.362668 34.971312 C 82.337426 34.804406 82.282361 34.650483 82.196042 34.511717 C 82.109682 34.37199 82.00016 34.250309 81.870114 34.145506 C 81.740068 34.040706 81.594674 33.958364 81.430661 33.900145 C 81.266647 33.840923 81.094705 33.810423 80.916135 33.810423 C 80.588108 33.810423 80.308377 33.873753 80.079343 34.000853 C 79.850306 34.126999 79.666226 34.296399 79.524533 34.509886 C 79.381876 34.723366 79.276446 34.966937 79.211423 35.238646 C 79.146429 35.510355 79.114377 35.79079 79.114377 36.080931 C 79.114377 36.359427 79.14633 36.63008 79.211423 36.892088 C 79.276416 37.155063 79.381866 37.392933 79.524533 37.602538 C 79.666226 37.813104 79.850306 37.980789 80.079343 38.107909 C 80.308377 38.235029 80.588108 38.298338 80.916135 38.298338 C 81.36062 38.298338 81.707622 38.162686 81.958005 37.890013 C 82.208385 37.618304 82.362286 37.258755 82.417599 36.813353 L 83.827511 36.813353 C 83.790642 37.227703 83.69434 37.601986 83.540036 37.93579 C 83.385732 38.270564 83.181756 38.555094 82.928464 38.790892 C 82.675169 39.02669 82.377378 39.206845 82.03674 39.331053 C 81.697066 39.455262 81.323741 39.51599 80.916135 39.51599 C 80.408571 39.51599 79.952165 39.428893 79.546506 39.252318 C 79.141809 39.076677 78.799652 38.832132 78.521115 38.523558 C 78.242588 38.21401 78.026905 37.85135 77.878415 37.434081 C 77.729934 37.015845 77.655026 36.566013 77.655026 36.082762 C 77.655026 35.587868 77.729934 35.128036 77.878415 34.703978 C 78.026896 34.279922 78.242578 33.911561 78.521115 33.59619 C 78.799652 33.28082 79.141809 33.032298 79.546506 32.852782 C 79.952165 32.673266 80.408571 32.583617 80.916135 32.583617 z M 99.605709 32.583617 C 99.95217 32.583617 100.28532 32.623209 100.60363 32.700804 C 100.92099 32.777516 101.20307 32.903441 101.44958 33.076171 C 101.69705 33.249863 101.89361 33.472047 102.03918 33.740843 C 102.18379 34.010605 102.25708 34.335329 102.25708 34.718627 L 100.8435 34.718627 C 100.83088 34.520668 100.78985 34.356962 100.71899 34.227904 C 100.64813 34.097872 100.55443 33.996832 100.43701 33.922118 C 100.32055 33.848388 100.18644 33.794725 100.03601 33.764647 C 99.885575 33.733645 99.720194 33.71704 99.541622 33.71704 C 99.425161 33.71704 99.308352 33.731246 99.191891 33.755492 C 99.074466 33.780731 98.968392 33.823432 98.873287 33.885497 C 98.777189 33.947601 98.699192 34.023053 98.637081 34.11621 C 98.575964 34.209316 98.545528 34.327926 98.545528 34.469603 C 98.545528 34.599635 98.56928 34.704972 98.618771 34.784545 C 98.66826 34.86513 98.76616 34.940006 98.911739 35.007933 C 99.057318 35.0759 99.256119 35.143253 99.512325 35.21118 C 99.768532 35.279147 100.10414 35.366388 100.51757 35.47119 C 100.64082 35.495436 100.81375 35.541662 101.0321 35.606688 C 101.25143 35.671674 101.47034 35.773495 101.68579 35.916136 C 101.9022 36.058777 102.0879 36.249681 102.24609 36.487425 C 102.40331 36.72517 102.4823 37.02947 102.4823 37.401122 C 102.4823 37.703881 102.42208 37.985175 102.30468 38.245238 C 102.18726 38.5053 102.01294 38.728974 101.781 38.917235 C 101.54905 39.106459 101.26211 39.253717 100.91858 39.358519 C 100.57599 39.464295 100.17881 39.51599 99.726559 39.51599 C 99.361653 39.51599 99.008097 39.471594 98.664547 39.382323 C 98.320997 39.292098 98.018374 39.151485 97.756344 38.959349 C 97.49334 38.767213 97.285401 38.522034 97.130123 38.225096 C 96.975819 37.928158 96.899937 37.575273 96.906734 37.166747 L 98.320309 37.166747 C 98.320279 37.38897 98.360593 37.578257 98.441158 37.732542 C 98.521754 37.886829 98.626804 38.011841 98.759762 38.107909 C 98.89272 38.203996 99.048975 38.275569 99.228512 38.322142 C 99.407084 38.368745 99.591164 38.391722 99.783321 38.391722 C 99.912393 38.391722 100.05048 38.381121 100.19897 38.358763 C 100.34649 38.337399 100.48457 38.294505 100.61462 38.23242 C 100.74369 38.17131 100.85137 38.086591 100.93872 37.977904 C 101.02408 37.87019 101.06872 37.732823 101.06872 37.565916 C 101.06872 37.386401 101.01114 37.241724 100.8966 37.130125 C 100.78305 37.018538 100.63239 36.926519 100.44799 36.851805 C 100.26263 36.778075 100.052 36.712164 99.818111 36.655882 C 99.583252 36.600535 99.346505 36.538873 99.105831 36.470946 C 98.85836 36.408842 98.617424 36.333176 98.382564 36.243895 C 98.148679 36.154664 97.938042 36.038646 97.752682 35.895995 C 97.568286 35.754317 97.417623 35.576638 97.304073 35.363158 C 97.18956 35.149678 97.131954 34.891382 97.131954 34.588622 C 97.131954 34.248022 97.205205 33.952746 97.34985 33.702391 C 97.495419 33.452037 97.685422 33.24405 97.919308 33.076171 C 98.154167 32.909264 98.420687 32.785013 98.717647 32.704466 C 99.013645 32.623881 99.309712 32.583617 99.605709 32.583617 z M 45.278319 32.746581 L 48.400267 32.746581 C 48.715667 32.746581 49.004437 32.775462 49.264524 32.830809 C 49.524616 32.886157 49.748362 32.976521 49.93469 33.103636 C 50.12005 33.229783 50.263943 33.399418 50.366819 33.609007 C 50.468721 33.819576 50.520628 34.079489 50.520628 34.389037 C 50.520628 34.722845 50.444083 34.999943 50.291746 35.222167 C 50.140354 35.445349 49.914879 35.627011 49.617918 35.769652 C 50.027465 35.887064 50.333425 36.092706 50.535276 36.386717 C 50.737133 36.680734 50.8374 37.034369 50.8374 37.448729 C 50.8374 37.782542 50.773379 38.072107 50.643309 38.316649 C 50.513263 38.560217 50.338097 38.759286 50.117796 38.913573 C 49.898469 39.068833 49.646681 39.184061 49.365232 39.257811 C 49.082825 39.332535 48.793417 39.369505 48.495481 39.369505 L 45.278319 39.369505 L 45.278319 32.746581 z M 51.095579 32.746581 L 52.727049 32.746581 L 54.277952 35.363158 L 55.8197 32.746581 L 57.443845 32.746581 L 54.984739 36.828001 L 54.984739 39.369505 L 53.525389 39.369505 L 53.525389 36.79138 L 51.095579 32.746581 z M 71.068723 32.746581 L 72.517087 32.746581 L 75.283811 37.19055 L 75.30029 37.19055 L 75.30029 32.746581 L 76.666257 32.746581 L 76.666257 39.369505 L 75.210568 39.369505 L 72.453 34.936522 L 72.43469 34.936522 L 72.43469 39.369505 L 71.068723 39.369505 L 71.068723 32.746581 z M 105.15197 32.746581 L 106.64611 32.746581 L 109.12353 39.369505 L 107.61108 39.369505 L 107.10937 37.893675 L 104.63378 37.893675 L 104.11377 39.369505 L 102.64709 39.369505 L 105.15197 32.746581 z M 46.7395 33.880004 L 46.7395 35.425414 L 48.21533 35.425414 C 48.475422 35.425414 48.689274 35.363712 48.856199 35.240477 C 49.024098 35.117242 49.107054 34.917413 49.107054 34.639891 C 49.107054 34.485604 49.078179 34.358878 49.022825 34.260863 C 48.966577 34.161894 48.892598 34.0846 48.799437 34.028319 C 48.706319 33.972972 48.599349 33.934336 48.479002 33.912963 C 48.357691 33.891599 48.233682 33.880004 48.103636 33.880004 L 46.7395 33.880004 z M 105.87524 34.379881 L 105.01464 36.80786 L 106.73034 36.80786 L 105.89538 34.379881 L 105.87524 34.379881 z M 46.7395 36.419676 L 46.7395 38.236082 L 48.299559 38.236082 C 48.442216 38.236082 48.577838 38.222089 48.707884 38.193968 C 48.83793 38.165847 48.953989 38.11885 49.053953 38.054808 C 49.152934 37.989822 49.23096 37.902725 49.290159 37.791136 C 49.348395 37.680511 49.37805 37.53723 49.37805 37.3645 C 49.37805 37.02487 49.282712 36.783124 49.090574 36.637572 C 48.898417 36.492983 48.644256 36.419676 48.328856 36.419676 L 46.7395 36.419676 z " />
      <g
         id="g5908_5_"
         transform="matrix(0.8674921,0,0,0.8673951,-387.30972,67.870882)">
        <path
           id="path5906_5_"
           cx="296.35416"
           ry="22.939548"
           cy="264.3577"
           type="arc"
           rx="22.939548"
           d="m 486.26599,-55.7066 c 0.006,8.68079 -7.02789,15.7215 -15.70813,15.72708 -8.68018,0.0056 -15.7215,-7.02786 -15.72705,-15.7081 0,-0.0067 0,-0.01227 0,-0.01898 -0.006,-8.68079 7.02783,-15.7215 15.70807,-15.72711 8.68134,-0.005 15.7226,7.02783 15.72711,15.70807 0,0.0062 0,0.01287 0,0.01904 z"
           style="fill:none" />
        <g
           id="g5706_5_"
           transform="translate(-289.6157,99.0653)">
          <path
             id="path5708_5_"
             d="m 772.94165,-167.5741 c 3.48486,3.48541 5.22778,7.75336 5.22778,12.80219 0,5.04938 -1.71277,9.27203 -5.13831,12.66794 -3.63586,3.57602 -7.93176,5.36374 -12.89001,5.36374 -4.89783,0 -9.11987,-1.77264 -12.66394,-5.31955 -3.54639,-3.54526 -5.31848,-7.78244 -5.31848,-12.71213 0,-4.92859 1.77209,-9.19598 5.31848,-12.80219 3.45459,-3.48651 7.67664,-5.22949 12.66394,-5.22949 5.04883,0 9.31458,1.74298 12.80054,5.22949 z m -23.11853,2.34485 c -2.94678,2.97638 -4.42017,6.46289 -4.42017,10.46179 0,3.9989 1.45886,7.45581 4.37427,10.37122 2.9176,2.9165 6.38904,4.37476 10.4176,4.37476 4.02856,0 7.53015,-1.47281 10.50708,-4.41895 2.82593,-2.73645 4.23889,-6.17767 4.23889,-10.32703 0,-4.11749 -1.4364,-7.61292 -4.30823,-10.48419 -2.87061,-2.87061 -6.34985,-4.30652 -10.43774,-4.30652 -4.08789,0 -7.54699,1.44318 -10.3717,4.32892 z m 7.75391,8.70319 c -0.44971,-0.98169 -1.12317,-1.47284 -2.02271,-1.47284 -1.58862,0 -2.38293,1.07007 -2.38293,3.20911 0,2.13953 0.79431,3.2085 2.38293,3.2085 1.04944,0 1.79895,-0.52075 2.24866,-1.56458 l 2.20276,1.17303 c -1.05042,1.86548 -2.62561,2.79901 -4.72546,2.79901 -1.62,0 -2.91772,-0.4967 -3.89209,-1.48956 -0.97546,-0.99341 -1.46326,-2.36334 -1.46326,-4.10852 0,-1.71503 0.50342,-3.07654 1.50806,-4.08502 1.00452,-1.00854 2.25757,-1.51257 3.75781,-1.51257 2.22058,0 3.8092,0.87488 4.77136,2.62286 z m 10.36389,0 c -0.45081,-0.98169 -1.11206,-1.47284 -1.98242,-1.47284 -1.62097,0 -2.43213,1.07007 -2.43213,3.20911 0,2.13953 0.81116,3.2085 2.43213,3.2085 1.05164,0 1.78772,-0.52075 2.20728,-1.56458 l 2.25195,1.17303 c -1.04822,1.86548 -2.62109,2.79901 -4.71765,2.79901 -1.61768,0 -2.91199,-0.4967 -3.88647,-1.48956 -0.97217,-0.99341 -1.45996,-2.36334 -1.45996,-4.10852 0,-1.71503 0.49451,-3.07654 1.48352,-4.08502 0.98779,-1.00854 2.24524,-1.51257 3.77344,-1.51257 2.21619,0 3.80371,0.87488 4.76135,2.62286 z" />
        </g>
      </g>
      <g
         transform="matrix(0.9937808,0,0,0.9936696,-437.12334,-74.436914)"
         id="g126">
        <circle
           cx="491.94629"
           cy="90.231934"
           r="10.80615"
           id="circle128"
           style="fill:none" />
        <g
           id="g130">
          <path
             d="m 495.07373,87.10498 c 0,-0.4165 -0.33789,-0.75391 -0.75391,-0.75391 h -4.77246 c -0.41602,0 -0.75391,0.3374 -0.75391,0.75391 v 4.77295 h 1.33105 v 5.65186 h 3.61719 v -5.65186 h 1.33203 v -4.77295 z"
             id="path132" />
          <circle
             cx="491.93359"
             cy="84.090332"
             r="1.63232"
             id="circle134" />
        </g>
        <path
           clip-rule="evenodd"
           d="m 491.91846,78.3252 c -3.23145,0 -5.96777,1.12793 -8.20703,3.38379 -2.29785,2.3335 -3.44629,5.0957 -3.44629,8.28467 0,3.18897 1.14844,5.93164 3.44629,8.22705 2.29785,2.29395 5.03418,3.44189 8.20703,3.44189 3.21289,0 5.99805,-1.15674 8.35449,-3.47168 2.21973,-2.19727 3.3291,-4.92969 3.3291,-8.19727 0,-3.26758 -1.12891,-6.02881 -3.3877,-8.28467 -2.25879,-2.25586 -5.02343,-3.38378 -8.29589,-3.38378 z m 0.0303,2.0996 c 2.64844,0 4.89648,0.93408 6.74609,2.80127 1.87012,1.84717 2.80469,4.10352 2.80469,6.76758 0,2.68359 -0.91504,4.91064 -2.74609,6.68066 -1.92773,1.90576 -4.19629,2.8584 -6.80469,2.8584 -2.61035,0 -4.85938,-0.94287 -6.74805,-2.82959 -1.88867,-1.88623 -2.83301,-4.12256 -2.83301,-6.70947 0,-2.58691 0.9541,-4.84229 2.8623,-6.76758 1.83107,-1.86718 4.07032,-2.80127 6.71876,-2.80127 z"
           id="path136"
           style="fill-rule:evenodd" />
      </g>
      <g
         transform="matrix(0.9937808,0,0,0.9936696,-437.12334,-74.436914)"
         enable-background="new    "
         id="g138" />
      <g
         transform="matrix(0.9937808,0,0,0.9936696,-437.12334,-74.436914)"
         enable-background="new    "
         id="g144" />
      <g
         transform="matrix(0.9937808,0,0,0.9936696,-437.12334,-74.436914)"
         enable-background="new    "
         id="g150" />
      <g
         id="g6332_1_"
         transform="matrix(0.621108,0,0,0.6210385,-285.77182,240.48957)">
        <path
           id="path6334_1_"
           cx="475.97119"
           ry="29.209877"
           cy="252.08646"
           type="arc"
           rx="29.209877"
           d="m 644.57642,-363.11569 c 0.008,9.4118 -7.61731,17.04779 -17.02979,17.05481 -9.4126,0.005 -17.047,-7.61725 -17.05493,-17.03137 0,-0.007 0,-0.0164 0,-0.0234 -0.006,-9.4118 7.6189,-17.04779 17.02991,-17.05481 9.4126,-0.007 17.047,7.61804 17.05481,17.02905 0,0.009 0,0.0164 0,0.0258 z"
           style="fill:none" />
        <g
           id="g6336_1_"
           transform="translate(-23.9521,-89.72962)">
          <path
             id="path6338_1_"
             d="m 651.36426,-292.05655 c -5.17188,0 -9.55005,1.80548 -13.13135,5.41333 -3.67651,3.73444 -5.51562,8.15399 -5.51562,13.25714 0,5.10315 1.83911,9.48993 5.51562,13.1626 3.67505,3.67194 8.05322,5.50787 13.13135,5.50787 5.14075,0 9.59546,-1.85236 13.36572,-5.55396 3.55164,-3.51721 5.32825,-7.88916 5.32825,-13.11652 0,-5.22742 -1.80627,-9.64697 -5.422,-13.25714 -3.61401,-3.60784 -8.03748,-5.41332 -13.27197,-5.41332 z m 0.0469,3.36096 c 4.23755,0 7.83447,1.49298 10.79541,4.48132 2.99072,2.95544 4.48596,6.56329 4.48596,10.82819 0,4.29376 -1.46399,7.85632 -4.3938,10.68994 -3.08276,3.04846 -6.71411,4.57269 -10.88757,4.57269 -4.17505,0 -7.77344,-1.5094 -10.79541,-4.5274 -3.02185,-3.01874 -4.53284,-6.59613 -4.53284,-10.73523 0,-4.1391 1.52502,-7.74847 4.57971,-10.82819 2.92823,-2.98834 6.51099,-4.48132 10.74854,-4.48132 z" />
          <path
             id="path6340_1_"
             d="m 643.08923,-276.02048 c 0.74377,-4.69849 4.05005,-7.20941 8.19543,-7.20941 5.95935,0 9.59216,4.32501 9.59216,10.09222 0,5.62817 -3.8656,9.99854 -9.68604,9.99854 -4.00464,0 -7.59058,-2.46332 -8.24219,-7.30084 h 4.70312 c 0.14062,2.51099 1.77039,3.39532 4.09851,3.39532 2.6532,0 4.37659,-2.46484 4.37659,-6.23206 0,-3.95471 -1.48901,-6.04614 -4.28442,-6.04614 -2.04846,0 -3.81726,0.74451 -4.19067,3.30237 l 1.36719,-0.009 -3.70154,3.70319 -3.70166,-3.70319 z" />
        </g>
      </g>
      <g
         transform="translate(4.972327e-4,0.00962355)"
         id="g2366">
        <path
           id="path6372_1_"
           cx="475.97119"
           ry="29.209877"
           cy="252.08646"
           type="arc"
           rx="29.209877"
           d="m 87.801399,14.981221 c 0.0048,5.500587 -4.451603,9.961917 -9.953251,9.966304 -5.500714,0.0034 -9.962985,-4.45211 -9.966848,-9.951763 0,-0.0058 0,-0.01019 0,-0.01454 -0.0039,-5.5010765 4.452572,-9.9624055 9.953251,-9.9667814 5.50068,-0.00341 9.96295,4.4521099 9.966848,9.9517284 0,0.0049 0,0.01019 0,0.01505 z"
           style="fill:none" />
        <path
           id="path45"
           d="m 86.070369,6.7455646 c -2.24512,-2.242292 -4.99278,-3.362732 -8.24368,-3.362732 -3.21268,0 -5.93132,1.12044 -8.15662,3.362732 -2.28405,2.319442 -3.42502,5.0635624 -3.42502,8.2337704 0,3.169502 1.14097,5.89522 3.42502,8.175023 2.28334,2.28122 5.00198,3.421479 8.15662,3.421479 3.19286,0 5.96033,-1.150166 8.30171,-3.449789 2.2062,-2.184252 3.30965,-4.900058 3.30965,-8.146713 0,-3.247361 -1.12256,-5.9921884 -3.36768,-8.2337704 z m -1.45169,14.8728804 c -1.916,1.894056 -4.17032,2.840378 -6.76297,2.840378 -2.59336,0 -4.82858,-0.93712 -6.70565,-2.812068 -1.87707,-1.874948 -2.8156,-4.097421 -2.8156,-6.667423 0,-1.087172 0.17164,-2.114891 0.51103,-3.083862 l 3.07288,1.360027 h -0.22154 v 1.378074 h 1.08753 c 0,0.194644 -0.01946,0.388581 -0.01946,0.582514 v 0.33054 h -1.06807 v 1.378074 h 1.262 c 0.17482,1.029132 0.56305,1.863623 1.08717,2.523993 1.08717,1.436821 2.83436,2.213272 4.73692,2.213272 1.24288,0 2.36828,-0.368761 3.02865,-0.738229 l -0.46644,-2.154525 c -0.40769,0.213752 -1.31933,0.504658 -2.21257,0.504658 -0.97109,0 -1.88308,-0.290902 -2.50452,-0.990204 -0.29126,-0.329833 -0.50466,-0.776451 -0.6402,-1.358965 h 4.22057 l 5.99714,2.654584 c -0.41547,0.736114 -0.94277,1.416303 -1.58687,2.039162 z m -7.54225,-6.071813 -0.02548,-0.01946 0.04388,0.01946 z m 3.61045,-0.913054 h 0.17342 v -1.378074 h -3.287 l -1.33525,-0.591008 c 0.11501,-0.258345 0.25091,-0.489441 0.40945,-0.670281 0.60198,-0.738937 1.45594,-1.048951 2.3881,-1.048951 0.85431,0 1.64987,0.251974 2.15453,0.46573 l 0.54358,-2.2132724 c -0.6993,-0.310015 -1.72773,-0.581808 -2.91187,-0.581808 -1.82469,0 -3.37794,0.737523 -4.48458,1.9797014 -0.2456,0.283824 -0.45865,0.602333 -0.65188,0.939244 l -3.8136,-1.6877374 c 0.36947,-0.554204 0.80406,-1.086465 1.3073,-1.593953 1.81974,-1.855836 4.04434,-2.783755 6.67662,-2.783755 2.63158,0 4.8668,0.927919 6.70565,2.783755 1.85725,1.8360194 2.78588,4.0776014 2.78588,6.7261704 0,0.872709 -0.0991,1.695876 -0.29445,2.471617 z" />
      </g>
    </g>
  </g>
</svg>
