<?xml version="1.0" encoding="UTF-8" standalone="no"?>
<!-- Created with Inkscape (http://www.inkscape.org/) -->

<svg
   version="1.1"
   id="svg228"
   width="500"
   height="500"
   viewBox="0 0 500 500"
   sodipodi:docname="weblink.svg"
   inkscape:version="1.2.1 (9c6d41e410, 2022-07-14, custom)"
   xmlns:inkscape="http://www.inkscape.org/namespaces/inkscape"
   xmlns:sodipodi="http://sodipodi.sourceforge.net/DTD/sodipodi-0.dtd"
   xmlns="http://www.w3.org/2000/svg"
   xmlns:svg="http://www.w3.org/2000/svg">
  <defs
     id="defs232" />
  <sodipodi:namedview
     id="namedview230"
     pagecolor="#ffffff"
     bordercolor="#666666"
     borderopacity="1.0"
     inkscape:showpageshadow="2"
     inkscape:pageopacity="0.0"
     inkscape:pagecheckerboard="0"
     inkscape:deskcolor="#d1d1d1"
     showgrid="false"
     inkscape:zoom="2.324"
     inkscape:cx="240.74871"
     inkscape:cy="291.30809"
     inkscape:window-width="2560"
     inkscape:window-height="1371"
     inkscape:window-x="0"
     inkscape:window-y="0"
     inkscape:window-maximized="1"
     inkscape:current-layer="g234" />
  <g
     inkscape:groupmode="layer"
     inkscape:label="Image"
     id="g234"
     transform="translate(-9.1672533,6.9384667)">
    <path
       style="fill:#000000"
       d="m 9.1672533,423.06153 v -70 H 79.167253 149.16725 v 70 70 H 79.167253 9.1672533 Z m 119.9999967,0 v -50 h -49.999997 -50 v 50 50 h 50 49.999997 z m -79.999997,0 v -30 h 30 29.999997 v 30 30 h -29.999997 -30 z m 119.999997,50 v -20 h 10 10 v -10 -10 h -10 -10 v -20 -20 h 10 10 v -20 -20 h -10 -10 v -10 -10 h -20 -20 v -10 -10 h -10 -10 v 10 10 h -9.999997 -10 v -10 -10 h 10 9.999997 v -10 -10 h 10 10 v -10 -10 h 30 30 v 20 20 h 10 10 v -10 -10 h 10 10 v 10 10 h 10 10 v 10 10 h -10 -10 v 10 10 h 10 10 v 10 10 h 10 10 v -10 -10 h 10 10 v 20 20 h -10 -10 v 10 10 h 20 20 v -20 -20 h 10 10 v -20 -20 h -10 -10 v -10 -10 h -10 -10 v 10 10 h -10 -10 v -10 -10 h 10 10 v -10 -10 h -20 -20 v -10 -10 h -20 -20 v -10 -10 h -60 -59.999997 v 20 20 h -10 -10 v 20 20 h -10 -10 v -20 -20 h -10 -10 v 20 20 h -10 -9.9999997 v -50 -50 h 19.9999997 20 v -10 -10 h 10 10 v -10 -10 h -20 -20 v 10 10 h -10 -9.9999997 v -30 -30 h 19.9999997 20 v 10 10 h 10 10 v -10 -10 h 20 19.999997 v 10 10 h 10 10 v -10 -10 h 10 10 v 10 10 h 20 20 v -10 -10 h -10 -10 v -20 -20 h 10 10 v -10 -9.999997 h 10 10 v -20 -20 h -10 -10 v -9.999999 -10 h 10 10 v 10 9.999999 h 10 10 V 33.061534 13.061533 h -30 -30 v -9.9999997 -10 h 40 40 v 10 9.9999997 h 10 10 v -9.9999997 -10 h 20 20 v 10 9.9999997 h -20 -20 v 10 10.000001 h 10 10 v 19.999999 20 h -10 -10 v 10 10 h -10 -10 v 9.999997 10 h 10 10 v 10 10 h 10 10 v -20 -19.999997 h 10 10 v 19.999997 20 h 10 10 v -39.999997 -40 h -10 -10 v -9.999999 -10 h 10 10 v -10.000001 -10 h 10 10 v 60 59.999997 h -10 -10 v 30 30 h 10 10 v -10 -10 h 10 10 v -10 -10 h 10 10 v 10 10 h 50 50 v -10 -10 h 10 10 v 10 10 h -10 -10 v 10 10 h 10 10 v 30 30 h -10 -10 v 10 10 h 10 10 v 20 20 h -10 -10 v 20 20 h 10 10 v 20 20 h -10 -10 v 10 10 h 10 10 v 40 40 h -10 -10 v -10 -10 h -20 -20 v 10 10 h -10 -10 v -10 -10 h -20 -20 v -10 -10 h 10 10 v -10 -10 h 30 30 v -20 -20 h 10 10 v -20 -20 h -20 -20 v -20 -20 h -10 -10 v 50 50 h -20 -20 v 10 10 h -10 -10 v 10 10 h -30 -30 v 10 10 h -10 -10 v -10 -10 h -10 -10 v 20 20 h -10 -10 v -20 -20 h -10 -10 v -10 -10 h -10 -10 v 10 10 h -10 -10 v 20 20 h -10 -10 z m 280,-10 v -10 h -10 -10 v 10 10 h 10 10 z m -180,-30 v -20 h -10 -10 v 20 20 h 10 10 z m 40,10 v -10 h 10 10 v -10 -10 h -10 -10 v 10 10 h -10 -10 v 10 10 h 10 10 z m -100,-20 v -10 h 10 10 v -10 -10 h 10 10 v -10 -10 h -10 -10 v 10 10 h -20 -20 v 20 20 h 10 10 z m 160,0 v -10 h -10 -10 v 10 10 h 10 10 z m 40,-60 v -30 h -30 -30 v 30 30 h 30 30 z m -40,0 v -10 h 10 10 v 10 10 h -10 -10 z m -160,-20 v -10 h -10 -10 v 10 10 h 10 10 z m -60,-40 v -10 h -10 -10 v 10 10 h 10 10 z m 180,0 v -10 h 10 10 v -10 -10 h -10 -10 v 10 10 h -10 -10 v 10 10 h 10 10 z m 60,0 v -10 h 10 10 v 10 10 h 10 10 v -10 -10 h -10 -10 v -20 -20 h 10 10 v 10 10 h 20 20 v -10 -10 h 10 10 v -10 -10 h -30 -30 v -20 -20 h -10 -10 v 20 20 h -10 -10 v -10 -10 h -10 -10 v -10 -10 h 10 10 v -10 -10 h -10 -10 v 10 10 h -10 -10 v 30 30 h 10 10 v 10 10 h 10 10 v 10 10 h -10 -10 v 10 10 h 10 10 z m -20,-60 v -10 h 10 10 v 10 10 h -10 -10 z m 120,60 v -10 h -10 -10 v 10 10 h 10 10 z m -419.999997,-30 v -20 h -10 -10 v 20 20 h 10 10 z m 199.999997,-10 v -10 h 20 20 v -30 -30 h -10 -10 v 10 10 h -10 -10 v -10 -10 h -10 -10 v 10 10 h -10 -10 v -10 -10 h -10 -10 v -10 -10 h 10 10 v -20 -20 h 10 10 v 10 10 h 10 10 v 10 10 h 20 20 v -20 -20 h -10 -10 v 10 10 h -10 -10 v -10 -10 h -10 -10 v -10 -10 h -10 -10 v -10 -9.999997 h -10 -10 v 9.999997 10 h -10 -10 v 10 10 h 10 10 v 20 20 h -10 -10 v 10 10 h -10 -10 v 10 10 h -30 -30 v -20 -20 h -9.999997 -10 v 30 30 h 79.999997 80 v 20 20 h 10 10 z m -20,-40 v -10 h 10 10 v 10 10 h -10 -10 z m -60,-20 v -10 h 10 10 v 10 10 h -10 -10 z m 20,-80 v -10 h 10 10 v 10 10 h -10 -10 z m 280,80 v -10 h -20 -20 v 10 10 h 20 20 z m -340,-20 v -10 h -10 -10 v 10 10 h 10 10 z m 120,-139.999996 v -10 h -10 -10 v 10 9.999999 h 10 10 z m 60,439.999996 v -10 h 20 20 v 10 10 h -20 -20 z M 9.1672533,63.061533 V -6.9384667 H 79.167253 149.16725 V 63.061533 133.06153 H 79.167253 9.1672533 Z m 119.9999967,0 v -50 h -49.999997 -50 v 50 49.999997 h 50 49.999997 z m -79.999997,0 V 33.061534 h 30 29.999997 v 29.999999 30 h -29.999997 -30 z m 319.999997,0 V -6.9384667 h 70 70 V 63.061533 133.06153 h -70 -70 z m 120,0 v -50 h -50 -50 v 50 49.999997 h 50 50 z m -80,0 V 33.061534 h 30 30 v 29.999999 30 h -30 -30 z"
       id="path346" />
  </g>
</svg>
