%TF.GenerationSoftware,KiCad,Pcbnew,7.0.2.1-36-g582732918d-dirty-deb11*%
%TF.CreationDate,2024-01-19T22:57:27+00:00*%
%TF.ProjectId,baumsatz,6261756d-7361-4747-9a2e-6b696361645f,rev?*%
%TF.SameCoordinates,Original*%
%TF.FileFunction,Drillmap*%
%TF.FilePolarity,Positive*%
%FSLAX45Y45*%
G04 Gerber Fmt 4.5, Leading zero omitted, Abs format (unit mm)*
G04 Created by KiCad (PCBNEW 7.0.2.1-36-g582732918d-dirty-deb11) date 2024-01-19 22:57:27*
%MOMM*%
%LPD*%
G01*
G04 APERTURE LIST*
%ADD10C,0.100000*%
%ADD11C,0.200000*%
%ADD12C,0.040000*%
G04 APERTURE END LIST*
D10*
X-2668962Y-3400000D02*
X-900000Y-3400000D01*
X4428962Y-7901981D02*
X800000Y-3400000D01*
X150000Y-200000D02*
G75*
G03*
X-150000Y-200000I-150000J-116562D01*
G01*
X-600000Y-10000000D02*
X600000Y-10000000D01*
X-600000Y-8000000D02*
X-600000Y-10000000D01*
X800000Y-3400000D02*
X2650000Y-3400000D01*
X600000Y-8000000D02*
X4378962Y-8001981D01*
X4378962Y-8001981D02*
G75*
G03*
X4428962Y-7901981I8338J58331D01*
G01*
X-2718962Y-3300000D02*
G75*
G03*
X-2668962Y-3400000I41667J-41666D01*
G01*
X2650000Y-3400001D02*
G75*
G03*
X2700000Y-3300000I8333J58334D01*
G01*
X600000Y-10000000D02*
X600000Y-8000000D01*
X-4370778Y-7999889D02*
X-600000Y-8000000D01*
X-150000Y-200000D02*
X-2718962Y-3300000D01*
X-4420778Y-7899889D02*
G75*
G03*
X-4370778Y-7999889I40778J-42111D01*
G01*
X-900000Y-3400000D02*
X-4420778Y-7899889D01*
X2700000Y-3300000D02*
X150000Y-200000D01*
D11*
D12*
X-4110000Y-7775000D02*
X-4070000Y-7815000D01*
X-4070000Y-7775000D02*
X-4110000Y-7815000D01*
X-3840000Y-7710000D02*
X-3800000Y-7750000D01*
X-3800000Y-7710000D02*
X-3840000Y-7750000D01*
X-3550600Y-7676200D02*
X-3510600Y-7716200D01*
X-3510600Y-7676200D02*
X-3550600Y-7716200D01*
X-3210000Y-6870000D02*
X-3170000Y-6910000D01*
X-3170000Y-6870000D02*
X-3210000Y-6910000D01*
X-2715000Y-5955000D02*
X-2675000Y-5995000D01*
X-2675000Y-5955000D02*
X-2715000Y-5995000D01*
X-2480000Y-7570000D02*
X-2440000Y-7610000D01*
X-2440000Y-7570000D02*
X-2480000Y-7610000D01*
X-2470000Y-3200000D02*
X-2430000Y-3240000D01*
X-2430000Y-3200000D02*
X-2470000Y-3240000D01*
X-2210000Y-6000000D02*
X-2170000Y-6040000D01*
X-2170000Y-6000000D02*
X-2210000Y-6040000D01*
X-2168750Y-3053400D02*
X-2128750Y-3093400D01*
X-2128750Y-3053400D02*
X-2168750Y-3093400D01*
X-2125000Y-2850000D02*
X-2085000Y-2890000D01*
X-2085000Y-2850000D02*
X-2125000Y-2890000D01*
X-2100000Y-6920000D02*
X-2060000Y-6960000D01*
X-2060000Y-6920000D02*
X-2100000Y-6960000D01*
X-1874200Y-3131450D02*
X-1834200Y-3171450D01*
X-1834200Y-3131450D02*
X-1874200Y-3171450D01*
X-1825000Y-5098000D02*
X-1785000Y-5138000D01*
X-1785000Y-5098000D02*
X-1825000Y-5138000D01*
X-1825000Y-5386000D02*
X-1785000Y-5426000D01*
X-1785000Y-5386000D02*
X-1825000Y-5426000D01*
X-1500000Y-5540000D02*
X-1460000Y-5580000D01*
X-1460000Y-5540000D02*
X-1500000Y-5580000D01*
X-1401000Y-4691000D02*
X-1361000Y-4731000D01*
X-1361000Y-4691000D02*
X-1401000Y-4731000D01*
X-1325000Y-1825000D02*
X-1285000Y-1865000D01*
X-1285000Y-1825000D02*
X-1325000Y-1865000D01*
X-1310000Y-2910000D02*
X-1270000Y-2950000D01*
X-1270000Y-2910000D02*
X-1310000Y-2950000D01*
X-1280000Y-6565000D02*
X-1240000Y-6605000D01*
X-1240000Y-6565000D02*
X-1280000Y-6605000D01*
X-1270000Y-3270000D02*
X-1230000Y-3310000D01*
X-1230000Y-3270000D02*
X-1270000Y-3310000D01*
X-1219000Y-5540000D02*
X-1179000Y-5580000D01*
X-1179000Y-5540000D02*
X-1219000Y-5580000D01*
X-1215000Y-7450000D02*
X-1175000Y-7490000D01*
X-1175000Y-7450000D02*
X-1215000Y-7490000D01*
X-1114000Y-4690000D02*
X-1074000Y-4730000D01*
X-1074000Y-4690000D02*
X-1114000Y-4730000D01*
X-1054000Y-3061000D02*
X-1014000Y-3101000D01*
X-1014000Y-3061000D02*
X-1054000Y-3101000D01*
X-1048700Y-1491300D02*
X-1008700Y-1531300D01*
X-1008700Y-1491300D02*
X-1048700Y-1531300D01*
X-1010600Y-7676200D02*
X-970600Y-7716200D01*
X-970600Y-7676200D02*
X-1010600Y-7716200D01*
X-977000Y-5310000D02*
X-937000Y-5350000D01*
X-937000Y-5310000D02*
X-977000Y-5350000D01*
X-976000Y-5030000D02*
X-936000Y-5070000D01*
X-936000Y-5030000D02*
X-976000Y-5070000D01*
X-950000Y-1650000D02*
X-910000Y-1690000D01*
X-910000Y-1650000D02*
X-950000Y-1690000D01*
X-935000Y-3875000D02*
X-895000Y-3915000D01*
X-895000Y-3875000D02*
X-935000Y-3915000D01*
X-875000Y-1300000D02*
X-835000Y-1340000D01*
X-835000Y-1300000D02*
X-875000Y-1340000D01*
X-865000Y-2880000D02*
X-825000Y-2920000D01*
X-825000Y-2880000D02*
X-865000Y-2920000D01*
X-830000Y-5850000D02*
X-790000Y-5890000D01*
X-790000Y-5850000D02*
X-830000Y-5890000D01*
X-782000Y-3144250D02*
X-742000Y-3184250D01*
X-742000Y-3144250D02*
X-782000Y-3184250D01*
X-695000Y-4510000D02*
X-655000Y-4550000D01*
X-655000Y-4510000D02*
X-695000Y-4550000D01*
X-690000Y-3795000D02*
X-650000Y-3835000D01*
X-650000Y-3795000D02*
X-690000Y-3835000D01*
X-690000Y-6560000D02*
X-650000Y-6600000D01*
X-650000Y-6560000D02*
X-690000Y-6600000D01*
X-600000Y-5410000D02*
X-560000Y-5450000D01*
X-560000Y-5410000D02*
X-600000Y-5450000D01*
X-550000Y-7430000D02*
X-510000Y-7470000D01*
X-510000Y-7430000D02*
X-550000Y-7470000D01*
X-545000Y-5855000D02*
X-505000Y-5895000D01*
X-505000Y-5855000D02*
X-545000Y-5895000D01*
X-527400Y-5330000D02*
X-487400Y-5370000D01*
X-487400Y-5330000D02*
X-527400Y-5370000D01*
X-502600Y-2621600D02*
X-462600Y-2661600D01*
X-462600Y-2621600D02*
X-502600Y-2661600D01*
X-480000Y-1630000D02*
X-440000Y-1670000D01*
X-440000Y-1630000D02*
X-480000Y-1670000D01*
X-460000Y-5590000D02*
X-420000Y-5630000D01*
X-420000Y-5590000D02*
X-460000Y-5630000D01*
X-460000Y-6140000D02*
X-420000Y-6180000D01*
X-420000Y-6140000D02*
X-460000Y-6180000D01*
X-450000Y-8065000D02*
X-410000Y-8105000D01*
X-410000Y-8065000D02*
X-450000Y-8105000D01*
X-440000Y-2280000D02*
X-400000Y-2320000D01*
X-400000Y-2280000D02*
X-440000Y-2320000D01*
X-440000Y-8670000D02*
X-400000Y-8710000D01*
X-400000Y-8670000D02*
X-440000Y-8710000D01*
X-401000Y-2494600D02*
X-361000Y-2534600D01*
X-361000Y-2494600D02*
X-401000Y-2534600D01*
X-371850Y-2740567D02*
X-331850Y-2780567D01*
X-331850Y-2740567D02*
X-371850Y-2780567D01*
X-370000Y-6960000D02*
X-330000Y-7000000D01*
X-330000Y-6960000D02*
X-370000Y-7000000D01*
X-299400Y-3189200D02*
X-259400Y-3229200D01*
X-259400Y-3189200D02*
X-299400Y-3229200D01*
X-272500Y-4831400D02*
X-232500Y-4871400D01*
X-232500Y-4831400D02*
X-272500Y-4871400D01*
X-270000Y-3465000D02*
X-230000Y-3505000D01*
X-230000Y-3465000D02*
X-270000Y-3505000D01*
X-180000Y-2275000D02*
X-140000Y-2315000D01*
X-140000Y-2275000D02*
X-180000Y-2315000D01*
X-168750Y-4975450D02*
X-128750Y-5015450D01*
X-128750Y-4975450D02*
X-168750Y-5015450D01*
X-150000Y-1730000D02*
X-110000Y-1770000D01*
X-110000Y-1730000D02*
X-150000Y-1770000D01*
X-150000Y-5810000D02*
X-110000Y-5850000D01*
X-110000Y-5810000D02*
X-150000Y-5850000D01*
X-145000Y-8785000D02*
X-105000Y-8825000D01*
X-105000Y-8785000D02*
X-145000Y-8825000D01*
X-121600Y-2748600D02*
X-81600Y-2788600D01*
X-81600Y-2748600D02*
X-121600Y-2788600D01*
X-115000Y-4510000D02*
X-75000Y-4550000D01*
X-75000Y-4510000D02*
X-115000Y-4550000D01*
X-110000Y-3790000D02*
X-70000Y-3830000D01*
X-70000Y-3790000D02*
X-110000Y-3830000D01*
X-79550Y-3189200D02*
X-39550Y-3229200D01*
X-39550Y-3189200D02*
X-79550Y-3229200D01*
X-40000Y-5090000D02*
X0Y-5130000D01*
X0Y-5090000D02*
X-40000Y-5130000D01*
X-30000Y-370000D02*
X10000Y-410000D01*
X10000Y-370000D02*
X-30000Y-410000D01*
X-30000Y-6590000D02*
X10000Y-6630000D01*
X10000Y-6590000D02*
X-30000Y-6630000D01*
X-30000Y-7330000D02*
X10000Y-7370000D01*
X10000Y-7330000D02*
X-30000Y-7370000D01*
X-22105Y-5461918D02*
X17895Y-5501918D01*
X17895Y-5461918D02*
X-22105Y-5501918D01*
X-20000Y-1300000D02*
X20000Y-1340000D01*
X20000Y-1300000D02*
X-20000Y-1340000D01*
X-11553Y-5242217D02*
X28447Y-5282217D01*
X28447Y-5242217D02*
X-11553Y-5282217D01*
X-7300Y-4806000D02*
X32700Y-4846000D01*
X32700Y-4806000D02*
X-7300Y-4846000D01*
X5400Y-2494600D02*
X45400Y-2534600D01*
X45400Y-2494600D02*
X5400Y-2534600D01*
X5400Y-3459800D02*
X45400Y-3499800D01*
X45400Y-3459800D02*
X5400Y-3499800D01*
X56300Y-5737550D02*
X96300Y-5777550D01*
X96300Y-5737550D02*
X56300Y-5777550D01*
X110000Y-1735000D02*
X150000Y-1775000D01*
X150000Y-1735000D02*
X110000Y-1775000D01*
X110000Y-2265000D02*
X150000Y-2305000D01*
X150000Y-2265000D02*
X110000Y-2305000D01*
X110000Y-8785000D02*
X150000Y-8825000D01*
X150000Y-8785000D02*
X110000Y-8825000D01*
X120000Y-4975450D02*
X160000Y-5015450D01*
X160000Y-4975450D02*
X120000Y-5015450D01*
X128750Y-1480000D02*
X168750Y-1520000D01*
X168750Y-1480000D02*
X128750Y-1520000D01*
X140000Y-7717550D02*
X180000Y-7757550D01*
X180000Y-7717550D02*
X140000Y-7757550D01*
X145100Y-2621600D02*
X185100Y-2661600D01*
X185100Y-2621600D02*
X145100Y-2661600D01*
X186950Y-3472500D02*
X226950Y-3512500D01*
X226950Y-3472500D02*
X186950Y-3512500D01*
X186950Y-4662578D02*
X226950Y-4702578D01*
X226950Y-4662578D02*
X186950Y-4702578D01*
X220000Y-8190000D02*
X260000Y-8230000D01*
X260000Y-8190000D02*
X220000Y-8230000D01*
X230000Y-6590000D02*
X270000Y-6630000D01*
X270000Y-6590000D02*
X230000Y-6630000D01*
X230000Y-7320000D02*
X270000Y-7360000D01*
X270000Y-7320000D02*
X230000Y-7360000D01*
X234000Y-2875600D02*
X274000Y-2915600D01*
X274000Y-2875600D02*
X234000Y-2915600D01*
X282497Y-5085400D02*
X322497Y-5125400D01*
X322497Y-5085400D02*
X282497Y-5125400D01*
X282503Y-5593400D02*
X322503Y-5633400D01*
X322503Y-5593400D02*
X282503Y-5633400D01*
X288000Y-5898200D02*
X328000Y-5938200D01*
X328000Y-5898200D02*
X288000Y-5938200D01*
X331750Y-1656400D02*
X371750Y-1696400D01*
X371750Y-1656400D02*
X331750Y-1696400D01*
X331750Y-2062800D02*
X371750Y-2102800D01*
X371750Y-2062800D02*
X331750Y-2102800D01*
X365000Y-8790000D02*
X405000Y-8830000D01*
X405000Y-8790000D02*
X365000Y-8830000D01*
X373382Y-4653282D02*
X413382Y-4693282D01*
X413382Y-4653282D02*
X373382Y-4693282D01*
X373700Y-2481900D02*
X413700Y-2521900D01*
X413700Y-2481900D02*
X373700Y-2521900D01*
X470000Y-8075000D02*
X510000Y-8115000D01*
X510000Y-8075000D02*
X470000Y-8115000D01*
X485000Y-3355000D02*
X525000Y-3395000D01*
X525000Y-3355000D02*
X485000Y-3395000D01*
X520000Y-4460000D02*
X560000Y-4500000D01*
X560000Y-4460000D02*
X520000Y-4500000D01*
X540000Y-4790000D02*
X580000Y-4830000D01*
X580000Y-4790000D02*
X540000Y-4830000D01*
X540000Y-5230000D02*
X580000Y-5270000D01*
X580000Y-5230000D02*
X540000Y-5270000D01*
X540000Y-5480000D02*
X580000Y-5520000D01*
X580000Y-5480000D02*
X540000Y-5520000D01*
X540000Y-7320000D02*
X580000Y-7360000D01*
X580000Y-7320000D02*
X540000Y-7360000D01*
X550000Y-6590000D02*
X590000Y-6630000D01*
X590000Y-6590000D02*
X550000Y-6630000D01*
X556000Y-6014000D02*
X596000Y-6054000D01*
X596000Y-6014000D02*
X556000Y-6054000D01*
X635000Y-2345000D02*
X675000Y-2385000D01*
X675000Y-2345000D02*
X635000Y-2385000D01*
X716600Y-3269300D02*
X756600Y-3309300D01*
X756600Y-3269300D02*
X716600Y-3309300D01*
X730000Y-7790000D02*
X770000Y-7830000D01*
X770000Y-7790000D02*
X730000Y-7830000D01*
X870000Y-3800000D02*
X910000Y-3840000D01*
X910000Y-3800000D02*
X870000Y-3840000D01*
X875000Y-4955000D02*
X915000Y-4995000D01*
X915000Y-4955000D02*
X875000Y-4995000D01*
X885000Y-1450000D02*
X925000Y-1490000D01*
X925000Y-1450000D02*
X885000Y-1490000D01*
X885000Y-5565000D02*
X925000Y-5605000D01*
X925000Y-5565000D02*
X885000Y-5605000D01*
X890000Y-6710000D02*
X930000Y-6750000D01*
X930000Y-6710000D02*
X890000Y-6750000D01*
X928000Y-6017000D02*
X968000Y-6057000D01*
X968000Y-6017000D02*
X928000Y-6057000D01*
X970000Y-7370000D02*
X1010000Y-7410000D01*
X1010000Y-7370000D02*
X970000Y-7410000D01*
X1110300Y-6469700D02*
X1150300Y-6509700D01*
X1150300Y-6469700D02*
X1110300Y-6509700D01*
X1150000Y-5820000D02*
X1190000Y-5860000D01*
X1190000Y-5820000D02*
X1150000Y-5860000D01*
X1190900Y-5237800D02*
X1230900Y-5277800D01*
X1230900Y-5237800D02*
X1190900Y-5277800D01*
X1275400Y-3078800D02*
X1315400Y-3118800D01*
X1315400Y-3078800D02*
X1275400Y-3118800D01*
X1315000Y-7590000D02*
X1355000Y-7630000D01*
X1355000Y-7590000D02*
X1315000Y-7630000D01*
X1355000Y-1945000D02*
X1395000Y-1985000D01*
X1395000Y-1945000D02*
X1355000Y-1985000D01*
X1389700Y-3269300D02*
X1429700Y-3309300D01*
X1429700Y-3269300D02*
X1389700Y-3309300D01*
X1402400Y-3028000D02*
X1442400Y-3068000D01*
X1442400Y-3028000D02*
X1402400Y-3068000D01*
X1405000Y-2189800D02*
X1445000Y-2229800D01*
X1445000Y-2189800D02*
X1405000Y-2229800D01*
X1405000Y-2570800D02*
X1445000Y-2610800D01*
X1445000Y-2570800D02*
X1405000Y-2610800D01*
X1410000Y-5820000D02*
X1450000Y-5860000D01*
X1450000Y-5820000D02*
X1410000Y-5860000D01*
X1427800Y-4856800D02*
X1467800Y-4896800D01*
X1467800Y-4856800D02*
X1427800Y-4896800D01*
X1430000Y-5656900D02*
X1470000Y-5696900D01*
X1470000Y-5656900D02*
X1430000Y-5696900D01*
X1501000Y-2373000D02*
X1541000Y-2413000D01*
X1541000Y-2373000D02*
X1501000Y-2413000D01*
X1504000Y-3155000D02*
X1544000Y-3195000D01*
X1544000Y-3155000D02*
X1504000Y-3195000D01*
X1535000Y-6600000D02*
X1575000Y-6640000D01*
X1575000Y-6600000D02*
X1535000Y-6640000D01*
X1550000Y-6019000D02*
X1590000Y-6059000D01*
X1590000Y-6019000D02*
X1550000Y-6059000D01*
X1550000Y-6245000D02*
X1590000Y-6285000D01*
X1590000Y-6245000D02*
X1550000Y-6285000D01*
X1605600Y-2189800D02*
X1645600Y-2229800D01*
X1645600Y-2189800D02*
X1605600Y-2229800D01*
X1605600Y-3078800D02*
X1645600Y-3118800D01*
X1645600Y-3078800D02*
X1605600Y-3118800D01*
X1680000Y-3255000D02*
X1720000Y-3295000D01*
X1720000Y-3255000D02*
X1680000Y-3295000D01*
X1690000Y-2885000D02*
X1730000Y-2925000D01*
X1730000Y-2885000D02*
X1690000Y-2925000D01*
X1745000Y-2365000D02*
X1785000Y-2405000D01*
X1785000Y-2365000D02*
X1745000Y-2405000D01*
X1831250Y-3080000D02*
X1871250Y-3120000D01*
X1871250Y-3080000D02*
X1831250Y-3120000D01*
X1975000Y-2625000D02*
X2015000Y-2665000D01*
X2015000Y-2625000D02*
X1975000Y-2665000D01*
X2100900Y-7536500D02*
X2140900Y-7576500D01*
X2140900Y-7536500D02*
X2100900Y-7576500D01*
X2113600Y-2774000D02*
X2153600Y-2814000D01*
X2153600Y-2774000D02*
X2113600Y-2814000D01*
X2170000Y-5400000D02*
X2210000Y-5440000D01*
X2210000Y-5400000D02*
X2170000Y-5440000D01*
X2260000Y-2915000D02*
X2300000Y-2955000D01*
X2300000Y-2915000D02*
X2260000Y-2955000D01*
X2260000Y-6315000D02*
X2300000Y-6355000D01*
X2300000Y-6315000D02*
X2260000Y-6355000D01*
X2393000Y-5809300D02*
X2433000Y-5849300D01*
X2433000Y-5809300D02*
X2393000Y-5849300D01*
X2430000Y-3250000D02*
X2470000Y-3290000D01*
X2470000Y-3250000D02*
X2430000Y-3290000D01*
X2481900Y-7003100D02*
X2521900Y-7043100D01*
X2521900Y-7003100D02*
X2481900Y-7043100D01*
X2494600Y-6459600D02*
X2534600Y-6499600D01*
X2534600Y-6459600D02*
X2494600Y-6499600D01*
X3140000Y-6670000D02*
X3180000Y-6710000D01*
X3180000Y-6670000D02*
X3140000Y-6710000D01*
X3510600Y-7676200D02*
X3550600Y-7716200D01*
X3550600Y-7676200D02*
X3510600Y-7716200D01*
X3828750Y-7680000D02*
X3868750Y-7720000D01*
X3868750Y-7680000D02*
X3828750Y-7720000D01*
X4095000Y-7810000D02*
X4135000Y-7850000D01*
X4135000Y-7810000D02*
X4095000Y-7850000D01*
D11*
X-4196000Y-10317524D02*
X-4196000Y-10117524D01*
X-4196000Y-10117524D02*
X-4148381Y-10117524D01*
X-4148381Y-10117524D02*
X-4119809Y-10127048D01*
X-4119809Y-10127048D02*
X-4100762Y-10146095D01*
X-4100762Y-10146095D02*
X-4091238Y-10165143D01*
X-4091238Y-10165143D02*
X-4081714Y-10203238D01*
X-4081714Y-10203238D02*
X-4081714Y-10231810D01*
X-4081714Y-10231810D02*
X-4091238Y-10269905D01*
X-4091238Y-10269905D02*
X-4100762Y-10288952D01*
X-4100762Y-10288952D02*
X-4119809Y-10308000D01*
X-4119809Y-10308000D02*
X-4148381Y-10317524D01*
X-4148381Y-10317524D02*
X-4196000Y-10317524D01*
X-3996000Y-10317524D02*
X-3996000Y-10184190D01*
X-3996000Y-10222286D02*
X-3986476Y-10203238D01*
X-3986476Y-10203238D02*
X-3976952Y-10193714D01*
X-3976952Y-10193714D02*
X-3957905Y-10184190D01*
X-3957905Y-10184190D02*
X-3938857Y-10184190D01*
X-3872190Y-10317524D02*
X-3872190Y-10184190D01*
X-3872190Y-10117524D02*
X-3881714Y-10127048D01*
X-3881714Y-10127048D02*
X-3872190Y-10136571D01*
X-3872190Y-10136571D02*
X-3862667Y-10127048D01*
X-3862667Y-10127048D02*
X-3872190Y-10117524D01*
X-3872190Y-10117524D02*
X-3872190Y-10136571D01*
X-3748381Y-10317524D02*
X-3767428Y-10308000D01*
X-3767428Y-10308000D02*
X-3776952Y-10288952D01*
X-3776952Y-10288952D02*
X-3776952Y-10117524D01*
X-3643619Y-10317524D02*
X-3662667Y-10308000D01*
X-3662667Y-10308000D02*
X-3672190Y-10288952D01*
X-3672190Y-10288952D02*
X-3672190Y-10117524D01*
X-3415047Y-10317524D02*
X-3415047Y-10117524D01*
X-3415047Y-10117524D02*
X-3348381Y-10260381D01*
X-3348381Y-10260381D02*
X-3281714Y-10117524D01*
X-3281714Y-10117524D02*
X-3281714Y-10317524D01*
X-3100762Y-10317524D02*
X-3100762Y-10212762D01*
X-3100762Y-10212762D02*
X-3110286Y-10193714D01*
X-3110286Y-10193714D02*
X-3129333Y-10184190D01*
X-3129333Y-10184190D02*
X-3167428Y-10184190D01*
X-3167428Y-10184190D02*
X-3186476Y-10193714D01*
X-3100762Y-10308000D02*
X-3119809Y-10317524D01*
X-3119809Y-10317524D02*
X-3167428Y-10317524D01*
X-3167428Y-10317524D02*
X-3186476Y-10308000D01*
X-3186476Y-10308000D02*
X-3196000Y-10288952D01*
X-3196000Y-10288952D02*
X-3196000Y-10269905D01*
X-3196000Y-10269905D02*
X-3186476Y-10250857D01*
X-3186476Y-10250857D02*
X-3167428Y-10241333D01*
X-3167428Y-10241333D02*
X-3119809Y-10241333D01*
X-3119809Y-10241333D02*
X-3100762Y-10231810D01*
X-3005524Y-10184190D02*
X-3005524Y-10384190D01*
X-3005524Y-10193714D02*
X-2986476Y-10184190D01*
X-2986476Y-10184190D02*
X-2948381Y-10184190D01*
X-2948381Y-10184190D02*
X-2929333Y-10193714D01*
X-2929333Y-10193714D02*
X-2919809Y-10203238D01*
X-2919809Y-10203238D02*
X-2910286Y-10222286D01*
X-2910286Y-10222286D02*
X-2910286Y-10279429D01*
X-2910286Y-10279429D02*
X-2919809Y-10298476D01*
X-2919809Y-10298476D02*
X-2929333Y-10308000D01*
X-2929333Y-10308000D02*
X-2948381Y-10317524D01*
X-2948381Y-10317524D02*
X-2986476Y-10317524D01*
X-2986476Y-10317524D02*
X-3005524Y-10308000D01*
X-2824571Y-10298476D02*
X-2815047Y-10308000D01*
X-2815047Y-10308000D02*
X-2824571Y-10317524D01*
X-2824571Y-10317524D02*
X-2834095Y-10308000D01*
X-2834095Y-10308000D02*
X-2824571Y-10298476D01*
X-2824571Y-10298476D02*
X-2824571Y-10317524D01*
X-2824571Y-10193714D02*
X-2815047Y-10203238D01*
X-2815047Y-10203238D02*
X-2824571Y-10212762D01*
X-2824571Y-10212762D02*
X-2834095Y-10203238D01*
X-2834095Y-10203238D02*
X-2824571Y-10193714D01*
X-2824571Y-10193714D02*
X-2824571Y-10212762D01*
D12*
X-4483619Y-10625000D02*
X-4443619Y-10665000D01*
X-4443619Y-10625000D02*
X-4483619Y-10665000D01*
D11*
X-4157905Y-10537524D02*
X-4138857Y-10537524D01*
X-4138857Y-10537524D02*
X-4119809Y-10547048D01*
X-4119809Y-10547048D02*
X-4110286Y-10556571D01*
X-4110286Y-10556571D02*
X-4100762Y-10575619D01*
X-4100762Y-10575619D02*
X-4091238Y-10613714D01*
X-4091238Y-10613714D02*
X-4091238Y-10661333D01*
X-4091238Y-10661333D02*
X-4100762Y-10699429D01*
X-4100762Y-10699429D02*
X-4110286Y-10718476D01*
X-4110286Y-10718476D02*
X-4119809Y-10728000D01*
X-4119809Y-10728000D02*
X-4138857Y-10737524D01*
X-4138857Y-10737524D02*
X-4157905Y-10737524D01*
X-4157905Y-10737524D02*
X-4176952Y-10728000D01*
X-4176952Y-10728000D02*
X-4186476Y-10718476D01*
X-4186476Y-10718476D02*
X-4196000Y-10699429D01*
X-4196000Y-10699429D02*
X-4205524Y-10661333D01*
X-4205524Y-10661333D02*
X-4205524Y-10613714D01*
X-4205524Y-10613714D02*
X-4196000Y-10575619D01*
X-4196000Y-10575619D02*
X-4186476Y-10556571D01*
X-4186476Y-10556571D02*
X-4176952Y-10547048D01*
X-4176952Y-10547048D02*
X-4157905Y-10537524D01*
X-4005524Y-10718476D02*
X-3996000Y-10728000D01*
X-3996000Y-10728000D02*
X-4005524Y-10737524D01*
X-4005524Y-10737524D02*
X-4015047Y-10728000D01*
X-4015047Y-10728000D02*
X-4005524Y-10718476D01*
X-4005524Y-10718476D02*
X-4005524Y-10737524D01*
X-3824571Y-10604190D02*
X-3824571Y-10737524D01*
X-3872190Y-10528000D02*
X-3919809Y-10670857D01*
X-3919809Y-10670857D02*
X-3796000Y-10670857D01*
X-3681714Y-10537524D02*
X-3662666Y-10537524D01*
X-3662666Y-10537524D02*
X-3643619Y-10547048D01*
X-3643619Y-10547048D02*
X-3634095Y-10556571D01*
X-3634095Y-10556571D02*
X-3624571Y-10575619D01*
X-3624571Y-10575619D02*
X-3615047Y-10613714D01*
X-3615047Y-10613714D02*
X-3615047Y-10661333D01*
X-3615047Y-10661333D02*
X-3624571Y-10699429D01*
X-3624571Y-10699429D02*
X-3634095Y-10718476D01*
X-3634095Y-10718476D02*
X-3643619Y-10728000D01*
X-3643619Y-10728000D02*
X-3662666Y-10737524D01*
X-3662666Y-10737524D02*
X-3681714Y-10737524D01*
X-3681714Y-10737524D02*
X-3700762Y-10728000D01*
X-3700762Y-10728000D02*
X-3710286Y-10718476D01*
X-3710286Y-10718476D02*
X-3719809Y-10699429D01*
X-3719809Y-10699429D02*
X-3729333Y-10661333D01*
X-3729333Y-10661333D02*
X-3729333Y-10613714D01*
X-3729333Y-10613714D02*
X-3719809Y-10575619D01*
X-3719809Y-10575619D02*
X-3710286Y-10556571D01*
X-3710286Y-10556571D02*
X-3700762Y-10547048D01*
X-3700762Y-10547048D02*
X-3681714Y-10537524D01*
X-3491238Y-10537524D02*
X-3472190Y-10537524D01*
X-3472190Y-10537524D02*
X-3453143Y-10547048D01*
X-3453143Y-10547048D02*
X-3443619Y-10556571D01*
X-3443619Y-10556571D02*
X-3434095Y-10575619D01*
X-3434095Y-10575619D02*
X-3424571Y-10613714D01*
X-3424571Y-10613714D02*
X-3424571Y-10661333D01*
X-3424571Y-10661333D02*
X-3434095Y-10699429D01*
X-3434095Y-10699429D02*
X-3443619Y-10718476D01*
X-3443619Y-10718476D02*
X-3453143Y-10728000D01*
X-3453143Y-10728000D02*
X-3472190Y-10737524D01*
X-3472190Y-10737524D02*
X-3491238Y-10737524D01*
X-3491238Y-10737524D02*
X-3510286Y-10728000D01*
X-3510286Y-10728000D02*
X-3519809Y-10718476D01*
X-3519809Y-10718476D02*
X-3529333Y-10699429D01*
X-3529333Y-10699429D02*
X-3538857Y-10661333D01*
X-3538857Y-10661333D02*
X-3538857Y-10613714D01*
X-3538857Y-10613714D02*
X-3529333Y-10575619D01*
X-3529333Y-10575619D02*
X-3519809Y-10556571D01*
X-3519809Y-10556571D02*
X-3510286Y-10547048D01*
X-3510286Y-10547048D02*
X-3491238Y-10537524D01*
X-3338857Y-10737524D02*
X-3338857Y-10604190D01*
X-3338857Y-10623238D02*
X-3329333Y-10613714D01*
X-3329333Y-10613714D02*
X-3310286Y-10604190D01*
X-3310286Y-10604190D02*
X-3281714Y-10604190D01*
X-3281714Y-10604190D02*
X-3262666Y-10613714D01*
X-3262666Y-10613714D02*
X-3253143Y-10632762D01*
X-3253143Y-10632762D02*
X-3253143Y-10737524D01*
X-3253143Y-10632762D02*
X-3243619Y-10613714D01*
X-3243619Y-10613714D02*
X-3224571Y-10604190D01*
X-3224571Y-10604190D02*
X-3196000Y-10604190D01*
X-3196000Y-10604190D02*
X-3176952Y-10613714D01*
X-3176952Y-10613714D02*
X-3167428Y-10632762D01*
X-3167428Y-10632762D02*
X-3167428Y-10737524D01*
X-3072190Y-10737524D02*
X-3072190Y-10604190D01*
X-3072190Y-10623238D02*
X-3062666Y-10613714D01*
X-3062666Y-10613714D02*
X-3043619Y-10604190D01*
X-3043619Y-10604190D02*
X-3015047Y-10604190D01*
X-3015047Y-10604190D02*
X-2996000Y-10613714D01*
X-2996000Y-10613714D02*
X-2986476Y-10632762D01*
X-2986476Y-10632762D02*
X-2986476Y-10737524D01*
X-2986476Y-10632762D02*
X-2976952Y-10613714D01*
X-2976952Y-10613714D02*
X-2957905Y-10604190D01*
X-2957905Y-10604190D02*
X-2929333Y-10604190D01*
X-2929333Y-10604190D02*
X-2910285Y-10613714D01*
X-2910285Y-10613714D02*
X-2900762Y-10632762D01*
X-2900762Y-10632762D02*
X-2900762Y-10737524D01*
X-2510286Y-10528000D02*
X-2681714Y-10785143D01*
X-2253143Y-10537524D02*
X-2234095Y-10537524D01*
X-2234095Y-10537524D02*
X-2215047Y-10547048D01*
X-2215047Y-10547048D02*
X-2205524Y-10556571D01*
X-2205524Y-10556571D02*
X-2196000Y-10575619D01*
X-2196000Y-10575619D02*
X-2186476Y-10613714D01*
X-2186476Y-10613714D02*
X-2186476Y-10661333D01*
X-2186476Y-10661333D02*
X-2196000Y-10699429D01*
X-2196000Y-10699429D02*
X-2205524Y-10718476D01*
X-2205524Y-10718476D02*
X-2215047Y-10728000D01*
X-2215047Y-10728000D02*
X-2234095Y-10737524D01*
X-2234095Y-10737524D02*
X-2253143Y-10737524D01*
X-2253143Y-10737524D02*
X-2272190Y-10728000D01*
X-2272190Y-10728000D02*
X-2281714Y-10718476D01*
X-2281714Y-10718476D02*
X-2291238Y-10699429D01*
X-2291238Y-10699429D02*
X-2300762Y-10661333D01*
X-2300762Y-10661333D02*
X-2300762Y-10613714D01*
X-2300762Y-10613714D02*
X-2291238Y-10575619D01*
X-2291238Y-10575619D02*
X-2281714Y-10556571D01*
X-2281714Y-10556571D02*
X-2272190Y-10547048D01*
X-2272190Y-10547048D02*
X-2253143Y-10537524D01*
X-2100762Y-10718476D02*
X-2091238Y-10728000D01*
X-2091238Y-10728000D02*
X-2100762Y-10737524D01*
X-2100762Y-10737524D02*
X-2110285Y-10728000D01*
X-2110285Y-10728000D02*
X-2100762Y-10718476D01*
X-2100762Y-10718476D02*
X-2100762Y-10737524D01*
X-1967428Y-10537524D02*
X-1948381Y-10537524D01*
X-1948381Y-10537524D02*
X-1929333Y-10547048D01*
X-1929333Y-10547048D02*
X-1919809Y-10556571D01*
X-1919809Y-10556571D02*
X-1910285Y-10575619D01*
X-1910285Y-10575619D02*
X-1900762Y-10613714D01*
X-1900762Y-10613714D02*
X-1900762Y-10661333D01*
X-1900762Y-10661333D02*
X-1910285Y-10699429D01*
X-1910285Y-10699429D02*
X-1919809Y-10718476D01*
X-1919809Y-10718476D02*
X-1929333Y-10728000D01*
X-1929333Y-10728000D02*
X-1948381Y-10737524D01*
X-1948381Y-10737524D02*
X-1967428Y-10737524D01*
X-1967428Y-10737524D02*
X-1986476Y-10728000D01*
X-1986476Y-10728000D02*
X-1996000Y-10718476D01*
X-1996000Y-10718476D02*
X-2005523Y-10699429D01*
X-2005523Y-10699429D02*
X-2015047Y-10661333D01*
X-2015047Y-10661333D02*
X-2015047Y-10613714D01*
X-2015047Y-10613714D02*
X-2005523Y-10575619D01*
X-2005523Y-10575619D02*
X-1996000Y-10556571D01*
X-1996000Y-10556571D02*
X-1986476Y-10547048D01*
X-1986476Y-10547048D02*
X-1967428Y-10537524D01*
X-1710285Y-10737524D02*
X-1824571Y-10737524D01*
X-1767428Y-10737524D02*
X-1767428Y-10537524D01*
X-1767428Y-10537524D02*
X-1786476Y-10566095D01*
X-1786476Y-10566095D02*
X-1805523Y-10585143D01*
X-1805523Y-10585143D02*
X-1824571Y-10594667D01*
X-1529333Y-10537524D02*
X-1624571Y-10537524D01*
X-1624571Y-10537524D02*
X-1634095Y-10632762D01*
X-1634095Y-10632762D02*
X-1624571Y-10623238D01*
X-1624571Y-10623238D02*
X-1605523Y-10613714D01*
X-1605523Y-10613714D02*
X-1557904Y-10613714D01*
X-1557904Y-10613714D02*
X-1538857Y-10623238D01*
X-1538857Y-10623238D02*
X-1529333Y-10632762D01*
X-1529333Y-10632762D02*
X-1519809Y-10651810D01*
X-1519809Y-10651810D02*
X-1519809Y-10699429D01*
X-1519809Y-10699429D02*
X-1529333Y-10718476D01*
X-1529333Y-10718476D02*
X-1538857Y-10728000D01*
X-1538857Y-10728000D02*
X-1557904Y-10737524D01*
X-1557904Y-10737524D02*
X-1605523Y-10737524D01*
X-1605523Y-10737524D02*
X-1624571Y-10728000D01*
X-1624571Y-10728000D02*
X-1634095Y-10718476D01*
X-1453142Y-10537524D02*
X-1319809Y-10537524D01*
X-1319809Y-10537524D02*
X-1405523Y-10737524D01*
X-1253143Y-10537524D02*
X-1253143Y-10575619D01*
X-1176952Y-10537524D02*
X-1176952Y-10575619D01*
X-881714Y-10813714D02*
X-891238Y-10804190D01*
X-891238Y-10804190D02*
X-910285Y-10775619D01*
X-910285Y-10775619D02*
X-919809Y-10756571D01*
X-919809Y-10756571D02*
X-929333Y-10728000D01*
X-929333Y-10728000D02*
X-938857Y-10680381D01*
X-938857Y-10680381D02*
X-938857Y-10642286D01*
X-938857Y-10642286D02*
X-929333Y-10594667D01*
X-929333Y-10594667D02*
X-919809Y-10566095D01*
X-919809Y-10566095D02*
X-910285Y-10547048D01*
X-910285Y-10547048D02*
X-891238Y-10518476D01*
X-891238Y-10518476D02*
X-881714Y-10508952D01*
X-700761Y-10737524D02*
X-815047Y-10737524D01*
X-757904Y-10737524D02*
X-757904Y-10537524D01*
X-757904Y-10537524D02*
X-776952Y-10566095D01*
X-776952Y-10566095D02*
X-796000Y-10585143D01*
X-796000Y-10585143D02*
X-815047Y-10594667D01*
X-519809Y-10537524D02*
X-615047Y-10537524D01*
X-615047Y-10537524D02*
X-624571Y-10632762D01*
X-624571Y-10632762D02*
X-615047Y-10623238D01*
X-615047Y-10623238D02*
X-596000Y-10613714D01*
X-596000Y-10613714D02*
X-548381Y-10613714D01*
X-548381Y-10613714D02*
X-529333Y-10623238D01*
X-529333Y-10623238D02*
X-519809Y-10632762D01*
X-519809Y-10632762D02*
X-510285Y-10651810D01*
X-510285Y-10651810D02*
X-510285Y-10699429D01*
X-510285Y-10699429D02*
X-519809Y-10718476D01*
X-519809Y-10718476D02*
X-529333Y-10728000D01*
X-529333Y-10728000D02*
X-548381Y-10737524D01*
X-548381Y-10737524D02*
X-596000Y-10737524D01*
X-596000Y-10737524D02*
X-615047Y-10728000D01*
X-615047Y-10728000D02*
X-624571Y-10718476D01*
X-434095Y-10556571D02*
X-424571Y-10547048D01*
X-424571Y-10547048D02*
X-405523Y-10537524D01*
X-405523Y-10537524D02*
X-357904Y-10537524D01*
X-357904Y-10537524D02*
X-338857Y-10547048D01*
X-338857Y-10547048D02*
X-329333Y-10556571D01*
X-329333Y-10556571D02*
X-319809Y-10575619D01*
X-319809Y-10575619D02*
X-319809Y-10594667D01*
X-319809Y-10594667D02*
X-329333Y-10623238D01*
X-329333Y-10623238D02*
X-443619Y-10737524D01*
X-443619Y-10737524D02*
X-319809Y-10737524D01*
X-81714Y-10737524D02*
X-81714Y-10537524D01*
X4000Y-10737524D02*
X4000Y-10632762D01*
X4000Y-10632762D02*
X-5523Y-10613714D01*
X-5523Y-10613714D02*
X-24571Y-10604190D01*
X-24571Y-10604190D02*
X-53142Y-10604190D01*
X-53142Y-10604190D02*
X-72190Y-10613714D01*
X-72190Y-10613714D02*
X-81714Y-10623238D01*
X127810Y-10737524D02*
X108762Y-10728000D01*
X108762Y-10728000D02*
X99238Y-10718476D01*
X99238Y-10718476D02*
X89715Y-10699429D01*
X89715Y-10699429D02*
X89715Y-10642286D01*
X89715Y-10642286D02*
X99238Y-10623238D01*
X99238Y-10623238D02*
X108762Y-10613714D01*
X108762Y-10613714D02*
X127810Y-10604190D01*
X127810Y-10604190D02*
X156381Y-10604190D01*
X156381Y-10604190D02*
X175429Y-10613714D01*
X175429Y-10613714D02*
X184953Y-10623238D01*
X184953Y-10623238D02*
X194477Y-10642286D01*
X194477Y-10642286D02*
X194477Y-10699429D01*
X194477Y-10699429D02*
X184953Y-10718476D01*
X184953Y-10718476D02*
X175429Y-10728000D01*
X175429Y-10728000D02*
X156381Y-10737524D01*
X156381Y-10737524D02*
X127810Y-10737524D01*
X308762Y-10737524D02*
X289715Y-10728000D01*
X289715Y-10728000D02*
X280191Y-10708952D01*
X280191Y-10708952D02*
X280191Y-10537524D01*
X461143Y-10728000D02*
X442096Y-10737524D01*
X442096Y-10737524D02*
X404000Y-10737524D01*
X404000Y-10737524D02*
X384953Y-10728000D01*
X384953Y-10728000D02*
X375429Y-10708952D01*
X375429Y-10708952D02*
X375429Y-10632762D01*
X375429Y-10632762D02*
X384953Y-10613714D01*
X384953Y-10613714D02*
X404000Y-10604190D01*
X404000Y-10604190D02*
X442096Y-10604190D01*
X442096Y-10604190D02*
X461143Y-10613714D01*
X461143Y-10613714D02*
X470667Y-10632762D01*
X470667Y-10632762D02*
X470667Y-10651810D01*
X470667Y-10651810D02*
X375429Y-10670857D01*
X546858Y-10728000D02*
X565905Y-10737524D01*
X565905Y-10737524D02*
X604000Y-10737524D01*
X604000Y-10737524D02*
X623048Y-10728000D01*
X623048Y-10728000D02*
X632572Y-10708952D01*
X632572Y-10708952D02*
X632572Y-10699429D01*
X632572Y-10699429D02*
X623048Y-10680381D01*
X623048Y-10680381D02*
X604000Y-10670857D01*
X604000Y-10670857D02*
X575429Y-10670857D01*
X575429Y-10670857D02*
X556381Y-10661333D01*
X556381Y-10661333D02*
X546858Y-10642286D01*
X546858Y-10642286D02*
X546858Y-10632762D01*
X546858Y-10632762D02*
X556381Y-10613714D01*
X556381Y-10613714D02*
X575429Y-10604190D01*
X575429Y-10604190D02*
X604000Y-10604190D01*
X604000Y-10604190D02*
X623048Y-10613714D01*
X699239Y-10813714D02*
X708762Y-10804190D01*
X708762Y-10804190D02*
X727810Y-10775619D01*
X727810Y-10775619D02*
X737334Y-10756571D01*
X737334Y-10756571D02*
X746858Y-10728000D01*
X746858Y-10728000D02*
X756381Y-10680381D01*
X756381Y-10680381D02*
X756381Y-10642286D01*
X756381Y-10642286D02*
X746858Y-10594667D01*
X746858Y-10594667D02*
X737334Y-10566095D01*
X737334Y-10566095D02*
X727810Y-10547048D01*
X727810Y-10547048D02*
X708762Y-10518476D01*
X708762Y-10518476D02*
X699239Y-10508952D01*
M02*
