%TF.GenerationSoftware,KiCad,Pcbnew,9.0.6+1*%
%TF.CreationDate,2026-01-20T05:24:52+00:00*%
%TF.ProjectId,baumsatz,6261756d-7361-4747-9a2e-6b696361645f,rev?*%
%TF.SameCoordinates,Original*%
%TF.FileFunction,Drillmap*%
%TF.FilePolarity,Positive*%
%FSLAX45Y45*%
G04 Gerber Fmt 4.5, Leading zero omitted, Abs format (unit mm)*
G04 Created by KiCad (PCBNEW 9.0.6+1) date 2026-01-20 05:24:52*
%MOMM*%
%LPD*%
G01*
G04 APERTURE LIST*
%ADD10C,0.100000*%
%ADD11C,0.200000*%
G04 APERTURE END LIST*
D10*
X-2668962Y-3400000D02*
X-900000Y-3400000D01*
X4428962Y-7901981D02*
X800000Y-3400000D01*
X-150000Y-200000D02*
G75*
G02*
X150000Y-200000I150000J-116562D01*
G01*
X-600000Y-10000000D02*
X600000Y-10000000D01*
X-600000Y-8000000D02*
X-600000Y-10000000D01*
X800000Y-3400000D02*
X2650000Y-3400000D01*
X600000Y-8000000D02*
X4378962Y-8001981D01*
X4428962Y-7901981D02*
G75*
G02*
X4378962Y-8001981I-41662J-41669D01*
G01*
X-2668962Y-3400000D02*
G75*
G02*
X-2718962Y-3300000I-8333J58333D01*
G01*
X2700000Y-3300000D02*
G75*
G02*
X2650000Y-3400001I-41667J-41667D01*
G01*
X600000Y-10000000D02*
X600000Y-8000000D01*
X-4370778Y-7999889D02*
X-600000Y-8000000D01*
X-150000Y-200000D02*
X-2718962Y-3300000D01*
X-4370778Y-7999889D02*
G75*
G02*
X-4420778Y-7899889I-9222J57889D01*
G01*
X-900000Y-3400000D02*
X-4420778Y-7899889D01*
X2700000Y-3300000D02*
X150000Y-200000D01*
D11*
D10*
X-4110000Y-7775000D02*
X-4070000Y-7815000D01*
X-4070000Y-7775000D02*
X-4110000Y-7815000D01*
X-3840000Y-7710000D02*
X-3800000Y-7750000D01*
X-3800000Y-7710000D02*
X-3840000Y-7750000D01*
X-3550600Y-7676200D02*
X-3510600Y-7716200D01*
X-3510600Y-7676200D02*
X-3550600Y-7716200D01*
X-3210000Y-6870000D02*
X-3170000Y-6910000D01*
X-3170000Y-6870000D02*
X-3210000Y-6910000D01*
X-2715000Y-5955000D02*
X-2675000Y-5995000D01*
X-2675000Y-5955000D02*
X-2715000Y-5995000D01*
X-2480000Y-7570000D02*
X-2440000Y-7610000D01*
X-2440000Y-7570000D02*
X-2480000Y-7610000D01*
X-2470000Y-3200000D02*
X-2430000Y-3240000D01*
X-2430000Y-3200000D02*
X-2470000Y-3240000D01*
X-2210000Y-6000000D02*
X-2170000Y-6040000D01*
X-2170000Y-6000000D02*
X-2210000Y-6040000D01*
X-2168750Y-3053400D02*
X-2128750Y-3093400D01*
X-2128750Y-3053400D02*
X-2168750Y-3093400D01*
X-2125000Y-2850000D02*
X-2085000Y-2890000D01*
X-2085000Y-2850000D02*
X-2125000Y-2890000D01*
X-2100000Y-6920000D02*
X-2060000Y-6960000D01*
X-2060000Y-6920000D02*
X-2100000Y-6960000D01*
X-1874200Y-3131450D02*
X-1834200Y-3171450D01*
X-1834200Y-3131450D02*
X-1874200Y-3171450D01*
X-1825000Y-5098000D02*
X-1785000Y-5138000D01*
X-1785000Y-5098000D02*
X-1825000Y-5138000D01*
X-1825000Y-5386000D02*
X-1785000Y-5426000D01*
X-1785000Y-5386000D02*
X-1825000Y-5426000D01*
X-1500000Y-5540000D02*
X-1460000Y-5580000D01*
X-1460000Y-5540000D02*
X-1500000Y-5580000D01*
X-1401000Y-4691000D02*
X-1361000Y-4731000D01*
X-1361000Y-4691000D02*
X-1401000Y-4731000D01*
X-1325000Y-1825000D02*
X-1285000Y-1865000D01*
X-1285000Y-1825000D02*
X-1325000Y-1865000D01*
X-1310000Y-2910000D02*
X-1270000Y-2950000D01*
X-1270000Y-2910000D02*
X-1310000Y-2950000D01*
X-1280000Y-6565000D02*
X-1240000Y-6605000D01*
X-1240000Y-6565000D02*
X-1280000Y-6605000D01*
X-1270000Y-3270000D02*
X-1230000Y-3310000D01*
X-1230000Y-3270000D02*
X-1270000Y-3310000D01*
X-1219000Y-5540000D02*
X-1179000Y-5580000D01*
X-1179000Y-5540000D02*
X-1219000Y-5580000D01*
X-1215000Y-7450000D02*
X-1175000Y-7490000D01*
X-1175000Y-7450000D02*
X-1215000Y-7490000D01*
X-1114000Y-4690000D02*
X-1074000Y-4730000D01*
X-1074000Y-4690000D02*
X-1114000Y-4730000D01*
X-1054000Y-3061000D02*
X-1014000Y-3101000D01*
X-1014000Y-3061000D02*
X-1054000Y-3101000D01*
X-1048700Y-1491300D02*
X-1008700Y-1531300D01*
X-1008700Y-1491300D02*
X-1048700Y-1531300D01*
X-1010600Y-7676200D02*
X-970600Y-7716200D01*
X-970600Y-7676200D02*
X-1010600Y-7716200D01*
X-977000Y-5310000D02*
X-937000Y-5350000D01*
X-937000Y-5310000D02*
X-977000Y-5350000D01*
X-976000Y-5030000D02*
X-936000Y-5070000D01*
X-936000Y-5030000D02*
X-976000Y-5070000D01*
X-950000Y-1650000D02*
X-910000Y-1690000D01*
X-910000Y-1650000D02*
X-950000Y-1690000D01*
X-935000Y-3875000D02*
X-895000Y-3915000D01*
X-895000Y-3875000D02*
X-935000Y-3915000D01*
X-875000Y-1300000D02*
X-835000Y-1340000D01*
X-835000Y-1300000D02*
X-875000Y-1340000D01*
X-865000Y-2880000D02*
X-825000Y-2920000D01*
X-825000Y-2880000D02*
X-865000Y-2920000D01*
X-830000Y-5850000D02*
X-790000Y-5890000D01*
X-790000Y-5850000D02*
X-830000Y-5890000D01*
X-782000Y-3144250D02*
X-742000Y-3184250D01*
X-742000Y-3144250D02*
X-782000Y-3184250D01*
X-695000Y-4510000D02*
X-655000Y-4550000D01*
X-655000Y-4510000D02*
X-695000Y-4550000D01*
X-690000Y-3795000D02*
X-650000Y-3835000D01*
X-650000Y-3795000D02*
X-690000Y-3835000D01*
X-690000Y-6560000D02*
X-650000Y-6600000D01*
X-650000Y-6560000D02*
X-690000Y-6600000D01*
X-600000Y-5410000D02*
X-560000Y-5450000D01*
X-560000Y-5410000D02*
X-600000Y-5450000D01*
X-550000Y-7430000D02*
X-510000Y-7470000D01*
X-510000Y-7430000D02*
X-550000Y-7470000D01*
X-545000Y-5855000D02*
X-505000Y-5895000D01*
X-505000Y-5855000D02*
X-545000Y-5895000D01*
X-527400Y-5330000D02*
X-487400Y-5370000D01*
X-487400Y-5330000D02*
X-527400Y-5370000D01*
X-502600Y-2621600D02*
X-462600Y-2661600D01*
X-462600Y-2621600D02*
X-502600Y-2661600D01*
X-480000Y-1630000D02*
X-440000Y-1670000D01*
X-440000Y-1630000D02*
X-480000Y-1670000D01*
X-460000Y-5590000D02*
X-420000Y-5630000D01*
X-420000Y-5590000D02*
X-460000Y-5630000D01*
X-460000Y-6140000D02*
X-420000Y-6180000D01*
X-420000Y-6140000D02*
X-460000Y-6180000D01*
X-450000Y-8065000D02*
X-410000Y-8105000D01*
X-410000Y-8065000D02*
X-450000Y-8105000D01*
X-440000Y-2280000D02*
X-400000Y-2320000D01*
X-400000Y-2280000D02*
X-440000Y-2320000D01*
X-440000Y-8670000D02*
X-400000Y-8710000D01*
X-400000Y-8670000D02*
X-440000Y-8710000D01*
X-401000Y-2494600D02*
X-361000Y-2534600D01*
X-361000Y-2494600D02*
X-401000Y-2534600D01*
X-371850Y-2740567D02*
X-331850Y-2780567D01*
X-331850Y-2740567D02*
X-371850Y-2780567D01*
X-370000Y-6960000D02*
X-330000Y-7000000D01*
X-330000Y-6960000D02*
X-370000Y-7000000D01*
X-299400Y-3189200D02*
X-259400Y-3229200D01*
X-259400Y-3189200D02*
X-299400Y-3229200D01*
X-272500Y-4831400D02*
X-232500Y-4871400D01*
X-232500Y-4831400D02*
X-272500Y-4871400D01*
X-270000Y-3465000D02*
X-230000Y-3505000D01*
X-230000Y-3465000D02*
X-270000Y-3505000D01*
X-180000Y-2275000D02*
X-140000Y-2315000D01*
X-140000Y-2275000D02*
X-180000Y-2315000D01*
X-168750Y-4975450D02*
X-128750Y-5015450D01*
X-128750Y-4975450D02*
X-168750Y-5015450D01*
X-150000Y-1730000D02*
X-110000Y-1770000D01*
X-110000Y-1730000D02*
X-150000Y-1770000D01*
X-150000Y-5810000D02*
X-110000Y-5850000D01*
X-110000Y-5810000D02*
X-150000Y-5850000D01*
X-145000Y-8785000D02*
X-105000Y-8825000D01*
X-105000Y-8785000D02*
X-145000Y-8825000D01*
X-121600Y-2748600D02*
X-81600Y-2788600D01*
X-81600Y-2748600D02*
X-121600Y-2788600D01*
X-115000Y-4510000D02*
X-75000Y-4550000D01*
X-75000Y-4510000D02*
X-115000Y-4550000D01*
X-110000Y-3790000D02*
X-70000Y-3830000D01*
X-70000Y-3790000D02*
X-110000Y-3830000D01*
X-79550Y-3189200D02*
X-39550Y-3229200D01*
X-39550Y-3189200D02*
X-79550Y-3229200D01*
X-40000Y-5090000D02*
X0Y-5130000D01*
X0Y-5090000D02*
X-40000Y-5130000D01*
X-30000Y-370000D02*
X10000Y-410000D01*
X10000Y-370000D02*
X-30000Y-410000D01*
X-30000Y-6590000D02*
X10000Y-6630000D01*
X10000Y-6590000D02*
X-30000Y-6630000D01*
X-30000Y-7330000D02*
X10000Y-7370000D01*
X10000Y-7330000D02*
X-30000Y-7370000D01*
X-22105Y-5461918D02*
X17895Y-5501918D01*
X17895Y-5461918D02*
X-22105Y-5501918D01*
X-20000Y-1300000D02*
X20000Y-1340000D01*
X20000Y-1300000D02*
X-20000Y-1340000D01*
X-11553Y-5242217D02*
X28447Y-5282217D01*
X28447Y-5242217D02*
X-11553Y-5282217D01*
X-7300Y-4806000D02*
X32700Y-4846000D01*
X32700Y-4806000D02*
X-7300Y-4846000D01*
X5400Y-2494600D02*
X45400Y-2534600D01*
X45400Y-2494600D02*
X5400Y-2534600D01*
X5400Y-3459800D02*
X45400Y-3499800D01*
X45400Y-3459800D02*
X5400Y-3499800D01*
X56300Y-5737550D02*
X96300Y-5777550D01*
X96300Y-5737550D02*
X56300Y-5777550D01*
X110000Y-1735000D02*
X150000Y-1775000D01*
X150000Y-1735000D02*
X110000Y-1775000D01*
X110000Y-2265000D02*
X150000Y-2305000D01*
X150000Y-2265000D02*
X110000Y-2305000D01*
X110000Y-8785000D02*
X150000Y-8825000D01*
X150000Y-8785000D02*
X110000Y-8825000D01*
X120000Y-4975450D02*
X160000Y-5015450D01*
X160000Y-4975450D02*
X120000Y-5015450D01*
X128750Y-1480000D02*
X168750Y-1520000D01*
X168750Y-1480000D02*
X128750Y-1520000D01*
X140000Y-7717550D02*
X180000Y-7757550D01*
X180000Y-7717550D02*
X140000Y-7757550D01*
X145100Y-2621600D02*
X185100Y-2661600D01*
X185100Y-2621600D02*
X145100Y-2661600D01*
X186950Y-3472500D02*
X226950Y-3512500D01*
X226950Y-3472500D02*
X186950Y-3512500D01*
X186950Y-4662578D02*
X226950Y-4702578D01*
X226950Y-4662578D02*
X186950Y-4702578D01*
X220000Y-8190000D02*
X260000Y-8230000D01*
X260000Y-8190000D02*
X220000Y-8230000D01*
X230000Y-6590000D02*
X270000Y-6630000D01*
X270000Y-6590000D02*
X230000Y-6630000D01*
X230000Y-7320000D02*
X270000Y-7360000D01*
X270000Y-7320000D02*
X230000Y-7360000D01*
X234000Y-2875600D02*
X274000Y-2915600D01*
X274000Y-2875600D02*
X234000Y-2915600D01*
X282497Y-5085400D02*
X322497Y-5125400D01*
X322497Y-5085400D02*
X282497Y-5125400D01*
X282503Y-5593400D02*
X322503Y-5633400D01*
X322503Y-5593400D02*
X282503Y-5633400D01*
X288000Y-5898200D02*
X328000Y-5938200D01*
X328000Y-5898200D02*
X288000Y-5938200D01*
X331750Y-1656400D02*
X371750Y-1696400D01*
X371750Y-1656400D02*
X331750Y-1696400D01*
X331750Y-2062800D02*
X371750Y-2102800D01*
X371750Y-2062800D02*
X331750Y-2102800D01*
X365000Y-8790000D02*
X405000Y-8830000D01*
X405000Y-8790000D02*
X365000Y-8830000D01*
X373382Y-4653282D02*
X413382Y-4693282D01*
X413382Y-4653282D02*
X373382Y-4693282D01*
X373700Y-2481900D02*
X413700Y-2521900D01*
X413700Y-2481900D02*
X373700Y-2521900D01*
X470000Y-8075000D02*
X510000Y-8115000D01*
X510000Y-8075000D02*
X470000Y-8115000D01*
X485000Y-3355000D02*
X525000Y-3395000D01*
X525000Y-3355000D02*
X485000Y-3395000D01*
X520000Y-4460000D02*
X560000Y-4500000D01*
X560000Y-4460000D02*
X520000Y-4500000D01*
X540000Y-4790000D02*
X580000Y-4830000D01*
X580000Y-4790000D02*
X540000Y-4830000D01*
X540000Y-5230000D02*
X580000Y-5270000D01*
X580000Y-5230000D02*
X540000Y-5270000D01*
X540000Y-5480000D02*
X580000Y-5520000D01*
X580000Y-5480000D02*
X540000Y-5520000D01*
X540000Y-7320000D02*
X580000Y-7360000D01*
X580000Y-7320000D02*
X540000Y-7360000D01*
X550000Y-6590000D02*
X590000Y-6630000D01*
X590000Y-6590000D02*
X550000Y-6630000D01*
X556000Y-6014000D02*
X596000Y-6054000D01*
X596000Y-6014000D02*
X556000Y-6054000D01*
X635000Y-2345000D02*
X675000Y-2385000D01*
X675000Y-2345000D02*
X635000Y-2385000D01*
X716600Y-3269300D02*
X756600Y-3309300D01*
X756600Y-3269300D02*
X716600Y-3309300D01*
X730000Y-7790000D02*
X770000Y-7830000D01*
X770000Y-7790000D02*
X730000Y-7830000D01*
X870000Y-3800000D02*
X910000Y-3840000D01*
X910000Y-3800000D02*
X870000Y-3840000D01*
X875000Y-4955000D02*
X915000Y-4995000D01*
X915000Y-4955000D02*
X875000Y-4995000D01*
X885000Y-1450000D02*
X925000Y-1490000D01*
X925000Y-1450000D02*
X885000Y-1490000D01*
X885000Y-5565000D02*
X925000Y-5605000D01*
X925000Y-5565000D02*
X885000Y-5605000D01*
X890000Y-6710000D02*
X930000Y-6750000D01*
X930000Y-6710000D02*
X890000Y-6750000D01*
X928000Y-6017000D02*
X968000Y-6057000D01*
X968000Y-6017000D02*
X928000Y-6057000D01*
X970000Y-7370000D02*
X1010000Y-7410000D01*
X1010000Y-7370000D02*
X970000Y-7410000D01*
X1110300Y-6469700D02*
X1150300Y-6509700D01*
X1150300Y-6469700D02*
X1110300Y-6509700D01*
X1150000Y-5820000D02*
X1190000Y-5860000D01*
X1190000Y-5820000D02*
X1150000Y-5860000D01*
X1190900Y-5237800D02*
X1230900Y-5277800D01*
X1230900Y-5237800D02*
X1190900Y-5277800D01*
X1275400Y-3078800D02*
X1315400Y-3118800D01*
X1315400Y-3078800D02*
X1275400Y-3118800D01*
X1315000Y-7590000D02*
X1355000Y-7630000D01*
X1355000Y-7590000D02*
X1315000Y-7630000D01*
X1355000Y-1945000D02*
X1395000Y-1985000D01*
X1395000Y-1945000D02*
X1355000Y-1985000D01*
X1389700Y-3269300D02*
X1429700Y-3309300D01*
X1429700Y-3269300D02*
X1389700Y-3309300D01*
X1402400Y-3028000D02*
X1442400Y-3068000D01*
X1442400Y-3028000D02*
X1402400Y-3068000D01*
X1405000Y-2189800D02*
X1445000Y-2229800D01*
X1445000Y-2189800D02*
X1405000Y-2229800D01*
X1405000Y-2570800D02*
X1445000Y-2610800D01*
X1445000Y-2570800D02*
X1405000Y-2610800D01*
X1410000Y-5820000D02*
X1450000Y-5860000D01*
X1450000Y-5820000D02*
X1410000Y-5860000D01*
X1427800Y-4856800D02*
X1467800Y-4896800D01*
X1467800Y-4856800D02*
X1427800Y-4896800D01*
X1430000Y-5656900D02*
X1470000Y-5696900D01*
X1470000Y-5656900D02*
X1430000Y-5696900D01*
X1501000Y-2373000D02*
X1541000Y-2413000D01*
X1541000Y-2373000D02*
X1501000Y-2413000D01*
X1504000Y-3155000D02*
X1544000Y-3195000D01*
X1544000Y-3155000D02*
X1504000Y-3195000D01*
X1535000Y-6600000D02*
X1575000Y-6640000D01*
X1575000Y-6600000D02*
X1535000Y-6640000D01*
X1550000Y-6019000D02*
X1590000Y-6059000D01*
X1590000Y-6019000D02*
X1550000Y-6059000D01*
X1550000Y-6245000D02*
X1590000Y-6285000D01*
X1590000Y-6245000D02*
X1550000Y-6285000D01*
X1605600Y-2189800D02*
X1645600Y-2229800D01*
X1645600Y-2189800D02*
X1605600Y-2229800D01*
X1605600Y-3078800D02*
X1645600Y-3118800D01*
X1645600Y-3078800D02*
X1605600Y-3118800D01*
X1680000Y-3255000D02*
X1720000Y-3295000D01*
X1720000Y-3255000D02*
X1680000Y-3295000D01*
X1690000Y-2885000D02*
X1730000Y-2925000D01*
X1730000Y-2885000D02*
X1690000Y-2925000D01*
X1745000Y-2365000D02*
X1785000Y-2405000D01*
X1785000Y-2365000D02*
X1745000Y-2405000D01*
X1831250Y-3080000D02*
X1871250Y-3120000D01*
X1871250Y-3080000D02*
X1831250Y-3120000D01*
X1975000Y-2625000D02*
X2015000Y-2665000D01*
X2015000Y-2625000D02*
X1975000Y-2665000D01*
X2100900Y-7536500D02*
X2140900Y-7576500D01*
X2140900Y-7536500D02*
X2100900Y-7576500D01*
X2113600Y-2774000D02*
X2153600Y-2814000D01*
X2153600Y-2774000D02*
X2113600Y-2814000D01*
X2170000Y-5400000D02*
X2210000Y-5440000D01*
X2210000Y-5400000D02*
X2170000Y-5440000D01*
X2260000Y-2915000D02*
X2300000Y-2955000D01*
X2300000Y-2915000D02*
X2260000Y-2955000D01*
X2260000Y-6315000D02*
X2300000Y-6355000D01*
X2300000Y-6315000D02*
X2260000Y-6355000D01*
X2393000Y-5809300D02*
X2433000Y-5849300D01*
X2433000Y-5809300D02*
X2393000Y-5849300D01*
X2430000Y-3250000D02*
X2470000Y-3290000D01*
X2470000Y-3250000D02*
X2430000Y-3290000D01*
X2481900Y-7003100D02*
X2521900Y-7043100D01*
X2521900Y-7003100D02*
X2481900Y-7043100D01*
X2494600Y-6459600D02*
X2534600Y-6499600D01*
X2534600Y-6459600D02*
X2494600Y-6499600D01*
X3140000Y-6670000D02*
X3180000Y-6710000D01*
X3180000Y-6670000D02*
X3140000Y-6710000D01*
X3510600Y-7676200D02*
X3550600Y-7716200D01*
X3550600Y-7676200D02*
X3510600Y-7716200D01*
X3828750Y-7680000D02*
X3868750Y-7720000D01*
X3868750Y-7680000D02*
X3828750Y-7720000D01*
X4095000Y-7810000D02*
X4135000Y-7850000D01*
X4135000Y-7810000D02*
X4095000Y-7850000D01*
D11*
X-4182842Y-10316484D02*
X-4182842Y-10116484D01*
X-4182842Y-10116484D02*
X-4135223Y-10116484D01*
X-4135223Y-10116484D02*
X-4106652Y-10126008D01*
X-4106652Y-10126008D02*
X-4087604Y-10145055D01*
X-4087604Y-10145055D02*
X-4078080Y-10164103D01*
X-4078080Y-10164103D02*
X-4068556Y-10202198D01*
X-4068556Y-10202198D02*
X-4068556Y-10230770D01*
X-4068556Y-10230770D02*
X-4078080Y-10268865D01*
X-4078080Y-10268865D02*
X-4087604Y-10287912D01*
X-4087604Y-10287912D02*
X-4106652Y-10306960D01*
X-4106652Y-10306960D02*
X-4135223Y-10316484D01*
X-4135223Y-10316484D02*
X-4182842Y-10316484D01*
X-3982842Y-10316484D02*
X-3982842Y-10183150D01*
X-3982842Y-10221246D02*
X-3973318Y-10202198D01*
X-3973318Y-10202198D02*
X-3963794Y-10192674D01*
X-3963794Y-10192674D02*
X-3944747Y-10183150D01*
X-3944747Y-10183150D02*
X-3925699Y-10183150D01*
X-3859033Y-10316484D02*
X-3859033Y-10183150D01*
X-3859033Y-10116484D02*
X-3868556Y-10126008D01*
X-3868556Y-10126008D02*
X-3859033Y-10135531D01*
X-3859033Y-10135531D02*
X-3849509Y-10126008D01*
X-3849509Y-10126008D02*
X-3859033Y-10116484D01*
X-3859033Y-10116484D02*
X-3859033Y-10135531D01*
X-3735223Y-10316484D02*
X-3754271Y-10306960D01*
X-3754271Y-10306960D02*
X-3763794Y-10287912D01*
X-3763794Y-10287912D02*
X-3763794Y-10116484D01*
X-3630461Y-10316484D02*
X-3649509Y-10306960D01*
X-3649509Y-10306960D02*
X-3659033Y-10287912D01*
X-3659033Y-10287912D02*
X-3659033Y-10116484D01*
X-3401890Y-10316484D02*
X-3401890Y-10116484D01*
X-3401890Y-10116484D02*
X-3335223Y-10259341D01*
X-3335223Y-10259341D02*
X-3268556Y-10116484D01*
X-3268556Y-10116484D02*
X-3268556Y-10316484D01*
X-3087604Y-10316484D02*
X-3087604Y-10211722D01*
X-3087604Y-10211722D02*
X-3097128Y-10192674D01*
X-3097128Y-10192674D02*
X-3116175Y-10183150D01*
X-3116175Y-10183150D02*
X-3154271Y-10183150D01*
X-3154271Y-10183150D02*
X-3173318Y-10192674D01*
X-3087604Y-10306960D02*
X-3106652Y-10316484D01*
X-3106652Y-10316484D02*
X-3154271Y-10316484D01*
X-3154271Y-10316484D02*
X-3173318Y-10306960D01*
X-3173318Y-10306960D02*
X-3182842Y-10287912D01*
X-3182842Y-10287912D02*
X-3182842Y-10268865D01*
X-3182842Y-10268865D02*
X-3173318Y-10249817D01*
X-3173318Y-10249817D02*
X-3154271Y-10240293D01*
X-3154271Y-10240293D02*
X-3106652Y-10240293D01*
X-3106652Y-10240293D02*
X-3087604Y-10230770D01*
X-2992366Y-10183150D02*
X-2992366Y-10383150D01*
X-2992366Y-10192674D02*
X-2973318Y-10183150D01*
X-2973318Y-10183150D02*
X-2935223Y-10183150D01*
X-2935223Y-10183150D02*
X-2916175Y-10192674D01*
X-2916175Y-10192674D02*
X-2906652Y-10202198D01*
X-2906652Y-10202198D02*
X-2897128Y-10221246D01*
X-2897128Y-10221246D02*
X-2897128Y-10278389D01*
X-2897128Y-10278389D02*
X-2906652Y-10297436D01*
X-2906652Y-10297436D02*
X-2916175Y-10306960D01*
X-2916175Y-10306960D02*
X-2935223Y-10316484D01*
X-2935223Y-10316484D02*
X-2973318Y-10316484D01*
X-2973318Y-10316484D02*
X-2992366Y-10306960D01*
X-2811413Y-10297436D02*
X-2801890Y-10306960D01*
X-2801890Y-10306960D02*
X-2811413Y-10316484D01*
X-2811413Y-10316484D02*
X-2820937Y-10306960D01*
X-2820937Y-10306960D02*
X-2811413Y-10297436D01*
X-2811413Y-10297436D02*
X-2811413Y-10316484D01*
X-2811413Y-10192674D02*
X-2801890Y-10202198D01*
X-2801890Y-10202198D02*
X-2811413Y-10211722D01*
X-2811413Y-10211722D02*
X-2820937Y-10202198D01*
X-2820937Y-10202198D02*
X-2811413Y-10192674D01*
X-2811413Y-10192674D02*
X-2811413Y-10211722D01*
D10*
X-4483619Y-10625000D02*
X-4443619Y-10665000D01*
X-4443619Y-10625000D02*
X-4483619Y-10665000D01*
D11*
X-4144747Y-10536484D02*
X-4125699Y-10536484D01*
X-4125699Y-10536484D02*
X-4106652Y-10546008D01*
X-4106652Y-10546008D02*
X-4097128Y-10555531D01*
X-4097128Y-10555531D02*
X-4087604Y-10574579D01*
X-4087604Y-10574579D02*
X-4078080Y-10612674D01*
X-4078080Y-10612674D02*
X-4078080Y-10660293D01*
X-4078080Y-10660293D02*
X-4087604Y-10698389D01*
X-4087604Y-10698389D02*
X-4097128Y-10717436D01*
X-4097128Y-10717436D02*
X-4106652Y-10726960D01*
X-4106652Y-10726960D02*
X-4125699Y-10736484D01*
X-4125699Y-10736484D02*
X-4144747Y-10736484D01*
X-4144747Y-10736484D02*
X-4163794Y-10726960D01*
X-4163794Y-10726960D02*
X-4173318Y-10717436D01*
X-4173318Y-10717436D02*
X-4182842Y-10698389D01*
X-4182842Y-10698389D02*
X-4192366Y-10660293D01*
X-4192366Y-10660293D02*
X-4192366Y-10612674D01*
X-4192366Y-10612674D02*
X-4182842Y-10574579D01*
X-4182842Y-10574579D02*
X-4173318Y-10555531D01*
X-4173318Y-10555531D02*
X-4163794Y-10546008D01*
X-4163794Y-10546008D02*
X-4144747Y-10536484D01*
X-3992366Y-10717436D02*
X-3982842Y-10726960D01*
X-3982842Y-10726960D02*
X-3992366Y-10736484D01*
X-3992366Y-10736484D02*
X-4001890Y-10726960D01*
X-4001890Y-10726960D02*
X-3992366Y-10717436D01*
X-3992366Y-10717436D02*
X-3992366Y-10736484D01*
X-3811413Y-10603150D02*
X-3811413Y-10736484D01*
X-3859033Y-10526960D02*
X-3906652Y-10669817D01*
X-3906652Y-10669817D02*
X-3782842Y-10669817D01*
X-3668556Y-10536484D02*
X-3649509Y-10536484D01*
X-3649509Y-10536484D02*
X-3630461Y-10546008D01*
X-3630461Y-10546008D02*
X-3620937Y-10555531D01*
X-3620937Y-10555531D02*
X-3611413Y-10574579D01*
X-3611413Y-10574579D02*
X-3601890Y-10612674D01*
X-3601890Y-10612674D02*
X-3601890Y-10660293D01*
X-3601890Y-10660293D02*
X-3611413Y-10698389D01*
X-3611413Y-10698389D02*
X-3620937Y-10717436D01*
X-3620937Y-10717436D02*
X-3630461Y-10726960D01*
X-3630461Y-10726960D02*
X-3649509Y-10736484D01*
X-3649509Y-10736484D02*
X-3668556Y-10736484D01*
X-3668556Y-10736484D02*
X-3687604Y-10726960D01*
X-3687604Y-10726960D02*
X-3697128Y-10717436D01*
X-3697128Y-10717436D02*
X-3706652Y-10698389D01*
X-3706652Y-10698389D02*
X-3716175Y-10660293D01*
X-3716175Y-10660293D02*
X-3716175Y-10612674D01*
X-3716175Y-10612674D02*
X-3706652Y-10574579D01*
X-3706652Y-10574579D02*
X-3697128Y-10555531D01*
X-3697128Y-10555531D02*
X-3687604Y-10546008D01*
X-3687604Y-10546008D02*
X-3668556Y-10536484D01*
X-3478080Y-10536484D02*
X-3459032Y-10536484D01*
X-3459032Y-10536484D02*
X-3439985Y-10546008D01*
X-3439985Y-10546008D02*
X-3430461Y-10555531D01*
X-3430461Y-10555531D02*
X-3420937Y-10574579D01*
X-3420937Y-10574579D02*
X-3411413Y-10612674D01*
X-3411413Y-10612674D02*
X-3411413Y-10660293D01*
X-3411413Y-10660293D02*
X-3420937Y-10698389D01*
X-3420937Y-10698389D02*
X-3430461Y-10717436D01*
X-3430461Y-10717436D02*
X-3439985Y-10726960D01*
X-3439985Y-10726960D02*
X-3459032Y-10736484D01*
X-3459032Y-10736484D02*
X-3478080Y-10736484D01*
X-3478080Y-10736484D02*
X-3497128Y-10726960D01*
X-3497128Y-10726960D02*
X-3506652Y-10717436D01*
X-3506652Y-10717436D02*
X-3516175Y-10698389D01*
X-3516175Y-10698389D02*
X-3525699Y-10660293D01*
X-3525699Y-10660293D02*
X-3525699Y-10612674D01*
X-3525699Y-10612674D02*
X-3516175Y-10574579D01*
X-3516175Y-10574579D02*
X-3506652Y-10555531D01*
X-3506652Y-10555531D02*
X-3497128Y-10546008D01*
X-3497128Y-10546008D02*
X-3478080Y-10536484D01*
X-3325699Y-10736484D02*
X-3325699Y-10603150D01*
X-3325699Y-10622198D02*
X-3316175Y-10612674D01*
X-3316175Y-10612674D02*
X-3297128Y-10603150D01*
X-3297128Y-10603150D02*
X-3268556Y-10603150D01*
X-3268556Y-10603150D02*
X-3249509Y-10612674D01*
X-3249509Y-10612674D02*
X-3239985Y-10631722D01*
X-3239985Y-10631722D02*
X-3239985Y-10736484D01*
X-3239985Y-10631722D02*
X-3230461Y-10612674D01*
X-3230461Y-10612674D02*
X-3211413Y-10603150D01*
X-3211413Y-10603150D02*
X-3182842Y-10603150D01*
X-3182842Y-10603150D02*
X-3163794Y-10612674D01*
X-3163794Y-10612674D02*
X-3154271Y-10631722D01*
X-3154271Y-10631722D02*
X-3154271Y-10736484D01*
X-3059032Y-10736484D02*
X-3059032Y-10603150D01*
X-3059032Y-10622198D02*
X-3049509Y-10612674D01*
X-3049509Y-10612674D02*
X-3030461Y-10603150D01*
X-3030461Y-10603150D02*
X-3001890Y-10603150D01*
X-3001890Y-10603150D02*
X-2982842Y-10612674D01*
X-2982842Y-10612674D02*
X-2973318Y-10631722D01*
X-2973318Y-10631722D02*
X-2973318Y-10736484D01*
X-2973318Y-10631722D02*
X-2963794Y-10612674D01*
X-2963794Y-10612674D02*
X-2944747Y-10603150D01*
X-2944747Y-10603150D02*
X-2916175Y-10603150D01*
X-2916175Y-10603150D02*
X-2897128Y-10612674D01*
X-2897128Y-10612674D02*
X-2887604Y-10631722D01*
X-2887604Y-10631722D02*
X-2887604Y-10736484D01*
X-2497128Y-10526960D02*
X-2668556Y-10784103D01*
X-2239985Y-10536484D02*
X-2220937Y-10536484D01*
X-2220937Y-10536484D02*
X-2201890Y-10546008D01*
X-2201890Y-10546008D02*
X-2192366Y-10555531D01*
X-2192366Y-10555531D02*
X-2182842Y-10574579D01*
X-2182842Y-10574579D02*
X-2173318Y-10612674D01*
X-2173318Y-10612674D02*
X-2173318Y-10660293D01*
X-2173318Y-10660293D02*
X-2182842Y-10698389D01*
X-2182842Y-10698389D02*
X-2192366Y-10717436D01*
X-2192366Y-10717436D02*
X-2201890Y-10726960D01*
X-2201890Y-10726960D02*
X-2220937Y-10736484D01*
X-2220937Y-10736484D02*
X-2239985Y-10736484D01*
X-2239985Y-10736484D02*
X-2259032Y-10726960D01*
X-2259032Y-10726960D02*
X-2268556Y-10717436D01*
X-2268556Y-10717436D02*
X-2278080Y-10698389D01*
X-2278080Y-10698389D02*
X-2287604Y-10660293D01*
X-2287604Y-10660293D02*
X-2287604Y-10612674D01*
X-2287604Y-10612674D02*
X-2278080Y-10574579D01*
X-2278080Y-10574579D02*
X-2268556Y-10555531D01*
X-2268556Y-10555531D02*
X-2259032Y-10546008D01*
X-2259032Y-10546008D02*
X-2239985Y-10536484D01*
X-2087604Y-10717436D02*
X-2078080Y-10726960D01*
X-2078080Y-10726960D02*
X-2087604Y-10736484D01*
X-2087604Y-10736484D02*
X-2097128Y-10726960D01*
X-2097128Y-10726960D02*
X-2087604Y-10717436D01*
X-2087604Y-10717436D02*
X-2087604Y-10736484D01*
X-1954270Y-10536484D02*
X-1935223Y-10536484D01*
X-1935223Y-10536484D02*
X-1916175Y-10546008D01*
X-1916175Y-10546008D02*
X-1906651Y-10555531D01*
X-1906651Y-10555531D02*
X-1897128Y-10574579D01*
X-1897128Y-10574579D02*
X-1887604Y-10612674D01*
X-1887604Y-10612674D02*
X-1887604Y-10660293D01*
X-1887604Y-10660293D02*
X-1897128Y-10698389D01*
X-1897128Y-10698389D02*
X-1906651Y-10717436D01*
X-1906651Y-10717436D02*
X-1916175Y-10726960D01*
X-1916175Y-10726960D02*
X-1935223Y-10736484D01*
X-1935223Y-10736484D02*
X-1954270Y-10736484D01*
X-1954270Y-10736484D02*
X-1973318Y-10726960D01*
X-1973318Y-10726960D02*
X-1982842Y-10717436D01*
X-1982842Y-10717436D02*
X-1992366Y-10698389D01*
X-1992366Y-10698389D02*
X-2001889Y-10660293D01*
X-2001889Y-10660293D02*
X-2001889Y-10612674D01*
X-2001889Y-10612674D02*
X-1992366Y-10574579D01*
X-1992366Y-10574579D02*
X-1982842Y-10555531D01*
X-1982842Y-10555531D02*
X-1973318Y-10546008D01*
X-1973318Y-10546008D02*
X-1954270Y-10536484D01*
X-1697128Y-10736484D02*
X-1811413Y-10736484D01*
X-1754270Y-10736484D02*
X-1754270Y-10536484D01*
X-1754270Y-10536484D02*
X-1773318Y-10565055D01*
X-1773318Y-10565055D02*
X-1792366Y-10584103D01*
X-1792366Y-10584103D02*
X-1811413Y-10593627D01*
X-1516175Y-10536484D02*
X-1611413Y-10536484D01*
X-1611413Y-10536484D02*
X-1620937Y-10631722D01*
X-1620937Y-10631722D02*
X-1611413Y-10622198D01*
X-1611413Y-10622198D02*
X-1592366Y-10612674D01*
X-1592366Y-10612674D02*
X-1544747Y-10612674D01*
X-1544747Y-10612674D02*
X-1525699Y-10622198D01*
X-1525699Y-10622198D02*
X-1516175Y-10631722D01*
X-1516175Y-10631722D02*
X-1506651Y-10650770D01*
X-1506651Y-10650770D02*
X-1506651Y-10698389D01*
X-1506651Y-10698389D02*
X-1516175Y-10717436D01*
X-1516175Y-10717436D02*
X-1525699Y-10726960D01*
X-1525699Y-10726960D02*
X-1544747Y-10736484D01*
X-1544747Y-10736484D02*
X-1592366Y-10736484D01*
X-1592366Y-10736484D02*
X-1611413Y-10726960D01*
X-1611413Y-10726960D02*
X-1620937Y-10717436D01*
X-1439985Y-10536484D02*
X-1306651Y-10536484D01*
X-1306651Y-10536484D02*
X-1392366Y-10736484D01*
X-1239985Y-10536484D02*
X-1239985Y-10574579D01*
X-1163794Y-10536484D02*
X-1163794Y-10574579D01*
X-868556Y-10812674D02*
X-878080Y-10803150D01*
X-878080Y-10803150D02*
X-897127Y-10774579D01*
X-897127Y-10774579D02*
X-906651Y-10755531D01*
X-906651Y-10755531D02*
X-916175Y-10726960D01*
X-916175Y-10726960D02*
X-925699Y-10679341D01*
X-925699Y-10679341D02*
X-925699Y-10641246D01*
X-925699Y-10641246D02*
X-916175Y-10593627D01*
X-916175Y-10593627D02*
X-906651Y-10565055D01*
X-906651Y-10565055D02*
X-897127Y-10546008D01*
X-897127Y-10546008D02*
X-878080Y-10517436D01*
X-878080Y-10517436D02*
X-868556Y-10507912D01*
X-687604Y-10736484D02*
X-801889Y-10736484D01*
X-744747Y-10736484D02*
X-744747Y-10536484D01*
X-744747Y-10536484D02*
X-763794Y-10565055D01*
X-763794Y-10565055D02*
X-782842Y-10584103D01*
X-782842Y-10584103D02*
X-801889Y-10593627D01*
X-506651Y-10536484D02*
X-601889Y-10536484D01*
X-601889Y-10536484D02*
X-611413Y-10631722D01*
X-611413Y-10631722D02*
X-601889Y-10622198D01*
X-601889Y-10622198D02*
X-582842Y-10612674D01*
X-582842Y-10612674D02*
X-535223Y-10612674D01*
X-535223Y-10612674D02*
X-516175Y-10622198D01*
X-516175Y-10622198D02*
X-506651Y-10631722D01*
X-506651Y-10631722D02*
X-497127Y-10650770D01*
X-497127Y-10650770D02*
X-497127Y-10698389D01*
X-497127Y-10698389D02*
X-506651Y-10717436D01*
X-506651Y-10717436D02*
X-516175Y-10726960D01*
X-516175Y-10726960D02*
X-535223Y-10736484D01*
X-535223Y-10736484D02*
X-582842Y-10736484D01*
X-582842Y-10736484D02*
X-601889Y-10726960D01*
X-601889Y-10726960D02*
X-611413Y-10717436D01*
X-420937Y-10555531D02*
X-411413Y-10546008D01*
X-411413Y-10546008D02*
X-392366Y-10536484D01*
X-392366Y-10536484D02*
X-344747Y-10536484D01*
X-344747Y-10536484D02*
X-325699Y-10546008D01*
X-325699Y-10546008D02*
X-316175Y-10555531D01*
X-316175Y-10555531D02*
X-306651Y-10574579D01*
X-306651Y-10574579D02*
X-306651Y-10593627D01*
X-306651Y-10593627D02*
X-316175Y-10622198D01*
X-316175Y-10622198D02*
X-430461Y-10736484D01*
X-430461Y-10736484D02*
X-306651Y-10736484D01*
X-68556Y-10736484D02*
X-68556Y-10536484D01*
X17158Y-10736484D02*
X17158Y-10631722D01*
X17158Y-10631722D02*
X7634Y-10612674D01*
X7634Y-10612674D02*
X-11413Y-10603150D01*
X-11413Y-10603150D02*
X-39985Y-10603150D01*
X-39985Y-10603150D02*
X-59032Y-10612674D01*
X-59032Y-10612674D02*
X-68556Y-10622198D01*
X140968Y-10736484D02*
X121920Y-10726960D01*
X121920Y-10726960D02*
X112396Y-10717436D01*
X112396Y-10717436D02*
X102872Y-10698389D01*
X102872Y-10698389D02*
X102872Y-10641246D01*
X102872Y-10641246D02*
X112396Y-10622198D01*
X112396Y-10622198D02*
X121920Y-10612674D01*
X121920Y-10612674D02*
X140968Y-10603150D01*
X140968Y-10603150D02*
X169539Y-10603150D01*
X169539Y-10603150D02*
X188587Y-10612674D01*
X188587Y-10612674D02*
X198111Y-10622198D01*
X198111Y-10622198D02*
X207634Y-10641246D01*
X207634Y-10641246D02*
X207634Y-10698389D01*
X207634Y-10698389D02*
X198111Y-10717436D01*
X198111Y-10717436D02*
X188587Y-10726960D01*
X188587Y-10726960D02*
X169539Y-10736484D01*
X169539Y-10736484D02*
X140968Y-10736484D01*
X321920Y-10736484D02*
X302873Y-10726960D01*
X302873Y-10726960D02*
X293349Y-10707912D01*
X293349Y-10707912D02*
X293349Y-10536484D01*
X474301Y-10726960D02*
X455253Y-10736484D01*
X455253Y-10736484D02*
X417158Y-10736484D01*
X417158Y-10736484D02*
X398111Y-10726960D01*
X398111Y-10726960D02*
X388587Y-10707912D01*
X388587Y-10707912D02*
X388587Y-10631722D01*
X388587Y-10631722D02*
X398111Y-10612674D01*
X398111Y-10612674D02*
X417158Y-10603150D01*
X417158Y-10603150D02*
X455253Y-10603150D01*
X455253Y-10603150D02*
X474301Y-10612674D01*
X474301Y-10612674D02*
X483825Y-10631722D01*
X483825Y-10631722D02*
X483825Y-10650770D01*
X483825Y-10650770D02*
X388587Y-10669817D01*
X560015Y-10726960D02*
X579063Y-10736484D01*
X579063Y-10736484D02*
X617158Y-10736484D01*
X617158Y-10736484D02*
X636206Y-10726960D01*
X636206Y-10726960D02*
X645730Y-10707912D01*
X645730Y-10707912D02*
X645730Y-10698389D01*
X645730Y-10698389D02*
X636206Y-10679341D01*
X636206Y-10679341D02*
X617158Y-10669817D01*
X617158Y-10669817D02*
X588587Y-10669817D01*
X588587Y-10669817D02*
X569539Y-10660293D01*
X569539Y-10660293D02*
X560015Y-10641246D01*
X560015Y-10641246D02*
X560015Y-10631722D01*
X560015Y-10631722D02*
X569539Y-10612674D01*
X569539Y-10612674D02*
X588587Y-10603150D01*
X588587Y-10603150D02*
X617158Y-10603150D01*
X617158Y-10603150D02*
X636206Y-10612674D01*
X712396Y-10812674D02*
X721920Y-10803150D01*
X721920Y-10803150D02*
X740968Y-10774579D01*
X740968Y-10774579D02*
X750492Y-10755531D01*
X750492Y-10755531D02*
X760015Y-10726960D01*
X760015Y-10726960D02*
X769539Y-10679341D01*
X769539Y-10679341D02*
X769539Y-10641246D01*
X769539Y-10641246D02*
X760015Y-10593627D01*
X760015Y-10593627D02*
X750492Y-10565055D01*
X750492Y-10565055D02*
X740968Y-10546008D01*
X740968Y-10546008D02*
X721920Y-10517436D01*
X721920Y-10517436D02*
X712396Y-10507912D01*
M02*
