M48
; DRILL file {KiCad 7.0.2.1-36-g582732918d-dirty-deb11} date Fri Jan 19 22:57:27 2024
; FORMAT={-:-/ absolute / metric / decimal}
; #@! TF.CreationDate,2024-01-19T22:57:27+00:00
; #@! TF.GenerationSoftware,Kicad,Pcbnew,7.0.2.1-36-g582732918d-dirty-deb11
; #@! TF.FileFunction,Plated,1,2,PTH
FMAT,2
METRIC
; #@! TA.AperFunction,Plated,PTH,ViaDrill
T1C0.400
%
G90
G05
T1
X-40.9Y-77.95
X-38.2Y-77.3
X-35.306Y-76.962
X-31.9Y-68.9
X-26.95Y-59.75
X-24.6Y-75.9
X-24.5Y-32.2
X-21.9Y-60.2
X-21.488Y-30.734
X-21.05Y-28.7
X-20.8Y-69.4
X-18.542Y-31.514
X-18.05Y-51.18
X-18.05Y-54.06
X-14.8Y-55.6
X-13.81Y-47.11
X-13.05Y-18.45
X-12.9Y-29.3
X-12.6Y-65.85
X-12.5Y-32.9
X-11.99Y-55.6
X-11.95Y-74.7
X-10.94Y-47.1
X-10.34Y-30.81
X-10.287Y-15.113
X-9.906Y-76.962
X-9.57Y-53.3
X-9.56Y-50.5
X-9.3Y-16.7
X-9.15Y-38.95
X-8.55Y-13.2
X-8.45Y-29.0
X-8.1Y-58.7
X-7.62Y-31.642
X-6.75Y-45.3
X-6.7Y-38.15
X-6.7Y-65.8
X-5.8Y-54.3
X-5.3Y-74.5
X-5.25Y-58.75
X-5.074Y-53.5
X-4.826Y-26.416
X-4.6Y-16.5
X-4.4Y-56.1
X-4.4Y-61.6
X-4.3Y-80.85
X-4.2Y-23.0
X-4.2Y-86.9
X-3.81Y-25.146
X-3.518Y-27.606
X-3.5Y-69.8
X-2.794Y-32.092
X-2.525Y-48.514
X-2.5Y-34.85
X-1.6Y-22.95
X-1.487Y-49.954
X-1.3Y-17.5
X-1.3Y-58.3
X-1.25Y-88.05
X-1.016Y-27.686
X-0.95Y-45.3
X-0.9Y-38.1
X-0.595Y-32.092
X-0.2Y-51.1
X-0.1Y-3.9
X-0.1Y-66.1
X-0.1Y-73.5
X-0.021Y-54.819
X0.0Y-13.2
X0.084Y-52.622
X0.127Y-48.26
X0.254Y-25.146
X0.254Y-34.798
X0.763Y-57.575
X1.3Y-17.55
X1.3Y-22.85
X1.3Y-88.05
X1.4Y-49.954
X1.487Y-15.0
X1.6Y-77.376
X1.651Y-26.416
X2.07Y-34.925
X2.07Y-46.826
X2.4Y-82.1
X2.5Y-66.1
X2.5Y-73.4
X2.54Y-28.956
X3.025Y-51.054
X3.025Y-56.134
X3.08Y-59.182
X3.517Y-16.764
X3.517Y-20.828
X3.85Y-88.1
X3.934Y-46.733
X3.937Y-25.019
X4.9Y-80.95
X5.05Y-33.75
X5.4Y-44.8
X5.6Y-48.1
X5.6Y-52.5
X5.6Y-55.0
X5.6Y-73.4
X5.7Y-66.1
X5.76Y-60.34
X6.55Y-23.65
X7.366Y-32.893
X7.5Y-78.1
X8.9Y-38.2
X8.95Y-49.75
X9.05Y-14.7
X9.05Y-55.85
X9.1Y-67.3
X9.48Y-60.37
X9.9Y-73.9
X11.303Y-64.897
X11.7Y-58.4
X12.109Y-52.578
X12.954Y-30.988
X13.35Y-76.1
X13.75Y-19.65
X14.097Y-32.893
X14.224Y-30.48
X14.25Y-22.098
X14.25Y-25.908
X14.3Y-58.4
X14.478Y-48.768
X14.5Y-56.769
X15.21Y-23.93
X15.24Y-31.75
X15.55Y-66.2
X15.7Y-60.39
X15.7Y-62.65
X16.256Y-22.098
X16.256Y-30.988
X17.0Y-32.75
X17.1Y-29.05
X17.65Y-23.85
X18.512Y-31.0
X19.95Y-26.45
X21.209Y-75.565
X21.336Y-27.94
X21.9Y-54.2
X22.8Y-29.35
X22.8Y-63.35
X24.13Y-58.293
X24.5Y-32.7
X25.019Y-70.231
X25.146Y-64.796
X31.6Y-66.9
X35.306Y-76.962
X38.487Y-77.0
X41.15Y-78.3
T0
M30
