G04 #@! TF.GenerationSoftware,KiCad,Pcbnew,7.0.2.1-36-g582732918d-dirty-deb11*
G04 #@! TF.CreationDate,2024-01-19T17:51:50+00:00*
G04 #@! TF.ProjectId,baumsatz,6261756d-7361-4747-9a2e-6b696361645f,rev?*
G04 #@! TF.SameCoordinates,Original*
G04 #@! TF.FileFunction,Legend,Bot*
G04 #@! TF.FilePolarity,Positive*
%FSLAX46Y46*%
G04 Gerber Fmt 4.6, Leading zero omitted, Abs format (unit mm)*
G04 Created by KiCad (PCBNEW 7.0.2.1-36-g582732918d-dirty-deb11) date 2024-01-19 17:51:50*
%MOMM*%
%LPD*%
G01*
G04 APERTURE LIST*
%ADD10C,0.000000*%
%ADD11C,0.150000*%
%ADD12C,0.120000*%
%ADD13C,3.200000*%
G04 APERTURE END LIST*
D10*
G36*
X-173408Y-680134D02*
G01*
X9903Y-703650D01*
X190849Y-741842D01*
X369524Y-794041D01*
X546020Y-859579D01*
X720430Y-937785D01*
X892846Y-1027992D01*
X1063363Y-1129529D01*
X1232072Y-1241729D01*
X1399067Y-1363921D01*
X1728284Y-1635609D01*
X2051756Y-1939240D01*
X2370228Y-2269462D01*
X2684442Y-2620922D01*
X2995140Y-2988269D01*
X3608961Y-3749214D01*
X4217635Y-4509476D01*
X4521898Y-4875971D01*
X4827103Y-5226238D01*
X5369425Y-5841536D01*
X5678427Y-6210619D01*
X5995888Y-6611247D01*
X6309235Y-7036361D01*
X6605891Y-7478904D01*
X6873282Y-7931818D01*
X6992073Y-8159957D01*
X7098832Y-8388043D01*
X7191987Y-8615192D01*
X7269966Y-8840522D01*
X7331197Y-9063151D01*
X7374108Y-9282196D01*
X7397128Y-9496776D01*
X7398684Y-9706008D01*
X7377205Y-9909009D01*
X7331118Y-10104898D01*
X7258853Y-10292793D01*
X7158836Y-10471810D01*
X7029495Y-10641068D01*
X6869260Y-10799684D01*
X6676558Y-10946776D01*
X6449818Y-11081462D01*
X6187466Y-11202859D01*
X5887932Y-11310086D01*
X5756787Y-11347655D01*
X5630757Y-11377024D01*
X5509424Y-11399000D01*
X5392370Y-11414391D01*
X5279176Y-11424006D01*
X5169423Y-11428652D01*
X4958568Y-11426271D01*
X4559737Y-11397444D01*
X4365064Y-11383926D01*
X4169088Y-11379626D01*
X4069565Y-11382952D01*
X3968461Y-11391006D01*
X3865356Y-11404597D01*
X3759833Y-11424533D01*
X3651472Y-11451621D01*
X3539856Y-11486670D01*
X3424565Y-11530488D01*
X3305181Y-11583883D01*
X3181286Y-11647663D01*
X3052460Y-11722635D01*
X2918286Y-11809609D01*
X2778345Y-11909392D01*
X2632218Y-12022792D01*
X2479486Y-12150617D01*
X2319731Y-12293676D01*
X2152535Y-12452777D01*
X1979975Y-12612228D01*
X1816637Y-12744418D01*
X1662030Y-12850696D01*
X1515664Y-12932413D01*
X1377049Y-12990919D01*
X1245693Y-13027565D01*
X1121108Y-13043701D01*
X1002801Y-13040677D01*
X890284Y-13019845D01*
X783066Y-12982554D01*
X680655Y-12930155D01*
X582563Y-12863999D01*
X488298Y-12785435D01*
X397370Y-12695815D01*
X309290Y-12596489D01*
X223565Y-12488807D01*
X57224Y-12253778D01*
X-105577Y-12001531D01*
X-436246Y-11488600D01*
X-611961Y-11249523D01*
X-704130Y-11139058D01*
X-799827Y-11036443D01*
X-899542Y-10943028D01*
X-1003766Y-10860164D01*
X-1112990Y-10789201D01*
X-1227703Y-10731490D01*
X-1376459Y-10687440D01*
X-1557974Y-10666750D01*
X-1769219Y-10666950D01*
X-2007166Y-10685572D01*
X-2551050Y-10768200D01*
X-3165398Y-10894879D01*
X-4508568Y-11201367D01*
X-5188933Y-11341664D01*
X-5842848Y-11446989D01*
X-6446082Y-11497586D01*
X-6721123Y-11496188D01*
X-6974408Y-11473700D01*
X-7202909Y-11427651D01*
X-7403597Y-11355574D01*
X-7573443Y-11254998D01*
X-7709420Y-11123454D01*
X-7808498Y-10958472D01*
X-7867648Y-10757583D01*
X-7883843Y-10518317D01*
X-7854054Y-10238205D01*
X-7775251Y-9914778D01*
X-7644408Y-9545566D01*
X-7458494Y-9128100D01*
X-7214481Y-8659909D01*
X-7214477Y-8659911D01*
X-6911450Y-8142192D01*
X-6548468Y-7570957D01*
X-6134795Y-6958200D01*
X-5679694Y-6315918D01*
X-5192430Y-5656107D01*
X-4682266Y-4990761D01*
X-4158466Y-4331877D01*
X-3630294Y-3691450D01*
X-3107014Y-3081476D01*
X-2597889Y-2513950D01*
X-2112184Y-2000868D01*
X-1659161Y-1554225D01*
X-1248085Y-1186018D01*
X-888220Y-908241D01*
X-730386Y-807013D01*
X-588829Y-732891D01*
X-464706Y-687374D01*
X-359176Y-671963D01*
X-173408Y-680134D01*
G37*
G36*
X-15982755Y-21983347D02*
G01*
X-15640095Y-22010673D01*
X-15278997Y-22067331D01*
X-14897921Y-22152058D01*
X-14495327Y-22263596D01*
X-14069676Y-22400683D01*
X-13619428Y-22562059D01*
X-13401029Y-22650340D01*
X-13205120Y-22742938D01*
X-13030206Y-22839579D01*
X-12874792Y-22939989D01*
X-12737381Y-23043896D01*
X-12616480Y-23151025D01*
X-12510592Y-23261103D01*
X-12418223Y-23373857D01*
X-12337876Y-23489014D01*
X-12268057Y-23606299D01*
X-12207270Y-23725439D01*
X-12154019Y-23846161D01*
X-12064148Y-24091256D01*
X-11986479Y-24339397D01*
X-11909051Y-24588395D01*
X-11819900Y-24836063D01*
X-11767190Y-24958714D01*
X-11707064Y-25080212D01*
X-11638026Y-25200284D01*
X-11558580Y-25318655D01*
X-11467231Y-25435053D01*
X-11362485Y-25549205D01*
X-11242844Y-25660835D01*
X-11106816Y-25769672D01*
X-10952903Y-25875441D01*
X-10779610Y-25977870D01*
X-10585443Y-26076683D01*
X-10368906Y-26171610D01*
X-10084525Y-26271085D01*
X-9774020Y-26350943D01*
X-9440867Y-26413213D01*
X-9088542Y-26459925D01*
X-8720523Y-26493109D01*
X-8340285Y-26514794D01*
X-7557062Y-26531787D01*
X-5996966Y-26517092D01*
X-5275719Y-26517879D01*
X-4941964Y-26527411D01*
X-4630756Y-26545740D01*
X-4326638Y-26578738D01*
X-4024058Y-26628596D01*
X-3723049Y-26693256D01*
X-3423645Y-26770659D01*
X-3125877Y-26858747D01*
X-2829779Y-26955463D01*
X-2242725Y-27166542D01*
X-1090104Y-27601663D01*
X-806617Y-27701138D01*
X-525063Y-27792775D01*
X-245476Y-27874515D01*
X32112Y-27944299D01*
X232714Y-27979898D01*
X424791Y-27994134D01*
X609012Y-27988583D01*
X786049Y-27964823D01*
X956572Y-27924429D01*
X1121250Y-27868977D01*
X1280755Y-27800045D01*
X1435756Y-27719208D01*
X1586923Y-27628043D01*
X1734926Y-27528126D01*
X2024124Y-27308342D01*
X2594048Y-26833111D01*
X2885498Y-26602885D01*
X3035190Y-26495137D01*
X3188421Y-26394401D01*
X3345861Y-26302252D01*
X3508179Y-26220268D01*
X3676047Y-26150025D01*
X3850135Y-26093098D01*
X4031112Y-26051065D01*
X4219648Y-26025502D01*
X4416415Y-26017984D01*
X4622083Y-26030089D01*
X4837320Y-26063393D01*
X5062798Y-26119472D01*
X5299188Y-26199903D01*
X5547158Y-26306261D01*
X5759511Y-26397145D01*
X5970863Y-26469579D01*
X6181395Y-26524635D01*
X6391294Y-26563388D01*
X6600741Y-26586912D01*
X6809922Y-26596282D01*
X7019019Y-26592570D01*
X7228217Y-26576852D01*
X7647649Y-26513691D01*
X8069688Y-26415392D01*
X8495806Y-26290548D01*
X8927471Y-26147751D01*
X9813328Y-25842671D01*
X10270459Y-25697573D01*
X10739020Y-25568893D01*
X11220481Y-25465223D01*
X11466508Y-25425453D01*
X11716311Y-25395157D01*
X11970074Y-25375411D01*
X12227981Y-25367288D01*
X12490216Y-25371862D01*
X12756962Y-25390207D01*
X12947167Y-25404373D01*
X13127370Y-25410084D01*
X13298235Y-25407916D01*
X13460426Y-25398446D01*
X13614606Y-25382249D01*
X13761441Y-25359903D01*
X13901593Y-25331983D01*
X14035727Y-25299065D01*
X14164506Y-25261727D01*
X14288594Y-25220544D01*
X14525354Y-25128950D01*
X14751317Y-25028893D01*
X14971795Y-24924985D01*
X15192099Y-24821835D01*
X15417540Y-24724055D01*
X15653429Y-24636254D01*
X15776951Y-24597538D01*
X15905076Y-24563045D01*
X16038469Y-24533352D01*
X16177794Y-24509036D01*
X16323713Y-24490674D01*
X16476892Y-24478840D01*
X16637994Y-24474112D01*
X16807683Y-24477066D01*
X16986622Y-24488278D01*
X17175476Y-24508325D01*
X17416038Y-24544315D01*
X17651164Y-24590202D01*
X17881094Y-24645635D01*
X18106061Y-24710265D01*
X18326303Y-24783740D01*
X18542056Y-24865710D01*
X18753555Y-24955824D01*
X18961038Y-25053730D01*
X19364898Y-25271520D01*
X19755525Y-25516272D01*
X20134809Y-25785181D01*
X20504639Y-26075442D01*
X20866906Y-26384248D01*
X21223498Y-26708792D01*
X21576306Y-27046270D01*
X21927219Y-27393875D01*
X23349717Y-28829443D01*
X23886953Y-29367236D01*
X24358561Y-29862070D01*
X24767358Y-30315710D01*
X25116157Y-30729927D01*
X25407774Y-31106487D01*
X25645025Y-31447160D01*
X25830725Y-31753712D01*
X25967690Y-32027913D01*
X26058734Y-32271530D01*
X26106673Y-32486331D01*
X26114323Y-32674085D01*
X26084498Y-32836559D01*
X26020015Y-32975522D01*
X25923688Y-33092742D01*
X25798334Y-33189987D01*
X25646766Y-33269025D01*
X25471801Y-33331624D01*
X25276254Y-33379553D01*
X24834676Y-33438470D01*
X24344554Y-33459922D01*
X23828410Y-33458054D01*
X22808153Y-33440936D01*
X22349085Y-33453975D01*
X21954087Y-33500274D01*
X21437430Y-33589553D01*
X20918077Y-33661172D01*
X20396925Y-33714828D01*
X19874873Y-33750217D01*
X19352816Y-33767036D01*
X18831654Y-33764982D01*
X18312283Y-33743749D01*
X17795601Y-33703036D01*
X17282506Y-33642538D01*
X16773894Y-33561953D01*
X16270663Y-33460975D01*
X15773711Y-33339302D01*
X15283935Y-33196630D01*
X14802232Y-33032656D01*
X14329501Y-32847075D01*
X13866639Y-32639585D01*
X13425567Y-32444441D01*
X12973686Y-32275346D01*
X12513083Y-32133631D01*
X12045845Y-32020625D01*
X11574061Y-31937660D01*
X11099817Y-31886065D01*
X10625201Y-31867172D01*
X10152301Y-31882309D01*
X9683205Y-31932809D01*
X9220000Y-32020000D01*
X8991258Y-32077770D01*
X8764773Y-32145213D01*
X8540804Y-32222494D01*
X8319613Y-32309779D01*
X8101460Y-32407235D01*
X7886606Y-32515028D01*
X7675313Y-32633324D01*
X7467841Y-32762290D01*
X7264451Y-32902092D01*
X7065405Y-33052896D01*
X6870963Y-33214868D01*
X6681385Y-33388176D01*
X6438082Y-33599061D01*
X6179054Y-33781013D01*
X5902075Y-33936118D01*
X5604919Y-34066462D01*
X5285358Y-34174132D01*
X4941165Y-34261214D01*
X4570116Y-34329794D01*
X4169982Y-34381958D01*
X3738537Y-34419793D01*
X3273555Y-34445385D01*
X2234072Y-34468184D01*
X-345314Y-34458660D01*
X-605833Y-34470393D01*
X-834232Y-34504289D01*
X-1039740Y-34554718D01*
X-1231583Y-34616054D01*
X-1611186Y-34748938D01*
X-1817401Y-34809230D01*
X-2046863Y-34857919D01*
X-2308799Y-34889378D01*
X-2612436Y-34897979D01*
X-2967002Y-34878094D01*
X-3381725Y-34824097D01*
X-3865833Y-34730360D01*
X-4428553Y-34591256D01*
X-5079113Y-34401156D01*
X-5826740Y-34154434D01*
X-6149620Y-34036676D01*
X-6443900Y-33918995D01*
X-6712885Y-33803169D01*
X-6959879Y-33690978D01*
X-7401110Y-33484618D01*
X-7601955Y-33394009D01*
X-7794026Y-33314151D01*
X-7980626Y-33246826D01*
X-8072907Y-33218419D01*
X-8165060Y-33193812D01*
X-8257498Y-33173228D01*
X-8350632Y-33156889D01*
X-8444878Y-33145017D01*
X-8540646Y-33137835D01*
X-8638352Y-33135566D01*
X-8738407Y-33138432D01*
X-8841224Y-33146654D01*
X-8947218Y-33160457D01*
X-9056799Y-33180061D01*
X-9170383Y-33205690D01*
X-9288381Y-33237566D01*
X-9411207Y-33275911D01*
X-9854988Y-33413963D01*
X-10279080Y-33527446D01*
X-10684238Y-33617730D01*
X-11071218Y-33686182D01*
X-11440776Y-33734170D01*
X-11793667Y-33763063D01*
X-12130648Y-33774227D01*
X-12452475Y-33769032D01*
X-12759902Y-33748845D01*
X-13053687Y-33715034D01*
X-13334585Y-33668967D01*
X-13603351Y-33612012D01*
X-13860742Y-33545538D01*
X-14107514Y-33470911D01*
X-14344422Y-33389501D01*
X-14572223Y-33302675D01*
X-15003524Y-33118248D01*
X-15407465Y-32928573D01*
X-15790091Y-32744595D01*
X-16157451Y-32577258D01*
X-16337296Y-32503249D01*
X-16515591Y-32437505D01*
X-16693093Y-32381393D01*
X-16870558Y-32336281D01*
X-17048741Y-32303537D01*
X-17228398Y-32284530D01*
X-17410286Y-32280627D01*
X-17595159Y-32293195D01*
X-20057160Y-32456338D01*
X-20380700Y-32498545D01*
X-20706790Y-32554508D01*
X-21035143Y-32626897D01*
X-21365471Y-32718385D01*
X-21697486Y-32831644D01*
X-22030901Y-32969348D01*
X-22365428Y-33134166D01*
X-22700780Y-33328773D01*
X-22892337Y-33436510D01*
X-23076702Y-33516057D01*
X-23253633Y-33568724D01*
X-23422890Y-33595818D01*
X-23584229Y-33598648D01*
X-23737409Y-33578521D01*
X-23882188Y-33536747D01*
X-24018324Y-33474633D01*
X-24145574Y-33393488D01*
X-24263697Y-33294620D01*
X-24372451Y-33179338D01*
X-24471594Y-33048948D01*
X-24560883Y-32904761D01*
X-24640077Y-32748083D01*
X-24708934Y-32580224D01*
X-24767212Y-32402492D01*
X-24814669Y-32216194D01*
X-24851062Y-32022639D01*
X-24876150Y-31823136D01*
X-24889691Y-31618992D01*
X-24891443Y-31411516D01*
X-24881163Y-31202017D01*
X-24858611Y-30991801D01*
X-24823543Y-30782179D01*
X-24775717Y-30574457D01*
X-24714893Y-30369945D01*
X-24640827Y-30169949D01*
X-24553279Y-29975780D01*
X-24452005Y-29788745D01*
X-24336763Y-29610152D01*
X-24207313Y-29441309D01*
X-24063413Y-29283527D01*
X-24063413Y-29283528D01*
X-24063413Y-29283529D01*
X-23729346Y-28924297D01*
X-23401923Y-28560545D01*
X-22761425Y-27823820D01*
X-21498736Y-26343839D01*
X-20854211Y-25617929D01*
X-20523768Y-25262289D01*
X-20186010Y-24912972D01*
X-19839542Y-24571061D01*
X-19482967Y-24237640D01*
X-19114890Y-23913794D01*
X-18733915Y-23600607D01*
X-18490969Y-23265293D01*
X-18244979Y-22971917D01*
X-18120362Y-22840560D01*
X-17994407Y-22719216D01*
X-17866921Y-22607725D01*
X-17737712Y-22505930D01*
X-17606587Y-22413674D01*
X-17473355Y-22330799D01*
X-17337822Y-22257148D01*
X-17199796Y-22192562D01*
X-17059085Y-22136885D01*
X-16915496Y-22089959D01*
X-16768837Y-22051626D01*
X-16618916Y-22021729D01*
X-16465539Y-22000110D01*
X-16308515Y-21986612D01*
X-16147651Y-21981077D01*
X-15982755Y-21983347D01*
G37*
G36*
X-24063413Y-29283527D02*
G01*
X-24063413Y-29283526D01*
X-24063412Y-29283526D01*
X-24063412Y-29283525D01*
X-24063411Y-29283525D01*
X-24063413Y-29283527D01*
G37*
G36*
X30940057Y-64339568D02*
G01*
X31346785Y-64391371D01*
X31736878Y-64473526D01*
X31879349Y-64518976D01*
X32025750Y-64582713D01*
X32176200Y-64664086D01*
X32330819Y-64762444D01*
X32489726Y-64877134D01*
X32653041Y-65007505D01*
X32993370Y-65312686D01*
X33352762Y-65672776D01*
X33732170Y-66082563D01*
X34132551Y-66536836D01*
X34554858Y-67030383D01*
X35469071Y-68114455D01*
X36482450Y-69293088D01*
X37028714Y-69904837D01*
X37602633Y-70524593D01*
X38205163Y-71147143D01*
X38837258Y-71767276D01*
X39093269Y-72042599D01*
X39327014Y-72356344D01*
X39538186Y-72704153D01*
X39726476Y-73081666D01*
X39891574Y-73484524D01*
X40033173Y-73908368D01*
X40150964Y-74348839D01*
X40244639Y-74801576D01*
X40358403Y-75726417D01*
X40371998Y-76648015D01*
X40340461Y-77096700D01*
X40282956Y-77531498D01*
X40199174Y-77948048D01*
X40088807Y-78341991D01*
X39951546Y-78708969D01*
X39787083Y-79044621D01*
X39595109Y-79344589D01*
X39375316Y-79604514D01*
X39127394Y-79820035D01*
X38851037Y-79986795D01*
X38545934Y-80100433D01*
X38211777Y-80156591D01*
X37848259Y-80150909D01*
X37455069Y-80079028D01*
X37031900Y-79936589D01*
X36578444Y-79719232D01*
X36094391Y-79422599D01*
X35579432Y-79042330D01*
X35033261Y-78574065D01*
X34455567Y-78013446D01*
X34220376Y-77784767D01*
X33988419Y-77583485D01*
X33759522Y-77408550D01*
X33533510Y-77258912D01*
X33310210Y-77133519D01*
X33089447Y-77031322D01*
X32871047Y-76951268D01*
X32654836Y-76892308D01*
X32440639Y-76853390D01*
X32228282Y-76833463D01*
X32017590Y-76831478D01*
X31808390Y-76846382D01*
X31600508Y-76877126D01*
X31393768Y-76922658D01*
X31187997Y-76981928D01*
X30983021Y-77053884D01*
X30778665Y-77137477D01*
X30574755Y-77231654D01*
X30167575Y-77447562D01*
X29760089Y-77693201D01*
X29350900Y-77960165D01*
X28521843Y-78524441D01*
X28099186Y-78804940D01*
X27669251Y-79073139D01*
X27422256Y-79206075D01*
X27141200Y-79331018D01*
X26484824Y-79557275D01*
X25715953Y-79752609D01*
X24850417Y-79917718D01*
X23904048Y-80053303D01*
X22892677Y-80160061D01*
X21832135Y-80238693D01*
X20738252Y-80289896D01*
X19626860Y-80314369D01*
X18513789Y-80312813D01*
X17414870Y-80285925D01*
X16345934Y-80234404D01*
X15322813Y-80158951D01*
X14361336Y-80060262D01*
X13477336Y-79939039D01*
X12686642Y-79795978D01*
X12234252Y-79712894D01*
X11784315Y-79651634D01*
X11336740Y-79610958D01*
X10891434Y-79589629D01*
X10007265Y-79600059D01*
X9131070Y-79673018D01*
X8262114Y-79798601D01*
X7399660Y-79966902D01*
X6542973Y-80168016D01*
X5691316Y-80392038D01*
X4000149Y-80869184D01*
X2320271Y-81319097D01*
X1482725Y-81509078D01*
X645793Y-81662535D01*
X-191262Y-81769563D01*
X-1029174Y-81820255D01*
X-1429824Y-81819423D01*
X-1796912Y-81798540D01*
X-2133037Y-81758789D01*
X-2440798Y-81701352D01*
X-2722792Y-81627411D01*
X-2981617Y-81538150D01*
X-3219872Y-81434750D01*
X-3440155Y-81318395D01*
X-3645064Y-81190266D01*
X-3837197Y-81051546D01*
X-4019153Y-80903417D01*
X-4193529Y-80747062D01*
X-4529935Y-80414403D01*
X-4867200Y-80063030D01*
X-5226111Y-79702401D01*
X-5420178Y-79521572D01*
X-5627451Y-79341976D01*
X-5850528Y-79164797D01*
X-6092007Y-78991216D01*
X-6354486Y-78822415D01*
X-6640563Y-78659578D01*
X-6952837Y-78503887D01*
X-7293905Y-78356525D01*
X-7666366Y-78218672D01*
X-8072818Y-78091513D01*
X-8515859Y-77976230D01*
X-8998087Y-77874005D01*
X-9522101Y-77786020D01*
X-10090498Y-77713459D01*
X-10831447Y-77671422D01*
X-11670424Y-77689430D01*
X-12590434Y-77759289D01*
X-13574481Y-77872806D01*
X-15666706Y-78198041D01*
X-17811138Y-78599588D01*
X-21712770Y-79369431D01*
X-23198046Y-79606634D01*
X-23764815Y-79659629D01*
X-24191679Y-79657963D01*
X-24582845Y-79617417D01*
X-24952274Y-79568923D01*
X-25301566Y-79513100D01*
X-25632323Y-79450566D01*
X-26244641Y-79307842D01*
X-26802041Y-79145702D01*
X-27317338Y-78969097D01*
X-27803345Y-78782978D01*
X-28738750Y-78402004D01*
X-29213775Y-78217050D01*
X-29710768Y-78042387D01*
X-30242542Y-77882966D01*
X-30821913Y-77743736D01*
X-31133451Y-77683241D01*
X-31461693Y-77629651D01*
X-31808242Y-77583584D01*
X-32174699Y-77545660D01*
X-32562665Y-77516497D01*
X-32973742Y-77496715D01*
X-33409533Y-77486931D01*
X-33871638Y-77487766D01*
X-34168987Y-77501886D01*
X-34478476Y-77535005D01*
X-35127155Y-77649350D01*
X-35804234Y-77813017D01*
X-36496271Y-78008223D01*
X-37871448Y-78422124D01*
X-38527704Y-78605253D01*
X-39145148Y-78748790D01*
X-39710339Y-78834954D01*
X-39969138Y-78850963D01*
X-40209834Y-78845960D01*
X-40430745Y-78817722D01*
X-40630191Y-78764026D01*
X-40806492Y-78682650D01*
X-40957967Y-78571370D01*
X-41082937Y-78427964D01*
X-41179721Y-78250208D01*
X-41246639Y-78035881D01*
X-41282010Y-77782759D01*
X-41284155Y-77488619D01*
X-41251392Y-77151238D01*
X-41182043Y-76768394D01*
X-41074425Y-76337864D01*
X-40941605Y-75921137D01*
X-40766331Y-75468338D01*
X-40551149Y-74987870D01*
X-40298609Y-74488138D01*
X-40011259Y-73977546D01*
X-39691647Y-73464499D01*
X-39342322Y-72957401D01*
X-38965831Y-72464656D01*
X-38564723Y-71994670D01*
X-38141546Y-71555846D01*
X-37698848Y-71156589D01*
X-37470975Y-70974424D01*
X-37239177Y-70805303D01*
X-37003774Y-70650276D01*
X-36765083Y-70510393D01*
X-36523423Y-70386705D01*
X-36279112Y-70280263D01*
X-36032470Y-70192117D01*
X-35783814Y-70123318D01*
X-35533463Y-70074916D01*
X-35281736Y-70047962D01*
X-35281735Y-70047962D01*
X-34979943Y-70022708D01*
X-34695816Y-69986730D01*
X-34428039Y-69940977D01*
X-34175294Y-69886398D01*
X-33936268Y-69823940D01*
X-33709645Y-69754552D01*
X-33494108Y-69679182D01*
X-33288343Y-69598778D01*
X-32900864Y-69426662D01*
X-32536684Y-69245791D01*
X-31836123Y-68888124D01*
X-31478694Y-68726501D01*
X-31293587Y-68653312D01*
X-31102465Y-68586467D01*
X-30904012Y-68526916D01*
X-30696913Y-68475607D01*
X-30479852Y-68433489D01*
X-30251513Y-68401508D01*
X-30010581Y-68380615D01*
X-29755741Y-68371756D01*
X-29485677Y-68375880D01*
X-29199072Y-68393936D01*
X-28894613Y-68426872D01*
X-28570983Y-68475635D01*
X-28226866Y-68541175D01*
X-27860947Y-68624439D01*
X-26280472Y-68997352D01*
X-25557701Y-69149593D01*
X-24872819Y-69274619D01*
X-24220512Y-69369123D01*
X-23595463Y-69429804D01*
X-22992356Y-69453354D01*
X-22405876Y-69436472D01*
X-21830708Y-69375851D01*
X-21261535Y-69268187D01*
X-20693042Y-69110177D01*
X-20119912Y-68898516D01*
X-19536832Y-68629898D01*
X-18938483Y-68301021D01*
X-18319552Y-67908579D01*
X-17674722Y-67449268D01*
X-17200222Y-67113894D01*
X-16725216Y-66816649D01*
X-16250237Y-66555946D01*
X-15775816Y-66330200D01*
X-15302482Y-66137824D01*
X-14830767Y-65977232D01*
X-14361201Y-65846839D01*
X-13894316Y-65745058D01*
X-13430642Y-65670303D01*
X-12970711Y-65620988D01*
X-12515052Y-65595528D01*
X-12064197Y-65592335D01*
X-11179021Y-65646409D01*
X-10319430Y-65770522D01*
X-9489670Y-65951986D01*
X-8693989Y-66178113D01*
X-7936631Y-66436213D01*
X-7221845Y-66713599D01*
X-5936973Y-67275472D01*
X-4873344Y-67762226D01*
X-4250007Y-68057054D01*
X-3640713Y-68379693D01*
X-3043011Y-68722577D01*
X-2454446Y-69078140D01*
X-1294917Y-69797034D01*
X-719046Y-70145232D01*
X-142499Y-70475843D01*
X437176Y-70781300D01*
X1022434Y-71054037D01*
X1615727Y-71286487D01*
X1916153Y-71385240D01*
X2219508Y-71471084D01*
X2526099Y-71543072D01*
X2836232Y-71600260D01*
X3150213Y-71641702D01*
X3468350Y-71666451D01*
X3790949Y-71673562D01*
X4118317Y-71662089D01*
X4450761Y-71631087D01*
X4788586Y-71579609D01*
X5192965Y-71496828D01*
X5582120Y-71399455D01*
X5957096Y-71288674D01*
X6318935Y-71165667D01*
X6668681Y-71031620D01*
X7007377Y-70887715D01*
X7655795Y-70575066D01*
X8272537Y-70237188D01*
X8865948Y-69883550D01*
X10016172Y-69166868D01*
X10589679Y-68822760D01*
X11173247Y-68500767D01*
X11775222Y-68210355D01*
X12085721Y-68079951D01*
X12403952Y-67960993D01*
X12730959Y-67854665D01*
X13067786Y-67762150D01*
X13415474Y-67684633D01*
X13775069Y-67623295D01*
X14147613Y-67579321D01*
X14534149Y-67553895D01*
X14935722Y-67548200D01*
X15353375Y-67563419D01*
X15851277Y-67579890D01*
X16358860Y-67570246D01*
X17399560Y-67480144D01*
X18468458Y-67308170D01*
X19558535Y-67069384D01*
X20662774Y-66778841D01*
X21774155Y-66451601D01*
X23990276Y-65747259D01*
X26150753Y-65076818D01*
X27192580Y-64791955D01*
X28199442Y-64560741D01*
X29164320Y-64398233D01*
X30080198Y-64319489D01*
X30517568Y-64316235D01*
X30940057Y-64339568D01*
G37*
D11*
X-35761905Y-79462619D02*
X-35761905Y-78462619D01*
X-35761905Y-78462619D02*
X-36000000Y-78462619D01*
X-36000000Y-78462619D02*
X-36142857Y-78510238D01*
X-36142857Y-78510238D02*
X-36238095Y-78605476D01*
X-36238095Y-78605476D02*
X-36285714Y-78700714D01*
X-36285714Y-78700714D02*
X-36333333Y-78891190D01*
X-36333333Y-78891190D02*
X-36333333Y-79034047D01*
X-36333333Y-79034047D02*
X-36285714Y-79224523D01*
X-36285714Y-79224523D02*
X-36238095Y-79319761D01*
X-36238095Y-79319761D02*
X-36142857Y-79415000D01*
X-36142857Y-79415000D02*
X-36000000Y-79462619D01*
X-36000000Y-79462619D02*
X-35761905Y-79462619D01*
X-37190476Y-78462619D02*
X-37000000Y-78462619D01*
X-37000000Y-78462619D02*
X-36904762Y-78510238D01*
X-36904762Y-78510238D02*
X-36857143Y-78557857D01*
X-36857143Y-78557857D02*
X-36761905Y-78700714D01*
X-36761905Y-78700714D02*
X-36714286Y-78891190D01*
X-36714286Y-78891190D02*
X-36714286Y-79272142D01*
X-36714286Y-79272142D02*
X-36761905Y-79367380D01*
X-36761905Y-79367380D02*
X-36809524Y-79415000D01*
X-36809524Y-79415000D02*
X-36904762Y-79462619D01*
X-36904762Y-79462619D02*
X-37095238Y-79462619D01*
X-37095238Y-79462619D02*
X-37190476Y-79415000D01*
X-37190476Y-79415000D02*
X-37238095Y-79367380D01*
X-37238095Y-79367380D02*
X-37285714Y-79272142D01*
X-37285714Y-79272142D02*
X-37285714Y-79034047D01*
X-37285714Y-79034047D02*
X-37238095Y-78938809D01*
X-37238095Y-78938809D02*
X-37190476Y-78891190D01*
X-37190476Y-78891190D02*
X-37095238Y-78843571D01*
X-37095238Y-78843571D02*
X-36904762Y-78843571D01*
X-36904762Y-78843571D02*
X-36809524Y-78891190D01*
X-36809524Y-78891190D02*
X-36761905Y-78938809D01*
X-36761905Y-78938809D02*
X-36714286Y-79034047D01*
X1238094Y-52462619D02*
X1238094Y-51462619D01*
X1238094Y-51462619D02*
X999999Y-51462619D01*
X999999Y-51462619D02*
X857142Y-51510238D01*
X857142Y-51510238D02*
X761904Y-51605476D01*
X761904Y-51605476D02*
X714285Y-51700714D01*
X714285Y-51700714D02*
X666666Y-51891190D01*
X666666Y-51891190D02*
X666666Y-52034047D01*
X666666Y-52034047D02*
X714285Y-52224523D01*
X714285Y-52224523D02*
X761904Y-52319761D01*
X761904Y-52319761D02*
X857142Y-52415000D01*
X857142Y-52415000D02*
X999999Y-52462619D01*
X999999Y-52462619D02*
X1238094Y-52462619D01*
X-190476Y-51795952D02*
X-190476Y-52462619D01*
X47618Y-51415000D02*
X285713Y-52129285D01*
X285713Y-52129285D02*
X-333333Y-52129285D01*
X41538094Y-79732619D02*
X41538094Y-78732619D01*
X41538094Y-78732619D02*
X41299999Y-78732619D01*
X41299999Y-78732619D02*
X41157142Y-78780238D01*
X41157142Y-78780238D02*
X41061904Y-78875476D01*
X41061904Y-78875476D02*
X41014285Y-78970714D01*
X41014285Y-78970714D02*
X40966666Y-79161190D01*
X40966666Y-79161190D02*
X40966666Y-79304047D01*
X40966666Y-79304047D02*
X41014285Y-79494523D01*
X41014285Y-79494523D02*
X41061904Y-79589761D01*
X41061904Y-79589761D02*
X41157142Y-79685000D01*
X41157142Y-79685000D02*
X41299999Y-79732619D01*
X41299999Y-79732619D02*
X41538094Y-79732619D01*
X40061904Y-78732619D02*
X40538094Y-78732619D01*
X40538094Y-78732619D02*
X40585713Y-79208809D01*
X40585713Y-79208809D02*
X40538094Y-79161190D01*
X40538094Y-79161190D02*
X40442856Y-79113571D01*
X40442856Y-79113571D02*
X40204761Y-79113571D01*
X40204761Y-79113571D02*
X40109523Y-79161190D01*
X40109523Y-79161190D02*
X40061904Y-79208809D01*
X40061904Y-79208809D02*
X40014285Y-79304047D01*
X40014285Y-79304047D02*
X40014285Y-79542142D01*
X40014285Y-79542142D02*
X40061904Y-79637380D01*
X40061904Y-79637380D02*
X40109523Y-79685000D01*
X40109523Y-79685000D02*
X40204761Y-79732619D01*
X40204761Y-79732619D02*
X40442856Y-79732619D01*
X40442856Y-79732619D02*
X40538094Y-79685000D01*
X40538094Y-79685000D02*
X40585713Y-79637380D01*
X13898094Y-33822619D02*
X13898094Y-32822619D01*
X13898094Y-32822619D02*
X13659999Y-32822619D01*
X13659999Y-32822619D02*
X13517142Y-32870238D01*
X13517142Y-32870238D02*
X13421904Y-32965476D01*
X13421904Y-32965476D02*
X13374285Y-33060714D01*
X13374285Y-33060714D02*
X13326666Y-33251190D01*
X13326666Y-33251190D02*
X13326666Y-33394047D01*
X13326666Y-33394047D02*
X13374285Y-33584523D01*
X13374285Y-33584523D02*
X13421904Y-33679761D01*
X13421904Y-33679761D02*
X13517142Y-33775000D01*
X13517142Y-33775000D02*
X13659999Y-33822619D01*
X13659999Y-33822619D02*
X13898094Y-33822619D01*
X12945713Y-32917857D02*
X12898094Y-32870238D01*
X12898094Y-32870238D02*
X12802856Y-32822619D01*
X12802856Y-32822619D02*
X12564761Y-32822619D01*
X12564761Y-32822619D02*
X12469523Y-32870238D01*
X12469523Y-32870238D02*
X12421904Y-32917857D01*
X12421904Y-32917857D02*
X12374285Y-33013095D01*
X12374285Y-33013095D02*
X12374285Y-33108333D01*
X12374285Y-33108333D02*
X12421904Y-33251190D01*
X12421904Y-33251190D02*
X12993332Y-33822619D01*
X12993332Y-33822619D02*
X12374285Y-33822619D01*
X-18811905Y-33682619D02*
X-18811905Y-32682619D01*
X-18811905Y-32682619D02*
X-19050000Y-32682619D01*
X-19050000Y-32682619D02*
X-19192857Y-32730238D01*
X-19192857Y-32730238D02*
X-19288095Y-32825476D01*
X-19288095Y-32825476D02*
X-19335714Y-32920714D01*
X-19335714Y-32920714D02*
X-19383333Y-33111190D01*
X-19383333Y-33111190D02*
X-19383333Y-33254047D01*
X-19383333Y-33254047D02*
X-19335714Y-33444523D01*
X-19335714Y-33444523D02*
X-19288095Y-33539761D01*
X-19288095Y-33539761D02*
X-19192857Y-33635000D01*
X-19192857Y-33635000D02*
X-19050000Y-33682619D01*
X-19050000Y-33682619D02*
X-18811905Y-33682619D01*
X-19716667Y-32682619D02*
X-20335714Y-32682619D01*
X-20335714Y-32682619D02*
X-20002381Y-33063571D01*
X-20002381Y-33063571D02*
X-20145238Y-33063571D01*
X-20145238Y-33063571D02*
X-20240476Y-33111190D01*
X-20240476Y-33111190D02*
X-20288095Y-33158809D01*
X-20288095Y-33158809D02*
X-20335714Y-33254047D01*
X-20335714Y-33254047D02*
X-20335714Y-33492142D01*
X-20335714Y-33492142D02*
X-20288095Y-33587380D01*
X-20288095Y-33587380D02*
X-20240476Y-33635000D01*
X-20240476Y-33635000D02*
X-20145238Y-33682619D01*
X-20145238Y-33682619D02*
X-19859524Y-33682619D01*
X-19859524Y-33682619D02*
X-19764286Y-33635000D01*
X-19764286Y-33635000D02*
X-19716667Y-33587380D01*
X1238094Y-17462619D02*
X1238094Y-16462619D01*
X1238094Y-16462619D02*
X999999Y-16462619D01*
X999999Y-16462619D02*
X857142Y-16510238D01*
X857142Y-16510238D02*
X761904Y-16605476D01*
X761904Y-16605476D02*
X714285Y-16700714D01*
X714285Y-16700714D02*
X666666Y-16891190D01*
X666666Y-16891190D02*
X666666Y-17034047D01*
X666666Y-17034047D02*
X714285Y-17224523D01*
X714285Y-17224523D02*
X761904Y-17319761D01*
X761904Y-17319761D02*
X857142Y-17415000D01*
X857142Y-17415000D02*
X999999Y-17462619D01*
X999999Y-17462619D02*
X1238094Y-17462619D01*
X-285714Y-17462619D02*
X285713Y-17462619D01*
X0Y-17462619D02*
X0Y-16462619D01*
X0Y-16462619D02*
X95237Y-16605476D01*
X95237Y-16605476D02*
X190475Y-16700714D01*
X190475Y-16700714D02*
X285713Y-16748333D01*
D12*
X-39460000Y-75865000D02*
X-35400000Y-75865000D01*
X-39460000Y-78135000D02*
X-39460000Y-75865000D01*
X-35400000Y-78135000D02*
X-39460000Y-78135000D01*
X-38000000Y-79900000D02*
X-38900000Y-79100000D01*
X-38000000Y-78300000D01*
X-38000000Y-79900000D01*
G36*
X-38000000Y-79900000D02*
G01*
X-38900000Y-79100000D01*
X-38000000Y-78300000D01*
X-38000000Y-79900000D01*
G37*
X-2460000Y-48865000D02*
X1600000Y-48865000D01*
X-2460000Y-51135000D02*
X-2460000Y-48865000D01*
X1600000Y-51135000D02*
X-2460000Y-51135000D01*
X-1000000Y-52900000D02*
X-1900000Y-52100000D01*
X-1000000Y-51300000D01*
X-1000000Y-52900000D01*
G36*
X-1000000Y-52900000D02*
G01*
X-1900000Y-52100000D01*
X-1000000Y-51300000D01*
X-1000000Y-52900000D01*
G37*
X34540000Y-75865000D02*
X38600000Y-75865000D01*
X34540000Y-78135000D02*
X34540000Y-75865000D01*
X38600000Y-78135000D02*
X34540000Y-78135000D01*
X36000000Y-79900000D02*
X35100000Y-79100000D01*
X36000000Y-78300000D01*
X36000000Y-79900000D01*
G36*
X36000000Y-79900000D02*
G01*
X35100000Y-79100000D01*
X36000000Y-78300000D01*
X36000000Y-79900000D01*
G37*
X17540000Y-29865000D02*
X21600000Y-29865000D01*
X17540000Y-32135000D02*
X17540000Y-29865000D01*
X21600000Y-32135000D02*
X17540000Y-32135000D01*
X19000000Y-33900000D02*
X18100000Y-33100000D01*
X19000000Y-32300000D01*
X19000000Y-33900000D01*
G36*
X19000000Y-33900000D02*
G01*
X18100000Y-33100000D01*
X19000000Y-32300000D01*
X19000000Y-33900000D01*
G37*
X-22460000Y-29865000D02*
X-18400000Y-29865000D01*
X-22460000Y-32135000D02*
X-22460000Y-29865000D01*
X-18400000Y-32135000D02*
X-22460000Y-32135000D01*
X-21000000Y-33900000D02*
X-21900000Y-33100000D01*
X-21000000Y-32300000D01*
X-21000000Y-33900000D01*
G36*
X-21000000Y-33900000D02*
G01*
X-21900000Y-33100000D01*
X-21000000Y-32300000D01*
X-21000000Y-33900000D01*
G37*
X-2460000Y-13865000D02*
X1600000Y-13865000D01*
X-2460000Y-16135000D02*
X-2460000Y-13865000D01*
X1600000Y-16135000D02*
X-2460000Y-16135000D01*
X-1000000Y-17900000D02*
X-1900000Y-17100000D01*
X-1000000Y-16300000D01*
X-1000000Y-17900000D01*
G36*
X-1000000Y-17900000D02*
G01*
X-1900000Y-17100000D01*
X-1000000Y-16300000D01*
X-1000000Y-17900000D01*
G37*
%LPC*%
D13*
X0Y-8000000D03*
G36*
G01*
X-39200000Y-77624999D02*
X-39200000Y-76375001D01*
G75*
G02*
X-38949999Y-76125000I250001J0D01*
G01*
X-38025001Y-76125000D01*
G75*
G02*
X-37775000Y-76375001I0J-250001D01*
G01*
X-37775000Y-77624999D01*
G75*
G02*
X-38025001Y-77875000I-250001J0D01*
G01*
X-38949999Y-77875000D01*
G75*
G02*
X-39200000Y-77624999I0J250001D01*
G01*
G37*
G36*
G01*
X-36225000Y-77624999D02*
X-36225000Y-76375001D01*
G75*
G02*
X-35974999Y-76125000I250001J0D01*
G01*
X-35050001Y-76125000D01*
G75*
G02*
X-34800000Y-76375001I0J-250001D01*
G01*
X-34800000Y-77624999D01*
G75*
G02*
X-35050001Y-77875000I-250001J0D01*
G01*
X-35974999Y-77875000D01*
G75*
G02*
X-36225000Y-77624999I0J250001D01*
G01*
G37*
G36*
G01*
X-2200000Y-50624999D02*
X-2200000Y-49375001D01*
G75*
G02*
X-1949999Y-49125000I250001J0D01*
G01*
X-1025001Y-49125000D01*
G75*
G02*
X-775000Y-49375001I0J-250001D01*
G01*
X-775000Y-50624999D01*
G75*
G02*
X-1025001Y-50875000I-250001J0D01*
G01*
X-1949999Y-50875000D01*
G75*
G02*
X-2200000Y-50624999I0J250001D01*
G01*
G37*
G36*
G01*
X775000Y-50624999D02*
X775000Y-49375001D01*
G75*
G02*
X1025001Y-49125000I250001J0D01*
G01*
X1949999Y-49125000D01*
G75*
G02*
X2200000Y-49375001I0J-250001D01*
G01*
X2200000Y-50624999D01*
G75*
G02*
X1949999Y-50875000I-250001J0D01*
G01*
X1025001Y-50875000D01*
G75*
G02*
X775000Y-50624999I0J250001D01*
G01*
G37*
G36*
G01*
X34800000Y-77624999D02*
X34800000Y-76375001D01*
G75*
G02*
X35050001Y-76125000I250001J0D01*
G01*
X35974999Y-76125000D01*
G75*
G02*
X36225000Y-76375001I0J-250001D01*
G01*
X36225000Y-77624999D01*
G75*
G02*
X35974999Y-77875000I-250001J0D01*
G01*
X35050001Y-77875000D01*
G75*
G02*
X34800000Y-77624999I0J250001D01*
G01*
G37*
G36*
G01*
X37775000Y-77624999D02*
X37775000Y-76375001D01*
G75*
G02*
X38025001Y-76125000I250001J0D01*
G01*
X38949999Y-76125000D01*
G75*
G02*
X39200000Y-76375001I0J-250001D01*
G01*
X39200000Y-77624999D01*
G75*
G02*
X38949999Y-77875000I-250001J0D01*
G01*
X38025001Y-77875000D01*
G75*
G02*
X37775000Y-77624999I0J250001D01*
G01*
G37*
G36*
G01*
X17800000Y-31624999D02*
X17800000Y-30375001D01*
G75*
G02*
X18050001Y-30125000I250001J0D01*
G01*
X18974999Y-30125000D01*
G75*
G02*
X19225000Y-30375001I0J-250001D01*
G01*
X19225000Y-31624999D01*
G75*
G02*
X18974999Y-31875000I-250001J0D01*
G01*
X18050001Y-31875000D01*
G75*
G02*
X17800000Y-31624999I0J250001D01*
G01*
G37*
G36*
G01*
X20775000Y-31624999D02*
X20775000Y-30375001D01*
G75*
G02*
X21025001Y-30125000I250001J0D01*
G01*
X21949999Y-30125000D01*
G75*
G02*
X22200000Y-30375001I0J-250001D01*
G01*
X22200000Y-31624999D01*
G75*
G02*
X21949999Y-31875000I-250001J0D01*
G01*
X21025001Y-31875000D01*
G75*
G02*
X20775000Y-31624999I0J250001D01*
G01*
G37*
G36*
G01*
X-22200000Y-31624999D02*
X-22200000Y-30375001D01*
G75*
G02*
X-21949999Y-30125000I250001J0D01*
G01*
X-21025001Y-30125000D01*
G75*
G02*
X-20775000Y-30375001I0J-250001D01*
G01*
X-20775000Y-31624999D01*
G75*
G02*
X-21025001Y-31875000I-250001J0D01*
G01*
X-21949999Y-31875000D01*
G75*
G02*
X-22200000Y-31624999I0J250001D01*
G01*
G37*
G36*
G01*
X-19225000Y-31624999D02*
X-19225000Y-30375001D01*
G75*
G02*
X-18974999Y-30125000I250001J0D01*
G01*
X-18050001Y-30125000D01*
G75*
G02*
X-17800000Y-30375001I0J-250001D01*
G01*
X-17800000Y-31624999D01*
G75*
G02*
X-18050001Y-31875000I-250001J0D01*
G01*
X-18974999Y-31875000D01*
G75*
G02*
X-19225000Y-31624999I0J250001D01*
G01*
G37*
G36*
G01*
X-2200000Y-15624999D02*
X-2200000Y-14375001D01*
G75*
G02*
X-1949999Y-14125000I250001J0D01*
G01*
X-1025001Y-14125000D01*
G75*
G02*
X-775000Y-14375001I0J-250001D01*
G01*
X-775000Y-15624999D01*
G75*
G02*
X-1025001Y-15875000I-250001J0D01*
G01*
X-1949999Y-15875000D01*
G75*
G02*
X-2200000Y-15624999I0J250001D01*
G01*
G37*
G36*
G01*
X775000Y-15624999D02*
X775000Y-14375001D01*
G75*
G02*
X1025001Y-14125000I250001J0D01*
G01*
X1949999Y-14125000D01*
G75*
G02*
X2200000Y-14375001I0J-250001D01*
G01*
X2200000Y-15624999D01*
G75*
G02*
X1949999Y-15875000I-250001J0D01*
G01*
X1025001Y-15875000D01*
G75*
G02*
X775000Y-15624999I0J250001D01*
G01*
G37*
%LPD*%
M02*
