%TF.GenerationSoftware,KiCad,Pcbnew,9.0.6+1*%
%TF.CreationDate,2026-01-20T05:24:52+00:00*%
%TF.ProjectId,baumsatz,6261756d-7361-4747-9a2e-6b696361645f,rev?*%
%TF.SameCoordinates,Original*%
%TF.FileFunction,Drillmap*%
%TF.FilePolarity,Positive*%
%FSLAX45Y45*%
G04 Gerber Fmt 4.5, Leading zero omitted, Abs format (unit mm)*
G04 Created by KiCad (PCBNEW 9.0.6+1) date 2026-01-20 05:24:52*
%MOMM*%
%LPD*%
G01*
G04 APERTURE LIST*
%ADD10C,0.100000*%
%ADD11C,0.200000*%
%ADD12C,0.320000*%
G04 APERTURE END LIST*
D10*
X-2668962Y-3400000D02*
X-900000Y-3400000D01*
X4428962Y-7901981D02*
X800000Y-3400000D01*
X-150000Y-200000D02*
G75*
G02*
X150000Y-200000I150000J-116562D01*
G01*
X-600000Y-10000000D02*
X600000Y-10000000D01*
X-600000Y-8000000D02*
X-600000Y-10000000D01*
X800000Y-3400000D02*
X2650000Y-3400000D01*
X600000Y-8000000D02*
X4378962Y-8001981D01*
X4428962Y-7901981D02*
G75*
G02*
X4378962Y-8001981I-41662J-41669D01*
G01*
X-2668962Y-3400000D02*
G75*
G02*
X-2718962Y-3300000I-8333J58333D01*
G01*
X2700000Y-3300000D02*
G75*
G02*
X2650000Y-3400001I-41667J-41667D01*
G01*
X600000Y-10000000D02*
X600000Y-8000000D01*
X-4370778Y-7999889D02*
X-600000Y-8000000D01*
X-150000Y-200000D02*
X-2718962Y-3300000D01*
X-4370778Y-7999889D02*
G75*
G02*
X-4420778Y-7899889I-9222J57889D01*
G01*
X-900000Y-3400000D02*
X-4420778Y-7899889D01*
X2700000Y-3300000D02*
X150000Y-200000D01*
D11*
D12*
X-160000Y-640000D02*
X160000Y-960000D01*
X160000Y-640000D02*
X-160000Y-960000D01*
D11*
X-4182842Y-10316484D02*
X-4182842Y-10116484D01*
X-4182842Y-10116484D02*
X-4135223Y-10116484D01*
X-4135223Y-10116484D02*
X-4106652Y-10126008D01*
X-4106652Y-10126008D02*
X-4087604Y-10145055D01*
X-4087604Y-10145055D02*
X-4078080Y-10164103D01*
X-4078080Y-10164103D02*
X-4068556Y-10202198D01*
X-4068556Y-10202198D02*
X-4068556Y-10230770D01*
X-4068556Y-10230770D02*
X-4078080Y-10268865D01*
X-4078080Y-10268865D02*
X-4087604Y-10287912D01*
X-4087604Y-10287912D02*
X-4106652Y-10306960D01*
X-4106652Y-10306960D02*
X-4135223Y-10316484D01*
X-4135223Y-10316484D02*
X-4182842Y-10316484D01*
X-3982842Y-10316484D02*
X-3982842Y-10183150D01*
X-3982842Y-10221246D02*
X-3973318Y-10202198D01*
X-3973318Y-10202198D02*
X-3963794Y-10192674D01*
X-3963794Y-10192674D02*
X-3944747Y-10183150D01*
X-3944747Y-10183150D02*
X-3925699Y-10183150D01*
X-3859033Y-10316484D02*
X-3859033Y-10183150D01*
X-3859033Y-10116484D02*
X-3868556Y-10126008D01*
X-3868556Y-10126008D02*
X-3859033Y-10135531D01*
X-3859033Y-10135531D02*
X-3849509Y-10126008D01*
X-3849509Y-10126008D02*
X-3859033Y-10116484D01*
X-3859033Y-10116484D02*
X-3859033Y-10135531D01*
X-3735223Y-10316484D02*
X-3754271Y-10306960D01*
X-3754271Y-10306960D02*
X-3763794Y-10287912D01*
X-3763794Y-10287912D02*
X-3763794Y-10116484D01*
X-3630461Y-10316484D02*
X-3649509Y-10306960D01*
X-3649509Y-10306960D02*
X-3659033Y-10287912D01*
X-3659033Y-10287912D02*
X-3659033Y-10116484D01*
X-3401890Y-10316484D02*
X-3401890Y-10116484D01*
X-3401890Y-10116484D02*
X-3335223Y-10259341D01*
X-3335223Y-10259341D02*
X-3268556Y-10116484D01*
X-3268556Y-10116484D02*
X-3268556Y-10316484D01*
X-3087604Y-10316484D02*
X-3087604Y-10211722D01*
X-3087604Y-10211722D02*
X-3097128Y-10192674D01*
X-3097128Y-10192674D02*
X-3116175Y-10183150D01*
X-3116175Y-10183150D02*
X-3154271Y-10183150D01*
X-3154271Y-10183150D02*
X-3173318Y-10192674D01*
X-3087604Y-10306960D02*
X-3106652Y-10316484D01*
X-3106652Y-10316484D02*
X-3154271Y-10316484D01*
X-3154271Y-10316484D02*
X-3173318Y-10306960D01*
X-3173318Y-10306960D02*
X-3182842Y-10287912D01*
X-3182842Y-10287912D02*
X-3182842Y-10268865D01*
X-3182842Y-10268865D02*
X-3173318Y-10249817D01*
X-3173318Y-10249817D02*
X-3154271Y-10240293D01*
X-3154271Y-10240293D02*
X-3106652Y-10240293D01*
X-3106652Y-10240293D02*
X-3087604Y-10230770D01*
X-2992366Y-10183150D02*
X-2992366Y-10383150D01*
X-2992366Y-10192674D02*
X-2973318Y-10183150D01*
X-2973318Y-10183150D02*
X-2935223Y-10183150D01*
X-2935223Y-10183150D02*
X-2916175Y-10192674D01*
X-2916175Y-10192674D02*
X-2906652Y-10202198D01*
X-2906652Y-10202198D02*
X-2897128Y-10221246D01*
X-2897128Y-10221246D02*
X-2897128Y-10278389D01*
X-2897128Y-10278389D02*
X-2906652Y-10297436D01*
X-2906652Y-10297436D02*
X-2916175Y-10306960D01*
X-2916175Y-10306960D02*
X-2935223Y-10316484D01*
X-2935223Y-10316484D02*
X-2973318Y-10316484D01*
X-2973318Y-10316484D02*
X-2992366Y-10306960D01*
X-2811413Y-10297436D02*
X-2801890Y-10306960D01*
X-2801890Y-10306960D02*
X-2811413Y-10316484D01*
X-2811413Y-10316484D02*
X-2820937Y-10306960D01*
X-2820937Y-10306960D02*
X-2811413Y-10297436D01*
X-2811413Y-10297436D02*
X-2811413Y-10316484D01*
X-2811413Y-10192674D02*
X-2801890Y-10202198D01*
X-2801890Y-10202198D02*
X-2811413Y-10211722D01*
X-2811413Y-10211722D02*
X-2820937Y-10202198D01*
X-2820937Y-10202198D02*
X-2811413Y-10192674D01*
X-2811413Y-10192674D02*
X-2811413Y-10211722D01*
X-4643619Y-10545000D02*
X-4443619Y-10745000D01*
X-4443619Y-10545000D02*
X-4643619Y-10745000D01*
X-4201890Y-10536484D02*
X-4078080Y-10536484D01*
X-4078080Y-10536484D02*
X-4144747Y-10612674D01*
X-4144747Y-10612674D02*
X-4116175Y-10612674D01*
X-4116175Y-10612674D02*
X-4097128Y-10622198D01*
X-4097128Y-10622198D02*
X-4087604Y-10631722D01*
X-4087604Y-10631722D02*
X-4078080Y-10650770D01*
X-4078080Y-10650770D02*
X-4078080Y-10698389D01*
X-4078080Y-10698389D02*
X-4087604Y-10717436D01*
X-4087604Y-10717436D02*
X-4097128Y-10726960D01*
X-4097128Y-10726960D02*
X-4116175Y-10736484D01*
X-4116175Y-10736484D02*
X-4173318Y-10736484D01*
X-4173318Y-10736484D02*
X-4192366Y-10726960D01*
X-4192366Y-10726960D02*
X-4201890Y-10717436D01*
X-3992366Y-10717436D02*
X-3982842Y-10726960D01*
X-3982842Y-10726960D02*
X-3992366Y-10736484D01*
X-3992366Y-10736484D02*
X-4001890Y-10726960D01*
X-4001890Y-10726960D02*
X-3992366Y-10717436D01*
X-3992366Y-10717436D02*
X-3992366Y-10736484D01*
X-3906652Y-10555531D02*
X-3897128Y-10546008D01*
X-3897128Y-10546008D02*
X-3878080Y-10536484D01*
X-3878080Y-10536484D02*
X-3830461Y-10536484D01*
X-3830461Y-10536484D02*
X-3811413Y-10546008D01*
X-3811413Y-10546008D02*
X-3801890Y-10555531D01*
X-3801890Y-10555531D02*
X-3792366Y-10574579D01*
X-3792366Y-10574579D02*
X-3792366Y-10593627D01*
X-3792366Y-10593627D02*
X-3801890Y-10622198D01*
X-3801890Y-10622198D02*
X-3916175Y-10736484D01*
X-3916175Y-10736484D02*
X-3792366Y-10736484D01*
X-3668556Y-10536484D02*
X-3649509Y-10536484D01*
X-3649509Y-10536484D02*
X-3630461Y-10546008D01*
X-3630461Y-10546008D02*
X-3620937Y-10555531D01*
X-3620937Y-10555531D02*
X-3611413Y-10574579D01*
X-3611413Y-10574579D02*
X-3601890Y-10612674D01*
X-3601890Y-10612674D02*
X-3601890Y-10660293D01*
X-3601890Y-10660293D02*
X-3611413Y-10698389D01*
X-3611413Y-10698389D02*
X-3620937Y-10717436D01*
X-3620937Y-10717436D02*
X-3630461Y-10726960D01*
X-3630461Y-10726960D02*
X-3649509Y-10736484D01*
X-3649509Y-10736484D02*
X-3668556Y-10736484D01*
X-3668556Y-10736484D02*
X-3687604Y-10726960D01*
X-3687604Y-10726960D02*
X-3697128Y-10717436D01*
X-3697128Y-10717436D02*
X-3706652Y-10698389D01*
X-3706652Y-10698389D02*
X-3716175Y-10660293D01*
X-3716175Y-10660293D02*
X-3716175Y-10612674D01*
X-3716175Y-10612674D02*
X-3706652Y-10574579D01*
X-3706652Y-10574579D02*
X-3697128Y-10555531D01*
X-3697128Y-10555531D02*
X-3687604Y-10546008D01*
X-3687604Y-10546008D02*
X-3668556Y-10536484D01*
X-3478080Y-10536484D02*
X-3459032Y-10536484D01*
X-3459032Y-10536484D02*
X-3439985Y-10546008D01*
X-3439985Y-10546008D02*
X-3430461Y-10555531D01*
X-3430461Y-10555531D02*
X-3420937Y-10574579D01*
X-3420937Y-10574579D02*
X-3411413Y-10612674D01*
X-3411413Y-10612674D02*
X-3411413Y-10660293D01*
X-3411413Y-10660293D02*
X-3420937Y-10698389D01*
X-3420937Y-10698389D02*
X-3430461Y-10717436D01*
X-3430461Y-10717436D02*
X-3439985Y-10726960D01*
X-3439985Y-10726960D02*
X-3459032Y-10736484D01*
X-3459032Y-10736484D02*
X-3478080Y-10736484D01*
X-3478080Y-10736484D02*
X-3497128Y-10726960D01*
X-3497128Y-10726960D02*
X-3506652Y-10717436D01*
X-3506652Y-10717436D02*
X-3516175Y-10698389D01*
X-3516175Y-10698389D02*
X-3525699Y-10660293D01*
X-3525699Y-10660293D02*
X-3525699Y-10612674D01*
X-3525699Y-10612674D02*
X-3516175Y-10574579D01*
X-3516175Y-10574579D02*
X-3506652Y-10555531D01*
X-3506652Y-10555531D02*
X-3497128Y-10546008D01*
X-3497128Y-10546008D02*
X-3478080Y-10536484D01*
X-3325699Y-10736484D02*
X-3325699Y-10603150D01*
X-3325699Y-10622198D02*
X-3316175Y-10612674D01*
X-3316175Y-10612674D02*
X-3297128Y-10603150D01*
X-3297128Y-10603150D02*
X-3268556Y-10603150D01*
X-3268556Y-10603150D02*
X-3249509Y-10612674D01*
X-3249509Y-10612674D02*
X-3239985Y-10631722D01*
X-3239985Y-10631722D02*
X-3239985Y-10736484D01*
X-3239985Y-10631722D02*
X-3230461Y-10612674D01*
X-3230461Y-10612674D02*
X-3211413Y-10603150D01*
X-3211413Y-10603150D02*
X-3182842Y-10603150D01*
X-3182842Y-10603150D02*
X-3163794Y-10612674D01*
X-3163794Y-10612674D02*
X-3154271Y-10631722D01*
X-3154271Y-10631722D02*
X-3154271Y-10736484D01*
X-3059032Y-10736484D02*
X-3059032Y-10603150D01*
X-3059032Y-10622198D02*
X-3049509Y-10612674D01*
X-3049509Y-10612674D02*
X-3030461Y-10603150D01*
X-3030461Y-10603150D02*
X-3001890Y-10603150D01*
X-3001890Y-10603150D02*
X-2982842Y-10612674D01*
X-2982842Y-10612674D02*
X-2973318Y-10631722D01*
X-2973318Y-10631722D02*
X-2973318Y-10736484D01*
X-2973318Y-10631722D02*
X-2963794Y-10612674D01*
X-2963794Y-10612674D02*
X-2944747Y-10603150D01*
X-2944747Y-10603150D02*
X-2916175Y-10603150D01*
X-2916175Y-10603150D02*
X-2897128Y-10612674D01*
X-2897128Y-10612674D02*
X-2887604Y-10631722D01*
X-2887604Y-10631722D02*
X-2887604Y-10736484D01*
X-2497128Y-10526960D02*
X-2668556Y-10784103D01*
X-2239985Y-10536484D02*
X-2220937Y-10536484D01*
X-2220937Y-10536484D02*
X-2201890Y-10546008D01*
X-2201890Y-10546008D02*
X-2192366Y-10555531D01*
X-2192366Y-10555531D02*
X-2182842Y-10574579D01*
X-2182842Y-10574579D02*
X-2173318Y-10612674D01*
X-2173318Y-10612674D02*
X-2173318Y-10660293D01*
X-2173318Y-10660293D02*
X-2182842Y-10698389D01*
X-2182842Y-10698389D02*
X-2192366Y-10717436D01*
X-2192366Y-10717436D02*
X-2201890Y-10726960D01*
X-2201890Y-10726960D02*
X-2220937Y-10736484D01*
X-2220937Y-10736484D02*
X-2239985Y-10736484D01*
X-2239985Y-10736484D02*
X-2259032Y-10726960D01*
X-2259032Y-10726960D02*
X-2268556Y-10717436D01*
X-2268556Y-10717436D02*
X-2278080Y-10698389D01*
X-2278080Y-10698389D02*
X-2287604Y-10660293D01*
X-2287604Y-10660293D02*
X-2287604Y-10612674D01*
X-2287604Y-10612674D02*
X-2278080Y-10574579D01*
X-2278080Y-10574579D02*
X-2268556Y-10555531D01*
X-2268556Y-10555531D02*
X-2259032Y-10546008D01*
X-2259032Y-10546008D02*
X-2239985Y-10536484D01*
X-2087604Y-10717436D02*
X-2078080Y-10726960D01*
X-2078080Y-10726960D02*
X-2087604Y-10736484D01*
X-2087604Y-10736484D02*
X-2097128Y-10726960D01*
X-2097128Y-10726960D02*
X-2087604Y-10717436D01*
X-2087604Y-10717436D02*
X-2087604Y-10736484D01*
X-1887604Y-10736484D02*
X-2001889Y-10736484D01*
X-1944747Y-10736484D02*
X-1944747Y-10536484D01*
X-1944747Y-10536484D02*
X-1963794Y-10565055D01*
X-1963794Y-10565055D02*
X-1982842Y-10584103D01*
X-1982842Y-10584103D02*
X-2001889Y-10593627D01*
X-1811413Y-10555531D02*
X-1801889Y-10546008D01*
X-1801889Y-10546008D02*
X-1782842Y-10536484D01*
X-1782842Y-10536484D02*
X-1735223Y-10536484D01*
X-1735223Y-10536484D02*
X-1716175Y-10546008D01*
X-1716175Y-10546008D02*
X-1706651Y-10555531D01*
X-1706651Y-10555531D02*
X-1697128Y-10574579D01*
X-1697128Y-10574579D02*
X-1697128Y-10593627D01*
X-1697128Y-10593627D02*
X-1706651Y-10622198D01*
X-1706651Y-10622198D02*
X-1820937Y-10736484D01*
X-1820937Y-10736484D02*
X-1697128Y-10736484D01*
X-1525699Y-10536484D02*
X-1563794Y-10536484D01*
X-1563794Y-10536484D02*
X-1582842Y-10546008D01*
X-1582842Y-10546008D02*
X-1592366Y-10555531D01*
X-1592366Y-10555531D02*
X-1611413Y-10584103D01*
X-1611413Y-10584103D02*
X-1620937Y-10622198D01*
X-1620937Y-10622198D02*
X-1620937Y-10698389D01*
X-1620937Y-10698389D02*
X-1611413Y-10717436D01*
X-1611413Y-10717436D02*
X-1601889Y-10726960D01*
X-1601889Y-10726960D02*
X-1582842Y-10736484D01*
X-1582842Y-10736484D02*
X-1544747Y-10736484D01*
X-1544747Y-10736484D02*
X-1525699Y-10726960D01*
X-1525699Y-10726960D02*
X-1516175Y-10717436D01*
X-1516175Y-10717436D02*
X-1506651Y-10698389D01*
X-1506651Y-10698389D02*
X-1506651Y-10650770D01*
X-1506651Y-10650770D02*
X-1516175Y-10631722D01*
X-1516175Y-10631722D02*
X-1525699Y-10622198D01*
X-1525699Y-10622198D02*
X-1544747Y-10612674D01*
X-1544747Y-10612674D02*
X-1582842Y-10612674D01*
X-1582842Y-10612674D02*
X-1601889Y-10622198D01*
X-1601889Y-10622198D02*
X-1611413Y-10631722D01*
X-1611413Y-10631722D02*
X-1620937Y-10650770D01*
X-1382842Y-10536484D02*
X-1363794Y-10536484D01*
X-1363794Y-10536484D02*
X-1344747Y-10546008D01*
X-1344747Y-10546008D02*
X-1335223Y-10555531D01*
X-1335223Y-10555531D02*
X-1325699Y-10574579D01*
X-1325699Y-10574579D02*
X-1316175Y-10612674D01*
X-1316175Y-10612674D02*
X-1316175Y-10660293D01*
X-1316175Y-10660293D02*
X-1325699Y-10698389D01*
X-1325699Y-10698389D02*
X-1335223Y-10717436D01*
X-1335223Y-10717436D02*
X-1344747Y-10726960D01*
X-1344747Y-10726960D02*
X-1363794Y-10736484D01*
X-1363794Y-10736484D02*
X-1382842Y-10736484D01*
X-1382842Y-10736484D02*
X-1401889Y-10726960D01*
X-1401889Y-10726960D02*
X-1411413Y-10717436D01*
X-1411413Y-10717436D02*
X-1420937Y-10698389D01*
X-1420937Y-10698389D02*
X-1430461Y-10660293D01*
X-1430461Y-10660293D02*
X-1430461Y-10612674D01*
X-1430461Y-10612674D02*
X-1420937Y-10574579D01*
X-1420937Y-10574579D02*
X-1411413Y-10555531D01*
X-1411413Y-10555531D02*
X-1401889Y-10546008D01*
X-1401889Y-10546008D02*
X-1382842Y-10536484D01*
X-1239985Y-10536484D02*
X-1239985Y-10574579D01*
X-1163794Y-10536484D02*
X-1163794Y-10574579D01*
X-868556Y-10812674D02*
X-878080Y-10803150D01*
X-878080Y-10803150D02*
X-897127Y-10774579D01*
X-897127Y-10774579D02*
X-906651Y-10755531D01*
X-906651Y-10755531D02*
X-916175Y-10726960D01*
X-916175Y-10726960D02*
X-925699Y-10679341D01*
X-925699Y-10679341D02*
X-925699Y-10641246D01*
X-925699Y-10641246D02*
X-916175Y-10593627D01*
X-916175Y-10593627D02*
X-906651Y-10565055D01*
X-906651Y-10565055D02*
X-897127Y-10546008D01*
X-897127Y-10546008D02*
X-878080Y-10517436D01*
X-878080Y-10517436D02*
X-868556Y-10507912D01*
X-687604Y-10736484D02*
X-801889Y-10736484D01*
X-744747Y-10736484D02*
X-744747Y-10536484D01*
X-744747Y-10536484D02*
X-763794Y-10565055D01*
X-763794Y-10565055D02*
X-782842Y-10584103D01*
X-782842Y-10584103D02*
X-801889Y-10593627D01*
X-449508Y-10736484D02*
X-449508Y-10536484D01*
X-363794Y-10736484D02*
X-363794Y-10631722D01*
X-363794Y-10631722D02*
X-373318Y-10612674D01*
X-373318Y-10612674D02*
X-392365Y-10603150D01*
X-392365Y-10603150D02*
X-420937Y-10603150D01*
X-420937Y-10603150D02*
X-439985Y-10612674D01*
X-439985Y-10612674D02*
X-449508Y-10622198D01*
X-239985Y-10736484D02*
X-259032Y-10726960D01*
X-259032Y-10726960D02*
X-268556Y-10717436D01*
X-268556Y-10717436D02*
X-278080Y-10698389D01*
X-278080Y-10698389D02*
X-278080Y-10641246D01*
X-278080Y-10641246D02*
X-268556Y-10622198D01*
X-268556Y-10622198D02*
X-259032Y-10612674D01*
X-259032Y-10612674D02*
X-239985Y-10603150D01*
X-239985Y-10603150D02*
X-211413Y-10603150D01*
X-211413Y-10603150D02*
X-192365Y-10612674D01*
X-192365Y-10612674D02*
X-182842Y-10622198D01*
X-182842Y-10622198D02*
X-173318Y-10641246D01*
X-173318Y-10641246D02*
X-173318Y-10698389D01*
X-173318Y-10698389D02*
X-182842Y-10717436D01*
X-182842Y-10717436D02*
X-192365Y-10726960D01*
X-192365Y-10726960D02*
X-211413Y-10736484D01*
X-211413Y-10736484D02*
X-239985Y-10736484D01*
X-59032Y-10736484D02*
X-78080Y-10726960D01*
X-78080Y-10726960D02*
X-87604Y-10707912D01*
X-87604Y-10707912D02*
X-87604Y-10536484D01*
X93349Y-10726960D02*
X74301Y-10736484D01*
X74301Y-10736484D02*
X36206Y-10736484D01*
X36206Y-10736484D02*
X17158Y-10726960D01*
X17158Y-10726960D02*
X7634Y-10707912D01*
X7634Y-10707912D02*
X7634Y-10631722D01*
X7634Y-10631722D02*
X17158Y-10612674D01*
X17158Y-10612674D02*
X36206Y-10603150D01*
X36206Y-10603150D02*
X74301Y-10603150D01*
X74301Y-10603150D02*
X93349Y-10612674D01*
X93349Y-10612674D02*
X102872Y-10631722D01*
X102872Y-10631722D02*
X102872Y-10650770D01*
X102872Y-10650770D02*
X7634Y-10669817D01*
X169539Y-10812674D02*
X179063Y-10803150D01*
X179063Y-10803150D02*
X198111Y-10774579D01*
X198111Y-10774579D02*
X207634Y-10755531D01*
X207634Y-10755531D02*
X217158Y-10726960D01*
X217158Y-10726960D02*
X226682Y-10679341D01*
X226682Y-10679341D02*
X226682Y-10641246D01*
X226682Y-10641246D02*
X217158Y-10593627D01*
X217158Y-10593627D02*
X207634Y-10565055D01*
X207634Y-10565055D02*
X198111Y-10546008D01*
X198111Y-10546008D02*
X179063Y-10517436D01*
X179063Y-10517436D02*
X169539Y-10507912D01*
X531444Y-10812674D02*
X521920Y-10803150D01*
X521920Y-10803150D02*
X502872Y-10774579D01*
X502872Y-10774579D02*
X493349Y-10755531D01*
X493349Y-10755531D02*
X483825Y-10726960D01*
X483825Y-10726960D02*
X474301Y-10679341D01*
X474301Y-10679341D02*
X474301Y-10641246D01*
X474301Y-10641246D02*
X483825Y-10593627D01*
X483825Y-10593627D02*
X493349Y-10565055D01*
X493349Y-10565055D02*
X502872Y-10546008D01*
X502872Y-10546008D02*
X521920Y-10517436D01*
X521920Y-10517436D02*
X531444Y-10507912D01*
X607634Y-10603150D02*
X607634Y-10736484D01*
X607634Y-10622198D02*
X617158Y-10612674D01*
X617158Y-10612674D02*
X636206Y-10603150D01*
X636206Y-10603150D02*
X664777Y-10603150D01*
X664777Y-10603150D02*
X683825Y-10612674D01*
X683825Y-10612674D02*
X693349Y-10631722D01*
X693349Y-10631722D02*
X693349Y-10736484D01*
X817158Y-10736484D02*
X798111Y-10726960D01*
X798111Y-10726960D02*
X788587Y-10717436D01*
X788587Y-10717436D02*
X779063Y-10698389D01*
X779063Y-10698389D02*
X779063Y-10641246D01*
X779063Y-10641246D02*
X788587Y-10622198D01*
X788587Y-10622198D02*
X798111Y-10612674D01*
X798111Y-10612674D02*
X817158Y-10603150D01*
X817158Y-10603150D02*
X845730Y-10603150D01*
X845730Y-10603150D02*
X864777Y-10612674D01*
X864777Y-10612674D02*
X874301Y-10622198D01*
X874301Y-10622198D02*
X883825Y-10641246D01*
X883825Y-10641246D02*
X883825Y-10698389D01*
X883825Y-10698389D02*
X874301Y-10717436D01*
X874301Y-10717436D02*
X864777Y-10726960D01*
X864777Y-10726960D02*
X845730Y-10736484D01*
X845730Y-10736484D02*
X817158Y-10736484D01*
X940968Y-10603150D02*
X1017158Y-10603150D01*
X969539Y-10536484D02*
X969539Y-10707912D01*
X969539Y-10707912D02*
X979063Y-10726960D01*
X979063Y-10726960D02*
X998111Y-10736484D01*
X998111Y-10736484D02*
X1017158Y-10736484D01*
X1236206Y-10603150D02*
X1236206Y-10803150D01*
X1236206Y-10612674D02*
X1255254Y-10603150D01*
X1255254Y-10603150D02*
X1293349Y-10603150D01*
X1293349Y-10603150D02*
X1312396Y-10612674D01*
X1312396Y-10612674D02*
X1321920Y-10622198D01*
X1321920Y-10622198D02*
X1331444Y-10641246D01*
X1331444Y-10641246D02*
X1331444Y-10698389D01*
X1331444Y-10698389D02*
X1321920Y-10717436D01*
X1321920Y-10717436D02*
X1312396Y-10726960D01*
X1312396Y-10726960D02*
X1293349Y-10736484D01*
X1293349Y-10736484D02*
X1255254Y-10736484D01*
X1255254Y-10736484D02*
X1236206Y-10726960D01*
X1445730Y-10736484D02*
X1426682Y-10726960D01*
X1426682Y-10726960D02*
X1417158Y-10707912D01*
X1417158Y-10707912D02*
X1417158Y-10536484D01*
X1607634Y-10736484D02*
X1607634Y-10631722D01*
X1607634Y-10631722D02*
X1598111Y-10612674D01*
X1598111Y-10612674D02*
X1579063Y-10603150D01*
X1579063Y-10603150D02*
X1540968Y-10603150D01*
X1540968Y-10603150D02*
X1521920Y-10612674D01*
X1607634Y-10726960D02*
X1588587Y-10736484D01*
X1588587Y-10736484D02*
X1540968Y-10736484D01*
X1540968Y-10736484D02*
X1521920Y-10726960D01*
X1521920Y-10726960D02*
X1512396Y-10707912D01*
X1512396Y-10707912D02*
X1512396Y-10688865D01*
X1512396Y-10688865D02*
X1521920Y-10669817D01*
X1521920Y-10669817D02*
X1540968Y-10660293D01*
X1540968Y-10660293D02*
X1588587Y-10660293D01*
X1588587Y-10660293D02*
X1607634Y-10650770D01*
X1674301Y-10603150D02*
X1750492Y-10603150D01*
X1702873Y-10536484D02*
X1702873Y-10707912D01*
X1702873Y-10707912D02*
X1712396Y-10726960D01*
X1712396Y-10726960D02*
X1731444Y-10736484D01*
X1731444Y-10736484D02*
X1750492Y-10736484D01*
X1893349Y-10726960D02*
X1874301Y-10736484D01*
X1874301Y-10736484D02*
X1836206Y-10736484D01*
X1836206Y-10736484D02*
X1817158Y-10726960D01*
X1817158Y-10726960D02*
X1807634Y-10707912D01*
X1807634Y-10707912D02*
X1807634Y-10631722D01*
X1807634Y-10631722D02*
X1817158Y-10612674D01*
X1817158Y-10612674D02*
X1836206Y-10603150D01*
X1836206Y-10603150D02*
X1874301Y-10603150D01*
X1874301Y-10603150D02*
X1893349Y-10612674D01*
X1893349Y-10612674D02*
X1902873Y-10631722D01*
X1902873Y-10631722D02*
X1902873Y-10650770D01*
X1902873Y-10650770D02*
X1807634Y-10669817D01*
X2074301Y-10736484D02*
X2074301Y-10536484D01*
X2074301Y-10726960D02*
X2055254Y-10736484D01*
X2055254Y-10736484D02*
X2017158Y-10736484D01*
X2017158Y-10736484D02*
X1998111Y-10726960D01*
X1998111Y-10726960D02*
X1988587Y-10717436D01*
X1988587Y-10717436D02*
X1979063Y-10698389D01*
X1979063Y-10698389D02*
X1979063Y-10641246D01*
X1979063Y-10641246D02*
X1988587Y-10622198D01*
X1988587Y-10622198D02*
X1998111Y-10612674D01*
X1998111Y-10612674D02*
X2017158Y-10603150D01*
X2017158Y-10603150D02*
X2055254Y-10603150D01*
X2055254Y-10603150D02*
X2074301Y-10612674D01*
X2150492Y-10812674D02*
X2160016Y-10803150D01*
X2160016Y-10803150D02*
X2179063Y-10774579D01*
X2179063Y-10774579D02*
X2188587Y-10755531D01*
X2188587Y-10755531D02*
X2198111Y-10726960D01*
X2198111Y-10726960D02*
X2207635Y-10679341D01*
X2207635Y-10679341D02*
X2207635Y-10641246D01*
X2207635Y-10641246D02*
X2198111Y-10593627D01*
X2198111Y-10593627D02*
X2188587Y-10565055D01*
X2188587Y-10565055D02*
X2179063Y-10546008D01*
X2179063Y-10546008D02*
X2160016Y-10517436D01*
X2160016Y-10517436D02*
X2150492Y-10507912D01*
M02*
