G04 #@! TF.GenerationSoftware,KiCad,Pcbnew,7.0.2.1-36-g582732918d-dirty-deb11*
G04 #@! TF.CreationDate,2024-01-19T22:58:02+00:00*
G04 #@! TF.ProjectId,owlThief,6f776c54-6869-4656-962e-6b696361645f,rev?*
G04 #@! TF.SameCoordinates,Original*
G04 #@! TF.FileFunction,Legend,Bot*
G04 #@! TF.FilePolarity,Positive*
%FSLAX46Y46*%
G04 Gerber Fmt 4.6, Leading zero omitted, Abs format (unit mm)*
G04 Created by KiCad (PCBNEW 7.0.2.1-36-g582732918d-dirty-deb11) date 2024-01-19 22:58:02*
%MOMM*%
%LPD*%
G01*
G04 APERTURE LIST*
%ADD10C,0.200000*%
%ADD11C,0.150000*%
%ADD12C,0.120000*%
%ADD13C,0.127000*%
%ADD14C,0.000000*%
%ADD15C,0.300000*%
%ADD16C,0.010000*%
%ADD17R,1.524000X5.000000*%
%ADD18R,1.700000X3.300000*%
%ADD19R,0.700000X2.000000*%
%ADD20R,1.300000X3.150000*%
G04 APERTURE END LIST*
D10*
X210046190Y-120777619D02*
X210046190Y-121491904D01*
X210046190Y-121491904D02*
X210093809Y-121634761D01*
X210093809Y-121634761D02*
X210189047Y-121730000D01*
X210189047Y-121730000D02*
X210331904Y-121777619D01*
X210331904Y-121777619D02*
X210427142Y-121777619D01*
X209093809Y-121777619D02*
X209569999Y-121777619D01*
X209569999Y-121777619D02*
X209569999Y-120777619D01*
X208189047Y-121682380D02*
X208236666Y-121730000D01*
X208236666Y-121730000D02*
X208379523Y-121777619D01*
X208379523Y-121777619D02*
X208474761Y-121777619D01*
X208474761Y-121777619D02*
X208617618Y-121730000D01*
X208617618Y-121730000D02*
X208712856Y-121634761D01*
X208712856Y-121634761D02*
X208760475Y-121539523D01*
X208760475Y-121539523D02*
X208808094Y-121349047D01*
X208808094Y-121349047D02*
X208808094Y-121206190D01*
X208808094Y-121206190D02*
X208760475Y-121015714D01*
X208760475Y-121015714D02*
X208712856Y-120920476D01*
X208712856Y-120920476D02*
X208617618Y-120825238D01*
X208617618Y-120825238D02*
X208474761Y-120777619D01*
X208474761Y-120777619D02*
X208379523Y-120777619D01*
X208379523Y-120777619D02*
X208236666Y-120825238D01*
X208236666Y-120825238D02*
X208189047Y-120872857D01*
X207474761Y-120777619D02*
X207474761Y-121491904D01*
X207474761Y-121491904D02*
X207522380Y-121634761D01*
X207522380Y-121634761D02*
X207617618Y-121730000D01*
X207617618Y-121730000D02*
X207760475Y-121777619D01*
X207760475Y-121777619D02*
X207855713Y-121777619D01*
X206522380Y-121777619D02*
X206998570Y-121777619D01*
X206998570Y-121777619D02*
X206998570Y-120777619D01*
X205617618Y-121682380D02*
X205665237Y-121730000D01*
X205665237Y-121730000D02*
X205808094Y-121777619D01*
X205808094Y-121777619D02*
X205903332Y-121777619D01*
X205903332Y-121777619D02*
X206046189Y-121730000D01*
X206046189Y-121730000D02*
X206141427Y-121634761D01*
X206141427Y-121634761D02*
X206189046Y-121539523D01*
X206189046Y-121539523D02*
X206236665Y-121349047D01*
X206236665Y-121349047D02*
X206236665Y-121206190D01*
X206236665Y-121206190D02*
X206189046Y-121015714D01*
X206189046Y-121015714D02*
X206141427Y-120920476D01*
X206141427Y-120920476D02*
X206046189Y-120825238D01*
X206046189Y-120825238D02*
X205903332Y-120777619D01*
X205903332Y-120777619D02*
X205808094Y-120777619D01*
X205808094Y-120777619D02*
X205665237Y-120825238D01*
X205665237Y-120825238D02*
X205617618Y-120872857D01*
X204903332Y-120777619D02*
X204903332Y-121491904D01*
X204903332Y-121491904D02*
X204950951Y-121634761D01*
X204950951Y-121634761D02*
X205046189Y-121730000D01*
X205046189Y-121730000D02*
X205189046Y-121777619D01*
X205189046Y-121777619D02*
X205284284Y-121777619D01*
X203950951Y-121777619D02*
X204427141Y-121777619D01*
X204427141Y-121777619D02*
X204427141Y-120777619D01*
X203046189Y-121682380D02*
X203093808Y-121730000D01*
X203093808Y-121730000D02*
X203236665Y-121777619D01*
X203236665Y-121777619D02*
X203331903Y-121777619D01*
X203331903Y-121777619D02*
X203474760Y-121730000D01*
X203474760Y-121730000D02*
X203569998Y-121634761D01*
X203569998Y-121634761D02*
X203617617Y-121539523D01*
X203617617Y-121539523D02*
X203665236Y-121349047D01*
X203665236Y-121349047D02*
X203665236Y-121206190D01*
X203665236Y-121206190D02*
X203617617Y-121015714D01*
X203617617Y-121015714D02*
X203569998Y-120920476D01*
X203569998Y-120920476D02*
X203474760Y-120825238D01*
X203474760Y-120825238D02*
X203331903Y-120777619D01*
X203331903Y-120777619D02*
X203236665Y-120777619D01*
X203236665Y-120777619D02*
X203093808Y-120825238D01*
X203093808Y-120825238D02*
X203046189Y-120872857D01*
X202331903Y-120777619D02*
X202331903Y-121491904D01*
X202331903Y-121491904D02*
X202379522Y-121634761D01*
X202379522Y-121634761D02*
X202474760Y-121730000D01*
X202474760Y-121730000D02*
X202617617Y-121777619D01*
X202617617Y-121777619D02*
X202712855Y-121777619D01*
X201379522Y-121777619D02*
X201855712Y-121777619D01*
X201855712Y-121777619D02*
X201855712Y-120777619D01*
X200474760Y-121682380D02*
X200522379Y-121730000D01*
X200522379Y-121730000D02*
X200665236Y-121777619D01*
X200665236Y-121777619D02*
X200760474Y-121777619D01*
X200760474Y-121777619D02*
X200903331Y-121730000D01*
X200903331Y-121730000D02*
X200998569Y-121634761D01*
X200998569Y-121634761D02*
X201046188Y-121539523D01*
X201046188Y-121539523D02*
X201093807Y-121349047D01*
X201093807Y-121349047D02*
X201093807Y-121206190D01*
X201093807Y-121206190D02*
X201046188Y-121015714D01*
X201046188Y-121015714D02*
X200998569Y-120920476D01*
X200998569Y-120920476D02*
X200903331Y-120825238D01*
X200903331Y-120825238D02*
X200760474Y-120777619D01*
X200760474Y-120777619D02*
X200665236Y-120777619D01*
X200665236Y-120777619D02*
X200522379Y-120825238D01*
X200522379Y-120825238D02*
X200474760Y-120872857D01*
D11*
X201230951Y-64951666D02*
X200469047Y-64951666D01*
X200849999Y-65332619D02*
X200849999Y-64570714D01*
X229390951Y-64851666D02*
X228629047Y-64851666D01*
X229009999Y-65232619D02*
X229009999Y-64470714D01*
X255830714Y-106488809D02*
X255687857Y-106536428D01*
X255687857Y-106536428D02*
X255640238Y-106584047D01*
X255640238Y-106584047D02*
X255592619Y-106679285D01*
X255592619Y-106679285D02*
X255592619Y-106822142D01*
X255592619Y-106822142D02*
X255640238Y-106917380D01*
X255640238Y-106917380D02*
X255687857Y-106965000D01*
X255687857Y-106965000D02*
X255783095Y-107012619D01*
X255783095Y-107012619D02*
X256164047Y-107012619D01*
X256164047Y-107012619D02*
X256164047Y-106012619D01*
X256164047Y-106012619D02*
X255830714Y-106012619D01*
X255830714Y-106012619D02*
X255735476Y-106060238D01*
X255735476Y-106060238D02*
X255687857Y-106107857D01*
X255687857Y-106107857D02*
X255640238Y-106203095D01*
X255640238Y-106203095D02*
X255640238Y-106298333D01*
X255640238Y-106298333D02*
X255687857Y-106393571D01*
X255687857Y-106393571D02*
X255735476Y-106441190D01*
X255735476Y-106441190D02*
X255830714Y-106488809D01*
X255830714Y-106488809D02*
X256164047Y-106488809D01*
X255306904Y-106012619D02*
X254735476Y-106012619D01*
X255021190Y-107012619D02*
X255021190Y-106012619D01*
X253878333Y-107012619D02*
X254449761Y-107012619D01*
X254164047Y-107012619D02*
X254164047Y-106012619D01*
X254164047Y-106012619D02*
X254259285Y-106155476D01*
X254259285Y-106155476D02*
X254354523Y-106250714D01*
X254354523Y-106250714D02*
X254449761Y-106298333D01*
D12*
X218500000Y-80931252D02*
X218500000Y-79508748D01*
X220320000Y-80931252D02*
X220320000Y-79508748D01*
X197350000Y-65420000D02*
X198450000Y-65420000D01*
X197350000Y-65920000D02*
X197350000Y-65420000D01*
X197550000Y-65420000D02*
X197550000Y-64220000D01*
X198250000Y-65420000D02*
X198250000Y-63320000D01*
X198450000Y-65420000D02*
X198450000Y-65920000D01*
X197350000Y-65920000D02*
G75*
G03*
X198450000Y-65920000I550000J0D01*
G01*
X225510000Y-65320000D02*
X226610000Y-65320000D01*
X225510000Y-65820000D02*
X225510000Y-65320000D01*
X225710000Y-65320000D02*
X225710000Y-64120000D01*
X226410000Y-65320000D02*
X226410000Y-63220000D01*
X226610000Y-65320000D02*
X226610000Y-65820000D01*
X225510000Y-65820000D02*
G75*
G03*
X226610000Y-65820000I550000J0D01*
G01*
X226852500Y-85190000D02*
X226852500Y-77890000D01*
X228852500Y-85190000D02*
X226852500Y-85190000D01*
X230152500Y-82740000D02*
X229152500Y-82740000D01*
X228852500Y-77890000D02*
X228852500Y-85190000D01*
X207300000Y-82580000D02*
X207300000Y-79505000D01*
X204080000Y-81655000D02*
X204080000Y-79505000D01*
X204990000Y-79505000D02*
X204080000Y-79505000D01*
X207290000Y-79505000D02*
X206390000Y-79505000D01*
X201400000Y-97942936D02*
X201400000Y-99397064D01*
X199580000Y-97942936D02*
X199580000Y-99397064D01*
D13*
X263125000Y-119730000D02*
X262125000Y-119730000D01*
X262625000Y-119230000D02*
X262625000Y-120230000D01*
X258340000Y-123210000D02*
X258340000Y-118930000D01*
X258340000Y-111950000D02*
X258340000Y-107670000D01*
X258340000Y-107670000D02*
X257125000Y-107670000D01*
X254495000Y-107670000D02*
X198410000Y-107670000D01*
X198410000Y-123210000D02*
X258340000Y-123210000D01*
X198410000Y-118930000D02*
X198410000Y-123210000D01*
X198410000Y-107670000D02*
X198410000Y-111950000D01*
X194625000Y-119480000D02*
X193625000Y-119480000D01*
D12*
X241890000Y-97170000D02*
X241890000Y-96070000D01*
X240090000Y-97120000D02*
X240090000Y-88970000D01*
X242690000Y-96070000D02*
X241890000Y-96070000D01*
X245090000Y-96070000D02*
X244290000Y-96070000D01*
X247290000Y-96070000D02*
X246840000Y-96070000D01*
X247290000Y-96070000D02*
X247290000Y-89070000D01*
X242690000Y-89070000D02*
X241890000Y-89070000D01*
X245090000Y-89070000D02*
X244290000Y-89070000D01*
X247290000Y-89070000D02*
X246890000Y-89070000D01*
%LPC*%
D14*
G36*
X196130000Y-92666667D02*
G01*
X195706667Y-92666667D01*
X195706667Y-92243334D01*
X196130000Y-92243334D01*
X196130000Y-92666667D01*
G37*
G36*
X202480000Y-85893334D02*
G01*
X199516666Y-85893334D01*
X199516666Y-83353334D01*
X199940000Y-83353334D01*
X199940000Y-85470001D01*
X202056666Y-85470001D01*
X202056666Y-83353334D01*
X199940000Y-83353334D01*
X199516666Y-83353334D01*
X199516666Y-82930001D01*
X202480000Y-82930001D01*
X202480000Y-85893334D01*
G37*
G36*
X194013334Y-90126667D02*
G01*
X193590000Y-90126667D01*
X193590000Y-89703334D01*
X194013334Y-89703334D01*
X194013334Y-90126667D01*
G37*
G36*
X194013334Y-85046668D02*
G01*
X192743334Y-85046668D01*
X192743334Y-83776668D01*
X194013334Y-83776668D01*
X194013334Y-85046668D01*
G37*
G36*
X199093333Y-85893334D02*
G01*
X198670000Y-85893334D01*
X198670000Y-84200001D01*
X198246666Y-84200001D01*
X198246666Y-83776667D01*
X198670000Y-83776667D01*
X198670000Y-83353334D01*
X199093333Y-83353334D01*
X199093333Y-85893334D01*
G37*
G36*
X196130000Y-87586667D02*
G01*
X195706666Y-87586667D01*
X195706666Y-87163334D01*
X196130000Y-87163334D01*
X196130000Y-87586667D01*
G37*
G36*
X194436667Y-89703334D02*
G01*
X194013334Y-89703334D01*
X194013334Y-89280000D01*
X194436667Y-89280000D01*
X194436667Y-89703334D01*
G37*
G36*
X194860000Y-93513334D02*
G01*
X191896667Y-93513334D01*
X191896667Y-90973334D01*
X192320000Y-90973334D01*
X192320000Y-93090000D01*
X194436667Y-93090000D01*
X194436667Y-90973334D01*
X192320000Y-90973334D01*
X191896667Y-90973334D01*
X191896667Y-90550000D01*
X194860000Y-90550000D01*
X194860000Y-93513334D01*
G37*
G36*
X202480000Y-86740000D02*
G01*
X202056666Y-86740000D01*
X202056666Y-86316667D01*
X202480000Y-86316667D01*
X202480000Y-86740000D01*
G37*
G36*
X201633333Y-85046668D02*
G01*
X200363333Y-85046668D01*
X200363333Y-83776668D01*
X201633333Y-83776668D01*
X201633333Y-85046668D01*
G37*
G36*
X196553333Y-85893334D02*
G01*
X196130000Y-85893334D01*
X196130000Y-85470001D01*
X196553333Y-85470001D01*
X196553333Y-85893334D01*
G37*
G36*
X199940000Y-90973334D02*
G01*
X199516666Y-90973334D01*
X199516666Y-90550000D01*
X199940000Y-90550000D01*
X199940000Y-90973334D01*
G37*
G36*
X196976666Y-83353334D02*
G01*
X197400000Y-83353334D01*
X197400000Y-83776667D01*
X196976666Y-83776667D01*
X196976666Y-84200001D01*
X197400000Y-84200001D01*
X197400000Y-83776668D01*
X197823333Y-83776668D01*
X197823333Y-84623334D01*
X197400000Y-84623334D01*
X197400000Y-85046668D01*
X196976666Y-85046668D01*
X196976666Y-85470001D01*
X196553333Y-85470001D01*
X196553333Y-85046667D01*
X196130000Y-85046667D01*
X196130000Y-84200001D01*
X196553333Y-84200001D01*
X196553333Y-83353334D01*
X195283333Y-83353334D01*
X195283333Y-82930001D01*
X196976666Y-82930001D01*
X196976666Y-83353334D01*
G37*
G36*
X192743333Y-86740000D02*
G01*
X193166667Y-86740000D01*
X193166667Y-86316667D01*
X194013333Y-86316667D01*
X194013333Y-86740000D01*
X193590000Y-86740000D01*
X193590000Y-88010000D01*
X196976666Y-88010000D01*
X196976666Y-88856667D01*
X196130000Y-88856667D01*
X196130000Y-88433334D01*
X193590000Y-88433334D01*
X193590000Y-89280000D01*
X193166667Y-89280000D01*
X193166667Y-90126667D01*
X192743333Y-90126667D01*
X192743333Y-89280000D01*
X192320000Y-89280000D01*
X192320000Y-90126667D01*
X191896667Y-90126667D01*
X191896667Y-88433334D01*
X192743333Y-88433334D01*
X192743333Y-89280000D01*
X193166667Y-89280000D01*
X193166667Y-88433334D01*
X192743333Y-88433334D01*
X191896667Y-88433334D01*
X191896667Y-88010000D01*
X192743333Y-88010000D01*
X192743333Y-87586667D01*
X193166667Y-87586667D01*
X193166667Y-87163334D01*
X192320000Y-87163334D01*
X192320000Y-87586667D01*
X191896667Y-87586667D01*
X191896667Y-86316667D01*
X192743333Y-86316667D01*
X192743333Y-86740000D01*
G37*
G36*
X202056666Y-91820000D02*
G01*
X202480000Y-91820000D01*
X202480000Y-93513334D01*
X202056666Y-93513334D01*
X202056666Y-93090000D01*
X201209999Y-93090000D01*
X201209999Y-93513334D01*
X200786666Y-93513334D01*
X200786666Y-93090000D01*
X199940000Y-93090000D01*
X199940000Y-92666667D01*
X200363333Y-92666667D01*
X200786666Y-92666667D01*
X200786666Y-93090000D01*
X201209999Y-93090000D01*
X201209999Y-92666667D01*
X200786666Y-92666667D01*
X200363333Y-92666667D01*
X200363333Y-92243334D01*
X201633333Y-92243334D01*
X201633333Y-91396667D01*
X202056666Y-91396667D01*
X202056666Y-91820000D01*
G37*
G36*
X194860000Y-85893334D02*
G01*
X191896667Y-85893334D01*
X191896667Y-83353334D01*
X192320000Y-83353334D01*
X192320000Y-85470001D01*
X194436667Y-85470001D01*
X194436667Y-83353334D01*
X192320000Y-83353334D01*
X191896667Y-83353334D01*
X191896667Y-82930001D01*
X194860000Y-82930001D01*
X194860000Y-85893334D01*
G37*
G36*
X196130000Y-84200001D02*
G01*
X195706666Y-84200001D01*
X195706666Y-83776667D01*
X196130000Y-83776667D01*
X196130000Y-84200001D01*
G37*
G36*
X202480000Y-91396667D02*
G01*
X202056666Y-91396667D01*
X202056666Y-90550000D01*
X202480000Y-90550000D01*
X202480000Y-91396667D01*
G37*
G36*
X195706666Y-92243334D02*
G01*
X195283334Y-92243334D01*
X195283334Y-91396667D01*
X195706666Y-91396667D01*
X195706666Y-92243334D01*
G37*
G36*
X194013334Y-92666667D02*
G01*
X192743334Y-92666667D01*
X192743334Y-91396667D01*
X194013334Y-91396667D01*
X194013334Y-92666667D01*
G37*
G36*
X198246666Y-85893334D02*
G01*
X197823333Y-85893334D01*
X197823333Y-86316667D01*
X197400000Y-86316667D01*
X197400000Y-86740000D01*
X198246666Y-86740000D01*
X198246666Y-85893334D01*
X198670000Y-85893334D01*
X198670000Y-87163334D01*
X199093333Y-87163334D01*
X199093333Y-88433334D01*
X199516666Y-88433334D01*
X199516666Y-88856667D01*
X199940000Y-88856667D01*
X199940000Y-89280000D01*
X199516666Y-89280000D01*
X199516666Y-89703334D01*
X199940000Y-89703334D01*
X199940000Y-89280000D01*
X200363333Y-89280000D01*
X200363333Y-89703334D01*
X200786666Y-89703334D01*
X200786666Y-89280000D01*
X201633333Y-89280000D01*
X201633333Y-89703334D01*
X202056666Y-89703334D01*
X202056666Y-89280000D01*
X201633333Y-89280000D01*
X200786666Y-89280000D01*
X200363333Y-89280000D01*
X200363333Y-88433334D01*
X200786666Y-88433334D01*
X200786666Y-88856667D01*
X201633333Y-88856667D01*
X201633333Y-88433334D01*
X202056666Y-88433334D01*
X202056666Y-88010000D01*
X200786666Y-88010000D01*
X200786666Y-87163334D01*
X200363333Y-87163334D01*
X200363333Y-88010000D01*
X199940000Y-88010000D01*
X199940000Y-87586667D01*
X199516666Y-87586667D01*
X199516666Y-87163334D01*
X199093333Y-87163334D01*
X199093333Y-86740000D01*
X199516666Y-86740000D01*
X199516666Y-86316667D01*
X199940000Y-86316667D01*
X199940000Y-86740000D01*
X199516666Y-86740000D01*
X199516666Y-87163334D01*
X199940000Y-87163334D01*
X199940000Y-86740000D01*
X202056666Y-86740000D01*
X202056666Y-87163334D01*
X201209999Y-87163334D01*
X201209999Y-87586667D01*
X202056666Y-87586667D01*
X202056666Y-87163334D01*
X202480000Y-87163334D01*
X202480000Y-88433334D01*
X202056666Y-88433334D01*
X202056666Y-88856667D01*
X202480000Y-88856667D01*
X202480000Y-89703334D01*
X202056666Y-89703334D01*
X202056666Y-90550000D01*
X201209999Y-90550000D01*
X201209999Y-89703334D01*
X200786666Y-89703334D01*
X200786666Y-91820000D01*
X199940000Y-91820000D01*
X199940000Y-92243334D01*
X199516666Y-92243334D01*
X199516666Y-92666667D01*
X198246666Y-92666667D01*
X198246666Y-93090000D01*
X197823333Y-93090000D01*
X197823333Y-92666667D01*
X197400000Y-92666667D01*
X197400000Y-93513334D01*
X196976666Y-93513334D01*
X196976666Y-92666667D01*
X196553333Y-92666667D01*
X196553333Y-92243334D01*
X196130000Y-92243334D01*
X196130000Y-91820000D01*
X196553333Y-91820000D01*
X196553333Y-91396667D01*
X195706667Y-91396667D01*
X195706667Y-90973334D01*
X196553333Y-90973334D01*
X196553333Y-91396667D01*
X196976666Y-91396667D01*
X196976666Y-90973334D01*
X196553333Y-90973334D01*
X195706667Y-90973334D01*
X195706667Y-90550000D01*
X196130000Y-90550000D01*
X196130000Y-90126667D01*
X195706666Y-90126667D01*
X195706666Y-90550000D01*
X195283334Y-90550000D01*
X195283334Y-90126667D01*
X194436667Y-90126667D01*
X194436667Y-89703334D01*
X194860000Y-89703334D01*
X194860000Y-89280000D01*
X194436667Y-89280000D01*
X194436667Y-88856667D01*
X195706667Y-88856667D01*
X195706667Y-89703334D01*
X196130000Y-89703334D01*
X196130000Y-89280000D01*
X196553334Y-89280000D01*
X196553334Y-89703334D01*
X196976667Y-89703334D01*
X196976667Y-90126667D01*
X196553334Y-90126667D01*
X196553334Y-90550000D01*
X196976667Y-90550000D01*
X196976667Y-90973334D01*
X197400000Y-90973334D01*
X197400000Y-90550000D01*
X197823333Y-90550000D01*
X197823333Y-91396667D01*
X197400000Y-91396667D01*
X197400000Y-91820000D01*
X196976666Y-91820000D01*
X196976666Y-92666667D01*
X197400000Y-92666667D01*
X197400000Y-92243334D01*
X197823333Y-92243334D01*
X197823333Y-92666667D01*
X198246666Y-92666667D01*
X198246666Y-92243334D01*
X197823333Y-92243334D01*
X197400000Y-92243334D01*
X197400000Y-91820000D01*
X198246666Y-91820000D01*
X198246666Y-92243334D01*
X198670000Y-92243334D01*
X198670000Y-91820000D01*
X199093333Y-91820000D01*
X199093333Y-92243334D01*
X199516666Y-92243334D01*
X199516666Y-91820000D01*
X199093333Y-91820000D01*
X198670000Y-91820000D01*
X198246666Y-91820000D01*
X198246666Y-90973334D01*
X198670000Y-90973334D01*
X198670000Y-90126667D01*
X199093333Y-90126667D01*
X199093333Y-91396667D01*
X200363333Y-91396667D01*
X200363333Y-90126667D01*
X199093333Y-90126667D01*
X198670000Y-90126667D01*
X198246666Y-90126667D01*
X198246666Y-89703334D01*
X198670000Y-89703334D01*
X198670000Y-89280000D01*
X199093333Y-89280000D01*
X199093333Y-88856667D01*
X198670000Y-88856667D01*
X198670000Y-89280000D01*
X198246666Y-89280000D01*
X198246666Y-89703334D01*
X197823333Y-89703334D01*
X197823333Y-89280000D01*
X196976666Y-89280000D01*
X196976666Y-88856667D01*
X197400000Y-88856667D01*
X197400000Y-88433334D01*
X198246666Y-88433334D01*
X198246666Y-87163334D01*
X197823333Y-87163334D01*
X197823333Y-87586667D01*
X197400000Y-87586667D01*
X197400000Y-87163334D01*
X196976666Y-87163334D01*
X196976666Y-87586667D01*
X196553333Y-87586667D01*
X196553333Y-87163334D01*
X196130000Y-87163334D01*
X196130000Y-86740000D01*
X196553333Y-86740000D01*
X196553333Y-85893334D01*
X196976666Y-85893334D01*
X196976666Y-86316667D01*
X197400000Y-86316667D01*
X197400000Y-85893334D01*
X196976666Y-85893334D01*
X196976666Y-85470001D01*
X197400000Y-85470001D01*
X197400000Y-85893334D01*
X197823333Y-85893334D01*
X197823333Y-85046667D01*
X198246666Y-85046667D01*
X198246666Y-85893334D01*
G37*
G36*
X199940000Y-88433334D02*
G01*
X199516666Y-88433334D01*
X199516666Y-88010000D01*
X199940000Y-88010000D01*
X199940000Y-88433334D01*
G37*
G36*
X198246666Y-83353334D02*
G01*
X197400000Y-83353334D01*
X197400000Y-82930001D01*
X198246666Y-82930001D01*
X198246666Y-83353334D01*
G37*
G36*
X196130000Y-85470001D02*
G01*
X195706666Y-85470001D01*
X195706666Y-85046667D01*
X196130000Y-85046667D01*
X196130000Y-85470001D01*
G37*
G36*
X199516666Y-93513334D02*
G01*
X198670000Y-93513334D01*
X198670000Y-93090000D01*
X199516666Y-93090000D01*
X199516666Y-93513334D01*
G37*
G36*
X197400000Y-88010000D02*
G01*
X196976666Y-88010000D01*
X196976666Y-87586667D01*
X197400000Y-87586667D01*
X197400000Y-88010000D01*
G37*
G36*
X195706666Y-85893334D02*
G01*
X196130000Y-85893334D01*
X196130000Y-86740000D01*
X195706666Y-86740000D01*
X195706666Y-86316667D01*
X195283333Y-86316667D01*
X195283333Y-85470001D01*
X195706666Y-85470001D01*
X195706666Y-85893334D01*
G37*
G36*
X194860000Y-86740000D02*
G01*
X194436667Y-86740000D01*
X194436667Y-87163334D01*
X194860000Y-87163334D01*
X194860000Y-86740000D01*
X195706666Y-86740000D01*
X195706666Y-87163334D01*
X195283333Y-87163334D01*
X195283333Y-87586667D01*
X194013333Y-87586667D01*
X194013333Y-86740000D01*
X194436667Y-86740000D01*
X194436667Y-86316667D01*
X194860000Y-86316667D01*
X194860000Y-86740000D01*
G37*
G36*
X195706666Y-93513334D02*
G01*
X195283333Y-93513334D01*
X195283334Y-93090000D01*
X195283334Y-92666667D01*
X195706666Y-92666667D01*
X195706666Y-93513334D01*
G37*
G36*
X197823333Y-90126667D02*
G01*
X197400000Y-90126667D01*
X197400000Y-89703334D01*
X197823333Y-89703334D01*
X197823333Y-90126667D01*
G37*
D15*
X219917142Y-44796428D02*
X219631428Y-44796428D01*
X219631428Y-44796428D02*
X219488571Y-44867857D01*
X219488571Y-44867857D02*
X219345714Y-45010714D01*
X219345714Y-45010714D02*
X219274285Y-45296428D01*
X219274285Y-45296428D02*
X219274285Y-45796428D01*
X219274285Y-45796428D02*
X219345714Y-46082142D01*
X219345714Y-46082142D02*
X219488571Y-46225000D01*
X219488571Y-46225000D02*
X219631428Y-46296428D01*
X219631428Y-46296428D02*
X219917142Y-46296428D01*
X219917142Y-46296428D02*
X220060000Y-46225000D01*
X220060000Y-46225000D02*
X220202857Y-46082142D01*
X220202857Y-46082142D02*
X220274285Y-45796428D01*
X220274285Y-45796428D02*
X220274285Y-45296428D01*
X220274285Y-45296428D02*
X220202857Y-45010714D01*
X220202857Y-45010714D02*
X220060000Y-44867857D01*
X220060000Y-44867857D02*
X219917142Y-44796428D01*
X218774285Y-45296428D02*
X218488571Y-46296428D01*
X218488571Y-46296428D02*
X218202856Y-45582142D01*
X218202856Y-45582142D02*
X217917142Y-46296428D01*
X217917142Y-46296428D02*
X217631428Y-45296428D01*
X216845713Y-46296428D02*
X216988570Y-46225000D01*
X216988570Y-46225000D02*
X217059999Y-46082142D01*
X217059999Y-46082142D02*
X217059999Y-44796428D01*
X215345713Y-44796428D02*
X214488571Y-44796428D01*
X214917142Y-46296428D02*
X214917142Y-44796428D01*
X213988571Y-46296428D02*
X213988571Y-44796428D01*
X213345714Y-46296428D02*
X213345714Y-45510714D01*
X213345714Y-45510714D02*
X213417142Y-45367857D01*
X213417142Y-45367857D02*
X213559999Y-45296428D01*
X213559999Y-45296428D02*
X213774285Y-45296428D01*
X213774285Y-45296428D02*
X213917142Y-45367857D01*
X213917142Y-45367857D02*
X213988571Y-45439285D01*
X212631428Y-46296428D02*
X212631428Y-45296428D01*
X212631428Y-44796428D02*
X212702856Y-44867857D01*
X212702856Y-44867857D02*
X212631428Y-44939285D01*
X212631428Y-44939285D02*
X212559999Y-44867857D01*
X212559999Y-44867857D02*
X212631428Y-44796428D01*
X212631428Y-44796428D02*
X212631428Y-44939285D01*
X211345713Y-46225000D02*
X211488570Y-46296428D01*
X211488570Y-46296428D02*
X211774285Y-46296428D01*
X211774285Y-46296428D02*
X211917142Y-46225000D01*
X211917142Y-46225000D02*
X211988570Y-46082142D01*
X211988570Y-46082142D02*
X211988570Y-45510714D01*
X211988570Y-45510714D02*
X211917142Y-45367857D01*
X211917142Y-45367857D02*
X211774285Y-45296428D01*
X211774285Y-45296428D02*
X211488570Y-45296428D01*
X211488570Y-45296428D02*
X211345713Y-45367857D01*
X211345713Y-45367857D02*
X211274285Y-45510714D01*
X211274285Y-45510714D02*
X211274285Y-45653571D01*
X211274285Y-45653571D02*
X211988570Y-45796428D01*
X210845713Y-45296428D02*
X210274285Y-45296428D01*
X210631428Y-46296428D02*
X210631428Y-45010714D01*
X210631428Y-45010714D02*
X210559999Y-44867857D01*
X210559999Y-44867857D02*
X210417142Y-44796428D01*
X210417142Y-44796428D02*
X210274285Y-44796428D01*
X220274285Y-47369285D02*
X220202857Y-47297857D01*
X220202857Y-47297857D02*
X220060000Y-47226428D01*
X220060000Y-47226428D02*
X219702857Y-47226428D01*
X219702857Y-47226428D02*
X219560000Y-47297857D01*
X219560000Y-47297857D02*
X219488571Y-47369285D01*
X219488571Y-47369285D02*
X219417142Y-47512142D01*
X219417142Y-47512142D02*
X219417142Y-47655000D01*
X219417142Y-47655000D02*
X219488571Y-47869285D01*
X219488571Y-47869285D02*
X220345714Y-48726428D01*
X220345714Y-48726428D02*
X219417142Y-48726428D01*
X218488571Y-47226428D02*
X218345714Y-47226428D01*
X218345714Y-47226428D02*
X218202857Y-47297857D01*
X218202857Y-47297857D02*
X218131429Y-47369285D01*
X218131429Y-47369285D02*
X218060000Y-47512142D01*
X218060000Y-47512142D02*
X217988571Y-47797857D01*
X217988571Y-47797857D02*
X217988571Y-48155000D01*
X217988571Y-48155000D02*
X218060000Y-48440714D01*
X218060000Y-48440714D02*
X218131429Y-48583571D01*
X218131429Y-48583571D02*
X218202857Y-48655000D01*
X218202857Y-48655000D02*
X218345714Y-48726428D01*
X218345714Y-48726428D02*
X218488571Y-48726428D01*
X218488571Y-48726428D02*
X218631429Y-48655000D01*
X218631429Y-48655000D02*
X218702857Y-48583571D01*
X218702857Y-48583571D02*
X218774286Y-48440714D01*
X218774286Y-48440714D02*
X218845714Y-48155000D01*
X218845714Y-48155000D02*
X218845714Y-47797857D01*
X218845714Y-47797857D02*
X218774286Y-47512142D01*
X218774286Y-47512142D02*
X218702857Y-47369285D01*
X218702857Y-47369285D02*
X218631429Y-47297857D01*
X218631429Y-47297857D02*
X218488571Y-47226428D01*
X217417143Y-47369285D02*
X217345715Y-47297857D01*
X217345715Y-47297857D02*
X217202858Y-47226428D01*
X217202858Y-47226428D02*
X216845715Y-47226428D01*
X216845715Y-47226428D02*
X216702858Y-47297857D01*
X216702858Y-47297857D02*
X216631429Y-47369285D01*
X216631429Y-47369285D02*
X216560000Y-47512142D01*
X216560000Y-47512142D02*
X216560000Y-47655000D01*
X216560000Y-47655000D02*
X216631429Y-47869285D01*
X216631429Y-47869285D02*
X217488572Y-48726428D01*
X217488572Y-48726428D02*
X216560000Y-48726428D01*
X216060001Y-47226428D02*
X215131429Y-47226428D01*
X215131429Y-47226428D02*
X215631429Y-47797857D01*
X215631429Y-47797857D02*
X215417144Y-47797857D01*
X215417144Y-47797857D02*
X215274287Y-47869285D01*
X215274287Y-47869285D02*
X215202858Y-47940714D01*
X215202858Y-47940714D02*
X215131429Y-48083571D01*
X215131429Y-48083571D02*
X215131429Y-48440714D01*
X215131429Y-48440714D02*
X215202858Y-48583571D01*
X215202858Y-48583571D02*
X215274287Y-48655000D01*
X215274287Y-48655000D02*
X215417144Y-48726428D01*
X215417144Y-48726428D02*
X215845715Y-48726428D01*
X215845715Y-48726428D02*
X215988572Y-48655000D01*
X215988572Y-48655000D02*
X216060001Y-48583571D01*
X214488573Y-48155000D02*
X213345716Y-48155000D01*
X211845715Y-48726428D02*
X212702858Y-48726428D01*
X212274287Y-48726428D02*
X212274287Y-47226428D01*
X212274287Y-47226428D02*
X212417144Y-47440714D01*
X212417144Y-47440714D02*
X212560001Y-47583571D01*
X212560001Y-47583571D02*
X212702858Y-47655000D01*
X210917144Y-47226428D02*
X210774287Y-47226428D01*
X210774287Y-47226428D02*
X210631430Y-47297857D01*
X210631430Y-47297857D02*
X210560002Y-47369285D01*
X210560002Y-47369285D02*
X210488573Y-47512142D01*
X210488573Y-47512142D02*
X210417144Y-47797857D01*
X210417144Y-47797857D02*
X210417144Y-48155000D01*
X210417144Y-48155000D02*
X210488573Y-48440714D01*
X210488573Y-48440714D02*
X210560002Y-48583571D01*
X210560002Y-48583571D02*
X210631430Y-48655000D01*
X210631430Y-48655000D02*
X210774287Y-48726428D01*
X210774287Y-48726428D02*
X210917144Y-48726428D01*
X210917144Y-48726428D02*
X211060002Y-48655000D01*
X211060002Y-48655000D02*
X211131430Y-48583571D01*
X211131430Y-48583571D02*
X211202859Y-48440714D01*
X211202859Y-48440714D02*
X211274287Y-48155000D01*
X211274287Y-48155000D02*
X211274287Y-47797857D01*
X211274287Y-47797857D02*
X211202859Y-47512142D01*
X211202859Y-47512142D02*
X211131430Y-47369285D01*
X211131430Y-47369285D02*
X211060002Y-47297857D01*
X211060002Y-47297857D02*
X210917144Y-47226428D01*
X209774288Y-48155000D02*
X208631431Y-48155000D01*
X207988573Y-47369285D02*
X207917145Y-47297857D01*
X207917145Y-47297857D02*
X207774288Y-47226428D01*
X207774288Y-47226428D02*
X207417145Y-47226428D01*
X207417145Y-47226428D02*
X207274288Y-47297857D01*
X207274288Y-47297857D02*
X207202859Y-47369285D01*
X207202859Y-47369285D02*
X207131430Y-47512142D01*
X207131430Y-47512142D02*
X207131430Y-47655000D01*
X207131430Y-47655000D02*
X207202859Y-47869285D01*
X207202859Y-47869285D02*
X208060002Y-48726428D01*
X208060002Y-48726428D02*
X207131430Y-48726428D01*
X206274288Y-47869285D02*
X206417145Y-47797857D01*
X206417145Y-47797857D02*
X206488574Y-47726428D01*
X206488574Y-47726428D02*
X206560002Y-47583571D01*
X206560002Y-47583571D02*
X206560002Y-47512142D01*
X206560002Y-47512142D02*
X206488574Y-47369285D01*
X206488574Y-47369285D02*
X206417145Y-47297857D01*
X206417145Y-47297857D02*
X206274288Y-47226428D01*
X206274288Y-47226428D02*
X205988574Y-47226428D01*
X205988574Y-47226428D02*
X205845717Y-47297857D01*
X205845717Y-47297857D02*
X205774288Y-47369285D01*
X205774288Y-47369285D02*
X205702859Y-47512142D01*
X205702859Y-47512142D02*
X205702859Y-47583571D01*
X205702859Y-47583571D02*
X205774288Y-47726428D01*
X205774288Y-47726428D02*
X205845717Y-47797857D01*
X205845717Y-47797857D02*
X205988574Y-47869285D01*
X205988574Y-47869285D02*
X206274288Y-47869285D01*
X206274288Y-47869285D02*
X206417145Y-47940714D01*
X206417145Y-47940714D02*
X206488574Y-48012142D01*
X206488574Y-48012142D02*
X206560002Y-48155000D01*
X206560002Y-48155000D02*
X206560002Y-48440714D01*
X206560002Y-48440714D02*
X206488574Y-48583571D01*
X206488574Y-48583571D02*
X206417145Y-48655000D01*
X206417145Y-48655000D02*
X206274288Y-48726428D01*
X206274288Y-48726428D02*
X205988574Y-48726428D01*
X205988574Y-48726428D02*
X205845717Y-48655000D01*
X205845717Y-48655000D02*
X205774288Y-48583571D01*
X205774288Y-48583571D02*
X205702859Y-48440714D01*
X205702859Y-48440714D02*
X205702859Y-48155000D01*
X205702859Y-48155000D02*
X205774288Y-48012142D01*
X205774288Y-48012142D02*
X205845717Y-47940714D01*
X205845717Y-47940714D02*
X205988574Y-47869285D01*
X219345714Y-53443571D02*
X219417142Y-53515000D01*
X219417142Y-53515000D02*
X219631428Y-53586428D01*
X219631428Y-53586428D02*
X219774285Y-53586428D01*
X219774285Y-53586428D02*
X219988571Y-53515000D01*
X219988571Y-53515000D02*
X220131428Y-53372142D01*
X220131428Y-53372142D02*
X220202857Y-53229285D01*
X220202857Y-53229285D02*
X220274285Y-52943571D01*
X220274285Y-52943571D02*
X220274285Y-52729285D01*
X220274285Y-52729285D02*
X220202857Y-52443571D01*
X220202857Y-52443571D02*
X220131428Y-52300714D01*
X220131428Y-52300714D02*
X219988571Y-52157857D01*
X219988571Y-52157857D02*
X219774285Y-52086428D01*
X219774285Y-52086428D02*
X219631428Y-52086428D01*
X219631428Y-52086428D02*
X219417142Y-52157857D01*
X219417142Y-52157857D02*
X219345714Y-52229285D01*
X217845714Y-53443571D02*
X217917142Y-53515000D01*
X217917142Y-53515000D02*
X218131428Y-53586428D01*
X218131428Y-53586428D02*
X218274285Y-53586428D01*
X218274285Y-53586428D02*
X218488571Y-53515000D01*
X218488571Y-53515000D02*
X218631428Y-53372142D01*
X218631428Y-53372142D02*
X218702857Y-53229285D01*
X218702857Y-53229285D02*
X218774285Y-52943571D01*
X218774285Y-52943571D02*
X218774285Y-52729285D01*
X218774285Y-52729285D02*
X218702857Y-52443571D01*
X218702857Y-52443571D02*
X218631428Y-52300714D01*
X218631428Y-52300714D02*
X218488571Y-52157857D01*
X218488571Y-52157857D02*
X218274285Y-52086428D01*
X218274285Y-52086428D02*
X218131428Y-52086428D01*
X218131428Y-52086428D02*
X217917142Y-52157857D01*
X217917142Y-52157857D02*
X217845714Y-52229285D01*
X217202857Y-53015000D02*
X216060000Y-53015000D01*
X214845714Y-52800714D02*
X214631428Y-52872142D01*
X214631428Y-52872142D02*
X214559999Y-52943571D01*
X214559999Y-52943571D02*
X214488571Y-53086428D01*
X214488571Y-53086428D02*
X214488571Y-53300714D01*
X214488571Y-53300714D02*
X214559999Y-53443571D01*
X214559999Y-53443571D02*
X214631428Y-53515000D01*
X214631428Y-53515000D02*
X214774285Y-53586428D01*
X214774285Y-53586428D02*
X215345714Y-53586428D01*
X215345714Y-53586428D02*
X215345714Y-52086428D01*
X215345714Y-52086428D02*
X214845714Y-52086428D01*
X214845714Y-52086428D02*
X214702857Y-52157857D01*
X214702857Y-52157857D02*
X214631428Y-52229285D01*
X214631428Y-52229285D02*
X214559999Y-52372142D01*
X214559999Y-52372142D02*
X214559999Y-52515000D01*
X214559999Y-52515000D02*
X214631428Y-52657857D01*
X214631428Y-52657857D02*
X214702857Y-52729285D01*
X214702857Y-52729285D02*
X214845714Y-52800714D01*
X214845714Y-52800714D02*
X215345714Y-52800714D01*
X213559999Y-52872142D02*
X213559999Y-53586428D01*
X214059999Y-52086428D02*
X213559999Y-52872142D01*
X213559999Y-52872142D02*
X213059999Y-52086428D01*
X212560000Y-53015000D02*
X211417143Y-53015000D01*
X210774285Y-53515000D02*
X210560000Y-53586428D01*
X210560000Y-53586428D02*
X210202857Y-53586428D01*
X210202857Y-53586428D02*
X210060000Y-53515000D01*
X210060000Y-53515000D02*
X209988571Y-53443571D01*
X209988571Y-53443571D02*
X209917142Y-53300714D01*
X209917142Y-53300714D02*
X209917142Y-53157857D01*
X209917142Y-53157857D02*
X209988571Y-53015000D01*
X209988571Y-53015000D02*
X210060000Y-52943571D01*
X210060000Y-52943571D02*
X210202857Y-52872142D01*
X210202857Y-52872142D02*
X210488571Y-52800714D01*
X210488571Y-52800714D02*
X210631428Y-52729285D01*
X210631428Y-52729285D02*
X210702857Y-52657857D01*
X210702857Y-52657857D02*
X210774285Y-52515000D01*
X210774285Y-52515000D02*
X210774285Y-52372142D01*
X210774285Y-52372142D02*
X210702857Y-52229285D01*
X210702857Y-52229285D02*
X210631428Y-52157857D01*
X210631428Y-52157857D02*
X210488571Y-52086428D01*
X210488571Y-52086428D02*
X210131428Y-52086428D01*
X210131428Y-52086428D02*
X209917142Y-52157857D01*
X209345714Y-53157857D02*
X208631429Y-53157857D01*
X209488571Y-53586428D02*
X208988571Y-52086428D01*
X208988571Y-52086428D02*
X208488571Y-53586428D01*
X206202858Y-52586428D02*
X206202858Y-53586428D01*
X206560000Y-52015000D02*
X206917143Y-53086428D01*
X206917143Y-53086428D02*
X205988572Y-53086428D01*
X205417144Y-53443571D02*
X205345715Y-53515000D01*
X205345715Y-53515000D02*
X205417144Y-53586428D01*
X205417144Y-53586428D02*
X205488572Y-53515000D01*
X205488572Y-53515000D02*
X205417144Y-53443571D01*
X205417144Y-53443571D02*
X205417144Y-53586428D01*
X204417143Y-52086428D02*
X204274286Y-52086428D01*
X204274286Y-52086428D02*
X204131429Y-52157857D01*
X204131429Y-52157857D02*
X204060001Y-52229285D01*
X204060001Y-52229285D02*
X203988572Y-52372142D01*
X203988572Y-52372142D02*
X203917143Y-52657857D01*
X203917143Y-52657857D02*
X203917143Y-53015000D01*
X203917143Y-53015000D02*
X203988572Y-53300714D01*
X203988572Y-53300714D02*
X204060001Y-53443571D01*
X204060001Y-53443571D02*
X204131429Y-53515000D01*
X204131429Y-53515000D02*
X204274286Y-53586428D01*
X204274286Y-53586428D02*
X204417143Y-53586428D01*
X204417143Y-53586428D02*
X204560001Y-53515000D01*
X204560001Y-53515000D02*
X204631429Y-53443571D01*
X204631429Y-53443571D02*
X204702858Y-53300714D01*
X204702858Y-53300714D02*
X204774286Y-53015000D01*
X204774286Y-53015000D02*
X204774286Y-52657857D01*
X204774286Y-52657857D02*
X204702858Y-52372142D01*
X204702858Y-52372142D02*
X204631429Y-52229285D01*
X204631429Y-52229285D02*
X204560001Y-52157857D01*
X204560001Y-52157857D02*
X204417143Y-52086428D01*
X219917142Y-56946428D02*
X219631428Y-56946428D01*
X219631428Y-56946428D02*
X219488571Y-57017857D01*
X219488571Y-57017857D02*
X219345714Y-57160714D01*
X219345714Y-57160714D02*
X219274285Y-57446428D01*
X219274285Y-57446428D02*
X219274285Y-57946428D01*
X219274285Y-57946428D02*
X219345714Y-58232142D01*
X219345714Y-58232142D02*
X219488571Y-58375000D01*
X219488571Y-58375000D02*
X219631428Y-58446428D01*
X219631428Y-58446428D02*
X219917142Y-58446428D01*
X219917142Y-58446428D02*
X220060000Y-58375000D01*
X220060000Y-58375000D02*
X220202857Y-58232142D01*
X220202857Y-58232142D02*
X220274285Y-57946428D01*
X220274285Y-57946428D02*
X220274285Y-57446428D01*
X220274285Y-57446428D02*
X220202857Y-57160714D01*
X220202857Y-57160714D02*
X220060000Y-57017857D01*
X220060000Y-57017857D02*
X219917142Y-56946428D01*
X218631428Y-58446428D02*
X218631428Y-57446428D01*
X218631428Y-57732142D02*
X218559999Y-57589285D01*
X218559999Y-57589285D02*
X218488571Y-57517857D01*
X218488571Y-57517857D02*
X218345713Y-57446428D01*
X218345713Y-57446428D02*
X218202856Y-57446428D01*
X217702857Y-58446428D02*
X217702857Y-57446428D01*
X217702857Y-56946428D02*
X217774285Y-57017857D01*
X217774285Y-57017857D02*
X217702857Y-57089285D01*
X217702857Y-57089285D02*
X217631428Y-57017857D01*
X217631428Y-57017857D02*
X217702857Y-56946428D01*
X217702857Y-56946428D02*
X217702857Y-57089285D01*
X216345714Y-57446428D02*
X216345714Y-58660714D01*
X216345714Y-58660714D02*
X216417142Y-58803571D01*
X216417142Y-58803571D02*
X216488571Y-58875000D01*
X216488571Y-58875000D02*
X216631428Y-58946428D01*
X216631428Y-58946428D02*
X216845714Y-58946428D01*
X216845714Y-58946428D02*
X216988571Y-58875000D01*
X216345714Y-58375000D02*
X216488571Y-58446428D01*
X216488571Y-58446428D02*
X216774285Y-58446428D01*
X216774285Y-58446428D02*
X216917142Y-58375000D01*
X216917142Y-58375000D02*
X216988571Y-58303571D01*
X216988571Y-58303571D02*
X217059999Y-58160714D01*
X217059999Y-58160714D02*
X217059999Y-57732142D01*
X217059999Y-57732142D02*
X216988571Y-57589285D01*
X216988571Y-57589285D02*
X216917142Y-57517857D01*
X216917142Y-57517857D02*
X216774285Y-57446428D01*
X216774285Y-57446428D02*
X216488571Y-57446428D01*
X216488571Y-57446428D02*
X216345714Y-57517857D01*
X215631428Y-58446428D02*
X215631428Y-57446428D01*
X215631428Y-56946428D02*
X215702856Y-57017857D01*
X215702856Y-57017857D02*
X215631428Y-57089285D01*
X215631428Y-57089285D02*
X215559999Y-57017857D01*
X215559999Y-57017857D02*
X215631428Y-56946428D01*
X215631428Y-56946428D02*
X215631428Y-57089285D01*
X214917142Y-57446428D02*
X214917142Y-58446428D01*
X214917142Y-57589285D02*
X214845713Y-57517857D01*
X214845713Y-57517857D02*
X214702856Y-57446428D01*
X214702856Y-57446428D02*
X214488570Y-57446428D01*
X214488570Y-57446428D02*
X214345713Y-57517857D01*
X214345713Y-57517857D02*
X214274285Y-57660714D01*
X214274285Y-57660714D02*
X214274285Y-58446428D01*
X212917142Y-58446428D02*
X212917142Y-57660714D01*
X212917142Y-57660714D02*
X212988570Y-57517857D01*
X212988570Y-57517857D02*
X213131427Y-57446428D01*
X213131427Y-57446428D02*
X213417142Y-57446428D01*
X213417142Y-57446428D02*
X213559999Y-57517857D01*
X212917142Y-58375000D02*
X213059999Y-58446428D01*
X213059999Y-58446428D02*
X213417142Y-58446428D01*
X213417142Y-58446428D02*
X213559999Y-58375000D01*
X213559999Y-58375000D02*
X213631427Y-58232142D01*
X213631427Y-58232142D02*
X213631427Y-58089285D01*
X213631427Y-58089285D02*
X213559999Y-57946428D01*
X213559999Y-57946428D02*
X213417142Y-57875000D01*
X213417142Y-57875000D02*
X213059999Y-57875000D01*
X213059999Y-57875000D02*
X212917142Y-57803571D01*
X211988570Y-58446428D02*
X212131427Y-58375000D01*
X212131427Y-58375000D02*
X212202856Y-58232142D01*
X212202856Y-58232142D02*
X212202856Y-56946428D01*
X209631428Y-58446428D02*
X209631428Y-57660714D01*
X209631428Y-57660714D02*
X209702856Y-57517857D01*
X209702856Y-57517857D02*
X209845713Y-57446428D01*
X209845713Y-57446428D02*
X210131428Y-57446428D01*
X210131428Y-57446428D02*
X210274285Y-57517857D01*
X209631428Y-58375000D02*
X209774285Y-58446428D01*
X209774285Y-58446428D02*
X210131428Y-58446428D01*
X210131428Y-58446428D02*
X210274285Y-58375000D01*
X210274285Y-58375000D02*
X210345713Y-58232142D01*
X210345713Y-58232142D02*
X210345713Y-58089285D01*
X210345713Y-58089285D02*
X210274285Y-57946428D01*
X210274285Y-57946428D02*
X210131428Y-57875000D01*
X210131428Y-57875000D02*
X209774285Y-57875000D01*
X209774285Y-57875000D02*
X209631428Y-57803571D01*
X208274285Y-57446428D02*
X208274285Y-58446428D01*
X208917142Y-57446428D02*
X208917142Y-58232142D01*
X208917142Y-58232142D02*
X208845713Y-58375000D01*
X208845713Y-58375000D02*
X208702856Y-58446428D01*
X208702856Y-58446428D02*
X208488570Y-58446428D01*
X208488570Y-58446428D02*
X208345713Y-58375000D01*
X208345713Y-58375000D02*
X208274285Y-58303571D01*
X207774284Y-57446428D02*
X207202856Y-57446428D01*
X207559999Y-56946428D02*
X207559999Y-58232142D01*
X207559999Y-58232142D02*
X207488570Y-58375000D01*
X207488570Y-58375000D02*
X207345713Y-58446428D01*
X207345713Y-58446428D02*
X207202856Y-58446428D01*
X206702856Y-58446428D02*
X206702856Y-56946428D01*
X206059999Y-58446428D02*
X206059999Y-57660714D01*
X206059999Y-57660714D02*
X206131427Y-57517857D01*
X206131427Y-57517857D02*
X206274284Y-57446428D01*
X206274284Y-57446428D02*
X206488570Y-57446428D01*
X206488570Y-57446428D02*
X206631427Y-57517857D01*
X206631427Y-57517857D02*
X206702856Y-57589285D01*
X205131427Y-58446428D02*
X205274284Y-58375000D01*
X205274284Y-58375000D02*
X205345713Y-58303571D01*
X205345713Y-58303571D02*
X205417141Y-58160714D01*
X205417141Y-58160714D02*
X205417141Y-57732142D01*
X205417141Y-57732142D02*
X205345713Y-57589285D01*
X205345713Y-57589285D02*
X205274284Y-57517857D01*
X205274284Y-57517857D02*
X205131427Y-57446428D01*
X205131427Y-57446428D02*
X204917141Y-57446428D01*
X204917141Y-57446428D02*
X204774284Y-57517857D01*
X204774284Y-57517857D02*
X204702856Y-57589285D01*
X204702856Y-57589285D02*
X204631427Y-57732142D01*
X204631427Y-57732142D02*
X204631427Y-58160714D01*
X204631427Y-58160714D02*
X204702856Y-58303571D01*
X204702856Y-58303571D02*
X204774284Y-58375000D01*
X204774284Y-58375000D02*
X204917141Y-58446428D01*
X204917141Y-58446428D02*
X205131427Y-58446428D01*
X203988570Y-58446428D02*
X203988570Y-57446428D01*
X203988570Y-57732142D02*
X203917141Y-57589285D01*
X203917141Y-57589285D02*
X203845713Y-57517857D01*
X203845713Y-57517857D02*
X203702855Y-57446428D01*
X203702855Y-57446428D02*
X203559998Y-57446428D01*
X203059999Y-58303571D02*
X202988570Y-58375000D01*
X202988570Y-58375000D02*
X203059999Y-58446428D01*
X203059999Y-58446428D02*
X203131427Y-58375000D01*
X203131427Y-58375000D02*
X203059999Y-58303571D01*
X203059999Y-58303571D02*
X203059999Y-58446428D01*
X203059999Y-57517857D02*
X202988570Y-57589285D01*
X202988570Y-57589285D02*
X203059999Y-57660714D01*
X203059999Y-57660714D02*
X203131427Y-57589285D01*
X203131427Y-57589285D02*
X203059999Y-57517857D01*
X203059999Y-57517857D02*
X203059999Y-57660714D01*
X220417142Y-59376428D02*
X219560000Y-59376428D01*
X219988571Y-60876428D02*
X219988571Y-59376428D01*
X219060000Y-60876428D02*
X219060000Y-59876428D01*
X219060000Y-59376428D02*
X219131428Y-59447857D01*
X219131428Y-59447857D02*
X219060000Y-59519285D01*
X219060000Y-59519285D02*
X218988571Y-59447857D01*
X218988571Y-59447857D02*
X219060000Y-59376428D01*
X219060000Y-59376428D02*
X219060000Y-59519285D01*
X218345714Y-60876428D02*
X218345714Y-59876428D01*
X218345714Y-60019285D02*
X218274285Y-59947857D01*
X218274285Y-59947857D02*
X218131428Y-59876428D01*
X218131428Y-59876428D02*
X217917142Y-59876428D01*
X217917142Y-59876428D02*
X217774285Y-59947857D01*
X217774285Y-59947857D02*
X217702857Y-60090714D01*
X217702857Y-60090714D02*
X217702857Y-60876428D01*
X217702857Y-60090714D02*
X217631428Y-59947857D01*
X217631428Y-59947857D02*
X217488571Y-59876428D01*
X217488571Y-59876428D02*
X217274285Y-59876428D01*
X217274285Y-59876428D02*
X217131428Y-59947857D01*
X217131428Y-59947857D02*
X217059999Y-60090714D01*
X217059999Y-60090714D02*
X217059999Y-60876428D01*
X216131428Y-60876428D02*
X216274285Y-60805000D01*
X216274285Y-60805000D02*
X216345714Y-60733571D01*
X216345714Y-60733571D02*
X216417142Y-60590714D01*
X216417142Y-60590714D02*
X216417142Y-60162142D01*
X216417142Y-60162142D02*
X216345714Y-60019285D01*
X216345714Y-60019285D02*
X216274285Y-59947857D01*
X216274285Y-59947857D02*
X216131428Y-59876428D01*
X216131428Y-59876428D02*
X215917142Y-59876428D01*
X215917142Y-59876428D02*
X215774285Y-59947857D01*
X215774285Y-59947857D02*
X215702857Y-60019285D01*
X215702857Y-60019285D02*
X215631428Y-60162142D01*
X215631428Y-60162142D02*
X215631428Y-60590714D01*
X215631428Y-60590714D02*
X215702857Y-60733571D01*
X215702857Y-60733571D02*
X215774285Y-60805000D01*
X215774285Y-60805000D02*
X215917142Y-60876428D01*
X215917142Y-60876428D02*
X216131428Y-60876428D01*
X213917142Y-60805000D02*
X213702857Y-60876428D01*
X213702857Y-60876428D02*
X213345714Y-60876428D01*
X213345714Y-60876428D02*
X213202857Y-60805000D01*
X213202857Y-60805000D02*
X213131428Y-60733571D01*
X213131428Y-60733571D02*
X213059999Y-60590714D01*
X213059999Y-60590714D02*
X213059999Y-60447857D01*
X213059999Y-60447857D02*
X213131428Y-60305000D01*
X213131428Y-60305000D02*
X213202857Y-60233571D01*
X213202857Y-60233571D02*
X213345714Y-60162142D01*
X213345714Y-60162142D02*
X213631428Y-60090714D01*
X213631428Y-60090714D02*
X213774285Y-60019285D01*
X213774285Y-60019285D02*
X213845714Y-59947857D01*
X213845714Y-59947857D02*
X213917142Y-59805000D01*
X213917142Y-59805000D02*
X213917142Y-59662142D01*
X213917142Y-59662142D02*
X213845714Y-59519285D01*
X213845714Y-59519285D02*
X213774285Y-59447857D01*
X213774285Y-59447857D02*
X213631428Y-59376428D01*
X213631428Y-59376428D02*
X213274285Y-59376428D01*
X213274285Y-59376428D02*
X213059999Y-59447857D01*
X211774286Y-60805000D02*
X211917143Y-60876428D01*
X211917143Y-60876428D02*
X212202857Y-60876428D01*
X212202857Y-60876428D02*
X212345714Y-60805000D01*
X212345714Y-60805000D02*
X212417143Y-60733571D01*
X212417143Y-60733571D02*
X212488571Y-60590714D01*
X212488571Y-60590714D02*
X212488571Y-60162142D01*
X212488571Y-60162142D02*
X212417143Y-60019285D01*
X212417143Y-60019285D02*
X212345714Y-59947857D01*
X212345714Y-59947857D02*
X212202857Y-59876428D01*
X212202857Y-59876428D02*
X211917143Y-59876428D01*
X211917143Y-59876428D02*
X211774286Y-59947857D01*
X211131429Y-60876428D02*
X211131429Y-59376428D01*
X210488572Y-60876428D02*
X210488572Y-60090714D01*
X210488572Y-60090714D02*
X210560000Y-59947857D01*
X210560000Y-59947857D02*
X210702857Y-59876428D01*
X210702857Y-59876428D02*
X210917143Y-59876428D01*
X210917143Y-59876428D02*
X211060000Y-59947857D01*
X211060000Y-59947857D02*
X211131429Y-60019285D01*
X209774286Y-60876428D02*
X209774286Y-59876428D01*
X209774286Y-59376428D02*
X209845714Y-59447857D01*
X209845714Y-59447857D02*
X209774286Y-59519285D01*
X209774286Y-59519285D02*
X209702857Y-59447857D01*
X209702857Y-59447857D02*
X209774286Y-59376428D01*
X209774286Y-59376428D02*
X209774286Y-59519285D01*
X209060000Y-59876428D02*
X209060000Y-60876428D01*
X209060000Y-60019285D02*
X208988571Y-59947857D01*
X208988571Y-59947857D02*
X208845714Y-59876428D01*
X208845714Y-59876428D02*
X208631428Y-59876428D01*
X208631428Y-59876428D02*
X208488571Y-59947857D01*
X208488571Y-59947857D02*
X208417143Y-60090714D01*
X208417143Y-60090714D02*
X208417143Y-60876428D01*
X207060000Y-60876428D02*
X207060000Y-59376428D01*
X207060000Y-60805000D02*
X207202857Y-60876428D01*
X207202857Y-60876428D02*
X207488571Y-60876428D01*
X207488571Y-60876428D02*
X207631428Y-60805000D01*
X207631428Y-60805000D02*
X207702857Y-60733571D01*
X207702857Y-60733571D02*
X207774285Y-60590714D01*
X207774285Y-60590714D02*
X207774285Y-60162142D01*
X207774285Y-60162142D02*
X207702857Y-60019285D01*
X207702857Y-60019285D02*
X207631428Y-59947857D01*
X207631428Y-59947857D02*
X207488571Y-59876428D01*
X207488571Y-59876428D02*
X207202857Y-59876428D01*
X207202857Y-59876428D02*
X207060000Y-59947857D01*
X206131428Y-60876428D02*
X206274285Y-60805000D01*
X206274285Y-60805000D02*
X206345714Y-60662142D01*
X206345714Y-60662142D02*
X206345714Y-59376428D01*
X204988571Y-60805000D02*
X205131428Y-60876428D01*
X205131428Y-60876428D02*
X205417143Y-60876428D01*
X205417143Y-60876428D02*
X205560000Y-60805000D01*
X205560000Y-60805000D02*
X205631428Y-60662142D01*
X205631428Y-60662142D02*
X205631428Y-60090714D01*
X205631428Y-60090714D02*
X205560000Y-59947857D01*
X205560000Y-59947857D02*
X205417143Y-59876428D01*
X205417143Y-59876428D02*
X205131428Y-59876428D01*
X205131428Y-59876428D02*
X204988571Y-59947857D01*
X204988571Y-59947857D02*
X204917143Y-60090714D01*
X204917143Y-60090714D02*
X204917143Y-60233571D01*
X204917143Y-60233571D02*
X205631428Y-60376428D01*
X204274286Y-60876428D02*
X204274286Y-59876428D01*
X204274286Y-60162142D02*
X204202857Y-60019285D01*
X204202857Y-60019285D02*
X204131429Y-59947857D01*
X204131429Y-59947857D02*
X203988571Y-59876428D01*
X203988571Y-59876428D02*
X203845714Y-59876428D01*
X219274285Y-62592142D02*
X219345714Y-62520714D01*
X219345714Y-62520714D02*
X219488571Y-62449285D01*
X219488571Y-62449285D02*
X219631428Y-62449285D01*
X219631428Y-62449285D02*
X219774285Y-62520714D01*
X219774285Y-62520714D02*
X219845714Y-62592142D01*
X219845714Y-62592142D02*
X219917142Y-62735000D01*
X219917142Y-62735000D02*
X219917142Y-62877857D01*
X219917142Y-62877857D02*
X219845714Y-63020714D01*
X219845714Y-63020714D02*
X219774285Y-63092142D01*
X219774285Y-63092142D02*
X219631428Y-63163571D01*
X219631428Y-63163571D02*
X219488571Y-63163571D01*
X219488571Y-63163571D02*
X219345714Y-63092142D01*
X219345714Y-63092142D02*
X219274285Y-63020714D01*
X219274285Y-62449285D02*
X219274285Y-63020714D01*
X219274285Y-63020714D02*
X219202857Y-63092142D01*
X219202857Y-63092142D02*
X219131428Y-63092142D01*
X219131428Y-63092142D02*
X218988571Y-63020714D01*
X218988571Y-63020714D02*
X218917142Y-62877857D01*
X218917142Y-62877857D02*
X218917142Y-62520714D01*
X218917142Y-62520714D02*
X219060000Y-62306428D01*
X219060000Y-62306428D02*
X219274285Y-62163571D01*
X219274285Y-62163571D02*
X219560000Y-62092142D01*
X219560000Y-62092142D02*
X219845714Y-62163571D01*
X219845714Y-62163571D02*
X220060000Y-62306428D01*
X220060000Y-62306428D02*
X220202857Y-62520714D01*
X220202857Y-62520714D02*
X220274285Y-62806428D01*
X220274285Y-62806428D02*
X220202857Y-63092142D01*
X220202857Y-63092142D02*
X220060000Y-63306428D01*
X220060000Y-63306428D02*
X219845714Y-63449285D01*
X219845714Y-63449285D02*
X219560000Y-63520714D01*
X219560000Y-63520714D02*
X219274285Y-63449285D01*
X219274285Y-63449285D02*
X219060000Y-63306428D01*
X218274286Y-63306428D02*
X218274286Y-61806428D01*
X218274286Y-62377857D02*
X218131429Y-62306428D01*
X218131429Y-62306428D02*
X217845714Y-62306428D01*
X217845714Y-62306428D02*
X217702857Y-62377857D01*
X217702857Y-62377857D02*
X217631429Y-62449285D01*
X217631429Y-62449285D02*
X217560000Y-62592142D01*
X217560000Y-62592142D02*
X217560000Y-63020714D01*
X217560000Y-63020714D02*
X217631429Y-63163571D01*
X217631429Y-63163571D02*
X217702857Y-63235000D01*
X217702857Y-63235000D02*
X217845714Y-63306428D01*
X217845714Y-63306428D02*
X218131429Y-63306428D01*
X218131429Y-63306428D02*
X218274286Y-63235000D01*
X216702857Y-63306428D02*
X216845714Y-63235000D01*
X216845714Y-63235000D02*
X216917143Y-63092142D01*
X216917143Y-63092142D02*
X216917143Y-61806428D01*
X216131429Y-63306428D02*
X216131429Y-62306428D01*
X216131429Y-61806428D02*
X216202857Y-61877857D01*
X216202857Y-61877857D02*
X216131429Y-61949285D01*
X216131429Y-61949285D02*
X216060000Y-61877857D01*
X216060000Y-61877857D02*
X216131429Y-61806428D01*
X216131429Y-61806428D02*
X216131429Y-61949285D01*
X215417143Y-62306428D02*
X215417143Y-63306428D01*
X215417143Y-62449285D02*
X215345714Y-62377857D01*
X215345714Y-62377857D02*
X215202857Y-62306428D01*
X215202857Y-62306428D02*
X214988571Y-62306428D01*
X214988571Y-62306428D02*
X214845714Y-62377857D01*
X214845714Y-62377857D02*
X214774286Y-62520714D01*
X214774286Y-62520714D02*
X214774286Y-63306428D01*
X214060000Y-63306428D02*
X214060000Y-61806428D01*
X213917143Y-62735000D02*
X213488571Y-63306428D01*
X213488571Y-62306428D02*
X214060000Y-62877857D01*
X212988571Y-62306428D02*
X212631428Y-63306428D01*
X212274285Y-62306428D02*
X212631428Y-63306428D01*
X212631428Y-63306428D02*
X212774285Y-63663571D01*
X212774285Y-63663571D02*
X212845714Y-63735000D01*
X212845714Y-63735000D02*
X212988571Y-63806428D01*
X211702857Y-62306428D02*
X211702857Y-63806428D01*
X211702857Y-62377857D02*
X211560000Y-62306428D01*
X211560000Y-62306428D02*
X211274285Y-62306428D01*
X211274285Y-62306428D02*
X211131428Y-62377857D01*
X211131428Y-62377857D02*
X211060000Y-62449285D01*
X211060000Y-62449285D02*
X210988571Y-62592142D01*
X210988571Y-62592142D02*
X210988571Y-63020714D01*
X210988571Y-63020714D02*
X211060000Y-63163571D01*
X211060000Y-63163571D02*
X211131428Y-63235000D01*
X211131428Y-63235000D02*
X211274285Y-63306428D01*
X211274285Y-63306428D02*
X211560000Y-63306428D01*
X211560000Y-63306428D02*
X211702857Y-63235000D01*
X209702857Y-63306428D02*
X209702857Y-62520714D01*
X209702857Y-62520714D02*
X209774285Y-62377857D01*
X209774285Y-62377857D02*
X209917142Y-62306428D01*
X209917142Y-62306428D02*
X210202857Y-62306428D01*
X210202857Y-62306428D02*
X210345714Y-62377857D01*
X209702857Y-63235000D02*
X209845714Y-63306428D01*
X209845714Y-63306428D02*
X210202857Y-63306428D01*
X210202857Y-63306428D02*
X210345714Y-63235000D01*
X210345714Y-63235000D02*
X210417142Y-63092142D01*
X210417142Y-63092142D02*
X210417142Y-62949285D01*
X210417142Y-62949285D02*
X210345714Y-62806428D01*
X210345714Y-62806428D02*
X210202857Y-62735000D01*
X210202857Y-62735000D02*
X209845714Y-62735000D01*
X209845714Y-62735000D02*
X209702857Y-62663571D01*
X208988571Y-63306428D02*
X208988571Y-62306428D01*
X208988571Y-62592142D02*
X208917142Y-62449285D01*
X208917142Y-62449285D02*
X208845714Y-62377857D01*
X208845714Y-62377857D02*
X208702856Y-62306428D01*
X208702856Y-62306428D02*
X208559999Y-62306428D01*
X208274285Y-62306428D02*
X207702857Y-62306428D01*
X208060000Y-61806428D02*
X208060000Y-63092142D01*
X208060000Y-63092142D02*
X207988571Y-63235000D01*
X207988571Y-63235000D02*
X207845714Y-63306428D01*
X207845714Y-63306428D02*
X207702857Y-63306428D01*
X207274285Y-63235000D02*
X207131428Y-63306428D01*
X207131428Y-63306428D02*
X206845714Y-63306428D01*
X206845714Y-63306428D02*
X206702857Y-63235000D01*
X206702857Y-63235000D02*
X206631428Y-63092142D01*
X206631428Y-63092142D02*
X206631428Y-63020714D01*
X206631428Y-63020714D02*
X206702857Y-62877857D01*
X206702857Y-62877857D02*
X206845714Y-62806428D01*
X206845714Y-62806428D02*
X207060000Y-62806428D01*
X207060000Y-62806428D02*
X207202857Y-62735000D01*
X207202857Y-62735000D02*
X207274285Y-62592142D01*
X207274285Y-62592142D02*
X207274285Y-62520714D01*
X207274285Y-62520714D02*
X207202857Y-62377857D01*
X207202857Y-62377857D02*
X207060000Y-62306428D01*
X207060000Y-62306428D02*
X206845714Y-62306428D01*
X206845714Y-62306428D02*
X206702857Y-62377857D01*
X205988571Y-63163571D02*
X205917142Y-63235000D01*
X205917142Y-63235000D02*
X205988571Y-63306428D01*
X205988571Y-63306428D02*
X206059999Y-63235000D01*
X206059999Y-63235000D02*
X205988571Y-63163571D01*
X205988571Y-63163571D02*
X205988571Y-63306428D01*
X204631428Y-63235000D02*
X204774285Y-63306428D01*
X204774285Y-63306428D02*
X205059999Y-63306428D01*
X205059999Y-63306428D02*
X205202856Y-63235000D01*
X205202856Y-63235000D02*
X205274285Y-63163571D01*
X205274285Y-63163571D02*
X205345713Y-63020714D01*
X205345713Y-63020714D02*
X205345713Y-62592142D01*
X205345713Y-62592142D02*
X205274285Y-62449285D01*
X205274285Y-62449285D02*
X205202856Y-62377857D01*
X205202856Y-62377857D02*
X205059999Y-62306428D01*
X205059999Y-62306428D02*
X204774285Y-62306428D01*
X204774285Y-62306428D02*
X204631428Y-62377857D01*
X203774285Y-63306428D02*
X203917142Y-63235000D01*
X203917142Y-63235000D02*
X203988571Y-63163571D01*
X203988571Y-63163571D02*
X204059999Y-63020714D01*
X204059999Y-63020714D02*
X204059999Y-62592142D01*
X204059999Y-62592142D02*
X203988571Y-62449285D01*
X203988571Y-62449285D02*
X203917142Y-62377857D01*
X203917142Y-62377857D02*
X203774285Y-62306428D01*
X203774285Y-62306428D02*
X203559999Y-62306428D01*
X203559999Y-62306428D02*
X203417142Y-62377857D01*
X203417142Y-62377857D02*
X203345714Y-62449285D01*
X203345714Y-62449285D02*
X203274285Y-62592142D01*
X203274285Y-62592142D02*
X203274285Y-63020714D01*
X203274285Y-63020714D02*
X203345714Y-63163571D01*
X203345714Y-63163571D02*
X203417142Y-63235000D01*
X203417142Y-63235000D02*
X203559999Y-63306428D01*
X203559999Y-63306428D02*
X203774285Y-63306428D01*
X202631428Y-63306428D02*
X202631428Y-62306428D01*
X202631428Y-62449285D02*
X202559999Y-62377857D01*
X202559999Y-62377857D02*
X202417142Y-62306428D01*
X202417142Y-62306428D02*
X202202856Y-62306428D01*
X202202856Y-62306428D02*
X202059999Y-62377857D01*
X202059999Y-62377857D02*
X201988571Y-62520714D01*
X201988571Y-62520714D02*
X201988571Y-63306428D01*
X201988571Y-62520714D02*
X201917142Y-62377857D01*
X201917142Y-62377857D02*
X201774285Y-62306428D01*
X201774285Y-62306428D02*
X201559999Y-62306428D01*
X201559999Y-62306428D02*
X201417142Y-62377857D01*
X201417142Y-62377857D02*
X201345713Y-62520714D01*
X201345713Y-62520714D02*
X201345713Y-63306428D01*
X220202857Y-68166428D02*
X220202857Y-66666428D01*
X220202857Y-66666428D02*
X219702857Y-67737857D01*
X219702857Y-67737857D02*
X219202857Y-66666428D01*
X219202857Y-66666428D02*
X219202857Y-68166428D01*
X218274285Y-68166428D02*
X218417142Y-68095000D01*
X218417142Y-68095000D02*
X218488571Y-68023571D01*
X218488571Y-68023571D02*
X218559999Y-67880714D01*
X218559999Y-67880714D02*
X218559999Y-67452142D01*
X218559999Y-67452142D02*
X218488571Y-67309285D01*
X218488571Y-67309285D02*
X218417142Y-67237857D01*
X218417142Y-67237857D02*
X218274285Y-67166428D01*
X218274285Y-67166428D02*
X218059999Y-67166428D01*
X218059999Y-67166428D02*
X217917142Y-67237857D01*
X217917142Y-67237857D02*
X217845714Y-67309285D01*
X217845714Y-67309285D02*
X217774285Y-67452142D01*
X217774285Y-67452142D02*
X217774285Y-67880714D01*
X217774285Y-67880714D02*
X217845714Y-68023571D01*
X217845714Y-68023571D02*
X217917142Y-68095000D01*
X217917142Y-68095000D02*
X218059999Y-68166428D01*
X218059999Y-68166428D02*
X218274285Y-68166428D01*
X216488571Y-68166428D02*
X216488571Y-66666428D01*
X216488571Y-68095000D02*
X216631428Y-68166428D01*
X216631428Y-68166428D02*
X216917142Y-68166428D01*
X216917142Y-68166428D02*
X217059999Y-68095000D01*
X217059999Y-68095000D02*
X217131428Y-68023571D01*
X217131428Y-68023571D02*
X217202856Y-67880714D01*
X217202856Y-67880714D02*
X217202856Y-67452142D01*
X217202856Y-67452142D02*
X217131428Y-67309285D01*
X217131428Y-67309285D02*
X217059999Y-67237857D01*
X217059999Y-67237857D02*
X216917142Y-67166428D01*
X216917142Y-67166428D02*
X216631428Y-67166428D01*
X216631428Y-67166428D02*
X216488571Y-67237857D01*
X214631428Y-68166428D02*
X214631428Y-66666428D01*
X214631428Y-67237857D02*
X214488571Y-67166428D01*
X214488571Y-67166428D02*
X214202856Y-67166428D01*
X214202856Y-67166428D02*
X214059999Y-67237857D01*
X214059999Y-67237857D02*
X213988571Y-67309285D01*
X213988571Y-67309285D02*
X213917142Y-67452142D01*
X213917142Y-67452142D02*
X213917142Y-67880714D01*
X213917142Y-67880714D02*
X213988571Y-68023571D01*
X213988571Y-68023571D02*
X214059999Y-68095000D01*
X214059999Y-68095000D02*
X214202856Y-68166428D01*
X214202856Y-68166428D02*
X214488571Y-68166428D01*
X214488571Y-68166428D02*
X214631428Y-68095000D01*
X213417142Y-67166428D02*
X213059999Y-68166428D01*
X212702856Y-67166428D02*
X213059999Y-68166428D01*
X213059999Y-68166428D02*
X213202856Y-68523571D01*
X213202856Y-68523571D02*
X213274285Y-68595000D01*
X213274285Y-68595000D02*
X213417142Y-68666428D01*
X212131428Y-68023571D02*
X212059999Y-68095000D01*
X212059999Y-68095000D02*
X212131428Y-68166428D01*
X212131428Y-68166428D02*
X212202856Y-68095000D01*
X212202856Y-68095000D02*
X212131428Y-68023571D01*
X212131428Y-68023571D02*
X212131428Y-68166428D01*
X212131428Y-67237857D02*
X212059999Y-67309285D01*
X212059999Y-67309285D02*
X212131428Y-67380714D01*
X212131428Y-67380714D02*
X212202856Y-67309285D01*
X212202856Y-67309285D02*
X212131428Y-67237857D01*
X212131428Y-67237857D02*
X212131428Y-67380714D01*
X220202857Y-70596428D02*
X220202857Y-69096428D01*
X220202857Y-69810714D02*
X219345714Y-69810714D01*
X219345714Y-70596428D02*
X219345714Y-69096428D01*
X217988571Y-70596428D02*
X217988571Y-69810714D01*
X217988571Y-69810714D02*
X218059999Y-69667857D01*
X218059999Y-69667857D02*
X218202856Y-69596428D01*
X218202856Y-69596428D02*
X218488571Y-69596428D01*
X218488571Y-69596428D02*
X218631428Y-69667857D01*
X217988571Y-70525000D02*
X218131428Y-70596428D01*
X218131428Y-70596428D02*
X218488571Y-70596428D01*
X218488571Y-70596428D02*
X218631428Y-70525000D01*
X218631428Y-70525000D02*
X218702856Y-70382142D01*
X218702856Y-70382142D02*
X218702856Y-70239285D01*
X218702856Y-70239285D02*
X218631428Y-70096428D01*
X218631428Y-70096428D02*
X218488571Y-70025000D01*
X218488571Y-70025000D02*
X218131428Y-70025000D01*
X218131428Y-70025000D02*
X217988571Y-69953571D01*
X216417142Y-70453571D02*
X216488570Y-70525000D01*
X216488570Y-70525000D02*
X216702856Y-70596428D01*
X216702856Y-70596428D02*
X216845713Y-70596428D01*
X216845713Y-70596428D02*
X217059999Y-70525000D01*
X217059999Y-70525000D02*
X217202856Y-70382142D01*
X217202856Y-70382142D02*
X217274285Y-70239285D01*
X217274285Y-70239285D02*
X217345713Y-69953571D01*
X217345713Y-69953571D02*
X217345713Y-69739285D01*
X217345713Y-69739285D02*
X217274285Y-69453571D01*
X217274285Y-69453571D02*
X217202856Y-69310714D01*
X217202856Y-69310714D02*
X217059999Y-69167857D01*
X217059999Y-69167857D02*
X216845713Y-69096428D01*
X216845713Y-69096428D02*
X216702856Y-69096428D01*
X216702856Y-69096428D02*
X216488570Y-69167857D01*
X216488570Y-69167857D02*
X216417142Y-69239285D01*
X215774285Y-70596428D02*
X215774285Y-69596428D01*
X215774285Y-69882142D02*
X215702856Y-69739285D01*
X215702856Y-69739285D02*
X215631428Y-69667857D01*
X215631428Y-69667857D02*
X215488570Y-69596428D01*
X215488570Y-69596428D02*
X215345713Y-69596428D01*
X214202857Y-70596428D02*
X214202857Y-69810714D01*
X214202857Y-69810714D02*
X214274285Y-69667857D01*
X214274285Y-69667857D02*
X214417142Y-69596428D01*
X214417142Y-69596428D02*
X214702857Y-69596428D01*
X214702857Y-69596428D02*
X214845714Y-69667857D01*
X214202857Y-70525000D02*
X214345714Y-70596428D01*
X214345714Y-70596428D02*
X214702857Y-70596428D01*
X214702857Y-70596428D02*
X214845714Y-70525000D01*
X214845714Y-70525000D02*
X214917142Y-70382142D01*
X214917142Y-70382142D02*
X214917142Y-70239285D01*
X214917142Y-70239285D02*
X214845714Y-70096428D01*
X214845714Y-70096428D02*
X214702857Y-70025000D01*
X214702857Y-70025000D02*
X214345714Y-70025000D01*
X214345714Y-70025000D02*
X214202857Y-69953571D01*
X212988571Y-69810714D02*
X213488571Y-69810714D01*
X213488571Y-70596428D02*
X213488571Y-69096428D01*
X213488571Y-69096428D02*
X212774285Y-69096428D01*
X211560000Y-69596428D02*
X211560000Y-70596428D01*
X212202857Y-69596428D02*
X212202857Y-70382142D01*
X212202857Y-70382142D02*
X212131428Y-70525000D01*
X212131428Y-70525000D02*
X211988571Y-70596428D01*
X211988571Y-70596428D02*
X211774285Y-70596428D01*
X211774285Y-70596428D02*
X211631428Y-70525000D01*
X211631428Y-70525000D02*
X211560000Y-70453571D01*
X209131428Y-70525000D02*
X209274285Y-70596428D01*
X209274285Y-70596428D02*
X209560000Y-70596428D01*
X209560000Y-70596428D02*
X209702857Y-70525000D01*
X209702857Y-70525000D02*
X209774285Y-70382142D01*
X209774285Y-70382142D02*
X209774285Y-69810714D01*
X209774285Y-69810714D02*
X209702857Y-69667857D01*
X209702857Y-69667857D02*
X209560000Y-69596428D01*
X209560000Y-69596428D02*
X209274285Y-69596428D01*
X209274285Y-69596428D02*
X209131428Y-69667857D01*
X209131428Y-69667857D02*
X209060000Y-69810714D01*
X209060000Y-69810714D02*
X209060000Y-69953571D01*
X209060000Y-69953571D02*
X209774285Y-70096428D01*
X208417143Y-70453571D02*
X208345714Y-70525000D01*
X208345714Y-70525000D02*
X208417143Y-70596428D01*
X208417143Y-70596428D02*
X208488571Y-70525000D01*
X208488571Y-70525000D02*
X208417143Y-70453571D01*
X208417143Y-70453571D02*
X208417143Y-70596428D01*
X207917142Y-69096428D02*
X207417142Y-70596428D01*
X207417142Y-70596428D02*
X206917142Y-69096428D01*
X206417143Y-70453571D02*
X206345714Y-70525000D01*
X206345714Y-70525000D02*
X206417143Y-70596428D01*
X206417143Y-70596428D02*
X206488571Y-70525000D01*
X206488571Y-70525000D02*
X206417143Y-70453571D01*
X206417143Y-70453571D02*
X206417143Y-70596428D01*
X220202857Y-73026428D02*
X220202857Y-71526428D01*
X220202857Y-71526428D02*
X219702857Y-72597857D01*
X219702857Y-72597857D02*
X219202857Y-71526428D01*
X219202857Y-71526428D02*
X219202857Y-73026428D01*
X217845714Y-73026428D02*
X217845714Y-72240714D01*
X217845714Y-72240714D02*
X217917142Y-72097857D01*
X217917142Y-72097857D02*
X218059999Y-72026428D01*
X218059999Y-72026428D02*
X218345714Y-72026428D01*
X218345714Y-72026428D02*
X218488571Y-72097857D01*
X217845714Y-72955000D02*
X217988571Y-73026428D01*
X217988571Y-73026428D02*
X218345714Y-73026428D01*
X218345714Y-73026428D02*
X218488571Y-72955000D01*
X218488571Y-72955000D02*
X218559999Y-72812142D01*
X218559999Y-72812142D02*
X218559999Y-72669285D01*
X218559999Y-72669285D02*
X218488571Y-72526428D01*
X218488571Y-72526428D02*
X218345714Y-72455000D01*
X218345714Y-72455000D02*
X217988571Y-72455000D01*
X217988571Y-72455000D02*
X217845714Y-72383571D01*
X217131428Y-73026428D02*
X217131428Y-72026428D01*
X217131428Y-72312142D02*
X217059999Y-72169285D01*
X217059999Y-72169285D02*
X216988571Y-72097857D01*
X216988571Y-72097857D02*
X216845713Y-72026428D01*
X216845713Y-72026428D02*
X216702856Y-72026428D01*
X216417142Y-72026428D02*
X215845714Y-72026428D01*
X216202857Y-71526428D02*
X216202857Y-72812142D01*
X216202857Y-72812142D02*
X216131428Y-72955000D01*
X216131428Y-72955000D02*
X215988571Y-73026428D01*
X215988571Y-73026428D02*
X215845714Y-73026428D01*
X215345714Y-73026428D02*
X215345714Y-72026428D01*
X215345714Y-71526428D02*
X215417142Y-71597857D01*
X215417142Y-71597857D02*
X215345714Y-71669285D01*
X215345714Y-71669285D02*
X215274285Y-71597857D01*
X215274285Y-71597857D02*
X215345714Y-71526428D01*
X215345714Y-71526428D02*
X215345714Y-71669285D01*
X214631428Y-72026428D02*
X214631428Y-73026428D01*
X214631428Y-72169285D02*
X214559999Y-72097857D01*
X214559999Y-72097857D02*
X214417142Y-72026428D01*
X214417142Y-72026428D02*
X214202856Y-72026428D01*
X214202856Y-72026428D02*
X214059999Y-72097857D01*
X214059999Y-72097857D02*
X213988571Y-72240714D01*
X213988571Y-72240714D02*
X213988571Y-73026428D01*
X212131428Y-73026428D02*
X212131428Y-71526428D01*
X212131428Y-71526428D02*
X211631428Y-72597857D01*
X211631428Y-72597857D02*
X211131428Y-71526428D01*
X211131428Y-71526428D02*
X211131428Y-73026428D01*
X209774285Y-72026428D02*
X209774285Y-73026428D01*
X210417142Y-72026428D02*
X210417142Y-72812142D01*
X210417142Y-72812142D02*
X210345713Y-72955000D01*
X210345713Y-72955000D02*
X210202856Y-73026428D01*
X210202856Y-73026428D02*
X209988570Y-73026428D01*
X209988570Y-73026428D02*
X209845713Y-72955000D01*
X209845713Y-72955000D02*
X209774285Y-72883571D01*
X210345713Y-71526428D02*
X210274285Y-71597857D01*
X210274285Y-71597857D02*
X210345713Y-71669285D01*
X210345713Y-71669285D02*
X210417142Y-71597857D01*
X210417142Y-71597857D02*
X210345713Y-71526428D01*
X210345713Y-71526428D02*
X210345713Y-71669285D01*
X209774285Y-71526428D02*
X209702856Y-71597857D01*
X209702856Y-71597857D02*
X209774285Y-71669285D01*
X209774285Y-71669285D02*
X209845713Y-71597857D01*
X209845713Y-71597857D02*
X209774285Y-71526428D01*
X209774285Y-71526428D02*
X209774285Y-71669285D01*
X208845713Y-73026428D02*
X208988570Y-72955000D01*
X208988570Y-72955000D02*
X209059999Y-72812142D01*
X209059999Y-72812142D02*
X209059999Y-71526428D01*
X208059999Y-73026428D02*
X208202856Y-72955000D01*
X208202856Y-72955000D02*
X208274285Y-72812142D01*
X208274285Y-72812142D02*
X208274285Y-71526428D01*
X206917142Y-72955000D02*
X207059999Y-73026428D01*
X207059999Y-73026428D02*
X207345714Y-73026428D01*
X207345714Y-73026428D02*
X207488571Y-72955000D01*
X207488571Y-72955000D02*
X207559999Y-72812142D01*
X207559999Y-72812142D02*
X207559999Y-72240714D01*
X207559999Y-72240714D02*
X207488571Y-72097857D01*
X207488571Y-72097857D02*
X207345714Y-72026428D01*
X207345714Y-72026428D02*
X207059999Y-72026428D01*
X207059999Y-72026428D02*
X206917142Y-72097857D01*
X206917142Y-72097857D02*
X206845714Y-72240714D01*
X206845714Y-72240714D02*
X206845714Y-72383571D01*
X206845714Y-72383571D02*
X207559999Y-72526428D01*
X206202857Y-72026428D02*
X206202857Y-73026428D01*
X206202857Y-72169285D02*
X206131428Y-72097857D01*
X206131428Y-72097857D02*
X205988571Y-72026428D01*
X205988571Y-72026428D02*
X205774285Y-72026428D01*
X205774285Y-72026428D02*
X205631428Y-72097857D01*
X205631428Y-72097857D02*
X205560000Y-72240714D01*
X205560000Y-72240714D02*
X205560000Y-73026428D01*
X204845714Y-73026428D02*
X204845714Y-71526428D01*
X204202857Y-73026428D02*
X204202857Y-72240714D01*
X204202857Y-72240714D02*
X204274285Y-72097857D01*
X204274285Y-72097857D02*
X204417142Y-72026428D01*
X204417142Y-72026428D02*
X204631428Y-72026428D01*
X204631428Y-72026428D02*
X204774285Y-72097857D01*
X204774285Y-72097857D02*
X204845714Y-72169285D01*
X202845714Y-73026428D02*
X202845714Y-72240714D01*
X202845714Y-72240714D02*
X202917142Y-72097857D01*
X202917142Y-72097857D02*
X203059999Y-72026428D01*
X203059999Y-72026428D02*
X203345714Y-72026428D01*
X203345714Y-72026428D02*
X203488571Y-72097857D01*
X202845714Y-72955000D02*
X202988571Y-73026428D01*
X202988571Y-73026428D02*
X203345714Y-73026428D01*
X203345714Y-73026428D02*
X203488571Y-72955000D01*
X203488571Y-72955000D02*
X203559999Y-72812142D01*
X203559999Y-72812142D02*
X203559999Y-72669285D01*
X203559999Y-72669285D02*
X203488571Y-72526428D01*
X203488571Y-72526428D02*
X203345714Y-72455000D01*
X203345714Y-72455000D02*
X202988571Y-72455000D01*
X202988571Y-72455000D02*
X202845714Y-72383571D01*
X201488571Y-72026428D02*
X201488571Y-73026428D01*
X202131428Y-72026428D02*
X202131428Y-72812142D01*
X202131428Y-72812142D02*
X202059999Y-72955000D01*
X202059999Y-72955000D02*
X201917142Y-73026428D01*
X201917142Y-73026428D02*
X201702856Y-73026428D01*
X201702856Y-73026428D02*
X201559999Y-72955000D01*
X201559999Y-72955000D02*
X201488571Y-72883571D01*
X200774285Y-72026428D02*
X200774285Y-73526428D01*
X200774285Y-72097857D02*
X200631428Y-72026428D01*
X200631428Y-72026428D02*
X200345713Y-72026428D01*
X200345713Y-72026428D02*
X200202856Y-72097857D01*
X200202856Y-72097857D02*
X200131428Y-72169285D01*
X200131428Y-72169285D02*
X200059999Y-72312142D01*
X200059999Y-72312142D02*
X200059999Y-72740714D01*
X200059999Y-72740714D02*
X200131428Y-72883571D01*
X200131428Y-72883571D02*
X200202856Y-72955000D01*
X200202856Y-72955000D02*
X200345713Y-73026428D01*
X200345713Y-73026428D02*
X200631428Y-73026428D01*
X200631428Y-73026428D02*
X200774285Y-72955000D01*
X199631427Y-72026428D02*
X199059999Y-72026428D01*
X199417142Y-71526428D02*
X199417142Y-72812142D01*
X199417142Y-72812142D02*
X199345713Y-72955000D01*
X199345713Y-72955000D02*
X199202856Y-73026428D01*
X199202856Y-73026428D02*
X199059999Y-73026428D01*
X220202857Y-75456428D02*
X220202857Y-73956428D01*
X219560000Y-75456428D02*
X219560000Y-74670714D01*
X219560000Y-74670714D02*
X219631428Y-74527857D01*
X219631428Y-74527857D02*
X219774285Y-74456428D01*
X219774285Y-74456428D02*
X219988571Y-74456428D01*
X219988571Y-74456428D02*
X220131428Y-74527857D01*
X220131428Y-74527857D02*
X220202857Y-74599285D01*
X219059999Y-74456428D02*
X218488571Y-74456428D01*
X218845714Y-73956428D02*
X218845714Y-75242142D01*
X218845714Y-75242142D02*
X218774285Y-75385000D01*
X218774285Y-75385000D02*
X218631428Y-75456428D01*
X218631428Y-75456428D02*
X218488571Y-75456428D01*
X218202856Y-74456428D02*
X217631428Y-74456428D01*
X217988571Y-73956428D02*
X217988571Y-75242142D01*
X217988571Y-75242142D02*
X217917142Y-75385000D01*
X217917142Y-75385000D02*
X217774285Y-75456428D01*
X217774285Y-75456428D02*
X217631428Y-75456428D01*
X217131428Y-74456428D02*
X217131428Y-75956428D01*
X217131428Y-74527857D02*
X216988571Y-74456428D01*
X216988571Y-74456428D02*
X216702856Y-74456428D01*
X216702856Y-74456428D02*
X216559999Y-74527857D01*
X216559999Y-74527857D02*
X216488571Y-74599285D01*
X216488571Y-74599285D02*
X216417142Y-74742142D01*
X216417142Y-74742142D02*
X216417142Y-75170714D01*
X216417142Y-75170714D02*
X216488571Y-75313571D01*
X216488571Y-75313571D02*
X216559999Y-75385000D01*
X216559999Y-75385000D02*
X216702856Y-75456428D01*
X216702856Y-75456428D02*
X216988571Y-75456428D01*
X216988571Y-75456428D02*
X217131428Y-75385000D01*
X215845713Y-75385000D02*
X215702856Y-75456428D01*
X215702856Y-75456428D02*
X215417142Y-75456428D01*
X215417142Y-75456428D02*
X215274285Y-75385000D01*
X215274285Y-75385000D02*
X215202856Y-75242142D01*
X215202856Y-75242142D02*
X215202856Y-75170714D01*
X215202856Y-75170714D02*
X215274285Y-75027857D01*
X215274285Y-75027857D02*
X215417142Y-74956428D01*
X215417142Y-74956428D02*
X215631428Y-74956428D01*
X215631428Y-74956428D02*
X215774285Y-74885000D01*
X215774285Y-74885000D02*
X215845713Y-74742142D01*
X215845713Y-74742142D02*
X215845713Y-74670714D01*
X215845713Y-74670714D02*
X215774285Y-74527857D01*
X215774285Y-74527857D02*
X215631428Y-74456428D01*
X215631428Y-74456428D02*
X215417142Y-74456428D01*
X215417142Y-74456428D02*
X215274285Y-74527857D01*
X214559999Y-75313571D02*
X214488570Y-75385000D01*
X214488570Y-75385000D02*
X214559999Y-75456428D01*
X214559999Y-75456428D02*
X214631427Y-75385000D01*
X214631427Y-75385000D02*
X214559999Y-75313571D01*
X214559999Y-75313571D02*
X214559999Y-75456428D01*
X214559999Y-74527857D02*
X214488570Y-74599285D01*
X214488570Y-74599285D02*
X214559999Y-74670714D01*
X214559999Y-74670714D02*
X214631427Y-74599285D01*
X214631427Y-74599285D02*
X214559999Y-74527857D01*
X214559999Y-74527857D02*
X214559999Y-74670714D01*
X212774284Y-73885000D02*
X214059998Y-75813571D01*
X211202855Y-73885000D02*
X212488569Y-75813571D01*
X210702855Y-75456428D02*
X210702855Y-73956428D01*
X210059998Y-75456428D02*
X210059998Y-74670714D01*
X210059998Y-74670714D02*
X210131426Y-74527857D01*
X210131426Y-74527857D02*
X210274283Y-74456428D01*
X210274283Y-74456428D02*
X210488569Y-74456428D01*
X210488569Y-74456428D02*
X210631426Y-74527857D01*
X210631426Y-74527857D02*
X210702855Y-74599285D01*
X208702855Y-75456428D02*
X208702855Y-74670714D01*
X208702855Y-74670714D02*
X208774283Y-74527857D01*
X208774283Y-74527857D02*
X208917140Y-74456428D01*
X208917140Y-74456428D02*
X209202855Y-74456428D01*
X209202855Y-74456428D02*
X209345712Y-74527857D01*
X208702855Y-75385000D02*
X208845712Y-75456428D01*
X208845712Y-75456428D02*
X209202855Y-75456428D01*
X209202855Y-75456428D02*
X209345712Y-75385000D01*
X209345712Y-75385000D02*
X209417140Y-75242142D01*
X209417140Y-75242142D02*
X209417140Y-75099285D01*
X209417140Y-75099285D02*
X209345712Y-74956428D01*
X209345712Y-74956428D02*
X209202855Y-74885000D01*
X209202855Y-74885000D02*
X208845712Y-74885000D01*
X208845712Y-74885000D02*
X208702855Y-74813571D01*
X207345712Y-75385000D02*
X207488569Y-75456428D01*
X207488569Y-75456428D02*
X207774283Y-75456428D01*
X207774283Y-75456428D02*
X207917140Y-75385000D01*
X207917140Y-75385000D02*
X207988569Y-75313571D01*
X207988569Y-75313571D02*
X208059997Y-75170714D01*
X208059997Y-75170714D02*
X208059997Y-74742142D01*
X208059997Y-74742142D02*
X207988569Y-74599285D01*
X207988569Y-74599285D02*
X207917140Y-74527857D01*
X207917140Y-74527857D02*
X207774283Y-74456428D01*
X207774283Y-74456428D02*
X207488569Y-74456428D01*
X207488569Y-74456428D02*
X207345712Y-74527857D01*
X206702855Y-75456428D02*
X206702855Y-74456428D01*
X206702855Y-74742142D02*
X206631426Y-74599285D01*
X206631426Y-74599285D02*
X206559998Y-74527857D01*
X206559998Y-74527857D02*
X206417140Y-74456428D01*
X206417140Y-74456428D02*
X206274283Y-74456428D01*
X205131427Y-75456428D02*
X205131427Y-74670714D01*
X205131427Y-74670714D02*
X205202855Y-74527857D01*
X205202855Y-74527857D02*
X205345712Y-74456428D01*
X205345712Y-74456428D02*
X205631427Y-74456428D01*
X205631427Y-74456428D02*
X205774284Y-74527857D01*
X205131427Y-75385000D02*
X205274284Y-75456428D01*
X205274284Y-75456428D02*
X205631427Y-75456428D01*
X205631427Y-75456428D02*
X205774284Y-75385000D01*
X205774284Y-75385000D02*
X205845712Y-75242142D01*
X205845712Y-75242142D02*
X205845712Y-75099285D01*
X205845712Y-75099285D02*
X205774284Y-74956428D01*
X205774284Y-74956428D02*
X205631427Y-74885000D01*
X205631427Y-74885000D02*
X205274284Y-74885000D01*
X205274284Y-74885000D02*
X205131427Y-74813571D01*
X204631426Y-74456428D02*
X204059998Y-74456428D01*
X204417141Y-75456428D02*
X204417141Y-74170714D01*
X204417141Y-74170714D02*
X204345712Y-74027857D01*
X204345712Y-74027857D02*
X204202855Y-73956428D01*
X204202855Y-73956428D02*
X204059998Y-73956428D01*
X202917141Y-74456428D02*
X202917141Y-75456428D01*
X203559998Y-74456428D02*
X203559998Y-75242142D01*
X203559998Y-75242142D02*
X203488569Y-75385000D01*
X203488569Y-75385000D02*
X203345712Y-75456428D01*
X203345712Y-75456428D02*
X203131426Y-75456428D01*
X203131426Y-75456428D02*
X202988569Y-75385000D01*
X202988569Y-75385000D02*
X202917141Y-75313571D01*
X202202855Y-75313571D02*
X202131426Y-75385000D01*
X202131426Y-75385000D02*
X202202855Y-75456428D01*
X202202855Y-75456428D02*
X202274283Y-75385000D01*
X202274283Y-75385000D02*
X202202855Y-75313571D01*
X202202855Y-75313571D02*
X202202855Y-75456428D01*
X200845712Y-75456428D02*
X200845712Y-73956428D01*
X200845712Y-75385000D02*
X200988569Y-75456428D01*
X200988569Y-75456428D02*
X201274283Y-75456428D01*
X201274283Y-75456428D02*
X201417140Y-75385000D01*
X201417140Y-75385000D02*
X201488569Y-75313571D01*
X201488569Y-75313571D02*
X201559997Y-75170714D01*
X201559997Y-75170714D02*
X201559997Y-74742142D01*
X201559997Y-74742142D02*
X201488569Y-74599285D01*
X201488569Y-74599285D02*
X201417140Y-74527857D01*
X201417140Y-74527857D02*
X201274283Y-74456428D01*
X201274283Y-74456428D02*
X200988569Y-74456428D01*
X200988569Y-74456428D02*
X200845712Y-74527857D01*
X199559997Y-75385000D02*
X199702854Y-75456428D01*
X199702854Y-75456428D02*
X199988569Y-75456428D01*
X199988569Y-75456428D02*
X200131426Y-75385000D01*
X200131426Y-75385000D02*
X200202854Y-75242142D01*
X200202854Y-75242142D02*
X200202854Y-74670714D01*
X200202854Y-74670714D02*
X200131426Y-74527857D01*
X200131426Y-74527857D02*
X199988569Y-74456428D01*
X199988569Y-74456428D02*
X199702854Y-74456428D01*
X199702854Y-74456428D02*
X199559997Y-74527857D01*
X199559997Y-74527857D02*
X199488569Y-74670714D01*
X199488569Y-74670714D02*
X199488569Y-74813571D01*
X199488569Y-74813571D02*
X200202854Y-74956428D01*
X197774283Y-73885000D02*
X199059997Y-75813571D01*
X197274283Y-75456428D02*
X197274283Y-73956428D01*
X197131426Y-74885000D02*
X196702854Y-75456428D01*
X196702854Y-74456428D02*
X197274283Y-75027857D01*
X196059997Y-75456428D02*
X196059997Y-74456428D01*
X196059997Y-73956428D02*
X196131425Y-74027857D01*
X196131425Y-74027857D02*
X196059997Y-74099285D01*
X196059997Y-74099285D02*
X195988568Y-74027857D01*
X195988568Y-74027857D02*
X196059997Y-73956428D01*
X196059997Y-73956428D02*
X196059997Y-74099285D01*
X195559996Y-74456428D02*
X194988568Y-74456428D01*
X195345711Y-73956428D02*
X195345711Y-75242142D01*
X195345711Y-75242142D02*
X195274282Y-75385000D01*
X195274282Y-75385000D02*
X195131425Y-75456428D01*
X195131425Y-75456428D02*
X194988568Y-75456428D01*
X194559996Y-75385000D02*
X194417139Y-75456428D01*
X194417139Y-75456428D02*
X194131425Y-75456428D01*
X194131425Y-75456428D02*
X193988568Y-75385000D01*
X193988568Y-75385000D02*
X193917139Y-75242142D01*
X193917139Y-75242142D02*
X193917139Y-75170714D01*
X193917139Y-75170714D02*
X193988568Y-75027857D01*
X193988568Y-75027857D02*
X194131425Y-74956428D01*
X194131425Y-74956428D02*
X194345711Y-74956428D01*
X194345711Y-74956428D02*
X194488568Y-74885000D01*
X194488568Y-74885000D02*
X194559996Y-74742142D01*
X194559996Y-74742142D02*
X194559996Y-74670714D01*
X194559996Y-74670714D02*
X194488568Y-74527857D01*
X194488568Y-74527857D02*
X194345711Y-74456428D01*
X194345711Y-74456428D02*
X194131425Y-74456428D01*
X194131425Y-74456428D02*
X193988568Y-74527857D01*
D10*
X213771428Y-88393928D02*
X213771428Y-89608214D01*
X213771428Y-89608214D02*
X213842856Y-89751071D01*
X213842856Y-89751071D02*
X213914285Y-89822500D01*
X213914285Y-89822500D02*
X214057142Y-89893928D01*
X214057142Y-89893928D02*
X214271428Y-89893928D01*
X214271428Y-89893928D02*
X214414285Y-89822500D01*
X213771428Y-89322500D02*
X213914285Y-89393928D01*
X213914285Y-89393928D02*
X214199999Y-89393928D01*
X214199999Y-89393928D02*
X214342856Y-89322500D01*
X214342856Y-89322500D02*
X214414285Y-89251071D01*
X214414285Y-89251071D02*
X214485713Y-89108214D01*
X214485713Y-89108214D02*
X214485713Y-88679642D01*
X214485713Y-88679642D02*
X214414285Y-88536785D01*
X214414285Y-88536785D02*
X214342856Y-88465357D01*
X214342856Y-88465357D02*
X214199999Y-88393928D01*
X214199999Y-88393928D02*
X213914285Y-88393928D01*
X213914285Y-88393928D02*
X213771428Y-88465357D01*
X213057142Y-89393928D02*
X213057142Y-88393928D01*
X213057142Y-88679642D02*
X212985713Y-88536785D01*
X212985713Y-88536785D02*
X212914285Y-88465357D01*
X212914285Y-88465357D02*
X212771427Y-88393928D01*
X212771427Y-88393928D02*
X212628570Y-88393928D01*
X211557142Y-89322500D02*
X211699999Y-89393928D01*
X211699999Y-89393928D02*
X211985714Y-89393928D01*
X211985714Y-89393928D02*
X212128571Y-89322500D01*
X212128571Y-89322500D02*
X212199999Y-89179642D01*
X212199999Y-89179642D02*
X212199999Y-88608214D01*
X212199999Y-88608214D02*
X212128571Y-88465357D01*
X212128571Y-88465357D02*
X211985714Y-88393928D01*
X211985714Y-88393928D02*
X211699999Y-88393928D01*
X211699999Y-88393928D02*
X211557142Y-88465357D01*
X211557142Y-88465357D02*
X211485714Y-88608214D01*
X211485714Y-88608214D02*
X211485714Y-88751071D01*
X211485714Y-88751071D02*
X212199999Y-88893928D01*
X210271428Y-89322500D02*
X210414285Y-89393928D01*
X210414285Y-89393928D02*
X210700000Y-89393928D01*
X210700000Y-89393928D02*
X210842857Y-89322500D01*
X210842857Y-89322500D02*
X210914285Y-89179642D01*
X210914285Y-89179642D02*
X210914285Y-88608214D01*
X210914285Y-88608214D02*
X210842857Y-88465357D01*
X210842857Y-88465357D02*
X210700000Y-88393928D01*
X210700000Y-88393928D02*
X210414285Y-88393928D01*
X210414285Y-88393928D02*
X210271428Y-88465357D01*
X210271428Y-88465357D02*
X210200000Y-88608214D01*
X210200000Y-88608214D02*
X210200000Y-88751071D01*
X210200000Y-88751071D02*
X210914285Y-88893928D01*
X209557143Y-88393928D02*
X209557143Y-89393928D01*
X209557143Y-88536785D02*
X209485714Y-88465357D01*
X209485714Y-88465357D02*
X209342857Y-88393928D01*
X209342857Y-88393928D02*
X209128571Y-88393928D01*
X209128571Y-88393928D02*
X208985714Y-88465357D01*
X208985714Y-88465357D02*
X208914286Y-88608214D01*
X208914286Y-88608214D02*
X208914286Y-89393928D01*
X207128571Y-88965357D02*
X206414286Y-88965357D01*
X207271428Y-89393928D02*
X206771428Y-87893928D01*
X206771428Y-87893928D02*
X206271428Y-89393928D01*
X227179999Y-89823928D02*
X227179999Y-88823928D01*
X227179999Y-89109642D02*
X227108570Y-88966785D01*
X227108570Y-88966785D02*
X227037142Y-88895357D01*
X227037142Y-88895357D02*
X226894284Y-88823928D01*
X226894284Y-88823928D02*
X226751427Y-88823928D01*
X225679999Y-89752500D02*
X225822856Y-89823928D01*
X225822856Y-89823928D02*
X226108571Y-89823928D01*
X226108571Y-89823928D02*
X226251428Y-89752500D01*
X226251428Y-89752500D02*
X226322856Y-89609642D01*
X226322856Y-89609642D02*
X226322856Y-89038214D01*
X226322856Y-89038214D02*
X226251428Y-88895357D01*
X226251428Y-88895357D02*
X226108571Y-88823928D01*
X226108571Y-88823928D02*
X225822856Y-88823928D01*
X225822856Y-88823928D02*
X225679999Y-88895357D01*
X225679999Y-88895357D02*
X225608571Y-89038214D01*
X225608571Y-89038214D02*
X225608571Y-89181071D01*
X225608571Y-89181071D02*
X226322856Y-89323928D01*
X224322857Y-89823928D02*
X224322857Y-88323928D01*
X224322857Y-89752500D02*
X224465714Y-89823928D01*
X224465714Y-89823928D02*
X224751428Y-89823928D01*
X224751428Y-89823928D02*
X224894285Y-89752500D01*
X224894285Y-89752500D02*
X224965714Y-89681071D01*
X224965714Y-89681071D02*
X225037142Y-89538214D01*
X225037142Y-89538214D02*
X225037142Y-89109642D01*
X225037142Y-89109642D02*
X224965714Y-88966785D01*
X224965714Y-88966785D02*
X224894285Y-88895357D01*
X224894285Y-88895357D02*
X224751428Y-88823928D01*
X224751428Y-88823928D02*
X224465714Y-88823928D01*
X224465714Y-88823928D02*
X224322857Y-88895357D01*
X221965714Y-89038214D02*
X221751428Y-89109642D01*
X221751428Y-89109642D02*
X221679999Y-89181071D01*
X221679999Y-89181071D02*
X221608571Y-89323928D01*
X221608571Y-89323928D02*
X221608571Y-89538214D01*
X221608571Y-89538214D02*
X221679999Y-89681071D01*
X221679999Y-89681071D02*
X221751428Y-89752500D01*
X221751428Y-89752500D02*
X221894285Y-89823928D01*
X221894285Y-89823928D02*
X222465714Y-89823928D01*
X222465714Y-89823928D02*
X222465714Y-88323928D01*
X222465714Y-88323928D02*
X221965714Y-88323928D01*
X221965714Y-88323928D02*
X221822857Y-88395357D01*
X221822857Y-88395357D02*
X221751428Y-88466785D01*
X221751428Y-88466785D02*
X221679999Y-88609642D01*
X221679999Y-88609642D02*
X221679999Y-88752500D01*
X221679999Y-88752500D02*
X221751428Y-88895357D01*
X221751428Y-88895357D02*
X221822857Y-88966785D01*
X221822857Y-88966785D02*
X221965714Y-89038214D01*
X221965714Y-89038214D02*
X222465714Y-89038214D01*
D15*
X247167142Y-82886428D02*
X246881428Y-82886428D01*
X246881428Y-82886428D02*
X246738571Y-82957857D01*
X246738571Y-82957857D02*
X246595714Y-83100714D01*
X246595714Y-83100714D02*
X246524285Y-83386428D01*
X246524285Y-83386428D02*
X246524285Y-83886428D01*
X246524285Y-83886428D02*
X246595714Y-84172142D01*
X246595714Y-84172142D02*
X246738571Y-84315000D01*
X246738571Y-84315000D02*
X246881428Y-84386428D01*
X246881428Y-84386428D02*
X247167142Y-84386428D01*
X247167142Y-84386428D02*
X247310000Y-84315000D01*
X247310000Y-84315000D02*
X247452857Y-84172142D01*
X247452857Y-84172142D02*
X247524285Y-83886428D01*
X247524285Y-83886428D02*
X247524285Y-83386428D01*
X247524285Y-83386428D02*
X247452857Y-83100714D01*
X247452857Y-83100714D02*
X247310000Y-82957857D01*
X247310000Y-82957857D02*
X247167142Y-82886428D01*
X245881428Y-84386428D02*
X245881428Y-82886428D01*
X245881428Y-82886428D02*
X245024285Y-84386428D01*
X245024285Y-84386428D02*
X245024285Y-82886428D01*
X242881427Y-82886428D02*
X242595713Y-82886428D01*
X242595713Y-82886428D02*
X242452856Y-82957857D01*
X242452856Y-82957857D02*
X242309999Y-83100714D01*
X242309999Y-83100714D02*
X242238570Y-83386428D01*
X242238570Y-83386428D02*
X242238570Y-83886428D01*
X242238570Y-83886428D02*
X242309999Y-84172142D01*
X242309999Y-84172142D02*
X242452856Y-84315000D01*
X242452856Y-84315000D02*
X242595713Y-84386428D01*
X242595713Y-84386428D02*
X242881427Y-84386428D01*
X242881427Y-84386428D02*
X243024285Y-84315000D01*
X243024285Y-84315000D02*
X243167142Y-84172142D01*
X243167142Y-84172142D02*
X243238570Y-83886428D01*
X243238570Y-83886428D02*
X243238570Y-83386428D01*
X243238570Y-83386428D02*
X243167142Y-83100714D01*
X243167142Y-83100714D02*
X243024285Y-82957857D01*
X243024285Y-82957857D02*
X242881427Y-82886428D01*
X241095713Y-83600714D02*
X241595713Y-83600714D01*
X241595713Y-84386428D02*
X241595713Y-82886428D01*
X241595713Y-82886428D02*
X240881427Y-82886428D01*
X239809999Y-83600714D02*
X240309999Y-83600714D01*
X240309999Y-84386428D02*
X240309999Y-82886428D01*
X240309999Y-82886428D02*
X239595713Y-82886428D01*
D10*
X208861427Y-103903928D02*
X209718570Y-103903928D01*
X209289999Y-103903928D02*
X209289999Y-102403928D01*
X209289999Y-102403928D02*
X209432856Y-102618214D01*
X209432856Y-102618214D02*
X209575713Y-102761071D01*
X209575713Y-102761071D02*
X209718570Y-102832500D01*
X226204285Y-103037961D02*
X226204285Y-104037961D01*
X226561427Y-102466533D02*
X226918570Y-103537961D01*
X226918570Y-103537961D02*
X225989999Y-103537961D01*
D11*
X217677380Y-80183333D02*
X217725000Y-80135714D01*
X217725000Y-80135714D02*
X217772619Y-79992857D01*
X217772619Y-79992857D02*
X217772619Y-79897619D01*
X217772619Y-79897619D02*
X217725000Y-79754762D01*
X217725000Y-79754762D02*
X217629761Y-79659524D01*
X217629761Y-79659524D02*
X217534523Y-79611905D01*
X217534523Y-79611905D02*
X217344047Y-79564286D01*
X217344047Y-79564286D02*
X217201190Y-79564286D01*
X217201190Y-79564286D02*
X217010714Y-79611905D01*
X217010714Y-79611905D02*
X216915476Y-79659524D01*
X216915476Y-79659524D02*
X216820238Y-79754762D01*
X216820238Y-79754762D02*
X216772619Y-79897619D01*
X216772619Y-79897619D02*
X216772619Y-79992857D01*
X216772619Y-79992857D02*
X216820238Y-80135714D01*
X216820238Y-80135714D02*
X216867857Y-80183333D01*
X217772619Y-81135714D02*
X217772619Y-80564286D01*
X217772619Y-80850000D02*
X216772619Y-80850000D01*
X216772619Y-80850000D02*
X216915476Y-80754762D01*
X216915476Y-80754762D02*
X217010714Y-80659524D01*
X217010714Y-80659524D02*
X217058333Y-80564286D01*
X195828094Y-61232619D02*
X195828094Y-60232619D01*
X195828094Y-60232619D02*
X195589999Y-60232619D01*
X195589999Y-60232619D02*
X195447142Y-60280238D01*
X195447142Y-60280238D02*
X195351904Y-60375476D01*
X195351904Y-60375476D02*
X195304285Y-60470714D01*
X195304285Y-60470714D02*
X195256666Y-60661190D01*
X195256666Y-60661190D02*
X195256666Y-60804047D01*
X195256666Y-60804047D02*
X195304285Y-60994523D01*
X195304285Y-60994523D02*
X195351904Y-61089761D01*
X195351904Y-61089761D02*
X195447142Y-61185000D01*
X195447142Y-61185000D02*
X195589999Y-61232619D01*
X195589999Y-61232619D02*
X195828094Y-61232619D01*
X194304285Y-61232619D02*
X194875713Y-61232619D01*
X194589999Y-61232619D02*
X194589999Y-60232619D01*
X194589999Y-60232619D02*
X194685237Y-60375476D01*
X194685237Y-60375476D02*
X194780475Y-60470714D01*
X194780475Y-60470714D02*
X194875713Y-60518333D01*
X229488094Y-61112619D02*
X229488094Y-60112619D01*
X229488094Y-60112619D02*
X229249999Y-60112619D01*
X229249999Y-60112619D02*
X229107142Y-60160238D01*
X229107142Y-60160238D02*
X229011904Y-60255476D01*
X229011904Y-60255476D02*
X228964285Y-60350714D01*
X228964285Y-60350714D02*
X228916666Y-60541190D01*
X228916666Y-60541190D02*
X228916666Y-60684047D01*
X228916666Y-60684047D02*
X228964285Y-60874523D01*
X228964285Y-60874523D02*
X229011904Y-60969761D01*
X229011904Y-60969761D02*
X229107142Y-61065000D01*
X229107142Y-61065000D02*
X229249999Y-61112619D01*
X229249999Y-61112619D02*
X229488094Y-61112619D01*
X228535713Y-60207857D02*
X228488094Y-60160238D01*
X228488094Y-60160238D02*
X228392856Y-60112619D01*
X228392856Y-60112619D02*
X228154761Y-60112619D01*
X228154761Y-60112619D02*
X228059523Y-60160238D01*
X228059523Y-60160238D02*
X228011904Y-60207857D01*
X228011904Y-60207857D02*
X227964285Y-60303095D01*
X227964285Y-60303095D02*
X227964285Y-60398333D01*
X227964285Y-60398333D02*
X228011904Y-60541190D01*
X228011904Y-60541190D02*
X228583332Y-61112619D01*
X228583332Y-61112619D02*
X227964285Y-61112619D01*
X230782619Y-79911905D02*
X229782619Y-79911905D01*
X229782619Y-79911905D02*
X229782619Y-80150000D01*
X229782619Y-80150000D02*
X229830238Y-80292857D01*
X229830238Y-80292857D02*
X229925476Y-80388095D01*
X229925476Y-80388095D02*
X230020714Y-80435714D01*
X230020714Y-80435714D02*
X230211190Y-80483333D01*
X230211190Y-80483333D02*
X230354047Y-80483333D01*
X230354047Y-80483333D02*
X230544523Y-80435714D01*
X230544523Y-80435714D02*
X230639761Y-80388095D01*
X230639761Y-80388095D02*
X230735000Y-80292857D01*
X230735000Y-80292857D02*
X230782619Y-80150000D01*
X230782619Y-80150000D02*
X230782619Y-79911905D01*
X229782619Y-80816667D02*
X229782619Y-81435714D01*
X229782619Y-81435714D02*
X230163571Y-81102381D01*
X230163571Y-81102381D02*
X230163571Y-81245238D01*
X230163571Y-81245238D02*
X230211190Y-81340476D01*
X230211190Y-81340476D02*
X230258809Y-81388095D01*
X230258809Y-81388095D02*
X230354047Y-81435714D01*
X230354047Y-81435714D02*
X230592142Y-81435714D01*
X230592142Y-81435714D02*
X230687380Y-81388095D01*
X230687380Y-81388095D02*
X230735000Y-81340476D01*
X230735000Y-81340476D02*
X230782619Y-81245238D01*
X230782619Y-81245238D02*
X230782619Y-80959524D01*
X230782619Y-80959524D02*
X230735000Y-80864286D01*
X230735000Y-80864286D02*
X230687380Y-80816667D01*
X209247857Y-79694761D02*
X209200238Y-79599523D01*
X209200238Y-79599523D02*
X209105000Y-79504285D01*
X209105000Y-79504285D02*
X208962142Y-79361428D01*
X208962142Y-79361428D02*
X208914523Y-79266190D01*
X208914523Y-79266190D02*
X208914523Y-79170952D01*
X209152619Y-79218571D02*
X209105000Y-79123333D01*
X209105000Y-79123333D02*
X209009761Y-79028095D01*
X209009761Y-79028095D02*
X208819285Y-78980476D01*
X208819285Y-78980476D02*
X208485952Y-78980476D01*
X208485952Y-78980476D02*
X208295476Y-79028095D01*
X208295476Y-79028095D02*
X208200238Y-79123333D01*
X208200238Y-79123333D02*
X208152619Y-79218571D01*
X208152619Y-79218571D02*
X208152619Y-79409047D01*
X208152619Y-79409047D02*
X208200238Y-79504285D01*
X208200238Y-79504285D02*
X208295476Y-79599523D01*
X208295476Y-79599523D02*
X208485952Y-79647142D01*
X208485952Y-79647142D02*
X208819285Y-79647142D01*
X208819285Y-79647142D02*
X209009761Y-79599523D01*
X209009761Y-79599523D02*
X209105000Y-79504285D01*
X209105000Y-79504285D02*
X209152619Y-79409047D01*
X209152619Y-79409047D02*
X209152619Y-79218571D01*
X209152619Y-80599523D02*
X209152619Y-80028095D01*
X209152619Y-80313809D02*
X208152619Y-80313809D01*
X208152619Y-80313809D02*
X208295476Y-80218571D01*
X208295476Y-80218571D02*
X208390714Y-80123333D01*
X208390714Y-80123333D02*
X208438333Y-80028095D01*
X218711904Y-96062619D02*
X218140476Y-96062619D01*
X218426190Y-97062619D02*
X218426190Y-96062619D01*
X217283333Y-97062619D02*
X217854761Y-97062619D01*
X217569047Y-97062619D02*
X217569047Y-96062619D01*
X217569047Y-96062619D02*
X217664285Y-96205476D01*
X217664285Y-96205476D02*
X217759523Y-96300714D01*
X217759523Y-96300714D02*
X217854761Y-96348333D01*
D10*
X227042856Y-105963928D02*
X227042856Y-104963928D01*
X227042856Y-105249642D02*
X226971427Y-105106785D01*
X226971427Y-105106785D02*
X226899999Y-105035357D01*
X226899999Y-105035357D02*
X226757141Y-104963928D01*
X226757141Y-104963928D02*
X226614284Y-104963928D01*
X225542856Y-105892500D02*
X225685713Y-105963928D01*
X225685713Y-105963928D02*
X225971428Y-105963928D01*
X225971428Y-105963928D02*
X226114285Y-105892500D01*
X226114285Y-105892500D02*
X226185713Y-105749642D01*
X226185713Y-105749642D02*
X226185713Y-105178214D01*
X226185713Y-105178214D02*
X226114285Y-105035357D01*
X226114285Y-105035357D02*
X225971428Y-104963928D01*
X225971428Y-104963928D02*
X225685713Y-104963928D01*
X225685713Y-104963928D02*
X225542856Y-105035357D01*
X225542856Y-105035357D02*
X225471428Y-105178214D01*
X225471428Y-105178214D02*
X225471428Y-105321071D01*
X225471428Y-105321071D02*
X226185713Y-105463928D01*
X224185714Y-105963928D02*
X224185714Y-104463928D01*
X224185714Y-105892500D02*
X224328571Y-105963928D01*
X224328571Y-105963928D02*
X224614285Y-105963928D01*
X224614285Y-105963928D02*
X224757142Y-105892500D01*
X224757142Y-105892500D02*
X224828571Y-105821071D01*
X224828571Y-105821071D02*
X224899999Y-105678214D01*
X224899999Y-105678214D02*
X224899999Y-105249642D01*
X224899999Y-105249642D02*
X224828571Y-105106785D01*
X224828571Y-105106785D02*
X224757142Y-105035357D01*
X224757142Y-105035357D02*
X224614285Y-104963928D01*
X224614285Y-104963928D02*
X224328571Y-104963928D01*
X224328571Y-104963928D02*
X224185714Y-105035357D01*
X222399999Y-105535357D02*
X221685714Y-105535357D01*
X222542856Y-105963928D02*
X222042856Y-104463928D01*
X222042856Y-104463928D02*
X221542856Y-105963928D01*
X213678571Y-104793928D02*
X213678571Y-106008214D01*
X213678571Y-106008214D02*
X213749999Y-106151071D01*
X213749999Y-106151071D02*
X213821428Y-106222500D01*
X213821428Y-106222500D02*
X213964285Y-106293928D01*
X213964285Y-106293928D02*
X214178571Y-106293928D01*
X214178571Y-106293928D02*
X214321428Y-106222500D01*
X213678571Y-105722500D02*
X213821428Y-105793928D01*
X213821428Y-105793928D02*
X214107142Y-105793928D01*
X214107142Y-105793928D02*
X214249999Y-105722500D01*
X214249999Y-105722500D02*
X214321428Y-105651071D01*
X214321428Y-105651071D02*
X214392856Y-105508214D01*
X214392856Y-105508214D02*
X214392856Y-105079642D01*
X214392856Y-105079642D02*
X214321428Y-104936785D01*
X214321428Y-104936785D02*
X214249999Y-104865357D01*
X214249999Y-104865357D02*
X214107142Y-104793928D01*
X214107142Y-104793928D02*
X213821428Y-104793928D01*
X213821428Y-104793928D02*
X213678571Y-104865357D01*
X212964285Y-105793928D02*
X212964285Y-104793928D01*
X212964285Y-105079642D02*
X212892856Y-104936785D01*
X212892856Y-104936785D02*
X212821428Y-104865357D01*
X212821428Y-104865357D02*
X212678570Y-104793928D01*
X212678570Y-104793928D02*
X212535713Y-104793928D01*
X211464285Y-105722500D02*
X211607142Y-105793928D01*
X211607142Y-105793928D02*
X211892857Y-105793928D01*
X211892857Y-105793928D02*
X212035714Y-105722500D01*
X212035714Y-105722500D02*
X212107142Y-105579642D01*
X212107142Y-105579642D02*
X212107142Y-105008214D01*
X212107142Y-105008214D02*
X212035714Y-104865357D01*
X212035714Y-104865357D02*
X211892857Y-104793928D01*
X211892857Y-104793928D02*
X211607142Y-104793928D01*
X211607142Y-104793928D02*
X211464285Y-104865357D01*
X211464285Y-104865357D02*
X211392857Y-105008214D01*
X211392857Y-105008214D02*
X211392857Y-105151071D01*
X211392857Y-105151071D02*
X212107142Y-105293928D01*
X210178571Y-105722500D02*
X210321428Y-105793928D01*
X210321428Y-105793928D02*
X210607143Y-105793928D01*
X210607143Y-105793928D02*
X210750000Y-105722500D01*
X210750000Y-105722500D02*
X210821428Y-105579642D01*
X210821428Y-105579642D02*
X210821428Y-105008214D01*
X210821428Y-105008214D02*
X210750000Y-104865357D01*
X210750000Y-104865357D02*
X210607143Y-104793928D01*
X210607143Y-104793928D02*
X210321428Y-104793928D01*
X210321428Y-104793928D02*
X210178571Y-104865357D01*
X210178571Y-104865357D02*
X210107143Y-105008214D01*
X210107143Y-105008214D02*
X210107143Y-105151071D01*
X210107143Y-105151071D02*
X210821428Y-105293928D01*
X209464286Y-104793928D02*
X209464286Y-105793928D01*
X209464286Y-104936785D02*
X209392857Y-104865357D01*
X209392857Y-104865357D02*
X209250000Y-104793928D01*
X209250000Y-104793928D02*
X209035714Y-104793928D01*
X209035714Y-104793928D02*
X208892857Y-104865357D01*
X208892857Y-104865357D02*
X208821429Y-105008214D01*
X208821429Y-105008214D02*
X208821429Y-105793928D01*
X206464286Y-105008214D02*
X206250000Y-105079642D01*
X206250000Y-105079642D02*
X206178571Y-105151071D01*
X206178571Y-105151071D02*
X206107143Y-105293928D01*
X206107143Y-105293928D02*
X206107143Y-105508214D01*
X206107143Y-105508214D02*
X206178571Y-105651071D01*
X206178571Y-105651071D02*
X206250000Y-105722500D01*
X206250000Y-105722500D02*
X206392857Y-105793928D01*
X206392857Y-105793928D02*
X206964286Y-105793928D01*
X206964286Y-105793928D02*
X206964286Y-104293928D01*
X206964286Y-104293928D02*
X206464286Y-104293928D01*
X206464286Y-104293928D02*
X206321429Y-104365357D01*
X206321429Y-104365357D02*
X206250000Y-104436785D01*
X206250000Y-104436785D02*
X206178571Y-104579642D01*
X206178571Y-104579642D02*
X206178571Y-104722500D01*
X206178571Y-104722500D02*
X206250000Y-104865357D01*
X206250000Y-104865357D02*
X206321429Y-104936785D01*
X206321429Y-104936785D02*
X206464286Y-105008214D01*
X206464286Y-105008214D02*
X206964286Y-105008214D01*
D11*
X226889999Y-93073928D02*
X225961427Y-93073928D01*
X225961427Y-93073928D02*
X226461427Y-93645357D01*
X226461427Y-93645357D02*
X226247142Y-93645357D01*
X226247142Y-93645357D02*
X226104285Y-93716785D01*
X226104285Y-93716785D02*
X226032856Y-93788214D01*
X226032856Y-93788214D02*
X225961427Y-93931071D01*
X225961427Y-93931071D02*
X225961427Y-94288214D01*
X225961427Y-94288214D02*
X226032856Y-94431071D01*
X226032856Y-94431071D02*
X226104285Y-94502500D01*
X226104285Y-94502500D02*
X226247142Y-94573928D01*
X226247142Y-94573928D02*
X226675713Y-94573928D01*
X226675713Y-94573928D02*
X226818570Y-94502500D01*
X226818570Y-94502500D02*
X226889999Y-94431071D01*
X209688570Y-93586785D02*
X209617142Y-93515357D01*
X209617142Y-93515357D02*
X209474285Y-93443928D01*
X209474285Y-93443928D02*
X209117142Y-93443928D01*
X209117142Y-93443928D02*
X208974285Y-93515357D01*
X208974285Y-93515357D02*
X208902856Y-93586785D01*
X208902856Y-93586785D02*
X208831427Y-93729642D01*
X208831427Y-93729642D02*
X208831427Y-93872500D01*
X208831427Y-93872500D02*
X208902856Y-94086785D01*
X208902856Y-94086785D02*
X209759999Y-94943928D01*
X209759999Y-94943928D02*
X208831427Y-94943928D01*
X199132619Y-98503333D02*
X198656428Y-98170000D01*
X199132619Y-97931905D02*
X198132619Y-97931905D01*
X198132619Y-97931905D02*
X198132619Y-98312857D01*
X198132619Y-98312857D02*
X198180238Y-98408095D01*
X198180238Y-98408095D02*
X198227857Y-98455714D01*
X198227857Y-98455714D02*
X198323095Y-98503333D01*
X198323095Y-98503333D02*
X198465952Y-98503333D01*
X198465952Y-98503333D02*
X198561190Y-98455714D01*
X198561190Y-98455714D02*
X198608809Y-98408095D01*
X198608809Y-98408095D02*
X198656428Y-98312857D01*
X198656428Y-98312857D02*
X198656428Y-97931905D01*
X199132619Y-99455714D02*
X199132619Y-98884286D01*
X199132619Y-99170000D02*
X198132619Y-99170000D01*
X198132619Y-99170000D02*
X198275476Y-99074762D01*
X198275476Y-99074762D02*
X198370714Y-98979524D01*
X198370714Y-98979524D02*
X198418333Y-98884286D01*
X248735000Y-91136667D02*
X248782619Y-91279524D01*
X248782619Y-91279524D02*
X248782619Y-91517619D01*
X248782619Y-91517619D02*
X248735000Y-91612857D01*
X248735000Y-91612857D02*
X248687380Y-91660476D01*
X248687380Y-91660476D02*
X248592142Y-91708095D01*
X248592142Y-91708095D02*
X248496904Y-91708095D01*
X248496904Y-91708095D02*
X248401666Y-91660476D01*
X248401666Y-91660476D02*
X248354047Y-91612857D01*
X248354047Y-91612857D02*
X248306428Y-91517619D01*
X248306428Y-91517619D02*
X248258809Y-91327143D01*
X248258809Y-91327143D02*
X248211190Y-91231905D01*
X248211190Y-91231905D02*
X248163571Y-91184286D01*
X248163571Y-91184286D02*
X248068333Y-91136667D01*
X248068333Y-91136667D02*
X247973095Y-91136667D01*
X247973095Y-91136667D02*
X247877857Y-91184286D01*
X247877857Y-91184286D02*
X247830238Y-91231905D01*
X247830238Y-91231905D02*
X247782619Y-91327143D01*
X247782619Y-91327143D02*
X247782619Y-91565238D01*
X247782619Y-91565238D02*
X247830238Y-91708095D01*
X247782619Y-92041429D02*
X248782619Y-92279524D01*
X248782619Y-92279524D02*
X248068333Y-92470000D01*
X248068333Y-92470000D02*
X248782619Y-92660476D01*
X248782619Y-92660476D02*
X247782619Y-92898572D01*
X247877857Y-93231905D02*
X247830238Y-93279524D01*
X247830238Y-93279524D02*
X247782619Y-93374762D01*
X247782619Y-93374762D02*
X247782619Y-93612857D01*
X247782619Y-93612857D02*
X247830238Y-93708095D01*
X247830238Y-93708095D02*
X247877857Y-93755714D01*
X247877857Y-93755714D02*
X247973095Y-93803333D01*
X247973095Y-93803333D02*
X248068333Y-93803333D01*
X248068333Y-93803333D02*
X248211190Y-93755714D01*
X248211190Y-93755714D02*
X248782619Y-93184286D01*
X248782619Y-93184286D02*
X248782619Y-93803333D01*
D16*
X226352518Y-47471663D02*
X226960551Y-47573236D01*
X227543498Y-47753410D01*
X228094788Y-48008166D01*
X228607849Y-48333488D01*
X229076109Y-48725357D01*
X229492997Y-49179756D01*
X229768466Y-49559897D01*
X230072062Y-50100551D01*
X230297393Y-50665998D01*
X230444574Y-51249013D01*
X230513720Y-51842370D01*
X230504946Y-52438845D01*
X230418366Y-53031211D01*
X230254095Y-53612243D01*
X230012247Y-54174716D01*
X229692938Y-54711404D01*
X229686610Y-54720598D01*
X229307234Y-55197584D01*
X228871607Y-55615455D01*
X228387306Y-55970725D01*
X227861905Y-56259910D01*
X227302981Y-56479523D01*
X226718108Y-56626079D01*
X226114862Y-56696094D01*
X225500819Y-56686082D01*
X225428728Y-56679531D01*
X224818124Y-56576906D01*
X224224305Y-56392012D01*
X223651588Y-56126323D01*
X223425484Y-55995367D01*
X223179392Y-55823317D01*
X222909526Y-55599749D01*
X222636915Y-55344981D01*
X222382593Y-55079333D01*
X222167591Y-54823124D01*
X222065755Y-54681693D01*
X221975202Y-54553271D01*
X221900650Y-54462176D01*
X221854646Y-54423247D01*
X221848067Y-54424165D01*
X221820995Y-54427473D01*
X221820000Y-54419964D01*
X221841618Y-54380025D01*
X221904456Y-54272886D01*
X222005491Y-54103537D01*
X222141701Y-53876964D01*
X222310064Y-53598157D01*
X222507555Y-53272103D01*
X222731153Y-52903790D01*
X222977835Y-52498207D01*
X223244578Y-52060341D01*
X223528359Y-51595180D01*
X223826155Y-51107714D01*
X223943613Y-50915623D01*
X226067226Y-47443551D01*
X226352518Y-47471663D01*
G36*
X226352518Y-47471663D02*
G01*
X226960551Y-47573236D01*
X227543498Y-47753410D01*
X228094788Y-48008166D01*
X228607849Y-48333488D01*
X229076109Y-48725357D01*
X229492997Y-49179756D01*
X229768466Y-49559897D01*
X230072062Y-50100551D01*
X230297393Y-50665998D01*
X230444574Y-51249013D01*
X230513720Y-51842370D01*
X230504946Y-52438845D01*
X230418366Y-53031211D01*
X230254095Y-53612243D01*
X230012247Y-54174716D01*
X229692938Y-54711404D01*
X229686610Y-54720598D01*
X229307234Y-55197584D01*
X228871607Y-55615455D01*
X228387306Y-55970725D01*
X227861905Y-56259910D01*
X227302981Y-56479523D01*
X226718108Y-56626079D01*
X226114862Y-56696094D01*
X225500819Y-56686082D01*
X225428728Y-56679531D01*
X224818124Y-56576906D01*
X224224305Y-56392012D01*
X223651588Y-56126323D01*
X223425484Y-55995367D01*
X223179392Y-55823317D01*
X222909526Y-55599749D01*
X222636915Y-55344981D01*
X222382593Y-55079333D01*
X222167591Y-54823124D01*
X222065755Y-54681693D01*
X221975202Y-54553271D01*
X221900650Y-54462176D01*
X221854646Y-54423247D01*
X221848067Y-54424165D01*
X221820995Y-54427473D01*
X221820000Y-54419964D01*
X221841618Y-54380025D01*
X221904456Y-54272886D01*
X222005491Y-54103537D01*
X222141701Y-53876964D01*
X222310064Y-53598157D01*
X222507555Y-53272103D01*
X222731153Y-52903790D01*
X222977835Y-52498207D01*
X223244578Y-52060341D01*
X223528359Y-51595180D01*
X223826155Y-51107714D01*
X223943613Y-50915623D01*
X226067226Y-47443551D01*
X226352518Y-47471663D01*
G37*
X200154515Y-50860955D02*
X200453706Y-51350054D01*
X200740425Y-51819122D01*
X201011570Y-52263062D01*
X201264037Y-52676775D01*
X201494723Y-53055167D01*
X201700524Y-53393138D01*
X201878337Y-53685592D01*
X202025060Y-53927433D01*
X202137588Y-54113563D01*
X202212818Y-54238884D01*
X202247648Y-54298301D01*
X202249632Y-54302142D01*
X202240967Y-54379439D01*
X202179124Y-54503488D01*
X202073107Y-54663575D01*
X201931918Y-54848989D01*
X201764559Y-55049017D01*
X201580033Y-55252946D01*
X201387342Y-55450064D01*
X201195490Y-55629658D01*
X201013478Y-55781015D01*
X200995033Y-55795038D01*
X200511739Y-56107702D01*
X199980549Y-56358893D01*
X199415558Y-56544808D01*
X198830862Y-56661643D01*
X198240554Y-56705594D01*
X197716909Y-56679776D01*
X197107453Y-56570307D01*
X196525541Y-56383603D01*
X195977662Y-56124186D01*
X195470307Y-55796577D01*
X195009964Y-55405298D01*
X194603123Y-54954872D01*
X194256273Y-54449820D01*
X194096852Y-54157272D01*
X193880778Y-53653126D01*
X193719479Y-53124277D01*
X193618695Y-52593887D01*
X193584166Y-52088622D01*
X193607783Y-51701764D01*
X193673954Y-51275836D01*
X193775656Y-50840401D01*
X193905868Y-50425022D01*
X194057568Y-50059263D01*
X194074218Y-50025418D01*
X194318330Y-49606104D01*
X194622873Y-49192560D01*
X194970985Y-48803230D01*
X195345806Y-48456555D01*
X195730473Y-48170978D01*
X195821926Y-48113855D01*
X196219860Y-47903820D01*
X196649876Y-47728069D01*
X197088475Y-47594025D01*
X197512157Y-47509113D01*
X197823492Y-47481575D01*
X198082055Y-47474288D01*
X200154515Y-50860955D01*
G36*
X200154515Y-50860955D02*
G01*
X200453706Y-51350054D01*
X200740425Y-51819122D01*
X201011570Y-52263062D01*
X201264037Y-52676775D01*
X201494723Y-53055167D01*
X201700524Y-53393138D01*
X201878337Y-53685592D01*
X202025060Y-53927433D01*
X202137588Y-54113563D01*
X202212818Y-54238884D01*
X202247648Y-54298301D01*
X202249632Y-54302142D01*
X202240967Y-54379439D01*
X202179124Y-54503488D01*
X202073107Y-54663575D01*
X201931918Y-54848989D01*
X201764559Y-55049017D01*
X201580033Y-55252946D01*
X201387342Y-55450064D01*
X201195490Y-55629658D01*
X201013478Y-55781015D01*
X200995033Y-55795038D01*
X200511739Y-56107702D01*
X199980549Y-56358893D01*
X199415558Y-56544808D01*
X198830862Y-56661643D01*
X198240554Y-56705594D01*
X197716909Y-56679776D01*
X197107453Y-56570307D01*
X196525541Y-56383603D01*
X195977662Y-56124186D01*
X195470307Y-55796577D01*
X195009964Y-55405298D01*
X194603123Y-54954872D01*
X194256273Y-54449820D01*
X194096852Y-54157272D01*
X193880778Y-53653126D01*
X193719479Y-53124277D01*
X193618695Y-52593887D01*
X193584166Y-52088622D01*
X193607783Y-51701764D01*
X193673954Y-51275836D01*
X193775656Y-50840401D01*
X193905868Y-50425022D01*
X194057568Y-50059263D01*
X194074218Y-50025418D01*
X194318330Y-49606104D01*
X194622873Y-49192560D01*
X194970985Y-48803230D01*
X195345806Y-48456555D01*
X195730473Y-48170978D01*
X195821926Y-48113855D01*
X196219860Y-47903820D01*
X196649876Y-47728069D01*
X197088475Y-47594025D01*
X197512157Y-47509113D01*
X197823492Y-47481575D01*
X198082055Y-47474288D01*
X200154515Y-50860955D01*
G37*
G36*
G01*
X220060000Y-82445000D02*
X218760000Y-82445000D01*
G75*
G02*
X218510000Y-82195000I0J250000D01*
G01*
X218510000Y-81370000D01*
G75*
G02*
X218760000Y-81120000I250000J0D01*
G01*
X220060000Y-81120000D01*
G75*
G02*
X220310000Y-81370000I0J-250000D01*
G01*
X220310000Y-82195000D01*
G75*
G02*
X220060000Y-82445000I-250000J0D01*
G01*
G37*
G36*
G01*
X220060000Y-79320000D02*
X218760000Y-79320000D01*
G75*
G02*
X218510000Y-79070000I0J250000D01*
G01*
X218510000Y-78245000D01*
G75*
G02*
X218760000Y-77995000I250000J0D01*
G01*
X220060000Y-77995000D01*
G75*
G02*
X220310000Y-78245000I0J-250000D01*
G01*
X220310000Y-79070000D01*
G75*
G02*
X220060000Y-79320000I-250000J0D01*
G01*
G37*
D17*
X196450000Y-64620000D03*
X199390000Y-64620000D03*
X224610000Y-64520000D03*
X227550000Y-64520000D03*
D18*
X227852500Y-83390000D03*
X227852500Y-77890000D03*
D19*
X206640000Y-82280000D03*
X204740000Y-82280000D03*
X205690000Y-78880000D03*
G36*
G01*
X210450000Y-102600000D02*
X210450000Y-100600000D01*
G75*
G02*
X211450000Y-99600000I1000000J0D01*
G01*
X213450000Y-99600000D01*
G75*
G02*
X214450000Y-100600000I0J-1000000D01*
G01*
X214450000Y-102600000D01*
G75*
G02*
X213450000Y-103600000I-1000000J0D01*
G01*
X211450000Y-103600000D01*
G75*
G02*
X210450000Y-102600000I0J1000000D01*
G01*
G37*
G36*
G01*
X210450000Y-93500000D02*
X210450000Y-91500000D01*
G75*
G02*
X211450000Y-90500000I1000000J0D01*
G01*
X213450000Y-90500000D01*
G75*
G02*
X214450000Y-91500000I0J-1000000D01*
G01*
X214450000Y-93500000D01*
G75*
G02*
X213450000Y-94500000I-1000000J0D01*
G01*
X211450000Y-94500000D01*
G75*
G02*
X210450000Y-93500000I0J1000000D01*
G01*
G37*
G36*
G01*
X221450000Y-93600000D02*
X221450000Y-91600000D01*
G75*
G02*
X222450000Y-90600000I1000000J0D01*
G01*
X224450000Y-90600000D01*
G75*
G02*
X225450000Y-91600000I0J-1000000D01*
G01*
X225450000Y-93600000D01*
G75*
G02*
X224450000Y-94600000I-1000000J0D01*
G01*
X222450000Y-94600000D01*
G75*
G02*
X221450000Y-93600000I0J1000000D01*
G01*
G37*
G36*
G01*
X221450000Y-102600000D02*
X221450000Y-100600000D01*
G75*
G02*
X222450000Y-99600000I1000000J0D01*
G01*
X224450000Y-99600000D01*
G75*
G02*
X225450000Y-100600000I0J-1000000D01*
G01*
X225450000Y-102600000D01*
G75*
G02*
X224450000Y-103600000I-1000000J0D01*
G01*
X222450000Y-103600000D01*
G75*
G02*
X221450000Y-102600000I0J1000000D01*
G01*
G37*
G36*
G01*
X199865000Y-96470000D02*
X201115000Y-96470000D01*
G75*
G02*
X201365000Y-96720000I0J-250000D01*
G01*
X201365000Y-97520000D01*
G75*
G02*
X201115000Y-97770000I-250000J0D01*
G01*
X199865000Y-97770000D01*
G75*
G02*
X199615000Y-97520000I0J250000D01*
G01*
X199615000Y-96720000D01*
G75*
G02*
X199865000Y-96470000I250000J0D01*
G01*
G37*
G36*
G01*
X199865000Y-99570000D02*
X201115000Y-99570000D01*
G75*
G02*
X201365000Y-99820000I0J-250000D01*
G01*
X201365000Y-100620000D01*
G75*
G02*
X201115000Y-100870000I-250000J0D01*
G01*
X199865000Y-100870000D01*
G75*
G02*
X199615000Y-100620000I0J250000D01*
G01*
X199615000Y-99820000D01*
G75*
G02*
X199865000Y-99570000I250000J0D01*
G01*
G37*
G36*
X256000046Y-118697520D02*
G01*
X255962992Y-118646520D01*
X255958000Y-118615000D01*
X255958000Y-112265000D01*
X255977480Y-112205046D01*
X256028480Y-112167992D01*
X256060000Y-112163000D01*
X261360000Y-112163000D01*
X261419954Y-112182480D01*
X261432125Y-112192875D01*
X263972125Y-114732875D01*
X264000744Y-114789044D01*
X264002000Y-114805000D01*
X264002000Y-118615000D01*
X263982520Y-118674954D01*
X263931520Y-118712008D01*
X263900000Y-118717000D01*
X256060000Y-118717000D01*
X256000046Y-118697520D01*
G37*
G36*
X192790046Y-118697520D02*
G01*
X192752992Y-118646520D01*
X192748000Y-118615000D01*
X192748000Y-114805000D01*
X192767480Y-114745046D01*
X192777875Y-114732875D01*
X195317875Y-112192875D01*
X195374044Y-112164256D01*
X195390000Y-112163000D01*
X200690000Y-112163000D01*
X200749954Y-112182480D01*
X200787008Y-112233480D01*
X200792000Y-112265000D01*
X200792000Y-118615000D01*
X200772520Y-118674954D01*
X200721520Y-118712008D01*
X200690000Y-118717000D01*
X192850000Y-118717000D01*
X192790046Y-118697520D01*
G37*
D20*
X240990000Y-95720000D03*
X243490000Y-95720000D03*
X245990000Y-95720000D03*
X240990000Y-88970000D03*
X243490000Y-88970000D03*
X245990000Y-88970000D03*
%LPD*%
M02*
