%TF.GenerationSoftware,KiCad,Pcbnew,7.0.2.1-36-g582732918d-dirty-deb11*%
%TF.CreationDate,2024-01-19T22:58:02+00:00*%
%TF.ProjectId,owlThief,6f776c54-6869-4656-962e-6b696361645f,rev?*%
%TF.SameCoordinates,Original*%
%TF.FileFunction,Drillmap*%
%TF.FilePolarity,Positive*%
%FSLAX45Y45*%
G04 Gerber Fmt 4.5, Leading zero omitted, Abs format (unit mm)*
G04 Created by KiCad (PCBNEW 7.0.2.1-36-g582732918d-dirty-deb11) date 2024-01-19 22:58:02*
%MOMM*%
%LPD*%
G01*
G04 APERTURE LIST*
%ADD10C,0.200000*%
G04 APERTURE END LIST*
D10*
X18739026Y-2943895D02*
X18712869Y-2945735D01*
X18687088Y-2950263D01*
X18661910Y-2957358D01*
X18637559Y-2966902D01*
X18614262Y-2978775D01*
X18592245Y-2992858D01*
X18571732Y-3009031D01*
X18552951Y-3027174D01*
X18536127Y-3047169D01*
X18521486Y-3068895D01*
X18513049Y-3084282D01*
X23775000Y-4325000D02*
X23788721Y-4309303D01*
X23802128Y-4293331D01*
X23815215Y-4277091D01*
X23827976Y-4260591D01*
X23840408Y-4243837D01*
X23852505Y-4226836D01*
X23864261Y-4209597D01*
X23875673Y-4192127D01*
X23886734Y-4174432D01*
X23897441Y-4156520D01*
X23907787Y-4138399D01*
X23917767Y-4120075D01*
X23927378Y-4101556D01*
X23936613Y-4082850D01*
X23945467Y-4063963D01*
X23953936Y-4044902D01*
X23962015Y-4025676D01*
X23969698Y-4006291D01*
X23976981Y-3986755D01*
X23983857Y-3967075D01*
X23990324Y-3947258D01*
X23996374Y-3927312D01*
X24002004Y-3907244D01*
X24007208Y-3887060D01*
X24011981Y-3866770D01*
X24016318Y-3846379D01*
X24020214Y-3825894D01*
X24023665Y-3805325D01*
X24026664Y-3784677D01*
X24029207Y-3763957D01*
X24031289Y-3743174D01*
X24032905Y-3722335D01*
X19178617Y-12376192D02*
X19304800Y-12376181D01*
X19430982Y-12376173D01*
X19557165Y-12376168D01*
X19683348Y-12376165D01*
X19809531Y-12376165D01*
X19935714Y-12376166D01*
X20061897Y-12376168D01*
X20188080Y-12376172D01*
X20314263Y-12376176D01*
X20440446Y-12376181D01*
X20566629Y-12376186D01*
X20692812Y-12376191D01*
X20818995Y-12376196D01*
X20945178Y-12376199D01*
X21071361Y-12376202D01*
X21197544Y-12376204D01*
X21323727Y-12376203D01*
X21449910Y-12376201D01*
X21576093Y-12376197D01*
X21702276Y-12376190D01*
X21828459Y-12376180D01*
X21954641Y-12376167D01*
X22080824Y-12376150D01*
X22207007Y-12376130D01*
X22333190Y-12376105D01*
X22459372Y-12376076D01*
X22585555Y-12376043D01*
X22711738Y-12376004D01*
X22837920Y-12375960D01*
X22964103Y-12375910D01*
X23090285Y-12375854D01*
X23216467Y-12375793D01*
X24534400Y-7598639D02*
X24508111Y-7569633D01*
X24481489Y-7540928D01*
X24454536Y-7512533D01*
X24427251Y-7484456D01*
X24399635Y-7456706D01*
X24371687Y-7429290D01*
X24343409Y-7402219D01*
X24314800Y-7375499D01*
X24285861Y-7349139D01*
X24256591Y-7323148D01*
X24226992Y-7297535D01*
X24197062Y-7272307D01*
X24166804Y-7247473D01*
X24136215Y-7223042D01*
X24105298Y-7199022D01*
X24074051Y-7175421D01*
X21551825Y-3422466D02*
X21518112Y-3419647D01*
X21484377Y-3417037D01*
X21450621Y-3414652D01*
X21416847Y-3412508D01*
X21383058Y-3410622D01*
X21349256Y-3409011D01*
X21315444Y-3407690D01*
X21281623Y-3406676D01*
X21247798Y-3405985D01*
X21213969Y-3405633D01*
X21180140Y-3405638D01*
X21146314Y-3406014D01*
X21112492Y-3406779D01*
X21078677Y-3407949D01*
X21044872Y-3409539D01*
X21011079Y-3411568D01*
X22812939Y-3684367D02*
X22774913Y-3670707D01*
X22736757Y-3657457D01*
X22698476Y-3644613D01*
X22660073Y-3632168D01*
X22621552Y-3620116D01*
X22582918Y-3608452D01*
X22544174Y-3597170D01*
X22505325Y-3586264D01*
X22466374Y-3575728D01*
X22427326Y-3565558D01*
X22388185Y-3555746D01*
X22348955Y-3546288D01*
X22309639Y-3537177D01*
X22270242Y-3528408D01*
X22230768Y-3519975D01*
X22191221Y-3511872D01*
X22151605Y-3504094D01*
X22111924Y-3496634D01*
X22072181Y-3489488D01*
X22032382Y-3482649D01*
X21992530Y-3476112D01*
X21952630Y-3469871D01*
X21912684Y-3463919D01*
X21872698Y-3458252D01*
X21832675Y-3452864D01*
X21792619Y-3447749D01*
X21752535Y-3442900D01*
X21712426Y-3438314D01*
X21672296Y-3433982D01*
X21632150Y-3429901D01*
X21591992Y-3426064D01*
X21551825Y-3422466D01*
X18589832Y-4277986D02*
X18603171Y-4294576D01*
X18616865Y-4310875D01*
X18629575Y-4325466D01*
X23880734Y-3066055D02*
X23864842Y-3043177D01*
X23846522Y-3022337D01*
X23826051Y-3003664D01*
X23803707Y-2987287D01*
X23779765Y-2973335D01*
X23754502Y-2961936D01*
X23728195Y-2953219D01*
X23701121Y-2947314D01*
X23673556Y-2944349D01*
X23645778Y-2944453D01*
X23627277Y-2946292D01*
X18449897Y-7930289D02*
X18455979Y-7979709D01*
X18462218Y-8029113D01*
X18468615Y-8078500D01*
X18475175Y-8127868D01*
X18481900Y-8177217D01*
X18488793Y-8226543D01*
X18495857Y-8275847D01*
X18503095Y-8325127D01*
X18510511Y-8374380D01*
X18518106Y-8423607D01*
X18525885Y-8472805D01*
X18533850Y-8521972D01*
X18542003Y-8571109D01*
X18550349Y-8620212D01*
X18558890Y-8669281D01*
X18567629Y-8718314D01*
X18576569Y-8767310D01*
X18585712Y-8816267D01*
X18595063Y-8865184D01*
X18604624Y-8914060D01*
X18614398Y-8962893D01*
X18624388Y-9011681D01*
X18634596Y-9060424D01*
X18645027Y-9109120D01*
X18655682Y-9157766D01*
X18666566Y-9206363D01*
X18677680Y-9254908D01*
X18689028Y-9303401D01*
X18700613Y-9351839D01*
X18712438Y-9400221D01*
X18724505Y-9448546D01*
X18736819Y-9496812D01*
X18368985Y-3682782D02*
X18369858Y-3702960D01*
X18371145Y-3723113D01*
X18372844Y-3743232D01*
X18374952Y-3763310D01*
X18377467Y-3783339D01*
X18380385Y-3803312D01*
X18383705Y-3823221D01*
X18387424Y-3843059D01*
X18391539Y-3862818D01*
X18396049Y-3882490D01*
X18400950Y-3902068D01*
X18406239Y-3921544D01*
X18411916Y-3940910D01*
X18417976Y-3960160D01*
X18424417Y-3979285D01*
X18431237Y-3998277D01*
X18438434Y-4017130D01*
X18446004Y-4035836D01*
X18453946Y-4054386D01*
X18462257Y-4072774D01*
X18470933Y-4090992D01*
X18479974Y-4109032D01*
X18489376Y-4126887D01*
X18499136Y-4144549D01*
X18509253Y-4162010D01*
X18519723Y-4179263D01*
X18530545Y-4196300D01*
X18541715Y-4213114D01*
X18553231Y-4229698D01*
X18565091Y-4246042D01*
X18577292Y-4262141D01*
X18589832Y-4277986D01*
X18326508Y-6161447D02*
X18327784Y-6216863D01*
X18329228Y-6272274D01*
X18330839Y-6327681D01*
X18332617Y-6383082D01*
X18334563Y-6438476D01*
X18336675Y-6493865D01*
X18338955Y-6549246D01*
X18341402Y-6604621D01*
X18344015Y-6659987D01*
X18346795Y-6715345D01*
X18349741Y-6770695D01*
X18352854Y-6826035D01*
X18356134Y-6881367D01*
X18359579Y-6936688D01*
X18363191Y-6991999D01*
X18366969Y-7047299D01*
X18370912Y-7102588D01*
X18375022Y-7157866D01*
X18379297Y-7213131D01*
X18383737Y-7268384D01*
X18388343Y-7323624D01*
X18393115Y-7378850D01*
X18398051Y-7434063D01*
X18403153Y-7489262D01*
X18408420Y-7544446D01*
X18413851Y-7599615D01*
X18419447Y-7654769D01*
X18425209Y-7709906D01*
X18431134Y-7765028D01*
X18437224Y-7820132D01*
X18443479Y-7875219D01*
X18449897Y-7930289D01*
X18739026Y-2943895D02*
X18739026Y-2943895D01*
X18629575Y-4325466D02*
X18611870Y-4348155D01*
X18594667Y-4371217D01*
X18577968Y-4394639D01*
X18561777Y-4418409D01*
X18546100Y-4442515D01*
X18530938Y-4466946D01*
X18516297Y-4491691D01*
X18502180Y-4516737D01*
X18488591Y-4542073D01*
X18475533Y-4567687D01*
X18463012Y-4593568D01*
X18451029Y-4619703D01*
X18439590Y-4646081D01*
X18428697Y-4672690D01*
X18418356Y-4699519D01*
X18408569Y-4726556D01*
X18399341Y-4753788D01*
X18390675Y-4781206D01*
X18382575Y-4808796D01*
X18375045Y-4836547D01*
X18368089Y-4864447D01*
X18361711Y-4892485D01*
X18355915Y-4920649D01*
X18350704Y-4948928D01*
X18346082Y-4977308D01*
X18342053Y-5005780D01*
X18338620Y-5034331D01*
X18335789Y-5062949D01*
X18333562Y-5091622D01*
X18331943Y-5120340D01*
X18330937Y-5149090D01*
X18330547Y-5177861D01*
X21011079Y-3411568D02*
X20974778Y-3413709D01*
X20938487Y-3416065D01*
X20902207Y-3418638D01*
X20865939Y-3421429D01*
X20829687Y-3424440D01*
X20793452Y-3427673D01*
X20757236Y-3431130D01*
X20721041Y-3434813D01*
X20684870Y-3438724D01*
X20648723Y-3442864D01*
X20612604Y-3447235D01*
X20576514Y-3451839D01*
X20540456Y-3456679D01*
X20504430Y-3461755D01*
X20468440Y-3467070D01*
X20432488Y-3472625D01*
X20396574Y-3478423D01*
X20360702Y-3484465D01*
X20324874Y-3490753D01*
X20289091Y-3497289D01*
X20253355Y-3504075D01*
X20217669Y-3511113D01*
X20182034Y-3518404D01*
X20146453Y-3525950D01*
X20110927Y-3533754D01*
X20075459Y-3541816D01*
X20040050Y-3550140D01*
X20004703Y-3558726D01*
X19969419Y-3567576D01*
X19934202Y-3576693D01*
X19899051Y-3586079D01*
X19863971Y-3595734D01*
X24073393Y-5138455D02*
X24072282Y-5110928D01*
X24070602Y-5083435D01*
X24068357Y-5055985D01*
X24065550Y-5028590D01*
X24062186Y-5001259D01*
X24058268Y-4974002D01*
X24053801Y-4946830D01*
X24048788Y-4919753D01*
X24043233Y-4892782D01*
X24037140Y-4865925D01*
X24030514Y-4839195D01*
X24023357Y-4812600D01*
X24015675Y-4786152D01*
X24007470Y-4759859D01*
X23998747Y-4733734D01*
X23989510Y-4707785D01*
X23979763Y-4682023D01*
X23969509Y-4656459D01*
X23958753Y-4631102D01*
X23947499Y-4605963D01*
X23935750Y-4581052D01*
X23923510Y-4556379D01*
X23910784Y-4531954D01*
X23897575Y-4507788D01*
X23883888Y-4483891D01*
X23869725Y-4460273D01*
X23855092Y-4436945D01*
X23839992Y-4413916D01*
X23824428Y-4391196D01*
X23808406Y-4368797D01*
X23791929Y-4346728D01*
X23775000Y-4325000D01*
X18995341Y-12369526D02*
X19018017Y-12373277D01*
X19040821Y-12375476D01*
X19063722Y-12376482D01*
X19086690Y-12376654D01*
X19109694Y-12376352D01*
X19132704Y-12375935D01*
X19155688Y-12375762D01*
X19178617Y-12376192D01*
X23789521Y-12146283D02*
X23837958Y-12162529D01*
X23886585Y-12178153D01*
X23935396Y-12193156D01*
X23984383Y-12207542D01*
X24033539Y-12221314D01*
X24082857Y-12234475D01*
X24132330Y-12247029D01*
X24181950Y-12258977D01*
X24231710Y-12270324D01*
X24281603Y-12281071D01*
X24331622Y-12291223D01*
X24381759Y-12300783D01*
X24432008Y-12309753D01*
X24482361Y-12318136D01*
X24532810Y-12325936D01*
X24583350Y-12333155D01*
X24633972Y-12339797D01*
X24684669Y-12345865D01*
X24735435Y-12351361D01*
X24786261Y-12356289D01*
X24837141Y-12360652D01*
X24888067Y-12364453D01*
X24939033Y-12367695D01*
X24990031Y-12370380D01*
X25041053Y-12372513D01*
X25092093Y-12374096D01*
X25143144Y-12375131D01*
X25194197Y-12375623D01*
X25245247Y-12375574D01*
X25296286Y-12374988D01*
X25347306Y-12373867D01*
X25398300Y-12372214D01*
X19286693Y-10948062D02*
X19297844Y-10968264D01*
X19309098Y-10988410D01*
X19320456Y-11008498D01*
X19331920Y-11028526D01*
X19343490Y-11048493D01*
X19355169Y-11068396D01*
X19366959Y-11088234D01*
X19378859Y-11108004D01*
X19390873Y-11127706D01*
X19403001Y-11147338D01*
X19415245Y-11166897D01*
X19427607Y-11186382D01*
X19440087Y-11205791D01*
X19452688Y-11225123D01*
X19465411Y-11244375D01*
X19478258Y-11263546D01*
X19863971Y-3595734D02*
X19838101Y-3603143D01*
X19812278Y-3610718D01*
X19786506Y-3618464D01*
X19760788Y-3626388D01*
X19735127Y-3634495D01*
X19709528Y-3642790D01*
X19683992Y-3651280D01*
X19658524Y-3659969D01*
X19633126Y-3668864D01*
X19607803Y-3677970D01*
X19590964Y-3684160D01*
X25291754Y-8692573D02*
X25271462Y-8656221D01*
X25250997Y-8619952D01*
X25230352Y-8583774D01*
X25209525Y-8547690D01*
X25188511Y-8511707D01*
X25167306Y-8475830D01*
X25145904Y-8440064D01*
X25124302Y-8404417D01*
X25102496Y-8368892D01*
X25080480Y-8333495D01*
X25058252Y-8298233D01*
X25035805Y-8263111D01*
X25013136Y-8228134D01*
X24990241Y-8193308D01*
X24967115Y-8158639D01*
X24943753Y-8124132D01*
X24920152Y-8089792D01*
X24896307Y-8055626D01*
X24872213Y-8021639D01*
X24847867Y-7987837D01*
X24823264Y-7954224D01*
X24798399Y-7920808D01*
X24773268Y-7887593D01*
X24747866Y-7854584D01*
X24722190Y-7821788D01*
X24696235Y-7789211D01*
X24669997Y-7756857D01*
X24643471Y-7724732D01*
X24616652Y-7692842D01*
X24589537Y-7661193D01*
X24562121Y-7629790D01*
X24534400Y-7598639D01*
X26239239Y-12255615D02*
X26261752Y-12249009D01*
X26284383Y-12242135D01*
X26306971Y-12234811D01*
X26329356Y-12226852D01*
X26351378Y-12218075D01*
X26372875Y-12208299D01*
X26393689Y-12197338D01*
X26413657Y-12185011D01*
X26432620Y-12171133D01*
X26450417Y-12155522D01*
X26461555Y-12144061D01*
X23455218Y-3042367D02*
X23435133Y-3062418D01*
X23415050Y-3082470D01*
X23394967Y-3102522D01*
X23374886Y-3122576D01*
X23354806Y-3142630D01*
X23334728Y-3162685D01*
X23314650Y-3182742D01*
X23294574Y-3202799D01*
X23274498Y-3222856D01*
X23254423Y-3242915D01*
X23234350Y-3262974D01*
X23214277Y-3283034D01*
X23194205Y-3303095D01*
X23174134Y-3323157D01*
X23154063Y-3343219D01*
X23133993Y-3363282D01*
X23113924Y-3383345D01*
X23093856Y-3403410D01*
X23073788Y-3423474D01*
X23053721Y-3443540D01*
X23033654Y-3463606D01*
X23013587Y-3483673D01*
X22993521Y-3503740D01*
X22973456Y-3523808D01*
X22953391Y-3543876D01*
X22933326Y-3563945D01*
X22913261Y-3584014D01*
X22893196Y-3604084D01*
X22873132Y-3624154D01*
X22853068Y-3644224D01*
X22833003Y-3664295D01*
X22812939Y-3684367D01*
X25398300Y-12372214D02*
X25424836Y-12371024D01*
X25451372Y-12369714D01*
X25477909Y-12368279D01*
X25504442Y-12366716D01*
X25530972Y-12365020D01*
X25557496Y-12363189D01*
X25584013Y-12361219D01*
X25610519Y-12359105D01*
X25637015Y-12356844D01*
X25663498Y-12354432D01*
X25689966Y-12351866D01*
X25716417Y-12349141D01*
X25742850Y-12346254D01*
X25769263Y-12343202D01*
X25795655Y-12339980D01*
X25822022Y-12336584D01*
X25848364Y-12333011D01*
X25874679Y-12329258D01*
X25900965Y-12325320D01*
X25927221Y-12321193D01*
X25953443Y-12316875D01*
X25979632Y-12312360D01*
X26005784Y-12307646D01*
X26031899Y-12302728D01*
X26057973Y-12297604D01*
X26084007Y-12292268D01*
X26109997Y-12286718D01*
X26135943Y-12280949D01*
X26161841Y-12274958D01*
X26187691Y-12268741D01*
X26213491Y-12262295D01*
X26239239Y-12255615D01*
X26046993Y-10379491D02*
X26026955Y-10325281D01*
X26006729Y-10271134D01*
X25986311Y-10217053D01*
X25965697Y-10163042D01*
X25944882Y-10109103D01*
X25923862Y-10055240D01*
X25902634Y-10001458D01*
X25881193Y-9947758D01*
X25859535Y-9894144D01*
X25837655Y-9840620D01*
X25815549Y-9787189D01*
X25793213Y-9733854D01*
X25770644Y-9680619D01*
X25747836Y-9627488D01*
X25724786Y-9574462D01*
X25701488Y-9521547D01*
X25677940Y-9468744D01*
X25654137Y-9416059D01*
X25630075Y-9363493D01*
X25605749Y-9311050D01*
X25581155Y-9258734D01*
X25556290Y-9206547D01*
X25531148Y-9154495D01*
X25505726Y-9102578D01*
X25480020Y-9050802D01*
X25454025Y-8999170D01*
X25427736Y-8947684D01*
X25401151Y-8896348D01*
X25374264Y-8845165D01*
X25347072Y-8794140D01*
X25319570Y-8743274D01*
X25291754Y-8692573D01*
X26461555Y-12144061D02*
X26477985Y-12125267D01*
X26492353Y-12104981D01*
X26504621Y-12083414D01*
X26514752Y-12060776D01*
X26522711Y-12037279D01*
X26528459Y-12013132D01*
X26531961Y-11988546D01*
X26533179Y-11963733D01*
X26532077Y-11938901D01*
X26528617Y-11914262D01*
X26524983Y-11898048D01*
X18513049Y-3084282D02*
X18495202Y-3118819D01*
X18478454Y-3153920D01*
X18462823Y-3189548D01*
X18448326Y-3225662D01*
X18434980Y-3262225D01*
X18422801Y-3299196D01*
X18411807Y-3336536D01*
X18402014Y-3374207D01*
X18393441Y-3412170D01*
X18386103Y-3450384D01*
X18380018Y-3488812D01*
X18375204Y-3527414D01*
X18371676Y-3566151D01*
X18369452Y-3604984D01*
X18368550Y-3643874D01*
X18368985Y-3682782D01*
X18330547Y-5177861D02*
X18329749Y-5208591D01*
X18328985Y-5239322D01*
X18328258Y-5270054D01*
X18327566Y-5300787D01*
X18326912Y-5331520D01*
X18326295Y-5362255D01*
X18325718Y-5392990D01*
X18325181Y-5423727D01*
X18324684Y-5454463D01*
X18324229Y-5485201D01*
X18323817Y-5515939D01*
X18323447Y-5546677D01*
X18323122Y-5577416D01*
X18322842Y-5608155D01*
X18322608Y-5638894D01*
X18322421Y-5669633D01*
X18322282Y-5700373D01*
X18322191Y-5731113D01*
X18322149Y-5761853D01*
X18322158Y-5792593D01*
X18322218Y-5823332D01*
X18322331Y-5854072D01*
X18322496Y-5884811D01*
X18322715Y-5915550D01*
X18322988Y-5946289D01*
X18323317Y-5977028D01*
X18323703Y-6007766D01*
X18324146Y-6038503D01*
X18324647Y-6069240D01*
X18325207Y-6099976D01*
X18325827Y-6130712D01*
X18326508Y-6161447D01*
X18736819Y-9496812D02*
X18749187Y-9543785D01*
X18761799Y-9590709D01*
X18774661Y-9637578D01*
X18787779Y-9684388D01*
X18801161Y-9731133D01*
X18814813Y-9777806D01*
X18828742Y-9824403D01*
X18842955Y-9870918D01*
X18857458Y-9917345D01*
X18872259Y-9963679D01*
X18887363Y-10009913D01*
X18902778Y-10056043D01*
X18918510Y-10102063D01*
X18934567Y-10147967D01*
X18950954Y-10193750D01*
X18967679Y-10239406D01*
X18984748Y-10284929D01*
X19002169Y-10330314D01*
X19019947Y-10375555D01*
X19038090Y-10420647D01*
X19056604Y-10465584D01*
X19075496Y-10510360D01*
X19094773Y-10554971D01*
X19114441Y-10599409D01*
X19134508Y-10643670D01*
X19154980Y-10687748D01*
X19175863Y-10731638D01*
X19197165Y-10775333D01*
X19218893Y-10818829D01*
X19241052Y-10862119D01*
X19263650Y-10905199D01*
X19286693Y-10948062D01*
X23627277Y-2946292D02*
X23602394Y-2950704D01*
X23578257Y-2957690D01*
X23554976Y-2967047D01*
X23532660Y-2978575D01*
X23511416Y-2992072D01*
X23491356Y-3007337D01*
X23472587Y-3024169D01*
X23455218Y-3042367D01*
X18913543Y-3008311D02*
X18894930Y-2993306D01*
X18875062Y-2980270D01*
X18854108Y-2969211D01*
X18832239Y-2960138D01*
X18809626Y-2953061D01*
X18786439Y-2947989D01*
X18762849Y-2944930D01*
X18739026Y-2943895D01*
X19590964Y-3684160D02*
X19569792Y-3663043D01*
X19548629Y-3641917D01*
X19527472Y-3620784D01*
X19506322Y-3599644D01*
X19485177Y-3578498D01*
X19464037Y-3557347D01*
X19442901Y-3536192D01*
X19421768Y-3515034D01*
X19400638Y-3493873D01*
X19379509Y-3472710D01*
X19358381Y-3451546D01*
X19337253Y-3430382D01*
X19316125Y-3409219D01*
X19294995Y-3388057D01*
X19273863Y-3366897D01*
X19252729Y-3345741D01*
X19231590Y-3324588D01*
X19210447Y-3303440D01*
X19189299Y-3282297D01*
X19168144Y-3261161D01*
X19146983Y-3240032D01*
X19125815Y-3218910D01*
X19104638Y-3197798D01*
X19083452Y-3176695D01*
X19062256Y-3155602D01*
X19041049Y-3134520D01*
X19019831Y-3113451D01*
X18998601Y-3092394D01*
X18977358Y-3071351D01*
X18956101Y-3050322D01*
X18934830Y-3029308D01*
X18913543Y-3008311D01*
X18898894Y-11698213D02*
X18885591Y-11723538D01*
X18873123Y-11749293D01*
X18861500Y-11775449D01*
X18850733Y-11801976D01*
X18840835Y-11828843D01*
X18831816Y-11856019D01*
X18823688Y-11883476D01*
X18816463Y-11911181D01*
X18810151Y-11939106D01*
X18804765Y-11967219D01*
X18800316Y-11995491D01*
X18796815Y-12023891D01*
X18794273Y-12052389D01*
X18792703Y-12080955D01*
X18792115Y-12109559D01*
X18792521Y-12138170D01*
X26524983Y-11898048D02*
X26512319Y-11849918D01*
X26499498Y-11801830D01*
X26486520Y-11753785D01*
X26473386Y-11705782D01*
X26460099Y-11657822D01*
X26446658Y-11609904D01*
X26433065Y-11562029D01*
X26419321Y-11514197D01*
X26405427Y-11466409D01*
X26391384Y-11418663D01*
X26377194Y-11370961D01*
X26362857Y-11323303D01*
X26348374Y-11275688D01*
X26333747Y-11228117D01*
X26318977Y-11180590D01*
X26304064Y-11133107D01*
X26289010Y-11085668D01*
X26273816Y-11038274D01*
X26258482Y-10990924D01*
X26243011Y-10943619D01*
X26227403Y-10896358D01*
X26211659Y-10849143D01*
X26195781Y-10801973D01*
X26179769Y-10754847D01*
X26163624Y-10707768D01*
X26147348Y-10660733D01*
X26130942Y-10613745D01*
X26114406Y-10566802D01*
X26097742Y-10519905D01*
X26080951Y-10473054D01*
X26064035Y-10426249D01*
X26046993Y-10379491D01*
X18792521Y-12138170D02*
X18794891Y-12158723D01*
X18799015Y-12178923D01*
X18804811Y-12198671D01*
X18812198Y-12217867D01*
X18821095Y-12236416D01*
X18831420Y-12254217D01*
X18843092Y-12271172D01*
X18856030Y-12287185D01*
X18870153Y-12302155D01*
X18885378Y-12315986D01*
X18901626Y-12328578D01*
X18918813Y-12339833D01*
X18936860Y-12349654D01*
X18955684Y-12357942D01*
X18975205Y-12364599D01*
X18995341Y-12369526D01*
X23216467Y-12375793D02*
X23255887Y-12374164D01*
X23295174Y-12370714D01*
X23334255Y-12365469D01*
X23373055Y-12358457D01*
X23411499Y-12349704D01*
X23449512Y-12339237D01*
X23487020Y-12327083D01*
X23523948Y-12313271D01*
X23560221Y-12297826D01*
X23595764Y-12280776D01*
X23630504Y-12262148D01*
X23664364Y-12241968D01*
X23697270Y-12220265D01*
X23729148Y-12197065D01*
X23759923Y-12172395D01*
X23789521Y-12146283D01*
X19478258Y-11263546D02*
X19455481Y-11268780D01*
X19432875Y-11274650D01*
X19410451Y-11281147D01*
X19388223Y-11288262D01*
X19366204Y-11295985D01*
X19344407Y-11304305D01*
X19322845Y-11313214D01*
X19301532Y-11322700D01*
X19280481Y-11332755D01*
X19259705Y-11343368D01*
X19239217Y-11354530D01*
X19219031Y-11366230D01*
X19199159Y-11378459D01*
X19179615Y-11391208D01*
X19160411Y-11404465D01*
X19141562Y-11418222D01*
X19123080Y-11432468D01*
X19104979Y-11447194D01*
X19087271Y-11462390D01*
X19069970Y-11478046D01*
X19053089Y-11494152D01*
X19036641Y-11510698D01*
X19020640Y-11527675D01*
X19005098Y-11545072D01*
X18990030Y-11562881D01*
X18975447Y-11581090D01*
X18961363Y-11599690D01*
X18947792Y-11618671D01*
X18934746Y-11638024D01*
X18922239Y-11657739D01*
X18910284Y-11677805D01*
X18898894Y-11698213D01*
X24032905Y-3722335D02*
X24034128Y-3701010D01*
X24034933Y-3679673D01*
X24035323Y-3658332D01*
X24035303Y-3636991D01*
X24034875Y-3615658D01*
X24034042Y-3594338D01*
X24032808Y-3573039D01*
X24031176Y-3551767D01*
X24029148Y-3530529D01*
X24026728Y-3509330D01*
X24023920Y-3488177D01*
X24020725Y-3467077D01*
X24017149Y-3446036D01*
X24013193Y-3425060D01*
X24008860Y-3404157D01*
X24004155Y-3383332D01*
X23999080Y-3362591D01*
X23993639Y-3341942D01*
X23987834Y-3321391D01*
X23981668Y-3300944D01*
X23975146Y-3280608D01*
X23968269Y-3260389D01*
X23961042Y-3240293D01*
X23953467Y-3220328D01*
X23945548Y-3200498D01*
X23937287Y-3180812D01*
X23928688Y-3161275D01*
X23919755Y-3141894D01*
X23910489Y-3122675D01*
X23900895Y-3103624D01*
X23890976Y-3084749D01*
X23880734Y-3066055D01*
X24074051Y-7175421D02*
X24074039Y-7111766D01*
X24074031Y-7048111D01*
X24074027Y-6984456D01*
X24074026Y-6920801D01*
X24074029Y-6857145D01*
X24074034Y-6793490D01*
X24074041Y-6729834D01*
X24074049Y-6666179D01*
X24074059Y-6602523D01*
X24074069Y-6538867D01*
X24074079Y-6475212D01*
X24074088Y-6411556D01*
X24074096Y-6347900D01*
X24074103Y-6284245D01*
X24074108Y-6220589D01*
X24074110Y-6156934D01*
X24074109Y-6093278D01*
X24074105Y-6029622D01*
X24074096Y-5965967D01*
X24074084Y-5902312D01*
X24074066Y-5838656D01*
X24074042Y-5775001D01*
X24074013Y-5711346D01*
X24073977Y-5647691D01*
X24073934Y-5584036D01*
X24073883Y-5520381D01*
X24073824Y-5456726D01*
X24073757Y-5393072D01*
X24073681Y-5329417D01*
X24073595Y-5265763D01*
X24073499Y-5202109D01*
X24073393Y-5138455D01*
X18556537Y-12715193D02*
X18556537Y-12515193D01*
X18556537Y-12515193D02*
X18604156Y-12515193D01*
X18604156Y-12515193D02*
X18632728Y-12524717D01*
X18632728Y-12524717D02*
X18651775Y-12543764D01*
X18651775Y-12543764D02*
X18661299Y-12562812D01*
X18661299Y-12562812D02*
X18670823Y-12600907D01*
X18670823Y-12600907D02*
X18670823Y-12629479D01*
X18670823Y-12629479D02*
X18661299Y-12667574D01*
X18661299Y-12667574D02*
X18651775Y-12686621D01*
X18651775Y-12686621D02*
X18632728Y-12705669D01*
X18632728Y-12705669D02*
X18604156Y-12715193D01*
X18604156Y-12715193D02*
X18556537Y-12715193D01*
X18756537Y-12715193D02*
X18756537Y-12581859D01*
X18756537Y-12619955D02*
X18766061Y-12600907D01*
X18766061Y-12600907D02*
X18775585Y-12591383D01*
X18775585Y-12591383D02*
X18794632Y-12581859D01*
X18794632Y-12581859D02*
X18813680Y-12581859D01*
X18880347Y-12715193D02*
X18880347Y-12581859D01*
X18880347Y-12515193D02*
X18870823Y-12524717D01*
X18870823Y-12524717D02*
X18880347Y-12534240D01*
X18880347Y-12534240D02*
X18889870Y-12524717D01*
X18889870Y-12524717D02*
X18880347Y-12515193D01*
X18880347Y-12515193D02*
X18880347Y-12534240D01*
X19004156Y-12715193D02*
X18985108Y-12705669D01*
X18985108Y-12705669D02*
X18975585Y-12686621D01*
X18975585Y-12686621D02*
X18975585Y-12515193D01*
X19108918Y-12715193D02*
X19089870Y-12705669D01*
X19089870Y-12705669D02*
X19080347Y-12686621D01*
X19080347Y-12686621D02*
X19080347Y-12515193D01*
X19337489Y-12715193D02*
X19337489Y-12515193D01*
X19337489Y-12515193D02*
X19404156Y-12658050D01*
X19404156Y-12658050D02*
X19470823Y-12515193D01*
X19470823Y-12515193D02*
X19470823Y-12715193D01*
X19651775Y-12715193D02*
X19651775Y-12610431D01*
X19651775Y-12610431D02*
X19642251Y-12591383D01*
X19642251Y-12591383D02*
X19623204Y-12581859D01*
X19623204Y-12581859D02*
X19585108Y-12581859D01*
X19585108Y-12581859D02*
X19566061Y-12591383D01*
X19651775Y-12705669D02*
X19632728Y-12715193D01*
X19632728Y-12715193D02*
X19585108Y-12715193D01*
X19585108Y-12715193D02*
X19566061Y-12705669D01*
X19566061Y-12705669D02*
X19556537Y-12686621D01*
X19556537Y-12686621D02*
X19556537Y-12667574D01*
X19556537Y-12667574D02*
X19566061Y-12648526D01*
X19566061Y-12648526D02*
X19585108Y-12639002D01*
X19585108Y-12639002D02*
X19632728Y-12639002D01*
X19632728Y-12639002D02*
X19651775Y-12629479D01*
X19747013Y-12581859D02*
X19747013Y-12781859D01*
X19747013Y-12591383D02*
X19766061Y-12581859D01*
X19766061Y-12581859D02*
X19804156Y-12581859D01*
X19804156Y-12581859D02*
X19823204Y-12591383D01*
X19823204Y-12591383D02*
X19832728Y-12600907D01*
X19832728Y-12600907D02*
X19842251Y-12619955D01*
X19842251Y-12619955D02*
X19842251Y-12677098D01*
X19842251Y-12677098D02*
X19832728Y-12696145D01*
X19832728Y-12696145D02*
X19823204Y-12705669D01*
X19823204Y-12705669D02*
X19804156Y-12715193D01*
X19804156Y-12715193D02*
X19766061Y-12715193D01*
X19766061Y-12715193D02*
X19747013Y-12705669D01*
X19927966Y-12696145D02*
X19937489Y-12705669D01*
X19937489Y-12705669D02*
X19927966Y-12715193D01*
X19927966Y-12715193D02*
X19918442Y-12705669D01*
X19918442Y-12705669D02*
X19927966Y-12696145D01*
X19927966Y-12696145D02*
X19927966Y-12715193D01*
X19927966Y-12591383D02*
X19937489Y-12600907D01*
X19937489Y-12600907D02*
X19927966Y-12610431D01*
X19927966Y-12610431D02*
X19918442Y-12600907D01*
X19918442Y-12600907D02*
X19927966Y-12591383D01*
X19927966Y-12591383D02*
X19927966Y-12610431D01*
M02*
