G04 #@! TF.GenerationSoftware,KiCad,Pcbnew,7.0.2.1-36-g582732918d-dirty-deb11*
G04 #@! TF.CreationDate,2026-01-20T05:17:19+00:00*
G04 #@! TF.ProjectId,owlThief,6f776c54-6869-4656-962e-6b696361645f,rev?*
G04 #@! TF.SameCoordinates,Original*
G04 #@! TF.FileFunction,Soldermask,Bot*
G04 #@! TF.FilePolarity,Negative*
%FSLAX46Y46*%
G04 Gerber Fmt 4.6, Leading zero omitted, Abs format (unit mm)*
G04 Created by KiCad (PCBNEW 7.0.2.1-36-g582732918d-dirty-deb11) date 2026-01-20 05:17:19*
%MOMM*%
%LPD*%
G01*
G04 APERTURE LIST*
%ADD10C,0.000000*%
%ADD11C,0.300000*%
%ADD12C,0.200000*%
%ADD13C,0.150000*%
%ADD14C,0.010000*%
%ADD15R,1.524000X5.000000*%
%ADD16R,1.700000X3.300000*%
%ADD17R,0.700000X2.000000*%
%ADD18R,1.300000X3.150000*%
G04 APERTURE END LIST*
D10*
G36*
X196130000Y-92666667D02*
G01*
X195706667Y-92666667D01*
X195706667Y-92243334D01*
X196130000Y-92243334D01*
X196130000Y-92666667D01*
G37*
G36*
X202480000Y-85893334D02*
G01*
X199516666Y-85893334D01*
X199516666Y-83353334D01*
X199940000Y-83353334D01*
X199940000Y-85470001D01*
X202056666Y-85470001D01*
X202056666Y-83353334D01*
X199940000Y-83353334D01*
X199516666Y-83353334D01*
X199516666Y-82930001D01*
X202480000Y-82930001D01*
X202480000Y-85893334D01*
G37*
G36*
X194013334Y-90126667D02*
G01*
X193590000Y-90126667D01*
X193590000Y-89703334D01*
X194013334Y-89703334D01*
X194013334Y-90126667D01*
G37*
G36*
X194013334Y-85046668D02*
G01*
X192743334Y-85046668D01*
X192743334Y-83776668D01*
X194013334Y-83776668D01*
X194013334Y-85046668D01*
G37*
G36*
X199093333Y-85893334D02*
G01*
X198670000Y-85893334D01*
X198670000Y-84200001D01*
X198246666Y-84200001D01*
X198246666Y-83776667D01*
X198670000Y-83776667D01*
X198670000Y-83353334D01*
X199093333Y-83353334D01*
X199093333Y-85893334D01*
G37*
G36*
X196130000Y-87586667D02*
G01*
X195706666Y-87586667D01*
X195706666Y-87163334D01*
X196130000Y-87163334D01*
X196130000Y-87586667D01*
G37*
G36*
X194436667Y-89703334D02*
G01*
X194013334Y-89703334D01*
X194013334Y-89280000D01*
X194436667Y-89280000D01*
X194436667Y-89703334D01*
G37*
G36*
X194860000Y-93513334D02*
G01*
X191896667Y-93513334D01*
X191896667Y-90973334D01*
X192320000Y-90973334D01*
X192320000Y-93090000D01*
X194436667Y-93090000D01*
X194436667Y-90973334D01*
X192320000Y-90973334D01*
X191896667Y-90973334D01*
X191896667Y-90550000D01*
X194860000Y-90550000D01*
X194860000Y-93513334D01*
G37*
G36*
X202480000Y-86740000D02*
G01*
X202056666Y-86740000D01*
X202056666Y-86316667D01*
X202480000Y-86316667D01*
X202480000Y-86740000D01*
G37*
G36*
X201633333Y-85046668D02*
G01*
X200363333Y-85046668D01*
X200363333Y-83776668D01*
X201633333Y-83776668D01*
X201633333Y-85046668D01*
G37*
G36*
X196553333Y-85893334D02*
G01*
X196130000Y-85893334D01*
X196130000Y-85470001D01*
X196553333Y-85470001D01*
X196553333Y-85893334D01*
G37*
G36*
X199940000Y-90973334D02*
G01*
X199516666Y-90973334D01*
X199516666Y-90550000D01*
X199940000Y-90550000D01*
X199940000Y-90973334D01*
G37*
G36*
X196976666Y-83353334D02*
G01*
X197400000Y-83353334D01*
X197400000Y-83776667D01*
X196976666Y-83776667D01*
X196976666Y-84200001D01*
X197400000Y-84200001D01*
X197400000Y-83776668D01*
X197823333Y-83776668D01*
X197823333Y-84623334D01*
X197400000Y-84623334D01*
X197400000Y-85046668D01*
X196976666Y-85046668D01*
X196976666Y-85470001D01*
X196553333Y-85470001D01*
X196553333Y-85046667D01*
X196130000Y-85046667D01*
X196130000Y-84200001D01*
X196553333Y-84200001D01*
X196553333Y-83353334D01*
X195283333Y-83353334D01*
X195283333Y-82930001D01*
X196976666Y-82930001D01*
X196976666Y-83353334D01*
G37*
G36*
X192743333Y-86740000D02*
G01*
X193166667Y-86740000D01*
X193166667Y-86316667D01*
X194013333Y-86316667D01*
X194013333Y-86740000D01*
X193590000Y-86740000D01*
X193590000Y-88010000D01*
X196976666Y-88010000D01*
X196976666Y-88856667D01*
X196130000Y-88856667D01*
X196130000Y-88433334D01*
X193590000Y-88433334D01*
X193590000Y-89280000D01*
X193166667Y-89280000D01*
X193166667Y-90126667D01*
X192743333Y-90126667D01*
X192743333Y-89280000D01*
X192320000Y-89280000D01*
X192320000Y-90126667D01*
X191896667Y-90126667D01*
X191896667Y-88433334D01*
X192743333Y-88433334D01*
X192743333Y-89280000D01*
X193166667Y-89280000D01*
X193166667Y-88433334D01*
X192743333Y-88433334D01*
X191896667Y-88433334D01*
X191896667Y-88010000D01*
X192743333Y-88010000D01*
X192743333Y-87586667D01*
X193166667Y-87586667D01*
X193166667Y-87163334D01*
X192320000Y-87163334D01*
X192320000Y-87586667D01*
X191896667Y-87586667D01*
X191896667Y-86316667D01*
X192743333Y-86316667D01*
X192743333Y-86740000D01*
G37*
G36*
X202056666Y-91820000D02*
G01*
X202480000Y-91820000D01*
X202480000Y-93513334D01*
X202056666Y-93513334D01*
X202056666Y-93090000D01*
X201209999Y-93090000D01*
X201209999Y-93513334D01*
X200786666Y-93513334D01*
X200786666Y-93090000D01*
X199940000Y-93090000D01*
X199940000Y-92666667D01*
X200363333Y-92666667D01*
X200786666Y-92666667D01*
X200786666Y-93090000D01*
X201209999Y-93090000D01*
X201209999Y-92666667D01*
X200786666Y-92666667D01*
X200363333Y-92666667D01*
X200363333Y-92243334D01*
X201633333Y-92243334D01*
X201633333Y-91396667D01*
X202056666Y-91396667D01*
X202056666Y-91820000D01*
G37*
G36*
X194860000Y-85893334D02*
G01*
X191896667Y-85893334D01*
X191896667Y-83353334D01*
X192320000Y-83353334D01*
X192320000Y-85470001D01*
X194436667Y-85470001D01*
X194436667Y-83353334D01*
X192320000Y-83353334D01*
X191896667Y-83353334D01*
X191896667Y-82930001D01*
X194860000Y-82930001D01*
X194860000Y-85893334D01*
G37*
G36*
X196130000Y-84200001D02*
G01*
X195706666Y-84200001D01*
X195706666Y-83776667D01*
X196130000Y-83776667D01*
X196130000Y-84200001D01*
G37*
G36*
X202480000Y-91396667D02*
G01*
X202056666Y-91396667D01*
X202056666Y-90550000D01*
X202480000Y-90550000D01*
X202480000Y-91396667D01*
G37*
G36*
X195706666Y-92243334D02*
G01*
X195283334Y-92243334D01*
X195283334Y-91396667D01*
X195706666Y-91396667D01*
X195706666Y-92243334D01*
G37*
G36*
X194013334Y-92666667D02*
G01*
X192743334Y-92666667D01*
X192743334Y-91396667D01*
X194013334Y-91396667D01*
X194013334Y-92666667D01*
G37*
G36*
X198246666Y-85893334D02*
G01*
X197823333Y-85893334D01*
X197823333Y-86316667D01*
X197400000Y-86316667D01*
X197400000Y-86740000D01*
X198246666Y-86740000D01*
X198246666Y-85893334D01*
X198670000Y-85893334D01*
X198670000Y-87163334D01*
X199093333Y-87163334D01*
X199093333Y-88433334D01*
X199516666Y-88433334D01*
X199516666Y-88856667D01*
X199940000Y-88856667D01*
X199940000Y-89280000D01*
X199516666Y-89280000D01*
X199516666Y-89703334D01*
X199940000Y-89703334D01*
X199940000Y-89280000D01*
X200363333Y-89280000D01*
X200363333Y-89703334D01*
X200786666Y-89703334D01*
X200786666Y-89280000D01*
X201633333Y-89280000D01*
X201633333Y-89703334D01*
X202056666Y-89703334D01*
X202056666Y-89280000D01*
X201633333Y-89280000D01*
X200786666Y-89280000D01*
X200363333Y-89280000D01*
X200363333Y-88433334D01*
X200786666Y-88433334D01*
X200786666Y-88856667D01*
X201633333Y-88856667D01*
X201633333Y-88433334D01*
X202056666Y-88433334D01*
X202056666Y-88010000D01*
X200786666Y-88010000D01*
X200786666Y-87163334D01*
X200363333Y-87163334D01*
X200363333Y-88010000D01*
X199940000Y-88010000D01*
X199940000Y-87586667D01*
X199516666Y-87586667D01*
X199516666Y-87163334D01*
X199093333Y-87163334D01*
X199093333Y-86740000D01*
X199516666Y-86740000D01*
X199516666Y-86316667D01*
X199940000Y-86316667D01*
X199940000Y-86740000D01*
X199516666Y-86740000D01*
X199516666Y-87163334D01*
X199940000Y-87163334D01*
X199940000Y-86740000D01*
X202056666Y-86740000D01*
X202056666Y-87163334D01*
X201209999Y-87163334D01*
X201209999Y-87586667D01*
X202056666Y-87586667D01*
X202056666Y-87163334D01*
X202480000Y-87163334D01*
X202480000Y-88433334D01*
X202056666Y-88433334D01*
X202056666Y-88856667D01*
X202480000Y-88856667D01*
X202480000Y-89703334D01*
X202056666Y-89703334D01*
X202056666Y-90550000D01*
X201209999Y-90550000D01*
X201209999Y-89703334D01*
X200786666Y-89703334D01*
X200786666Y-91820000D01*
X199940000Y-91820000D01*
X199940000Y-92243334D01*
X199516666Y-92243334D01*
X199516666Y-92666667D01*
X198246666Y-92666667D01*
X198246666Y-93090000D01*
X197823333Y-93090000D01*
X197823333Y-92666667D01*
X197400000Y-92666667D01*
X197400000Y-93513334D01*
X196976666Y-93513334D01*
X196976666Y-92666667D01*
X196553333Y-92666667D01*
X196553333Y-92243334D01*
X196130000Y-92243334D01*
X196130000Y-91820000D01*
X196553333Y-91820000D01*
X196553333Y-91396667D01*
X195706667Y-91396667D01*
X195706667Y-90973334D01*
X196553333Y-90973334D01*
X196553333Y-91396667D01*
X196976666Y-91396667D01*
X196976666Y-90973334D01*
X196553333Y-90973334D01*
X195706667Y-90973334D01*
X195706667Y-90550000D01*
X196130000Y-90550000D01*
X196130000Y-90126667D01*
X195706666Y-90126667D01*
X195706666Y-90550000D01*
X195283334Y-90550000D01*
X195283334Y-90126667D01*
X194436667Y-90126667D01*
X194436667Y-89703334D01*
X194860000Y-89703334D01*
X194860000Y-89280000D01*
X194436667Y-89280000D01*
X194436667Y-88856667D01*
X195706667Y-88856667D01*
X195706667Y-89703334D01*
X196130000Y-89703334D01*
X196130000Y-89280000D01*
X196553334Y-89280000D01*
X196553334Y-89703334D01*
X196976667Y-89703334D01*
X196976667Y-90126667D01*
X196553334Y-90126667D01*
X196553334Y-90550000D01*
X196976667Y-90550000D01*
X196976667Y-90973334D01*
X197400000Y-90973334D01*
X197400000Y-90550000D01*
X197823333Y-90550000D01*
X197823333Y-91396667D01*
X197400000Y-91396667D01*
X197400000Y-91820000D01*
X196976666Y-91820000D01*
X196976666Y-92666667D01*
X197400000Y-92666667D01*
X197400000Y-92243334D01*
X197823333Y-92243334D01*
X197823333Y-92666667D01*
X198246666Y-92666667D01*
X198246666Y-92243334D01*
X197823333Y-92243334D01*
X197400000Y-92243334D01*
X197400000Y-91820000D01*
X198246666Y-91820000D01*
X198246666Y-92243334D01*
X198670000Y-92243334D01*
X198670000Y-91820000D01*
X199093333Y-91820000D01*
X199093333Y-92243334D01*
X199516666Y-92243334D01*
X199516666Y-91820000D01*
X199093333Y-91820000D01*
X198670000Y-91820000D01*
X198246666Y-91820000D01*
X198246666Y-90973334D01*
X198670000Y-90973334D01*
X198670000Y-90126667D01*
X199093333Y-90126667D01*
X199093333Y-91396667D01*
X200363333Y-91396667D01*
X200363333Y-90126667D01*
X199093333Y-90126667D01*
X198670000Y-90126667D01*
X198246666Y-90126667D01*
X198246666Y-89703334D01*
X198670000Y-89703334D01*
X198670000Y-89280000D01*
X199093333Y-89280000D01*
X199093333Y-88856667D01*
X198670000Y-88856667D01*
X198670000Y-89280000D01*
X198246666Y-89280000D01*
X198246666Y-89703334D01*
X197823333Y-89703334D01*
X197823333Y-89280000D01*
X196976666Y-89280000D01*
X196976666Y-88856667D01*
X197400000Y-88856667D01*
X197400000Y-88433334D01*
X198246666Y-88433334D01*
X198246666Y-87163334D01*
X197823333Y-87163334D01*
X197823333Y-87586667D01*
X197400000Y-87586667D01*
X197400000Y-87163334D01*
X196976666Y-87163334D01*
X196976666Y-87586667D01*
X196553333Y-87586667D01*
X196553333Y-87163334D01*
X196130000Y-87163334D01*
X196130000Y-86740000D01*
X196553333Y-86740000D01*
X196553333Y-85893334D01*
X196976666Y-85893334D01*
X196976666Y-86316667D01*
X197400000Y-86316667D01*
X197400000Y-85893334D01*
X196976666Y-85893334D01*
X196976666Y-85470001D01*
X197400000Y-85470001D01*
X197400000Y-85893334D01*
X197823333Y-85893334D01*
X197823333Y-85046667D01*
X198246666Y-85046667D01*
X198246666Y-85893334D01*
G37*
G36*
X199940000Y-88433334D02*
G01*
X199516666Y-88433334D01*
X199516666Y-88010000D01*
X199940000Y-88010000D01*
X199940000Y-88433334D01*
G37*
G36*
X198246666Y-83353334D02*
G01*
X197400000Y-83353334D01*
X197400000Y-82930001D01*
X198246666Y-82930001D01*
X198246666Y-83353334D01*
G37*
G36*
X196130000Y-85470001D02*
G01*
X195706666Y-85470001D01*
X195706666Y-85046667D01*
X196130000Y-85046667D01*
X196130000Y-85470001D01*
G37*
G36*
X199516666Y-93513334D02*
G01*
X198670000Y-93513334D01*
X198670000Y-93090000D01*
X199516666Y-93090000D01*
X199516666Y-93513334D01*
G37*
G36*
X197400000Y-88010000D02*
G01*
X196976666Y-88010000D01*
X196976666Y-87586667D01*
X197400000Y-87586667D01*
X197400000Y-88010000D01*
G37*
G36*
X195706666Y-85893334D02*
G01*
X196130000Y-85893334D01*
X196130000Y-86740000D01*
X195706666Y-86740000D01*
X195706666Y-86316667D01*
X195283333Y-86316667D01*
X195283333Y-85470001D01*
X195706666Y-85470001D01*
X195706666Y-85893334D01*
G37*
G36*
X194860000Y-86740000D02*
G01*
X194436667Y-86740000D01*
X194436667Y-87163334D01*
X194860000Y-87163334D01*
X194860000Y-86740000D01*
X195706666Y-86740000D01*
X195706666Y-87163334D01*
X195283333Y-87163334D01*
X195283333Y-87586667D01*
X194013333Y-87586667D01*
X194013333Y-86740000D01*
X194436667Y-86740000D01*
X194436667Y-86316667D01*
X194860000Y-86316667D01*
X194860000Y-86740000D01*
G37*
G36*
X195706666Y-93513334D02*
G01*
X195283333Y-93513334D01*
X195283334Y-93090000D01*
X195283334Y-92666667D01*
X195706666Y-92666667D01*
X195706666Y-93513334D01*
G37*
G36*
X197823333Y-90126667D02*
G01*
X197400000Y-90126667D01*
X197400000Y-89703334D01*
X197823333Y-89703334D01*
X197823333Y-90126667D01*
G37*
D11*
X219917142Y-44796428D02*
X219631428Y-44796428D01*
X219631428Y-44796428D02*
X219488571Y-44867857D01*
X219488571Y-44867857D02*
X219345714Y-45010714D01*
X219345714Y-45010714D02*
X219274285Y-45296428D01*
X219274285Y-45296428D02*
X219274285Y-45796428D01*
X219274285Y-45796428D02*
X219345714Y-46082142D01*
X219345714Y-46082142D02*
X219488571Y-46225000D01*
X219488571Y-46225000D02*
X219631428Y-46296428D01*
X219631428Y-46296428D02*
X219917142Y-46296428D01*
X219917142Y-46296428D02*
X220060000Y-46225000D01*
X220060000Y-46225000D02*
X220202857Y-46082142D01*
X220202857Y-46082142D02*
X220274285Y-45796428D01*
X220274285Y-45796428D02*
X220274285Y-45296428D01*
X220274285Y-45296428D02*
X220202857Y-45010714D01*
X220202857Y-45010714D02*
X220060000Y-44867857D01*
X220060000Y-44867857D02*
X219917142Y-44796428D01*
X218774285Y-45296428D02*
X218488571Y-46296428D01*
X218488571Y-46296428D02*
X218202856Y-45582142D01*
X218202856Y-45582142D02*
X217917142Y-46296428D01*
X217917142Y-46296428D02*
X217631428Y-45296428D01*
X216845713Y-46296428D02*
X216988570Y-46225000D01*
X216988570Y-46225000D02*
X217059999Y-46082142D01*
X217059999Y-46082142D02*
X217059999Y-44796428D01*
X215345713Y-44796428D02*
X214488571Y-44796428D01*
X214917142Y-46296428D02*
X214917142Y-44796428D01*
X213988571Y-46296428D02*
X213988571Y-44796428D01*
X213345714Y-46296428D02*
X213345714Y-45510714D01*
X213345714Y-45510714D02*
X213417142Y-45367857D01*
X213417142Y-45367857D02*
X213559999Y-45296428D01*
X213559999Y-45296428D02*
X213774285Y-45296428D01*
X213774285Y-45296428D02*
X213917142Y-45367857D01*
X213917142Y-45367857D02*
X213988571Y-45439285D01*
X212631428Y-46296428D02*
X212631428Y-45296428D01*
X212631428Y-44796428D02*
X212702856Y-44867857D01*
X212702856Y-44867857D02*
X212631428Y-44939285D01*
X212631428Y-44939285D02*
X212559999Y-44867857D01*
X212559999Y-44867857D02*
X212631428Y-44796428D01*
X212631428Y-44796428D02*
X212631428Y-44939285D01*
X211345713Y-46225000D02*
X211488570Y-46296428D01*
X211488570Y-46296428D02*
X211774285Y-46296428D01*
X211774285Y-46296428D02*
X211917142Y-46225000D01*
X211917142Y-46225000D02*
X211988570Y-46082142D01*
X211988570Y-46082142D02*
X211988570Y-45510714D01*
X211988570Y-45510714D02*
X211917142Y-45367857D01*
X211917142Y-45367857D02*
X211774285Y-45296428D01*
X211774285Y-45296428D02*
X211488570Y-45296428D01*
X211488570Y-45296428D02*
X211345713Y-45367857D01*
X211345713Y-45367857D02*
X211274285Y-45510714D01*
X211274285Y-45510714D02*
X211274285Y-45653571D01*
X211274285Y-45653571D02*
X211988570Y-45796428D01*
X210845713Y-45296428D02*
X210274285Y-45296428D01*
X210631428Y-46296428D02*
X210631428Y-45010714D01*
X210631428Y-45010714D02*
X210559999Y-44867857D01*
X210559999Y-44867857D02*
X210417142Y-44796428D01*
X210417142Y-44796428D02*
X210274285Y-44796428D01*
X220274285Y-47369285D02*
X220202857Y-47297857D01*
X220202857Y-47297857D02*
X220060000Y-47226428D01*
X220060000Y-47226428D02*
X219702857Y-47226428D01*
X219702857Y-47226428D02*
X219560000Y-47297857D01*
X219560000Y-47297857D02*
X219488571Y-47369285D01*
X219488571Y-47369285D02*
X219417142Y-47512142D01*
X219417142Y-47512142D02*
X219417142Y-47655000D01*
X219417142Y-47655000D02*
X219488571Y-47869285D01*
X219488571Y-47869285D02*
X220345714Y-48726428D01*
X220345714Y-48726428D02*
X219417142Y-48726428D01*
X218488571Y-47226428D02*
X218345714Y-47226428D01*
X218345714Y-47226428D02*
X218202857Y-47297857D01*
X218202857Y-47297857D02*
X218131429Y-47369285D01*
X218131429Y-47369285D02*
X218060000Y-47512142D01*
X218060000Y-47512142D02*
X217988571Y-47797857D01*
X217988571Y-47797857D02*
X217988571Y-48155000D01*
X217988571Y-48155000D02*
X218060000Y-48440714D01*
X218060000Y-48440714D02*
X218131429Y-48583571D01*
X218131429Y-48583571D02*
X218202857Y-48655000D01*
X218202857Y-48655000D02*
X218345714Y-48726428D01*
X218345714Y-48726428D02*
X218488571Y-48726428D01*
X218488571Y-48726428D02*
X218631429Y-48655000D01*
X218631429Y-48655000D02*
X218702857Y-48583571D01*
X218702857Y-48583571D02*
X218774286Y-48440714D01*
X218774286Y-48440714D02*
X218845714Y-48155000D01*
X218845714Y-48155000D02*
X218845714Y-47797857D01*
X218845714Y-47797857D02*
X218774286Y-47512142D01*
X218774286Y-47512142D02*
X218702857Y-47369285D01*
X218702857Y-47369285D02*
X218631429Y-47297857D01*
X218631429Y-47297857D02*
X218488571Y-47226428D01*
X217417143Y-47369285D02*
X217345715Y-47297857D01*
X217345715Y-47297857D02*
X217202858Y-47226428D01*
X217202858Y-47226428D02*
X216845715Y-47226428D01*
X216845715Y-47226428D02*
X216702858Y-47297857D01*
X216702858Y-47297857D02*
X216631429Y-47369285D01*
X216631429Y-47369285D02*
X216560000Y-47512142D01*
X216560000Y-47512142D02*
X216560000Y-47655000D01*
X216560000Y-47655000D02*
X216631429Y-47869285D01*
X216631429Y-47869285D02*
X217488572Y-48726428D01*
X217488572Y-48726428D02*
X216560000Y-48726428D01*
X215274287Y-47726428D02*
X215274287Y-48726428D01*
X215631429Y-47155000D02*
X215988572Y-48226428D01*
X215988572Y-48226428D02*
X215060001Y-48226428D01*
X214488573Y-48155000D02*
X213345716Y-48155000D01*
X212345715Y-47226428D02*
X212202858Y-47226428D01*
X212202858Y-47226428D02*
X212060001Y-47297857D01*
X212060001Y-47297857D02*
X211988573Y-47369285D01*
X211988573Y-47369285D02*
X211917144Y-47512142D01*
X211917144Y-47512142D02*
X211845715Y-47797857D01*
X211845715Y-47797857D02*
X211845715Y-48155000D01*
X211845715Y-48155000D02*
X211917144Y-48440714D01*
X211917144Y-48440714D02*
X211988573Y-48583571D01*
X211988573Y-48583571D02*
X212060001Y-48655000D01*
X212060001Y-48655000D02*
X212202858Y-48726428D01*
X212202858Y-48726428D02*
X212345715Y-48726428D01*
X212345715Y-48726428D02*
X212488573Y-48655000D01*
X212488573Y-48655000D02*
X212560001Y-48583571D01*
X212560001Y-48583571D02*
X212631430Y-48440714D01*
X212631430Y-48440714D02*
X212702858Y-48155000D01*
X212702858Y-48155000D02*
X212702858Y-47797857D01*
X212702858Y-47797857D02*
X212631430Y-47512142D01*
X212631430Y-47512142D02*
X212560001Y-47369285D01*
X212560001Y-47369285D02*
X212488573Y-47297857D01*
X212488573Y-47297857D02*
X212345715Y-47226428D01*
X210417144Y-48726428D02*
X211274287Y-48726428D01*
X210845716Y-48726428D02*
X210845716Y-47226428D01*
X210845716Y-47226428D02*
X210988573Y-47440714D01*
X210988573Y-47440714D02*
X211131430Y-47583571D01*
X211131430Y-47583571D02*
X211274287Y-47655000D01*
X209774288Y-48155000D02*
X208631431Y-48155000D01*
X207988573Y-47369285D02*
X207917145Y-47297857D01*
X207917145Y-47297857D02*
X207774288Y-47226428D01*
X207774288Y-47226428D02*
X207417145Y-47226428D01*
X207417145Y-47226428D02*
X207274288Y-47297857D01*
X207274288Y-47297857D02*
X207202859Y-47369285D01*
X207202859Y-47369285D02*
X207131430Y-47512142D01*
X207131430Y-47512142D02*
X207131430Y-47655000D01*
X207131430Y-47655000D02*
X207202859Y-47869285D01*
X207202859Y-47869285D02*
X208060002Y-48726428D01*
X208060002Y-48726428D02*
X207131430Y-48726428D01*
X205845717Y-47226428D02*
X206131431Y-47226428D01*
X206131431Y-47226428D02*
X206274288Y-47297857D01*
X206274288Y-47297857D02*
X206345717Y-47369285D01*
X206345717Y-47369285D02*
X206488574Y-47583571D01*
X206488574Y-47583571D02*
X206560002Y-47869285D01*
X206560002Y-47869285D02*
X206560002Y-48440714D01*
X206560002Y-48440714D02*
X206488574Y-48583571D01*
X206488574Y-48583571D02*
X206417145Y-48655000D01*
X206417145Y-48655000D02*
X206274288Y-48726428D01*
X206274288Y-48726428D02*
X205988574Y-48726428D01*
X205988574Y-48726428D02*
X205845717Y-48655000D01*
X205845717Y-48655000D02*
X205774288Y-48583571D01*
X205774288Y-48583571D02*
X205702859Y-48440714D01*
X205702859Y-48440714D02*
X205702859Y-48083571D01*
X205702859Y-48083571D02*
X205774288Y-47940714D01*
X205774288Y-47940714D02*
X205845717Y-47869285D01*
X205845717Y-47869285D02*
X205988574Y-47797857D01*
X205988574Y-47797857D02*
X206274288Y-47797857D01*
X206274288Y-47797857D02*
X206417145Y-47869285D01*
X206417145Y-47869285D02*
X206488574Y-47940714D01*
X206488574Y-47940714D02*
X206560002Y-48083571D01*
X219345714Y-53443571D02*
X219417142Y-53515000D01*
X219417142Y-53515000D02*
X219631428Y-53586428D01*
X219631428Y-53586428D02*
X219774285Y-53586428D01*
X219774285Y-53586428D02*
X219988571Y-53515000D01*
X219988571Y-53515000D02*
X220131428Y-53372142D01*
X220131428Y-53372142D02*
X220202857Y-53229285D01*
X220202857Y-53229285D02*
X220274285Y-52943571D01*
X220274285Y-52943571D02*
X220274285Y-52729285D01*
X220274285Y-52729285D02*
X220202857Y-52443571D01*
X220202857Y-52443571D02*
X220131428Y-52300714D01*
X220131428Y-52300714D02*
X219988571Y-52157857D01*
X219988571Y-52157857D02*
X219774285Y-52086428D01*
X219774285Y-52086428D02*
X219631428Y-52086428D01*
X219631428Y-52086428D02*
X219417142Y-52157857D01*
X219417142Y-52157857D02*
X219345714Y-52229285D01*
X217845714Y-53443571D02*
X217917142Y-53515000D01*
X217917142Y-53515000D02*
X218131428Y-53586428D01*
X218131428Y-53586428D02*
X218274285Y-53586428D01*
X218274285Y-53586428D02*
X218488571Y-53515000D01*
X218488571Y-53515000D02*
X218631428Y-53372142D01*
X218631428Y-53372142D02*
X218702857Y-53229285D01*
X218702857Y-53229285D02*
X218774285Y-52943571D01*
X218774285Y-52943571D02*
X218774285Y-52729285D01*
X218774285Y-52729285D02*
X218702857Y-52443571D01*
X218702857Y-52443571D02*
X218631428Y-52300714D01*
X218631428Y-52300714D02*
X218488571Y-52157857D01*
X218488571Y-52157857D02*
X218274285Y-52086428D01*
X218274285Y-52086428D02*
X218131428Y-52086428D01*
X218131428Y-52086428D02*
X217917142Y-52157857D01*
X217917142Y-52157857D02*
X217845714Y-52229285D01*
X217202857Y-53015000D02*
X216060000Y-53015000D01*
X214845714Y-52800714D02*
X214631428Y-52872142D01*
X214631428Y-52872142D02*
X214559999Y-52943571D01*
X214559999Y-52943571D02*
X214488571Y-53086428D01*
X214488571Y-53086428D02*
X214488571Y-53300714D01*
X214488571Y-53300714D02*
X214559999Y-53443571D01*
X214559999Y-53443571D02*
X214631428Y-53515000D01*
X214631428Y-53515000D02*
X214774285Y-53586428D01*
X214774285Y-53586428D02*
X215345714Y-53586428D01*
X215345714Y-53586428D02*
X215345714Y-52086428D01*
X215345714Y-52086428D02*
X214845714Y-52086428D01*
X214845714Y-52086428D02*
X214702857Y-52157857D01*
X214702857Y-52157857D02*
X214631428Y-52229285D01*
X214631428Y-52229285D02*
X214559999Y-52372142D01*
X214559999Y-52372142D02*
X214559999Y-52515000D01*
X214559999Y-52515000D02*
X214631428Y-52657857D01*
X214631428Y-52657857D02*
X214702857Y-52729285D01*
X214702857Y-52729285D02*
X214845714Y-52800714D01*
X214845714Y-52800714D02*
X215345714Y-52800714D01*
X213559999Y-52872142D02*
X213559999Y-53586428D01*
X214059999Y-52086428D02*
X213559999Y-52872142D01*
X213559999Y-52872142D02*
X213059999Y-52086428D01*
X212560000Y-53015000D02*
X211417143Y-53015000D01*
X210774285Y-53515000D02*
X210560000Y-53586428D01*
X210560000Y-53586428D02*
X210202857Y-53586428D01*
X210202857Y-53586428D02*
X210060000Y-53515000D01*
X210060000Y-53515000D02*
X209988571Y-53443571D01*
X209988571Y-53443571D02*
X209917142Y-53300714D01*
X209917142Y-53300714D02*
X209917142Y-53157857D01*
X209917142Y-53157857D02*
X209988571Y-53015000D01*
X209988571Y-53015000D02*
X210060000Y-52943571D01*
X210060000Y-52943571D02*
X210202857Y-52872142D01*
X210202857Y-52872142D02*
X210488571Y-52800714D01*
X210488571Y-52800714D02*
X210631428Y-52729285D01*
X210631428Y-52729285D02*
X210702857Y-52657857D01*
X210702857Y-52657857D02*
X210774285Y-52515000D01*
X210774285Y-52515000D02*
X210774285Y-52372142D01*
X210774285Y-52372142D02*
X210702857Y-52229285D01*
X210702857Y-52229285D02*
X210631428Y-52157857D01*
X210631428Y-52157857D02*
X210488571Y-52086428D01*
X210488571Y-52086428D02*
X210131428Y-52086428D01*
X210131428Y-52086428D02*
X209917142Y-52157857D01*
X209345714Y-53157857D02*
X208631429Y-53157857D01*
X209488571Y-53586428D02*
X208988571Y-52086428D01*
X208988571Y-52086428D02*
X208488571Y-53586428D01*
X206202858Y-52586428D02*
X206202858Y-53586428D01*
X206560000Y-52015000D02*
X206917143Y-53086428D01*
X206917143Y-53086428D02*
X205988572Y-53086428D01*
X205417144Y-53443571D02*
X205345715Y-53515000D01*
X205345715Y-53515000D02*
X205417144Y-53586428D01*
X205417144Y-53586428D02*
X205488572Y-53515000D01*
X205488572Y-53515000D02*
X205417144Y-53443571D01*
X205417144Y-53443571D02*
X205417144Y-53586428D01*
X204417143Y-52086428D02*
X204274286Y-52086428D01*
X204274286Y-52086428D02*
X204131429Y-52157857D01*
X204131429Y-52157857D02*
X204060001Y-52229285D01*
X204060001Y-52229285D02*
X203988572Y-52372142D01*
X203988572Y-52372142D02*
X203917143Y-52657857D01*
X203917143Y-52657857D02*
X203917143Y-53015000D01*
X203917143Y-53015000D02*
X203988572Y-53300714D01*
X203988572Y-53300714D02*
X204060001Y-53443571D01*
X204060001Y-53443571D02*
X204131429Y-53515000D01*
X204131429Y-53515000D02*
X204274286Y-53586428D01*
X204274286Y-53586428D02*
X204417143Y-53586428D01*
X204417143Y-53586428D02*
X204560001Y-53515000D01*
X204560001Y-53515000D02*
X204631429Y-53443571D01*
X204631429Y-53443571D02*
X204702858Y-53300714D01*
X204702858Y-53300714D02*
X204774286Y-53015000D01*
X204774286Y-53015000D02*
X204774286Y-52657857D01*
X204774286Y-52657857D02*
X204702858Y-52372142D01*
X204702858Y-52372142D02*
X204631429Y-52229285D01*
X204631429Y-52229285D02*
X204560001Y-52157857D01*
X204560001Y-52157857D02*
X204417143Y-52086428D01*
X219917142Y-56946428D02*
X219631428Y-56946428D01*
X219631428Y-56946428D02*
X219488571Y-57017857D01*
X219488571Y-57017857D02*
X219345714Y-57160714D01*
X219345714Y-57160714D02*
X219274285Y-57446428D01*
X219274285Y-57446428D02*
X219274285Y-57946428D01*
X219274285Y-57946428D02*
X219345714Y-58232142D01*
X219345714Y-58232142D02*
X219488571Y-58375000D01*
X219488571Y-58375000D02*
X219631428Y-58446428D01*
X219631428Y-58446428D02*
X219917142Y-58446428D01*
X219917142Y-58446428D02*
X220060000Y-58375000D01*
X220060000Y-58375000D02*
X220202857Y-58232142D01*
X220202857Y-58232142D02*
X220274285Y-57946428D01*
X220274285Y-57946428D02*
X220274285Y-57446428D01*
X220274285Y-57446428D02*
X220202857Y-57160714D01*
X220202857Y-57160714D02*
X220060000Y-57017857D01*
X220060000Y-57017857D02*
X219917142Y-56946428D01*
X218631428Y-58446428D02*
X218631428Y-57446428D01*
X218631428Y-57732142D02*
X218559999Y-57589285D01*
X218559999Y-57589285D02*
X218488571Y-57517857D01*
X218488571Y-57517857D02*
X218345713Y-57446428D01*
X218345713Y-57446428D02*
X218202856Y-57446428D01*
X217702857Y-58446428D02*
X217702857Y-57446428D01*
X217702857Y-56946428D02*
X217774285Y-57017857D01*
X217774285Y-57017857D02*
X217702857Y-57089285D01*
X217702857Y-57089285D02*
X217631428Y-57017857D01*
X217631428Y-57017857D02*
X217702857Y-56946428D01*
X217702857Y-56946428D02*
X217702857Y-57089285D01*
X216345714Y-57446428D02*
X216345714Y-58660714D01*
X216345714Y-58660714D02*
X216417142Y-58803571D01*
X216417142Y-58803571D02*
X216488571Y-58875000D01*
X216488571Y-58875000D02*
X216631428Y-58946428D01*
X216631428Y-58946428D02*
X216845714Y-58946428D01*
X216845714Y-58946428D02*
X216988571Y-58875000D01*
X216345714Y-58375000D02*
X216488571Y-58446428D01*
X216488571Y-58446428D02*
X216774285Y-58446428D01*
X216774285Y-58446428D02*
X216917142Y-58375000D01*
X216917142Y-58375000D02*
X216988571Y-58303571D01*
X216988571Y-58303571D02*
X217059999Y-58160714D01*
X217059999Y-58160714D02*
X217059999Y-57732142D01*
X217059999Y-57732142D02*
X216988571Y-57589285D01*
X216988571Y-57589285D02*
X216917142Y-57517857D01*
X216917142Y-57517857D02*
X216774285Y-57446428D01*
X216774285Y-57446428D02*
X216488571Y-57446428D01*
X216488571Y-57446428D02*
X216345714Y-57517857D01*
X215631428Y-58446428D02*
X215631428Y-57446428D01*
X215631428Y-56946428D02*
X215702856Y-57017857D01*
X215702856Y-57017857D02*
X215631428Y-57089285D01*
X215631428Y-57089285D02*
X215559999Y-57017857D01*
X215559999Y-57017857D02*
X215631428Y-56946428D01*
X215631428Y-56946428D02*
X215631428Y-57089285D01*
X214917142Y-57446428D02*
X214917142Y-58446428D01*
X214917142Y-57589285D02*
X214845713Y-57517857D01*
X214845713Y-57517857D02*
X214702856Y-57446428D01*
X214702856Y-57446428D02*
X214488570Y-57446428D01*
X214488570Y-57446428D02*
X214345713Y-57517857D01*
X214345713Y-57517857D02*
X214274285Y-57660714D01*
X214274285Y-57660714D02*
X214274285Y-58446428D01*
X212917142Y-58446428D02*
X212917142Y-57660714D01*
X212917142Y-57660714D02*
X212988570Y-57517857D01*
X212988570Y-57517857D02*
X213131427Y-57446428D01*
X213131427Y-57446428D02*
X213417142Y-57446428D01*
X213417142Y-57446428D02*
X213559999Y-57517857D01*
X212917142Y-58375000D02*
X213059999Y-58446428D01*
X213059999Y-58446428D02*
X213417142Y-58446428D01*
X213417142Y-58446428D02*
X213559999Y-58375000D01*
X213559999Y-58375000D02*
X213631427Y-58232142D01*
X213631427Y-58232142D02*
X213631427Y-58089285D01*
X213631427Y-58089285D02*
X213559999Y-57946428D01*
X213559999Y-57946428D02*
X213417142Y-57875000D01*
X213417142Y-57875000D02*
X213059999Y-57875000D01*
X213059999Y-57875000D02*
X212917142Y-57803571D01*
X211988570Y-58446428D02*
X212131427Y-58375000D01*
X212131427Y-58375000D02*
X212202856Y-58232142D01*
X212202856Y-58232142D02*
X212202856Y-56946428D01*
X209631428Y-58446428D02*
X209631428Y-57660714D01*
X209631428Y-57660714D02*
X209702856Y-57517857D01*
X209702856Y-57517857D02*
X209845713Y-57446428D01*
X209845713Y-57446428D02*
X210131428Y-57446428D01*
X210131428Y-57446428D02*
X210274285Y-57517857D01*
X209631428Y-58375000D02*
X209774285Y-58446428D01*
X209774285Y-58446428D02*
X210131428Y-58446428D01*
X210131428Y-58446428D02*
X210274285Y-58375000D01*
X210274285Y-58375000D02*
X210345713Y-58232142D01*
X210345713Y-58232142D02*
X210345713Y-58089285D01*
X210345713Y-58089285D02*
X210274285Y-57946428D01*
X210274285Y-57946428D02*
X210131428Y-57875000D01*
X210131428Y-57875000D02*
X209774285Y-57875000D01*
X209774285Y-57875000D02*
X209631428Y-57803571D01*
X208274285Y-57446428D02*
X208274285Y-58446428D01*
X208917142Y-57446428D02*
X208917142Y-58232142D01*
X208917142Y-58232142D02*
X208845713Y-58375000D01*
X208845713Y-58375000D02*
X208702856Y-58446428D01*
X208702856Y-58446428D02*
X208488570Y-58446428D01*
X208488570Y-58446428D02*
X208345713Y-58375000D01*
X208345713Y-58375000D02*
X208274285Y-58303571D01*
X207774284Y-57446428D02*
X207202856Y-57446428D01*
X207559999Y-56946428D02*
X207559999Y-58232142D01*
X207559999Y-58232142D02*
X207488570Y-58375000D01*
X207488570Y-58375000D02*
X207345713Y-58446428D01*
X207345713Y-58446428D02*
X207202856Y-58446428D01*
X206702856Y-58446428D02*
X206702856Y-56946428D01*
X206059999Y-58446428D02*
X206059999Y-57660714D01*
X206059999Y-57660714D02*
X206131427Y-57517857D01*
X206131427Y-57517857D02*
X206274284Y-57446428D01*
X206274284Y-57446428D02*
X206488570Y-57446428D01*
X206488570Y-57446428D02*
X206631427Y-57517857D01*
X206631427Y-57517857D02*
X206702856Y-57589285D01*
X205131427Y-58446428D02*
X205274284Y-58375000D01*
X205274284Y-58375000D02*
X205345713Y-58303571D01*
X205345713Y-58303571D02*
X205417141Y-58160714D01*
X205417141Y-58160714D02*
X205417141Y-57732142D01*
X205417141Y-57732142D02*
X205345713Y-57589285D01*
X205345713Y-57589285D02*
X205274284Y-57517857D01*
X205274284Y-57517857D02*
X205131427Y-57446428D01*
X205131427Y-57446428D02*
X204917141Y-57446428D01*
X204917141Y-57446428D02*
X204774284Y-57517857D01*
X204774284Y-57517857D02*
X204702856Y-57589285D01*
X204702856Y-57589285D02*
X204631427Y-57732142D01*
X204631427Y-57732142D02*
X204631427Y-58160714D01*
X204631427Y-58160714D02*
X204702856Y-58303571D01*
X204702856Y-58303571D02*
X204774284Y-58375000D01*
X204774284Y-58375000D02*
X204917141Y-58446428D01*
X204917141Y-58446428D02*
X205131427Y-58446428D01*
X203988570Y-58446428D02*
X203988570Y-57446428D01*
X203988570Y-57732142D02*
X203917141Y-57589285D01*
X203917141Y-57589285D02*
X203845713Y-57517857D01*
X203845713Y-57517857D02*
X203702855Y-57446428D01*
X203702855Y-57446428D02*
X203559998Y-57446428D01*
X203059999Y-58303571D02*
X202988570Y-58375000D01*
X202988570Y-58375000D02*
X203059999Y-58446428D01*
X203059999Y-58446428D02*
X203131427Y-58375000D01*
X203131427Y-58375000D02*
X203059999Y-58303571D01*
X203059999Y-58303571D02*
X203059999Y-58446428D01*
X203059999Y-57517857D02*
X202988570Y-57589285D01*
X202988570Y-57589285D02*
X203059999Y-57660714D01*
X203059999Y-57660714D02*
X203131427Y-57589285D01*
X203131427Y-57589285D02*
X203059999Y-57517857D01*
X203059999Y-57517857D02*
X203059999Y-57660714D01*
X220417142Y-59376428D02*
X219560000Y-59376428D01*
X219988571Y-60876428D02*
X219988571Y-59376428D01*
X219060000Y-60876428D02*
X219060000Y-59876428D01*
X219060000Y-59376428D02*
X219131428Y-59447857D01*
X219131428Y-59447857D02*
X219060000Y-59519285D01*
X219060000Y-59519285D02*
X218988571Y-59447857D01*
X218988571Y-59447857D02*
X219060000Y-59376428D01*
X219060000Y-59376428D02*
X219060000Y-59519285D01*
X218345714Y-60876428D02*
X218345714Y-59876428D01*
X218345714Y-60019285D02*
X218274285Y-59947857D01*
X218274285Y-59947857D02*
X218131428Y-59876428D01*
X218131428Y-59876428D02*
X217917142Y-59876428D01*
X217917142Y-59876428D02*
X217774285Y-59947857D01*
X217774285Y-59947857D02*
X217702857Y-60090714D01*
X217702857Y-60090714D02*
X217702857Y-60876428D01*
X217702857Y-60090714D02*
X217631428Y-59947857D01*
X217631428Y-59947857D02*
X217488571Y-59876428D01*
X217488571Y-59876428D02*
X217274285Y-59876428D01*
X217274285Y-59876428D02*
X217131428Y-59947857D01*
X217131428Y-59947857D02*
X217059999Y-60090714D01*
X217059999Y-60090714D02*
X217059999Y-60876428D01*
X216131428Y-60876428D02*
X216274285Y-60805000D01*
X216274285Y-60805000D02*
X216345714Y-60733571D01*
X216345714Y-60733571D02*
X216417142Y-60590714D01*
X216417142Y-60590714D02*
X216417142Y-60162142D01*
X216417142Y-60162142D02*
X216345714Y-60019285D01*
X216345714Y-60019285D02*
X216274285Y-59947857D01*
X216274285Y-59947857D02*
X216131428Y-59876428D01*
X216131428Y-59876428D02*
X215917142Y-59876428D01*
X215917142Y-59876428D02*
X215774285Y-59947857D01*
X215774285Y-59947857D02*
X215702857Y-60019285D01*
X215702857Y-60019285D02*
X215631428Y-60162142D01*
X215631428Y-60162142D02*
X215631428Y-60590714D01*
X215631428Y-60590714D02*
X215702857Y-60733571D01*
X215702857Y-60733571D02*
X215774285Y-60805000D01*
X215774285Y-60805000D02*
X215917142Y-60876428D01*
X215917142Y-60876428D02*
X216131428Y-60876428D01*
X213917142Y-60805000D02*
X213702857Y-60876428D01*
X213702857Y-60876428D02*
X213345714Y-60876428D01*
X213345714Y-60876428D02*
X213202857Y-60805000D01*
X213202857Y-60805000D02*
X213131428Y-60733571D01*
X213131428Y-60733571D02*
X213059999Y-60590714D01*
X213059999Y-60590714D02*
X213059999Y-60447857D01*
X213059999Y-60447857D02*
X213131428Y-60305000D01*
X213131428Y-60305000D02*
X213202857Y-60233571D01*
X213202857Y-60233571D02*
X213345714Y-60162142D01*
X213345714Y-60162142D02*
X213631428Y-60090714D01*
X213631428Y-60090714D02*
X213774285Y-60019285D01*
X213774285Y-60019285D02*
X213845714Y-59947857D01*
X213845714Y-59947857D02*
X213917142Y-59805000D01*
X213917142Y-59805000D02*
X213917142Y-59662142D01*
X213917142Y-59662142D02*
X213845714Y-59519285D01*
X213845714Y-59519285D02*
X213774285Y-59447857D01*
X213774285Y-59447857D02*
X213631428Y-59376428D01*
X213631428Y-59376428D02*
X213274285Y-59376428D01*
X213274285Y-59376428D02*
X213059999Y-59447857D01*
X211774286Y-60805000D02*
X211917143Y-60876428D01*
X211917143Y-60876428D02*
X212202857Y-60876428D01*
X212202857Y-60876428D02*
X212345714Y-60805000D01*
X212345714Y-60805000D02*
X212417143Y-60733571D01*
X212417143Y-60733571D02*
X212488571Y-60590714D01*
X212488571Y-60590714D02*
X212488571Y-60162142D01*
X212488571Y-60162142D02*
X212417143Y-60019285D01*
X212417143Y-60019285D02*
X212345714Y-59947857D01*
X212345714Y-59947857D02*
X212202857Y-59876428D01*
X212202857Y-59876428D02*
X211917143Y-59876428D01*
X211917143Y-59876428D02*
X211774286Y-59947857D01*
X211131429Y-60876428D02*
X211131429Y-59376428D01*
X210488572Y-60876428D02*
X210488572Y-60090714D01*
X210488572Y-60090714D02*
X210560000Y-59947857D01*
X210560000Y-59947857D02*
X210702857Y-59876428D01*
X210702857Y-59876428D02*
X210917143Y-59876428D01*
X210917143Y-59876428D02*
X211060000Y-59947857D01*
X211060000Y-59947857D02*
X211131429Y-60019285D01*
X209774286Y-60876428D02*
X209774286Y-59876428D01*
X209774286Y-59376428D02*
X209845714Y-59447857D01*
X209845714Y-59447857D02*
X209774286Y-59519285D01*
X209774286Y-59519285D02*
X209702857Y-59447857D01*
X209702857Y-59447857D02*
X209774286Y-59376428D01*
X209774286Y-59376428D02*
X209774286Y-59519285D01*
X209060000Y-59876428D02*
X209060000Y-60876428D01*
X209060000Y-60019285D02*
X208988571Y-59947857D01*
X208988571Y-59947857D02*
X208845714Y-59876428D01*
X208845714Y-59876428D02*
X208631428Y-59876428D01*
X208631428Y-59876428D02*
X208488571Y-59947857D01*
X208488571Y-59947857D02*
X208417143Y-60090714D01*
X208417143Y-60090714D02*
X208417143Y-60876428D01*
X207060000Y-60876428D02*
X207060000Y-59376428D01*
X207060000Y-60805000D02*
X207202857Y-60876428D01*
X207202857Y-60876428D02*
X207488571Y-60876428D01*
X207488571Y-60876428D02*
X207631428Y-60805000D01*
X207631428Y-60805000D02*
X207702857Y-60733571D01*
X207702857Y-60733571D02*
X207774285Y-60590714D01*
X207774285Y-60590714D02*
X207774285Y-60162142D01*
X207774285Y-60162142D02*
X207702857Y-60019285D01*
X207702857Y-60019285D02*
X207631428Y-59947857D01*
X207631428Y-59947857D02*
X207488571Y-59876428D01*
X207488571Y-59876428D02*
X207202857Y-59876428D01*
X207202857Y-59876428D02*
X207060000Y-59947857D01*
X206131428Y-60876428D02*
X206274285Y-60805000D01*
X206274285Y-60805000D02*
X206345714Y-60662142D01*
X206345714Y-60662142D02*
X206345714Y-59376428D01*
X204988571Y-60805000D02*
X205131428Y-60876428D01*
X205131428Y-60876428D02*
X205417143Y-60876428D01*
X205417143Y-60876428D02*
X205560000Y-60805000D01*
X205560000Y-60805000D02*
X205631428Y-60662142D01*
X205631428Y-60662142D02*
X205631428Y-60090714D01*
X205631428Y-60090714D02*
X205560000Y-59947857D01*
X205560000Y-59947857D02*
X205417143Y-59876428D01*
X205417143Y-59876428D02*
X205131428Y-59876428D01*
X205131428Y-59876428D02*
X204988571Y-59947857D01*
X204988571Y-59947857D02*
X204917143Y-60090714D01*
X204917143Y-60090714D02*
X204917143Y-60233571D01*
X204917143Y-60233571D02*
X205631428Y-60376428D01*
X204274286Y-60876428D02*
X204274286Y-59876428D01*
X204274286Y-60162142D02*
X204202857Y-60019285D01*
X204202857Y-60019285D02*
X204131429Y-59947857D01*
X204131429Y-59947857D02*
X203988571Y-59876428D01*
X203988571Y-59876428D02*
X203845714Y-59876428D01*
X219274285Y-62592142D02*
X219345714Y-62520714D01*
X219345714Y-62520714D02*
X219488571Y-62449285D01*
X219488571Y-62449285D02*
X219631428Y-62449285D01*
X219631428Y-62449285D02*
X219774285Y-62520714D01*
X219774285Y-62520714D02*
X219845714Y-62592142D01*
X219845714Y-62592142D02*
X219917142Y-62735000D01*
X219917142Y-62735000D02*
X219917142Y-62877857D01*
X219917142Y-62877857D02*
X219845714Y-63020714D01*
X219845714Y-63020714D02*
X219774285Y-63092142D01*
X219774285Y-63092142D02*
X219631428Y-63163571D01*
X219631428Y-63163571D02*
X219488571Y-63163571D01*
X219488571Y-63163571D02*
X219345714Y-63092142D01*
X219345714Y-63092142D02*
X219274285Y-63020714D01*
X219274285Y-62449285D02*
X219274285Y-63020714D01*
X219274285Y-63020714D02*
X219202857Y-63092142D01*
X219202857Y-63092142D02*
X219131428Y-63092142D01*
X219131428Y-63092142D02*
X218988571Y-63020714D01*
X218988571Y-63020714D02*
X218917142Y-62877857D01*
X218917142Y-62877857D02*
X218917142Y-62520714D01*
X218917142Y-62520714D02*
X219060000Y-62306428D01*
X219060000Y-62306428D02*
X219274285Y-62163571D01*
X219274285Y-62163571D02*
X219560000Y-62092142D01*
X219560000Y-62092142D02*
X219845714Y-62163571D01*
X219845714Y-62163571D02*
X220060000Y-62306428D01*
X220060000Y-62306428D02*
X220202857Y-62520714D01*
X220202857Y-62520714D02*
X220274285Y-62806428D01*
X220274285Y-62806428D02*
X220202857Y-63092142D01*
X220202857Y-63092142D02*
X220060000Y-63306428D01*
X220060000Y-63306428D02*
X219845714Y-63449285D01*
X219845714Y-63449285D02*
X219560000Y-63520714D01*
X219560000Y-63520714D02*
X219274285Y-63449285D01*
X219274285Y-63449285D02*
X219060000Y-63306428D01*
X218274286Y-63306428D02*
X218274286Y-61806428D01*
X218274286Y-62377857D02*
X218131429Y-62306428D01*
X218131429Y-62306428D02*
X217845714Y-62306428D01*
X217845714Y-62306428D02*
X217702857Y-62377857D01*
X217702857Y-62377857D02*
X217631429Y-62449285D01*
X217631429Y-62449285D02*
X217560000Y-62592142D01*
X217560000Y-62592142D02*
X217560000Y-63020714D01*
X217560000Y-63020714D02*
X217631429Y-63163571D01*
X217631429Y-63163571D02*
X217702857Y-63235000D01*
X217702857Y-63235000D02*
X217845714Y-63306428D01*
X217845714Y-63306428D02*
X218131429Y-63306428D01*
X218131429Y-63306428D02*
X218274286Y-63235000D01*
X216702857Y-63306428D02*
X216845714Y-63235000D01*
X216845714Y-63235000D02*
X216917143Y-63092142D01*
X216917143Y-63092142D02*
X216917143Y-61806428D01*
X216131429Y-63306428D02*
X216131429Y-62306428D01*
X216131429Y-61806428D02*
X216202857Y-61877857D01*
X216202857Y-61877857D02*
X216131429Y-61949285D01*
X216131429Y-61949285D02*
X216060000Y-61877857D01*
X216060000Y-61877857D02*
X216131429Y-61806428D01*
X216131429Y-61806428D02*
X216131429Y-61949285D01*
X215417143Y-62306428D02*
X215417143Y-63306428D01*
X215417143Y-62449285D02*
X215345714Y-62377857D01*
X215345714Y-62377857D02*
X215202857Y-62306428D01*
X215202857Y-62306428D02*
X214988571Y-62306428D01*
X214988571Y-62306428D02*
X214845714Y-62377857D01*
X214845714Y-62377857D02*
X214774286Y-62520714D01*
X214774286Y-62520714D02*
X214774286Y-63306428D01*
X214060000Y-63306428D02*
X214060000Y-61806428D01*
X213917143Y-62735000D02*
X213488571Y-63306428D01*
X213488571Y-62306428D02*
X214060000Y-62877857D01*
X212988571Y-62306428D02*
X212631428Y-63306428D01*
X212274285Y-62306428D02*
X212631428Y-63306428D01*
X212631428Y-63306428D02*
X212774285Y-63663571D01*
X212774285Y-63663571D02*
X212845714Y-63735000D01*
X212845714Y-63735000D02*
X212988571Y-63806428D01*
X211702857Y-62306428D02*
X211702857Y-63806428D01*
X211702857Y-62377857D02*
X211560000Y-62306428D01*
X211560000Y-62306428D02*
X211274285Y-62306428D01*
X211274285Y-62306428D02*
X211131428Y-62377857D01*
X211131428Y-62377857D02*
X211060000Y-62449285D01*
X211060000Y-62449285D02*
X210988571Y-62592142D01*
X210988571Y-62592142D02*
X210988571Y-63020714D01*
X210988571Y-63020714D02*
X211060000Y-63163571D01*
X211060000Y-63163571D02*
X211131428Y-63235000D01*
X211131428Y-63235000D02*
X211274285Y-63306428D01*
X211274285Y-63306428D02*
X211560000Y-63306428D01*
X211560000Y-63306428D02*
X211702857Y-63235000D01*
X209702857Y-63306428D02*
X209702857Y-62520714D01*
X209702857Y-62520714D02*
X209774285Y-62377857D01*
X209774285Y-62377857D02*
X209917142Y-62306428D01*
X209917142Y-62306428D02*
X210202857Y-62306428D01*
X210202857Y-62306428D02*
X210345714Y-62377857D01*
X209702857Y-63235000D02*
X209845714Y-63306428D01*
X209845714Y-63306428D02*
X210202857Y-63306428D01*
X210202857Y-63306428D02*
X210345714Y-63235000D01*
X210345714Y-63235000D02*
X210417142Y-63092142D01*
X210417142Y-63092142D02*
X210417142Y-62949285D01*
X210417142Y-62949285D02*
X210345714Y-62806428D01*
X210345714Y-62806428D02*
X210202857Y-62735000D01*
X210202857Y-62735000D02*
X209845714Y-62735000D01*
X209845714Y-62735000D02*
X209702857Y-62663571D01*
X208988571Y-63306428D02*
X208988571Y-62306428D01*
X208988571Y-62592142D02*
X208917142Y-62449285D01*
X208917142Y-62449285D02*
X208845714Y-62377857D01*
X208845714Y-62377857D02*
X208702856Y-62306428D01*
X208702856Y-62306428D02*
X208559999Y-62306428D01*
X208274285Y-62306428D02*
X207702857Y-62306428D01*
X208060000Y-61806428D02*
X208060000Y-63092142D01*
X208060000Y-63092142D02*
X207988571Y-63235000D01*
X207988571Y-63235000D02*
X207845714Y-63306428D01*
X207845714Y-63306428D02*
X207702857Y-63306428D01*
X207274285Y-63235000D02*
X207131428Y-63306428D01*
X207131428Y-63306428D02*
X206845714Y-63306428D01*
X206845714Y-63306428D02*
X206702857Y-63235000D01*
X206702857Y-63235000D02*
X206631428Y-63092142D01*
X206631428Y-63092142D02*
X206631428Y-63020714D01*
X206631428Y-63020714D02*
X206702857Y-62877857D01*
X206702857Y-62877857D02*
X206845714Y-62806428D01*
X206845714Y-62806428D02*
X207060000Y-62806428D01*
X207060000Y-62806428D02*
X207202857Y-62735000D01*
X207202857Y-62735000D02*
X207274285Y-62592142D01*
X207274285Y-62592142D02*
X207274285Y-62520714D01*
X207274285Y-62520714D02*
X207202857Y-62377857D01*
X207202857Y-62377857D02*
X207060000Y-62306428D01*
X207060000Y-62306428D02*
X206845714Y-62306428D01*
X206845714Y-62306428D02*
X206702857Y-62377857D01*
X205988571Y-63163571D02*
X205917142Y-63235000D01*
X205917142Y-63235000D02*
X205988571Y-63306428D01*
X205988571Y-63306428D02*
X206059999Y-63235000D01*
X206059999Y-63235000D02*
X205988571Y-63163571D01*
X205988571Y-63163571D02*
X205988571Y-63306428D01*
X204631428Y-63235000D02*
X204774285Y-63306428D01*
X204774285Y-63306428D02*
X205059999Y-63306428D01*
X205059999Y-63306428D02*
X205202856Y-63235000D01*
X205202856Y-63235000D02*
X205274285Y-63163571D01*
X205274285Y-63163571D02*
X205345713Y-63020714D01*
X205345713Y-63020714D02*
X205345713Y-62592142D01*
X205345713Y-62592142D02*
X205274285Y-62449285D01*
X205274285Y-62449285D02*
X205202856Y-62377857D01*
X205202856Y-62377857D02*
X205059999Y-62306428D01*
X205059999Y-62306428D02*
X204774285Y-62306428D01*
X204774285Y-62306428D02*
X204631428Y-62377857D01*
X203774285Y-63306428D02*
X203917142Y-63235000D01*
X203917142Y-63235000D02*
X203988571Y-63163571D01*
X203988571Y-63163571D02*
X204059999Y-63020714D01*
X204059999Y-63020714D02*
X204059999Y-62592142D01*
X204059999Y-62592142D02*
X203988571Y-62449285D01*
X203988571Y-62449285D02*
X203917142Y-62377857D01*
X203917142Y-62377857D02*
X203774285Y-62306428D01*
X203774285Y-62306428D02*
X203559999Y-62306428D01*
X203559999Y-62306428D02*
X203417142Y-62377857D01*
X203417142Y-62377857D02*
X203345714Y-62449285D01*
X203345714Y-62449285D02*
X203274285Y-62592142D01*
X203274285Y-62592142D02*
X203274285Y-63020714D01*
X203274285Y-63020714D02*
X203345714Y-63163571D01*
X203345714Y-63163571D02*
X203417142Y-63235000D01*
X203417142Y-63235000D02*
X203559999Y-63306428D01*
X203559999Y-63306428D02*
X203774285Y-63306428D01*
X202631428Y-63306428D02*
X202631428Y-62306428D01*
X202631428Y-62449285D02*
X202559999Y-62377857D01*
X202559999Y-62377857D02*
X202417142Y-62306428D01*
X202417142Y-62306428D02*
X202202856Y-62306428D01*
X202202856Y-62306428D02*
X202059999Y-62377857D01*
X202059999Y-62377857D02*
X201988571Y-62520714D01*
X201988571Y-62520714D02*
X201988571Y-63306428D01*
X201988571Y-62520714D02*
X201917142Y-62377857D01*
X201917142Y-62377857D02*
X201774285Y-62306428D01*
X201774285Y-62306428D02*
X201559999Y-62306428D01*
X201559999Y-62306428D02*
X201417142Y-62377857D01*
X201417142Y-62377857D02*
X201345713Y-62520714D01*
X201345713Y-62520714D02*
X201345713Y-63306428D01*
X220202857Y-68166428D02*
X220202857Y-66666428D01*
X220202857Y-66666428D02*
X219702857Y-67737857D01*
X219702857Y-67737857D02*
X219202857Y-66666428D01*
X219202857Y-66666428D02*
X219202857Y-68166428D01*
X218274285Y-68166428D02*
X218417142Y-68095000D01*
X218417142Y-68095000D02*
X218488571Y-68023571D01*
X218488571Y-68023571D02*
X218559999Y-67880714D01*
X218559999Y-67880714D02*
X218559999Y-67452142D01*
X218559999Y-67452142D02*
X218488571Y-67309285D01*
X218488571Y-67309285D02*
X218417142Y-67237857D01*
X218417142Y-67237857D02*
X218274285Y-67166428D01*
X218274285Y-67166428D02*
X218059999Y-67166428D01*
X218059999Y-67166428D02*
X217917142Y-67237857D01*
X217917142Y-67237857D02*
X217845714Y-67309285D01*
X217845714Y-67309285D02*
X217774285Y-67452142D01*
X217774285Y-67452142D02*
X217774285Y-67880714D01*
X217774285Y-67880714D02*
X217845714Y-68023571D01*
X217845714Y-68023571D02*
X217917142Y-68095000D01*
X217917142Y-68095000D02*
X218059999Y-68166428D01*
X218059999Y-68166428D02*
X218274285Y-68166428D01*
X216488571Y-68166428D02*
X216488571Y-66666428D01*
X216488571Y-68095000D02*
X216631428Y-68166428D01*
X216631428Y-68166428D02*
X216917142Y-68166428D01*
X216917142Y-68166428D02*
X217059999Y-68095000D01*
X217059999Y-68095000D02*
X217131428Y-68023571D01*
X217131428Y-68023571D02*
X217202856Y-67880714D01*
X217202856Y-67880714D02*
X217202856Y-67452142D01*
X217202856Y-67452142D02*
X217131428Y-67309285D01*
X217131428Y-67309285D02*
X217059999Y-67237857D01*
X217059999Y-67237857D02*
X216917142Y-67166428D01*
X216917142Y-67166428D02*
X216631428Y-67166428D01*
X216631428Y-67166428D02*
X216488571Y-67237857D01*
X214631428Y-68166428D02*
X214631428Y-66666428D01*
X214631428Y-67237857D02*
X214488571Y-67166428D01*
X214488571Y-67166428D02*
X214202856Y-67166428D01*
X214202856Y-67166428D02*
X214059999Y-67237857D01*
X214059999Y-67237857D02*
X213988571Y-67309285D01*
X213988571Y-67309285D02*
X213917142Y-67452142D01*
X213917142Y-67452142D02*
X213917142Y-67880714D01*
X213917142Y-67880714D02*
X213988571Y-68023571D01*
X213988571Y-68023571D02*
X214059999Y-68095000D01*
X214059999Y-68095000D02*
X214202856Y-68166428D01*
X214202856Y-68166428D02*
X214488571Y-68166428D01*
X214488571Y-68166428D02*
X214631428Y-68095000D01*
X213417142Y-67166428D02*
X213059999Y-68166428D01*
X212702856Y-67166428D02*
X213059999Y-68166428D01*
X213059999Y-68166428D02*
X213202856Y-68523571D01*
X213202856Y-68523571D02*
X213274285Y-68595000D01*
X213274285Y-68595000D02*
X213417142Y-68666428D01*
X212131428Y-68023571D02*
X212059999Y-68095000D01*
X212059999Y-68095000D02*
X212131428Y-68166428D01*
X212131428Y-68166428D02*
X212202856Y-68095000D01*
X212202856Y-68095000D02*
X212131428Y-68023571D01*
X212131428Y-68023571D02*
X212131428Y-68166428D01*
X212131428Y-67237857D02*
X212059999Y-67309285D01*
X212059999Y-67309285D02*
X212131428Y-67380714D01*
X212131428Y-67380714D02*
X212202856Y-67309285D01*
X212202856Y-67309285D02*
X212131428Y-67237857D01*
X212131428Y-67237857D02*
X212131428Y-67380714D01*
X220202857Y-70596428D02*
X220202857Y-69096428D01*
X220202857Y-69810714D02*
X219345714Y-69810714D01*
X219345714Y-70596428D02*
X219345714Y-69096428D01*
X217988571Y-70596428D02*
X217988571Y-69810714D01*
X217988571Y-69810714D02*
X218059999Y-69667857D01*
X218059999Y-69667857D02*
X218202856Y-69596428D01*
X218202856Y-69596428D02*
X218488571Y-69596428D01*
X218488571Y-69596428D02*
X218631428Y-69667857D01*
X217988571Y-70525000D02*
X218131428Y-70596428D01*
X218131428Y-70596428D02*
X218488571Y-70596428D01*
X218488571Y-70596428D02*
X218631428Y-70525000D01*
X218631428Y-70525000D02*
X218702856Y-70382142D01*
X218702856Y-70382142D02*
X218702856Y-70239285D01*
X218702856Y-70239285D02*
X218631428Y-70096428D01*
X218631428Y-70096428D02*
X218488571Y-70025000D01*
X218488571Y-70025000D02*
X218131428Y-70025000D01*
X218131428Y-70025000D02*
X217988571Y-69953571D01*
X216417142Y-70453571D02*
X216488570Y-70525000D01*
X216488570Y-70525000D02*
X216702856Y-70596428D01*
X216702856Y-70596428D02*
X216845713Y-70596428D01*
X216845713Y-70596428D02*
X217059999Y-70525000D01*
X217059999Y-70525000D02*
X217202856Y-70382142D01*
X217202856Y-70382142D02*
X217274285Y-70239285D01*
X217274285Y-70239285D02*
X217345713Y-69953571D01*
X217345713Y-69953571D02*
X217345713Y-69739285D01*
X217345713Y-69739285D02*
X217274285Y-69453571D01*
X217274285Y-69453571D02*
X217202856Y-69310714D01*
X217202856Y-69310714D02*
X217059999Y-69167857D01*
X217059999Y-69167857D02*
X216845713Y-69096428D01*
X216845713Y-69096428D02*
X216702856Y-69096428D01*
X216702856Y-69096428D02*
X216488570Y-69167857D01*
X216488570Y-69167857D02*
X216417142Y-69239285D01*
X215774285Y-70596428D02*
X215774285Y-69596428D01*
X215774285Y-69882142D02*
X215702856Y-69739285D01*
X215702856Y-69739285D02*
X215631428Y-69667857D01*
X215631428Y-69667857D02*
X215488570Y-69596428D01*
X215488570Y-69596428D02*
X215345713Y-69596428D01*
X214202857Y-70596428D02*
X214202857Y-69810714D01*
X214202857Y-69810714D02*
X214274285Y-69667857D01*
X214274285Y-69667857D02*
X214417142Y-69596428D01*
X214417142Y-69596428D02*
X214702857Y-69596428D01*
X214702857Y-69596428D02*
X214845714Y-69667857D01*
X214202857Y-70525000D02*
X214345714Y-70596428D01*
X214345714Y-70596428D02*
X214702857Y-70596428D01*
X214702857Y-70596428D02*
X214845714Y-70525000D01*
X214845714Y-70525000D02*
X214917142Y-70382142D01*
X214917142Y-70382142D02*
X214917142Y-70239285D01*
X214917142Y-70239285D02*
X214845714Y-70096428D01*
X214845714Y-70096428D02*
X214702857Y-70025000D01*
X214702857Y-70025000D02*
X214345714Y-70025000D01*
X214345714Y-70025000D02*
X214202857Y-69953571D01*
X212988571Y-69810714D02*
X213488571Y-69810714D01*
X213488571Y-70596428D02*
X213488571Y-69096428D01*
X213488571Y-69096428D02*
X212774285Y-69096428D01*
X211560000Y-69596428D02*
X211560000Y-70596428D01*
X212202857Y-69596428D02*
X212202857Y-70382142D01*
X212202857Y-70382142D02*
X212131428Y-70525000D01*
X212131428Y-70525000D02*
X211988571Y-70596428D01*
X211988571Y-70596428D02*
X211774285Y-70596428D01*
X211774285Y-70596428D02*
X211631428Y-70525000D01*
X211631428Y-70525000D02*
X211560000Y-70453571D01*
X209131428Y-70525000D02*
X209274285Y-70596428D01*
X209274285Y-70596428D02*
X209560000Y-70596428D01*
X209560000Y-70596428D02*
X209702857Y-70525000D01*
X209702857Y-70525000D02*
X209774285Y-70382142D01*
X209774285Y-70382142D02*
X209774285Y-69810714D01*
X209774285Y-69810714D02*
X209702857Y-69667857D01*
X209702857Y-69667857D02*
X209560000Y-69596428D01*
X209560000Y-69596428D02*
X209274285Y-69596428D01*
X209274285Y-69596428D02*
X209131428Y-69667857D01*
X209131428Y-69667857D02*
X209060000Y-69810714D01*
X209060000Y-69810714D02*
X209060000Y-69953571D01*
X209060000Y-69953571D02*
X209774285Y-70096428D01*
X208417143Y-70453571D02*
X208345714Y-70525000D01*
X208345714Y-70525000D02*
X208417143Y-70596428D01*
X208417143Y-70596428D02*
X208488571Y-70525000D01*
X208488571Y-70525000D02*
X208417143Y-70453571D01*
X208417143Y-70453571D02*
X208417143Y-70596428D01*
X207917142Y-69096428D02*
X207417142Y-70596428D01*
X207417142Y-70596428D02*
X206917142Y-69096428D01*
X206417143Y-70453571D02*
X206345714Y-70525000D01*
X206345714Y-70525000D02*
X206417143Y-70596428D01*
X206417143Y-70596428D02*
X206488571Y-70525000D01*
X206488571Y-70525000D02*
X206417143Y-70453571D01*
X206417143Y-70453571D02*
X206417143Y-70596428D01*
X220202857Y-73026428D02*
X220202857Y-71526428D01*
X220202857Y-71526428D02*
X219702857Y-72597857D01*
X219702857Y-72597857D02*
X219202857Y-71526428D01*
X219202857Y-71526428D02*
X219202857Y-73026428D01*
X217845714Y-73026428D02*
X217845714Y-72240714D01*
X217845714Y-72240714D02*
X217917142Y-72097857D01*
X217917142Y-72097857D02*
X218059999Y-72026428D01*
X218059999Y-72026428D02*
X218345714Y-72026428D01*
X218345714Y-72026428D02*
X218488571Y-72097857D01*
X217845714Y-72955000D02*
X217988571Y-73026428D01*
X217988571Y-73026428D02*
X218345714Y-73026428D01*
X218345714Y-73026428D02*
X218488571Y-72955000D01*
X218488571Y-72955000D02*
X218559999Y-72812142D01*
X218559999Y-72812142D02*
X218559999Y-72669285D01*
X218559999Y-72669285D02*
X218488571Y-72526428D01*
X218488571Y-72526428D02*
X218345714Y-72455000D01*
X218345714Y-72455000D02*
X217988571Y-72455000D01*
X217988571Y-72455000D02*
X217845714Y-72383571D01*
X217131428Y-73026428D02*
X217131428Y-72026428D01*
X217131428Y-72312142D02*
X217059999Y-72169285D01*
X217059999Y-72169285D02*
X216988571Y-72097857D01*
X216988571Y-72097857D02*
X216845713Y-72026428D01*
X216845713Y-72026428D02*
X216702856Y-72026428D01*
X216417142Y-72026428D02*
X215845714Y-72026428D01*
X216202857Y-71526428D02*
X216202857Y-72812142D01*
X216202857Y-72812142D02*
X216131428Y-72955000D01*
X216131428Y-72955000D02*
X215988571Y-73026428D01*
X215988571Y-73026428D02*
X215845714Y-73026428D01*
X215345714Y-73026428D02*
X215345714Y-72026428D01*
X215345714Y-71526428D02*
X215417142Y-71597857D01*
X215417142Y-71597857D02*
X215345714Y-71669285D01*
X215345714Y-71669285D02*
X215274285Y-71597857D01*
X215274285Y-71597857D02*
X215345714Y-71526428D01*
X215345714Y-71526428D02*
X215345714Y-71669285D01*
X214631428Y-72026428D02*
X214631428Y-73026428D01*
X214631428Y-72169285D02*
X214559999Y-72097857D01*
X214559999Y-72097857D02*
X214417142Y-72026428D01*
X214417142Y-72026428D02*
X214202856Y-72026428D01*
X214202856Y-72026428D02*
X214059999Y-72097857D01*
X214059999Y-72097857D02*
X213988571Y-72240714D01*
X213988571Y-72240714D02*
X213988571Y-73026428D01*
X212131428Y-73026428D02*
X212131428Y-71526428D01*
X212131428Y-71526428D02*
X211631428Y-72597857D01*
X211631428Y-72597857D02*
X211131428Y-71526428D01*
X211131428Y-71526428D02*
X211131428Y-73026428D01*
X209774285Y-72026428D02*
X209774285Y-73026428D01*
X210417142Y-72026428D02*
X210417142Y-72812142D01*
X210417142Y-72812142D02*
X210345713Y-72955000D01*
X210345713Y-72955000D02*
X210202856Y-73026428D01*
X210202856Y-73026428D02*
X209988570Y-73026428D01*
X209988570Y-73026428D02*
X209845713Y-72955000D01*
X209845713Y-72955000D02*
X209774285Y-72883571D01*
X210345713Y-71526428D02*
X210274285Y-71597857D01*
X210274285Y-71597857D02*
X210345713Y-71669285D01*
X210345713Y-71669285D02*
X210417142Y-71597857D01*
X210417142Y-71597857D02*
X210345713Y-71526428D01*
X210345713Y-71526428D02*
X210345713Y-71669285D01*
X209774285Y-71526428D02*
X209702856Y-71597857D01*
X209702856Y-71597857D02*
X209774285Y-71669285D01*
X209774285Y-71669285D02*
X209845713Y-71597857D01*
X209845713Y-71597857D02*
X209774285Y-71526428D01*
X209774285Y-71526428D02*
X209774285Y-71669285D01*
X208845713Y-73026428D02*
X208988570Y-72955000D01*
X208988570Y-72955000D02*
X209059999Y-72812142D01*
X209059999Y-72812142D02*
X209059999Y-71526428D01*
X208059999Y-73026428D02*
X208202856Y-72955000D01*
X208202856Y-72955000D02*
X208274285Y-72812142D01*
X208274285Y-72812142D02*
X208274285Y-71526428D01*
X206917142Y-72955000D02*
X207059999Y-73026428D01*
X207059999Y-73026428D02*
X207345714Y-73026428D01*
X207345714Y-73026428D02*
X207488571Y-72955000D01*
X207488571Y-72955000D02*
X207559999Y-72812142D01*
X207559999Y-72812142D02*
X207559999Y-72240714D01*
X207559999Y-72240714D02*
X207488571Y-72097857D01*
X207488571Y-72097857D02*
X207345714Y-72026428D01*
X207345714Y-72026428D02*
X207059999Y-72026428D01*
X207059999Y-72026428D02*
X206917142Y-72097857D01*
X206917142Y-72097857D02*
X206845714Y-72240714D01*
X206845714Y-72240714D02*
X206845714Y-72383571D01*
X206845714Y-72383571D02*
X207559999Y-72526428D01*
X206202857Y-72026428D02*
X206202857Y-73026428D01*
X206202857Y-72169285D02*
X206131428Y-72097857D01*
X206131428Y-72097857D02*
X205988571Y-72026428D01*
X205988571Y-72026428D02*
X205774285Y-72026428D01*
X205774285Y-72026428D02*
X205631428Y-72097857D01*
X205631428Y-72097857D02*
X205560000Y-72240714D01*
X205560000Y-72240714D02*
X205560000Y-73026428D01*
X204845714Y-73026428D02*
X204845714Y-71526428D01*
X204202857Y-73026428D02*
X204202857Y-72240714D01*
X204202857Y-72240714D02*
X204274285Y-72097857D01*
X204274285Y-72097857D02*
X204417142Y-72026428D01*
X204417142Y-72026428D02*
X204631428Y-72026428D01*
X204631428Y-72026428D02*
X204774285Y-72097857D01*
X204774285Y-72097857D02*
X204845714Y-72169285D01*
X202845714Y-73026428D02*
X202845714Y-72240714D01*
X202845714Y-72240714D02*
X202917142Y-72097857D01*
X202917142Y-72097857D02*
X203059999Y-72026428D01*
X203059999Y-72026428D02*
X203345714Y-72026428D01*
X203345714Y-72026428D02*
X203488571Y-72097857D01*
X202845714Y-72955000D02*
X202988571Y-73026428D01*
X202988571Y-73026428D02*
X203345714Y-73026428D01*
X203345714Y-73026428D02*
X203488571Y-72955000D01*
X203488571Y-72955000D02*
X203559999Y-72812142D01*
X203559999Y-72812142D02*
X203559999Y-72669285D01*
X203559999Y-72669285D02*
X203488571Y-72526428D01*
X203488571Y-72526428D02*
X203345714Y-72455000D01*
X203345714Y-72455000D02*
X202988571Y-72455000D01*
X202988571Y-72455000D02*
X202845714Y-72383571D01*
X201488571Y-72026428D02*
X201488571Y-73026428D01*
X202131428Y-72026428D02*
X202131428Y-72812142D01*
X202131428Y-72812142D02*
X202059999Y-72955000D01*
X202059999Y-72955000D02*
X201917142Y-73026428D01*
X201917142Y-73026428D02*
X201702856Y-73026428D01*
X201702856Y-73026428D02*
X201559999Y-72955000D01*
X201559999Y-72955000D02*
X201488571Y-72883571D01*
X200774285Y-72026428D02*
X200774285Y-73526428D01*
X200774285Y-72097857D02*
X200631428Y-72026428D01*
X200631428Y-72026428D02*
X200345713Y-72026428D01*
X200345713Y-72026428D02*
X200202856Y-72097857D01*
X200202856Y-72097857D02*
X200131428Y-72169285D01*
X200131428Y-72169285D02*
X200059999Y-72312142D01*
X200059999Y-72312142D02*
X200059999Y-72740714D01*
X200059999Y-72740714D02*
X200131428Y-72883571D01*
X200131428Y-72883571D02*
X200202856Y-72955000D01*
X200202856Y-72955000D02*
X200345713Y-73026428D01*
X200345713Y-73026428D02*
X200631428Y-73026428D01*
X200631428Y-73026428D02*
X200774285Y-72955000D01*
X199631427Y-72026428D02*
X199059999Y-72026428D01*
X199417142Y-71526428D02*
X199417142Y-72812142D01*
X199417142Y-72812142D02*
X199345713Y-72955000D01*
X199345713Y-72955000D02*
X199202856Y-73026428D01*
X199202856Y-73026428D02*
X199059999Y-73026428D01*
X220202857Y-75456428D02*
X220202857Y-73956428D01*
X219560000Y-75456428D02*
X219560000Y-74670714D01*
X219560000Y-74670714D02*
X219631428Y-74527857D01*
X219631428Y-74527857D02*
X219774285Y-74456428D01*
X219774285Y-74456428D02*
X219988571Y-74456428D01*
X219988571Y-74456428D02*
X220131428Y-74527857D01*
X220131428Y-74527857D02*
X220202857Y-74599285D01*
X219059999Y-74456428D02*
X218488571Y-74456428D01*
X218845714Y-73956428D02*
X218845714Y-75242142D01*
X218845714Y-75242142D02*
X218774285Y-75385000D01*
X218774285Y-75385000D02*
X218631428Y-75456428D01*
X218631428Y-75456428D02*
X218488571Y-75456428D01*
X218202856Y-74456428D02*
X217631428Y-74456428D01*
X217988571Y-73956428D02*
X217988571Y-75242142D01*
X217988571Y-75242142D02*
X217917142Y-75385000D01*
X217917142Y-75385000D02*
X217774285Y-75456428D01*
X217774285Y-75456428D02*
X217631428Y-75456428D01*
X217131428Y-74456428D02*
X217131428Y-75956428D01*
X217131428Y-74527857D02*
X216988571Y-74456428D01*
X216988571Y-74456428D02*
X216702856Y-74456428D01*
X216702856Y-74456428D02*
X216559999Y-74527857D01*
X216559999Y-74527857D02*
X216488571Y-74599285D01*
X216488571Y-74599285D02*
X216417142Y-74742142D01*
X216417142Y-74742142D02*
X216417142Y-75170714D01*
X216417142Y-75170714D02*
X216488571Y-75313571D01*
X216488571Y-75313571D02*
X216559999Y-75385000D01*
X216559999Y-75385000D02*
X216702856Y-75456428D01*
X216702856Y-75456428D02*
X216988571Y-75456428D01*
X216988571Y-75456428D02*
X217131428Y-75385000D01*
X215845713Y-75385000D02*
X215702856Y-75456428D01*
X215702856Y-75456428D02*
X215417142Y-75456428D01*
X215417142Y-75456428D02*
X215274285Y-75385000D01*
X215274285Y-75385000D02*
X215202856Y-75242142D01*
X215202856Y-75242142D02*
X215202856Y-75170714D01*
X215202856Y-75170714D02*
X215274285Y-75027857D01*
X215274285Y-75027857D02*
X215417142Y-74956428D01*
X215417142Y-74956428D02*
X215631428Y-74956428D01*
X215631428Y-74956428D02*
X215774285Y-74885000D01*
X215774285Y-74885000D02*
X215845713Y-74742142D01*
X215845713Y-74742142D02*
X215845713Y-74670714D01*
X215845713Y-74670714D02*
X215774285Y-74527857D01*
X215774285Y-74527857D02*
X215631428Y-74456428D01*
X215631428Y-74456428D02*
X215417142Y-74456428D01*
X215417142Y-74456428D02*
X215274285Y-74527857D01*
X214559999Y-75313571D02*
X214488570Y-75385000D01*
X214488570Y-75385000D02*
X214559999Y-75456428D01*
X214559999Y-75456428D02*
X214631427Y-75385000D01*
X214631427Y-75385000D02*
X214559999Y-75313571D01*
X214559999Y-75313571D02*
X214559999Y-75456428D01*
X214559999Y-74527857D02*
X214488570Y-74599285D01*
X214488570Y-74599285D02*
X214559999Y-74670714D01*
X214559999Y-74670714D02*
X214631427Y-74599285D01*
X214631427Y-74599285D02*
X214559999Y-74527857D01*
X214559999Y-74527857D02*
X214559999Y-74670714D01*
X212774284Y-73885000D02*
X214059998Y-75813571D01*
X211202855Y-73885000D02*
X212488569Y-75813571D01*
X210702855Y-75456428D02*
X210702855Y-73956428D01*
X210059998Y-75456428D02*
X210059998Y-74670714D01*
X210059998Y-74670714D02*
X210131426Y-74527857D01*
X210131426Y-74527857D02*
X210274283Y-74456428D01*
X210274283Y-74456428D02*
X210488569Y-74456428D01*
X210488569Y-74456428D02*
X210631426Y-74527857D01*
X210631426Y-74527857D02*
X210702855Y-74599285D01*
X208702855Y-75456428D02*
X208702855Y-74670714D01*
X208702855Y-74670714D02*
X208774283Y-74527857D01*
X208774283Y-74527857D02*
X208917140Y-74456428D01*
X208917140Y-74456428D02*
X209202855Y-74456428D01*
X209202855Y-74456428D02*
X209345712Y-74527857D01*
X208702855Y-75385000D02*
X208845712Y-75456428D01*
X208845712Y-75456428D02*
X209202855Y-75456428D01*
X209202855Y-75456428D02*
X209345712Y-75385000D01*
X209345712Y-75385000D02*
X209417140Y-75242142D01*
X209417140Y-75242142D02*
X209417140Y-75099285D01*
X209417140Y-75099285D02*
X209345712Y-74956428D01*
X209345712Y-74956428D02*
X209202855Y-74885000D01*
X209202855Y-74885000D02*
X208845712Y-74885000D01*
X208845712Y-74885000D02*
X208702855Y-74813571D01*
X207345712Y-75385000D02*
X207488569Y-75456428D01*
X207488569Y-75456428D02*
X207774283Y-75456428D01*
X207774283Y-75456428D02*
X207917140Y-75385000D01*
X207917140Y-75385000D02*
X207988569Y-75313571D01*
X207988569Y-75313571D02*
X208059997Y-75170714D01*
X208059997Y-75170714D02*
X208059997Y-74742142D01*
X208059997Y-74742142D02*
X207988569Y-74599285D01*
X207988569Y-74599285D02*
X207917140Y-74527857D01*
X207917140Y-74527857D02*
X207774283Y-74456428D01*
X207774283Y-74456428D02*
X207488569Y-74456428D01*
X207488569Y-74456428D02*
X207345712Y-74527857D01*
X206702855Y-75456428D02*
X206702855Y-74456428D01*
X206702855Y-74742142D02*
X206631426Y-74599285D01*
X206631426Y-74599285D02*
X206559998Y-74527857D01*
X206559998Y-74527857D02*
X206417140Y-74456428D01*
X206417140Y-74456428D02*
X206274283Y-74456428D01*
X205131427Y-75456428D02*
X205131427Y-74670714D01*
X205131427Y-74670714D02*
X205202855Y-74527857D01*
X205202855Y-74527857D02*
X205345712Y-74456428D01*
X205345712Y-74456428D02*
X205631427Y-74456428D01*
X205631427Y-74456428D02*
X205774284Y-74527857D01*
X205131427Y-75385000D02*
X205274284Y-75456428D01*
X205274284Y-75456428D02*
X205631427Y-75456428D01*
X205631427Y-75456428D02*
X205774284Y-75385000D01*
X205774284Y-75385000D02*
X205845712Y-75242142D01*
X205845712Y-75242142D02*
X205845712Y-75099285D01*
X205845712Y-75099285D02*
X205774284Y-74956428D01*
X205774284Y-74956428D02*
X205631427Y-74885000D01*
X205631427Y-74885000D02*
X205274284Y-74885000D01*
X205274284Y-74885000D02*
X205131427Y-74813571D01*
X204631426Y-74456428D02*
X204059998Y-74456428D01*
X204417141Y-75456428D02*
X204417141Y-74170714D01*
X204417141Y-74170714D02*
X204345712Y-74027857D01*
X204345712Y-74027857D02*
X204202855Y-73956428D01*
X204202855Y-73956428D02*
X204059998Y-73956428D01*
X202917141Y-74456428D02*
X202917141Y-75456428D01*
X203559998Y-74456428D02*
X203559998Y-75242142D01*
X203559998Y-75242142D02*
X203488569Y-75385000D01*
X203488569Y-75385000D02*
X203345712Y-75456428D01*
X203345712Y-75456428D02*
X203131426Y-75456428D01*
X203131426Y-75456428D02*
X202988569Y-75385000D01*
X202988569Y-75385000D02*
X202917141Y-75313571D01*
X202202855Y-75313571D02*
X202131426Y-75385000D01*
X202131426Y-75385000D02*
X202202855Y-75456428D01*
X202202855Y-75456428D02*
X202274283Y-75385000D01*
X202274283Y-75385000D02*
X202202855Y-75313571D01*
X202202855Y-75313571D02*
X202202855Y-75456428D01*
X200845712Y-75456428D02*
X200845712Y-73956428D01*
X200845712Y-75385000D02*
X200988569Y-75456428D01*
X200988569Y-75456428D02*
X201274283Y-75456428D01*
X201274283Y-75456428D02*
X201417140Y-75385000D01*
X201417140Y-75385000D02*
X201488569Y-75313571D01*
X201488569Y-75313571D02*
X201559997Y-75170714D01*
X201559997Y-75170714D02*
X201559997Y-74742142D01*
X201559997Y-74742142D02*
X201488569Y-74599285D01*
X201488569Y-74599285D02*
X201417140Y-74527857D01*
X201417140Y-74527857D02*
X201274283Y-74456428D01*
X201274283Y-74456428D02*
X200988569Y-74456428D01*
X200988569Y-74456428D02*
X200845712Y-74527857D01*
X199559997Y-75385000D02*
X199702854Y-75456428D01*
X199702854Y-75456428D02*
X199988569Y-75456428D01*
X199988569Y-75456428D02*
X200131426Y-75385000D01*
X200131426Y-75385000D02*
X200202854Y-75242142D01*
X200202854Y-75242142D02*
X200202854Y-74670714D01*
X200202854Y-74670714D02*
X200131426Y-74527857D01*
X200131426Y-74527857D02*
X199988569Y-74456428D01*
X199988569Y-74456428D02*
X199702854Y-74456428D01*
X199702854Y-74456428D02*
X199559997Y-74527857D01*
X199559997Y-74527857D02*
X199488569Y-74670714D01*
X199488569Y-74670714D02*
X199488569Y-74813571D01*
X199488569Y-74813571D02*
X200202854Y-74956428D01*
X197774283Y-73885000D02*
X199059997Y-75813571D01*
X197274283Y-75456428D02*
X197274283Y-73956428D01*
X197131426Y-74885000D02*
X196702854Y-75456428D01*
X196702854Y-74456428D02*
X197274283Y-75027857D01*
X196059997Y-75456428D02*
X196059997Y-74456428D01*
X196059997Y-73956428D02*
X196131425Y-74027857D01*
X196131425Y-74027857D02*
X196059997Y-74099285D01*
X196059997Y-74099285D02*
X195988568Y-74027857D01*
X195988568Y-74027857D02*
X196059997Y-73956428D01*
X196059997Y-73956428D02*
X196059997Y-74099285D01*
X195559996Y-74456428D02*
X194988568Y-74456428D01*
X195345711Y-73956428D02*
X195345711Y-75242142D01*
X195345711Y-75242142D02*
X195274282Y-75385000D01*
X195274282Y-75385000D02*
X195131425Y-75456428D01*
X195131425Y-75456428D02*
X194988568Y-75456428D01*
X194559996Y-75385000D02*
X194417139Y-75456428D01*
X194417139Y-75456428D02*
X194131425Y-75456428D01*
X194131425Y-75456428D02*
X193988568Y-75385000D01*
X193988568Y-75385000D02*
X193917139Y-75242142D01*
X193917139Y-75242142D02*
X193917139Y-75170714D01*
X193917139Y-75170714D02*
X193988568Y-75027857D01*
X193988568Y-75027857D02*
X194131425Y-74956428D01*
X194131425Y-74956428D02*
X194345711Y-74956428D01*
X194345711Y-74956428D02*
X194488568Y-74885000D01*
X194488568Y-74885000D02*
X194559996Y-74742142D01*
X194559996Y-74742142D02*
X194559996Y-74670714D01*
X194559996Y-74670714D02*
X194488568Y-74527857D01*
X194488568Y-74527857D02*
X194345711Y-74456428D01*
X194345711Y-74456428D02*
X194131425Y-74456428D01*
X194131425Y-74456428D02*
X193988568Y-74527857D01*
D12*
X214391428Y-87743928D02*
X214391428Y-88958214D01*
X214391428Y-88958214D02*
X214462856Y-89101071D01*
X214462856Y-89101071D02*
X214534285Y-89172500D01*
X214534285Y-89172500D02*
X214677142Y-89243928D01*
X214677142Y-89243928D02*
X214891428Y-89243928D01*
X214891428Y-89243928D02*
X215034285Y-89172500D01*
X214391428Y-88672500D02*
X214534285Y-88743928D01*
X214534285Y-88743928D02*
X214819999Y-88743928D01*
X214819999Y-88743928D02*
X214962856Y-88672500D01*
X214962856Y-88672500D02*
X215034285Y-88601071D01*
X215034285Y-88601071D02*
X215105713Y-88458214D01*
X215105713Y-88458214D02*
X215105713Y-88029642D01*
X215105713Y-88029642D02*
X215034285Y-87886785D01*
X215034285Y-87886785D02*
X214962856Y-87815357D01*
X214962856Y-87815357D02*
X214819999Y-87743928D01*
X214819999Y-87743928D02*
X214534285Y-87743928D01*
X214534285Y-87743928D02*
X214391428Y-87815357D01*
X213677142Y-88743928D02*
X213677142Y-87743928D01*
X213677142Y-88029642D02*
X213605713Y-87886785D01*
X213605713Y-87886785D02*
X213534285Y-87815357D01*
X213534285Y-87815357D02*
X213391427Y-87743928D01*
X213391427Y-87743928D02*
X213248570Y-87743928D01*
X212177142Y-88672500D02*
X212319999Y-88743928D01*
X212319999Y-88743928D02*
X212605714Y-88743928D01*
X212605714Y-88743928D02*
X212748571Y-88672500D01*
X212748571Y-88672500D02*
X212819999Y-88529642D01*
X212819999Y-88529642D02*
X212819999Y-87958214D01*
X212819999Y-87958214D02*
X212748571Y-87815357D01*
X212748571Y-87815357D02*
X212605714Y-87743928D01*
X212605714Y-87743928D02*
X212319999Y-87743928D01*
X212319999Y-87743928D02*
X212177142Y-87815357D01*
X212177142Y-87815357D02*
X212105714Y-87958214D01*
X212105714Y-87958214D02*
X212105714Y-88101071D01*
X212105714Y-88101071D02*
X212819999Y-88243928D01*
X210891428Y-88672500D02*
X211034285Y-88743928D01*
X211034285Y-88743928D02*
X211320000Y-88743928D01*
X211320000Y-88743928D02*
X211462857Y-88672500D01*
X211462857Y-88672500D02*
X211534285Y-88529642D01*
X211534285Y-88529642D02*
X211534285Y-87958214D01*
X211534285Y-87958214D02*
X211462857Y-87815357D01*
X211462857Y-87815357D02*
X211320000Y-87743928D01*
X211320000Y-87743928D02*
X211034285Y-87743928D01*
X211034285Y-87743928D02*
X210891428Y-87815357D01*
X210891428Y-87815357D02*
X210820000Y-87958214D01*
X210820000Y-87958214D02*
X210820000Y-88101071D01*
X210820000Y-88101071D02*
X211534285Y-88243928D01*
X210177143Y-87743928D02*
X210177143Y-88743928D01*
X210177143Y-87886785D02*
X210105714Y-87815357D01*
X210105714Y-87815357D02*
X209962857Y-87743928D01*
X209962857Y-87743928D02*
X209748571Y-87743928D01*
X209748571Y-87743928D02*
X209605714Y-87815357D01*
X209605714Y-87815357D02*
X209534286Y-87958214D01*
X209534286Y-87958214D02*
X209534286Y-88743928D01*
X207748571Y-88315357D02*
X207034286Y-88315357D01*
X207891428Y-88743928D02*
X207391428Y-87243928D01*
X207391428Y-87243928D02*
X206891428Y-88743928D01*
X228289999Y-88773928D02*
X228289999Y-87773928D01*
X228289999Y-88059642D02*
X228218570Y-87916785D01*
X228218570Y-87916785D02*
X228147142Y-87845357D01*
X228147142Y-87845357D02*
X228004284Y-87773928D01*
X228004284Y-87773928D02*
X227861427Y-87773928D01*
X226789999Y-88702500D02*
X226932856Y-88773928D01*
X226932856Y-88773928D02*
X227218571Y-88773928D01*
X227218571Y-88773928D02*
X227361428Y-88702500D01*
X227361428Y-88702500D02*
X227432856Y-88559642D01*
X227432856Y-88559642D02*
X227432856Y-87988214D01*
X227432856Y-87988214D02*
X227361428Y-87845357D01*
X227361428Y-87845357D02*
X227218571Y-87773928D01*
X227218571Y-87773928D02*
X226932856Y-87773928D01*
X226932856Y-87773928D02*
X226789999Y-87845357D01*
X226789999Y-87845357D02*
X226718571Y-87988214D01*
X226718571Y-87988214D02*
X226718571Y-88131071D01*
X226718571Y-88131071D02*
X227432856Y-88273928D01*
X225432857Y-88773928D02*
X225432857Y-87273928D01*
X225432857Y-88702500D02*
X225575714Y-88773928D01*
X225575714Y-88773928D02*
X225861428Y-88773928D01*
X225861428Y-88773928D02*
X226004285Y-88702500D01*
X226004285Y-88702500D02*
X226075714Y-88631071D01*
X226075714Y-88631071D02*
X226147142Y-88488214D01*
X226147142Y-88488214D02*
X226147142Y-88059642D01*
X226147142Y-88059642D02*
X226075714Y-87916785D01*
X226075714Y-87916785D02*
X226004285Y-87845357D01*
X226004285Y-87845357D02*
X225861428Y-87773928D01*
X225861428Y-87773928D02*
X225575714Y-87773928D01*
X225575714Y-87773928D02*
X225432857Y-87845357D01*
X223075714Y-87988214D02*
X222861428Y-88059642D01*
X222861428Y-88059642D02*
X222789999Y-88131071D01*
X222789999Y-88131071D02*
X222718571Y-88273928D01*
X222718571Y-88273928D02*
X222718571Y-88488214D01*
X222718571Y-88488214D02*
X222789999Y-88631071D01*
X222789999Y-88631071D02*
X222861428Y-88702500D01*
X222861428Y-88702500D02*
X223004285Y-88773928D01*
X223004285Y-88773928D02*
X223575714Y-88773928D01*
X223575714Y-88773928D02*
X223575714Y-87273928D01*
X223575714Y-87273928D02*
X223075714Y-87273928D01*
X223075714Y-87273928D02*
X222932857Y-87345357D01*
X222932857Y-87345357D02*
X222861428Y-87416785D01*
X222861428Y-87416785D02*
X222789999Y-87559642D01*
X222789999Y-87559642D02*
X222789999Y-87702500D01*
X222789999Y-87702500D02*
X222861428Y-87845357D01*
X222861428Y-87845357D02*
X222932857Y-87916785D01*
X222932857Y-87916785D02*
X223075714Y-87988214D01*
X223075714Y-87988214D02*
X223575714Y-87988214D01*
D11*
X247167142Y-82886428D02*
X246881428Y-82886428D01*
X246881428Y-82886428D02*
X246738571Y-82957857D01*
X246738571Y-82957857D02*
X246595714Y-83100714D01*
X246595714Y-83100714D02*
X246524285Y-83386428D01*
X246524285Y-83386428D02*
X246524285Y-83886428D01*
X246524285Y-83886428D02*
X246595714Y-84172142D01*
X246595714Y-84172142D02*
X246738571Y-84315000D01*
X246738571Y-84315000D02*
X246881428Y-84386428D01*
X246881428Y-84386428D02*
X247167142Y-84386428D01*
X247167142Y-84386428D02*
X247310000Y-84315000D01*
X247310000Y-84315000D02*
X247452857Y-84172142D01*
X247452857Y-84172142D02*
X247524285Y-83886428D01*
X247524285Y-83886428D02*
X247524285Y-83386428D01*
X247524285Y-83386428D02*
X247452857Y-83100714D01*
X247452857Y-83100714D02*
X247310000Y-82957857D01*
X247310000Y-82957857D02*
X247167142Y-82886428D01*
X245881428Y-84386428D02*
X245881428Y-82886428D01*
X245881428Y-82886428D02*
X245024285Y-84386428D01*
X245024285Y-84386428D02*
X245024285Y-82886428D01*
X242881427Y-82886428D02*
X242595713Y-82886428D01*
X242595713Y-82886428D02*
X242452856Y-82957857D01*
X242452856Y-82957857D02*
X242309999Y-83100714D01*
X242309999Y-83100714D02*
X242238570Y-83386428D01*
X242238570Y-83386428D02*
X242238570Y-83886428D01*
X242238570Y-83886428D02*
X242309999Y-84172142D01*
X242309999Y-84172142D02*
X242452856Y-84315000D01*
X242452856Y-84315000D02*
X242595713Y-84386428D01*
X242595713Y-84386428D02*
X242881427Y-84386428D01*
X242881427Y-84386428D02*
X243024285Y-84315000D01*
X243024285Y-84315000D02*
X243167142Y-84172142D01*
X243167142Y-84172142D02*
X243238570Y-83886428D01*
X243238570Y-83886428D02*
X243238570Y-83386428D01*
X243238570Y-83386428D02*
X243167142Y-83100714D01*
X243167142Y-83100714D02*
X243024285Y-82957857D01*
X243024285Y-82957857D02*
X242881427Y-82886428D01*
X241095713Y-83600714D02*
X241595713Y-83600714D01*
X241595713Y-84386428D02*
X241595713Y-82886428D01*
X241595713Y-82886428D02*
X240881427Y-82886428D01*
X239809999Y-83600714D02*
X240309999Y-83600714D01*
X240309999Y-84386428D02*
X240309999Y-82886428D01*
X240309999Y-82886428D02*
X239595713Y-82886428D01*
D12*
X228742856Y-106733928D02*
X228742856Y-105733928D01*
X228742856Y-106019642D02*
X228671427Y-105876785D01*
X228671427Y-105876785D02*
X228599999Y-105805357D01*
X228599999Y-105805357D02*
X228457141Y-105733928D01*
X228457141Y-105733928D02*
X228314284Y-105733928D01*
X227242856Y-106662500D02*
X227385713Y-106733928D01*
X227385713Y-106733928D02*
X227671428Y-106733928D01*
X227671428Y-106733928D02*
X227814285Y-106662500D01*
X227814285Y-106662500D02*
X227885713Y-106519642D01*
X227885713Y-106519642D02*
X227885713Y-105948214D01*
X227885713Y-105948214D02*
X227814285Y-105805357D01*
X227814285Y-105805357D02*
X227671428Y-105733928D01*
X227671428Y-105733928D02*
X227385713Y-105733928D01*
X227385713Y-105733928D02*
X227242856Y-105805357D01*
X227242856Y-105805357D02*
X227171428Y-105948214D01*
X227171428Y-105948214D02*
X227171428Y-106091071D01*
X227171428Y-106091071D02*
X227885713Y-106233928D01*
X225885714Y-106733928D02*
X225885714Y-105233928D01*
X225885714Y-106662500D02*
X226028571Y-106733928D01*
X226028571Y-106733928D02*
X226314285Y-106733928D01*
X226314285Y-106733928D02*
X226457142Y-106662500D01*
X226457142Y-106662500D02*
X226528571Y-106591071D01*
X226528571Y-106591071D02*
X226599999Y-106448214D01*
X226599999Y-106448214D02*
X226599999Y-106019642D01*
X226599999Y-106019642D02*
X226528571Y-105876785D01*
X226528571Y-105876785D02*
X226457142Y-105805357D01*
X226457142Y-105805357D02*
X226314285Y-105733928D01*
X226314285Y-105733928D02*
X226028571Y-105733928D01*
X226028571Y-105733928D02*
X225885714Y-105805357D01*
X224099999Y-106305357D02*
X223385714Y-106305357D01*
X224242856Y-106733928D02*
X223742856Y-105233928D01*
X223742856Y-105233928D02*
X223242856Y-106733928D01*
X214048571Y-105593928D02*
X214048571Y-106808214D01*
X214048571Y-106808214D02*
X214119999Y-106951071D01*
X214119999Y-106951071D02*
X214191428Y-107022500D01*
X214191428Y-107022500D02*
X214334285Y-107093928D01*
X214334285Y-107093928D02*
X214548571Y-107093928D01*
X214548571Y-107093928D02*
X214691428Y-107022500D01*
X214048571Y-106522500D02*
X214191428Y-106593928D01*
X214191428Y-106593928D02*
X214477142Y-106593928D01*
X214477142Y-106593928D02*
X214619999Y-106522500D01*
X214619999Y-106522500D02*
X214691428Y-106451071D01*
X214691428Y-106451071D02*
X214762856Y-106308214D01*
X214762856Y-106308214D02*
X214762856Y-105879642D01*
X214762856Y-105879642D02*
X214691428Y-105736785D01*
X214691428Y-105736785D02*
X214619999Y-105665357D01*
X214619999Y-105665357D02*
X214477142Y-105593928D01*
X214477142Y-105593928D02*
X214191428Y-105593928D01*
X214191428Y-105593928D02*
X214048571Y-105665357D01*
X213334285Y-106593928D02*
X213334285Y-105593928D01*
X213334285Y-105879642D02*
X213262856Y-105736785D01*
X213262856Y-105736785D02*
X213191428Y-105665357D01*
X213191428Y-105665357D02*
X213048570Y-105593928D01*
X213048570Y-105593928D02*
X212905713Y-105593928D01*
X211834285Y-106522500D02*
X211977142Y-106593928D01*
X211977142Y-106593928D02*
X212262857Y-106593928D01*
X212262857Y-106593928D02*
X212405714Y-106522500D01*
X212405714Y-106522500D02*
X212477142Y-106379642D01*
X212477142Y-106379642D02*
X212477142Y-105808214D01*
X212477142Y-105808214D02*
X212405714Y-105665357D01*
X212405714Y-105665357D02*
X212262857Y-105593928D01*
X212262857Y-105593928D02*
X211977142Y-105593928D01*
X211977142Y-105593928D02*
X211834285Y-105665357D01*
X211834285Y-105665357D02*
X211762857Y-105808214D01*
X211762857Y-105808214D02*
X211762857Y-105951071D01*
X211762857Y-105951071D02*
X212477142Y-106093928D01*
X210548571Y-106522500D02*
X210691428Y-106593928D01*
X210691428Y-106593928D02*
X210977143Y-106593928D01*
X210977143Y-106593928D02*
X211120000Y-106522500D01*
X211120000Y-106522500D02*
X211191428Y-106379642D01*
X211191428Y-106379642D02*
X211191428Y-105808214D01*
X211191428Y-105808214D02*
X211120000Y-105665357D01*
X211120000Y-105665357D02*
X210977143Y-105593928D01*
X210977143Y-105593928D02*
X210691428Y-105593928D01*
X210691428Y-105593928D02*
X210548571Y-105665357D01*
X210548571Y-105665357D02*
X210477143Y-105808214D01*
X210477143Y-105808214D02*
X210477143Y-105951071D01*
X210477143Y-105951071D02*
X211191428Y-106093928D01*
X209834286Y-105593928D02*
X209834286Y-106593928D01*
X209834286Y-105736785D02*
X209762857Y-105665357D01*
X209762857Y-105665357D02*
X209620000Y-105593928D01*
X209620000Y-105593928D02*
X209405714Y-105593928D01*
X209405714Y-105593928D02*
X209262857Y-105665357D01*
X209262857Y-105665357D02*
X209191429Y-105808214D01*
X209191429Y-105808214D02*
X209191429Y-106593928D01*
X206834286Y-105808214D02*
X206620000Y-105879642D01*
X206620000Y-105879642D02*
X206548571Y-105951071D01*
X206548571Y-105951071D02*
X206477143Y-106093928D01*
X206477143Y-106093928D02*
X206477143Y-106308214D01*
X206477143Y-106308214D02*
X206548571Y-106451071D01*
X206548571Y-106451071D02*
X206620000Y-106522500D01*
X206620000Y-106522500D02*
X206762857Y-106593928D01*
X206762857Y-106593928D02*
X207334286Y-106593928D01*
X207334286Y-106593928D02*
X207334286Y-105093928D01*
X207334286Y-105093928D02*
X206834286Y-105093928D01*
X206834286Y-105093928D02*
X206691429Y-105165357D01*
X206691429Y-105165357D02*
X206620000Y-105236785D01*
X206620000Y-105236785D02*
X206548571Y-105379642D01*
X206548571Y-105379642D02*
X206548571Y-105522500D01*
X206548571Y-105522500D02*
X206620000Y-105665357D01*
X206620000Y-105665357D02*
X206691429Y-105736785D01*
X206691429Y-105736785D02*
X206834286Y-105808214D01*
X206834286Y-105808214D02*
X207334286Y-105808214D01*
X249483333Y-104507619D02*
X249483333Y-103507619D01*
X249483333Y-104460000D02*
X249578571Y-104507619D01*
X249578571Y-104507619D02*
X249769047Y-104507619D01*
X249769047Y-104507619D02*
X249864285Y-104460000D01*
X249864285Y-104460000D02*
X249911904Y-104412380D01*
X249911904Y-104412380D02*
X249959523Y-104317142D01*
X249959523Y-104317142D02*
X249959523Y-104031428D01*
X249959523Y-104031428D02*
X249911904Y-103936190D01*
X249911904Y-103936190D02*
X249864285Y-103888571D01*
X249864285Y-103888571D02*
X249769047Y-103840952D01*
X249769047Y-103840952D02*
X249578571Y-103840952D01*
X249578571Y-103840952D02*
X249483333Y-103888571D01*
X248864285Y-104507619D02*
X248959523Y-104460000D01*
X248959523Y-104460000D02*
X249007142Y-104412380D01*
X249007142Y-104412380D02*
X249054761Y-104317142D01*
X249054761Y-104317142D02*
X249054761Y-104031428D01*
X249054761Y-104031428D02*
X249007142Y-103936190D01*
X249007142Y-103936190D02*
X248959523Y-103888571D01*
X248959523Y-103888571D02*
X248864285Y-103840952D01*
X248864285Y-103840952D02*
X248721428Y-103840952D01*
X248721428Y-103840952D02*
X248626190Y-103888571D01*
X248626190Y-103888571D02*
X248578571Y-103936190D01*
X248578571Y-103936190D02*
X248530952Y-104031428D01*
X248530952Y-104031428D02*
X248530952Y-104317142D01*
X248530952Y-104317142D02*
X248578571Y-104412380D01*
X248578571Y-104412380D02*
X248626190Y-104460000D01*
X248626190Y-104460000D02*
X248721428Y-104507619D01*
X248721428Y-104507619D02*
X248864285Y-104507619D01*
X247340475Y-103840952D02*
X247340475Y-104507619D01*
X247340475Y-103936190D02*
X247292856Y-103888571D01*
X247292856Y-103888571D02*
X247197618Y-103840952D01*
X247197618Y-103840952D02*
X247054761Y-103840952D01*
X247054761Y-103840952D02*
X246959523Y-103888571D01*
X246959523Y-103888571D02*
X246911904Y-103983809D01*
X246911904Y-103983809D02*
X246911904Y-104507619D01*
X246292856Y-104507619D02*
X246388094Y-104460000D01*
X246388094Y-104460000D02*
X246435713Y-104412380D01*
X246435713Y-104412380D02*
X246483332Y-104317142D01*
X246483332Y-104317142D02*
X246483332Y-104031428D01*
X246483332Y-104031428D02*
X246435713Y-103936190D01*
X246435713Y-103936190D02*
X246388094Y-103888571D01*
X246388094Y-103888571D02*
X246292856Y-103840952D01*
X246292856Y-103840952D02*
X246149999Y-103840952D01*
X246149999Y-103840952D02*
X246054761Y-103888571D01*
X246054761Y-103888571D02*
X246007142Y-103936190D01*
X246007142Y-103936190D02*
X245959523Y-104031428D01*
X245959523Y-104031428D02*
X245959523Y-104317142D01*
X245959523Y-104317142D02*
X246007142Y-104412380D01*
X246007142Y-104412380D02*
X246054761Y-104460000D01*
X246054761Y-104460000D02*
X246149999Y-104507619D01*
X246149999Y-104507619D02*
X246292856Y-104507619D01*
X245673808Y-103840952D02*
X245292856Y-103840952D01*
X245530951Y-103507619D02*
X245530951Y-104364761D01*
X245530951Y-104364761D02*
X245483332Y-104460000D01*
X245483332Y-104460000D02*
X245388094Y-104507619D01*
X245388094Y-104507619D02*
X245292856Y-104507619D01*
X243769046Y-103840952D02*
X243769046Y-104507619D01*
X244197617Y-103840952D02*
X244197617Y-104364761D01*
X244197617Y-104364761D02*
X244149998Y-104460000D01*
X244149998Y-104460000D02*
X244054760Y-104507619D01*
X244054760Y-104507619D02*
X243911903Y-104507619D01*
X243911903Y-104507619D02*
X243816665Y-104460000D01*
X243816665Y-104460000D02*
X243769046Y-104412380D01*
X243340474Y-104460000D02*
X243245236Y-104507619D01*
X243245236Y-104507619D02*
X243054760Y-104507619D01*
X243054760Y-104507619D02*
X242959522Y-104460000D01*
X242959522Y-104460000D02*
X242911903Y-104364761D01*
X242911903Y-104364761D02*
X242911903Y-104317142D01*
X242911903Y-104317142D02*
X242959522Y-104221904D01*
X242959522Y-104221904D02*
X243054760Y-104174285D01*
X243054760Y-104174285D02*
X243197617Y-104174285D01*
X243197617Y-104174285D02*
X243292855Y-104126666D01*
X243292855Y-104126666D02*
X243340474Y-104031428D01*
X243340474Y-104031428D02*
X243340474Y-103983809D01*
X243340474Y-103983809D02*
X243292855Y-103888571D01*
X243292855Y-103888571D02*
X243197617Y-103840952D01*
X243197617Y-103840952D02*
X243054760Y-103840952D01*
X243054760Y-103840952D02*
X242959522Y-103888571D01*
X242102379Y-104460000D02*
X242197617Y-104507619D01*
X242197617Y-104507619D02*
X242388093Y-104507619D01*
X242388093Y-104507619D02*
X242483331Y-104460000D01*
X242483331Y-104460000D02*
X242530950Y-104364761D01*
X242530950Y-104364761D02*
X242530950Y-103983809D01*
X242530950Y-103983809D02*
X242483331Y-103888571D01*
X242483331Y-103888571D02*
X242388093Y-103840952D01*
X242388093Y-103840952D02*
X242197617Y-103840952D01*
X242197617Y-103840952D02*
X242102379Y-103888571D01*
X242102379Y-103888571D02*
X242054760Y-103983809D01*
X242054760Y-103983809D02*
X242054760Y-104079047D01*
X242054760Y-104079047D02*
X242530950Y-104174285D01*
X249911904Y-106127619D02*
X249911904Y-105460952D01*
X249911904Y-105651428D02*
X249864285Y-105556190D01*
X249864285Y-105556190D02*
X249816666Y-105508571D01*
X249816666Y-105508571D02*
X249721428Y-105460952D01*
X249721428Y-105460952D02*
X249626190Y-105460952D01*
X248911904Y-106080000D02*
X249007142Y-106127619D01*
X249007142Y-106127619D02*
X249197618Y-106127619D01*
X249197618Y-106127619D02*
X249292856Y-106080000D01*
X249292856Y-106080000D02*
X249340475Y-105984761D01*
X249340475Y-105984761D02*
X249340475Y-105603809D01*
X249340475Y-105603809D02*
X249292856Y-105508571D01*
X249292856Y-105508571D02*
X249197618Y-105460952D01*
X249197618Y-105460952D02*
X249007142Y-105460952D01*
X249007142Y-105460952D02*
X248911904Y-105508571D01*
X248911904Y-105508571D02*
X248864285Y-105603809D01*
X248864285Y-105603809D02*
X248864285Y-105699047D01*
X248864285Y-105699047D02*
X249340475Y-105794285D01*
X248007142Y-106080000D02*
X248102380Y-106127619D01*
X248102380Y-106127619D02*
X248292856Y-106127619D01*
X248292856Y-106127619D02*
X248388094Y-106080000D01*
X248388094Y-106080000D02*
X248435713Y-106032380D01*
X248435713Y-106032380D02*
X248483332Y-105937142D01*
X248483332Y-105937142D02*
X248483332Y-105651428D01*
X248483332Y-105651428D02*
X248435713Y-105556190D01*
X248435713Y-105556190D02*
X248388094Y-105508571D01*
X248388094Y-105508571D02*
X248292856Y-105460952D01*
X248292856Y-105460952D02*
X248102380Y-105460952D01*
X248102380Y-105460952D02*
X248007142Y-105508571D01*
X247578570Y-106127619D02*
X247578570Y-105127619D01*
X247149999Y-106127619D02*
X247149999Y-105603809D01*
X247149999Y-105603809D02*
X247197618Y-105508571D01*
X247197618Y-105508571D02*
X247292856Y-105460952D01*
X247292856Y-105460952D02*
X247435713Y-105460952D01*
X247435713Y-105460952D02*
X247530951Y-105508571D01*
X247530951Y-105508571D02*
X247578570Y-105556190D01*
X246245237Y-106127619D02*
X246245237Y-105603809D01*
X246245237Y-105603809D02*
X246292856Y-105508571D01*
X246292856Y-105508571D02*
X246388094Y-105460952D01*
X246388094Y-105460952D02*
X246578570Y-105460952D01*
X246578570Y-105460952D02*
X246673808Y-105508571D01*
X246245237Y-106080000D02*
X246340475Y-106127619D01*
X246340475Y-106127619D02*
X246578570Y-106127619D01*
X246578570Y-106127619D02*
X246673808Y-106080000D01*
X246673808Y-106080000D02*
X246721427Y-105984761D01*
X246721427Y-105984761D02*
X246721427Y-105889523D01*
X246721427Y-105889523D02*
X246673808Y-105794285D01*
X246673808Y-105794285D02*
X246578570Y-105746666D01*
X246578570Y-105746666D02*
X246340475Y-105746666D01*
X246340475Y-105746666D02*
X246245237Y-105699047D01*
X245769046Y-106127619D02*
X245769046Y-105460952D01*
X245769046Y-105651428D02*
X245721427Y-105556190D01*
X245721427Y-105556190D02*
X245673808Y-105508571D01*
X245673808Y-105508571D02*
X245578570Y-105460952D01*
X245578570Y-105460952D02*
X245483332Y-105460952D01*
X244721427Y-105460952D02*
X244721427Y-106270476D01*
X244721427Y-106270476D02*
X244769046Y-106365714D01*
X244769046Y-106365714D02*
X244816665Y-106413333D01*
X244816665Y-106413333D02*
X244911903Y-106460952D01*
X244911903Y-106460952D02*
X245054760Y-106460952D01*
X245054760Y-106460952D02*
X245149998Y-106413333D01*
X244721427Y-106080000D02*
X244816665Y-106127619D01*
X244816665Y-106127619D02*
X245007141Y-106127619D01*
X245007141Y-106127619D02*
X245102379Y-106080000D01*
X245102379Y-106080000D02*
X245149998Y-106032380D01*
X245149998Y-106032380D02*
X245197617Y-105937142D01*
X245197617Y-105937142D02*
X245197617Y-105651428D01*
X245197617Y-105651428D02*
X245149998Y-105556190D01*
X245149998Y-105556190D02*
X245102379Y-105508571D01*
X245102379Y-105508571D02*
X245007141Y-105460952D01*
X245007141Y-105460952D02*
X244816665Y-105460952D01*
X244816665Y-105460952D02*
X244721427Y-105508571D01*
X243864284Y-106080000D02*
X243959522Y-106127619D01*
X243959522Y-106127619D02*
X244149998Y-106127619D01*
X244149998Y-106127619D02*
X244245236Y-106080000D01*
X244245236Y-106080000D02*
X244292855Y-105984761D01*
X244292855Y-105984761D02*
X244292855Y-105603809D01*
X244292855Y-105603809D02*
X244245236Y-105508571D01*
X244245236Y-105508571D02*
X244149998Y-105460952D01*
X244149998Y-105460952D02*
X243959522Y-105460952D01*
X243959522Y-105460952D02*
X243864284Y-105508571D01*
X243864284Y-105508571D02*
X243816665Y-105603809D01*
X243816665Y-105603809D02*
X243816665Y-105699047D01*
X243816665Y-105699047D02*
X244292855Y-105794285D01*
X242959522Y-106127619D02*
X242959522Y-105603809D01*
X242959522Y-105603809D02*
X243007141Y-105508571D01*
X243007141Y-105508571D02*
X243102379Y-105460952D01*
X243102379Y-105460952D02*
X243292855Y-105460952D01*
X243292855Y-105460952D02*
X243388093Y-105508571D01*
X242959522Y-106080000D02*
X243054760Y-106127619D01*
X243054760Y-106127619D02*
X243292855Y-106127619D01*
X243292855Y-106127619D02*
X243388093Y-106080000D01*
X243388093Y-106080000D02*
X243435712Y-105984761D01*
X243435712Y-105984761D02*
X243435712Y-105889523D01*
X243435712Y-105889523D02*
X243388093Y-105794285D01*
X243388093Y-105794285D02*
X243292855Y-105746666D01*
X243292855Y-105746666D02*
X243054760Y-105746666D01*
X243054760Y-105746666D02*
X242959522Y-105699047D01*
X242483331Y-106127619D02*
X242483331Y-105127619D01*
X242483331Y-105508571D02*
X242388093Y-105460952D01*
X242388093Y-105460952D02*
X242197617Y-105460952D01*
X242197617Y-105460952D02*
X242102379Y-105508571D01*
X242102379Y-105508571D02*
X242054760Y-105556190D01*
X242054760Y-105556190D02*
X242007141Y-105651428D01*
X242007141Y-105651428D02*
X242007141Y-105937142D01*
X242007141Y-105937142D02*
X242054760Y-106032380D01*
X242054760Y-106032380D02*
X242102379Y-106080000D01*
X242102379Y-106080000D02*
X242197617Y-106127619D01*
X242197617Y-106127619D02*
X242388093Y-106127619D01*
X242388093Y-106127619D02*
X242483331Y-106080000D01*
X241435712Y-106127619D02*
X241530950Y-106080000D01*
X241530950Y-106080000D02*
X241578569Y-105984761D01*
X241578569Y-105984761D02*
X241578569Y-105127619D01*
X240673807Y-106080000D02*
X240769045Y-106127619D01*
X240769045Y-106127619D02*
X240959521Y-106127619D01*
X240959521Y-106127619D02*
X241054759Y-106080000D01*
X241054759Y-106080000D02*
X241102378Y-105984761D01*
X241102378Y-105984761D02*
X241102378Y-105603809D01*
X241102378Y-105603809D02*
X241054759Y-105508571D01*
X241054759Y-105508571D02*
X240959521Y-105460952D01*
X240959521Y-105460952D02*
X240769045Y-105460952D01*
X240769045Y-105460952D02*
X240673807Y-105508571D01*
X240673807Y-105508571D02*
X240626188Y-105603809D01*
X240626188Y-105603809D02*
X240626188Y-105699047D01*
X240626188Y-105699047D02*
X241102378Y-105794285D01*
X239435711Y-106127619D02*
X239435711Y-105127619D01*
X239435711Y-105508571D02*
X239340473Y-105460952D01*
X239340473Y-105460952D02*
X239149997Y-105460952D01*
X239149997Y-105460952D02*
X239054759Y-105508571D01*
X239054759Y-105508571D02*
X239007140Y-105556190D01*
X239007140Y-105556190D02*
X238959521Y-105651428D01*
X238959521Y-105651428D02*
X238959521Y-105937142D01*
X238959521Y-105937142D02*
X239007140Y-106032380D01*
X239007140Y-106032380D02*
X239054759Y-106080000D01*
X239054759Y-106080000D02*
X239149997Y-106127619D01*
X239149997Y-106127619D02*
X239340473Y-106127619D01*
X239340473Y-106127619D02*
X239435711Y-106080000D01*
X238102378Y-106127619D02*
X238102378Y-105603809D01*
X238102378Y-105603809D02*
X238149997Y-105508571D01*
X238149997Y-105508571D02*
X238245235Y-105460952D01*
X238245235Y-105460952D02*
X238435711Y-105460952D01*
X238435711Y-105460952D02*
X238530949Y-105508571D01*
X238102378Y-106080000D02*
X238197616Y-106127619D01*
X238197616Y-106127619D02*
X238435711Y-106127619D01*
X238435711Y-106127619D02*
X238530949Y-106080000D01*
X238530949Y-106080000D02*
X238578568Y-105984761D01*
X238578568Y-105984761D02*
X238578568Y-105889523D01*
X238578568Y-105889523D02*
X238530949Y-105794285D01*
X238530949Y-105794285D02*
X238435711Y-105746666D01*
X238435711Y-105746666D02*
X238197616Y-105746666D01*
X238197616Y-105746666D02*
X238102378Y-105699047D01*
X237769044Y-105460952D02*
X237388092Y-105460952D01*
X237626187Y-105127619D02*
X237626187Y-105984761D01*
X237626187Y-105984761D02*
X237578568Y-106080000D01*
X237578568Y-106080000D02*
X237483330Y-106127619D01*
X237483330Y-106127619D02*
X237388092Y-106127619D01*
X237197615Y-105460952D02*
X236816663Y-105460952D01*
X237054758Y-105127619D02*
X237054758Y-105984761D01*
X237054758Y-105984761D02*
X237007139Y-106080000D01*
X237007139Y-106080000D02*
X236911901Y-106127619D01*
X236911901Y-106127619D02*
X236816663Y-106127619D01*
X236102377Y-106080000D02*
X236197615Y-106127619D01*
X236197615Y-106127619D02*
X236388091Y-106127619D01*
X236388091Y-106127619D02*
X236483329Y-106080000D01*
X236483329Y-106080000D02*
X236530948Y-105984761D01*
X236530948Y-105984761D02*
X236530948Y-105603809D01*
X236530948Y-105603809D02*
X236483329Y-105508571D01*
X236483329Y-105508571D02*
X236388091Y-105460952D01*
X236388091Y-105460952D02*
X236197615Y-105460952D01*
X236197615Y-105460952D02*
X236102377Y-105508571D01*
X236102377Y-105508571D02*
X236054758Y-105603809D01*
X236054758Y-105603809D02*
X236054758Y-105699047D01*
X236054758Y-105699047D02*
X236530948Y-105794285D01*
X235626186Y-106127619D02*
X235626186Y-105460952D01*
X235626186Y-105651428D02*
X235578567Y-105556190D01*
X235578567Y-105556190D02*
X235530948Y-105508571D01*
X235530948Y-105508571D02*
X235435710Y-105460952D01*
X235435710Y-105460952D02*
X235340472Y-105460952D01*
X235007138Y-106127619D02*
X235007138Y-105460952D01*
X235007138Y-105127619D02*
X235054757Y-105175238D01*
X235054757Y-105175238D02*
X235007138Y-105222857D01*
X235007138Y-105222857D02*
X234959519Y-105175238D01*
X234959519Y-105175238D02*
X235007138Y-105127619D01*
X235007138Y-105127619D02*
X235007138Y-105222857D01*
X234149996Y-106080000D02*
X234245234Y-106127619D01*
X234245234Y-106127619D02*
X234435710Y-106127619D01*
X234435710Y-106127619D02*
X234530948Y-106080000D01*
X234530948Y-106080000D02*
X234578567Y-105984761D01*
X234578567Y-105984761D02*
X234578567Y-105603809D01*
X234578567Y-105603809D02*
X234530948Y-105508571D01*
X234530948Y-105508571D02*
X234435710Y-105460952D01*
X234435710Y-105460952D02*
X234245234Y-105460952D01*
X234245234Y-105460952D02*
X234149996Y-105508571D01*
X234149996Y-105508571D02*
X234102377Y-105603809D01*
X234102377Y-105603809D02*
X234102377Y-105699047D01*
X234102377Y-105699047D02*
X234578567Y-105794285D01*
X233721424Y-106080000D02*
X233626186Y-106127619D01*
X233626186Y-106127619D02*
X233435710Y-106127619D01*
X233435710Y-106127619D02*
X233340472Y-106080000D01*
X233340472Y-106080000D02*
X233292853Y-105984761D01*
X233292853Y-105984761D02*
X233292853Y-105937142D01*
X233292853Y-105937142D02*
X233340472Y-105841904D01*
X233340472Y-105841904D02*
X233435710Y-105794285D01*
X233435710Y-105794285D02*
X233578567Y-105794285D01*
X233578567Y-105794285D02*
X233673805Y-105746666D01*
X233673805Y-105746666D02*
X233721424Y-105651428D01*
X233721424Y-105651428D02*
X233721424Y-105603809D01*
X233721424Y-105603809D02*
X233673805Y-105508571D01*
X233673805Y-105508571D02*
X233578567Y-105460952D01*
X233578567Y-105460952D02*
X233435710Y-105460952D01*
X233435710Y-105460952D02*
X233340472Y-105508571D01*
D13*
X216316666Y-80697380D02*
X216364285Y-80745000D01*
X216364285Y-80745000D02*
X216507142Y-80792619D01*
X216507142Y-80792619D02*
X216602380Y-80792619D01*
X216602380Y-80792619D02*
X216745237Y-80745000D01*
X216745237Y-80745000D02*
X216840475Y-80649761D01*
X216840475Y-80649761D02*
X216888094Y-80554523D01*
X216888094Y-80554523D02*
X216935713Y-80364047D01*
X216935713Y-80364047D02*
X216935713Y-80221190D01*
X216935713Y-80221190D02*
X216888094Y-80030714D01*
X216888094Y-80030714D02*
X216840475Y-79935476D01*
X216840475Y-79935476D02*
X216745237Y-79840238D01*
X216745237Y-79840238D02*
X216602380Y-79792619D01*
X216602380Y-79792619D02*
X216507142Y-79792619D01*
X216507142Y-79792619D02*
X216364285Y-79840238D01*
X216364285Y-79840238D02*
X216316666Y-79887857D01*
X215364285Y-80792619D02*
X215935713Y-80792619D01*
X215649999Y-80792619D02*
X215649999Y-79792619D01*
X215649999Y-79792619D02*
X215745237Y-79935476D01*
X215745237Y-79935476D02*
X215840475Y-80030714D01*
X215840475Y-80030714D02*
X215935713Y-80078333D01*
X195138094Y-60912619D02*
X195138094Y-59912619D01*
X195138094Y-59912619D02*
X194899999Y-59912619D01*
X194899999Y-59912619D02*
X194757142Y-59960238D01*
X194757142Y-59960238D02*
X194661904Y-60055476D01*
X194661904Y-60055476D02*
X194614285Y-60150714D01*
X194614285Y-60150714D02*
X194566666Y-60341190D01*
X194566666Y-60341190D02*
X194566666Y-60484047D01*
X194566666Y-60484047D02*
X194614285Y-60674523D01*
X194614285Y-60674523D02*
X194661904Y-60769761D01*
X194661904Y-60769761D02*
X194757142Y-60865000D01*
X194757142Y-60865000D02*
X194899999Y-60912619D01*
X194899999Y-60912619D02*
X195138094Y-60912619D01*
X193614285Y-60912619D02*
X194185713Y-60912619D01*
X193899999Y-60912619D02*
X193899999Y-59912619D01*
X193899999Y-59912619D02*
X193995237Y-60055476D01*
X193995237Y-60055476D02*
X194090475Y-60150714D01*
X194090475Y-60150714D02*
X194185713Y-60198333D01*
X230368094Y-60812619D02*
X230368094Y-59812619D01*
X230368094Y-59812619D02*
X230129999Y-59812619D01*
X230129999Y-59812619D02*
X229987142Y-59860238D01*
X229987142Y-59860238D02*
X229891904Y-59955476D01*
X229891904Y-59955476D02*
X229844285Y-60050714D01*
X229844285Y-60050714D02*
X229796666Y-60241190D01*
X229796666Y-60241190D02*
X229796666Y-60384047D01*
X229796666Y-60384047D02*
X229844285Y-60574523D01*
X229844285Y-60574523D02*
X229891904Y-60669761D01*
X229891904Y-60669761D02*
X229987142Y-60765000D01*
X229987142Y-60765000D02*
X230129999Y-60812619D01*
X230129999Y-60812619D02*
X230368094Y-60812619D01*
X229415713Y-59907857D02*
X229368094Y-59860238D01*
X229368094Y-59860238D02*
X229272856Y-59812619D01*
X229272856Y-59812619D02*
X229034761Y-59812619D01*
X229034761Y-59812619D02*
X228939523Y-59860238D01*
X228939523Y-59860238D02*
X228891904Y-59907857D01*
X228891904Y-59907857D02*
X228844285Y-60003095D01*
X228844285Y-60003095D02*
X228844285Y-60098333D01*
X228844285Y-60098333D02*
X228891904Y-60241190D01*
X228891904Y-60241190D02*
X229463332Y-60812619D01*
X229463332Y-60812619D02*
X228844285Y-60812619D01*
X232028094Y-81102619D02*
X232028094Y-80102619D01*
X232028094Y-80102619D02*
X231789999Y-80102619D01*
X231789999Y-80102619D02*
X231647142Y-80150238D01*
X231647142Y-80150238D02*
X231551904Y-80245476D01*
X231551904Y-80245476D02*
X231504285Y-80340714D01*
X231504285Y-80340714D02*
X231456666Y-80531190D01*
X231456666Y-80531190D02*
X231456666Y-80674047D01*
X231456666Y-80674047D02*
X231504285Y-80864523D01*
X231504285Y-80864523D02*
X231551904Y-80959761D01*
X231551904Y-80959761D02*
X231647142Y-81055000D01*
X231647142Y-81055000D02*
X231789999Y-81102619D01*
X231789999Y-81102619D02*
X232028094Y-81102619D01*
X231123332Y-80102619D02*
X230504285Y-80102619D01*
X230504285Y-80102619D02*
X230837618Y-80483571D01*
X230837618Y-80483571D02*
X230694761Y-80483571D01*
X230694761Y-80483571D02*
X230599523Y-80531190D01*
X230599523Y-80531190D02*
X230551904Y-80578809D01*
X230551904Y-80578809D02*
X230504285Y-80674047D01*
X230504285Y-80674047D02*
X230504285Y-80912142D01*
X230504285Y-80912142D02*
X230551904Y-81007380D01*
X230551904Y-81007380D02*
X230599523Y-81055000D01*
X230599523Y-81055000D02*
X230694761Y-81102619D01*
X230694761Y-81102619D02*
X230980475Y-81102619D01*
X230980475Y-81102619D02*
X231075713Y-81055000D01*
X231075713Y-81055000D02*
X231123332Y-81007380D01*
X209955238Y-78047857D02*
X210050476Y-78000238D01*
X210050476Y-78000238D02*
X210145714Y-77905000D01*
X210145714Y-77905000D02*
X210288571Y-77762142D01*
X210288571Y-77762142D02*
X210383809Y-77714523D01*
X210383809Y-77714523D02*
X210479047Y-77714523D01*
X210431428Y-77952619D02*
X210526666Y-77905000D01*
X210526666Y-77905000D02*
X210621904Y-77809761D01*
X210621904Y-77809761D02*
X210669523Y-77619285D01*
X210669523Y-77619285D02*
X210669523Y-77285952D01*
X210669523Y-77285952D02*
X210621904Y-77095476D01*
X210621904Y-77095476D02*
X210526666Y-77000238D01*
X210526666Y-77000238D02*
X210431428Y-76952619D01*
X210431428Y-76952619D02*
X210240952Y-76952619D01*
X210240952Y-76952619D02*
X210145714Y-77000238D01*
X210145714Y-77000238D02*
X210050476Y-77095476D01*
X210050476Y-77095476D02*
X210002857Y-77285952D01*
X210002857Y-77285952D02*
X210002857Y-77619285D01*
X210002857Y-77619285D02*
X210050476Y-77809761D01*
X210050476Y-77809761D02*
X210145714Y-77905000D01*
X210145714Y-77905000D02*
X210240952Y-77952619D01*
X210240952Y-77952619D02*
X210431428Y-77952619D01*
X209050476Y-77952619D02*
X209621904Y-77952619D01*
X209336190Y-77952619D02*
X209336190Y-76952619D01*
X209336190Y-76952619D02*
X209431428Y-77095476D01*
X209431428Y-77095476D02*
X209526666Y-77190714D01*
X209526666Y-77190714D02*
X209621904Y-77238333D01*
X218711904Y-96062619D02*
X218140476Y-96062619D01*
X218426190Y-97062619D02*
X218426190Y-96062619D01*
X217283333Y-97062619D02*
X217854761Y-97062619D01*
X217569047Y-97062619D02*
X217569047Y-96062619D01*
X217569047Y-96062619D02*
X217664285Y-96205476D01*
X217664285Y-96205476D02*
X217759523Y-96300714D01*
X217759523Y-96300714D02*
X217854761Y-96348333D01*
X206571427Y-104463928D02*
X207428570Y-104463928D01*
X206999999Y-104463928D02*
X206999999Y-102963928D01*
X206999999Y-102963928D02*
X207142856Y-103178214D01*
X207142856Y-103178214D02*
X207285713Y-103321071D01*
X207285713Y-103321071D02*
X207428570Y-103392500D01*
X228084285Y-103803928D02*
X228084285Y-104803928D01*
X228441427Y-103232500D02*
X228798570Y-104303928D01*
X228798570Y-104303928D02*
X227869999Y-104303928D01*
X207808570Y-89556785D02*
X207737142Y-89485357D01*
X207737142Y-89485357D02*
X207594285Y-89413928D01*
X207594285Y-89413928D02*
X207237142Y-89413928D01*
X207237142Y-89413928D02*
X207094285Y-89485357D01*
X207094285Y-89485357D02*
X207022856Y-89556785D01*
X207022856Y-89556785D02*
X206951427Y-89699642D01*
X206951427Y-89699642D02*
X206951427Y-89842500D01*
X206951427Y-89842500D02*
X207022856Y-90056785D01*
X207022856Y-90056785D02*
X207879999Y-90913928D01*
X207879999Y-90913928D02*
X206951427Y-90913928D01*
X228329999Y-89373928D02*
X227401427Y-89373928D01*
X227401427Y-89373928D02*
X227901427Y-89945357D01*
X227901427Y-89945357D02*
X227687142Y-89945357D01*
X227687142Y-89945357D02*
X227544285Y-90016785D01*
X227544285Y-90016785D02*
X227472856Y-90088214D01*
X227472856Y-90088214D02*
X227401427Y-90231071D01*
X227401427Y-90231071D02*
X227401427Y-90588214D01*
X227401427Y-90588214D02*
X227472856Y-90731071D01*
X227472856Y-90731071D02*
X227544285Y-90802500D01*
X227544285Y-90802500D02*
X227687142Y-90873928D01*
X227687142Y-90873928D02*
X228115713Y-90873928D01*
X228115713Y-90873928D02*
X228258570Y-90802500D01*
X228258570Y-90802500D02*
X228329999Y-90731071D01*
X197876666Y-99152619D02*
X198209999Y-98676428D01*
X198448094Y-99152619D02*
X198448094Y-98152619D01*
X198448094Y-98152619D02*
X198067142Y-98152619D01*
X198067142Y-98152619D02*
X197971904Y-98200238D01*
X197971904Y-98200238D02*
X197924285Y-98247857D01*
X197924285Y-98247857D02*
X197876666Y-98343095D01*
X197876666Y-98343095D02*
X197876666Y-98485952D01*
X197876666Y-98485952D02*
X197924285Y-98581190D01*
X197924285Y-98581190D02*
X197971904Y-98628809D01*
X197971904Y-98628809D02*
X198067142Y-98676428D01*
X198067142Y-98676428D02*
X198448094Y-98676428D01*
X196924285Y-99152619D02*
X197495713Y-99152619D01*
X197209999Y-99152619D02*
X197209999Y-98152619D01*
X197209999Y-98152619D02*
X197305237Y-98295476D01*
X197305237Y-98295476D02*
X197400475Y-98390714D01*
X197400475Y-98390714D02*
X197495713Y-98438333D01*
X250293332Y-92885000D02*
X250150475Y-92932619D01*
X250150475Y-92932619D02*
X249912380Y-92932619D01*
X249912380Y-92932619D02*
X249817142Y-92885000D01*
X249817142Y-92885000D02*
X249769523Y-92837380D01*
X249769523Y-92837380D02*
X249721904Y-92742142D01*
X249721904Y-92742142D02*
X249721904Y-92646904D01*
X249721904Y-92646904D02*
X249769523Y-92551666D01*
X249769523Y-92551666D02*
X249817142Y-92504047D01*
X249817142Y-92504047D02*
X249912380Y-92456428D01*
X249912380Y-92456428D02*
X250102856Y-92408809D01*
X250102856Y-92408809D02*
X250198094Y-92361190D01*
X250198094Y-92361190D02*
X250245713Y-92313571D01*
X250245713Y-92313571D02*
X250293332Y-92218333D01*
X250293332Y-92218333D02*
X250293332Y-92123095D01*
X250293332Y-92123095D02*
X250245713Y-92027857D01*
X250245713Y-92027857D02*
X250198094Y-91980238D01*
X250198094Y-91980238D02*
X250102856Y-91932619D01*
X250102856Y-91932619D02*
X249864761Y-91932619D01*
X249864761Y-91932619D02*
X249721904Y-91980238D01*
X249388570Y-91932619D02*
X249150475Y-92932619D01*
X249150475Y-92932619D02*
X248959999Y-92218333D01*
X248959999Y-92218333D02*
X248769523Y-92932619D01*
X248769523Y-92932619D02*
X248531428Y-91932619D01*
X248198094Y-92027857D02*
X248150475Y-91980238D01*
X248150475Y-91980238D02*
X248055237Y-91932619D01*
X248055237Y-91932619D02*
X247817142Y-91932619D01*
X247817142Y-91932619D02*
X247721904Y-91980238D01*
X247721904Y-91980238D02*
X247674285Y-92027857D01*
X247674285Y-92027857D02*
X247626666Y-92123095D01*
X247626666Y-92123095D02*
X247626666Y-92218333D01*
X247626666Y-92218333D02*
X247674285Y-92361190D01*
X247674285Y-92361190D02*
X248245713Y-92932619D01*
X248245713Y-92932619D02*
X247626666Y-92932619D01*
D14*
X226352518Y-47471663D02*
X226960551Y-47573236D01*
X227543498Y-47753410D01*
X228094788Y-48008166D01*
X228607849Y-48333488D01*
X229076109Y-48725357D01*
X229492997Y-49179756D01*
X229768466Y-49559897D01*
X230072062Y-50100551D01*
X230297393Y-50665998D01*
X230444574Y-51249013D01*
X230513720Y-51842370D01*
X230504946Y-52438845D01*
X230418366Y-53031211D01*
X230254095Y-53612243D01*
X230012247Y-54174716D01*
X229692938Y-54711404D01*
X229686610Y-54720598D01*
X229307234Y-55197584D01*
X228871607Y-55615455D01*
X228387306Y-55970725D01*
X227861905Y-56259910D01*
X227302981Y-56479523D01*
X226718108Y-56626079D01*
X226114862Y-56696094D01*
X225500819Y-56686082D01*
X225428728Y-56679531D01*
X224818124Y-56576906D01*
X224224305Y-56392012D01*
X223651588Y-56126323D01*
X223425484Y-55995367D01*
X223179392Y-55823317D01*
X222909526Y-55599749D01*
X222636915Y-55344981D01*
X222382593Y-55079333D01*
X222167591Y-54823124D01*
X222065755Y-54681693D01*
X221975202Y-54553271D01*
X221900650Y-54462176D01*
X221854646Y-54423247D01*
X221848067Y-54424165D01*
X221820995Y-54427473D01*
X221820000Y-54419964D01*
X221841618Y-54380025D01*
X221904456Y-54272886D01*
X222005491Y-54103537D01*
X222141701Y-53876964D01*
X222310064Y-53598157D01*
X222507555Y-53272103D01*
X222731153Y-52903790D01*
X222977835Y-52498207D01*
X223244578Y-52060341D01*
X223528359Y-51595180D01*
X223826155Y-51107714D01*
X223943613Y-50915623D01*
X226067226Y-47443551D01*
X226352518Y-47471663D01*
G36*
X226352518Y-47471663D02*
G01*
X226960551Y-47573236D01*
X227543498Y-47753410D01*
X228094788Y-48008166D01*
X228607849Y-48333488D01*
X229076109Y-48725357D01*
X229492997Y-49179756D01*
X229768466Y-49559897D01*
X230072062Y-50100551D01*
X230297393Y-50665998D01*
X230444574Y-51249013D01*
X230513720Y-51842370D01*
X230504946Y-52438845D01*
X230418366Y-53031211D01*
X230254095Y-53612243D01*
X230012247Y-54174716D01*
X229692938Y-54711404D01*
X229686610Y-54720598D01*
X229307234Y-55197584D01*
X228871607Y-55615455D01*
X228387306Y-55970725D01*
X227861905Y-56259910D01*
X227302981Y-56479523D01*
X226718108Y-56626079D01*
X226114862Y-56696094D01*
X225500819Y-56686082D01*
X225428728Y-56679531D01*
X224818124Y-56576906D01*
X224224305Y-56392012D01*
X223651588Y-56126323D01*
X223425484Y-55995367D01*
X223179392Y-55823317D01*
X222909526Y-55599749D01*
X222636915Y-55344981D01*
X222382593Y-55079333D01*
X222167591Y-54823124D01*
X222065755Y-54681693D01*
X221975202Y-54553271D01*
X221900650Y-54462176D01*
X221854646Y-54423247D01*
X221848067Y-54424165D01*
X221820995Y-54427473D01*
X221820000Y-54419964D01*
X221841618Y-54380025D01*
X221904456Y-54272886D01*
X222005491Y-54103537D01*
X222141701Y-53876964D01*
X222310064Y-53598157D01*
X222507555Y-53272103D01*
X222731153Y-52903790D01*
X222977835Y-52498207D01*
X223244578Y-52060341D01*
X223528359Y-51595180D01*
X223826155Y-51107714D01*
X223943613Y-50915623D01*
X226067226Y-47443551D01*
X226352518Y-47471663D01*
G37*
X200154515Y-50860955D02*
X200453706Y-51350054D01*
X200740425Y-51819122D01*
X201011570Y-52263062D01*
X201264037Y-52676775D01*
X201494723Y-53055167D01*
X201700524Y-53393138D01*
X201878337Y-53685592D01*
X202025060Y-53927433D01*
X202137588Y-54113563D01*
X202212818Y-54238884D01*
X202247648Y-54298301D01*
X202249632Y-54302142D01*
X202240967Y-54379439D01*
X202179124Y-54503488D01*
X202073107Y-54663575D01*
X201931918Y-54848989D01*
X201764559Y-55049017D01*
X201580033Y-55252946D01*
X201387342Y-55450064D01*
X201195490Y-55629658D01*
X201013478Y-55781015D01*
X200995033Y-55795038D01*
X200511739Y-56107702D01*
X199980549Y-56358893D01*
X199415558Y-56544808D01*
X198830862Y-56661643D01*
X198240554Y-56705594D01*
X197716909Y-56679776D01*
X197107453Y-56570307D01*
X196525541Y-56383603D01*
X195977662Y-56124186D01*
X195470307Y-55796577D01*
X195009964Y-55405298D01*
X194603123Y-54954872D01*
X194256273Y-54449820D01*
X194096852Y-54157272D01*
X193880778Y-53653126D01*
X193719479Y-53124277D01*
X193618695Y-52593887D01*
X193584166Y-52088622D01*
X193607783Y-51701764D01*
X193673954Y-51275836D01*
X193775656Y-50840401D01*
X193905868Y-50425022D01*
X194057568Y-50059263D01*
X194074218Y-50025418D01*
X194318330Y-49606104D01*
X194622873Y-49192560D01*
X194970985Y-48803230D01*
X195345806Y-48456555D01*
X195730473Y-48170978D01*
X195821926Y-48113855D01*
X196219860Y-47903820D01*
X196649876Y-47728069D01*
X197088475Y-47594025D01*
X197512157Y-47509113D01*
X197823492Y-47481575D01*
X198082055Y-47474288D01*
X200154515Y-50860955D01*
G36*
X200154515Y-50860955D02*
G01*
X200453706Y-51350054D01*
X200740425Y-51819122D01*
X201011570Y-52263062D01*
X201264037Y-52676775D01*
X201494723Y-53055167D01*
X201700524Y-53393138D01*
X201878337Y-53685592D01*
X202025060Y-53927433D01*
X202137588Y-54113563D01*
X202212818Y-54238884D01*
X202247648Y-54298301D01*
X202249632Y-54302142D01*
X202240967Y-54379439D01*
X202179124Y-54503488D01*
X202073107Y-54663575D01*
X201931918Y-54848989D01*
X201764559Y-55049017D01*
X201580033Y-55252946D01*
X201387342Y-55450064D01*
X201195490Y-55629658D01*
X201013478Y-55781015D01*
X200995033Y-55795038D01*
X200511739Y-56107702D01*
X199980549Y-56358893D01*
X199415558Y-56544808D01*
X198830862Y-56661643D01*
X198240554Y-56705594D01*
X197716909Y-56679776D01*
X197107453Y-56570307D01*
X196525541Y-56383603D01*
X195977662Y-56124186D01*
X195470307Y-55796577D01*
X195009964Y-55405298D01*
X194603123Y-54954872D01*
X194256273Y-54449820D01*
X194096852Y-54157272D01*
X193880778Y-53653126D01*
X193719479Y-53124277D01*
X193618695Y-52593887D01*
X193584166Y-52088622D01*
X193607783Y-51701764D01*
X193673954Y-51275836D01*
X193775656Y-50840401D01*
X193905868Y-50425022D01*
X194057568Y-50059263D01*
X194074218Y-50025418D01*
X194318330Y-49606104D01*
X194622873Y-49192560D01*
X194970985Y-48803230D01*
X195345806Y-48456555D01*
X195730473Y-48170978D01*
X195821926Y-48113855D01*
X196219860Y-47903820D01*
X196649876Y-47728069D01*
X197088475Y-47594025D01*
X197512157Y-47509113D01*
X197823492Y-47481575D01*
X198082055Y-47474288D01*
X200154515Y-50860955D01*
G37*
G36*
G01*
X220060000Y-82445000D02*
X218760000Y-82445000D01*
G75*
G02*
X218510000Y-82195000I0J250000D01*
G01*
X218510000Y-81370000D01*
G75*
G02*
X218760000Y-81120000I250000J0D01*
G01*
X220060000Y-81120000D01*
G75*
G02*
X220310000Y-81370000I0J-250000D01*
G01*
X220310000Y-82195000D01*
G75*
G02*
X220060000Y-82445000I-250000J0D01*
G01*
G37*
G36*
G01*
X220060000Y-79320000D02*
X218760000Y-79320000D01*
G75*
G02*
X218510000Y-79070000I0J250000D01*
G01*
X218510000Y-78245000D01*
G75*
G02*
X218760000Y-77995000I250000J0D01*
G01*
X220060000Y-77995000D01*
G75*
G02*
X220310000Y-78245000I0J-250000D01*
G01*
X220310000Y-79070000D01*
G75*
G02*
X220060000Y-79320000I-250000J0D01*
G01*
G37*
D15*
X196450000Y-64620000D03*
X199390000Y-64620000D03*
X224610000Y-64520000D03*
X227550000Y-64520000D03*
D16*
X227852500Y-83390000D03*
X227852500Y-77890000D03*
D17*
X206640000Y-82280000D03*
X204740000Y-82280000D03*
X205690000Y-78880000D03*
G36*
G01*
X210450000Y-102600000D02*
X210450000Y-100600000D01*
G75*
G02*
X211450000Y-99600000I1000000J0D01*
G01*
X213450000Y-99600000D01*
G75*
G02*
X214450000Y-100600000I0J-1000000D01*
G01*
X214450000Y-102600000D01*
G75*
G02*
X213450000Y-103600000I-1000000J0D01*
G01*
X211450000Y-103600000D01*
G75*
G02*
X210450000Y-102600000I0J1000000D01*
G01*
G37*
G36*
G01*
X210450000Y-93500000D02*
X210450000Y-91500000D01*
G75*
G02*
X211450000Y-90500000I1000000J0D01*
G01*
X213450000Y-90500000D01*
G75*
G02*
X214450000Y-91500000I0J-1000000D01*
G01*
X214450000Y-93500000D01*
G75*
G02*
X213450000Y-94500000I-1000000J0D01*
G01*
X211450000Y-94500000D01*
G75*
G02*
X210450000Y-93500000I0J1000000D01*
G01*
G37*
G36*
G01*
X221450000Y-93600000D02*
X221450000Y-91600000D01*
G75*
G02*
X222450000Y-90600000I1000000J0D01*
G01*
X224450000Y-90600000D01*
G75*
G02*
X225450000Y-91600000I0J-1000000D01*
G01*
X225450000Y-93600000D01*
G75*
G02*
X224450000Y-94600000I-1000000J0D01*
G01*
X222450000Y-94600000D01*
G75*
G02*
X221450000Y-93600000I0J1000000D01*
G01*
G37*
G36*
G01*
X221450000Y-102600000D02*
X221450000Y-100600000D01*
G75*
G02*
X222450000Y-99600000I1000000J0D01*
G01*
X224450000Y-99600000D01*
G75*
G02*
X225450000Y-100600000I0J-1000000D01*
G01*
X225450000Y-102600000D01*
G75*
G02*
X224450000Y-103600000I-1000000J0D01*
G01*
X222450000Y-103600000D01*
G75*
G02*
X221450000Y-102600000I0J1000000D01*
G01*
G37*
G36*
G01*
X199825000Y-96500000D02*
X201075000Y-96500000D01*
G75*
G02*
X201325000Y-96750000I0J-250000D01*
G01*
X201325000Y-97550000D01*
G75*
G02*
X201075000Y-97800000I-250000J0D01*
G01*
X199825000Y-97800000D01*
G75*
G02*
X199575000Y-97550000I0J250000D01*
G01*
X199575000Y-96750000D01*
G75*
G02*
X199825000Y-96500000I250000J0D01*
G01*
G37*
G36*
G01*
X199825000Y-99600000D02*
X201075000Y-99600000D01*
G75*
G02*
X201325000Y-99850000I0J-250000D01*
G01*
X201325000Y-100650000D01*
G75*
G02*
X201075000Y-100900000I-250000J0D01*
G01*
X199825000Y-100900000D01*
G75*
G02*
X199575000Y-100650000I0J250000D01*
G01*
X199575000Y-99850000D01*
G75*
G02*
X199825000Y-99600000I250000J0D01*
G01*
G37*
G36*
X256000046Y-118697520D02*
G01*
X255962992Y-118646520D01*
X255958000Y-118615000D01*
X255958000Y-112265000D01*
X255977480Y-112205046D01*
X256028480Y-112167992D01*
X256060000Y-112163000D01*
X261360000Y-112163000D01*
X261419954Y-112182480D01*
X261432125Y-112192875D01*
X263972125Y-114732875D01*
X264000744Y-114789044D01*
X264002000Y-114805000D01*
X264002000Y-118615000D01*
X263982520Y-118674954D01*
X263931520Y-118712008D01*
X263900000Y-118717000D01*
X256060000Y-118717000D01*
X256000046Y-118697520D01*
G37*
G36*
X192790046Y-118697520D02*
G01*
X192752992Y-118646520D01*
X192748000Y-118615000D01*
X192748000Y-114805000D01*
X192767480Y-114745046D01*
X192777875Y-114732875D01*
X195317875Y-112192875D01*
X195374044Y-112164256D01*
X195390000Y-112163000D01*
X200690000Y-112163000D01*
X200749954Y-112182480D01*
X200787008Y-112233480D01*
X200792000Y-112265000D01*
X200792000Y-118615000D01*
X200772520Y-118674954D01*
X200721520Y-118712008D01*
X200690000Y-118717000D01*
X192850000Y-118717000D01*
X192790046Y-118697520D01*
G37*
D18*
X240990000Y-95720000D03*
X243490000Y-95720000D03*
X245990000Y-95720000D03*
X240990000Y-88970000D03*
X243490000Y-88970000D03*
X245990000Y-88970000D03*
M02*
