G04 #@! TF.GenerationSoftware,KiCad,Pcbnew,7.0.2.1-36-g582732918d-dirty-deb11*
G04 #@! TF.CreationDate,2024-01-19T22:58:02+00:00*
G04 #@! TF.ProjectId,owlThief,6f776c54-6869-4656-962e-6b696361645f,rev?*
G04 #@! TF.SameCoordinates,Original*
G04 #@! TF.FileFunction,Soldermask,Top*
G04 #@! TF.FilePolarity,Negative*
%FSLAX46Y46*%
G04 Gerber Fmt 4.6, Leading zero omitted, Abs format (unit mm)*
G04 Created by KiCad (PCBNEW 7.0.2.1-36-g582732918d-dirty-deb11) date 2024-01-19 22:58:02*
%MOMM*%
%LPD*%
G01*
G04 APERTURE LIST*
%ADD10C,0.010000*%
G04 APERTURE END LIST*
D10*
X200160127Y-99756206D02*
X200468743Y-99877634D01*
X200751053Y-100071661D01*
X200871655Y-100188250D01*
X201024922Y-100366469D01*
X201137690Y-100536243D01*
X201218396Y-100718651D01*
X201275479Y-100934771D01*
X201317374Y-101205681D01*
X201332276Y-101338994D01*
X201406374Y-101713553D01*
X201546130Y-102034872D01*
X201752424Y-102304232D01*
X202026138Y-102522914D01*
X202219667Y-102628712D01*
X202539908Y-102735652D01*
X202871799Y-102765781D01*
X203201169Y-102722920D01*
X203513848Y-102610891D01*
X203795665Y-102433516D01*
X204032450Y-102194616D01*
X204082573Y-102126273D01*
X204202858Y-101924292D01*
X204287101Y-101711212D01*
X204343429Y-101461449D01*
X204375004Y-101205819D01*
X204446327Y-100826641D01*
X204583097Y-100491496D01*
X204780749Y-100206941D01*
X205034713Y-99979536D01*
X205340424Y-99815840D01*
X205343797Y-99814520D01*
X205610891Y-99741794D01*
X205902386Y-99714655D01*
X206188094Y-99733153D01*
X206437825Y-99797340D01*
X206474167Y-99812635D01*
X206764279Y-99966697D01*
X206988380Y-100141291D01*
X207145939Y-100323505D01*
X207277069Y-100531848D01*
X207369021Y-100747724D01*
X207430872Y-100997676D01*
X207467171Y-101262614D01*
X207541667Y-101659725D01*
X207677142Y-101998304D01*
X207873980Y-102278949D01*
X208132562Y-102502260D01*
X208332093Y-102616066D01*
X208662791Y-102731008D01*
X208999004Y-102767290D01*
X209329030Y-102729150D01*
X209641168Y-102620823D01*
X209923716Y-102446549D01*
X210164973Y-102210563D01*
X210353236Y-101917105D01*
X210372125Y-101877326D01*
X210449354Y-101646406D01*
X210504986Y-101340751D01*
X210517000Y-101237621D01*
X210568134Y-100904786D01*
X210650394Y-100633480D01*
X210772259Y-100403652D01*
X210942207Y-100195251D01*
X210969466Y-100167496D01*
X211250989Y-99941201D01*
X211563616Y-99788796D01*
X211896883Y-99713341D01*
X212240328Y-99717899D01*
X212401740Y-99748417D01*
X212752753Y-99874787D01*
X213050161Y-100064190D01*
X213288861Y-100310515D01*
X213463749Y-100607650D01*
X213569723Y-100949484D01*
X213598624Y-101181916D01*
X213590110Y-101671814D01*
X213511887Y-102184577D01*
X213368933Y-102703191D01*
X213166227Y-103210643D01*
X212908745Y-103689921D01*
X212827753Y-103816391D01*
X212455485Y-104301909D01*
X212028809Y-104726760D01*
X211554953Y-105088326D01*
X211041143Y-105383985D01*
X210494608Y-105611120D01*
X209922575Y-105767110D01*
X209332271Y-105849337D01*
X208730925Y-105855180D01*
X208125764Y-105782021D01*
X207689946Y-105678439D01*
X207434899Y-105592027D01*
X207156895Y-105476206D01*
X206872637Y-105340062D01*
X206598828Y-105192681D01*
X206352170Y-105043146D01*
X206149366Y-104900544D01*
X206007118Y-104773960D01*
X205988914Y-104753193D01*
X205954899Y-104730701D01*
X205903299Y-104739929D01*
X205819939Y-104787682D01*
X205690644Y-104880764D01*
X205634515Y-104923325D01*
X205153151Y-105241425D01*
X204625763Y-105500307D01*
X204068429Y-105694588D01*
X203497228Y-105818886D01*
X202928240Y-105867819D01*
X202812333Y-105868041D01*
X202639586Y-105864455D01*
X202495155Y-105859066D01*
X202403324Y-105852859D01*
X202389000Y-105850859D01*
X202318079Y-105838317D01*
X202189646Y-105816725D01*
X202029786Y-105790460D01*
X202008000Y-105786921D01*
X201494954Y-105665048D01*
X200980450Y-105470032D01*
X200481765Y-105211299D01*
X200016175Y-104898275D01*
X199600958Y-104540384D01*
X199464079Y-104399053D01*
X199074786Y-103916600D01*
X198756054Y-103395805D01*
X198510958Y-102844349D01*
X198342570Y-102269913D01*
X198253963Y-101680177D01*
X198240333Y-101340366D01*
X198255820Y-101018100D01*
X198307167Y-100754146D01*
X198401708Y-100527100D01*
X198546776Y-100315560D01*
X198620539Y-100230550D01*
X198890077Y-99992195D01*
X199190179Y-99825370D01*
X199509470Y-99730287D01*
X199836578Y-99707161D01*
X200160127Y-99756206D01*
G36*
X200160127Y-99756206D02*
G01*
X200468743Y-99877634D01*
X200751053Y-100071661D01*
X200871655Y-100188250D01*
X201024922Y-100366469D01*
X201137690Y-100536243D01*
X201218396Y-100718651D01*
X201275479Y-100934771D01*
X201317374Y-101205681D01*
X201332276Y-101338994D01*
X201406374Y-101713553D01*
X201546130Y-102034872D01*
X201752424Y-102304232D01*
X202026138Y-102522914D01*
X202219667Y-102628712D01*
X202539908Y-102735652D01*
X202871799Y-102765781D01*
X203201169Y-102722920D01*
X203513848Y-102610891D01*
X203795665Y-102433516D01*
X204032450Y-102194616D01*
X204082573Y-102126273D01*
X204202858Y-101924292D01*
X204287101Y-101711212D01*
X204343429Y-101461449D01*
X204375004Y-101205819D01*
X204446327Y-100826641D01*
X204583097Y-100491496D01*
X204780749Y-100206941D01*
X205034713Y-99979536D01*
X205340424Y-99815840D01*
X205343797Y-99814520D01*
X205610891Y-99741794D01*
X205902386Y-99714655D01*
X206188094Y-99733153D01*
X206437825Y-99797340D01*
X206474167Y-99812635D01*
X206764279Y-99966697D01*
X206988380Y-100141291D01*
X207145939Y-100323505D01*
X207277069Y-100531848D01*
X207369021Y-100747724D01*
X207430872Y-100997676D01*
X207467171Y-101262614D01*
X207541667Y-101659725D01*
X207677142Y-101998304D01*
X207873980Y-102278949D01*
X208132562Y-102502260D01*
X208332093Y-102616066D01*
X208662791Y-102731008D01*
X208999004Y-102767290D01*
X209329030Y-102729150D01*
X209641168Y-102620823D01*
X209923716Y-102446549D01*
X210164973Y-102210563D01*
X210353236Y-101917105D01*
X210372125Y-101877326D01*
X210449354Y-101646406D01*
X210504986Y-101340751D01*
X210517000Y-101237621D01*
X210568134Y-100904786D01*
X210650394Y-100633480D01*
X210772259Y-100403652D01*
X210942207Y-100195251D01*
X210969466Y-100167496D01*
X211250989Y-99941201D01*
X211563616Y-99788796D01*
X211896883Y-99713341D01*
X212240328Y-99717899D01*
X212401740Y-99748417D01*
X212752753Y-99874787D01*
X213050161Y-100064190D01*
X213288861Y-100310515D01*
X213463749Y-100607650D01*
X213569723Y-100949484D01*
X213598624Y-101181916D01*
X213590110Y-101671814D01*
X213511887Y-102184577D01*
X213368933Y-102703191D01*
X213166227Y-103210643D01*
X212908745Y-103689921D01*
X212827753Y-103816391D01*
X212455485Y-104301909D01*
X212028809Y-104726760D01*
X211554953Y-105088326D01*
X211041143Y-105383985D01*
X210494608Y-105611120D01*
X209922575Y-105767110D01*
X209332271Y-105849337D01*
X208730925Y-105855180D01*
X208125764Y-105782021D01*
X207689946Y-105678439D01*
X207434899Y-105592027D01*
X207156895Y-105476206D01*
X206872637Y-105340062D01*
X206598828Y-105192681D01*
X206352170Y-105043146D01*
X206149366Y-104900544D01*
X206007118Y-104773960D01*
X205988914Y-104753193D01*
X205954899Y-104730701D01*
X205903299Y-104739929D01*
X205819939Y-104787682D01*
X205690644Y-104880764D01*
X205634515Y-104923325D01*
X205153151Y-105241425D01*
X204625763Y-105500307D01*
X204068429Y-105694588D01*
X203497228Y-105818886D01*
X202928240Y-105867819D01*
X202812333Y-105868041D01*
X202639586Y-105864455D01*
X202495155Y-105859066D01*
X202403324Y-105852859D01*
X202389000Y-105850859D01*
X202318079Y-105838317D01*
X202189646Y-105816725D01*
X202029786Y-105790460D01*
X202008000Y-105786921D01*
X201494954Y-105665048D01*
X200980450Y-105470032D01*
X200481765Y-105211299D01*
X200016175Y-104898275D01*
X199600958Y-104540384D01*
X199464079Y-104399053D01*
X199074786Y-103916600D01*
X198756054Y-103395805D01*
X198510958Y-102844349D01*
X198342570Y-102269913D01*
X198253963Y-101680177D01*
X198240333Y-101340366D01*
X198255820Y-101018100D01*
X198307167Y-100754146D01*
X198401708Y-100527100D01*
X198546776Y-100315560D01*
X198620539Y-100230550D01*
X198890077Y-99992195D01*
X199190179Y-99825370D01*
X199509470Y-99730287D01*
X199836578Y-99707161D01*
X200160127Y-99756206D01*
G37*
X206201873Y-75148349D02*
X206529384Y-75254712D01*
X206836450Y-75441207D01*
X206976942Y-75561258D01*
X207193660Y-75811294D01*
X207344987Y-76093427D01*
X207433069Y-76415379D01*
X207460048Y-76784870D01*
X207430206Y-77193392D01*
X207308010Y-77821082D01*
X207109845Y-78414305D01*
X206837970Y-78968929D01*
X206494647Y-79480825D01*
X206082135Y-79945860D01*
X205770020Y-80227632D01*
X205272709Y-80585245D01*
X204739412Y-80869578D01*
X204178155Y-81079677D01*
X203596965Y-81214591D01*
X203003867Y-81273368D01*
X202406886Y-81255055D01*
X201814049Y-81158701D01*
X201233381Y-80983352D01*
X200837766Y-80812763D01*
X200626703Y-80702579D01*
X200410473Y-80577888D01*
X200220857Y-80457518D01*
X200133460Y-80395489D01*
X199999396Y-80294816D01*
X199888212Y-80212783D01*
X199819730Y-80163975D01*
X199811800Y-80158794D01*
X199756895Y-80168679D01*
X199653884Y-80223119D01*
X199519860Y-80312654D01*
X199477944Y-80343597D01*
X199235591Y-80508703D01*
X198945300Y-80679252D01*
X198636416Y-80839855D01*
X198338281Y-80975122D01*
X198113333Y-81059300D01*
X197630748Y-81181154D01*
X197108660Y-81252604D01*
X196577051Y-81271625D01*
X196065902Y-81236193D01*
X195890833Y-81209390D01*
X195289740Y-81059657D01*
X194718036Y-80831923D01*
X194182327Y-80529730D01*
X193689216Y-80156621D01*
X193380405Y-79862960D01*
X192970936Y-79379621D01*
X192638667Y-78862280D01*
X192382540Y-78308693D01*
X192201498Y-77716611D01*
X192101793Y-77148221D01*
X192075304Y-76748770D01*
X192101089Y-76405770D01*
X192182336Y-76106686D01*
X192322233Y-75838984D01*
X192488525Y-75627969D01*
X192752593Y-75396417D01*
X193047544Y-75236441D01*
X193361817Y-75146604D01*
X193683847Y-75125469D01*
X194002072Y-75171599D01*
X194304929Y-75283556D01*
X194580855Y-75459903D01*
X194818286Y-75699203D01*
X194973735Y-75936858D01*
X195043953Y-76085393D01*
X195095914Y-76241846D01*
X195136826Y-76432615D01*
X195170371Y-76657091D01*
X195242050Y-77040647D01*
X195350255Y-77355395D01*
X195501483Y-77611690D01*
X195702229Y-77819884D01*
X195958990Y-77990333D01*
X196029755Y-78026816D01*
X196177143Y-78095285D01*
X196298496Y-78136788D01*
X196425429Y-78157937D01*
X196589557Y-78165341D01*
X196695167Y-78165955D01*
X196889664Y-78162935D01*
X197031197Y-78149468D01*
X197151381Y-78118944D01*
X197281832Y-78064751D01*
X197360578Y-78026816D01*
X197633184Y-77862699D01*
X197847767Y-77662627D01*
X198010749Y-77416402D01*
X198128551Y-77113827D01*
X198207593Y-76744703D01*
X198219167Y-76663122D01*
X198270707Y-76351455D01*
X198338817Y-76103433D01*
X198432364Y-75898382D01*
X198560218Y-75715632D01*
X198683199Y-75581527D01*
X198962680Y-75356737D01*
X199270589Y-75206238D01*
X199595475Y-75129791D01*
X199925887Y-75127156D01*
X200250376Y-75198093D01*
X200557491Y-75342363D01*
X200835782Y-75559725D01*
X200901808Y-75627969D01*
X201079769Y-75860561D01*
X201206060Y-76119514D01*
X201288108Y-76423672D01*
X201326233Y-76705131D01*
X201395893Y-77090464D01*
X201529346Y-77420610D01*
X201727776Y-77697380D01*
X201992366Y-77922584D01*
X202200806Y-78042375D01*
X202336843Y-78104023D01*
X202456200Y-78141141D01*
X202589541Y-78159710D01*
X202767529Y-78165711D01*
X202834390Y-78165955D01*
X203028788Y-78162906D01*
X203170307Y-78149339D01*
X203290644Y-78118625D01*
X203421495Y-78064134D01*
X203498381Y-78027077D01*
X203790039Y-77847392D01*
X204019580Y-77622994D01*
X204191161Y-77347207D01*
X204308937Y-77013357D01*
X204376957Y-76615812D01*
X204449271Y-76226346D01*
X204580366Y-75896655D01*
X204771907Y-75624013D01*
X205025562Y-75405693D01*
X205169199Y-75319749D01*
X205514527Y-75179898D01*
X205861169Y-75123088D01*
X206201873Y-75148349D01*
G36*
X206201873Y-75148349D02*
G01*
X206529384Y-75254712D01*
X206836450Y-75441207D01*
X206976942Y-75561258D01*
X207193660Y-75811294D01*
X207344987Y-76093427D01*
X207433069Y-76415379D01*
X207460048Y-76784870D01*
X207430206Y-77193392D01*
X207308010Y-77821082D01*
X207109845Y-78414305D01*
X206837970Y-78968929D01*
X206494647Y-79480825D01*
X206082135Y-79945860D01*
X205770020Y-80227632D01*
X205272709Y-80585245D01*
X204739412Y-80869578D01*
X204178155Y-81079677D01*
X203596965Y-81214591D01*
X203003867Y-81273368D01*
X202406886Y-81255055D01*
X201814049Y-81158701D01*
X201233381Y-80983352D01*
X200837766Y-80812763D01*
X200626703Y-80702579D01*
X200410473Y-80577888D01*
X200220857Y-80457518D01*
X200133460Y-80395489D01*
X199999396Y-80294816D01*
X199888212Y-80212783D01*
X199819730Y-80163975D01*
X199811800Y-80158794D01*
X199756895Y-80168679D01*
X199653884Y-80223119D01*
X199519860Y-80312654D01*
X199477944Y-80343597D01*
X199235591Y-80508703D01*
X198945300Y-80679252D01*
X198636416Y-80839855D01*
X198338281Y-80975122D01*
X198113333Y-81059300D01*
X197630748Y-81181154D01*
X197108660Y-81252604D01*
X196577051Y-81271625D01*
X196065902Y-81236193D01*
X195890833Y-81209390D01*
X195289740Y-81059657D01*
X194718036Y-80831923D01*
X194182327Y-80529730D01*
X193689216Y-80156621D01*
X193380405Y-79862960D01*
X192970936Y-79379621D01*
X192638667Y-78862280D01*
X192382540Y-78308693D01*
X192201498Y-77716611D01*
X192101793Y-77148221D01*
X192075304Y-76748770D01*
X192101089Y-76405770D01*
X192182336Y-76106686D01*
X192322233Y-75838984D01*
X192488525Y-75627969D01*
X192752593Y-75396417D01*
X193047544Y-75236441D01*
X193361817Y-75146604D01*
X193683847Y-75125469D01*
X194002072Y-75171599D01*
X194304929Y-75283556D01*
X194580855Y-75459903D01*
X194818286Y-75699203D01*
X194973735Y-75936858D01*
X195043953Y-76085393D01*
X195095914Y-76241846D01*
X195136826Y-76432615D01*
X195170371Y-76657091D01*
X195242050Y-77040647D01*
X195350255Y-77355395D01*
X195501483Y-77611690D01*
X195702229Y-77819884D01*
X195958990Y-77990333D01*
X196029755Y-78026816D01*
X196177143Y-78095285D01*
X196298496Y-78136788D01*
X196425429Y-78157937D01*
X196589557Y-78165341D01*
X196695167Y-78165955D01*
X196889664Y-78162935D01*
X197031197Y-78149468D01*
X197151381Y-78118944D01*
X197281832Y-78064751D01*
X197360578Y-78026816D01*
X197633184Y-77862699D01*
X197847767Y-77662627D01*
X198010749Y-77416402D01*
X198128551Y-77113827D01*
X198207593Y-76744703D01*
X198219167Y-76663122D01*
X198270707Y-76351455D01*
X198338817Y-76103433D01*
X198432364Y-75898382D01*
X198560218Y-75715632D01*
X198683199Y-75581527D01*
X198962680Y-75356737D01*
X199270589Y-75206238D01*
X199595475Y-75129791D01*
X199925887Y-75127156D01*
X200250376Y-75198093D01*
X200557491Y-75342363D01*
X200835782Y-75559725D01*
X200901808Y-75627969D01*
X201079769Y-75860561D01*
X201206060Y-76119514D01*
X201288108Y-76423672D01*
X201326233Y-76705131D01*
X201395893Y-77090464D01*
X201529346Y-77420610D01*
X201727776Y-77697380D01*
X201992366Y-77922584D01*
X202200806Y-78042375D01*
X202336843Y-78104023D01*
X202456200Y-78141141D01*
X202589541Y-78159710D01*
X202767529Y-78165711D01*
X202834390Y-78165955D01*
X203028788Y-78162906D01*
X203170307Y-78149339D01*
X203290644Y-78118625D01*
X203421495Y-78064134D01*
X203498381Y-78027077D01*
X203790039Y-77847392D01*
X204019580Y-77622994D01*
X204191161Y-77347207D01*
X204308937Y-77013357D01*
X204376957Y-76615812D01*
X204449271Y-76226346D01*
X204580366Y-75896655D01*
X204771907Y-75624013D01*
X205025562Y-75405693D01*
X205169199Y-75319749D01*
X205514527Y-75179898D01*
X205861169Y-75123088D01*
X206201873Y-75148349D01*
G37*
X209214173Y-87438332D02*
X209523391Y-87516150D01*
X209812133Y-87656011D01*
X210068914Y-87856681D01*
X210282247Y-88116928D01*
X210386271Y-88304689D01*
X210469705Y-88561203D01*
X210512627Y-88876506D01*
X210515645Y-89235377D01*
X210479372Y-89622593D01*
X210404416Y-90022935D01*
X210302805Y-90386735D01*
X210074597Y-90954110D01*
X209778432Y-91477584D01*
X209420850Y-91952855D01*
X209008392Y-92375617D01*
X208547600Y-92741568D01*
X208045014Y-93046403D01*
X207507175Y-93285817D01*
X206940624Y-93455508D01*
X206351903Y-93551171D01*
X205747551Y-93568502D01*
X205493029Y-93551614D01*
X204941570Y-93461652D01*
X204387832Y-93300140D01*
X203853525Y-93075463D01*
X203360362Y-92796006D01*
X203143988Y-92644386D01*
X202837296Y-92413666D01*
X202708398Y-92517442D01*
X202216421Y-92865312D01*
X201687880Y-93149600D01*
X201137533Y-93363555D01*
X200580138Y-93500426D01*
X200547500Y-93505924D01*
X200315723Y-93536215D01*
X200051000Y-93558749D01*
X199785090Y-93571779D01*
X199549751Y-93573557D01*
X199425667Y-93567640D01*
X198913495Y-93494699D01*
X198400906Y-93365553D01*
X197915964Y-93188490D01*
X197570051Y-93019727D01*
X197039835Y-92678013D01*
X196564906Y-92274684D01*
X196149789Y-91815548D01*
X195799009Y-91306412D01*
X195517092Y-90753083D01*
X195308564Y-90161369D01*
X195290391Y-90094529D01*
X195238985Y-89880726D01*
X195205442Y-89684858D01*
X195186098Y-89476016D01*
X195177291Y-89223285D01*
X195176119Y-89130288D01*
X195175172Y-88900418D01*
X195179107Y-88734604D01*
X195190831Y-88612257D01*
X195213254Y-88512789D01*
X195249283Y-88415613D01*
X195289732Y-88325955D01*
X195480260Y-88016123D01*
X195736635Y-87756159D01*
X196017833Y-87571183D01*
X196146179Y-87507432D01*
X196254478Y-87467871D01*
X196370723Y-87446793D01*
X196522908Y-87438491D01*
X196674890Y-87437216D01*
X196872914Y-87439632D01*
X197015759Y-87451133D01*
X197132854Y-87477639D01*
X197253626Y-87525072D01*
X197357412Y-87574535D01*
X197661383Y-87763295D01*
X197899789Y-87999967D01*
X198075361Y-88288829D01*
X198190831Y-88634163D01*
X198242501Y-88961607D01*
X198309195Y-89352010D01*
X198431154Y-89680494D01*
X198611222Y-89951631D01*
X198852242Y-90169988D01*
X199077542Y-90303260D01*
X199215926Y-90368138D01*
X199329637Y-90409041D01*
X199446450Y-90431440D01*
X199594139Y-90440807D01*
X199784849Y-90442622D01*
X199983511Y-90440854D01*
X200123996Y-90431846D01*
X200232776Y-90410042D01*
X200336326Y-90369886D01*
X200461118Y-90305821D01*
X200476634Y-90297425D01*
X200756756Y-90111103D01*
X200973135Y-89886398D01*
X201131279Y-89614243D01*
X201236692Y-89285574D01*
X201288333Y-88960955D01*
X201357525Y-88567619D01*
X201479268Y-88237297D01*
X201657641Y-87963584D01*
X201896722Y-87740076D01*
X202171254Y-87574535D01*
X202312506Y-87508683D01*
X202429307Y-87467950D01*
X202551106Y-87446401D01*
X202707352Y-87438103D01*
X202853776Y-87437001D01*
X203053396Y-87439754D01*
X203196489Y-87451533D01*
X203311117Y-87477698D01*
X203425340Y-87523608D01*
X203500913Y-87560611D01*
X203723228Y-87703142D01*
X203938002Y-87893611D01*
X204121500Y-88107687D01*
X204249989Y-88321039D01*
X204256092Y-88334813D01*
X204304480Y-88484658D01*
X204347788Y-88687344D01*
X204379368Y-88911059D01*
X204381973Y-88936975D01*
X204454450Y-89337652D01*
X204589089Y-89683073D01*
X204784834Y-89971573D01*
X205040631Y-90201490D01*
X205267667Y-90332795D01*
X205390029Y-90385304D01*
X205503889Y-90417950D01*
X205635908Y-90435159D01*
X205812751Y-90441357D01*
X205923833Y-90441716D01*
X206204222Y-90429485D01*
X206428628Y-90387886D01*
X206623349Y-90307521D01*
X206814679Y-90178991D01*
X206930910Y-90081798D01*
X207154541Y-89831321D01*
X207312888Y-89529979D01*
X207407225Y-89175039D01*
X207427177Y-89019009D01*
X207473623Y-88685366D01*
X207548126Y-88412460D01*
X207657872Y-88178972D01*
X207762945Y-88023042D01*
X208002256Y-87772150D01*
X208278520Y-87589466D01*
X208580251Y-87473757D01*
X208895964Y-87423790D01*
X209214173Y-87438332D01*
G36*
X209214173Y-87438332D02*
G01*
X209523391Y-87516150D01*
X209812133Y-87656011D01*
X210068914Y-87856681D01*
X210282247Y-88116928D01*
X210386271Y-88304689D01*
X210469705Y-88561203D01*
X210512627Y-88876506D01*
X210515645Y-89235377D01*
X210479372Y-89622593D01*
X210404416Y-90022935D01*
X210302805Y-90386735D01*
X210074597Y-90954110D01*
X209778432Y-91477584D01*
X209420850Y-91952855D01*
X209008392Y-92375617D01*
X208547600Y-92741568D01*
X208045014Y-93046403D01*
X207507175Y-93285817D01*
X206940624Y-93455508D01*
X206351903Y-93551171D01*
X205747551Y-93568502D01*
X205493029Y-93551614D01*
X204941570Y-93461652D01*
X204387832Y-93300140D01*
X203853525Y-93075463D01*
X203360362Y-92796006D01*
X203143988Y-92644386D01*
X202837296Y-92413666D01*
X202708398Y-92517442D01*
X202216421Y-92865312D01*
X201687880Y-93149600D01*
X201137533Y-93363555D01*
X200580138Y-93500426D01*
X200547500Y-93505924D01*
X200315723Y-93536215D01*
X200051000Y-93558749D01*
X199785090Y-93571779D01*
X199549751Y-93573557D01*
X199425667Y-93567640D01*
X198913495Y-93494699D01*
X198400906Y-93365553D01*
X197915964Y-93188490D01*
X197570051Y-93019727D01*
X197039835Y-92678013D01*
X196564906Y-92274684D01*
X196149789Y-91815548D01*
X195799009Y-91306412D01*
X195517092Y-90753083D01*
X195308564Y-90161369D01*
X195290391Y-90094529D01*
X195238985Y-89880726D01*
X195205442Y-89684858D01*
X195186098Y-89476016D01*
X195177291Y-89223285D01*
X195176119Y-89130288D01*
X195175172Y-88900418D01*
X195179107Y-88734604D01*
X195190831Y-88612257D01*
X195213254Y-88512789D01*
X195249283Y-88415613D01*
X195289732Y-88325955D01*
X195480260Y-88016123D01*
X195736635Y-87756159D01*
X196017833Y-87571183D01*
X196146179Y-87507432D01*
X196254478Y-87467871D01*
X196370723Y-87446793D01*
X196522908Y-87438491D01*
X196674890Y-87437216D01*
X196872914Y-87439632D01*
X197015759Y-87451133D01*
X197132854Y-87477639D01*
X197253626Y-87525072D01*
X197357412Y-87574535D01*
X197661383Y-87763295D01*
X197899789Y-87999967D01*
X198075361Y-88288829D01*
X198190831Y-88634163D01*
X198242501Y-88961607D01*
X198309195Y-89352010D01*
X198431154Y-89680494D01*
X198611222Y-89951631D01*
X198852242Y-90169988D01*
X199077542Y-90303260D01*
X199215926Y-90368138D01*
X199329637Y-90409041D01*
X199446450Y-90431440D01*
X199594139Y-90440807D01*
X199784849Y-90442622D01*
X199983511Y-90440854D01*
X200123996Y-90431846D01*
X200232776Y-90410042D01*
X200336326Y-90369886D01*
X200461118Y-90305821D01*
X200476634Y-90297425D01*
X200756756Y-90111103D01*
X200973135Y-89886398D01*
X201131279Y-89614243D01*
X201236692Y-89285574D01*
X201288333Y-88960955D01*
X201357525Y-88567619D01*
X201479268Y-88237297D01*
X201657641Y-87963584D01*
X201896722Y-87740076D01*
X202171254Y-87574535D01*
X202312506Y-87508683D01*
X202429307Y-87467950D01*
X202551106Y-87446401D01*
X202707352Y-87438103D01*
X202853776Y-87437001D01*
X203053396Y-87439754D01*
X203196489Y-87451533D01*
X203311117Y-87477698D01*
X203425340Y-87523608D01*
X203500913Y-87560611D01*
X203723228Y-87703142D01*
X203938002Y-87893611D01*
X204121500Y-88107687D01*
X204249989Y-88321039D01*
X204256092Y-88334813D01*
X204304480Y-88484658D01*
X204347788Y-88687344D01*
X204379368Y-88911059D01*
X204381973Y-88936975D01*
X204454450Y-89337652D01*
X204589089Y-89683073D01*
X204784834Y-89971573D01*
X205040631Y-90201490D01*
X205267667Y-90332795D01*
X205390029Y-90385304D01*
X205503889Y-90417950D01*
X205635908Y-90435159D01*
X205812751Y-90441357D01*
X205923833Y-90441716D01*
X206204222Y-90429485D01*
X206428628Y-90387886D01*
X206623349Y-90307521D01*
X206814679Y-90178991D01*
X206930910Y-90081798D01*
X207154541Y-89831321D01*
X207312888Y-89529979D01*
X207407225Y-89175039D01*
X207427177Y-89019009D01*
X207473623Y-88685366D01*
X207548126Y-88412460D01*
X207657872Y-88178972D01*
X207762945Y-88023042D01*
X208002256Y-87772150D01*
X208278520Y-87589466D01*
X208580251Y-87473757D01*
X208895964Y-87423790D01*
X209214173Y-87438332D01*
G37*
X224001157Y-80295340D02*
X224310684Y-80371621D01*
X224600485Y-80510110D01*
X224859076Y-80709687D01*
X225074971Y-80969235D01*
X225173096Y-81140672D01*
X225239297Y-81282232D01*
X225280467Y-81398568D01*
X225302471Y-81518768D01*
X225311174Y-81671919D01*
X225312500Y-81832081D01*
X225311116Y-82019194D01*
X225302178Y-82154655D01*
X225278511Y-82266863D01*
X225232936Y-82384216D01*
X225158275Y-82535112D01*
X225112697Y-82622634D01*
X224963311Y-82939882D01*
X224842655Y-83270113D01*
X224748632Y-83625065D01*
X224679148Y-84016475D01*
X224632105Y-84456082D01*
X224605409Y-84955622D01*
X224596968Y-85510788D01*
X224618962Y-86385442D01*
X224688450Y-87224464D01*
X224808712Y-88046511D01*
X224983031Y-88870239D01*
X225214689Y-89714305D01*
X225476797Y-90512115D01*
X226088387Y-92150970D01*
X226746090Y-93720396D01*
X227449724Y-95220162D01*
X228199105Y-96650041D01*
X228994049Y-98009803D01*
X229834373Y-99299219D01*
X230719893Y-100518060D01*
X231650427Y-101666098D01*
X232625791Y-102743103D01*
X233645801Y-103748845D01*
X234710274Y-104683097D01*
X235819027Y-105545629D01*
X236971876Y-106336212D01*
X238168638Y-107054617D01*
X239131786Y-107564373D01*
X240323230Y-108120944D01*
X241545834Y-108614812D01*
X242814323Y-109051640D01*
X243642833Y-109299872D01*
X244192885Y-109451025D01*
X244724106Y-109586580D01*
X245250833Y-109709359D01*
X245787404Y-109822184D01*
X246348157Y-109927878D01*
X246947427Y-110029264D01*
X247599553Y-110129165D01*
X248318871Y-110230402D01*
X248479417Y-110252044D01*
X248572708Y-110261014D01*
X248616526Y-110258295D01*
X248617000Y-110257262D01*
X248603245Y-110215444D01*
X248564653Y-110105283D01*
X248505235Y-109938037D01*
X248428998Y-109724962D01*
X248339954Y-109477317D01*
X248282476Y-109318007D01*
X247507878Y-107221747D01*
X246722775Y-105192095D01*
X245927838Y-103230339D01*
X245123737Y-101337765D01*
X244311141Y-99515660D01*
X243490720Y-97765310D01*
X242663146Y-96088004D01*
X241829087Y-94485027D01*
X240989214Y-92957667D01*
X240144197Y-91507210D01*
X239294705Y-90134943D01*
X238441410Y-88842153D01*
X237584981Y-87630126D01*
X236726088Y-86500151D01*
X235865401Y-85453512D01*
X235841887Y-85426122D01*
X235632005Y-85167426D01*
X235480602Y-84942779D01*
X235379035Y-84734624D01*
X235318661Y-84525406D01*
X235291495Y-84308241D01*
X235306857Y-83939910D01*
X235399756Y-83600318D01*
X235567163Y-83296214D01*
X235806049Y-83034346D01*
X235895833Y-82961523D01*
X236165914Y-82794924D01*
X236453046Y-82696472D01*
X236779694Y-82659037D01*
X236851306Y-82658243D01*
X237044742Y-82665363D01*
X237196076Y-82691372D01*
X237347335Y-82745614D01*
X237443972Y-82790027D01*
X237592263Y-82864867D01*
X237714186Y-82938359D01*
X237826203Y-83024428D01*
X237944777Y-83137003D01*
X238086369Y-83290010D01*
X238233107Y-83457622D01*
X239066046Y-84460561D01*
X239901424Y-85545849D01*
X240737929Y-86711253D01*
X241574245Y-87954538D01*
X242409057Y-89273469D01*
X243241052Y-90665814D01*
X244068915Y-92129337D01*
X244891330Y-93661804D01*
X245706985Y-95260981D01*
X246514564Y-96924635D01*
X247312752Y-98650531D01*
X247751889Y-99635981D01*
X248268752Y-100829628D01*
X248789817Y-102068453D01*
X249309496Y-103338026D01*
X249822203Y-104623919D01*
X250322353Y-105911703D01*
X250804358Y-107186949D01*
X251262632Y-108435229D01*
X251691589Y-109642114D01*
X252085643Y-110793175D01*
X252172249Y-111053025D01*
X252254807Y-111304699D01*
X252313439Y-111494085D01*
X252351713Y-111638975D01*
X252373197Y-111757159D01*
X252381457Y-111866430D01*
X252380060Y-111984577D01*
X252375968Y-112069025D01*
X252323136Y-112420095D01*
X252202742Y-112724871D01*
X252010022Y-112993847D01*
X251910208Y-113095082D01*
X251684585Y-113274396D01*
X251439177Y-113402800D01*
X251160695Y-113483785D01*
X250835855Y-113520840D01*
X250451369Y-113517454D01*
X250331500Y-113509756D01*
X250212355Y-113501037D01*
X250030573Y-113487884D01*
X249807972Y-113471869D01*
X249566366Y-113454565D01*
X249484833Y-113448743D01*
X248246122Y-113334915D01*
X246979654Y-113169869D01*
X245710930Y-112957931D01*
X244465451Y-112703426D01*
X243268717Y-112410682D01*
X243105376Y-112366581D01*
X241601116Y-111914716D01*
X240147229Y-111394957D01*
X238743042Y-110806843D01*
X237387878Y-110149915D01*
X236081060Y-109423711D01*
X234821913Y-108627772D01*
X233609762Y-107761638D01*
X232443929Y-106824847D01*
X231323740Y-105816940D01*
X230248518Y-104737457D01*
X229217588Y-103585937D01*
X228230273Y-102361921D01*
X228035015Y-102104421D01*
X227210340Y-100949363D01*
X226413963Y-99721408D01*
X225650152Y-98428842D01*
X224923174Y-97079952D01*
X224237296Y-95683026D01*
X223596785Y-94246350D01*
X223005909Y-92778211D01*
X222476928Y-91310455D01*
X222219712Y-90482884D01*
X221999331Y-89628176D01*
X221816750Y-88756953D01*
X221672937Y-87879837D01*
X221568857Y-87007451D01*
X221505475Y-86150417D01*
X221483758Y-85319357D01*
X221504672Y-84524895D01*
X221569181Y-83777652D01*
X221678253Y-83088250D01*
X221713995Y-82919951D01*
X221819854Y-82516452D01*
X221954883Y-82107345D01*
X222110982Y-81712111D01*
X222280051Y-81350234D01*
X222453990Y-81041193D01*
X222559596Y-80886179D01*
X222795482Y-80634650D01*
X223069067Y-80450920D01*
X223368863Y-80333871D01*
X223683388Y-80282383D01*
X224001157Y-80295340D01*
G36*
X224001157Y-80295340D02*
G01*
X224310684Y-80371621D01*
X224600485Y-80510110D01*
X224859076Y-80709687D01*
X225074971Y-80969235D01*
X225173096Y-81140672D01*
X225239297Y-81282232D01*
X225280467Y-81398568D01*
X225302471Y-81518768D01*
X225311174Y-81671919D01*
X225312500Y-81832081D01*
X225311116Y-82019194D01*
X225302178Y-82154655D01*
X225278511Y-82266863D01*
X225232936Y-82384216D01*
X225158275Y-82535112D01*
X225112697Y-82622634D01*
X224963311Y-82939882D01*
X224842655Y-83270113D01*
X224748632Y-83625065D01*
X224679148Y-84016475D01*
X224632105Y-84456082D01*
X224605409Y-84955622D01*
X224596968Y-85510788D01*
X224618962Y-86385442D01*
X224688450Y-87224464D01*
X224808712Y-88046511D01*
X224983031Y-88870239D01*
X225214689Y-89714305D01*
X225476797Y-90512115D01*
X226088387Y-92150970D01*
X226746090Y-93720396D01*
X227449724Y-95220162D01*
X228199105Y-96650041D01*
X228994049Y-98009803D01*
X229834373Y-99299219D01*
X230719893Y-100518060D01*
X231650427Y-101666098D01*
X232625791Y-102743103D01*
X233645801Y-103748845D01*
X234710274Y-104683097D01*
X235819027Y-105545629D01*
X236971876Y-106336212D01*
X238168638Y-107054617D01*
X239131786Y-107564373D01*
X240323230Y-108120944D01*
X241545834Y-108614812D01*
X242814323Y-109051640D01*
X243642833Y-109299872D01*
X244192885Y-109451025D01*
X244724106Y-109586580D01*
X245250833Y-109709359D01*
X245787404Y-109822184D01*
X246348157Y-109927878D01*
X246947427Y-110029264D01*
X247599553Y-110129165D01*
X248318871Y-110230402D01*
X248479417Y-110252044D01*
X248572708Y-110261014D01*
X248616526Y-110258295D01*
X248617000Y-110257262D01*
X248603245Y-110215444D01*
X248564653Y-110105283D01*
X248505235Y-109938037D01*
X248428998Y-109724962D01*
X248339954Y-109477317D01*
X248282476Y-109318007D01*
X247507878Y-107221747D01*
X246722775Y-105192095D01*
X245927838Y-103230339D01*
X245123737Y-101337765D01*
X244311141Y-99515660D01*
X243490720Y-97765310D01*
X242663146Y-96088004D01*
X241829087Y-94485027D01*
X240989214Y-92957667D01*
X240144197Y-91507210D01*
X239294705Y-90134943D01*
X238441410Y-88842153D01*
X237584981Y-87630126D01*
X236726088Y-86500151D01*
X235865401Y-85453512D01*
X235841887Y-85426122D01*
X235632005Y-85167426D01*
X235480602Y-84942779D01*
X235379035Y-84734624D01*
X235318661Y-84525406D01*
X235291495Y-84308241D01*
X235306857Y-83939910D01*
X235399756Y-83600318D01*
X235567163Y-83296214D01*
X235806049Y-83034346D01*
X235895833Y-82961523D01*
X236165914Y-82794924D01*
X236453046Y-82696472D01*
X236779694Y-82659037D01*
X236851306Y-82658243D01*
X237044742Y-82665363D01*
X237196076Y-82691372D01*
X237347335Y-82745614D01*
X237443972Y-82790027D01*
X237592263Y-82864867D01*
X237714186Y-82938359D01*
X237826203Y-83024428D01*
X237944777Y-83137003D01*
X238086369Y-83290010D01*
X238233107Y-83457622D01*
X239066046Y-84460561D01*
X239901424Y-85545849D01*
X240737929Y-86711253D01*
X241574245Y-87954538D01*
X242409057Y-89273469D01*
X243241052Y-90665814D01*
X244068915Y-92129337D01*
X244891330Y-93661804D01*
X245706985Y-95260981D01*
X246514564Y-96924635D01*
X247312752Y-98650531D01*
X247751889Y-99635981D01*
X248268752Y-100829628D01*
X248789817Y-102068453D01*
X249309496Y-103338026D01*
X249822203Y-104623919D01*
X250322353Y-105911703D01*
X250804358Y-107186949D01*
X251262632Y-108435229D01*
X251691589Y-109642114D01*
X252085643Y-110793175D01*
X252172249Y-111053025D01*
X252254807Y-111304699D01*
X252313439Y-111494085D01*
X252351713Y-111638975D01*
X252373197Y-111757159D01*
X252381457Y-111866430D01*
X252380060Y-111984577D01*
X252375968Y-112069025D01*
X252323136Y-112420095D01*
X252202742Y-112724871D01*
X252010022Y-112993847D01*
X251910208Y-113095082D01*
X251684585Y-113274396D01*
X251439177Y-113402800D01*
X251160695Y-113483785D01*
X250835855Y-113520840D01*
X250451369Y-113517454D01*
X250331500Y-113509756D01*
X250212355Y-113501037D01*
X250030573Y-113487884D01*
X249807972Y-113471869D01*
X249566366Y-113454565D01*
X249484833Y-113448743D01*
X248246122Y-113334915D01*
X246979654Y-113169869D01*
X245710930Y-112957931D01*
X244465451Y-112703426D01*
X243268717Y-112410682D01*
X243105376Y-112366581D01*
X241601116Y-111914716D01*
X240147229Y-111394957D01*
X238743042Y-110806843D01*
X237387878Y-110149915D01*
X236081060Y-109423711D01*
X234821913Y-108627772D01*
X233609762Y-107761638D01*
X232443929Y-106824847D01*
X231323740Y-105816940D01*
X230248518Y-104737457D01*
X229217588Y-103585937D01*
X228230273Y-102361921D01*
X228035015Y-102104421D01*
X227210340Y-100949363D01*
X226413963Y-99721408D01*
X225650152Y-98428842D01*
X224923174Y-97079952D01*
X224237296Y-95683026D01*
X223596785Y-94246350D01*
X223005909Y-92778211D01*
X222476928Y-91310455D01*
X222219712Y-90482884D01*
X221999331Y-89628176D01*
X221816750Y-88756953D01*
X221672937Y-87879837D01*
X221568857Y-87007451D01*
X221505475Y-86150417D01*
X221483758Y-85319357D01*
X221504672Y-84524895D01*
X221569181Y-83777652D01*
X221678253Y-83088250D01*
X221713995Y-82919951D01*
X221819854Y-82516452D01*
X221954883Y-82107345D01*
X222110982Y-81712111D01*
X222280051Y-81350234D01*
X222453990Y-81041193D01*
X222559596Y-80886179D01*
X222795482Y-80634650D01*
X223069067Y-80450920D01*
X223368863Y-80333871D01*
X223683388Y-80282383D01*
X224001157Y-80295340D01*
G37*
X187551167Y-30570483D02*
X187754323Y-30583433D01*
X187903357Y-30606283D01*
X188028766Y-30646059D01*
X188161045Y-30709787D01*
X188165000Y-30711906D01*
X188213486Y-30743495D01*
X188283935Y-30798803D01*
X188379179Y-30880586D01*
X188502047Y-30991597D01*
X188655372Y-31134592D01*
X188841985Y-31312326D01*
X189064718Y-31527553D01*
X189326401Y-31783027D01*
X189629867Y-32081504D01*
X189977946Y-32425739D01*
X190373469Y-32818485D01*
X190819269Y-33262498D01*
X191318176Y-33760533D01*
X191873022Y-34315343D01*
X192024759Y-34467196D01*
X192486171Y-34928571D01*
X192931500Y-35372961D01*
X193357040Y-35796715D01*
X193759086Y-36196181D01*
X194133933Y-36567710D01*
X194477875Y-36907649D01*
X194787207Y-37212347D01*
X195058224Y-37478153D01*
X195287220Y-37701416D01*
X195470492Y-37878485D01*
X195604332Y-38005708D01*
X195685036Y-38079435D01*
X195708724Y-38097455D01*
X195772465Y-38082897D01*
X195892565Y-38044121D01*
X196046819Y-37988471D01*
X196103465Y-37966871D01*
X197113330Y-37600634D01*
X198195737Y-37253366D01*
X199340333Y-36926810D01*
X200536765Y-36622712D01*
X201774679Y-36342815D01*
X203043722Y-36088865D01*
X204333539Y-35862607D01*
X205633778Y-35665784D01*
X206934085Y-35500141D01*
X208224107Y-35367423D01*
X209493490Y-35269374D01*
X210731879Y-35207740D01*
X211928923Y-35184263D01*
X212591333Y-35188668D01*
X214023695Y-35236729D01*
X215483925Y-35331764D01*
X216960862Y-35471814D01*
X218443344Y-35654923D01*
X219920211Y-35879133D01*
X221380301Y-36142486D01*
X222812452Y-36443026D01*
X224205503Y-36778795D01*
X225548292Y-37147836D01*
X226829660Y-37548191D01*
X227628227Y-37825701D01*
X227865182Y-37911030D01*
X228074805Y-37985379D01*
X228244119Y-38044238D01*
X228360147Y-38083098D01*
X228409912Y-38097449D01*
X228410146Y-38097455D01*
X228443671Y-38068137D01*
X228533406Y-37982609D01*
X228675673Y-37844506D01*
X228866794Y-37657464D01*
X229103089Y-37425121D01*
X229380881Y-37151111D01*
X229696490Y-36839072D01*
X230046238Y-36492641D01*
X230426446Y-36115452D01*
X230833436Y-35711143D01*
X231263528Y-35283349D01*
X231713045Y-34835708D01*
X232084586Y-34465334D01*
X232653873Y-33897919D01*
X233166421Y-33387827D01*
X233625115Y-32932262D01*
X234032837Y-32528432D01*
X234392470Y-32173542D01*
X234706896Y-31864798D01*
X234978998Y-31599406D01*
X235211658Y-31374574D01*
X235407760Y-31187506D01*
X235570186Y-31035410D01*
X235701819Y-30915491D01*
X235805542Y-30824955D01*
X235884236Y-30761009D01*
X235940786Y-30720859D01*
X235959333Y-30710044D01*
X236093782Y-30646105D01*
X236221764Y-30606128D01*
X236373971Y-30583134D01*
X236573167Y-30570483D01*
X236905054Y-30580058D01*
X237194625Y-30643310D01*
X237450383Y-30766092D01*
X237680834Y-30954258D01*
X237894483Y-31213664D01*
X238099835Y-31550163D01*
X238158349Y-31661631D01*
X238540621Y-32495756D01*
X238849201Y-33350417D01*
X239083540Y-34219191D01*
X239243089Y-35095658D01*
X239327301Y-35973394D01*
X239335627Y-36845979D01*
X239267520Y-37706989D01*
X239122430Y-38550003D01*
X238899810Y-39368599D01*
X238833072Y-39565576D01*
X238548077Y-40263121D01*
X238187234Y-40960640D01*
X237758421Y-41645504D01*
X237269514Y-42305084D01*
X236753389Y-42900153D01*
X236398549Y-43279019D01*
X236739858Y-43687853D01*
X237379500Y-44518825D01*
X237945817Y-45390368D01*
X238437360Y-46299018D01*
X238852683Y-47241311D01*
X239190338Y-48213782D01*
X239448877Y-49212967D01*
X239626855Y-50235401D01*
X239683295Y-50733955D01*
X239688580Y-50834345D01*
X239693534Y-51018826D01*
X239698156Y-51286819D01*
X239702444Y-51637750D01*
X239706394Y-52071042D01*
X239710005Y-52586119D01*
X239713275Y-53182405D01*
X239716201Y-53859323D01*
X239718780Y-54616296D01*
X239721011Y-55452750D01*
X239722892Y-56368107D01*
X239724419Y-57361792D01*
X239725591Y-58433227D01*
X239726406Y-59581838D01*
X239726861Y-60807047D01*
X239726964Y-61766780D01*
X239727000Y-72333938D01*
X240187148Y-72675903D01*
X241242970Y-73505052D01*
X242292183Y-74418100D01*
X243334456Y-75414514D01*
X244369456Y-76493759D01*
X245396854Y-77655300D01*
X246416318Y-78898604D01*
X247427517Y-80223136D01*
X248430120Y-81628362D01*
X249423795Y-83113747D01*
X250408212Y-84678759D01*
X251383040Y-86322862D01*
X252347946Y-88045522D01*
X253302601Y-89846205D01*
X254246673Y-91724376D01*
X255179831Y-93679502D01*
X256101743Y-95711049D01*
X257012079Y-97818482D01*
X257910508Y-100001266D01*
X258796698Y-102258868D01*
X259226241Y-103391917D01*
X259656239Y-104556115D01*
X260090426Y-105764437D01*
X260525536Y-107006650D01*
X260958308Y-108272523D01*
X261385477Y-109551824D01*
X261803779Y-110834321D01*
X262209952Y-112109784D01*
X262600731Y-113367979D01*
X262972853Y-114598676D01*
X263323054Y-115791643D01*
X263648072Y-116936647D01*
X263944642Y-118023458D01*
X264176314Y-118911081D01*
X264257771Y-119261938D01*
X264304992Y-119551378D01*
X264317995Y-119795411D01*
X264296796Y-120010049D01*
X264241412Y-120211303D01*
X264177799Y-120362355D01*
X264047939Y-120588187D01*
X263880676Y-120790409D01*
X263669118Y-120972893D01*
X263406374Y-121139511D01*
X263085551Y-121294137D01*
X262699759Y-121440642D01*
X262242105Y-121582899D01*
X261791048Y-121703472D01*
X261072188Y-121874987D01*
X260340167Y-122029751D01*
X259584751Y-122169280D01*
X258795705Y-122295088D01*
X257962795Y-122408690D01*
X257075785Y-122511601D01*
X256124442Y-122605336D01*
X255136333Y-122688468D01*
X254864215Y-122705073D01*
X254519294Y-122718755D01*
X254113384Y-122729557D01*
X253658297Y-122737520D01*
X253165845Y-122742685D01*
X252647842Y-122745095D01*
X252116100Y-122744791D01*
X251582432Y-122741815D01*
X251058649Y-122736209D01*
X250556565Y-122728015D01*
X250087993Y-122717273D01*
X249664744Y-122704027D01*
X249298632Y-122688317D01*
X249001470Y-122670186D01*
X248955667Y-122666624D01*
X247386577Y-122518429D01*
X245883467Y-122332673D01*
X244435412Y-122107210D01*
X243031486Y-121839890D01*
X241660764Y-121528567D01*
X240312320Y-121171092D01*
X238975230Y-120765316D01*
X238515758Y-120614121D01*
X237664349Y-120328442D01*
X237247970Y-120725021D01*
X236694043Y-121196477D01*
X236078090Y-121617464D01*
X235409303Y-121983298D01*
X234696874Y-122289296D01*
X233949998Y-122530773D01*
X233480516Y-122644582D01*
X233017167Y-122742955D01*
X211617667Y-122751711D01*
X210010453Y-122752364D01*
X208485712Y-122752967D01*
X207041250Y-122753514D01*
X205674873Y-122753996D01*
X204384386Y-122754408D01*
X203167597Y-122754740D01*
X202022311Y-122754988D01*
X200946334Y-122755142D01*
X199937472Y-122755196D01*
X198993532Y-122755142D01*
X198112319Y-122754974D01*
X197291640Y-122754684D01*
X196529300Y-122754264D01*
X195823105Y-122753708D01*
X195170863Y-122753009D01*
X194570378Y-122752158D01*
X194019457Y-122751149D01*
X193515907Y-122749974D01*
X193057532Y-122748626D01*
X192642139Y-122747099D01*
X192267534Y-122745384D01*
X191931524Y-122743474D01*
X191631914Y-122741363D01*
X191366510Y-122739042D01*
X191133119Y-122736505D01*
X190929546Y-122733745D01*
X190753598Y-122730753D01*
X190603081Y-122727524D01*
X190475801Y-122724049D01*
X190369563Y-122720321D01*
X190282174Y-122716333D01*
X190211441Y-122712079D01*
X190155168Y-122707549D01*
X190111163Y-122702738D01*
X190077230Y-122697638D01*
X190051177Y-122692242D01*
X190030810Y-122686543D01*
X190013934Y-122680532D01*
X190013149Y-122680226D01*
X189717440Y-122523316D01*
X189455416Y-122304291D01*
X189242569Y-122039786D01*
X189094390Y-121746432D01*
X189067651Y-121665035D01*
X189038953Y-121544596D01*
X189021704Y-121409677D01*
X189014886Y-121241145D01*
X189017485Y-121019866D01*
X189023738Y-120838744D01*
X189096061Y-120065932D01*
X189175019Y-119673788D01*
X192360320Y-119673788D01*
X196841720Y-119673788D01*
X200054961Y-119673788D01*
X208990147Y-119673788D01*
X209853483Y-119673672D01*
X210694103Y-119673330D01*
X211508106Y-119672775D01*
X212291591Y-119672015D01*
X213040657Y-119671063D01*
X213751402Y-119669930D01*
X214419925Y-119668625D01*
X215042326Y-119667161D01*
X215614703Y-119665547D01*
X216133155Y-119663795D01*
X216593781Y-119661916D01*
X216992680Y-119659921D01*
X217325950Y-119657820D01*
X217589691Y-119655624D01*
X217780001Y-119653344D01*
X217892979Y-119650992D01*
X217925333Y-119648870D01*
X217908102Y-119602565D01*
X217861608Y-119497420D01*
X217793649Y-119350718D01*
X217737779Y-119233175D01*
X217435565Y-118698992D01*
X217068902Y-118216293D01*
X216643531Y-117789214D01*
X216165191Y-117421889D01*
X215639623Y-117118452D01*
X215072567Y-116883039D01*
X214469762Y-116719783D01*
X214178833Y-116669596D01*
X214088610Y-116662940D01*
X213916959Y-116656759D01*
X213667120Y-116651081D01*
X213342331Y-116645931D01*
X212945831Y-116641338D01*
X212480858Y-116637327D01*
X211950650Y-116633925D01*
X211358446Y-116631159D01*
X210707485Y-116629056D01*
X210001005Y-116627642D01*
X209242245Y-116626944D01*
X208993000Y-116626876D01*
X208212155Y-116626823D01*
X207511038Y-116626987D01*
X206884708Y-116627557D01*
X206328227Y-116628720D01*
X205836653Y-116630664D01*
X205405049Y-116633578D01*
X205028474Y-116637650D01*
X204701988Y-116643068D01*
X204420653Y-116650019D01*
X204179529Y-116658693D01*
X203973676Y-116669277D01*
X203798154Y-116681959D01*
X203648024Y-116696927D01*
X203518347Y-116714370D01*
X203404183Y-116734475D01*
X203300591Y-116757431D01*
X203202634Y-116783426D01*
X203105371Y-116812647D01*
X203003863Y-116845284D01*
X202970489Y-116856213D01*
X202399584Y-117087051D01*
X201866292Y-117390217D01*
X201377954Y-117759394D01*
X200941907Y-118188265D01*
X200565491Y-118670515D01*
X200262462Y-119186955D01*
X200187021Y-119342179D01*
X200124558Y-119478931D01*
X200087119Y-119570696D01*
X200084531Y-119578538D01*
X200054961Y-119673788D01*
X196841720Y-119673788D01*
X196867719Y-119557372D01*
X197057408Y-118872974D01*
X197316686Y-118191775D01*
X197634851Y-117538929D01*
X197947750Y-117018827D01*
X198194559Y-116646955D01*
X197339029Y-116634640D01*
X197050305Y-116633108D01*
X196764616Y-116636290D01*
X196502461Y-116643618D01*
X196284335Y-116654521D01*
X196132946Y-116668140D01*
X195515022Y-116790082D01*
X194930692Y-116987863D01*
X194384984Y-117257623D01*
X193882926Y-117595499D01*
X193429544Y-117997631D01*
X193029868Y-118460155D01*
X192688925Y-118979210D01*
X192426557Y-119515038D01*
X192360320Y-119673788D01*
X189175019Y-119673788D01*
X189247764Y-119312503D01*
X189474796Y-118583440D01*
X189773104Y-117883728D01*
X190138634Y-117218350D01*
X190567336Y-116592292D01*
X191055156Y-116010537D01*
X191598041Y-115478069D01*
X192191940Y-114999873D01*
X192832799Y-114580933D01*
X193516567Y-114226234D01*
X194239189Y-113940758D01*
X194757331Y-113787006D01*
X195057533Y-113717519D01*
X195387807Y-113654347D01*
X195723757Y-113601128D01*
X196040986Y-113561503D01*
X196315099Y-113539112D01*
X196443335Y-113535455D01*
X196570200Y-113532188D01*
X196653981Y-113523767D01*
X196674000Y-113515768D01*
X196650515Y-113476142D01*
X196586197Y-113381450D01*
X196490250Y-113244924D01*
X196371881Y-113079799D01*
X196342708Y-113039518D01*
X195469431Y-111775655D01*
X194626785Y-110433443D01*
X193815062Y-109013580D01*
X193034558Y-107516763D01*
X192285569Y-105943690D01*
X191568390Y-104295057D01*
X190883314Y-102571563D01*
X190230638Y-100773904D01*
X189610657Y-98902778D01*
X189023664Y-96958883D01*
X188469957Y-94942915D01*
X188144199Y-93659955D01*
X187641475Y-91513035D01*
X187172045Y-89291013D01*
X186736298Y-86996800D01*
X186334627Y-84633306D01*
X185967422Y-82203440D01*
X185635073Y-79710114D01*
X185337971Y-77156236D01*
X185076506Y-74544717D01*
X184851070Y-71878468D01*
X184662052Y-69160398D01*
X184524453Y-66693622D01*
X184493460Y-66057062D01*
X184466121Y-65471914D01*
X184442161Y-64927406D01*
X184421307Y-64412767D01*
X184403286Y-63917227D01*
X184387824Y-63430015D01*
X184374649Y-62940360D01*
X184363485Y-62437490D01*
X184354061Y-61910634D01*
X184346103Y-61349023D01*
X184342647Y-61038908D01*
X187445333Y-61038908D01*
X187445659Y-61368598D01*
X187447996Y-61596063D01*
X187454382Y-61898568D01*
X187464431Y-62266603D01*
X187477758Y-62690658D01*
X187493977Y-63161222D01*
X187512703Y-63668787D01*
X187533551Y-64203840D01*
X187556135Y-64756872D01*
X187580070Y-65318374D01*
X187604970Y-65878834D01*
X187630450Y-66428742D01*
X187656126Y-66958589D01*
X187681610Y-67458864D01*
X187706519Y-67920056D01*
X187722340Y-68196455D01*
X187897192Y-70855394D01*
X188105629Y-73455637D01*
X188347390Y-75995983D01*
X188622215Y-78475234D01*
X188929845Y-80892190D01*
X189270018Y-83245650D01*
X189642475Y-85534415D01*
X190046955Y-87757286D01*
X190483197Y-89913062D01*
X190950943Y-92000544D01*
X191449931Y-94018531D01*
X191979901Y-95965825D01*
X192540592Y-97841226D01*
X193131746Y-99643533D01*
X193753100Y-101371547D01*
X194404396Y-103024069D01*
X195085372Y-104599898D01*
X195795769Y-106097834D01*
X196056690Y-106613955D01*
X196619213Y-107668517D01*
X197206362Y-108693790D01*
X197812893Y-109682102D01*
X198433563Y-110625785D01*
X199063129Y-111517169D01*
X199696345Y-112348583D01*
X200327970Y-113112357D01*
X200952759Y-113800823D01*
X201013010Y-113863525D01*
X201309500Y-114170428D01*
X201691446Y-114025063D01*
X202121746Y-113877246D01*
X202598166Y-113745122D01*
X203090504Y-113633418D01*
X203147397Y-113623006D01*
X203215625Y-113613615D01*
X203299781Y-113605175D01*
X203404456Y-113597615D01*
X203534243Y-113590864D01*
X203693733Y-113584853D01*
X203887517Y-113579510D01*
X204120189Y-113574766D01*
X204396339Y-113570550D01*
X204720560Y-113566792D01*
X205097444Y-113563420D01*
X205531582Y-113560366D01*
X206027566Y-113557558D01*
X206589989Y-113554926D01*
X207223441Y-113552399D01*
X207932516Y-113549908D01*
X208696667Y-113547459D01*
X209634797Y-113544953D01*
X210489304Y-113543503D01*
X211260080Y-113543109D01*
X211947020Y-113543769D01*
X212550016Y-113545484D01*
X213068962Y-113548252D01*
X213503752Y-113552073D01*
X213854279Y-113556947D01*
X214120438Y-113562873D01*
X214302121Y-113569850D01*
X214381840Y-113575660D01*
X215189187Y-113703514D01*
X215965975Y-113910281D01*
X216711483Y-114195642D01*
X217424990Y-114559276D01*
X218105777Y-115000863D01*
X218751334Y-115518501D01*
X219273119Y-116034495D01*
X219748529Y-116615417D01*
X220172143Y-117252091D01*
X220538539Y-117935341D01*
X220842294Y-118655992D01*
X221077987Y-119404868D01*
X221101145Y-119495023D01*
X221146550Y-119676090D01*
X226954858Y-119664104D01*
X232763167Y-119652118D01*
X233178864Y-119537644D01*
X233405281Y-119466320D01*
X233664862Y-119370789D01*
X233916114Y-119266785D01*
X234025531Y-119216580D01*
X234456500Y-119009991D01*
X233680151Y-118620115D01*
X232121004Y-117791073D01*
X230614295Y-116896167D01*
X229159669Y-115935073D01*
X227756770Y-114907468D01*
X226405242Y-113813027D01*
X225104730Y-112651426D01*
X223854877Y-111422343D01*
X222655329Y-110125452D01*
X221505728Y-108760430D01*
X220405720Y-107326954D01*
X219354949Y-105824699D01*
X218956387Y-105216955D01*
X218111538Y-103846513D01*
X217295405Y-102405331D01*
X216513025Y-100903957D01*
X215769437Y-99352939D01*
X215069678Y-97762827D01*
X214418786Y-96144167D01*
X213821799Y-94507509D01*
X213770464Y-94358455D01*
X213388362Y-93149612D01*
X213060623Y-91915846D01*
X212788008Y-90665705D01*
X212571281Y-89407736D01*
X212411205Y-88150487D01*
X212308542Y-86902505D01*
X212264056Y-85672339D01*
X212264324Y-85649941D01*
X215360304Y-85649941D01*
X215410320Y-86876617D01*
X215529558Y-88137741D01*
X215718018Y-89430454D01*
X215853861Y-90167455D01*
X215984308Y-90796155D01*
X216118703Y-91377456D01*
X216263709Y-91935410D01*
X216425988Y-92494073D01*
X216612202Y-93077497D01*
X216829012Y-93709736D01*
X216856312Y-93786955D01*
X217546910Y-95629106D01*
X218289457Y-97406349D01*
X219083712Y-99118367D01*
X219929435Y-100764844D01*
X220826385Y-102345463D01*
X221774322Y-103859907D01*
X222773004Y-105307859D01*
X223822192Y-106689002D01*
X224921645Y-108003019D01*
X226071122Y-109249594D01*
X227270382Y-110428410D01*
X228519185Y-111539150D01*
X229817290Y-112581496D01*
X231164457Y-113555133D01*
X232551500Y-114454262D01*
X233539038Y-115032462D01*
X234589252Y-115596648D01*
X235680218Y-116136128D01*
X236790010Y-116640214D01*
X237896704Y-117098214D01*
X238266500Y-117240825D01*
X239789867Y-117775670D01*
X241364347Y-118248026D01*
X242982287Y-118656354D01*
X244636032Y-118999117D01*
X246317930Y-119274776D01*
X248020328Y-119481793D01*
X249735570Y-119618630D01*
X250225667Y-119644561D01*
X250442228Y-119652002D01*
X250728848Y-119657752D01*
X251071637Y-119661856D01*
X251456701Y-119664359D01*
X251870150Y-119665307D01*
X252298091Y-119664744D01*
X252726634Y-119662717D01*
X253141885Y-119659270D01*
X253529955Y-119654448D01*
X253876950Y-119648298D01*
X254168979Y-119640863D01*
X254392151Y-119632190D01*
X254416667Y-119630904D01*
X255451083Y-119562259D01*
X256473710Y-119470798D01*
X257470299Y-119358308D01*
X258426606Y-119226578D01*
X259328384Y-119077396D01*
X260161386Y-118912548D01*
X260189757Y-118906378D01*
X260407339Y-118858054D01*
X260599399Y-118813826D01*
X260748654Y-118777789D01*
X260837823Y-118754038D01*
X260850692Y-118749760D01*
X260872261Y-118734537D01*
X260883157Y-118702664D01*
X260881463Y-118644389D01*
X260865263Y-118549956D01*
X260832641Y-118409612D01*
X260781680Y-118213601D01*
X260710464Y-117952171D01*
X260653817Y-117747622D01*
X260106746Y-115832053D01*
X259521665Y-113883968D01*
X258902989Y-111915973D01*
X258255132Y-109940677D01*
X257582510Y-107970688D01*
X256889537Y-106018615D01*
X256180628Y-104097065D01*
X255460198Y-102218646D01*
X254732661Y-100395966D01*
X254002433Y-98641635D01*
X253790718Y-98147288D01*
X253053618Y-96473274D01*
X252300532Y-94832773D01*
X251535938Y-93234841D01*
X250764316Y-91688532D01*
X249990148Y-90202902D01*
X249217912Y-88787006D01*
X248761097Y-87981196D01*
X247827014Y-86402960D01*
X246887888Y-84905404D01*
X245943987Y-83488801D01*
X244995580Y-82153426D01*
X244042934Y-80899554D01*
X243086318Y-79727458D01*
X242125999Y-78637413D01*
X241162247Y-77629694D01*
X240195329Y-76704574D01*
X239225513Y-75862328D01*
X238253068Y-75103231D01*
X237278261Y-74427556D01*
X236301360Y-73835577D01*
X235322635Y-73327571D01*
X234342352Y-72903809D01*
X233845329Y-72721402D01*
X233138219Y-72497298D01*
X232443951Y-72319486D01*
X231750966Y-72187113D01*
X231047704Y-72099321D01*
X230322607Y-72055254D01*
X229564114Y-72054057D01*
X228760667Y-72094874D01*
X227900705Y-72176849D01*
X227375840Y-72242329D01*
X226170647Y-72435546D01*
X225026500Y-72683149D01*
X223944082Y-72984816D01*
X222924072Y-73340223D01*
X221967152Y-73749045D01*
X221074002Y-74210959D01*
X220245303Y-74725640D01*
X219481736Y-75292765D01*
X218783983Y-75912010D01*
X218152723Y-76583051D01*
X218084762Y-76663122D01*
X217599475Y-77297067D01*
X217149781Y-77997010D01*
X216742463Y-78749336D01*
X216384302Y-79540428D01*
X216082079Y-80356670D01*
X215852471Y-81144922D01*
X215625594Y-82205204D01*
X215467940Y-83311375D01*
X215379511Y-84460574D01*
X215360304Y-85649941D01*
X212264324Y-85649941D01*
X212278509Y-84468536D01*
X212352665Y-83299645D01*
X212487285Y-82174212D01*
X212616188Y-81425622D01*
X212878289Y-80281528D01*
X213207213Y-79189367D01*
X213602583Y-78149563D01*
X214064026Y-77162541D01*
X214591167Y-76228727D01*
X215183630Y-75348546D01*
X215841040Y-74522423D01*
X216563022Y-73750784D01*
X217349202Y-73034052D01*
X218199204Y-72372655D01*
X219112654Y-71767016D01*
X220089176Y-71217561D01*
X221128395Y-70724715D01*
X222229937Y-70288904D01*
X222531426Y-70183306D01*
X223378443Y-69916975D01*
X224269357Y-69679108D01*
X225190965Y-69471497D01*
X226130065Y-69295934D01*
X227073457Y-69154211D01*
X228007937Y-69048121D01*
X228920304Y-68979454D01*
X229797356Y-68950003D01*
X230625891Y-68961561D01*
X231240349Y-69001126D01*
X232359281Y-69143604D01*
X233464039Y-69367528D01*
X234547413Y-69671002D01*
X235602193Y-70052128D01*
X236184499Y-70301861D01*
X236354999Y-70377007D01*
X236495211Y-70434416D01*
X236588616Y-70467603D01*
X236618602Y-70472297D01*
X236620960Y-70428374D01*
X236623039Y-70305210D01*
X236624830Y-70108229D01*
X236626325Y-69842856D01*
X236627515Y-69514517D01*
X236628391Y-69128636D01*
X236628943Y-68690637D01*
X236629164Y-68205947D01*
X236629044Y-67679990D01*
X236628574Y-67118190D01*
X236627746Y-66525972D01*
X236626550Y-65908762D01*
X236626270Y-65784411D01*
X236615500Y-61114962D01*
X236342535Y-61444963D01*
X235826811Y-62020597D01*
X235245037Y-62584832D01*
X234615716Y-63121970D01*
X233957357Y-63616312D01*
X233288464Y-64052161D01*
X233223183Y-64091054D01*
X232334906Y-64569769D01*
X231405584Y-64980553D01*
X230434501Y-65323416D01*
X229420940Y-65598372D01*
X228364183Y-65805432D01*
X227263516Y-65944606D01*
X226118219Y-66015908D01*
X224927578Y-66019348D01*
X223690875Y-65954938D01*
X222407394Y-65822690D01*
X221076418Y-65622615D01*
X219697231Y-65354725D01*
X218269115Y-65019033D01*
X216791354Y-64615548D01*
X215977938Y-64371177D01*
X215787377Y-64312171D01*
X214559772Y-66327653D01*
X214257571Y-66821471D01*
X213986923Y-67258910D01*
X213749518Y-67637339D01*
X213547047Y-67954125D01*
X213381200Y-68206636D01*
X213253668Y-68392240D01*
X213166141Y-68508303D01*
X213141667Y-68535730D01*
X212867543Y-68753221D01*
X212542087Y-68903662D01*
X212269267Y-68971442D01*
X211958362Y-68984388D01*
X211640583Y-68925002D01*
X211336226Y-68801139D01*
X211065587Y-68620657D01*
X210881837Y-68434400D01*
X210841955Y-68376301D01*
X210762941Y-68253910D01*
X210649734Y-68075229D01*
X210507273Y-67848261D01*
X210340495Y-67581007D01*
X210154340Y-67281469D01*
X209953746Y-66957649D01*
X209743651Y-66617549D01*
X209528993Y-66269170D01*
X209314712Y-65920514D01*
X209105745Y-65579584D01*
X208907031Y-65254380D01*
X208723509Y-64952905D01*
X208560117Y-64683161D01*
X208421793Y-64453148D01*
X208340535Y-64316703D01*
X208301838Y-64325234D01*
X208204518Y-64353669D01*
X208082833Y-64391674D01*
X206707050Y-64804598D01*
X205350353Y-65157945D01*
X204016809Y-65451260D01*
X202710481Y-65684090D01*
X201435433Y-65855983D01*
X200195731Y-65966484D01*
X198995439Y-66015140D01*
X197838620Y-66001499D01*
X196729340Y-65925106D01*
X195671663Y-65785509D01*
X195636833Y-65779676D01*
X194573749Y-65561558D01*
X193551755Y-65273382D01*
X192573261Y-64916479D01*
X191640676Y-64492181D01*
X190756410Y-64001822D01*
X189922873Y-63446732D01*
X189142474Y-62828244D01*
X188417624Y-62147691D01*
X187772020Y-61432098D01*
X187445333Y-61038908D01*
X184342647Y-61038908D01*
X184339336Y-60741885D01*
X184333488Y-60078448D01*
X184328285Y-59347943D01*
X184325197Y-58845337D01*
X184320981Y-57906785D01*
X184319446Y-57001864D01*
X184320526Y-56135109D01*
X184324155Y-55311055D01*
X184330268Y-54534239D01*
X184338800Y-53809196D01*
X184349683Y-53140461D01*
X184362853Y-52532571D01*
X184378245Y-51990062D01*
X184395791Y-51517468D01*
X184397522Y-51482356D01*
X187503018Y-51482356D01*
X187504768Y-52362413D01*
X187553880Y-52956455D01*
X187709028Y-53978586D01*
X187933569Y-54971231D01*
X188225310Y-55928588D01*
X188582060Y-56844855D01*
X189001626Y-57714228D01*
X189481817Y-58530904D01*
X189872584Y-59094788D01*
X190065410Y-59336139D01*
X190307120Y-59610415D01*
X190580963Y-59900824D01*
X190870190Y-60190573D01*
X191158048Y-60462869D01*
X191427788Y-60700922D01*
X191657500Y-60884132D01*
X192379057Y-61366525D01*
X193152319Y-61786839D01*
X193965564Y-62139078D01*
X194435411Y-62304797D01*
X194949090Y-62460485D01*
X195455516Y-62590108D01*
X195972016Y-62696712D01*
X196515921Y-62783347D01*
X197104559Y-62853061D01*
X197755259Y-62908903D01*
X197944000Y-62922008D01*
X198125656Y-62928676D01*
X198374939Y-62930147D01*
X198675002Y-62926949D01*
X199008999Y-62919610D01*
X199360082Y-62908657D01*
X199711406Y-62894617D01*
X200046124Y-62878019D01*
X200347389Y-62859390D01*
X200598355Y-62839257D01*
X200604373Y-62838689D01*
X201631226Y-62718171D01*
X202702876Y-62548543D01*
X203797992Y-62333564D01*
X204823167Y-62095138D01*
X205104979Y-62023365D01*
X205395674Y-61947227D01*
X205682396Y-61870302D01*
X205952287Y-61796171D01*
X206192489Y-61728413D01*
X206390147Y-61670609D01*
X206532402Y-61626337D01*
X206606397Y-61599178D01*
X206608730Y-61597988D01*
X206598316Y-61555954D01*
X206543105Y-61443741D01*
X206443807Y-61262571D01*
X206301132Y-61013665D01*
X206115788Y-60698242D01*
X205888485Y-60317523D01*
X205619931Y-59872729D01*
X205571566Y-59793288D01*
X209201638Y-59793288D01*
X210629718Y-62130861D01*
X210876427Y-62534306D01*
X211109934Y-62915413D01*
X211326542Y-63268199D01*
X211522553Y-63586677D01*
X211694272Y-63864864D01*
X211838002Y-64096772D01*
X211950045Y-64276419D01*
X212026706Y-64397817D01*
X212064287Y-64454983D01*
X212067519Y-64458713D01*
X212090698Y-64421880D01*
X212154314Y-64318868D01*
X212254647Y-64155738D01*
X212387983Y-63938554D01*
X212550603Y-63673376D01*
X212738790Y-63366269D01*
X212948827Y-63023293D01*
X213176997Y-62650512D01*
X213419582Y-62253988D01*
X213498590Y-62124804D01*
X213744505Y-61722105D01*
X213820075Y-61597988D01*
X217515603Y-61597988D01*
X217584473Y-61623900D01*
X217722469Y-61667131D01*
X217916676Y-61724089D01*
X218154176Y-61791182D01*
X218422054Y-61864817D01*
X218707392Y-61941401D01*
X218997274Y-62017341D01*
X219278783Y-62089044D01*
X219301167Y-62094642D01*
X220554499Y-62382463D01*
X221768233Y-62610369D01*
X222938889Y-62777958D01*
X224062990Y-62884833D01*
X225137058Y-62930593D01*
X226157614Y-62914838D01*
X226349667Y-62904590D01*
X227244427Y-62828385D01*
X228078925Y-62708893D01*
X228867426Y-62542998D01*
X229624196Y-62327584D01*
X230363502Y-62059536D01*
X230527587Y-61992202D01*
X231315543Y-61617275D01*
X232054890Y-61173873D01*
X232744515Y-60663613D01*
X233383303Y-60088113D01*
X233970138Y-59448990D01*
X234503906Y-58747860D01*
X234983493Y-57986341D01*
X235407782Y-57166049D01*
X235775660Y-56288603D01*
X236086011Y-55355619D01*
X236337721Y-54368714D01*
X236529675Y-53329505D01*
X236538018Y-53273955D01*
X236577270Y-52924705D01*
X236602477Y-52516833D01*
X236613672Y-52075208D01*
X236610885Y-51624696D01*
X236594145Y-51190164D01*
X236563485Y-50796479D01*
X236534674Y-50564622D01*
X236361121Y-49667716D01*
X236114036Y-48809407D01*
X235792136Y-47987191D01*
X235394136Y-47198570D01*
X234918754Y-46441041D01*
X234364706Y-45712103D01*
X233730709Y-45009257D01*
X233632886Y-44910182D01*
X233211434Y-44501693D01*
X232802243Y-44135680D01*
X232382515Y-43793542D01*
X231929446Y-43456679D01*
X231429667Y-43112775D01*
X231248304Y-42994731D01*
X231034774Y-42860465D01*
X230799949Y-42716321D01*
X230554702Y-42568644D01*
X230309908Y-42423780D01*
X230076439Y-42288074D01*
X229865168Y-42167871D01*
X229686970Y-42069517D01*
X229552717Y-41999355D01*
X229473282Y-41963733D01*
X229456618Y-41961392D01*
X229430110Y-42001534D01*
X229366015Y-42103939D01*
X229270382Y-42258670D01*
X229149256Y-42455790D01*
X229008686Y-42685364D01*
X228854720Y-42937453D01*
X228693404Y-43202122D01*
X228530787Y-43469435D01*
X228372915Y-43729454D01*
X228225837Y-43972243D01*
X228095600Y-44187866D01*
X227988251Y-44366385D01*
X227909838Y-44497865D01*
X227866408Y-44572368D01*
X227859641Y-44585362D01*
X227894262Y-44610847D01*
X227993613Y-44655506D01*
X228141783Y-44712722D01*
X228297000Y-44767220D01*
X229056131Y-45066257D01*
X229768730Y-45434278D01*
X230431545Y-45867498D01*
X231041323Y-46362132D01*
X231594812Y-46914396D01*
X232088757Y-47520504D01*
X232519907Y-48176671D01*
X232885009Y-48879112D01*
X233180809Y-49624042D01*
X233404056Y-50407676D01*
X233486123Y-50805453D01*
X233527926Y-51104372D01*
X233558009Y-51459754D01*
X233575521Y-51844098D01*
X233579614Y-52229901D01*
X233569435Y-52589661D01*
X233549342Y-52850622D01*
X233422445Y-53646040D01*
X233218483Y-54413397D01*
X232941108Y-55148128D01*
X232593975Y-55845671D01*
X232180736Y-56501462D01*
X231705044Y-57110938D01*
X231170552Y-57669535D01*
X230580914Y-58172690D01*
X229939782Y-58615840D01*
X229250810Y-58994421D01*
X228517650Y-59303871D01*
X228331446Y-59368708D01*
X227555739Y-59584172D01*
X226771839Y-59716769D01*
X225985098Y-59767211D01*
X225200869Y-59736205D01*
X224424504Y-59624463D01*
X223661356Y-59432694D01*
X222916777Y-59161607D01*
X222196121Y-58811912D01*
X221650667Y-58482804D01*
X221409318Y-58321210D01*
X221215025Y-58183323D01*
X221045729Y-58051205D01*
X220879370Y-57906919D01*
X220693890Y-57732528D01*
X220526197Y-57568458D01*
X220142560Y-57189522D01*
X218804133Y-59380405D01*
X218496181Y-59886269D01*
X218228791Y-60329248D01*
X218002671Y-60708119D01*
X217818533Y-61021663D01*
X217677083Y-61268659D01*
X217579034Y-61447885D01*
X217525092Y-61558121D01*
X217515603Y-61597988D01*
X213820075Y-61597988D01*
X213976497Y-61341081D01*
X214190916Y-60987798D01*
X214384112Y-60668327D01*
X214552434Y-60388734D01*
X214692232Y-60155090D01*
X214799856Y-59973462D01*
X214871655Y-59849920D01*
X214903979Y-59790531D01*
X214905392Y-59786069D01*
X214861697Y-59783759D01*
X214740299Y-59781879D01*
X214548157Y-59780437D01*
X214292232Y-59779443D01*
X213979487Y-59778904D01*
X213616881Y-59778832D01*
X213211377Y-59779233D01*
X212769935Y-59780117D01*
X212299516Y-59781494D01*
X212046241Y-59782405D01*
X209201638Y-59793288D01*
X205571566Y-59793288D01*
X205318533Y-59377677D01*
X203978439Y-57184065D01*
X203841071Y-57338437D01*
X203648112Y-57537778D01*
X203404702Y-57762762D01*
X203132615Y-57994845D01*
X202853621Y-58215484D01*
X202589494Y-58406135D01*
X202579500Y-58412906D01*
X202249639Y-58629261D01*
X201956599Y-58805305D01*
X201672971Y-58955893D01*
X201371350Y-59095881D01*
X201137945Y-59194248D01*
X200376473Y-59460382D01*
X199599456Y-59643766D01*
X198810649Y-59744088D01*
X198013806Y-59761034D01*
X197212681Y-59694294D01*
X196550328Y-59575820D01*
X195782178Y-59362853D01*
X195050705Y-59075957D01*
X194359718Y-58719229D01*
X193713026Y-58296766D01*
X193114436Y-57812665D01*
X192567758Y-57271023D01*
X192076800Y-56675938D01*
X191645371Y-56031506D01*
X191277280Y-55341825D01*
X190976335Y-54610992D01*
X190746345Y-53843104D01*
X190613473Y-53189288D01*
X190585850Y-52949125D01*
X190567902Y-52646810D01*
X190559404Y-52304277D01*
X190560131Y-51943462D01*
X190569859Y-51586297D01*
X190588362Y-51254717D01*
X190615415Y-50970656D01*
X190637760Y-50820328D01*
X190825450Y-50007460D01*
X191086501Y-49236843D01*
X191420959Y-48508403D01*
X191828866Y-47822066D01*
X192310266Y-47177757D01*
X192865204Y-46575402D01*
X193477833Y-46027844D01*
X193859200Y-45746434D01*
X194301642Y-45469499D01*
X194781943Y-45209500D01*
X195276891Y-44978898D01*
X195763269Y-44790155D01*
X195818284Y-44771470D01*
X195995136Y-44709286D01*
X196137881Y-44653247D01*
X196229949Y-44610236D01*
X196256005Y-44589611D01*
X196235202Y-44546321D01*
X196175007Y-44439236D01*
X196080358Y-44276696D01*
X195956194Y-44067042D01*
X195807452Y-43818612D01*
X195639070Y-43539748D01*
X195463878Y-43251720D01*
X194669481Y-41950151D01*
X194182413Y-42208183D01*
X193215907Y-42757368D01*
X192322043Y-43342089D01*
X191501682Y-43961423D01*
X190755688Y-44614445D01*
X190084922Y-45300233D01*
X189490248Y-46017862D01*
X188972527Y-46766410D01*
X188532621Y-47544952D01*
X188171394Y-48352565D01*
X187999911Y-48828955D01*
X187750850Y-49713218D01*
X187585132Y-50598488D01*
X187503018Y-51482356D01*
X184397522Y-51482356D01*
X184415426Y-51119325D01*
X184437086Y-50800170D01*
X184442746Y-50733955D01*
X184571364Y-49757077D01*
X184779178Y-48786268D01*
X185062605Y-47829897D01*
X185418057Y-46896337D01*
X185841951Y-45993957D01*
X186330700Y-45131127D01*
X186880719Y-44316219D01*
X187488422Y-43557603D01*
X187543391Y-43495117D01*
X187730855Y-43283613D01*
X187411835Y-42944784D01*
X186800586Y-42240153D01*
X186270169Y-41510420D01*
X185820476Y-40755318D01*
X185451398Y-39974580D01*
X185162826Y-39167940D01*
X184954649Y-38335129D01*
X184826758Y-37475880D01*
X184783158Y-36666281D01*
X187879689Y-36666281D01*
X187937998Y-37391075D01*
X188077000Y-38091874D01*
X188184547Y-38457288D01*
X188275656Y-38693919D01*
X188404895Y-38975400D01*
X188559907Y-39278614D01*
X188728336Y-39580446D01*
X188897826Y-39857779D01*
X189055740Y-40087122D01*
X189220103Y-40295683D01*
X189413282Y-40524202D01*
X189605097Y-40737561D01*
X189699220Y-40835864D01*
X190041643Y-41182439D01*
X190278071Y-41011412D01*
X190419811Y-40910645D01*
X190602090Y-40783519D01*
X190665459Y-40739927D01*
X197573433Y-40739927D01*
X197594416Y-40776068D01*
X197657108Y-40880475D01*
X197759076Y-41049163D01*
X197897890Y-41278147D01*
X198071119Y-41563441D01*
X198276332Y-41901061D01*
X198511097Y-42287022D01*
X198772983Y-42717338D01*
X199059560Y-43188026D01*
X199368395Y-43695099D01*
X199697059Y-44234572D01*
X200043119Y-44802462D01*
X200404146Y-45394782D01*
X200777706Y-46007548D01*
X201161371Y-46636774D01*
X201552708Y-47278476D01*
X201949286Y-47928669D01*
X202348674Y-48583368D01*
X202748441Y-49238587D01*
X203146156Y-49890342D01*
X203539388Y-50534647D01*
X203925705Y-51167518D01*
X204302678Y-51784970D01*
X204667873Y-52383017D01*
X205018861Y-52957675D01*
X205353210Y-53504959D01*
X205668489Y-54020883D01*
X205962267Y-54501463D01*
X206232113Y-54942713D01*
X206475595Y-55340649D01*
X206690283Y-55691286D01*
X206873746Y-55990638D01*
X207023551Y-56234720D01*
X207137269Y-56419548D01*
X207212469Y-56541137D01*
X207241035Y-56586720D01*
X207301856Y-56682151D01*
X212070543Y-56671386D01*
X216839229Y-56660622D01*
X218727744Y-53570288D01*
X218998931Y-53126550D01*
X219309035Y-52619185D01*
X219652797Y-52056794D01*
X220024957Y-51447981D01*
X220420257Y-50801345D01*
X220833438Y-50125489D01*
X221259241Y-49429016D01*
X221692407Y-48720525D01*
X222127679Y-48008621D01*
X222559796Y-47301903D01*
X222983500Y-46608974D01*
X223393532Y-45938436D01*
X223578212Y-45636434D01*
X223936410Y-45050619D01*
X224282397Y-44484627D01*
X224613605Y-43942669D01*
X224927465Y-43428953D01*
X225221407Y-42947691D01*
X225492864Y-42503091D01*
X225739265Y-42099363D01*
X225958041Y-41740717D01*
X226146625Y-41431363D01*
X226302446Y-41175511D01*
X226422936Y-40977370D01*
X226505525Y-40841150D01*
X226547645Y-40771061D01*
X226552707Y-40762229D01*
X226520990Y-40732313D01*
X226415149Y-40682781D01*
X226242797Y-40616098D01*
X226011547Y-40534729D01*
X225729013Y-40441139D01*
X225402806Y-40337792D01*
X225040540Y-40227155D01*
X224649828Y-40111692D01*
X224238282Y-39993869D01*
X223830833Y-39880872D01*
X222874401Y-39635441D01*
X222266858Y-39497097D01*
X231472000Y-39497097D01*
X231505763Y-39529585D01*
X231591712Y-39585308D01*
X231651917Y-39619648D01*
X231924729Y-39774402D01*
X232243352Y-39963966D01*
X232584715Y-40173914D01*
X232925748Y-40389821D01*
X233243382Y-40597261D01*
X233514547Y-40781811D01*
X233546333Y-40804183D01*
X234075500Y-41178447D01*
X234342752Y-40918534D01*
X234504451Y-40753843D01*
X234677815Y-40565691D01*
X234826933Y-40393123D01*
X234834866Y-40383455D01*
X235255355Y-39815891D01*
X235597280Y-39235056D01*
X235866737Y-38628386D01*
X236069824Y-37983315D01*
X236135655Y-37703264D01*
X236189204Y-37368812D01*
X236222561Y-36976865D01*
X236235532Y-36552197D01*
X236227922Y-36119585D01*
X236199538Y-35703804D01*
X236154051Y-35352299D01*
X236073602Y-34871976D01*
X233772801Y-37172486D01*
X233407312Y-37538235D01*
X233059723Y-37886666D01*
X232734614Y-38213152D01*
X232436564Y-38513066D01*
X232170153Y-38781781D01*
X231939961Y-39014670D01*
X231750566Y-39207106D01*
X231606550Y-39354462D01*
X231512491Y-39452112D01*
X231472969Y-39495427D01*
X231472000Y-39497097D01*
X222266858Y-39497097D01*
X221866792Y-39405998D01*
X220818980Y-39193858D01*
X219741936Y-39000335D01*
X218646633Y-38826747D01*
X217544044Y-38674406D01*
X216445142Y-38544629D01*
X215360898Y-38438731D01*
X214302287Y-38358027D01*
X213280279Y-38303832D01*
X212305848Y-38277461D01*
X211389967Y-38280229D01*
X210686333Y-38305376D01*
X208979369Y-38421007D01*
X207294863Y-38586049D01*
X205640906Y-38799146D01*
X204025588Y-39058945D01*
X202456999Y-39364091D01*
X200943231Y-39713232D01*
X199492374Y-40105011D01*
X198935072Y-40272242D01*
X198585713Y-40381676D01*
X198274797Y-40481953D01*
X198010524Y-40570257D01*
X197801095Y-40643771D01*
X197654709Y-40699679D01*
X197579566Y-40735164D01*
X197573433Y-40739927D01*
X190665459Y-40739927D01*
X190795080Y-40650761D01*
X190885891Y-40589006D01*
X191103231Y-40445436D01*
X191354108Y-40285414D01*
X191620391Y-40119972D01*
X191883948Y-39960140D01*
X192126651Y-39816949D01*
X192330367Y-39701429D01*
X192445250Y-39640299D01*
X192559488Y-39577201D01*
X192634699Y-39525672D01*
X192652333Y-39504179D01*
X192623116Y-39470010D01*
X192538520Y-39380711D01*
X192403128Y-39240929D01*
X192221523Y-39055307D01*
X191998290Y-38828491D01*
X191738012Y-38565125D01*
X191445272Y-38269856D01*
X191124653Y-37947327D01*
X190780739Y-37602184D01*
X190418113Y-37239071D01*
X190352970Y-37173924D01*
X188053606Y-34874850D01*
X188005001Y-35142069D01*
X187902035Y-35916832D01*
X187879689Y-36666281D01*
X184783158Y-36666281D01*
X184779045Y-36589927D01*
X184778681Y-36509695D01*
X184817181Y-35649282D01*
X184931324Y-34774834D01*
X185117581Y-33902325D01*
X185372425Y-33047730D01*
X185692327Y-32227023D01*
X185755631Y-32086122D01*
X185907498Y-31764161D01*
X186038563Y-31508831D01*
X186156927Y-31307181D01*
X186270691Y-31146261D01*
X186387958Y-31013121D01*
X186482463Y-30924244D01*
X186718011Y-30747367D01*
X186957160Y-30634510D01*
X187223212Y-30577959D01*
X187539470Y-30570000D01*
X187551167Y-30570483D01*
G36*
X187551167Y-30570483D02*
G01*
X187754323Y-30583433D01*
X187903357Y-30606283D01*
X188028766Y-30646059D01*
X188161045Y-30709787D01*
X188165000Y-30711906D01*
X188213486Y-30743495D01*
X188283935Y-30798803D01*
X188379179Y-30880586D01*
X188502047Y-30991597D01*
X188655372Y-31134592D01*
X188841985Y-31312326D01*
X189064718Y-31527553D01*
X189326401Y-31783027D01*
X189629867Y-32081504D01*
X189977946Y-32425739D01*
X190373469Y-32818485D01*
X190819269Y-33262498D01*
X191318176Y-33760533D01*
X191873022Y-34315343D01*
X192024759Y-34467196D01*
X192486171Y-34928571D01*
X192931500Y-35372961D01*
X193357040Y-35796715D01*
X193759086Y-36196181D01*
X194133933Y-36567710D01*
X194477875Y-36907649D01*
X194787207Y-37212347D01*
X195058224Y-37478153D01*
X195287220Y-37701416D01*
X195470492Y-37878485D01*
X195604332Y-38005708D01*
X195685036Y-38079435D01*
X195708724Y-38097455D01*
X195772465Y-38082897D01*
X195892565Y-38044121D01*
X196046819Y-37988471D01*
X196103465Y-37966871D01*
X197113330Y-37600634D01*
X198195737Y-37253366D01*
X199340333Y-36926810D01*
X200536765Y-36622712D01*
X201774679Y-36342815D01*
X203043722Y-36088865D01*
X204333539Y-35862607D01*
X205633778Y-35665784D01*
X206934085Y-35500141D01*
X208224107Y-35367423D01*
X209493490Y-35269374D01*
X210731879Y-35207740D01*
X211928923Y-35184263D01*
X212591333Y-35188668D01*
X214023695Y-35236729D01*
X215483925Y-35331764D01*
X216960862Y-35471814D01*
X218443344Y-35654923D01*
X219920211Y-35879133D01*
X221380301Y-36142486D01*
X222812452Y-36443026D01*
X224205503Y-36778795D01*
X225548292Y-37147836D01*
X226829660Y-37548191D01*
X227628227Y-37825701D01*
X227865182Y-37911030D01*
X228074805Y-37985379D01*
X228244119Y-38044238D01*
X228360147Y-38083098D01*
X228409912Y-38097449D01*
X228410146Y-38097455D01*
X228443671Y-38068137D01*
X228533406Y-37982609D01*
X228675673Y-37844506D01*
X228866794Y-37657464D01*
X229103089Y-37425121D01*
X229380881Y-37151111D01*
X229696490Y-36839072D01*
X230046238Y-36492641D01*
X230426446Y-36115452D01*
X230833436Y-35711143D01*
X231263528Y-35283349D01*
X231713045Y-34835708D01*
X232084586Y-34465334D01*
X232653873Y-33897919D01*
X233166421Y-33387827D01*
X233625115Y-32932262D01*
X234032837Y-32528432D01*
X234392470Y-32173542D01*
X234706896Y-31864798D01*
X234978998Y-31599406D01*
X235211658Y-31374574D01*
X235407760Y-31187506D01*
X235570186Y-31035410D01*
X235701819Y-30915491D01*
X235805542Y-30824955D01*
X235884236Y-30761009D01*
X235940786Y-30720859D01*
X235959333Y-30710044D01*
X236093782Y-30646105D01*
X236221764Y-30606128D01*
X236373971Y-30583134D01*
X236573167Y-30570483D01*
X236905054Y-30580058D01*
X237194625Y-30643310D01*
X237450383Y-30766092D01*
X237680834Y-30954258D01*
X237894483Y-31213664D01*
X238099835Y-31550163D01*
X238158349Y-31661631D01*
X238540621Y-32495756D01*
X238849201Y-33350417D01*
X239083540Y-34219191D01*
X239243089Y-35095658D01*
X239327301Y-35973394D01*
X239335627Y-36845979D01*
X239267520Y-37706989D01*
X239122430Y-38550003D01*
X238899810Y-39368599D01*
X238833072Y-39565576D01*
X238548077Y-40263121D01*
X238187234Y-40960640D01*
X237758421Y-41645504D01*
X237269514Y-42305084D01*
X236753389Y-42900153D01*
X236398549Y-43279019D01*
X236739858Y-43687853D01*
X237379500Y-44518825D01*
X237945817Y-45390368D01*
X238437360Y-46299018D01*
X238852683Y-47241311D01*
X239190338Y-48213782D01*
X239448877Y-49212967D01*
X239626855Y-50235401D01*
X239683295Y-50733955D01*
X239688580Y-50834345D01*
X239693534Y-51018826D01*
X239698156Y-51286819D01*
X239702444Y-51637750D01*
X239706394Y-52071042D01*
X239710005Y-52586119D01*
X239713275Y-53182405D01*
X239716201Y-53859323D01*
X239718780Y-54616296D01*
X239721011Y-55452750D01*
X239722892Y-56368107D01*
X239724419Y-57361792D01*
X239725591Y-58433227D01*
X239726406Y-59581838D01*
X239726861Y-60807047D01*
X239726964Y-61766780D01*
X239727000Y-72333938D01*
X240187148Y-72675903D01*
X241242970Y-73505052D01*
X242292183Y-74418100D01*
X243334456Y-75414514D01*
X244369456Y-76493759D01*
X245396854Y-77655300D01*
X246416318Y-78898604D01*
X247427517Y-80223136D01*
X248430120Y-81628362D01*
X249423795Y-83113747D01*
X250408212Y-84678759D01*
X251383040Y-86322862D01*
X252347946Y-88045522D01*
X253302601Y-89846205D01*
X254246673Y-91724376D01*
X255179831Y-93679502D01*
X256101743Y-95711049D01*
X257012079Y-97818482D01*
X257910508Y-100001266D01*
X258796698Y-102258868D01*
X259226241Y-103391917D01*
X259656239Y-104556115D01*
X260090426Y-105764437D01*
X260525536Y-107006650D01*
X260958308Y-108272523D01*
X261385477Y-109551824D01*
X261803779Y-110834321D01*
X262209952Y-112109784D01*
X262600731Y-113367979D01*
X262972853Y-114598676D01*
X263323054Y-115791643D01*
X263648072Y-116936647D01*
X263944642Y-118023458D01*
X264176314Y-118911081D01*
X264257771Y-119261938D01*
X264304992Y-119551378D01*
X264317995Y-119795411D01*
X264296796Y-120010049D01*
X264241412Y-120211303D01*
X264177799Y-120362355D01*
X264047939Y-120588187D01*
X263880676Y-120790409D01*
X263669118Y-120972893D01*
X263406374Y-121139511D01*
X263085551Y-121294137D01*
X262699759Y-121440642D01*
X262242105Y-121582899D01*
X261791048Y-121703472D01*
X261072188Y-121874987D01*
X260340167Y-122029751D01*
X259584751Y-122169280D01*
X258795705Y-122295088D01*
X257962795Y-122408690D01*
X257075785Y-122511601D01*
X256124442Y-122605336D01*
X255136333Y-122688468D01*
X254864215Y-122705073D01*
X254519294Y-122718755D01*
X254113384Y-122729557D01*
X253658297Y-122737520D01*
X253165845Y-122742685D01*
X252647842Y-122745095D01*
X252116100Y-122744791D01*
X251582432Y-122741815D01*
X251058649Y-122736209D01*
X250556565Y-122728015D01*
X250087993Y-122717273D01*
X249664744Y-122704027D01*
X249298632Y-122688317D01*
X249001470Y-122670186D01*
X248955667Y-122666624D01*
X247386577Y-122518429D01*
X245883467Y-122332673D01*
X244435412Y-122107210D01*
X243031486Y-121839890D01*
X241660764Y-121528567D01*
X240312320Y-121171092D01*
X238975230Y-120765316D01*
X238515758Y-120614121D01*
X237664349Y-120328442D01*
X237247970Y-120725021D01*
X236694043Y-121196477D01*
X236078090Y-121617464D01*
X235409303Y-121983298D01*
X234696874Y-122289296D01*
X233949998Y-122530773D01*
X233480516Y-122644582D01*
X233017167Y-122742955D01*
X211617667Y-122751711D01*
X210010453Y-122752364D01*
X208485712Y-122752967D01*
X207041250Y-122753514D01*
X205674873Y-122753996D01*
X204384386Y-122754408D01*
X203167597Y-122754740D01*
X202022311Y-122754988D01*
X200946334Y-122755142D01*
X199937472Y-122755196D01*
X198993532Y-122755142D01*
X198112319Y-122754974D01*
X197291640Y-122754684D01*
X196529300Y-122754264D01*
X195823105Y-122753708D01*
X195170863Y-122753009D01*
X194570378Y-122752158D01*
X194019457Y-122751149D01*
X193515907Y-122749974D01*
X193057532Y-122748626D01*
X192642139Y-122747099D01*
X192267534Y-122745384D01*
X191931524Y-122743474D01*
X191631914Y-122741363D01*
X191366510Y-122739042D01*
X191133119Y-122736505D01*
X190929546Y-122733745D01*
X190753598Y-122730753D01*
X190603081Y-122727524D01*
X190475801Y-122724049D01*
X190369563Y-122720321D01*
X190282174Y-122716333D01*
X190211441Y-122712079D01*
X190155168Y-122707549D01*
X190111163Y-122702738D01*
X190077230Y-122697638D01*
X190051177Y-122692242D01*
X190030810Y-122686543D01*
X190013934Y-122680532D01*
X190013149Y-122680226D01*
X189717440Y-122523316D01*
X189455416Y-122304291D01*
X189242569Y-122039786D01*
X189094390Y-121746432D01*
X189067651Y-121665035D01*
X189038953Y-121544596D01*
X189021704Y-121409677D01*
X189014886Y-121241145D01*
X189017485Y-121019866D01*
X189023738Y-120838744D01*
X189096061Y-120065932D01*
X189175019Y-119673788D01*
X192360320Y-119673788D01*
X196841720Y-119673788D01*
X200054961Y-119673788D01*
X208990147Y-119673788D01*
X209853483Y-119673672D01*
X210694103Y-119673330D01*
X211508106Y-119672775D01*
X212291591Y-119672015D01*
X213040657Y-119671063D01*
X213751402Y-119669930D01*
X214419925Y-119668625D01*
X215042326Y-119667161D01*
X215614703Y-119665547D01*
X216133155Y-119663795D01*
X216593781Y-119661916D01*
X216992680Y-119659921D01*
X217325950Y-119657820D01*
X217589691Y-119655624D01*
X217780001Y-119653344D01*
X217892979Y-119650992D01*
X217925333Y-119648870D01*
X217908102Y-119602565D01*
X217861608Y-119497420D01*
X217793649Y-119350718D01*
X217737779Y-119233175D01*
X217435565Y-118698992D01*
X217068902Y-118216293D01*
X216643531Y-117789214D01*
X216165191Y-117421889D01*
X215639623Y-117118452D01*
X215072567Y-116883039D01*
X214469762Y-116719783D01*
X214178833Y-116669596D01*
X214088610Y-116662940D01*
X213916959Y-116656759D01*
X213667120Y-116651081D01*
X213342331Y-116645931D01*
X212945831Y-116641338D01*
X212480858Y-116637327D01*
X211950650Y-116633925D01*
X211358446Y-116631159D01*
X210707485Y-116629056D01*
X210001005Y-116627642D01*
X209242245Y-116626944D01*
X208993000Y-116626876D01*
X208212155Y-116626823D01*
X207511038Y-116626987D01*
X206884708Y-116627557D01*
X206328227Y-116628720D01*
X205836653Y-116630664D01*
X205405049Y-116633578D01*
X205028474Y-116637650D01*
X204701988Y-116643068D01*
X204420653Y-116650019D01*
X204179529Y-116658693D01*
X203973676Y-116669277D01*
X203798154Y-116681959D01*
X203648024Y-116696927D01*
X203518347Y-116714370D01*
X203404183Y-116734475D01*
X203300591Y-116757431D01*
X203202634Y-116783426D01*
X203105371Y-116812647D01*
X203003863Y-116845284D01*
X202970489Y-116856213D01*
X202399584Y-117087051D01*
X201866292Y-117390217D01*
X201377954Y-117759394D01*
X200941907Y-118188265D01*
X200565491Y-118670515D01*
X200262462Y-119186955D01*
X200187021Y-119342179D01*
X200124558Y-119478931D01*
X200087119Y-119570696D01*
X200084531Y-119578538D01*
X200054961Y-119673788D01*
X196841720Y-119673788D01*
X196867719Y-119557372D01*
X197057408Y-118872974D01*
X197316686Y-118191775D01*
X197634851Y-117538929D01*
X197947750Y-117018827D01*
X198194559Y-116646955D01*
X197339029Y-116634640D01*
X197050305Y-116633108D01*
X196764616Y-116636290D01*
X196502461Y-116643618D01*
X196284335Y-116654521D01*
X196132946Y-116668140D01*
X195515022Y-116790082D01*
X194930692Y-116987863D01*
X194384984Y-117257623D01*
X193882926Y-117595499D01*
X193429544Y-117997631D01*
X193029868Y-118460155D01*
X192688925Y-118979210D01*
X192426557Y-119515038D01*
X192360320Y-119673788D01*
X189175019Y-119673788D01*
X189247764Y-119312503D01*
X189474796Y-118583440D01*
X189773104Y-117883728D01*
X190138634Y-117218350D01*
X190567336Y-116592292D01*
X191055156Y-116010537D01*
X191598041Y-115478069D01*
X192191940Y-114999873D01*
X192832799Y-114580933D01*
X193516567Y-114226234D01*
X194239189Y-113940758D01*
X194757331Y-113787006D01*
X195057533Y-113717519D01*
X195387807Y-113654347D01*
X195723757Y-113601128D01*
X196040986Y-113561503D01*
X196315099Y-113539112D01*
X196443335Y-113535455D01*
X196570200Y-113532188D01*
X196653981Y-113523767D01*
X196674000Y-113515768D01*
X196650515Y-113476142D01*
X196586197Y-113381450D01*
X196490250Y-113244924D01*
X196371881Y-113079799D01*
X196342708Y-113039518D01*
X195469431Y-111775655D01*
X194626785Y-110433443D01*
X193815062Y-109013580D01*
X193034558Y-107516763D01*
X192285569Y-105943690D01*
X191568390Y-104295057D01*
X190883314Y-102571563D01*
X190230638Y-100773904D01*
X189610657Y-98902778D01*
X189023664Y-96958883D01*
X188469957Y-94942915D01*
X188144199Y-93659955D01*
X187641475Y-91513035D01*
X187172045Y-89291013D01*
X186736298Y-86996800D01*
X186334627Y-84633306D01*
X185967422Y-82203440D01*
X185635073Y-79710114D01*
X185337971Y-77156236D01*
X185076506Y-74544717D01*
X184851070Y-71878468D01*
X184662052Y-69160398D01*
X184524453Y-66693622D01*
X184493460Y-66057062D01*
X184466121Y-65471914D01*
X184442161Y-64927406D01*
X184421307Y-64412767D01*
X184403286Y-63917227D01*
X184387824Y-63430015D01*
X184374649Y-62940360D01*
X184363485Y-62437490D01*
X184354061Y-61910634D01*
X184346103Y-61349023D01*
X184342647Y-61038908D01*
X187445333Y-61038908D01*
X187445659Y-61368598D01*
X187447996Y-61596063D01*
X187454382Y-61898568D01*
X187464431Y-62266603D01*
X187477758Y-62690658D01*
X187493977Y-63161222D01*
X187512703Y-63668787D01*
X187533551Y-64203840D01*
X187556135Y-64756872D01*
X187580070Y-65318374D01*
X187604970Y-65878834D01*
X187630450Y-66428742D01*
X187656126Y-66958589D01*
X187681610Y-67458864D01*
X187706519Y-67920056D01*
X187722340Y-68196455D01*
X187897192Y-70855394D01*
X188105629Y-73455637D01*
X188347390Y-75995983D01*
X188622215Y-78475234D01*
X188929845Y-80892190D01*
X189270018Y-83245650D01*
X189642475Y-85534415D01*
X190046955Y-87757286D01*
X190483197Y-89913062D01*
X190950943Y-92000544D01*
X191449931Y-94018531D01*
X191979901Y-95965825D01*
X192540592Y-97841226D01*
X193131746Y-99643533D01*
X193753100Y-101371547D01*
X194404396Y-103024069D01*
X195085372Y-104599898D01*
X195795769Y-106097834D01*
X196056690Y-106613955D01*
X196619213Y-107668517D01*
X197206362Y-108693790D01*
X197812893Y-109682102D01*
X198433563Y-110625785D01*
X199063129Y-111517169D01*
X199696345Y-112348583D01*
X200327970Y-113112357D01*
X200952759Y-113800823D01*
X201013010Y-113863525D01*
X201309500Y-114170428D01*
X201691446Y-114025063D01*
X202121746Y-113877246D01*
X202598166Y-113745122D01*
X203090504Y-113633418D01*
X203147397Y-113623006D01*
X203215625Y-113613615D01*
X203299781Y-113605175D01*
X203404456Y-113597615D01*
X203534243Y-113590864D01*
X203693733Y-113584853D01*
X203887517Y-113579510D01*
X204120189Y-113574766D01*
X204396339Y-113570550D01*
X204720560Y-113566792D01*
X205097444Y-113563420D01*
X205531582Y-113560366D01*
X206027566Y-113557558D01*
X206589989Y-113554926D01*
X207223441Y-113552399D01*
X207932516Y-113549908D01*
X208696667Y-113547459D01*
X209634797Y-113544953D01*
X210489304Y-113543503D01*
X211260080Y-113543109D01*
X211947020Y-113543769D01*
X212550016Y-113545484D01*
X213068962Y-113548252D01*
X213503752Y-113552073D01*
X213854279Y-113556947D01*
X214120438Y-113562873D01*
X214302121Y-113569850D01*
X214381840Y-113575660D01*
X215189187Y-113703514D01*
X215965975Y-113910281D01*
X216711483Y-114195642D01*
X217424990Y-114559276D01*
X218105777Y-115000863D01*
X218751334Y-115518501D01*
X219273119Y-116034495D01*
X219748529Y-116615417D01*
X220172143Y-117252091D01*
X220538539Y-117935341D01*
X220842294Y-118655992D01*
X221077987Y-119404868D01*
X221101145Y-119495023D01*
X221146550Y-119676090D01*
X226954858Y-119664104D01*
X232763167Y-119652118D01*
X233178864Y-119537644D01*
X233405281Y-119466320D01*
X233664862Y-119370789D01*
X233916114Y-119266785D01*
X234025531Y-119216580D01*
X234456500Y-119009991D01*
X233680151Y-118620115D01*
X232121004Y-117791073D01*
X230614295Y-116896167D01*
X229159669Y-115935073D01*
X227756770Y-114907468D01*
X226405242Y-113813027D01*
X225104730Y-112651426D01*
X223854877Y-111422343D01*
X222655329Y-110125452D01*
X221505728Y-108760430D01*
X220405720Y-107326954D01*
X219354949Y-105824699D01*
X218956387Y-105216955D01*
X218111538Y-103846513D01*
X217295405Y-102405331D01*
X216513025Y-100903957D01*
X215769437Y-99352939D01*
X215069678Y-97762827D01*
X214418786Y-96144167D01*
X213821799Y-94507509D01*
X213770464Y-94358455D01*
X213388362Y-93149612D01*
X213060623Y-91915846D01*
X212788008Y-90665705D01*
X212571281Y-89407736D01*
X212411205Y-88150487D01*
X212308542Y-86902505D01*
X212264056Y-85672339D01*
X212264324Y-85649941D01*
X215360304Y-85649941D01*
X215410320Y-86876617D01*
X215529558Y-88137741D01*
X215718018Y-89430454D01*
X215853861Y-90167455D01*
X215984308Y-90796155D01*
X216118703Y-91377456D01*
X216263709Y-91935410D01*
X216425988Y-92494073D01*
X216612202Y-93077497D01*
X216829012Y-93709736D01*
X216856312Y-93786955D01*
X217546910Y-95629106D01*
X218289457Y-97406349D01*
X219083712Y-99118367D01*
X219929435Y-100764844D01*
X220826385Y-102345463D01*
X221774322Y-103859907D01*
X222773004Y-105307859D01*
X223822192Y-106689002D01*
X224921645Y-108003019D01*
X226071122Y-109249594D01*
X227270382Y-110428410D01*
X228519185Y-111539150D01*
X229817290Y-112581496D01*
X231164457Y-113555133D01*
X232551500Y-114454262D01*
X233539038Y-115032462D01*
X234589252Y-115596648D01*
X235680218Y-116136128D01*
X236790010Y-116640214D01*
X237896704Y-117098214D01*
X238266500Y-117240825D01*
X239789867Y-117775670D01*
X241364347Y-118248026D01*
X242982287Y-118656354D01*
X244636032Y-118999117D01*
X246317930Y-119274776D01*
X248020328Y-119481793D01*
X249735570Y-119618630D01*
X250225667Y-119644561D01*
X250442228Y-119652002D01*
X250728848Y-119657752D01*
X251071637Y-119661856D01*
X251456701Y-119664359D01*
X251870150Y-119665307D01*
X252298091Y-119664744D01*
X252726634Y-119662717D01*
X253141885Y-119659270D01*
X253529955Y-119654448D01*
X253876950Y-119648298D01*
X254168979Y-119640863D01*
X254392151Y-119632190D01*
X254416667Y-119630904D01*
X255451083Y-119562259D01*
X256473710Y-119470798D01*
X257470299Y-119358308D01*
X258426606Y-119226578D01*
X259328384Y-119077396D01*
X260161386Y-118912548D01*
X260189757Y-118906378D01*
X260407339Y-118858054D01*
X260599399Y-118813826D01*
X260748654Y-118777789D01*
X260837823Y-118754038D01*
X260850692Y-118749760D01*
X260872261Y-118734537D01*
X260883157Y-118702664D01*
X260881463Y-118644389D01*
X260865263Y-118549956D01*
X260832641Y-118409612D01*
X260781680Y-118213601D01*
X260710464Y-117952171D01*
X260653817Y-117747622D01*
X260106746Y-115832053D01*
X259521665Y-113883968D01*
X258902989Y-111915973D01*
X258255132Y-109940677D01*
X257582510Y-107970688D01*
X256889537Y-106018615D01*
X256180628Y-104097065D01*
X255460198Y-102218646D01*
X254732661Y-100395966D01*
X254002433Y-98641635D01*
X253790718Y-98147288D01*
X253053618Y-96473274D01*
X252300532Y-94832773D01*
X251535938Y-93234841D01*
X250764316Y-91688532D01*
X249990148Y-90202902D01*
X249217912Y-88787006D01*
X248761097Y-87981196D01*
X247827014Y-86402960D01*
X246887888Y-84905404D01*
X245943987Y-83488801D01*
X244995580Y-82153426D01*
X244042934Y-80899554D01*
X243086318Y-79727458D01*
X242125999Y-78637413D01*
X241162247Y-77629694D01*
X240195329Y-76704574D01*
X239225513Y-75862328D01*
X238253068Y-75103231D01*
X237278261Y-74427556D01*
X236301360Y-73835577D01*
X235322635Y-73327571D01*
X234342352Y-72903809D01*
X233845329Y-72721402D01*
X233138219Y-72497298D01*
X232443951Y-72319486D01*
X231750966Y-72187113D01*
X231047704Y-72099321D01*
X230322607Y-72055254D01*
X229564114Y-72054057D01*
X228760667Y-72094874D01*
X227900705Y-72176849D01*
X227375840Y-72242329D01*
X226170647Y-72435546D01*
X225026500Y-72683149D01*
X223944082Y-72984816D01*
X222924072Y-73340223D01*
X221967152Y-73749045D01*
X221074002Y-74210959D01*
X220245303Y-74725640D01*
X219481736Y-75292765D01*
X218783983Y-75912010D01*
X218152723Y-76583051D01*
X218084762Y-76663122D01*
X217599475Y-77297067D01*
X217149781Y-77997010D01*
X216742463Y-78749336D01*
X216384302Y-79540428D01*
X216082079Y-80356670D01*
X215852471Y-81144922D01*
X215625594Y-82205204D01*
X215467940Y-83311375D01*
X215379511Y-84460574D01*
X215360304Y-85649941D01*
X212264324Y-85649941D01*
X212278509Y-84468536D01*
X212352665Y-83299645D01*
X212487285Y-82174212D01*
X212616188Y-81425622D01*
X212878289Y-80281528D01*
X213207213Y-79189367D01*
X213602583Y-78149563D01*
X214064026Y-77162541D01*
X214591167Y-76228727D01*
X215183630Y-75348546D01*
X215841040Y-74522423D01*
X216563022Y-73750784D01*
X217349202Y-73034052D01*
X218199204Y-72372655D01*
X219112654Y-71767016D01*
X220089176Y-71217561D01*
X221128395Y-70724715D01*
X222229937Y-70288904D01*
X222531426Y-70183306D01*
X223378443Y-69916975D01*
X224269357Y-69679108D01*
X225190965Y-69471497D01*
X226130065Y-69295934D01*
X227073457Y-69154211D01*
X228007937Y-69048121D01*
X228920304Y-68979454D01*
X229797356Y-68950003D01*
X230625891Y-68961561D01*
X231240349Y-69001126D01*
X232359281Y-69143604D01*
X233464039Y-69367528D01*
X234547413Y-69671002D01*
X235602193Y-70052128D01*
X236184499Y-70301861D01*
X236354999Y-70377007D01*
X236495211Y-70434416D01*
X236588616Y-70467603D01*
X236618602Y-70472297D01*
X236620960Y-70428374D01*
X236623039Y-70305210D01*
X236624830Y-70108229D01*
X236626325Y-69842856D01*
X236627515Y-69514517D01*
X236628391Y-69128636D01*
X236628943Y-68690637D01*
X236629164Y-68205947D01*
X236629044Y-67679990D01*
X236628574Y-67118190D01*
X236627746Y-66525972D01*
X236626550Y-65908762D01*
X236626270Y-65784411D01*
X236615500Y-61114962D01*
X236342535Y-61444963D01*
X235826811Y-62020597D01*
X235245037Y-62584832D01*
X234615716Y-63121970D01*
X233957357Y-63616312D01*
X233288464Y-64052161D01*
X233223183Y-64091054D01*
X232334906Y-64569769D01*
X231405584Y-64980553D01*
X230434501Y-65323416D01*
X229420940Y-65598372D01*
X228364183Y-65805432D01*
X227263516Y-65944606D01*
X226118219Y-66015908D01*
X224927578Y-66019348D01*
X223690875Y-65954938D01*
X222407394Y-65822690D01*
X221076418Y-65622615D01*
X219697231Y-65354725D01*
X218269115Y-65019033D01*
X216791354Y-64615548D01*
X215977938Y-64371177D01*
X215787377Y-64312171D01*
X214559772Y-66327653D01*
X214257571Y-66821471D01*
X213986923Y-67258910D01*
X213749518Y-67637339D01*
X213547047Y-67954125D01*
X213381200Y-68206636D01*
X213253668Y-68392240D01*
X213166141Y-68508303D01*
X213141667Y-68535730D01*
X212867543Y-68753221D01*
X212542087Y-68903662D01*
X212269267Y-68971442D01*
X211958362Y-68984388D01*
X211640583Y-68925002D01*
X211336226Y-68801139D01*
X211065587Y-68620657D01*
X210881837Y-68434400D01*
X210841955Y-68376301D01*
X210762941Y-68253910D01*
X210649734Y-68075229D01*
X210507273Y-67848261D01*
X210340495Y-67581007D01*
X210154340Y-67281469D01*
X209953746Y-66957649D01*
X209743651Y-66617549D01*
X209528993Y-66269170D01*
X209314712Y-65920514D01*
X209105745Y-65579584D01*
X208907031Y-65254380D01*
X208723509Y-64952905D01*
X208560117Y-64683161D01*
X208421793Y-64453148D01*
X208340535Y-64316703D01*
X208301838Y-64325234D01*
X208204518Y-64353669D01*
X208082833Y-64391674D01*
X206707050Y-64804598D01*
X205350353Y-65157945D01*
X204016809Y-65451260D01*
X202710481Y-65684090D01*
X201435433Y-65855983D01*
X200195731Y-65966484D01*
X198995439Y-66015140D01*
X197838620Y-66001499D01*
X196729340Y-65925106D01*
X195671663Y-65785509D01*
X195636833Y-65779676D01*
X194573749Y-65561558D01*
X193551755Y-65273382D01*
X192573261Y-64916479D01*
X191640676Y-64492181D01*
X190756410Y-64001822D01*
X189922873Y-63446732D01*
X189142474Y-62828244D01*
X188417624Y-62147691D01*
X187772020Y-61432098D01*
X187445333Y-61038908D01*
X184342647Y-61038908D01*
X184339336Y-60741885D01*
X184333488Y-60078448D01*
X184328285Y-59347943D01*
X184325197Y-58845337D01*
X184320981Y-57906785D01*
X184319446Y-57001864D01*
X184320526Y-56135109D01*
X184324155Y-55311055D01*
X184330268Y-54534239D01*
X184338800Y-53809196D01*
X184349683Y-53140461D01*
X184362853Y-52532571D01*
X184378245Y-51990062D01*
X184395791Y-51517468D01*
X184397522Y-51482356D01*
X187503018Y-51482356D01*
X187504768Y-52362413D01*
X187553880Y-52956455D01*
X187709028Y-53978586D01*
X187933569Y-54971231D01*
X188225310Y-55928588D01*
X188582060Y-56844855D01*
X189001626Y-57714228D01*
X189481817Y-58530904D01*
X189872584Y-59094788D01*
X190065410Y-59336139D01*
X190307120Y-59610415D01*
X190580963Y-59900824D01*
X190870190Y-60190573D01*
X191158048Y-60462869D01*
X191427788Y-60700922D01*
X191657500Y-60884132D01*
X192379057Y-61366525D01*
X193152319Y-61786839D01*
X193965564Y-62139078D01*
X194435411Y-62304797D01*
X194949090Y-62460485D01*
X195455516Y-62590108D01*
X195972016Y-62696712D01*
X196515921Y-62783347D01*
X197104559Y-62853061D01*
X197755259Y-62908903D01*
X197944000Y-62922008D01*
X198125656Y-62928676D01*
X198374939Y-62930147D01*
X198675002Y-62926949D01*
X199008999Y-62919610D01*
X199360082Y-62908657D01*
X199711406Y-62894617D01*
X200046124Y-62878019D01*
X200347389Y-62859390D01*
X200598355Y-62839257D01*
X200604373Y-62838689D01*
X201631226Y-62718171D01*
X202702876Y-62548543D01*
X203797992Y-62333564D01*
X204823167Y-62095138D01*
X205104979Y-62023365D01*
X205395674Y-61947227D01*
X205682396Y-61870302D01*
X205952287Y-61796171D01*
X206192489Y-61728413D01*
X206390147Y-61670609D01*
X206532402Y-61626337D01*
X206606397Y-61599178D01*
X206608730Y-61597988D01*
X206598316Y-61555954D01*
X206543105Y-61443741D01*
X206443807Y-61262571D01*
X206301132Y-61013665D01*
X206115788Y-60698242D01*
X205888485Y-60317523D01*
X205619931Y-59872729D01*
X205571566Y-59793288D01*
X209201638Y-59793288D01*
X210629718Y-62130861D01*
X210876427Y-62534306D01*
X211109934Y-62915413D01*
X211326542Y-63268199D01*
X211522553Y-63586677D01*
X211694272Y-63864864D01*
X211838002Y-64096772D01*
X211950045Y-64276419D01*
X212026706Y-64397817D01*
X212064287Y-64454983D01*
X212067519Y-64458713D01*
X212090698Y-64421880D01*
X212154314Y-64318868D01*
X212254647Y-64155738D01*
X212387983Y-63938554D01*
X212550603Y-63673376D01*
X212738790Y-63366269D01*
X212948827Y-63023293D01*
X213176997Y-62650512D01*
X213419582Y-62253988D01*
X213498590Y-62124804D01*
X213744505Y-61722105D01*
X213820075Y-61597988D01*
X217515603Y-61597988D01*
X217584473Y-61623900D01*
X217722469Y-61667131D01*
X217916676Y-61724089D01*
X218154176Y-61791182D01*
X218422054Y-61864817D01*
X218707392Y-61941401D01*
X218997274Y-62017341D01*
X219278783Y-62089044D01*
X219301167Y-62094642D01*
X220554499Y-62382463D01*
X221768233Y-62610369D01*
X222938889Y-62777958D01*
X224062990Y-62884833D01*
X225137058Y-62930593D01*
X226157614Y-62914838D01*
X226349667Y-62904590D01*
X227244427Y-62828385D01*
X228078925Y-62708893D01*
X228867426Y-62542998D01*
X229624196Y-62327584D01*
X230363502Y-62059536D01*
X230527587Y-61992202D01*
X231315543Y-61617275D01*
X232054890Y-61173873D01*
X232744515Y-60663613D01*
X233383303Y-60088113D01*
X233970138Y-59448990D01*
X234503906Y-58747860D01*
X234983493Y-57986341D01*
X235407782Y-57166049D01*
X235775660Y-56288603D01*
X236086011Y-55355619D01*
X236337721Y-54368714D01*
X236529675Y-53329505D01*
X236538018Y-53273955D01*
X236577270Y-52924705D01*
X236602477Y-52516833D01*
X236613672Y-52075208D01*
X236610885Y-51624696D01*
X236594145Y-51190164D01*
X236563485Y-50796479D01*
X236534674Y-50564622D01*
X236361121Y-49667716D01*
X236114036Y-48809407D01*
X235792136Y-47987191D01*
X235394136Y-47198570D01*
X234918754Y-46441041D01*
X234364706Y-45712103D01*
X233730709Y-45009257D01*
X233632886Y-44910182D01*
X233211434Y-44501693D01*
X232802243Y-44135680D01*
X232382515Y-43793542D01*
X231929446Y-43456679D01*
X231429667Y-43112775D01*
X231248304Y-42994731D01*
X231034774Y-42860465D01*
X230799949Y-42716321D01*
X230554702Y-42568644D01*
X230309908Y-42423780D01*
X230076439Y-42288074D01*
X229865168Y-42167871D01*
X229686970Y-42069517D01*
X229552717Y-41999355D01*
X229473282Y-41963733D01*
X229456618Y-41961392D01*
X229430110Y-42001534D01*
X229366015Y-42103939D01*
X229270382Y-42258670D01*
X229149256Y-42455790D01*
X229008686Y-42685364D01*
X228854720Y-42937453D01*
X228693404Y-43202122D01*
X228530787Y-43469435D01*
X228372915Y-43729454D01*
X228225837Y-43972243D01*
X228095600Y-44187866D01*
X227988251Y-44366385D01*
X227909838Y-44497865D01*
X227866408Y-44572368D01*
X227859641Y-44585362D01*
X227894262Y-44610847D01*
X227993613Y-44655506D01*
X228141783Y-44712722D01*
X228297000Y-44767220D01*
X229056131Y-45066257D01*
X229768730Y-45434278D01*
X230431545Y-45867498D01*
X231041323Y-46362132D01*
X231594812Y-46914396D01*
X232088757Y-47520504D01*
X232519907Y-48176671D01*
X232885009Y-48879112D01*
X233180809Y-49624042D01*
X233404056Y-50407676D01*
X233486123Y-50805453D01*
X233527926Y-51104372D01*
X233558009Y-51459754D01*
X233575521Y-51844098D01*
X233579614Y-52229901D01*
X233569435Y-52589661D01*
X233549342Y-52850622D01*
X233422445Y-53646040D01*
X233218483Y-54413397D01*
X232941108Y-55148128D01*
X232593975Y-55845671D01*
X232180736Y-56501462D01*
X231705044Y-57110938D01*
X231170552Y-57669535D01*
X230580914Y-58172690D01*
X229939782Y-58615840D01*
X229250810Y-58994421D01*
X228517650Y-59303871D01*
X228331446Y-59368708D01*
X227555739Y-59584172D01*
X226771839Y-59716769D01*
X225985098Y-59767211D01*
X225200869Y-59736205D01*
X224424504Y-59624463D01*
X223661356Y-59432694D01*
X222916777Y-59161607D01*
X222196121Y-58811912D01*
X221650667Y-58482804D01*
X221409318Y-58321210D01*
X221215025Y-58183323D01*
X221045729Y-58051205D01*
X220879370Y-57906919D01*
X220693890Y-57732528D01*
X220526197Y-57568458D01*
X220142560Y-57189522D01*
X218804133Y-59380405D01*
X218496181Y-59886269D01*
X218228791Y-60329248D01*
X218002671Y-60708119D01*
X217818533Y-61021663D01*
X217677083Y-61268659D01*
X217579034Y-61447885D01*
X217525092Y-61558121D01*
X217515603Y-61597988D01*
X213820075Y-61597988D01*
X213976497Y-61341081D01*
X214190916Y-60987798D01*
X214384112Y-60668327D01*
X214552434Y-60388734D01*
X214692232Y-60155090D01*
X214799856Y-59973462D01*
X214871655Y-59849920D01*
X214903979Y-59790531D01*
X214905392Y-59786069D01*
X214861697Y-59783759D01*
X214740299Y-59781879D01*
X214548157Y-59780437D01*
X214292232Y-59779443D01*
X213979487Y-59778904D01*
X213616881Y-59778832D01*
X213211377Y-59779233D01*
X212769935Y-59780117D01*
X212299516Y-59781494D01*
X212046241Y-59782405D01*
X209201638Y-59793288D01*
X205571566Y-59793288D01*
X205318533Y-59377677D01*
X203978439Y-57184065D01*
X203841071Y-57338437D01*
X203648112Y-57537778D01*
X203404702Y-57762762D01*
X203132615Y-57994845D01*
X202853621Y-58215484D01*
X202589494Y-58406135D01*
X202579500Y-58412906D01*
X202249639Y-58629261D01*
X201956599Y-58805305D01*
X201672971Y-58955893D01*
X201371350Y-59095881D01*
X201137945Y-59194248D01*
X200376473Y-59460382D01*
X199599456Y-59643766D01*
X198810649Y-59744088D01*
X198013806Y-59761034D01*
X197212681Y-59694294D01*
X196550328Y-59575820D01*
X195782178Y-59362853D01*
X195050705Y-59075957D01*
X194359718Y-58719229D01*
X193713026Y-58296766D01*
X193114436Y-57812665D01*
X192567758Y-57271023D01*
X192076800Y-56675938D01*
X191645371Y-56031506D01*
X191277280Y-55341825D01*
X190976335Y-54610992D01*
X190746345Y-53843104D01*
X190613473Y-53189288D01*
X190585850Y-52949125D01*
X190567902Y-52646810D01*
X190559404Y-52304277D01*
X190560131Y-51943462D01*
X190569859Y-51586297D01*
X190588362Y-51254717D01*
X190615415Y-50970656D01*
X190637760Y-50820328D01*
X190825450Y-50007460D01*
X191086501Y-49236843D01*
X191420959Y-48508403D01*
X191828866Y-47822066D01*
X192310266Y-47177757D01*
X192865204Y-46575402D01*
X193477833Y-46027844D01*
X193859200Y-45746434D01*
X194301642Y-45469499D01*
X194781943Y-45209500D01*
X195276891Y-44978898D01*
X195763269Y-44790155D01*
X195818284Y-44771470D01*
X195995136Y-44709286D01*
X196137881Y-44653247D01*
X196229949Y-44610236D01*
X196256005Y-44589611D01*
X196235202Y-44546321D01*
X196175007Y-44439236D01*
X196080358Y-44276696D01*
X195956194Y-44067042D01*
X195807452Y-43818612D01*
X195639070Y-43539748D01*
X195463878Y-43251720D01*
X194669481Y-41950151D01*
X194182413Y-42208183D01*
X193215907Y-42757368D01*
X192322043Y-43342089D01*
X191501682Y-43961423D01*
X190755688Y-44614445D01*
X190084922Y-45300233D01*
X189490248Y-46017862D01*
X188972527Y-46766410D01*
X188532621Y-47544952D01*
X188171394Y-48352565D01*
X187999911Y-48828955D01*
X187750850Y-49713218D01*
X187585132Y-50598488D01*
X187503018Y-51482356D01*
X184397522Y-51482356D01*
X184415426Y-51119325D01*
X184437086Y-50800170D01*
X184442746Y-50733955D01*
X184571364Y-49757077D01*
X184779178Y-48786268D01*
X185062605Y-47829897D01*
X185418057Y-46896337D01*
X185841951Y-45993957D01*
X186330700Y-45131127D01*
X186880719Y-44316219D01*
X187488422Y-43557603D01*
X187543391Y-43495117D01*
X187730855Y-43283613D01*
X187411835Y-42944784D01*
X186800586Y-42240153D01*
X186270169Y-41510420D01*
X185820476Y-40755318D01*
X185451398Y-39974580D01*
X185162826Y-39167940D01*
X184954649Y-38335129D01*
X184826758Y-37475880D01*
X184783158Y-36666281D01*
X187879689Y-36666281D01*
X187937998Y-37391075D01*
X188077000Y-38091874D01*
X188184547Y-38457288D01*
X188275656Y-38693919D01*
X188404895Y-38975400D01*
X188559907Y-39278614D01*
X188728336Y-39580446D01*
X188897826Y-39857779D01*
X189055740Y-40087122D01*
X189220103Y-40295683D01*
X189413282Y-40524202D01*
X189605097Y-40737561D01*
X189699220Y-40835864D01*
X190041643Y-41182439D01*
X190278071Y-41011412D01*
X190419811Y-40910645D01*
X190602090Y-40783519D01*
X190665459Y-40739927D01*
X197573433Y-40739927D01*
X197594416Y-40776068D01*
X197657108Y-40880475D01*
X197759076Y-41049163D01*
X197897890Y-41278147D01*
X198071119Y-41563441D01*
X198276332Y-41901061D01*
X198511097Y-42287022D01*
X198772983Y-42717338D01*
X199059560Y-43188026D01*
X199368395Y-43695099D01*
X199697059Y-44234572D01*
X200043119Y-44802462D01*
X200404146Y-45394782D01*
X200777706Y-46007548D01*
X201161371Y-46636774D01*
X201552708Y-47278476D01*
X201949286Y-47928669D01*
X202348674Y-48583368D01*
X202748441Y-49238587D01*
X203146156Y-49890342D01*
X203539388Y-50534647D01*
X203925705Y-51167518D01*
X204302678Y-51784970D01*
X204667873Y-52383017D01*
X205018861Y-52957675D01*
X205353210Y-53504959D01*
X205668489Y-54020883D01*
X205962267Y-54501463D01*
X206232113Y-54942713D01*
X206475595Y-55340649D01*
X206690283Y-55691286D01*
X206873746Y-55990638D01*
X207023551Y-56234720D01*
X207137269Y-56419548D01*
X207212469Y-56541137D01*
X207241035Y-56586720D01*
X207301856Y-56682151D01*
X212070543Y-56671386D01*
X216839229Y-56660622D01*
X218727744Y-53570288D01*
X218998931Y-53126550D01*
X219309035Y-52619185D01*
X219652797Y-52056794D01*
X220024957Y-51447981D01*
X220420257Y-50801345D01*
X220833438Y-50125489D01*
X221259241Y-49429016D01*
X221692407Y-48720525D01*
X222127679Y-48008621D01*
X222559796Y-47301903D01*
X222983500Y-46608974D01*
X223393532Y-45938436D01*
X223578212Y-45636434D01*
X223936410Y-45050619D01*
X224282397Y-44484627D01*
X224613605Y-43942669D01*
X224927465Y-43428953D01*
X225221407Y-42947691D01*
X225492864Y-42503091D01*
X225739265Y-42099363D01*
X225958041Y-41740717D01*
X226146625Y-41431363D01*
X226302446Y-41175511D01*
X226422936Y-40977370D01*
X226505525Y-40841150D01*
X226547645Y-40771061D01*
X226552707Y-40762229D01*
X226520990Y-40732313D01*
X226415149Y-40682781D01*
X226242797Y-40616098D01*
X226011547Y-40534729D01*
X225729013Y-40441139D01*
X225402806Y-40337792D01*
X225040540Y-40227155D01*
X224649828Y-40111692D01*
X224238282Y-39993869D01*
X223830833Y-39880872D01*
X222874401Y-39635441D01*
X222266858Y-39497097D01*
X231472000Y-39497097D01*
X231505763Y-39529585D01*
X231591712Y-39585308D01*
X231651917Y-39619648D01*
X231924729Y-39774402D01*
X232243352Y-39963966D01*
X232584715Y-40173914D01*
X232925748Y-40389821D01*
X233243382Y-40597261D01*
X233514547Y-40781811D01*
X233546333Y-40804183D01*
X234075500Y-41178447D01*
X234342752Y-40918534D01*
X234504451Y-40753843D01*
X234677815Y-40565691D01*
X234826933Y-40393123D01*
X234834866Y-40383455D01*
X235255355Y-39815891D01*
X235597280Y-39235056D01*
X235866737Y-38628386D01*
X236069824Y-37983315D01*
X236135655Y-37703264D01*
X236189204Y-37368812D01*
X236222561Y-36976865D01*
X236235532Y-36552197D01*
X236227922Y-36119585D01*
X236199538Y-35703804D01*
X236154051Y-35352299D01*
X236073602Y-34871976D01*
X233772801Y-37172486D01*
X233407312Y-37538235D01*
X233059723Y-37886666D01*
X232734614Y-38213152D01*
X232436564Y-38513066D01*
X232170153Y-38781781D01*
X231939961Y-39014670D01*
X231750566Y-39207106D01*
X231606550Y-39354462D01*
X231512491Y-39452112D01*
X231472969Y-39495427D01*
X231472000Y-39497097D01*
X222266858Y-39497097D01*
X221866792Y-39405998D01*
X220818980Y-39193858D01*
X219741936Y-39000335D01*
X218646633Y-38826747D01*
X217544044Y-38674406D01*
X216445142Y-38544629D01*
X215360898Y-38438731D01*
X214302287Y-38358027D01*
X213280279Y-38303832D01*
X212305848Y-38277461D01*
X211389967Y-38280229D01*
X210686333Y-38305376D01*
X208979369Y-38421007D01*
X207294863Y-38586049D01*
X205640906Y-38799146D01*
X204025588Y-39058945D01*
X202456999Y-39364091D01*
X200943231Y-39713232D01*
X199492374Y-40105011D01*
X198935072Y-40272242D01*
X198585713Y-40381676D01*
X198274797Y-40481953D01*
X198010524Y-40570257D01*
X197801095Y-40643771D01*
X197654709Y-40699679D01*
X197579566Y-40735164D01*
X197573433Y-40739927D01*
X190665459Y-40739927D01*
X190795080Y-40650761D01*
X190885891Y-40589006D01*
X191103231Y-40445436D01*
X191354108Y-40285414D01*
X191620391Y-40119972D01*
X191883948Y-39960140D01*
X192126651Y-39816949D01*
X192330367Y-39701429D01*
X192445250Y-39640299D01*
X192559488Y-39577201D01*
X192634699Y-39525672D01*
X192652333Y-39504179D01*
X192623116Y-39470010D01*
X192538520Y-39380711D01*
X192403128Y-39240929D01*
X192221523Y-39055307D01*
X191998290Y-38828491D01*
X191738012Y-38565125D01*
X191445272Y-38269856D01*
X191124653Y-37947327D01*
X190780739Y-37602184D01*
X190418113Y-37239071D01*
X190352970Y-37173924D01*
X188053606Y-34874850D01*
X188005001Y-35142069D01*
X187902035Y-35916832D01*
X187879689Y-36666281D01*
X184783158Y-36666281D01*
X184779045Y-36589927D01*
X184778681Y-36509695D01*
X184817181Y-35649282D01*
X184931324Y-34774834D01*
X185117581Y-33902325D01*
X185372425Y-33047730D01*
X185692327Y-32227023D01*
X185755631Y-32086122D01*
X185907498Y-31764161D01*
X186038563Y-31508831D01*
X186156927Y-31307181D01*
X186270691Y-31146261D01*
X186387958Y-31013121D01*
X186482463Y-30924244D01*
X186718011Y-30747367D01*
X186957160Y-30634510D01*
X187223212Y-30577959D01*
X187539470Y-30570000D01*
X187551167Y-30570483D01*
G37*
M02*
