G04 #@! TF.GenerationSoftware,KiCad,Pcbnew,7.0.2.1-36-g582732918d-dirty-deb11*
G04 #@! TF.CreationDate,2026-01-20T05:17:19+00:00*
G04 #@! TF.ProjectId,owlThief,6f776c54-6869-4656-962e-6b696361645f,rev?*
G04 #@! TF.SameCoordinates,Original*
G04 #@! TF.FileFunction,Copper,L2,Bot*
G04 #@! TF.FilePolarity,Positive*
%FSLAX46Y46*%
G04 Gerber Fmt 4.6, Leading zero omitted, Abs format (unit mm)*
G04 Created by KiCad (PCBNEW 7.0.2.1-36-g582732918d-dirty-deb11) date 2026-01-20 05:17:19*
%MOMM*%
%LPD*%
G01*
G04 APERTURE LIST*
G04 #@! TA.AperFunction,SMDPad,CuDef*
%ADD10R,1.524000X5.000000*%
G04 #@! TD*
G04 #@! TA.AperFunction,SMDPad,CuDef*
%ADD11R,1.700000X3.300000*%
G04 #@! TD*
G04 #@! TA.AperFunction,SMDPad,CuDef*
%ADD12R,0.700000X2.000000*%
G04 #@! TD*
G04 #@! TA.AperFunction,SMDPad,CuDef*
%ADD13R,1.300000X3.150000*%
G04 #@! TD*
G04 #@! TA.AperFunction,Conductor*
%ADD14C,0.500000*%
G04 #@! TD*
G04 APERTURE END LIST*
G04 #@! TA.AperFunction,SMDPad,CuDef*
G36*
G01*
X220060000Y-82445000D02*
X218760000Y-82445000D01*
G75*
G02*
X218510000Y-82195000I0J250000D01*
G01*
X218510000Y-81370000D01*
G75*
G02*
X218760000Y-81120000I250000J0D01*
G01*
X220060000Y-81120000D01*
G75*
G02*
X220310000Y-81370000I0J-250000D01*
G01*
X220310000Y-82195000D01*
G75*
G02*
X220060000Y-82445000I-250000J0D01*
G01*
G37*
G04 #@! TD.AperFunction*
G04 #@! TA.AperFunction,SMDPad,CuDef*
G36*
G01*
X220060000Y-79320000D02*
X218760000Y-79320000D01*
G75*
G02*
X218510000Y-79070000I0J250000D01*
G01*
X218510000Y-78245000D01*
G75*
G02*
X218760000Y-77995000I250000J0D01*
G01*
X220060000Y-77995000D01*
G75*
G02*
X220310000Y-78245000I0J-250000D01*
G01*
X220310000Y-79070000D01*
G75*
G02*
X220060000Y-79320000I-250000J0D01*
G01*
G37*
G04 #@! TD.AperFunction*
D10*
X196450000Y-64620000D03*
X199390000Y-64620000D03*
X224610000Y-64520000D03*
X227550000Y-64520000D03*
D11*
X227852500Y-83390000D03*
X227852500Y-77890000D03*
D12*
X206640000Y-82280000D03*
X204740000Y-82280000D03*
X205690000Y-78880000D03*
G04 #@! TA.AperFunction,SMDPad,CuDef*
G36*
G01*
X210450000Y-102600000D02*
X210450000Y-100600000D01*
G75*
G02*
X211450000Y-99600000I1000000J0D01*
G01*
X213450000Y-99600000D01*
G75*
G02*
X214450000Y-100600000I0J-1000000D01*
G01*
X214450000Y-102600000D01*
G75*
G02*
X213450000Y-103600000I-1000000J0D01*
G01*
X211450000Y-103600000D01*
G75*
G02*
X210450000Y-102600000I0J1000000D01*
G01*
G37*
G04 #@! TD.AperFunction*
G04 #@! TA.AperFunction,SMDPad,CuDef*
G36*
G01*
X210450000Y-93500000D02*
X210450000Y-91500000D01*
G75*
G02*
X211450000Y-90500000I1000000J0D01*
G01*
X213450000Y-90500000D01*
G75*
G02*
X214450000Y-91500000I0J-1000000D01*
G01*
X214450000Y-93500000D01*
G75*
G02*
X213450000Y-94500000I-1000000J0D01*
G01*
X211450000Y-94500000D01*
G75*
G02*
X210450000Y-93500000I0J1000000D01*
G01*
G37*
G04 #@! TD.AperFunction*
G04 #@! TA.AperFunction,SMDPad,CuDef*
G36*
G01*
X221450000Y-93600000D02*
X221450000Y-91600000D01*
G75*
G02*
X222450000Y-90600000I1000000J0D01*
G01*
X224450000Y-90600000D01*
G75*
G02*
X225450000Y-91600000I0J-1000000D01*
G01*
X225450000Y-93600000D01*
G75*
G02*
X224450000Y-94600000I-1000000J0D01*
G01*
X222450000Y-94600000D01*
G75*
G02*
X221450000Y-93600000I0J1000000D01*
G01*
G37*
G04 #@! TD.AperFunction*
G04 #@! TA.AperFunction,SMDPad,CuDef*
G36*
G01*
X221450000Y-102600000D02*
X221450000Y-100600000D01*
G75*
G02*
X222450000Y-99600000I1000000J0D01*
G01*
X224450000Y-99600000D01*
G75*
G02*
X225450000Y-100600000I0J-1000000D01*
G01*
X225450000Y-102600000D01*
G75*
G02*
X224450000Y-103600000I-1000000J0D01*
G01*
X222450000Y-103600000D01*
G75*
G02*
X221450000Y-102600000I0J1000000D01*
G01*
G37*
G04 #@! TD.AperFunction*
G04 #@! TA.AperFunction,SMDPad,CuDef*
G36*
G01*
X199825000Y-96500000D02*
X201075000Y-96500000D01*
G75*
G02*
X201325000Y-96750000I0J-250000D01*
G01*
X201325000Y-97550000D01*
G75*
G02*
X201075000Y-97800000I-250000J0D01*
G01*
X199825000Y-97800000D01*
G75*
G02*
X199575000Y-97550000I0J250000D01*
G01*
X199575000Y-96750000D01*
G75*
G02*
X199825000Y-96500000I250000J0D01*
G01*
G37*
G04 #@! TD.AperFunction*
G04 #@! TA.AperFunction,SMDPad,CuDef*
G36*
G01*
X199825000Y-99600000D02*
X201075000Y-99600000D01*
G75*
G02*
X201325000Y-99850000I0J-250000D01*
G01*
X201325000Y-100650000D01*
G75*
G02*
X201075000Y-100900000I-250000J0D01*
G01*
X199825000Y-100900000D01*
G75*
G02*
X199575000Y-100650000I0J250000D01*
G01*
X199575000Y-99850000D01*
G75*
G02*
X199825000Y-99600000I250000J0D01*
G01*
G37*
G04 #@! TD.AperFunction*
G04 #@! TA.AperFunction,SMDPad,CuDef*
G36*
X263900000Y-118615000D02*
G01*
X256060000Y-118615000D01*
X256060000Y-112265000D01*
X261360000Y-112265000D01*
X263900000Y-114805000D01*
X263900000Y-118615000D01*
G37*
G04 #@! TD.AperFunction*
G04 #@! TA.AperFunction,SMDPad,CuDef*
G36*
X200690000Y-118615000D02*
G01*
X192850000Y-118615000D01*
X192850000Y-114805000D01*
X195390000Y-112265000D01*
X200690000Y-112265000D01*
X200690000Y-118615000D01*
G37*
G04 #@! TD.AperFunction*
D13*
X240990000Y-95720000D03*
X243490000Y-95720000D03*
X245990000Y-95720000D03*
X240990000Y-88970000D03*
X243490000Y-88970000D03*
X245990000Y-88970000D03*
D14*
X224610000Y-64520000D02*
X224640000Y-64550000D01*
X226245000Y-81782500D02*
X227852500Y-83390000D01*
X224640000Y-64550000D02*
X224640000Y-76552500D01*
X224640000Y-76552500D02*
X219410000Y-81782500D01*
X219410000Y-81782500D02*
X226245000Y-81782500D01*
X220890000Y-55640000D02*
X227550000Y-62300000D01*
X227550000Y-62300000D02*
X227550000Y-64520000D01*
X196450000Y-62250000D02*
X203060000Y-55640000D01*
X196450000Y-64620000D02*
X196450000Y-62250000D01*
X203060000Y-55640000D02*
X220890000Y-55640000D01*
X199390000Y-64620000D02*
X199390000Y-66583604D01*
X223380000Y-92600000D02*
X209660000Y-78880000D01*
X223450000Y-92600000D02*
X223380000Y-92600000D01*
X205660000Y-78850000D02*
X205690000Y-78880000D01*
X209660000Y-78880000D02*
X205690000Y-78880000D01*
X192410000Y-76320000D02*
X194940000Y-78850000D01*
X199390000Y-66583604D02*
X192410000Y-73563604D01*
X192410000Y-73563604D02*
X192410000Y-76320000D01*
X194940000Y-78850000D02*
X205660000Y-78850000D01*
X207450000Y-92500000D02*
X212450000Y-92500000D01*
X204740000Y-89790000D02*
X207450000Y-92500000D01*
X206640000Y-84770000D02*
X206640000Y-82280000D01*
X204740000Y-89790000D02*
X204740000Y-86670000D01*
X206640000Y-81890000D02*
X206640000Y-82280000D01*
X204740000Y-86670000D02*
X206640000Y-84770000D01*
X200450000Y-100250000D02*
X200480000Y-100220000D01*
X208350000Y-101600000D02*
X212450000Y-101600000D01*
X200480000Y-100220000D02*
X206970000Y-100220000D01*
X206970000Y-100220000D02*
X208350000Y-101600000D01*
X251430000Y-91620000D02*
X251430000Y-109795000D01*
X257075000Y-115440000D02*
X259980000Y-115440000D01*
X245990000Y-88970000D02*
X248780000Y-88970000D01*
X251430000Y-109795000D02*
X257075000Y-115440000D01*
X248780000Y-88970000D02*
X251430000Y-91620000D01*
X243490000Y-88970000D02*
X243490000Y-89331396D01*
X219230000Y-101600000D02*
X214740000Y-97110000D01*
X214740000Y-97110000D02*
X200490000Y-97110000D01*
X223450000Y-101600000D02*
X219230000Y-101600000D01*
X200490000Y-97110000D02*
X200450000Y-97150000D01*
X243490000Y-89331396D02*
X231221396Y-101600000D01*
X231221396Y-101600000D02*
X223450000Y-101600000D01*
G04 #@! TA.AperFunction,Conductor*
G36*
X187614121Y-29549274D02*
G01*
X187617135Y-29549406D01*
X187622485Y-29549867D01*
X187844459Y-29578646D01*
X187849800Y-29579574D01*
X188067761Y-29627254D01*
X188073094Y-29628669D01*
X188100920Y-29637378D01*
X188285359Y-29695100D01*
X188290678Y-29697031D01*
X188495584Y-29782038D01*
X188500842Y-29784510D01*
X188696824Y-29887943D01*
X188701979Y-29890984D01*
X188802669Y-29957050D01*
X188887481Y-30012698D01*
X188892455Y-30016321D01*
X189065974Y-30156204D01*
X189070680Y-30160403D01*
X189277488Y-30364404D01*
X189490447Y-30574782D01*
X189702320Y-30784384D01*
X189915327Y-30995385D01*
X190127157Y-31205486D01*
X190339501Y-31416345D01*
X190552335Y-31627924D01*
X190762871Y-31837434D01*
X190975053Y-32048785D01*
X191187953Y-32261037D01*
X191309352Y-32382164D01*
X191399027Y-32471638D01*
X191611168Y-32683461D01*
X191823001Y-32895114D01*
X192033969Y-33106025D01*
X192246200Y-33318308D01*
X192455599Y-33527849D01*
X192666393Y-33738859D01*
X192878833Y-33951579D01*
X193087746Y-34160811D01*
X193271160Y-34344529D01*
X193290198Y-34363598D01*
X193290199Y-34363600D01*
X193290200Y-34363600D01*
X193523213Y-34597013D01*
X193541652Y-34615483D01*
X193541656Y-34615486D01*
X193674135Y-34748192D01*
X193711088Y-34785208D01*
X193711098Y-34785220D01*
X193724386Y-34798529D01*
X193752932Y-34827123D01*
X193752937Y-34827126D01*
X193920535Y-34994994D01*
X193920557Y-34995018D01*
X193924011Y-34998478D01*
X193924013Y-34998480D01*
X193941116Y-35015608D01*
X193942576Y-35017070D01*
X193946371Y-35020871D01*
X194131305Y-35206072D01*
X194131319Y-35206088D01*
X194135324Y-35210097D01*
X194135325Y-35210099D01*
X194139796Y-35214575D01*
X194154890Y-35229691D01*
X194166295Y-35241113D01*
X194166330Y-35241141D01*
X194207568Y-35282430D01*
X194343492Y-35418520D01*
X194343511Y-35418541D01*
X194346660Y-35421693D01*
X194346662Y-35421696D01*
X194356966Y-35432009D01*
X194356967Y-35432010D01*
X194372450Y-35447513D01*
X194372484Y-35447543D01*
X194426243Y-35501349D01*
X194523961Y-35599154D01*
X194551835Y-35627052D01*
X194551872Y-35627095D01*
X194568680Y-35643913D01*
X194588688Y-35663939D01*
X194588739Y-35663981D01*
X194697866Y-35773164D01*
X194762264Y-35837594D01*
X194762319Y-35837659D01*
X194769448Y-35844788D01*
X194769449Y-35844789D01*
X194779826Y-35855166D01*
X194789619Y-35864964D01*
X194799084Y-35874434D01*
X194799136Y-35874478D01*
X194977454Y-36052803D01*
X194977498Y-36052854D01*
X194980912Y-36056266D01*
X194980913Y-36056268D01*
X194992073Y-36067423D01*
X195003407Y-36078757D01*
X195010538Y-36085888D01*
X195010599Y-36085939D01*
X195185825Y-36261079D01*
X195185892Y-36261157D01*
X195203728Y-36278973D01*
X195222044Y-36297281D01*
X195222122Y-36297347D01*
X195378961Y-36454013D01*
X195397330Y-36472361D01*
X195397408Y-36472452D01*
X195414936Y-36489948D01*
X195434236Y-36509226D01*
X195434317Y-36509294D01*
X195612547Y-36687206D01*
X195612617Y-36687286D01*
X195615680Y-36690341D01*
X195615681Y-36690342D01*
X195626984Y-36701616D01*
X195638189Y-36712801D01*
X195638190Y-36712801D01*
X195645813Y-36720411D01*
X195645901Y-36720485D01*
X195803277Y-36877458D01*
X195812820Y-36892360D01*
X195814241Y-36891243D01*
X195826578Y-36906928D01*
X195826579Y-36906929D01*
X195835400Y-36912837D01*
X195841946Y-36918208D01*
X195849939Y-36924000D01*
X195855351Y-36926749D01*
X195861885Y-36930577D01*
X195864856Y-36932567D01*
X195880467Y-36943024D01*
X195880841Y-36943274D01*
X195880842Y-36943275D01*
X195884984Y-36944448D01*
X195886915Y-36945203D01*
X195888992Y-36945326D01*
X195893240Y-36945992D01*
X195893243Y-36945994D01*
X195915762Y-36942397D01*
X195923300Y-36941655D01*
X195927794Y-36941483D01*
X195929378Y-36941423D01*
X195929382Y-36941421D01*
X195939067Y-36939506D01*
X195947255Y-36937368D01*
X195957735Y-36935695D01*
X195957738Y-36935691D01*
X195975504Y-36926611D01*
X195976330Y-36928227D01*
X195991230Y-36918683D01*
X196067865Y-36890510D01*
X196112343Y-36874160D01*
X196364928Y-36783335D01*
X196618046Y-36694687D01*
X196872036Y-36608030D01*
X197126664Y-36523376D01*
X197381898Y-36440670D01*
X197637789Y-36359828D01*
X197894340Y-36280783D01*
X198151331Y-36203536D01*
X198408948Y-36127967D01*
X198666830Y-36054116D01*
X199016879Y-35957769D01*
X199367493Y-35864152D01*
X199718969Y-35773164D01*
X200071126Y-35684826D01*
X200423820Y-35599154D01*
X200777227Y-35516079D01*
X201131189Y-35435618D01*
X201485693Y-35357748D01*
X201840819Y-35282430D01*
X202196478Y-35209661D01*
X202552620Y-35139428D01*
X202909351Y-35071688D01*
X203266337Y-35006481D01*
X203624079Y-34943695D01*
X203982095Y-34883392D01*
X204340605Y-34825514D01*
X204699503Y-34770056D01*
X204865112Y-34745599D01*
X205058566Y-34717030D01*
X205418260Y-34666347D01*
X205778270Y-34618031D01*
X206138554Y-34572066D01*
X206499099Y-34528433D01*
X206859744Y-34487127D01*
X207220917Y-34448080D01*
X207582112Y-34411328D01*
X207943793Y-34376802D01*
X208305495Y-34344529D01*
X208667480Y-34314462D01*
X209029416Y-34286608D01*
X209391761Y-34260917D01*
X209754024Y-34237398D01*
X210090712Y-34217537D01*
X210091056Y-34217545D01*
X210110110Y-34216399D01*
X210116951Y-34215989D01*
X210132597Y-34215067D01*
X210132598Y-34215066D01*
X210142880Y-34214460D01*
X210143208Y-34214412D01*
X210454115Y-34195752D01*
X210790906Y-34179903D01*
X210959371Y-34174075D01*
X211127837Y-34168248D01*
X211464784Y-34160628D01*
X211801998Y-34156875D01*
X212139195Y-34156833D01*
X212476420Y-34160337D01*
X212813661Y-34167227D01*
X213150978Y-34177341D01*
X213488227Y-34190517D01*
X213825385Y-34206591D01*
X214162515Y-34225406D01*
X214499472Y-34246791D01*
X214836321Y-34270591D01*
X215173024Y-34296641D01*
X215509579Y-34324784D01*
X215910660Y-34360716D01*
X216311574Y-34399022D01*
X216712378Y-34439766D01*
X217113147Y-34483021D01*
X217513610Y-34528818D01*
X217913781Y-34577218D01*
X218313683Y-34628289D01*
X218713215Y-34682077D01*
X219112397Y-34738650D01*
X219511044Y-34798042D01*
X219909333Y-34860343D01*
X220307145Y-34925600D01*
X220704376Y-34993858D01*
X221101172Y-35065209D01*
X221497083Y-35139633D01*
X221892454Y-35217260D01*
X222287020Y-35298101D01*
X222681061Y-35382282D01*
X223074116Y-35469769D01*
X223466423Y-35560681D01*
X223857800Y-35655040D01*
X224248392Y-35752952D01*
X224637958Y-35854421D01*
X225026531Y-35959523D01*
X225414121Y-36068329D01*
X225800628Y-36180879D01*
X226185932Y-36297206D01*
X226570258Y-36417448D01*
X226953251Y-36541565D01*
X227335082Y-36669679D01*
X227715677Y-36801838D01*
X228029950Y-36914734D01*
X228047711Y-36921114D01*
X228062712Y-36930623D01*
X228063653Y-36928777D01*
X228081433Y-36937831D01*
X228081435Y-36937831D01*
X228081437Y-36937833D01*
X228092598Y-36939598D01*
X228102446Y-36942122D01*
X228110389Y-36943631D01*
X228110391Y-36943631D01*
X228110397Y-36943633D01*
X228115994Y-36943804D01*
X228123885Y-36944546D01*
X228145944Y-36948037D01*
X228145946Y-36948035D01*
X228151691Y-36947125D01*
X228152554Y-36947070D01*
X228153365Y-36946749D01*
X228158941Y-36945124D01*
X228158946Y-36945125D01*
X228177403Y-36932561D01*
X228184235Y-36928517D01*
X228189218Y-36925978D01*
X228189222Y-36925973D01*
X228195768Y-36921216D01*
X228203585Y-36914742D01*
X228212937Y-36908378D01*
X228212937Y-36908375D01*
X228212940Y-36908374D01*
X228225160Y-36892597D01*
X228226803Y-36893869D01*
X228236311Y-36878866D01*
X228412366Y-36702749D01*
X228412366Y-36702747D01*
X228613007Y-36502040D01*
X228613007Y-36502039D01*
X228630485Y-36484556D01*
X228630526Y-36484513D01*
X228759568Y-36355432D01*
X228800203Y-36314785D01*
X229047473Y-36067444D01*
X229105686Y-36009215D01*
X229214936Y-35899939D01*
X229214936Y-35899938D01*
X229403144Y-35711688D01*
X229613443Y-35501349D01*
X229813368Y-35301396D01*
X230017538Y-35097204D01*
X230017538Y-35097203D01*
X230181269Y-34933460D01*
X230195684Y-34919046D01*
X230195685Y-34919046D01*
X230405400Y-34709328D01*
X230444188Y-34670541D01*
X230638756Y-34475981D01*
X230799725Y-34315028D01*
X230828149Y-34286608D01*
X231013327Y-34101459D01*
X231221557Y-33893272D01*
X231221556Y-33893272D01*
X231258491Y-33856348D01*
X231414564Y-33700320D01*
X231564444Y-33550490D01*
X231622942Y-33492012D01*
X231622941Y-33492012D01*
X231801127Y-33313901D01*
X232020434Y-33094698D01*
X232225072Y-32890175D01*
X232225071Y-32890175D01*
X232425797Y-32689578D01*
X232425796Y-32689578D01*
X232626533Y-32488988D01*
X232626532Y-32488988D01*
X232809470Y-32306198D01*
X233028029Y-32087832D01*
X233028028Y-32087832D01*
X233228792Y-31887266D01*
X233228791Y-31887266D01*
X233416508Y-31699750D01*
X233620530Y-31495967D01*
X233824295Y-31292461D01*
X234031953Y-31085087D01*
X234031952Y-31085087D01*
X234226862Y-30890465D01*
X234423013Y-30694624D01*
X234608783Y-30509168D01*
X234613115Y-30505385D01*
X234624022Y-30493957D01*
X234626871Y-30491113D01*
X234634447Y-30483550D01*
X234634448Y-30483547D01*
X234635234Y-30482763D01*
X234638920Y-30478346D01*
X234794200Y-30315655D01*
X234797681Y-30312281D01*
X234975756Y-30152585D01*
X234979661Y-30149359D01*
X235156867Y-30014515D01*
X235169533Y-30004876D01*
X235173884Y-30001846D01*
X235374343Y-29874482D01*
X235379186Y-29871699D01*
X235589017Y-29763311D01*
X235594401Y-29760845D01*
X235812448Y-29673206D01*
X235818394Y-29671157D01*
X236043534Y-29605997D01*
X236050040Y-29604483D01*
X236284182Y-29562959D01*
X236288921Y-29562305D01*
X236355345Y-29555705D01*
X236459961Y-29545312D01*
X236465941Y-29545003D01*
X236726870Y-29544026D01*
X236733842Y-29544386D01*
X236991710Y-29572124D01*
X236998393Y-29573210D01*
X237252123Y-29628551D01*
X237258516Y-29630301D01*
X237505349Y-29712088D01*
X237511429Y-29714460D01*
X237748574Y-29821463D01*
X237754373Y-29824450D01*
X237979048Y-29955382D01*
X237984574Y-29959003D01*
X238194039Y-30112527D01*
X238199257Y-30116799D01*
X238390828Y-30291547D01*
X238395687Y-30296495D01*
X238566779Y-30491122D01*
X238571200Y-30496771D01*
X238719853Y-30710768D01*
X238723365Y-30716443D01*
X238791813Y-30841376D01*
X238821194Y-30895004D01*
X238919587Y-31082228D01*
X239014741Y-31271171D01*
X239106620Y-31461752D01*
X239195243Y-31654014D01*
X239280529Y-31847791D01*
X239362473Y-32043076D01*
X239441016Y-32239742D01*
X239516131Y-32437728D01*
X239587819Y-32637056D01*
X239656031Y-32837624D01*
X239720714Y-33039297D01*
X239781867Y-33242108D01*
X239828819Y-33408328D01*
X239839435Y-33445908D01*
X239893397Y-33650675D01*
X239943723Y-33856348D01*
X239990373Y-34062823D01*
X240033335Y-34270123D01*
X240072561Y-34478103D01*
X240108022Y-34686714D01*
X240139686Y-34895874D01*
X240167534Y-35105616D01*
X240191519Y-35315737D01*
X240211622Y-35526302D01*
X240227805Y-35737154D01*
X240240036Y-35948236D01*
X240248290Y-36159545D01*
X240252532Y-36370944D01*
X240252733Y-36582434D01*
X240248859Y-36793961D01*
X240240882Y-37005366D01*
X240228777Y-37216554D01*
X240212780Y-37422849D01*
X240192184Y-37628435D01*
X240167018Y-37833450D01*
X240137349Y-38037711D01*
X240103215Y-38241208D01*
X240064651Y-38443953D01*
X240021736Y-38645715D01*
X239974495Y-38846543D01*
X239922987Y-39046317D01*
X239867256Y-39244977D01*
X239807371Y-39442397D01*
X239743349Y-39638601D01*
X239675271Y-39833428D01*
X239603165Y-40026859D01*
X239527099Y-40218778D01*
X239447105Y-40409155D01*
X239363251Y-40597869D01*
X239275548Y-40784942D01*
X239184112Y-40970159D01*
X239088933Y-41153565D01*
X238990077Y-41335055D01*
X238887628Y-41514499D01*
X238781586Y-41691908D01*
X238672068Y-41867104D01*
X238559030Y-42040162D01*
X238442573Y-42210925D01*
X238322769Y-42379291D01*
X238199635Y-42545235D01*
X238073259Y-42708637D01*
X237943646Y-42869481D01*
X237810908Y-43027620D01*
X237688578Y-43167560D01*
X237671156Y-43184026D01*
X237662475Y-43190789D01*
X237662473Y-43190791D01*
X237656231Y-43212448D01*
X237653619Y-43219778D01*
X237644756Y-43240500D01*
X237644291Y-43245652D01*
X237644037Y-43247007D01*
X237644214Y-43248372D01*
X237644387Y-43253544D01*
X237652066Y-43274730D01*
X237654263Y-43282203D01*
X237659270Y-43304173D01*
X237659271Y-43304175D01*
X237667558Y-43311419D01*
X237684026Y-43328844D01*
X237765427Y-43433325D01*
X237839393Y-43528263D01*
X238002919Y-43747280D01*
X238161945Y-43969596D01*
X238316430Y-44195112D01*
X238466322Y-44423710D01*
X238611587Y-44655292D01*
X238752176Y-44889744D01*
X238888059Y-45126983D01*
X239019181Y-45366874D01*
X239145516Y-45609340D01*
X239267035Y-45854306D01*
X239383678Y-46101624D01*
X239495405Y-46351192D01*
X239602194Y-46602944D01*
X239703984Y-46856728D01*
X239800747Y-47112472D01*
X239892448Y-47370079D01*
X239979048Y-47629452D01*
X240060510Y-47890499D01*
X240136779Y-48153064D01*
X240207838Y-48417133D01*
X240273610Y-48682445D01*
X240334095Y-48949059D01*
X240389242Y-49216822D01*
X240439008Y-49485616D01*
X240483351Y-49755322D01*
X240522236Y-50025853D01*
X240555633Y-50297173D01*
X240583488Y-50569053D01*
X240605772Y-50841498D01*
X240622445Y-51114362D01*
X240633430Y-51386681D01*
X240634487Y-52018875D01*
X240635454Y-52660688D01*
X240636304Y-53291310D01*
X240637070Y-53930155D01*
X240637738Y-54562172D01*
X240638325Y-55198964D01*
X240638832Y-55835360D01*
X240639265Y-56475156D01*
X240639629Y-57117337D01*
X240639923Y-57752608D01*
X240640158Y-58390840D01*
X240640336Y-59019419D01*
X240640465Y-59663869D01*
X240640549Y-60298844D01*
X240640592Y-60935938D01*
X240640600Y-61568418D01*
X240640578Y-62205820D01*
X240640529Y-62845308D01*
X240640460Y-63488499D01*
X240640381Y-64099629D01*
X240640381Y-64099630D01*
X240640288Y-64736184D01*
X240640288Y-64736186D01*
X240640189Y-65372739D01*
X240640189Y-65372742D01*
X240640090Y-66009296D01*
X240640090Y-66009299D01*
X240639996Y-66645855D01*
X240639996Y-66645858D01*
X240639907Y-67314247D01*
X240639907Y-67314248D01*
X240639838Y-67950804D01*
X240639838Y-67950805D01*
X240639789Y-68587362D01*
X240639789Y-68587364D01*
X240639766Y-69192089D01*
X240639764Y-69234065D01*
X240639765Y-69234078D01*
X240639769Y-69828646D01*
X240639769Y-69842411D01*
X240639771Y-69870636D01*
X240639771Y-69870639D01*
X240639808Y-70465205D01*
X240639808Y-70465209D01*
X240639810Y-70481122D01*
X240639811Y-70507175D01*
X240639813Y-70507190D01*
X240639887Y-71101763D01*
X240639887Y-71101767D01*
X240639889Y-71115989D01*
X240639894Y-71143756D01*
X240639894Y-71143761D01*
X240640014Y-71753333D01*
X240639426Y-71784995D01*
X240639696Y-71785881D01*
X240654498Y-71815603D01*
X240655036Y-71816344D01*
X240673657Y-71829866D01*
X240680678Y-71834965D01*
X240793514Y-71920191D01*
X240991856Y-72070001D01*
X241299957Y-72309367D01*
X241604754Y-72552810D01*
X241906374Y-72800351D01*
X242204615Y-73051743D01*
X242499650Y-73307046D01*
X242791379Y-73566095D01*
X243079849Y-73828850D01*
X243365060Y-74095231D01*
X243646932Y-74365077D01*
X243925490Y-74638332D01*
X244200864Y-74915044D01*
X244472880Y-75194955D01*
X244741656Y-75478108D01*
X245007023Y-75764243D01*
X245269218Y-76053528D01*
X245545794Y-76364327D01*
X245819409Y-76677736D01*
X246089899Y-76993458D01*
X246357501Y-77311663D01*
X246622220Y-77632252D01*
X246884035Y-77955088D01*
X247143052Y-78280196D01*
X247399266Y-78607457D01*
X247652815Y-78936940D01*
X247903592Y-79268388D01*
X248151802Y-79601963D01*
X248397372Y-79937451D01*
X248640298Y-80274730D01*
X248880864Y-80614079D01*
X249118893Y-80955135D01*
X249354474Y-81297900D01*
X249587754Y-81642479D01*
X249818592Y-81988537D01*
X250047240Y-82336331D01*
X250273581Y-82685566D01*
X250497711Y-83036263D01*
X250719644Y-83388321D01*
X250939440Y-83741706D01*
X251157219Y-84096490D01*
X251372949Y-84452492D01*
X251586667Y-84809648D01*
X251798437Y-85167934D01*
X252008315Y-85527317D01*
X252216324Y-85887704D01*
X252371142Y-86159017D01*
X252422487Y-86248998D01*
X252626982Y-86611391D01*
X252829600Y-86974373D01*
X253107387Y-87480711D01*
X253382181Y-87988947D01*
X253653837Y-88498703D01*
X253922366Y-89009883D01*
X254187955Y-89522732D01*
X254450572Y-90037072D01*
X254710293Y-90552937D01*
X254967052Y-91070081D01*
X255221111Y-91588914D01*
X255472294Y-92108959D01*
X255720754Y-92630411D01*
X255966459Y-93153084D01*
X256209525Y-93677095D01*
X256449884Y-94202177D01*
X256687719Y-94728601D01*
X256922960Y-95256089D01*
X257155762Y-95784860D01*
X257386179Y-96314917D01*
X257613976Y-96845578D01*
X257839505Y-97377532D01*
X258062680Y-97910448D01*
X258283627Y-98444494D01*
X258502188Y-98979147D01*
X258718705Y-99515116D01*
X258932983Y-100051778D01*
X259145081Y-100589145D01*
X259355164Y-101127483D01*
X259563195Y-101666573D01*
X259769152Y-102206203D01*
X259973214Y-102746701D01*
X260175320Y-103287764D01*
X260375590Y-103829561D01*
X260545956Y-104297003D01*
X260714932Y-104764519D01*
X260882775Y-105232844D01*
X261049373Y-105701701D01*
X261214536Y-106170582D01*
X261378641Y-106640586D01*
X261541171Y-107110261D01*
X261702608Y-107581034D01*
X261862610Y-108051933D01*
X262021310Y-108523384D01*
X262178590Y-108995064D01*
X262334617Y-109467509D01*
X262489272Y-109940386D01*
X262642543Y-110413695D01*
X262794328Y-110887151D01*
X262944775Y-111361241D01*
X263093836Y-111835856D01*
X263241385Y-112310625D01*
X263387557Y-112786006D01*
X263532371Y-113262114D01*
X263555143Y-113337813D01*
X263584426Y-113435152D01*
X263584895Y-113506147D01*
X263546908Y-113566125D01*
X263482524Y-113596045D01*
X263412184Y-113586406D01*
X263374672Y-113560544D01*
X261690135Y-111876006D01*
X261690128Y-111876000D01*
X261690126Y-111875998D01*
X261690116Y-111875990D01*
X261622139Y-111823184D01*
X261487048Y-111767229D01*
X261401630Y-111756500D01*
X256011362Y-111756500D01*
X256011350Y-111756500D01*
X255950803Y-111763009D01*
X255950795Y-111763011D01*
X255813797Y-111814110D01*
X255813792Y-111814112D01*
X255696738Y-111901738D01*
X255609112Y-112018792D01*
X255609110Y-112018797D01*
X255558011Y-112155795D01*
X255558009Y-112155803D01*
X255551500Y-112216350D01*
X255551500Y-112539629D01*
X255531498Y-112607750D01*
X255477842Y-112654243D01*
X255407568Y-112664347D01*
X255342988Y-112634853D01*
X255336405Y-112628724D01*
X252225405Y-109517724D01*
X252191379Y-109455412D01*
X252188500Y-109428629D01*
X252188500Y-91684441D01*
X252189830Y-91666182D01*
X252190940Y-91658600D01*
X252193341Y-91642211D01*
X252190875Y-91614027D01*
X252188740Y-91589614D01*
X252188500Y-91584121D01*
X252188500Y-91575819D01*
X252184652Y-91542905D01*
X252184652Y-91542904D01*
X252177887Y-91465574D01*
X252177885Y-91465570D01*
X252176403Y-91458388D01*
X252176469Y-91458374D01*
X252174837Y-91451012D01*
X252174772Y-91451028D01*
X252173080Y-91443890D01*
X252146526Y-91370934D01*
X252135708Y-91338288D01*
X252122114Y-91297262D01*
X252122109Y-91297255D01*
X252119012Y-91290611D01*
X252119074Y-91290581D01*
X252115788Y-91283795D01*
X252115728Y-91283826D01*
X252112433Y-91277265D01*
X252069766Y-91212394D01*
X252031131Y-91149756D01*
X252029030Y-91146349D01*
X252029027Y-91146346D01*
X252024478Y-91140592D01*
X252024531Y-91140549D01*
X252019766Y-91134700D01*
X252019715Y-91134744D01*
X252014998Y-91129122D01*
X251958518Y-91075837D01*
X249361908Y-88479227D01*
X249349936Y-88465375D01*
X249335469Y-88445942D01*
X249335467Y-88445940D01*
X249295024Y-88412003D01*
X249290970Y-88408289D01*
X249285107Y-88402425D01*
X249270435Y-88390824D01*
X249259103Y-88381863D01*
X249199640Y-88331968D01*
X249199638Y-88331967D01*
X249199636Y-88331965D01*
X249193506Y-88327933D01*
X249193541Y-88327878D01*
X249187187Y-88323829D01*
X249187153Y-88323886D01*
X249180906Y-88320033D01*
X249110540Y-88287220D01*
X249041188Y-88252391D01*
X249041186Y-88252390D01*
X249041183Y-88252389D01*
X249034289Y-88249880D01*
X249034311Y-88249817D01*
X249027189Y-88247341D01*
X249027169Y-88247404D01*
X249020209Y-88245097D01*
X248944150Y-88229392D01*
X248868652Y-88211499D01*
X248861367Y-88210648D01*
X248861374Y-88210580D01*
X248853877Y-88209814D01*
X248853872Y-88209881D01*
X248846559Y-88209241D01*
X248846558Y-88209241D01*
X248768920Y-88211500D01*
X247274500Y-88211500D01*
X247206379Y-88191498D01*
X247159886Y-88137842D01*
X247148500Y-88085500D01*
X247148500Y-87346367D01*
X247148499Y-87346350D01*
X247141990Y-87285803D01*
X247141988Y-87285795D01*
X247104508Y-87185309D01*
X247090889Y-87148796D01*
X247090888Y-87148794D01*
X247090887Y-87148792D01*
X247003261Y-87031738D01*
X246886207Y-86944112D01*
X246886202Y-86944110D01*
X246749204Y-86893011D01*
X246749196Y-86893009D01*
X246688649Y-86886500D01*
X246688638Y-86886500D01*
X245291362Y-86886500D01*
X245291350Y-86886500D01*
X245230803Y-86893009D01*
X245230795Y-86893011D01*
X245093797Y-86944110D01*
X245093792Y-86944112D01*
X244976738Y-87031738D01*
X244889112Y-87148792D01*
X244889110Y-87148797D01*
X244858055Y-87232058D01*
X244815508Y-87288894D01*
X244748988Y-87313704D01*
X244679614Y-87298612D01*
X244629412Y-87248410D01*
X244621945Y-87232058D01*
X244603280Y-87182018D01*
X244590889Y-87148796D01*
X244590888Y-87148794D01*
X244590887Y-87148792D01*
X244503261Y-87031738D01*
X244386207Y-86944112D01*
X244386202Y-86944110D01*
X244249204Y-86893011D01*
X244249196Y-86893009D01*
X244188649Y-86886500D01*
X244188638Y-86886500D01*
X242791362Y-86886500D01*
X242791350Y-86886500D01*
X242730803Y-86893009D01*
X242730795Y-86893011D01*
X242593797Y-86944110D01*
X242593792Y-86944112D01*
X242476738Y-87031738D01*
X242389112Y-87148792D01*
X242389110Y-87148797D01*
X242358055Y-87232058D01*
X242315508Y-87288894D01*
X242248988Y-87313704D01*
X242179614Y-87298612D01*
X242129412Y-87248410D01*
X242121945Y-87232058D01*
X242103280Y-87182018D01*
X242090889Y-87148796D01*
X242090888Y-87148794D01*
X242090887Y-87148792D01*
X242003261Y-87031738D01*
X241886207Y-86944112D01*
X241886202Y-86944110D01*
X241749204Y-86893011D01*
X241749196Y-86893009D01*
X241688649Y-86886500D01*
X241688638Y-86886500D01*
X240291362Y-86886500D01*
X240291350Y-86886500D01*
X240230803Y-86893009D01*
X240230795Y-86893011D01*
X240093797Y-86944110D01*
X240093792Y-86944112D01*
X239976738Y-87031738D01*
X239889112Y-87148792D01*
X239889110Y-87148797D01*
X239838011Y-87285795D01*
X239838009Y-87285803D01*
X239831500Y-87346350D01*
X239831500Y-90593649D01*
X239838009Y-90654196D01*
X239838011Y-90654204D01*
X239889110Y-90791202D01*
X239889112Y-90791207D01*
X239976738Y-90908261D01*
X240093792Y-90995887D01*
X240093794Y-90995888D01*
X240093796Y-90995889D01*
X240152875Y-91017924D01*
X240230795Y-91046988D01*
X240230803Y-91046990D01*
X240291350Y-91053499D01*
X240291355Y-91053499D01*
X240291362Y-91053500D01*
X240391025Y-91053500D01*
X240459146Y-91073502D01*
X240505639Y-91127158D01*
X240515743Y-91197432D01*
X240486249Y-91262012D01*
X240480120Y-91268595D01*
X230944120Y-100804595D01*
X230881808Y-100838621D01*
X230855025Y-100841500D01*
X226084499Y-100841500D01*
X226016378Y-100821498D01*
X225969885Y-100767842D01*
X225958499Y-100715500D01*
X225958499Y-100530480D01*
X225954168Y-100469147D01*
X225948395Y-100387362D01*
X225894882Y-100149756D01*
X225881111Y-100115540D01*
X225803951Y-99923820D01*
X225803948Y-99923816D01*
X225803947Y-99923812D01*
X225677946Y-99715380D01*
X225520141Y-99529859D01*
X225334620Y-99372054D01*
X225334621Y-99372054D01*
X225334618Y-99372052D01*
X225200756Y-99291131D01*
X225126188Y-99246053D01*
X225126185Y-99246052D01*
X225126179Y-99246048D01*
X225126180Y-99246048D01*
X224900248Y-99155119D01*
X224900246Y-99155118D01*
X224662634Y-99101604D01*
X224662639Y-99101604D01*
X224519522Y-99091500D01*
X224519515Y-99091500D01*
X223367730Y-99091500D01*
X222380480Y-99091501D01*
X222237370Y-99101604D01*
X222237363Y-99101604D01*
X222237362Y-99101605D01*
X222237361Y-99101605D01*
X222237355Y-99101606D01*
X221999753Y-99155118D01*
X221999751Y-99155119D01*
X221773820Y-99246048D01*
X221565381Y-99372052D01*
X221379859Y-99529859D01*
X221222052Y-99715381D01*
X221096048Y-99923820D01*
X221005119Y-100149751D01*
X221005118Y-100149753D01*
X220951604Y-100387362D01*
X220941500Y-100530478D01*
X220941500Y-100715500D01*
X220921498Y-100783621D01*
X220867842Y-100830114D01*
X220815500Y-100841500D01*
X219596371Y-100841500D01*
X219528250Y-100821498D01*
X219507276Y-100804595D01*
X215321908Y-96619227D01*
X215309936Y-96605375D01*
X215302643Y-96595579D01*
X215295469Y-96585942D01*
X215295467Y-96585940D01*
X215255024Y-96552003D01*
X215250970Y-96548289D01*
X215245107Y-96542425D01*
X215219104Y-96521864D01*
X215159636Y-96471965D01*
X215153506Y-96467933D01*
X215153541Y-96467878D01*
X215147187Y-96463829D01*
X215147153Y-96463886D01*
X215140906Y-96460033D01*
X215070540Y-96427220D01*
X215051639Y-96417728D01*
X215001188Y-96392391D01*
X215001186Y-96392390D01*
X215001183Y-96392389D01*
X214994289Y-96389880D01*
X214994311Y-96389817D01*
X214987189Y-96387341D01*
X214987169Y-96387404D01*
X214980209Y-96385097D01*
X214904150Y-96369392D01*
X214828652Y-96351499D01*
X214821367Y-96350648D01*
X214821374Y-96350580D01*
X214813877Y-96349814D01*
X214813872Y-96349881D01*
X214806559Y-96349241D01*
X214806558Y-96349241D01*
X214728920Y-96351500D01*
X201790707Y-96351500D01*
X201722586Y-96331498D01*
X201683466Y-96291646D01*
X201674031Y-96276350D01*
X201674030Y-96276348D01*
X201674027Y-96276345D01*
X201674024Y-96276341D01*
X201548658Y-96150975D01*
X201548652Y-96150970D01*
X201397738Y-96057885D01*
X201313582Y-96029999D01*
X201229427Y-96002113D01*
X201229420Y-96002112D01*
X201125553Y-95991500D01*
X199774455Y-95991500D01*
X199670574Y-96002112D01*
X199502261Y-96057885D01*
X199351347Y-96150970D01*
X199351341Y-96150975D01*
X199225975Y-96276341D01*
X199225970Y-96276347D01*
X199132885Y-96427262D01*
X199077113Y-96595572D01*
X199077112Y-96595579D01*
X199066500Y-96699446D01*
X199066500Y-97600544D01*
X199077112Y-97704425D01*
X199132885Y-97872738D01*
X199225970Y-98023652D01*
X199225975Y-98023658D01*
X199351341Y-98149024D01*
X199351347Y-98149029D01*
X199351348Y-98149030D01*
X199502262Y-98242115D01*
X199670574Y-98297887D01*
X199774455Y-98308500D01*
X201125544Y-98308499D01*
X201229426Y-98297887D01*
X201397738Y-98242115D01*
X201548652Y-98149030D01*
X201674030Y-98023652D01*
X201732811Y-97928352D01*
X201785597Y-97880875D01*
X201840052Y-97868500D01*
X214373629Y-97868500D01*
X214441750Y-97888502D01*
X214462724Y-97905405D01*
X218648092Y-102090773D01*
X218660065Y-102104627D01*
X218671507Y-102119997D01*
X218674531Y-102124058D01*
X218704929Y-102149565D01*
X218714975Y-102157994D01*
X218719021Y-102161702D01*
X218724900Y-102167581D01*
X218750895Y-102188135D01*
X218810360Y-102238032D01*
X218810366Y-102238035D01*
X218816495Y-102242067D01*
X218816458Y-102242122D01*
X218822811Y-102246169D01*
X218822847Y-102246113D01*
X218829092Y-102249965D01*
X218829095Y-102249967D01*
X218899452Y-102282775D01*
X218968812Y-102317609D01*
X218968813Y-102317609D01*
X218968817Y-102317611D01*
X218975713Y-102320121D01*
X218975689Y-102320185D01*
X218982805Y-102322659D01*
X218982827Y-102322595D01*
X218989791Y-102324903D01*
X219065849Y-102340607D01*
X219096561Y-102347886D01*
X219141344Y-102358500D01*
X219141350Y-102358500D01*
X219148633Y-102359352D01*
X219148625Y-102359419D01*
X219156122Y-102360185D01*
X219156128Y-102360119D01*
X219163435Y-102360757D01*
X219163442Y-102360759D01*
X219241080Y-102358500D01*
X220815501Y-102358500D01*
X220883622Y-102378502D01*
X220930115Y-102432158D01*
X220941501Y-102484500D01*
X220941501Y-102669520D01*
X220951604Y-102812629D01*
X220951606Y-102812644D01*
X221005118Y-103050246D01*
X221005119Y-103050248D01*
X221096048Y-103276179D01*
X221222052Y-103484618D01*
X221222054Y-103484620D01*
X221379859Y-103670141D01*
X221506522Y-103777881D01*
X221565381Y-103827947D01*
X221632311Y-103868407D01*
X221773812Y-103953947D01*
X221773816Y-103953948D01*
X221773820Y-103953951D01*
X221773819Y-103953951D01*
X221999751Y-104044880D01*
X221999753Y-104044881D01*
X221999754Y-104044881D01*
X221999756Y-104044882D01*
X222237362Y-104098395D01*
X222237360Y-104098395D01*
X222380478Y-104108500D01*
X222380484Y-104108499D01*
X222380485Y-104108500D01*
X223532269Y-104108499D01*
X224519520Y-104108499D01*
X224576763Y-104104457D01*
X224662638Y-104098395D01*
X224900244Y-104044882D01*
X225015028Y-103998685D01*
X225126179Y-103953951D01*
X225126180Y-103953949D01*
X225126188Y-103953947D01*
X225334620Y-103827946D01*
X225520141Y-103670141D01*
X225677946Y-103484620D01*
X225803947Y-103276188D01*
X225894882Y-103050244D01*
X225948395Y-102812638D01*
X225949658Y-102794747D01*
X225958500Y-102669522D01*
X225958500Y-102484500D01*
X225978502Y-102416379D01*
X226032158Y-102369886D01*
X226084500Y-102358500D01*
X231156955Y-102358500D01*
X231175215Y-102359830D01*
X231180111Y-102360547D01*
X231199185Y-102363341D01*
X231232542Y-102360422D01*
X231251781Y-102358740D01*
X231257274Y-102358500D01*
X231265572Y-102358500D01*
X231265576Y-102358500D01*
X231291908Y-102355421D01*
X231298492Y-102354652D01*
X231305257Y-102354060D01*
X231375822Y-102347887D01*
X231375828Y-102347884D01*
X231383014Y-102346402D01*
X231383027Y-102346468D01*
X231390383Y-102344836D01*
X231390368Y-102344771D01*
X231397500Y-102343079D01*
X231397509Y-102343079D01*
X231470461Y-102316526D01*
X231544134Y-102292114D01*
X231544136Y-102292112D01*
X231550785Y-102289012D01*
X231550814Y-102289074D01*
X231557599Y-102285789D01*
X231557569Y-102285729D01*
X231564124Y-102282436D01*
X231564128Y-102282435D01*
X231629001Y-102239766D01*
X231695047Y-102199030D01*
X231695056Y-102199020D01*
X231700804Y-102194477D01*
X231700846Y-102194531D01*
X231706685Y-102189775D01*
X231706642Y-102189723D01*
X231712261Y-102185006D01*
X231712270Y-102185001D01*
X231765559Y-102128517D01*
X239616405Y-94277671D01*
X239678717Y-94243645D01*
X239749532Y-94248710D01*
X239806368Y-94291257D01*
X239831179Y-94357777D01*
X239831500Y-94366766D01*
X239831500Y-97343649D01*
X239838009Y-97404196D01*
X239838011Y-97404204D01*
X239889110Y-97541202D01*
X239889112Y-97541207D01*
X239976738Y-97658261D01*
X240093792Y-97745887D01*
X240093794Y-97745888D01*
X240093796Y-97745889D01*
X240152875Y-97767924D01*
X240230795Y-97796988D01*
X240230803Y-97796990D01*
X240291350Y-97803499D01*
X240291355Y-97803499D01*
X240291362Y-97803500D01*
X240291368Y-97803500D01*
X241688632Y-97803500D01*
X241688638Y-97803500D01*
X241688645Y-97803499D01*
X241688649Y-97803499D01*
X241749196Y-97796990D01*
X241749199Y-97796989D01*
X241749201Y-97796989D01*
X241886204Y-97745889D01*
X242003261Y-97658261D01*
X242090889Y-97541204D01*
X242121945Y-97457941D01*
X242164491Y-97401105D01*
X242231012Y-97376295D01*
X242300386Y-97391387D01*
X242350588Y-97441589D01*
X242358055Y-97457941D01*
X242389110Y-97541203D01*
X242389112Y-97541207D01*
X242476738Y-97658261D01*
X242593792Y-97745887D01*
X242593794Y-97745888D01*
X242593796Y-97745889D01*
X242652875Y-97767924D01*
X242730795Y-97796988D01*
X242730803Y-97796990D01*
X242791350Y-97803499D01*
X242791355Y-97803499D01*
X242791362Y-97803500D01*
X242791368Y-97803500D01*
X244188632Y-97803500D01*
X244188638Y-97803500D01*
X244188645Y-97803499D01*
X244188649Y-97803499D01*
X244249196Y-97796990D01*
X244249199Y-97796989D01*
X244249201Y-97796989D01*
X244386204Y-97745889D01*
X244503261Y-97658261D01*
X244590889Y-97541204D01*
X244621945Y-97457941D01*
X244664491Y-97401105D01*
X244731012Y-97376295D01*
X244800386Y-97391387D01*
X244850588Y-97441589D01*
X244858055Y-97457941D01*
X244889110Y-97541203D01*
X244889112Y-97541207D01*
X244976738Y-97658261D01*
X245093792Y-97745887D01*
X245093794Y-97745888D01*
X245093796Y-97745889D01*
X245152875Y-97767924D01*
X245230795Y-97796988D01*
X245230803Y-97796990D01*
X245291350Y-97803499D01*
X245291355Y-97803499D01*
X245291362Y-97803500D01*
X245291368Y-97803500D01*
X246688632Y-97803500D01*
X246688638Y-97803500D01*
X246688645Y-97803499D01*
X246688649Y-97803499D01*
X246749196Y-97796990D01*
X246749199Y-97796989D01*
X246749201Y-97796989D01*
X246886204Y-97745889D01*
X247003261Y-97658261D01*
X247090889Y-97541204D01*
X247141989Y-97404201D01*
X247147329Y-97354535D01*
X247148499Y-97343649D01*
X247148500Y-97343632D01*
X247148500Y-94096367D01*
X247148499Y-94096350D01*
X247141990Y-94035803D01*
X247141988Y-94035795D01*
X247090889Y-93898797D01*
X247090887Y-93898792D01*
X247003261Y-93781738D01*
X246886207Y-93694112D01*
X246886202Y-93694110D01*
X246749204Y-93643011D01*
X246749196Y-93643009D01*
X246688649Y-93636500D01*
X246688638Y-93636500D01*
X245291362Y-93636500D01*
X245291350Y-93636500D01*
X245230803Y-93643009D01*
X245230795Y-93643011D01*
X245093797Y-93694110D01*
X245093792Y-93694112D01*
X244976738Y-93781738D01*
X244889112Y-93898792D01*
X244889110Y-93898797D01*
X244858055Y-93982058D01*
X244815508Y-94038894D01*
X244748988Y-94063704D01*
X244679614Y-94048612D01*
X244629412Y-93998410D01*
X244621945Y-93982058D01*
X244590889Y-93898797D01*
X244590887Y-93898792D01*
X244503261Y-93781738D01*
X244386207Y-93694112D01*
X244386202Y-93694110D01*
X244249204Y-93643011D01*
X244249196Y-93643009D01*
X244188649Y-93636500D01*
X244188638Y-93636500D01*
X242791362Y-93636500D01*
X242791350Y-93636500D01*
X242730803Y-93643009D01*
X242730795Y-93643011D01*
X242593797Y-93694110D01*
X242593792Y-93694112D01*
X242476738Y-93781738D01*
X242389112Y-93898792D01*
X242389110Y-93898797D01*
X242358055Y-93982058D01*
X242315508Y-94038894D01*
X242248988Y-94063704D01*
X242179614Y-94048612D01*
X242129412Y-93998410D01*
X242121945Y-93982058D01*
X242090889Y-93898797D01*
X242090887Y-93898792D01*
X242003261Y-93781738D01*
X241886207Y-93694112D01*
X241886202Y-93694110D01*
X241749204Y-93643011D01*
X241749196Y-93643009D01*
X241688649Y-93636500D01*
X241688638Y-93636500D01*
X240561766Y-93636500D01*
X240493645Y-93616498D01*
X240447152Y-93562842D01*
X240437048Y-93492568D01*
X240466542Y-93427988D01*
X240472671Y-93421405D01*
X242803672Y-91090405D01*
X242865984Y-91056379D01*
X242892767Y-91053500D01*
X244188632Y-91053500D01*
X244188638Y-91053500D01*
X244188645Y-91053499D01*
X244188649Y-91053499D01*
X244249196Y-91046990D01*
X244249199Y-91046989D01*
X244249201Y-91046989D01*
X244386204Y-90995889D01*
X244386556Y-90995626D01*
X244503261Y-90908261D01*
X244590887Y-90791207D01*
X244590889Y-90791203D01*
X244590890Y-90791202D01*
X244621945Y-90707941D01*
X244664491Y-90651105D01*
X244731012Y-90626295D01*
X244800386Y-90641387D01*
X244850588Y-90691589D01*
X244858055Y-90707941D01*
X244889110Y-90791203D01*
X244889112Y-90791207D01*
X244976738Y-90908261D01*
X245093792Y-90995887D01*
X245093794Y-90995888D01*
X245093796Y-90995889D01*
X245152875Y-91017924D01*
X245230795Y-91046988D01*
X245230803Y-91046990D01*
X245291350Y-91053499D01*
X245291355Y-91053499D01*
X245291362Y-91053500D01*
X245291368Y-91053500D01*
X246688632Y-91053500D01*
X246688638Y-91053500D01*
X246688645Y-91053499D01*
X246688649Y-91053499D01*
X246749196Y-91046990D01*
X246749199Y-91046989D01*
X246749201Y-91046989D01*
X246886204Y-90995889D01*
X246886556Y-90995626D01*
X247003261Y-90908261D01*
X247090887Y-90791207D01*
X247090887Y-90791206D01*
X247090889Y-90791204D01*
X247141989Y-90654201D01*
X247143471Y-90640421D01*
X247148499Y-90593649D01*
X247148500Y-90593632D01*
X247148500Y-89854500D01*
X247168502Y-89786379D01*
X247222158Y-89739886D01*
X247274500Y-89728500D01*
X248413629Y-89728500D01*
X248481750Y-89748502D01*
X248502724Y-89765405D01*
X250634595Y-91897276D01*
X250668621Y-91959588D01*
X250671500Y-91986371D01*
X250671500Y-109730559D01*
X250670170Y-109748819D01*
X250666659Y-109772786D01*
X250666659Y-109772794D01*
X250671260Y-109825372D01*
X250671500Y-109830866D01*
X250671500Y-109839182D01*
X250675347Y-109872094D01*
X250682112Y-109949419D01*
X250683596Y-109956606D01*
X250683531Y-109956619D01*
X250685165Y-109963989D01*
X250685229Y-109963975D01*
X250686921Y-109971116D01*
X250713473Y-110044064D01*
X250737885Y-110117736D01*
X250740987Y-110124388D01*
X250740926Y-110124416D01*
X250744211Y-110131202D01*
X250744270Y-110131173D01*
X250747560Y-110137724D01*
X250747564Y-110137731D01*
X250747565Y-110137732D01*
X250790233Y-110202605D01*
X250830967Y-110268648D01*
X250835522Y-110274408D01*
X250835468Y-110274450D01*
X250840228Y-110280292D01*
X250840279Y-110280250D01*
X250844993Y-110285868D01*
X250901482Y-110339163D01*
X255514595Y-114952276D01*
X255548621Y-115014588D01*
X255551500Y-115041371D01*
X255551500Y-118663649D01*
X255558009Y-118724196D01*
X255558011Y-118724204D01*
X255609110Y-118861202D01*
X255609112Y-118861207D01*
X255696738Y-118978261D01*
X255813792Y-119065887D01*
X255813794Y-119065888D01*
X255813796Y-119065889D01*
X255872875Y-119087924D01*
X255950795Y-119116988D01*
X255950803Y-119116990D01*
X256011350Y-119123499D01*
X256011355Y-119123499D01*
X256011362Y-119123500D01*
X256011368Y-119123500D01*
X263948632Y-119123500D01*
X263948638Y-119123500D01*
X263948645Y-119123499D01*
X263948649Y-119123499D01*
X264009196Y-119116990D01*
X264009199Y-119116989D01*
X264009201Y-119116989D01*
X264146204Y-119065889D01*
X264146799Y-119065444D01*
X264263261Y-118978261D01*
X264350887Y-118861207D01*
X264350887Y-118861206D01*
X264350889Y-118861204D01*
X264401989Y-118724201D01*
X264408500Y-118663638D01*
X264408500Y-117187430D01*
X264428502Y-117119309D01*
X264482158Y-117072816D01*
X264552432Y-117062712D01*
X264617012Y-117092206D01*
X264655396Y-117151932D01*
X264656033Y-117154179D01*
X264768259Y-117564365D01*
X264897928Y-118044411D01*
X265026081Y-118525054D01*
X265152175Y-119004275D01*
X265186657Y-119158133D01*
X265187570Y-119163153D01*
X265213912Y-119350755D01*
X265218876Y-119386112D01*
X265220164Y-119395280D01*
X265220714Y-119401250D01*
X265230501Y-119621742D01*
X265231052Y-119634142D01*
X265231038Y-119640014D01*
X265228611Y-119689456D01*
X265219601Y-119872979D01*
X265219047Y-119878776D01*
X265186160Y-120109679D01*
X265185076Y-120115390D01*
X265131101Y-120342113D01*
X265129483Y-120347736D01*
X265054805Y-120568222D01*
X265052637Y-120573751D01*
X264957696Y-120785882D01*
X264954951Y-120791299D01*
X264840180Y-120993066D01*
X264836830Y-120998331D01*
X264702669Y-121187763D01*
X264698689Y-121192814D01*
X264542720Y-121371228D01*
X264540482Y-121373656D01*
X264436640Y-121480506D01*
X264433002Y-121483962D01*
X264265353Y-121631015D01*
X264261014Y-121634494D01*
X264082409Y-121765203D01*
X264078296Y-121767971D01*
X263888848Y-121884928D01*
X263885107Y-121887064D01*
X263686111Y-121991859D01*
X263682836Y-121993464D01*
X263475706Y-122087663D01*
X263472948Y-122088839D01*
X263279643Y-122165877D01*
X263258104Y-122174461D01*
X263037358Y-122252946D01*
X262813698Y-122325472D01*
X262588802Y-122393780D01*
X262365620Y-122459267D01*
X262110142Y-122525548D01*
X261852987Y-122589802D01*
X261595382Y-122651755D01*
X261337225Y-122711473D01*
X261078545Y-122768988D01*
X260819436Y-122824321D01*
X260559919Y-122877509D01*
X260300015Y-122928590D01*
X260039630Y-122977622D01*
X259778872Y-123024627D01*
X259517793Y-123069633D01*
X259256246Y-123112707D01*
X258994375Y-123153865D01*
X258732360Y-123193120D01*
X258469768Y-123230576D01*
X258207102Y-123266199D01*
X258075777Y-123283111D01*
X257943986Y-123300083D01*
X257680834Y-123332211D01*
X257417288Y-123362670D01*
X257153558Y-123391472D01*
X256889688Y-123418652D01*
X256625460Y-123444272D01*
X256361311Y-123468327D01*
X256096833Y-123490895D01*
X255832292Y-123511992D01*
X255567857Y-123531643D01*
X255303011Y-123549927D01*
X255038309Y-123566842D01*
X254773436Y-123582446D01*
X254508561Y-123596770D01*
X254243538Y-123609857D01*
X253979153Y-123621710D01*
X253470247Y-123638204D01*
X252961152Y-123649393D01*
X252451872Y-123655245D01*
X251942390Y-123655733D01*
X251432874Y-123650822D01*
X250923493Y-123640487D01*
X250414224Y-123624695D01*
X249905058Y-123603413D01*
X249396164Y-123576614D01*
X248887598Y-123544267D01*
X248379457Y-123506344D01*
X247871812Y-123462814D01*
X247364630Y-123413638D01*
X246858078Y-123358795D01*
X246352236Y-123298254D01*
X245847099Y-123231976D01*
X245342882Y-123159950D01*
X244839506Y-123082126D01*
X244337206Y-122998497D01*
X243835804Y-122908992D01*
X243335625Y-122813624D01*
X242836566Y-122712333D01*
X242338854Y-122605117D01*
X241842402Y-122491913D01*
X241347444Y-122372728D01*
X240853878Y-122247490D01*
X240361941Y-122116209D01*
X239871534Y-121978812D01*
X239382901Y-121835315D01*
X238895966Y-121685644D01*
X238410888Y-121529795D01*
X237973315Y-121383025D01*
X237949287Y-121372044D01*
X237948969Y-121371856D01*
X237925413Y-121366599D01*
X237919102Y-121364842D01*
X237912080Y-121362487D01*
X237912079Y-121362486D01*
X237912077Y-121362486D01*
X237912073Y-121362485D01*
X237902302Y-121360843D01*
X237902354Y-121360529D01*
X237893795Y-121359544D01*
X237885225Y-121357631D01*
X237874134Y-121358684D01*
X237863504Y-121362027D01*
X237856355Y-121367119D01*
X237848853Y-121371354D01*
X237849024Y-121371623D01*
X237840650Y-121376940D01*
X237835099Y-121381838D01*
X237829967Y-121385912D01*
X237810309Y-121399912D01*
X237810082Y-121400219D01*
X237792217Y-121419671D01*
X237535637Y-121646041D01*
X237533361Y-121647955D01*
X237231599Y-121889852D01*
X237229266Y-121891635D01*
X236916614Y-122119174D01*
X236914229Y-122120827D01*
X236591423Y-122333729D01*
X236588989Y-122335256D01*
X236256759Y-122533252D01*
X236254278Y-122534655D01*
X235913392Y-122717449D01*
X235910868Y-122718731D01*
X235562044Y-122886063D01*
X235559476Y-122887224D01*
X235298149Y-122998497D01*
X235202173Y-123039363D01*
X234978820Y-123122907D01*
X234837109Y-123175913D01*
X234466293Y-123296066D01*
X234091854Y-123399165D01*
X234089116Y-123399853D01*
X233711844Y-123485755D01*
X233709062Y-123486323D01*
X233328314Y-123555139D01*
X233325488Y-123555584D01*
X232942096Y-123607036D01*
X232939227Y-123607355D01*
X232686482Y-123629550D01*
X232553846Y-123641197D01*
X232550944Y-123641384D01*
X232173026Y-123656995D01*
X232162592Y-123657426D01*
X230905829Y-123658043D01*
X229634780Y-123658605D01*
X228382902Y-123659098D01*
X227129827Y-123659537D01*
X225852272Y-123659929D01*
X224596393Y-123660264D01*
X223338906Y-123660552D01*
X222079896Y-123660797D01*
X220819387Y-123661001D01*
X219555531Y-123661167D01*
X218288234Y-123661299D01*
X217017009Y-123661399D01*
X215776841Y-123661468D01*
X214507896Y-123661513D01*
X213221349Y-123661535D01*
X213221348Y-123661535D01*
X211987611Y-123661536D01*
X210729529Y-123661522D01*
X210729528Y-123661522D01*
X209467701Y-123661494D01*
X209467699Y-123661494D01*
X208197475Y-123661456D01*
X206912205Y-123661409D01*
X206912202Y-123661409D01*
X205650375Y-123661359D01*
X205650372Y-123661359D01*
X204388545Y-123661308D01*
X204388542Y-123661308D01*
X203126715Y-123661259D01*
X203126712Y-123661259D01*
X201896718Y-123661217D01*
X201881288Y-123661216D01*
X201864883Y-123661216D01*
X200634889Y-123661181D01*
X200634887Y-123661181D01*
X199373058Y-123661157D01*
X199373057Y-123661157D01*
X198111225Y-123661147D01*
X198092500Y-123661147D01*
X198079393Y-123661147D01*
X198079392Y-123661147D01*
X196817562Y-123661154D01*
X196817559Y-123661154D01*
X195587565Y-123661181D01*
X195572089Y-123661181D01*
X195555733Y-123661182D01*
X195555731Y-123661182D01*
X194325736Y-123661233D01*
X194325734Y-123661233D01*
X193063903Y-123661311D01*
X193062585Y-123661311D01*
X193032072Y-123661313D01*
X193032069Y-123661313D01*
X191787104Y-123661420D01*
X191579071Y-123657515D01*
X191572895Y-123656995D01*
X191572043Y-123657001D01*
X191572042Y-123657001D01*
X191558045Y-123657105D01*
X191557451Y-123657109D01*
X191555329Y-123657070D01*
X191542011Y-123656821D01*
X191535808Y-123657273D01*
X191351489Y-123658662D01*
X191348241Y-123658448D01*
X191325733Y-123658857D01*
X191303279Y-123659025D01*
X191300033Y-123659322D01*
X191099155Y-123662964D01*
X191095279Y-123663035D01*
X190866642Y-123666038D01*
X190639803Y-123664337D01*
X190634011Y-123664082D01*
X190416864Y-123654542D01*
X190413581Y-123654312D01*
X190195333Y-123633266D01*
X190191097Y-123632712D01*
X189975951Y-123597121D01*
X189971258Y-123596160D01*
X189913832Y-123582109D01*
X189782975Y-123550090D01*
X189777633Y-123548528D01*
X189595946Y-123486572D01*
X189590891Y-123484602D01*
X189415344Y-123407313D01*
X189410614Y-123404990D01*
X189391022Y-123394328D01*
X189242022Y-123313243D01*
X189237623Y-123310612D01*
X189076759Y-123205267D01*
X189072688Y-123202364D01*
X188920387Y-123084326D01*
X188916625Y-123081167D01*
X188773769Y-122951401D01*
X188770317Y-122948015D01*
X188637692Y-122807424D01*
X188634543Y-122803820D01*
X188513030Y-122653435D01*
X188510156Y-122649584D01*
X188400560Y-122490379D01*
X188397969Y-122486288D01*
X188301087Y-122319260D01*
X188298790Y-122314915D01*
X188281612Y-122279102D01*
X188215412Y-122141089D01*
X188213427Y-122136486D01*
X188144299Y-121956844D01*
X188142657Y-121951994D01*
X188088511Y-121767521D01*
X188087241Y-121762410D01*
X188048793Y-121574073D01*
X188047936Y-121568692D01*
X188043451Y-121529795D01*
X188025988Y-121378345D01*
X188025583Y-121372044D01*
X188021662Y-121095914D01*
X188027470Y-120813349D01*
X188042985Y-120531125D01*
X188068099Y-120249503D01*
X188102693Y-119968896D01*
X188146670Y-119689456D01*
X188199907Y-119411577D01*
X188262284Y-119135596D01*
X188333715Y-118861694D01*
X188414056Y-118590295D01*
X188503217Y-118321625D01*
X188601071Y-118056030D01*
X188707495Y-117793821D01*
X188748321Y-117701950D01*
X188822397Y-117535252D01*
X188945647Y-117280659D01*
X189077313Y-117029999D01*
X189189909Y-116828254D01*
X189308002Y-116630040D01*
X189431570Y-116435265D01*
X189560470Y-116244046D01*
X189694582Y-116056471D01*
X189833752Y-115872669D01*
X189976839Y-115694000D01*
X192342000Y-115694000D01*
X192342000Y-118663597D01*
X192348505Y-118724093D01*
X192399555Y-118860964D01*
X192399555Y-118860965D01*
X192487095Y-118977904D01*
X192604034Y-119065444D01*
X192740906Y-119116494D01*
X192801402Y-119122999D01*
X192801415Y-119123000D01*
X196516000Y-119123000D01*
X196516000Y-115694000D01*
X197024000Y-115694000D01*
X197024000Y-119123000D01*
X200738585Y-119123000D01*
X200738597Y-119122999D01*
X200799093Y-119116494D01*
X200935964Y-119065444D01*
X200935965Y-119065444D01*
X201052904Y-118977904D01*
X201140444Y-118860965D01*
X201140444Y-118860964D01*
X201191494Y-118724093D01*
X201197999Y-118663597D01*
X201198000Y-118663585D01*
X201198000Y-115694000D01*
X197024000Y-115694000D01*
X196516000Y-115694000D01*
X192342000Y-115694000D01*
X189976839Y-115694000D01*
X189977887Y-115692692D01*
X190126830Y-115516673D01*
X190280449Y-115344712D01*
X190438636Y-115176880D01*
X190601245Y-115013296D01*
X190768126Y-114854077D01*
X190939170Y-114699297D01*
X191114247Y-114549057D01*
X191126976Y-114538702D01*
X191293207Y-114403469D01*
X191475943Y-114262611D01*
X191662300Y-114126602D01*
X191852138Y-113995543D01*
X192045401Y-113869481D01*
X192241841Y-113748593D01*
X192441418Y-113632915D01*
X192643945Y-113522580D01*
X192849345Y-113417655D01*
X193057414Y-113318274D01*
X193268093Y-113224500D01*
X193440595Y-113153228D01*
X193511189Y-113145703D01*
X193574647Y-113177539D01*
X193610820Y-113238630D01*
X193608222Y-113309579D01*
X193577801Y-113358776D01*
X192461393Y-114475184D01*
X192461373Y-114475206D01*
X192408622Y-114543113D01*
X192408621Y-114543114D01*
X192352718Y-114678076D01*
X192342000Y-114763411D01*
X192342000Y-115186000D01*
X196516000Y-115186000D01*
X196516000Y-111757000D01*
X197024000Y-111757000D01*
X197024000Y-115186000D01*
X201198000Y-115186000D01*
X201198000Y-112216414D01*
X201197999Y-112216402D01*
X201191494Y-112155906D01*
X201140444Y-112019035D01*
X201140444Y-112019034D01*
X201052904Y-111902095D01*
X200935965Y-111814555D01*
X200799093Y-111763505D01*
X200738597Y-111757000D01*
X197024000Y-111757000D01*
X196516000Y-111757000D01*
X195348411Y-111757000D01*
X195348407Y-111757001D01*
X195263076Y-111767718D01*
X195128114Y-111823621D01*
X195128113Y-111823622D01*
X195060212Y-111876369D01*
X195060198Y-111876381D01*
X194771873Y-112164705D01*
X194709561Y-112198730D01*
X194638745Y-112193665D01*
X194581910Y-112151118D01*
X194577223Y-112144414D01*
X194485268Y-112003344D01*
X194360784Y-111809751D01*
X194237509Y-111615438D01*
X194115307Y-111420228D01*
X193994412Y-111224539D01*
X193874544Y-111027961D01*
X193755851Y-110830775D01*
X193638182Y-110632773D01*
X193521739Y-110434335D01*
X193472288Y-110349002D01*
X193406276Y-110235090D01*
X193291972Y-110035390D01*
X193178603Y-109834883D01*
X193143919Y-109772794D01*
X193066273Y-109633795D01*
X192955179Y-109432527D01*
X192725236Y-109004811D01*
X192499740Y-108574936D01*
X192448304Y-108474451D01*
X192278650Y-108143015D01*
X192061800Y-107708904D01*
X191849158Y-107272725D01*
X191640716Y-106834652D01*
X191436428Y-106394797D01*
X191236121Y-105952979D01*
X191039824Y-105509471D01*
X190847385Y-105064137D01*
X190658821Y-104617220D01*
X190473971Y-104168559D01*
X190292859Y-103718424D01*
X190115362Y-103266737D01*
X189941456Y-102813664D01*
X189771016Y-102359109D01*
X189604047Y-101903318D01*
X189440411Y-101446155D01*
X189280070Y-100987753D01*
X189181885Y-100700544D01*
X199066500Y-100700544D01*
X199077112Y-100804425D01*
X199132885Y-100972738D01*
X199225970Y-101123652D01*
X199225975Y-101123658D01*
X199351341Y-101249024D01*
X199351347Y-101249029D01*
X199351348Y-101249030D01*
X199502262Y-101342115D01*
X199670574Y-101397887D01*
X199774455Y-101408500D01*
X201125544Y-101408499D01*
X201229426Y-101397887D01*
X201397738Y-101342115D01*
X201548652Y-101249030D01*
X201674030Y-101123652D01*
X201726643Y-101038352D01*
X201779429Y-100990875D01*
X201833884Y-100978500D01*
X206603629Y-100978500D01*
X206671750Y-100998502D01*
X206692724Y-101015405D01*
X207768092Y-102090773D01*
X207780065Y-102104627D01*
X207791507Y-102119997D01*
X207794531Y-102124058D01*
X207824929Y-102149565D01*
X207834975Y-102157994D01*
X207839021Y-102161702D01*
X207844900Y-102167581D01*
X207870895Y-102188135D01*
X207930360Y-102238032D01*
X207930366Y-102238035D01*
X207936495Y-102242067D01*
X207936458Y-102242122D01*
X207942811Y-102246169D01*
X207942847Y-102246113D01*
X207949092Y-102249965D01*
X207949095Y-102249967D01*
X208019452Y-102282775D01*
X208088812Y-102317609D01*
X208088813Y-102317609D01*
X208088817Y-102317611D01*
X208095713Y-102320121D01*
X208095689Y-102320185D01*
X208102805Y-102322659D01*
X208102827Y-102322595D01*
X208109791Y-102324903D01*
X208185849Y-102340607D01*
X208216561Y-102347886D01*
X208261344Y-102358500D01*
X208261350Y-102358500D01*
X208268633Y-102359352D01*
X208268625Y-102359419D01*
X208276122Y-102360185D01*
X208276128Y-102360119D01*
X208283435Y-102360757D01*
X208283442Y-102360759D01*
X208361080Y-102358500D01*
X209815501Y-102358500D01*
X209883622Y-102378502D01*
X209930115Y-102432158D01*
X209941501Y-102484500D01*
X209941501Y-102669520D01*
X209951604Y-102812629D01*
X209951606Y-102812644D01*
X210005118Y-103050246D01*
X210005119Y-103050248D01*
X210096048Y-103276179D01*
X210222052Y-103484618D01*
X210222054Y-103484620D01*
X210379859Y-103670141D01*
X210506522Y-103777881D01*
X210565381Y-103827947D01*
X210632311Y-103868407D01*
X210773812Y-103953947D01*
X210773816Y-103953948D01*
X210773820Y-103953951D01*
X210773819Y-103953951D01*
X210999751Y-104044880D01*
X210999753Y-104044881D01*
X210999754Y-104044881D01*
X210999756Y-104044882D01*
X211237362Y-104098395D01*
X211237360Y-104098395D01*
X211380478Y-104108500D01*
X211380484Y-104108499D01*
X211380485Y-104108500D01*
X212532269Y-104108499D01*
X213519520Y-104108499D01*
X213576763Y-104104457D01*
X213662638Y-104098395D01*
X213900244Y-104044882D01*
X214015028Y-103998685D01*
X214126179Y-103953951D01*
X214126180Y-103953949D01*
X214126188Y-103953947D01*
X214334620Y-103827946D01*
X214520141Y-103670141D01*
X214677946Y-103484620D01*
X214803947Y-103276188D01*
X214894882Y-103050244D01*
X214948395Y-102812638D01*
X214949658Y-102794747D01*
X214958500Y-102669522D01*
X214958499Y-100530480D01*
X214954168Y-100469147D01*
X214948395Y-100387362D01*
X214894882Y-100149756D01*
X214881111Y-100115540D01*
X214803951Y-99923820D01*
X214803948Y-99923816D01*
X214803947Y-99923812D01*
X214677946Y-99715380D01*
X214520141Y-99529859D01*
X214334620Y-99372054D01*
X214334621Y-99372054D01*
X214334618Y-99372052D01*
X214200756Y-99291131D01*
X214126188Y-99246053D01*
X214126185Y-99246052D01*
X214126179Y-99246048D01*
X214126180Y-99246048D01*
X213900248Y-99155119D01*
X213900246Y-99155118D01*
X213662634Y-99101604D01*
X213662639Y-99101604D01*
X213519522Y-99091500D01*
X213519515Y-99091500D01*
X212367730Y-99091500D01*
X211380480Y-99091501D01*
X211237370Y-99101604D01*
X211237363Y-99101604D01*
X211237362Y-99101605D01*
X211237361Y-99101605D01*
X211237355Y-99101606D01*
X210999753Y-99155118D01*
X210999751Y-99155119D01*
X210773820Y-99246048D01*
X210565381Y-99372052D01*
X210379859Y-99529859D01*
X210222052Y-99715381D01*
X210096048Y-99923820D01*
X210005119Y-100149751D01*
X210005118Y-100149753D01*
X209951604Y-100387362D01*
X209941500Y-100530478D01*
X209941500Y-100715500D01*
X209921498Y-100783621D01*
X209867842Y-100830114D01*
X209815500Y-100841500D01*
X208716371Y-100841500D01*
X208648250Y-100821498D01*
X208627276Y-100804595D01*
X207551908Y-99729227D01*
X207539936Y-99715375D01*
X207525469Y-99695942D01*
X207525467Y-99695940D01*
X207485024Y-99662003D01*
X207480970Y-99658289D01*
X207475107Y-99652425D01*
X207449104Y-99631864D01*
X207389636Y-99581965D01*
X207383506Y-99577933D01*
X207383541Y-99577878D01*
X207377187Y-99573829D01*
X207377153Y-99573886D01*
X207370906Y-99570033D01*
X207300540Y-99537220D01*
X207231188Y-99502391D01*
X207231186Y-99502390D01*
X207231183Y-99502389D01*
X207224289Y-99499880D01*
X207224311Y-99499817D01*
X207217189Y-99497341D01*
X207217169Y-99497404D01*
X207210209Y-99495097D01*
X207134150Y-99479392D01*
X207058652Y-99461499D01*
X207051367Y-99460648D01*
X207051374Y-99460580D01*
X207043877Y-99459814D01*
X207043872Y-99459881D01*
X207036559Y-99459241D01*
X207036558Y-99459241D01*
X206958920Y-99461500D01*
X201796875Y-99461500D01*
X201728754Y-99441498D01*
X201689634Y-99401646D01*
X201674031Y-99376350D01*
X201674030Y-99376348D01*
X201674027Y-99376345D01*
X201674024Y-99376341D01*
X201548658Y-99250975D01*
X201548652Y-99250970D01*
X201447969Y-99188868D01*
X201397738Y-99157885D01*
X201313582Y-99129999D01*
X201229427Y-99102113D01*
X201229420Y-99102112D01*
X201125553Y-99091500D01*
X199774455Y-99091500D01*
X199670574Y-99102112D01*
X199502261Y-99157885D01*
X199351347Y-99250970D01*
X199351341Y-99250975D01*
X199225975Y-99376341D01*
X199225970Y-99376347D01*
X199132885Y-99527262D01*
X199077113Y-99695572D01*
X199077112Y-99695579D01*
X199066500Y-99799446D01*
X199066500Y-100700544D01*
X189181885Y-100700544D01*
X189122956Y-100528165D01*
X188969050Y-100067591D01*
X188818225Y-99605910D01*
X188670399Y-99143134D01*
X188525556Y-98679467D01*
X188383641Y-98215015D01*
X188244516Y-97749601D01*
X188108158Y-97283424D01*
X187974487Y-96816496D01*
X187843453Y-96348934D01*
X187714975Y-95880742D01*
X187588988Y-95411989D01*
X187465499Y-94943002D01*
X187342507Y-94460906D01*
X187221981Y-93978257D01*
X187103810Y-93494747D01*
X186988067Y-93010814D01*
X186874711Y-92526425D01*
X186763662Y-92041380D01*
X186654949Y-91555952D01*
X186548501Y-91069966D01*
X186444290Y-90583459D01*
X186342272Y-90096357D01*
X186288590Y-89834182D01*
X186274997Y-89767794D01*
X203976659Y-89767794D01*
X203981260Y-89820372D01*
X203981500Y-89825866D01*
X203981500Y-89834182D01*
X203985347Y-89867094D01*
X203992112Y-89944419D01*
X203993596Y-89951606D01*
X203993531Y-89951619D01*
X203995165Y-89958989D01*
X203995229Y-89958975D01*
X203996921Y-89966116D01*
X204009839Y-90001606D01*
X204023473Y-90039065D01*
X204028793Y-90055119D01*
X204047885Y-90112736D01*
X204050987Y-90119388D01*
X204050926Y-90119416D01*
X204054211Y-90126202D01*
X204054270Y-90126173D01*
X204057560Y-90132724D01*
X204057564Y-90132731D01*
X204057565Y-90132732D01*
X204070611Y-90152567D01*
X204100233Y-90197605D01*
X204140967Y-90263648D01*
X204145522Y-90269408D01*
X204145468Y-90269450D01*
X204150228Y-90275292D01*
X204150279Y-90275250D01*
X204154993Y-90280868D01*
X204211482Y-90334163D01*
X206868092Y-92990773D01*
X206880065Y-93004627D01*
X206894531Y-93024058D01*
X206929939Y-93053769D01*
X206934975Y-93057994D01*
X206939021Y-93061702D01*
X206944900Y-93067581D01*
X206970895Y-93088135D01*
X207030360Y-93138032D01*
X207030366Y-93138035D01*
X207036495Y-93142067D01*
X207036458Y-93142122D01*
X207042811Y-93146169D01*
X207042847Y-93146113D01*
X207049092Y-93149965D01*
X207049095Y-93149967D01*
X207119452Y-93182775D01*
X207188812Y-93217609D01*
X207188813Y-93217609D01*
X207188817Y-93217611D01*
X207195713Y-93220121D01*
X207195689Y-93220185D01*
X207202805Y-93222659D01*
X207202827Y-93222595D01*
X207209791Y-93224903D01*
X207285849Y-93240607D01*
X207319866Y-93248669D01*
X207361344Y-93258500D01*
X207361350Y-93258500D01*
X207368633Y-93259352D01*
X207368625Y-93259419D01*
X207376122Y-93260185D01*
X207376128Y-93260119D01*
X207383435Y-93260757D01*
X207383442Y-93260759D01*
X207461080Y-93258500D01*
X209815501Y-93258500D01*
X209883622Y-93278502D01*
X209930115Y-93332158D01*
X209941501Y-93384500D01*
X209941501Y-93569520D01*
X209951604Y-93712629D01*
X209951606Y-93712644D01*
X210005118Y-93950246D01*
X210005119Y-93950248D01*
X210096048Y-94176179D01*
X210222052Y-94384618D01*
X210222054Y-94384620D01*
X210379859Y-94570141D01*
X210541267Y-94707435D01*
X210565381Y-94727947D01*
X210632311Y-94768407D01*
X210773812Y-94853947D01*
X210773816Y-94853948D01*
X210773820Y-94853951D01*
X210773819Y-94853951D01*
X210999751Y-94944880D01*
X210999753Y-94944881D01*
X210999754Y-94944881D01*
X210999756Y-94944882D01*
X211237362Y-94998395D01*
X211237360Y-94998395D01*
X211380478Y-95008500D01*
X211380484Y-95008499D01*
X211380485Y-95008500D01*
X212532269Y-95008499D01*
X213519520Y-95008499D01*
X213576763Y-95004457D01*
X213662638Y-94998395D01*
X213900244Y-94944882D01*
X214015028Y-94898685D01*
X214126179Y-94853951D01*
X214126180Y-94853949D01*
X214126188Y-94853947D01*
X214334620Y-94727946D01*
X214520141Y-94570141D01*
X214677946Y-94384620D01*
X214803947Y-94176188D01*
X214821238Y-94133227D01*
X214860449Y-94035799D01*
X214894882Y-93950244D01*
X214948395Y-93712638D01*
X214949703Y-93694110D01*
X214958500Y-93569522D01*
X214958499Y-91430480D01*
X214951990Y-91338288D01*
X214948395Y-91287362D01*
X214894882Y-91049756D01*
X214894881Y-91049753D01*
X214894878Y-91049744D01*
X214803951Y-90823820D01*
X214803948Y-90823816D01*
X214803947Y-90823812D01*
X214701411Y-90654196D01*
X214677947Y-90615381D01*
X214650794Y-90583459D01*
X214520141Y-90429859D01*
X214338427Y-90275292D01*
X214334618Y-90272052D01*
X214200756Y-90191131D01*
X214126188Y-90146053D01*
X214126185Y-90146052D01*
X214126179Y-90146048D01*
X214126180Y-90146048D01*
X213900248Y-90055119D01*
X213900246Y-90055118D01*
X213662634Y-90001604D01*
X213662639Y-90001604D01*
X213519522Y-89991500D01*
X213519515Y-89991500D01*
X212367730Y-89991500D01*
X211380480Y-89991501D01*
X211237370Y-90001604D01*
X211237363Y-90001604D01*
X211237362Y-90001605D01*
X211237361Y-90001605D01*
X211237355Y-90001606D01*
X210999753Y-90055118D01*
X210999751Y-90055119D01*
X210773820Y-90146048D01*
X210565381Y-90272052D01*
X210379859Y-90429859D01*
X210222052Y-90615381D01*
X210096048Y-90823820D01*
X210005122Y-91049744D01*
X210005118Y-91049753D01*
X209951604Y-91287362D01*
X209941500Y-91430478D01*
X209941500Y-91615500D01*
X209921498Y-91683621D01*
X209867842Y-91730114D01*
X209815500Y-91741500D01*
X207816371Y-91741500D01*
X207748250Y-91721498D01*
X207727276Y-91704595D01*
X205535405Y-89512724D01*
X205501379Y-89450412D01*
X205498500Y-89423629D01*
X205498500Y-87036370D01*
X205518502Y-86968249D01*
X205535400Y-86947280D01*
X207130778Y-85351901D01*
X207144617Y-85339941D01*
X207164058Y-85325469D01*
X207198001Y-85285015D01*
X207201700Y-85280979D01*
X207207581Y-85275100D01*
X207217547Y-85262494D01*
X207228135Y-85249105D01*
X207252324Y-85220277D01*
X207278032Y-85189640D01*
X207278033Y-85189636D01*
X207278036Y-85189634D01*
X207282070Y-85183502D01*
X207282127Y-85183539D01*
X207286171Y-85177191D01*
X207286112Y-85177155D01*
X207289961Y-85170912D01*
X207289967Y-85170905D01*
X207322775Y-85100547D01*
X207357609Y-85031188D01*
X207357610Y-85031182D01*
X207360119Y-85024291D01*
X207360184Y-85024314D01*
X207362658Y-85017197D01*
X207362594Y-85017176D01*
X207364903Y-85010208D01*
X207380607Y-84934150D01*
X207386165Y-84910698D01*
X207398500Y-84858656D01*
X207398500Y-84858649D01*
X207399352Y-84851368D01*
X207399419Y-84851375D01*
X207400185Y-84843877D01*
X207400119Y-84843872D01*
X207400757Y-84836565D01*
X207400759Y-84836558D01*
X207398500Y-84758920D01*
X207398500Y-83624765D01*
X207418502Y-83556644D01*
X207423624Y-83549266D01*
X207440889Y-83526204D01*
X207491989Y-83389201D01*
X207498500Y-83328638D01*
X207498500Y-81231362D01*
X207497573Y-81222740D01*
X207491990Y-81170803D01*
X207491988Y-81170795D01*
X207449766Y-81057597D01*
X207440889Y-81033796D01*
X207440888Y-81033794D01*
X207440887Y-81033792D01*
X207353261Y-80916738D01*
X207236207Y-80829112D01*
X207236202Y-80829110D01*
X207099204Y-80778011D01*
X207099196Y-80778009D01*
X207038649Y-80771500D01*
X207038638Y-80771500D01*
X206241362Y-80771500D01*
X206241350Y-80771500D01*
X206180803Y-80778009D01*
X206180795Y-80778011D01*
X206043797Y-80829110D01*
X206043792Y-80829112D01*
X205926738Y-80916738D01*
X205839112Y-81033792D01*
X205839110Y-81033797D01*
X205807788Y-81117774D01*
X205765241Y-81174610D01*
X205698721Y-81199420D01*
X205629347Y-81184328D01*
X205579145Y-81134126D01*
X205571677Y-81117773D01*
X205540444Y-81034035D01*
X205540444Y-81034034D01*
X205452904Y-80917095D01*
X205335965Y-80829555D01*
X205199093Y-80778505D01*
X205138597Y-80772000D01*
X204994000Y-80772000D01*
X204994000Y-83788000D01*
X205138585Y-83788000D01*
X205138597Y-83787999D01*
X205199093Y-83781494D01*
X205335964Y-83730444D01*
X205335965Y-83730444D01*
X205452904Y-83642904D01*
X205540444Y-83525965D01*
X205540445Y-83525963D01*
X205571676Y-83442227D01*
X205614222Y-83385391D01*
X205680742Y-83360579D01*
X205750116Y-83375670D01*
X205800319Y-83425871D01*
X205807787Y-83442224D01*
X205839021Y-83525963D01*
X205839111Y-83526204D01*
X205856367Y-83549255D01*
X205881179Y-83615774D01*
X205881500Y-83624765D01*
X205881500Y-84403628D01*
X205861498Y-84471749D01*
X205844595Y-84492723D01*
X204249225Y-86088092D01*
X204235376Y-86100062D01*
X204215943Y-86114530D01*
X204182007Y-86154971D01*
X204178300Y-86159017D01*
X204172421Y-86164897D01*
X204172412Y-86164907D01*
X204151863Y-86190896D01*
X204128126Y-86219186D01*
X204101965Y-86250364D01*
X204097935Y-86256491D01*
X204097880Y-86256455D01*
X204093825Y-86262820D01*
X204093882Y-86262855D01*
X204090028Y-86269101D01*
X204057220Y-86339458D01*
X204022391Y-86408812D01*
X204019882Y-86415707D01*
X204019820Y-86415684D01*
X204017343Y-86422810D01*
X204017404Y-86422831D01*
X204015097Y-86429790D01*
X203999392Y-86505849D01*
X203981500Y-86581345D01*
X203980648Y-86588634D01*
X203980581Y-86588626D01*
X203979814Y-86596126D01*
X203979881Y-86596132D01*
X203979241Y-86603442D01*
X203981500Y-86681079D01*
X203981500Y-89725559D01*
X203980170Y-89743819D01*
X203976659Y-89767786D01*
X203976659Y-89767794D01*
X186274997Y-89767794D01*
X186242483Y-89609003D01*
X186144809Y-89120988D01*
X186049294Y-88632709D01*
X185955878Y-88144020D01*
X185864539Y-87654979D01*
X185775184Y-87165261D01*
X185687889Y-86675460D01*
X185602525Y-86185022D01*
X185519151Y-85694482D01*
X185437660Y-85203399D01*
X185358085Y-84712161D01*
X185280362Y-84220587D01*
X185204477Y-83728785D01*
X185130360Y-83236496D01*
X185058048Y-82744181D01*
X185027934Y-82534000D01*
X203882000Y-82534000D01*
X203882000Y-83328597D01*
X203888505Y-83389093D01*
X203939555Y-83525964D01*
X203939555Y-83525965D01*
X204027095Y-83642904D01*
X204144034Y-83730444D01*
X204280906Y-83781494D01*
X204341402Y-83787999D01*
X204341415Y-83788000D01*
X204486000Y-83788000D01*
X204486000Y-82534000D01*
X203882000Y-82534000D01*
X185027934Y-82534000D01*
X184987428Y-82251290D01*
X184955945Y-82026000D01*
X203882000Y-82026000D01*
X204486000Y-82026000D01*
X204486000Y-80772000D01*
X204341402Y-80772000D01*
X204280906Y-80778505D01*
X204144035Y-80829555D01*
X204144034Y-80829555D01*
X204027095Y-80917095D01*
X203939555Y-81034034D01*
X203939555Y-81034035D01*
X203888505Y-81170906D01*
X203882000Y-81231402D01*
X203882000Y-82026000D01*
X184955945Y-82026000D01*
X184918558Y-81758462D01*
X184851373Y-81265444D01*
X184819076Y-81022381D01*
X184785792Y-80771883D01*
X184721873Y-80278451D01*
X184659542Y-79784819D01*
X184598762Y-79290961D01*
X184534642Y-78740836D01*
X184472099Y-78189976D01*
X184411273Y-77639608D01*
X184352024Y-77088465D01*
X184294424Y-76537187D01*
X184270133Y-76297794D01*
X191646659Y-76297794D01*
X191651260Y-76350372D01*
X191651500Y-76355866D01*
X191651500Y-76364182D01*
X191655347Y-76397094D01*
X191662112Y-76474419D01*
X191663596Y-76481606D01*
X191663531Y-76481619D01*
X191665165Y-76488989D01*
X191665229Y-76488975D01*
X191666921Y-76496116D01*
X191683411Y-76541420D01*
X191693473Y-76569065D01*
X191705571Y-76605575D01*
X191717885Y-76642736D01*
X191720987Y-76649388D01*
X191720926Y-76649416D01*
X191724211Y-76656202D01*
X191724270Y-76656173D01*
X191727560Y-76662724D01*
X191727564Y-76662731D01*
X191727565Y-76662732D01*
X191763027Y-76716649D01*
X191770233Y-76727605D01*
X191810967Y-76793648D01*
X191815522Y-76799408D01*
X191815468Y-76799450D01*
X191820228Y-76805292D01*
X191820279Y-76805250D01*
X191824993Y-76810868D01*
X191824998Y-76810873D01*
X191824999Y-76810874D01*
X191880666Y-76863393D01*
X191881482Y-76864163D01*
X194358092Y-79340773D01*
X194370065Y-79354627D01*
X194384531Y-79374058D01*
X194406539Y-79392525D01*
X194424975Y-79407994D01*
X194429021Y-79411702D01*
X194434899Y-79417580D01*
X194460896Y-79438136D01*
X194520360Y-79488032D01*
X194520366Y-79488035D01*
X194526495Y-79492067D01*
X194526457Y-79492123D01*
X194532813Y-79496172D01*
X194532849Y-79496115D01*
X194539089Y-79499963D01*
X194539094Y-79499967D01*
X194609453Y-79532775D01*
X194678812Y-79567609D01*
X194678819Y-79567610D01*
X194685707Y-79570118D01*
X194685684Y-79570180D01*
X194692810Y-79572657D01*
X194692831Y-79572595D01*
X194699788Y-79574899D01*
X194699793Y-79574902D01*
X194775822Y-79590600D01*
X194813583Y-79599550D01*
X194851343Y-79608500D01*
X194858632Y-79609352D01*
X194858624Y-79609418D01*
X194866122Y-79610184D01*
X194866128Y-79610118D01*
X194873435Y-79610756D01*
X194873442Y-79610758D01*
X194951045Y-79608500D01*
X204705500Y-79608500D01*
X204773621Y-79628502D01*
X204820114Y-79682158D01*
X204831500Y-79734500D01*
X204831500Y-79928649D01*
X204838009Y-79989196D01*
X204838011Y-79989204D01*
X204889110Y-80126202D01*
X204889112Y-80126207D01*
X204976738Y-80243261D01*
X205093792Y-80330887D01*
X205093794Y-80330888D01*
X205093796Y-80330889D01*
X205152875Y-80352924D01*
X205230795Y-80381988D01*
X205230803Y-80381990D01*
X205291350Y-80388499D01*
X205291355Y-80388499D01*
X205291362Y-80388500D01*
X205291368Y-80388500D01*
X206088632Y-80388500D01*
X206088638Y-80388500D01*
X206088645Y-80388499D01*
X206088649Y-80388499D01*
X206149196Y-80381990D01*
X206149199Y-80381989D01*
X206149201Y-80381989D01*
X206286204Y-80330889D01*
X206361224Y-80274730D01*
X206403261Y-80243261D01*
X206490887Y-80126207D01*
X206490887Y-80126206D01*
X206490889Y-80126204D01*
X206541989Y-79989201D01*
X206548500Y-79928638D01*
X206548500Y-79764500D01*
X206568502Y-79696379D01*
X206622158Y-79649886D01*
X206674500Y-79638500D01*
X209293629Y-79638500D01*
X209361750Y-79658502D01*
X209382724Y-79675405D01*
X220928830Y-91221511D01*
X220962856Y-91283823D01*
X220962656Y-91338288D01*
X220951605Y-91387358D01*
X220951604Y-91387360D01*
X220941500Y-91530478D01*
X220941501Y-93669520D01*
X220951604Y-93812629D01*
X220951606Y-93812644D01*
X221005118Y-94050246D01*
X221005119Y-94050248D01*
X221096048Y-94276179D01*
X221096052Y-94276185D01*
X221096053Y-94276188D01*
X221141131Y-94350756D01*
X221222052Y-94484618D01*
X221243788Y-94510171D01*
X221379859Y-94670141D01*
X221447817Y-94727946D01*
X221565381Y-94827947D01*
X221632311Y-94868407D01*
X221773812Y-94953947D01*
X221773816Y-94953948D01*
X221773820Y-94953951D01*
X221773819Y-94953951D01*
X221999751Y-95044880D01*
X221999753Y-95044881D01*
X221999754Y-95044881D01*
X221999756Y-95044882D01*
X222237362Y-95098395D01*
X222237360Y-95098395D01*
X222380478Y-95108500D01*
X222380484Y-95108499D01*
X222380485Y-95108500D01*
X223532269Y-95108499D01*
X224519520Y-95108499D01*
X224576763Y-95104457D01*
X224662638Y-95098395D01*
X224900244Y-95044882D01*
X225065629Y-94978320D01*
X225126179Y-94953951D01*
X225126180Y-94953949D01*
X225126188Y-94953947D01*
X225334620Y-94827946D01*
X225520141Y-94670141D01*
X225677946Y-94484620D01*
X225803947Y-94276188D01*
X225817045Y-94243645D01*
X225872965Y-94104701D01*
X225894882Y-94050244D01*
X225948395Y-93812638D01*
X225955455Y-93712644D01*
X225958500Y-93669522D01*
X225958499Y-91530480D01*
X225953168Y-91454975D01*
X225948395Y-91387362D01*
X225894882Y-91149756D01*
X225891194Y-91140592D01*
X225803951Y-90923820D01*
X225803948Y-90923816D01*
X225803947Y-90923812D01*
X225677946Y-90715380D01*
X225520141Y-90529859D01*
X225334620Y-90372054D01*
X225334621Y-90372054D01*
X225334618Y-90372052D01*
X225169199Y-90272054D01*
X225126188Y-90246053D01*
X225126185Y-90246052D01*
X225126179Y-90246048D01*
X225126180Y-90246048D01*
X224900248Y-90155119D01*
X224900246Y-90155118D01*
X224662634Y-90101604D01*
X224662639Y-90101604D01*
X224519522Y-90091500D01*
X224519515Y-90091500D01*
X223367730Y-90091500D01*
X222380480Y-90091501D01*
X222237370Y-90101604D01*
X222237351Y-90101606D01*
X222074023Y-90138390D01*
X222003172Y-90133844D01*
X221957245Y-90104564D01*
X210764181Y-78911500D01*
X218002000Y-78911500D01*
X218002000Y-79120516D01*
X218012605Y-79224318D01*
X218012606Y-79224321D01*
X218068342Y-79392525D01*
X218161365Y-79543339D01*
X218161370Y-79543345D01*
X218286654Y-79668629D01*
X218286660Y-79668634D01*
X218437474Y-79761657D01*
X218605678Y-79817393D01*
X218605681Y-79817394D01*
X218709483Y-79827999D01*
X218709483Y-79828000D01*
X219156000Y-79828000D01*
X219156000Y-78911500D01*
X218002000Y-78911500D01*
X210764181Y-78911500D01*
X210256181Y-78403500D01*
X218002000Y-78403500D01*
X219156000Y-78403500D01*
X219156000Y-77487000D01*
X219664000Y-77487000D01*
X219664000Y-78403500D01*
X220818000Y-78403500D01*
X220818000Y-78194483D01*
X220807394Y-78090681D01*
X220807393Y-78090678D01*
X220751657Y-77922474D01*
X220658634Y-77771660D01*
X220658629Y-77771654D01*
X220533345Y-77646370D01*
X220533339Y-77646365D01*
X220382525Y-77553342D01*
X220214321Y-77497606D01*
X220214318Y-77497605D01*
X220110516Y-77487000D01*
X219664000Y-77487000D01*
X219156000Y-77487000D01*
X218709483Y-77487000D01*
X218605681Y-77497605D01*
X218605678Y-77497606D01*
X218437474Y-77553342D01*
X218286660Y-77646365D01*
X218286654Y-77646370D01*
X218161370Y-77771654D01*
X218161365Y-77771660D01*
X218068342Y-77922474D01*
X218012606Y-78090678D01*
X218012605Y-78090681D01*
X218002000Y-78194483D01*
X218002000Y-78403500D01*
X210256181Y-78403500D01*
X210241908Y-78389227D01*
X210229936Y-78375375D01*
X210215469Y-78355942D01*
X210215467Y-78355940D01*
X210175024Y-78322003D01*
X210170970Y-78318289D01*
X210165107Y-78312425D01*
X210139104Y-78291864D01*
X210139103Y-78291863D01*
X210079640Y-78241968D01*
X210079638Y-78241967D01*
X210079636Y-78241965D01*
X210073506Y-78237933D01*
X210073541Y-78237878D01*
X210067187Y-78233829D01*
X210067153Y-78233886D01*
X210060906Y-78230033D01*
X209990540Y-78197220D01*
X209985090Y-78194483D01*
X209921188Y-78162391D01*
X209921186Y-78162390D01*
X209921183Y-78162389D01*
X209914289Y-78159880D01*
X209914311Y-78159817D01*
X209907189Y-78157341D01*
X209907169Y-78157404D01*
X209900209Y-78155097D01*
X209824150Y-78139392D01*
X209748652Y-78121499D01*
X209741367Y-78120648D01*
X209741374Y-78120580D01*
X209733877Y-78119814D01*
X209733872Y-78119881D01*
X209726559Y-78119241D01*
X209726558Y-78119241D01*
X209648920Y-78121500D01*
X206674500Y-78121500D01*
X206606379Y-78101498D01*
X206559886Y-78047842D01*
X206548500Y-77995500D01*
X206548500Y-77831367D01*
X206548499Y-77831350D01*
X206541990Y-77770803D01*
X206541988Y-77770795D01*
X206506946Y-77676845D01*
X206490889Y-77633796D01*
X206490888Y-77633794D01*
X206490887Y-77633792D01*
X206403261Y-77516738D01*
X206286207Y-77429112D01*
X206286202Y-77429110D01*
X206149204Y-77378011D01*
X206149196Y-77378009D01*
X206088649Y-77371500D01*
X206088638Y-77371500D01*
X205291362Y-77371500D01*
X205291350Y-77371500D01*
X205230803Y-77378009D01*
X205230795Y-77378011D01*
X205093797Y-77429110D01*
X205093792Y-77429112D01*
X204976738Y-77516738D01*
X204889112Y-77633792D01*
X204889110Y-77633797D01*
X204838011Y-77770795D01*
X204838009Y-77770803D01*
X204831500Y-77831350D01*
X204831500Y-77965500D01*
X204811498Y-78033621D01*
X204757842Y-78080114D01*
X204705500Y-78091500D01*
X195306371Y-78091500D01*
X195238250Y-78071498D01*
X195217276Y-78054595D01*
X193205405Y-76042724D01*
X193171379Y-75980412D01*
X193168500Y-75953629D01*
X193168500Y-73929975D01*
X193188502Y-73861854D01*
X193205405Y-73840880D01*
X199380880Y-67665405D01*
X199443192Y-67631379D01*
X199469975Y-67628500D01*
X200200632Y-67628500D01*
X200200638Y-67628500D01*
X200200645Y-67628499D01*
X200200649Y-67628499D01*
X200261196Y-67621990D01*
X200261199Y-67621989D01*
X200261201Y-67621989D01*
X200398204Y-67570889D01*
X200459195Y-67525232D01*
X200515261Y-67483261D01*
X200602887Y-67366207D01*
X200602887Y-67366206D01*
X200602889Y-67366204D01*
X200653989Y-67229201D01*
X200659081Y-67181842D01*
X200660499Y-67168649D01*
X200660500Y-67168632D01*
X200660500Y-62071367D01*
X200660499Y-62071350D01*
X200653990Y-62010803D01*
X200653988Y-62010795D01*
X200616692Y-61910803D01*
X200602889Y-61873796D01*
X200602888Y-61873794D01*
X200602887Y-61873792D01*
X200515261Y-61756738D01*
X200398207Y-61669112D01*
X200398202Y-61669110D01*
X200261204Y-61618011D01*
X200261196Y-61618009D01*
X200200649Y-61611500D01*
X200200638Y-61611500D01*
X198579362Y-61611500D01*
X198579350Y-61611500D01*
X198518803Y-61618009D01*
X198518796Y-61618011D01*
X198480757Y-61632199D01*
X198409941Y-61637263D01*
X198347629Y-61603237D01*
X198313605Y-61540925D01*
X198318671Y-61470109D01*
X198347629Y-61425051D01*
X203337276Y-56435405D01*
X203399588Y-56401379D01*
X203426371Y-56398500D01*
X220523629Y-56398500D01*
X220591750Y-56418502D01*
X220612724Y-56435405D01*
X225473724Y-61296405D01*
X225507750Y-61358717D01*
X225502685Y-61429532D01*
X225460138Y-61486368D01*
X225393618Y-61511179D01*
X225384629Y-61511500D01*
X223799350Y-61511500D01*
X223738803Y-61518009D01*
X223738795Y-61518011D01*
X223601797Y-61569110D01*
X223601792Y-61569112D01*
X223484738Y-61656738D01*
X223397112Y-61773792D01*
X223397110Y-61773797D01*
X223346011Y-61910795D01*
X223346009Y-61910803D01*
X223339500Y-61971350D01*
X223339500Y-67068649D01*
X223346009Y-67129196D01*
X223346011Y-67129204D01*
X223397110Y-67266202D01*
X223397112Y-67266207D01*
X223484738Y-67383261D01*
X223601792Y-67470887D01*
X223601794Y-67470888D01*
X223601796Y-67470889D01*
X223660875Y-67492924D01*
X223738795Y-67521988D01*
X223738798Y-67521988D01*
X223738799Y-67521989D01*
X223738804Y-67521990D01*
X223764383Y-67524739D01*
X223768965Y-67525232D01*
X223834558Y-67552399D01*
X223875051Y-67610716D01*
X223881500Y-67650510D01*
X223881500Y-76186128D01*
X223861498Y-76254249D01*
X223844595Y-76275223D01*
X221033095Y-79086722D01*
X220970783Y-79120748D01*
X220899967Y-79115683D01*
X220843132Y-79073136D01*
X220818321Y-79006616D01*
X220818000Y-78997627D01*
X220818000Y-78911500D01*
X219664000Y-78911500D01*
X219664000Y-79828000D01*
X219987626Y-79828000D01*
X220055747Y-79848002D01*
X220102240Y-79901658D01*
X220112344Y-79971932D01*
X220082850Y-80036512D01*
X220076721Y-80043095D01*
X219545221Y-80574595D01*
X219482909Y-80608621D01*
X219456126Y-80611500D01*
X218709455Y-80611500D01*
X218605574Y-80622112D01*
X218437261Y-80677885D01*
X218286347Y-80770970D01*
X218286341Y-80770975D01*
X218160975Y-80896341D01*
X218160970Y-80896347D01*
X218067885Y-81047262D01*
X218012113Y-81215572D01*
X218012112Y-81215579D01*
X218001500Y-81319446D01*
X218001500Y-82245544D01*
X218012112Y-82349425D01*
X218067885Y-82517738D01*
X218160970Y-82668652D01*
X218160975Y-82668658D01*
X218286341Y-82794024D01*
X218286347Y-82794029D01*
X218286348Y-82794030D01*
X218437262Y-82887115D01*
X218605574Y-82942887D01*
X218709455Y-82953500D01*
X220110544Y-82953499D01*
X220214426Y-82942887D01*
X220382738Y-82887115D01*
X220533652Y-82794030D01*
X220659030Y-82668652D01*
X220677172Y-82639238D01*
X220700850Y-82600853D01*
X220753636Y-82553375D01*
X220808090Y-82541000D01*
X225878629Y-82541000D01*
X225946750Y-82561002D01*
X225967724Y-82577905D01*
X226457095Y-83067276D01*
X226491121Y-83129588D01*
X226494000Y-83156371D01*
X226494000Y-85088649D01*
X226500509Y-85149196D01*
X226500511Y-85149204D01*
X226551610Y-85286202D01*
X226551612Y-85286207D01*
X226639238Y-85403261D01*
X226756292Y-85490887D01*
X226756294Y-85490888D01*
X226756296Y-85490889D01*
X226815375Y-85512924D01*
X226893295Y-85541988D01*
X226893303Y-85541990D01*
X226953850Y-85548499D01*
X226953855Y-85548499D01*
X226953862Y-85548500D01*
X226953868Y-85548500D01*
X228751132Y-85548500D01*
X228751138Y-85548500D01*
X228751145Y-85548499D01*
X228751149Y-85548499D01*
X228811696Y-85541990D01*
X228811699Y-85541989D01*
X228811701Y-85541989D01*
X228948704Y-85490889D01*
X229065761Y-85403261D01*
X229153387Y-85286207D01*
X229153387Y-85286206D01*
X229153389Y-85286204D01*
X229204489Y-85149201D01*
X229211000Y-85088638D01*
X229211000Y-81691362D01*
X229205745Y-81642479D01*
X229204490Y-81630803D01*
X229204488Y-81630795D01*
X229153389Y-81493797D01*
X229153387Y-81493792D01*
X229065761Y-81376738D01*
X228948707Y-81289112D01*
X228948702Y-81289110D01*
X228811704Y-81238011D01*
X228811696Y-81238009D01*
X228751149Y-81231500D01*
X228751138Y-81231500D01*
X226953862Y-81231500D01*
X226953850Y-81231500D01*
X226893304Y-81238009D01*
X226893295Y-81238012D01*
X226881685Y-81242342D01*
X226810869Y-81247405D01*
X226753823Y-81216253D01*
X226752841Y-81217358D01*
X226750110Y-81214928D01*
X226750105Y-81214924D01*
X226750101Y-81214920D01*
X226724103Y-81194363D01*
X226664640Y-81144468D01*
X226664638Y-81144467D01*
X226664636Y-81144465D01*
X226658506Y-81140433D01*
X226658541Y-81140378D01*
X226652187Y-81136329D01*
X226652153Y-81136386D01*
X226645906Y-81132533D01*
X226575540Y-81099720D01*
X226506188Y-81064891D01*
X226506186Y-81064890D01*
X226506183Y-81064889D01*
X226499289Y-81062380D01*
X226499311Y-81062317D01*
X226492189Y-81059841D01*
X226492169Y-81059904D01*
X226485209Y-81057597D01*
X226409150Y-81041892D01*
X226333652Y-81023999D01*
X226326367Y-81023148D01*
X226326374Y-81023080D01*
X226318877Y-81022314D01*
X226318872Y-81022381D01*
X226311559Y-81021741D01*
X226311558Y-81021741D01*
X226233920Y-81024000D01*
X221545371Y-81024000D01*
X221477250Y-81003998D01*
X221430757Y-80950342D01*
X221420653Y-80880068D01*
X221450147Y-80815488D01*
X221456276Y-80808905D01*
X222363523Y-79901658D01*
X224121179Y-78144000D01*
X226494500Y-78144000D01*
X226494500Y-79588597D01*
X226501005Y-79649093D01*
X226552055Y-79785964D01*
X226552055Y-79785965D01*
X226639595Y-79902904D01*
X226756534Y-79990444D01*
X226893406Y-80041494D01*
X226953902Y-80047999D01*
X226953915Y-80048000D01*
X227598500Y-80048000D01*
X227598500Y-78144000D01*
X228106500Y-78144000D01*
X228106500Y-80048000D01*
X228751085Y-80048000D01*
X228751097Y-80047999D01*
X228811593Y-80041494D01*
X228948464Y-79990444D01*
X228948465Y-79990444D01*
X229065404Y-79902904D01*
X229152944Y-79785965D01*
X229152944Y-79785964D01*
X229203994Y-79649093D01*
X229210499Y-79588597D01*
X229210500Y-79588585D01*
X229210500Y-78144000D01*
X228106500Y-78144000D01*
X227598500Y-78144000D01*
X226494500Y-78144000D01*
X224121179Y-78144000D01*
X224629179Y-77636000D01*
X226494500Y-77636000D01*
X227598500Y-77636000D01*
X227598500Y-75732000D01*
X228106500Y-75732000D01*
X228106500Y-77636000D01*
X229210500Y-77636000D01*
X229210500Y-76191414D01*
X229210499Y-76191402D01*
X229203994Y-76130906D01*
X229152944Y-75994035D01*
X229152944Y-75994034D01*
X229065404Y-75877095D01*
X228948465Y-75789555D01*
X228811593Y-75738505D01*
X228751097Y-75732000D01*
X228106500Y-75732000D01*
X227598500Y-75732000D01*
X226953902Y-75732000D01*
X226893406Y-75738505D01*
X226756535Y-75789555D01*
X226756534Y-75789555D01*
X226639595Y-75877095D01*
X226552055Y-75994034D01*
X226552055Y-75994035D01*
X226501005Y-76130906D01*
X226494500Y-76191402D01*
X226494500Y-77636000D01*
X224629179Y-77636000D01*
X225130778Y-77134401D01*
X225144617Y-77122441D01*
X225164058Y-77107969D01*
X225198001Y-77067515D01*
X225201700Y-77063479D01*
X225207581Y-77057600D01*
X225217547Y-77044994D01*
X225228135Y-77031605D01*
X225250481Y-77004972D01*
X225278032Y-76972140D01*
X225278033Y-76972136D01*
X225278036Y-76972134D01*
X225282070Y-76966002D01*
X225282127Y-76966039D01*
X225286171Y-76959691D01*
X225286112Y-76959655D01*
X225289961Y-76953412D01*
X225289967Y-76953405D01*
X225322775Y-76883047D01*
X225357609Y-76813688D01*
X225357610Y-76813682D01*
X225360119Y-76806791D01*
X225360184Y-76806814D01*
X225362658Y-76799697D01*
X225362594Y-76799676D01*
X225364903Y-76792708D01*
X225380607Y-76716650D01*
X225393388Y-76662724D01*
X225398500Y-76641156D01*
X225398500Y-76641149D01*
X225399352Y-76633868D01*
X225399419Y-76633875D01*
X225400185Y-76626377D01*
X225400119Y-76626372D01*
X225400757Y-76619065D01*
X225400759Y-76619058D01*
X225398500Y-76541420D01*
X225398500Y-67640318D01*
X225418502Y-67572197D01*
X225472158Y-67525704D01*
X225480467Y-67522263D01*
X225532912Y-67502701D01*
X225618204Y-67470889D01*
X225735261Y-67383261D01*
X225822887Y-67266207D01*
X225822887Y-67266206D01*
X225822889Y-67266204D01*
X225866960Y-67148045D01*
X225873988Y-67129204D01*
X225873990Y-67129196D01*
X225880499Y-67068649D01*
X225880500Y-67068632D01*
X225880500Y-62007371D01*
X225900502Y-61939250D01*
X225954158Y-61892757D01*
X226024432Y-61882653D01*
X226089012Y-61912147D01*
X226095595Y-61918276D01*
X226242595Y-62065276D01*
X226276621Y-62127588D01*
X226279500Y-62154371D01*
X226279500Y-67068649D01*
X226286009Y-67129196D01*
X226286011Y-67129204D01*
X226337110Y-67266202D01*
X226337112Y-67266207D01*
X226424738Y-67383261D01*
X226541792Y-67470887D01*
X226541794Y-67470888D01*
X226541796Y-67470889D01*
X226600875Y-67492924D01*
X226678795Y-67521988D01*
X226678803Y-67521990D01*
X226739350Y-67528499D01*
X226739355Y-67528499D01*
X226739362Y-67528500D01*
X226739368Y-67528500D01*
X228360632Y-67528500D01*
X228360638Y-67528500D01*
X228360645Y-67528499D01*
X228360649Y-67528499D01*
X228421196Y-67521990D01*
X228421199Y-67521989D01*
X228421201Y-67521989D01*
X228558204Y-67470889D01*
X228675261Y-67383261D01*
X228762887Y-67266207D01*
X228762887Y-67266206D01*
X228762889Y-67266204D01*
X228806960Y-67148045D01*
X228813988Y-67129204D01*
X228813990Y-67129196D01*
X228820499Y-67068649D01*
X228820500Y-67068632D01*
X228820500Y-61971367D01*
X228820499Y-61971350D01*
X228813990Y-61910803D01*
X228813988Y-61910795D01*
X228776642Y-61810670D01*
X228762889Y-61773796D01*
X228762888Y-61773794D01*
X228762887Y-61773792D01*
X228675261Y-61656738D01*
X228558207Y-61569112D01*
X228558202Y-61569110D01*
X228421204Y-61518011D01*
X228421196Y-61518009D01*
X228360649Y-61511500D01*
X228360638Y-61511500D01*
X227886371Y-61511500D01*
X227818250Y-61491498D01*
X227797276Y-61474595D01*
X221471908Y-55149227D01*
X221459936Y-55135375D01*
X221445469Y-55115942D01*
X221440154Y-55111482D01*
X221405024Y-55082003D01*
X221400970Y-55078289D01*
X221395107Y-55072425D01*
X221369104Y-55051864D01*
X221365525Y-55048861D01*
X221309640Y-55001968D01*
X221309638Y-55001967D01*
X221309636Y-55001965D01*
X221303506Y-54997933D01*
X221303541Y-54997878D01*
X221297187Y-54993829D01*
X221297153Y-54993886D01*
X221290906Y-54990033D01*
X221220540Y-54957220D01*
X221214554Y-54954214D01*
X221151188Y-54922391D01*
X221151186Y-54922390D01*
X221151183Y-54922389D01*
X221144289Y-54919880D01*
X221144311Y-54919817D01*
X221137189Y-54917341D01*
X221137169Y-54917404D01*
X221130209Y-54915097D01*
X221054150Y-54899392D01*
X220978652Y-54881499D01*
X220971367Y-54880648D01*
X220971374Y-54880580D01*
X220963877Y-54879814D01*
X220963872Y-54879881D01*
X220956559Y-54879241D01*
X220956558Y-54879241D01*
X220878920Y-54881500D01*
X203124441Y-54881500D01*
X203106182Y-54880170D01*
X203082212Y-54876659D01*
X203082211Y-54876659D01*
X203075773Y-54877222D01*
X203029615Y-54881260D01*
X203024122Y-54881500D01*
X203015817Y-54881500D01*
X202982904Y-54885347D01*
X202905574Y-54892112D01*
X202898389Y-54893596D01*
X202898376Y-54893533D01*
X202891003Y-54895168D01*
X202891018Y-54895231D01*
X202883881Y-54896922D01*
X202833947Y-54915097D01*
X202810934Y-54923473D01*
X202774098Y-54935679D01*
X202737261Y-54947886D01*
X202730612Y-54950987D01*
X202730583Y-54950926D01*
X202723792Y-54954214D01*
X202723822Y-54954273D01*
X202717269Y-54957563D01*
X202652394Y-55000232D01*
X202586351Y-55040968D01*
X202580588Y-55045525D01*
X202580547Y-55045473D01*
X202574704Y-55050233D01*
X202574746Y-55050283D01*
X202569128Y-55054996D01*
X202515836Y-55111482D01*
X196052724Y-61574595D01*
X195990412Y-61608621D01*
X195963629Y-61611500D01*
X195639350Y-61611500D01*
X195578803Y-61618009D01*
X195578795Y-61618011D01*
X195441797Y-61669110D01*
X195441792Y-61669112D01*
X195324738Y-61756738D01*
X195237112Y-61873792D01*
X195237110Y-61873797D01*
X195186011Y-62010795D01*
X195186009Y-62010803D01*
X195179500Y-62071350D01*
X195179500Y-67168649D01*
X195186009Y-67229196D01*
X195186011Y-67229204D01*
X195237110Y-67366202D01*
X195237112Y-67366207D01*
X195324738Y-67483261D01*
X195441792Y-67570887D01*
X195441794Y-67570888D01*
X195441796Y-67570889D01*
X195500875Y-67592924D01*
X195578795Y-67621988D01*
X195578803Y-67621990D01*
X195639350Y-67628499D01*
X195639355Y-67628499D01*
X195639362Y-67628500D01*
X195639368Y-67628500D01*
X196968232Y-67628500D01*
X197036353Y-67648502D01*
X197082846Y-67702158D01*
X197092950Y-67772432D01*
X197063456Y-67837012D01*
X197057327Y-67843595D01*
X191919225Y-72981696D01*
X191905376Y-72993666D01*
X191885943Y-73008134D01*
X191852007Y-73048575D01*
X191848300Y-73052621D01*
X191842421Y-73058501D01*
X191842412Y-73058511D01*
X191821863Y-73084500D01*
X191771965Y-73143968D01*
X191767935Y-73150095D01*
X191767880Y-73150059D01*
X191763825Y-73156424D01*
X191763882Y-73156459D01*
X191760028Y-73162705D01*
X191727220Y-73233062D01*
X191692391Y-73302416D01*
X191689882Y-73309311D01*
X191689820Y-73309288D01*
X191687343Y-73316414D01*
X191687404Y-73316435D01*
X191685097Y-73323394D01*
X191669392Y-73399453D01*
X191651500Y-73474949D01*
X191650648Y-73482238D01*
X191650581Y-73482230D01*
X191649814Y-73489730D01*
X191649881Y-73489736D01*
X191649241Y-73497046D01*
X191651500Y-73574683D01*
X191651500Y-76255559D01*
X191650170Y-76273819D01*
X191646659Y-76297786D01*
X191646659Y-76297794D01*
X184270133Y-76297794D01*
X184238508Y-75986115D01*
X184184234Y-75434851D01*
X184131580Y-74883146D01*
X184080580Y-74331336D01*
X184031262Y-73779748D01*
X183983567Y-73227692D01*
X183937531Y-72675580D01*
X183893145Y-72123290D01*
X183850418Y-71570930D01*
X183809371Y-71018788D01*
X183769937Y-70465913D01*
X183732186Y-69913277D01*
X183696092Y-69360540D01*
X183661664Y-68807757D01*
X183628874Y-68254516D01*
X183597771Y-67701593D01*
X183568313Y-67148226D01*
X183540538Y-66595143D01*
X183514412Y-66041655D01*
X183489969Y-65488445D01*
X183467181Y-64934870D01*
X183446063Y-64381249D01*
X183426618Y-63827591D01*
X183408833Y-63273548D01*
X183392732Y-62719804D01*
X183378313Y-62166364D01*
X183365555Y-61612297D01*
X183358749Y-61305064D01*
X183352551Y-60997898D01*
X183346954Y-60690772D01*
X183341947Y-60383636D01*
X183337522Y-60076541D01*
X183333669Y-59769512D01*
X183330377Y-59461967D01*
X183327643Y-59154958D01*
X183325453Y-58847511D01*
X183323802Y-58540087D01*
X183322683Y-58233233D01*
X183322082Y-57925848D01*
X183321992Y-57618539D01*
X183322407Y-57311312D01*
X183323316Y-57004023D01*
X183324709Y-56696825D01*
X183326580Y-56389718D01*
X183328917Y-56082648D01*
X183331719Y-55774963D01*
X183334966Y-55467991D01*
X183338661Y-55160386D01*
X183342788Y-54852894D01*
X183347330Y-54546158D01*
X183352299Y-54238672D01*
X183357672Y-53931316D01*
X183363429Y-53624809D01*
X183369603Y-53316823D01*
X183376141Y-53009756D01*
X183383053Y-52702625D01*
X183390325Y-52395595D01*
X183397947Y-52088729D01*
X183398437Y-52069869D01*
X193560249Y-52069869D01*
X193585249Y-52394862D01*
X193635248Y-52869855D01*
X193635250Y-52869868D01*
X193785247Y-53519857D01*
X193785249Y-53519864D01*
X194235251Y-54469867D01*
X194785247Y-55269860D01*
X194785248Y-55269861D01*
X194785249Y-55269862D01*
X195585249Y-55944862D01*
X196410249Y-56369862D01*
X197385249Y-56694862D01*
X198335249Y-56744862D01*
X199085249Y-56669862D01*
X199735249Y-56494862D01*
X200185249Y-56294862D01*
X200935249Y-55894862D01*
X201810249Y-55069862D01*
X201810249Y-55069861D01*
X201810251Y-55069860D01*
X201810252Y-55069858D01*
X201936198Y-54893533D01*
X202288768Y-54399935D01*
X221797539Y-54399935D01*
X222647535Y-55424930D01*
X222647536Y-55424931D01*
X222647537Y-55424932D01*
X222647540Y-55424935D01*
X223622540Y-56174935D01*
X224522540Y-56524935D01*
X224522544Y-56524935D01*
X224522548Y-56524937D01*
X225001710Y-56618685D01*
X225672540Y-56749935D01*
X226922540Y-56699935D01*
X228272540Y-56124935D01*
X229297540Y-55274935D01*
X230097540Y-54124935D01*
X230522540Y-52899935D01*
X230572540Y-51924935D01*
X230447540Y-50849935D01*
X230445285Y-50844862D01*
X230247540Y-50399935D01*
X230204793Y-50316578D01*
X229747540Y-49424935D01*
X229550267Y-49192849D01*
X229322543Y-48924938D01*
X229322544Y-48924938D01*
X228947543Y-48549937D01*
X228547540Y-48249935D01*
X228072540Y-47924935D01*
X228072538Y-47924934D01*
X227841492Y-47832516D01*
X227447540Y-47674935D01*
X227447533Y-47674932D01*
X226872543Y-47499936D01*
X226872540Y-47499935D01*
X226339646Y-47420987D01*
X226197541Y-47399935D01*
X226197540Y-47399935D01*
X226047540Y-47399935D01*
X226047538Y-47399935D01*
X221797539Y-54399934D01*
X221797539Y-54399935D01*
X202288768Y-54399935D01*
X202310249Y-54369862D01*
X202310248Y-54369861D01*
X202310249Y-54369861D01*
X198085250Y-47444863D01*
X198085249Y-47444862D01*
X198085248Y-47444862D01*
X197635245Y-47469862D01*
X197185249Y-47544861D01*
X197185244Y-47544862D01*
X196710249Y-47694862D01*
X196335245Y-47819863D01*
X195910252Y-48044860D01*
X195435248Y-48344862D01*
X194885253Y-48844857D01*
X194885251Y-48844859D01*
X194335244Y-49519868D01*
X194110253Y-49894853D01*
X194110245Y-49894869D01*
X193960251Y-50219856D01*
X193960245Y-50219871D01*
X193760253Y-50844845D01*
X193760248Y-50844862D01*
X193710249Y-51069862D01*
X193585249Y-51719858D01*
X193560249Y-52069862D01*
X193560249Y-52069869D01*
X183398437Y-52069869D01*
X183405281Y-51806307D01*
X183405651Y-51802556D01*
X183405741Y-51795886D01*
X183405742Y-51795885D01*
X183405949Y-51780553D01*
X183406346Y-51765303D01*
X183406345Y-51765302D01*
X183406519Y-51758644D01*
X183406298Y-51754877D01*
X183409846Y-51493339D01*
X183419834Y-51207994D01*
X183435898Y-50922972D01*
X183458004Y-50638332D01*
X183486111Y-50354245D01*
X183520181Y-50070833D01*
X183560175Y-49788209D01*
X183606063Y-49506444D01*
X183657798Y-49225709D01*
X183715334Y-48946156D01*
X183738377Y-48844857D01*
X183778656Y-48667791D01*
X183847716Y-48390788D01*
X183922465Y-48115291D01*
X184002885Y-47841356D01*
X184088921Y-47569153D01*
X184180532Y-47298809D01*
X184277706Y-47030360D01*
X184380368Y-46764022D01*
X184488508Y-46499847D01*
X184602075Y-46237971D01*
X184721030Y-45978519D01*
X184845336Y-45721602D01*
X184974979Y-45467289D01*
X185109866Y-45215804D01*
X185250003Y-44967177D01*
X185395335Y-44721556D01*
X185545818Y-44479062D01*
X185624139Y-44358633D01*
X185701453Y-44239753D01*
X185862122Y-44003866D01*
X186027870Y-43771390D01*
X186198607Y-43542517D01*
X186361599Y-43333632D01*
X186378177Y-43316137D01*
X186386388Y-43308985D01*
X186391453Y-43286934D01*
X186393638Y-43279537D01*
X186394051Y-43278400D01*
X186401361Y-43258280D01*
X186401360Y-43258276D01*
X186401529Y-43253377D01*
X186401736Y-43251791D01*
X186401442Y-43250211D01*
X186401010Y-43245336D01*
X186401011Y-43245334D01*
X186401010Y-43245332D01*
X186401010Y-43245330D01*
X186392150Y-43224519D01*
X186389569Y-43217253D01*
X186383321Y-43195512D01*
X186383320Y-43195511D01*
X186383320Y-43195510D01*
X186383319Y-43195509D01*
X186374731Y-43188808D01*
X186357239Y-43172237D01*
X186245017Y-43043416D01*
X186226807Y-43021740D01*
X186109370Y-42881952D01*
X185976892Y-42717191D01*
X185852399Y-42559884D01*
X185731658Y-42400575D01*
X185614258Y-42238783D01*
X185500276Y-42074652D01*
X185389738Y-41908265D01*
X185282600Y-41739589D01*
X185178951Y-41568795D01*
X185144157Y-41508741D01*
X185078842Y-41396008D01*
X184982197Y-41221127D01*
X184889130Y-41044385D01*
X184799637Y-40865805D01*
X184713729Y-40685432D01*
X184631454Y-40503388D01*
X184552816Y-40319705D01*
X184542722Y-40294765D01*
X184477875Y-40134536D01*
X184406616Y-39947856D01*
X184339085Y-39759798D01*
X184275313Y-39570455D01*
X184215318Y-39379884D01*
X184159115Y-39188121D01*
X184106750Y-38995323D01*
X184081546Y-38894640D01*
X184058222Y-38801464D01*
X184013576Y-38606696D01*
X183972832Y-38411077D01*
X183936018Y-38214703D01*
X183909063Y-38053058D01*
X183903146Y-38017577D01*
X183874254Y-37819850D01*
X183849366Y-37621594D01*
X183828498Y-37422827D01*
X183811684Y-37223703D01*
X183799358Y-37030737D01*
X183798941Y-37024214D01*
X183790324Y-36825083D01*
X183786008Y-36439344D01*
X183794954Y-36053902D01*
X183816999Y-35668926D01*
X183851970Y-35284925D01*
X183899704Y-34902214D01*
X183960038Y-34521176D01*
X184032798Y-34142241D01*
X184117820Y-33765776D01*
X184214925Y-33392213D01*
X184323964Y-33021869D01*
X184444744Y-32655221D01*
X184577126Y-32292569D01*
X184720914Y-31934378D01*
X184875931Y-31581050D01*
X185042035Y-31232907D01*
X185219198Y-30890076D01*
X185263945Y-30808462D01*
X185299389Y-30743816D01*
X185302375Y-30738916D01*
X185439751Y-30535063D01*
X185443775Y-30529728D01*
X185600979Y-30342901D01*
X185605395Y-30338170D01*
X185781235Y-30168298D01*
X185785997Y-30164140D01*
X185978343Y-30012485D01*
X185983374Y-30008906D01*
X186190044Y-29876716D01*
X186195371Y-29873664D01*
X186414118Y-29762183D01*
X186419702Y-29759673D01*
X186648269Y-29670090D01*
X186654116Y-29668125D01*
X186890210Y-29601593D01*
X186896390Y-29600184D01*
X187137736Y-29557800D01*
X187144195Y-29557009D01*
X187189641Y-29553812D01*
X187388086Y-29539855D01*
X187395225Y-29539760D01*
X187614121Y-29549274D01*
G37*
G04 #@! TD.AperFunction*
M02*
