G04 #@! TF.GenerationSoftware,KiCad,Pcbnew,7.0.2.1-36-g582732918d-dirty-deb11*
G04 #@! TF.CreationDate,2024-01-19T22:58:02+00:00*
G04 #@! TF.ProjectId,owlThief,6f776c54-6869-4656-962e-6b696361645f,rev?*
G04 #@! TF.SameCoordinates,Original*
G04 #@! TF.FileFunction,Paste,Bot*
G04 #@! TF.FilePolarity,Positive*
%FSLAX46Y46*%
G04 Gerber Fmt 4.6, Leading zero omitted, Abs format (unit mm)*
G04 Created by KiCad (PCBNEW 7.0.2.1-36-g582732918d-dirty-deb11) date 2024-01-19 22:58:02*
%MOMM*%
%LPD*%
G01*
G04 APERTURE LIST*
%ADD10R,1.524000X5.000000*%
%ADD11R,1.700000X3.300000*%
%ADD12R,0.700000X2.000000*%
%ADD13R,1.300000X3.150000*%
G04 APERTURE END LIST*
G36*
G01*
X220060000Y-82445000D02*
X218760000Y-82445000D01*
G75*
G02*
X218510000Y-82195000I0J250000D01*
G01*
X218510000Y-81370000D01*
G75*
G02*
X218760000Y-81120000I250000J0D01*
G01*
X220060000Y-81120000D01*
G75*
G02*
X220310000Y-81370000I0J-250000D01*
G01*
X220310000Y-82195000D01*
G75*
G02*
X220060000Y-82445000I-250000J0D01*
G01*
G37*
G36*
G01*
X220060000Y-79320000D02*
X218760000Y-79320000D01*
G75*
G02*
X218510000Y-79070000I0J250000D01*
G01*
X218510000Y-78245000D01*
G75*
G02*
X218760000Y-77995000I250000J0D01*
G01*
X220060000Y-77995000D01*
G75*
G02*
X220310000Y-78245000I0J-250000D01*
G01*
X220310000Y-79070000D01*
G75*
G02*
X220060000Y-79320000I-250000J0D01*
G01*
G37*
D10*
X196450000Y-64620000D03*
X199390000Y-64620000D03*
X224610000Y-64520000D03*
X227550000Y-64520000D03*
D11*
X227852500Y-83390000D03*
X227852500Y-77890000D03*
D12*
X206640000Y-82280000D03*
X204740000Y-82280000D03*
X205690000Y-78880000D03*
G36*
G01*
X210450000Y-102600000D02*
X210450000Y-100600000D01*
G75*
G02*
X211450000Y-99600000I1000000J0D01*
G01*
X213450000Y-99600000D01*
G75*
G02*
X214450000Y-100600000I0J-1000000D01*
G01*
X214450000Y-102600000D01*
G75*
G02*
X213450000Y-103600000I-1000000J0D01*
G01*
X211450000Y-103600000D01*
G75*
G02*
X210450000Y-102600000I0J1000000D01*
G01*
G37*
G36*
G01*
X210450000Y-93500000D02*
X210450000Y-91500000D01*
G75*
G02*
X211450000Y-90500000I1000000J0D01*
G01*
X213450000Y-90500000D01*
G75*
G02*
X214450000Y-91500000I0J-1000000D01*
G01*
X214450000Y-93500000D01*
G75*
G02*
X213450000Y-94500000I-1000000J0D01*
G01*
X211450000Y-94500000D01*
G75*
G02*
X210450000Y-93500000I0J1000000D01*
G01*
G37*
G36*
G01*
X221450000Y-93600000D02*
X221450000Y-91600000D01*
G75*
G02*
X222450000Y-90600000I1000000J0D01*
G01*
X224450000Y-90600000D01*
G75*
G02*
X225450000Y-91600000I0J-1000000D01*
G01*
X225450000Y-93600000D01*
G75*
G02*
X224450000Y-94600000I-1000000J0D01*
G01*
X222450000Y-94600000D01*
G75*
G02*
X221450000Y-93600000I0J1000000D01*
G01*
G37*
G36*
G01*
X221450000Y-102600000D02*
X221450000Y-100600000D01*
G75*
G02*
X222450000Y-99600000I1000000J0D01*
G01*
X224450000Y-99600000D01*
G75*
G02*
X225450000Y-100600000I0J-1000000D01*
G01*
X225450000Y-102600000D01*
G75*
G02*
X224450000Y-103600000I-1000000J0D01*
G01*
X222450000Y-103600000D01*
G75*
G02*
X221450000Y-102600000I0J1000000D01*
G01*
G37*
G36*
G01*
X199865000Y-96470000D02*
X201115000Y-96470000D01*
G75*
G02*
X201365000Y-96720000I0J-250000D01*
G01*
X201365000Y-97520000D01*
G75*
G02*
X201115000Y-97770000I-250000J0D01*
G01*
X199865000Y-97770000D01*
G75*
G02*
X199615000Y-97520000I0J250000D01*
G01*
X199615000Y-96720000D01*
G75*
G02*
X199865000Y-96470000I250000J0D01*
G01*
G37*
G36*
G01*
X199865000Y-99570000D02*
X201115000Y-99570000D01*
G75*
G02*
X201365000Y-99820000I0J-250000D01*
G01*
X201365000Y-100620000D01*
G75*
G02*
X201115000Y-100870000I-250000J0D01*
G01*
X199865000Y-100870000D01*
G75*
G02*
X199615000Y-100620000I0J250000D01*
G01*
X199615000Y-99820000D01*
G75*
G02*
X199865000Y-99570000I250000J0D01*
G01*
G37*
G36*
X263900000Y-118615000D02*
G01*
X256060000Y-118615000D01*
X256060000Y-112265000D01*
X261360000Y-112265000D01*
X263900000Y-114805000D01*
X263900000Y-118615000D01*
G37*
G36*
X200690000Y-118615000D02*
G01*
X192850000Y-118615000D01*
X192850000Y-114805000D01*
X195390000Y-112265000D01*
X200690000Y-112265000D01*
X200690000Y-118615000D01*
G37*
D13*
X240990000Y-95720000D03*
X243490000Y-95720000D03*
X245990000Y-95720000D03*
X240990000Y-88970000D03*
X243490000Y-88970000D03*
X245990000Y-88970000D03*
M02*
