<?xml version="1.0" encoding="UTF-8" standalone="no"?>
<!-- Created with Inkscape (http://www.inkscape.org/) -->

<svg
   width="210mm"
   height="297mm"
   viewBox="0 0 210 297"
   version="1.1"
   id="svg5"
   sodipodi:docname="drawing.svg"
   inkscape:version="1.2.2 (b0a8486541, 2022-12-01)"
   xmlns:inkscape="http://www.inkscape.org/namespaces/inkscape"
   xmlns:sodipodi="http://sodipodi.sourceforge.net/DTD/sodipodi-0.dtd"
   xmlns="http://www.w3.org/2000/svg"
   xmlns:svg="http://www.w3.org/2000/svg">
  <sodipodi:namedview
     id="namedview7"
     pagecolor="#ffffff"
     bordercolor="#666666"
     borderopacity="1.0"
     inkscape:showpageshadow="2"
     inkscape:pageopacity="0.0"
     inkscape:pagecheckerboard="0"
     inkscape:deskcolor="#d1d1d1"
     inkscape:document-units="mm"
     showgrid="false"
     inkscape:zoom="2.7865881"
     inkscape:cx="341.457"
     inkscape:cy="306.82683"
     inkscape:window-width="2560"
     inkscape:window-height="1371"
     inkscape:window-x="0"
     inkscape:window-y="0"
     inkscape:window-maximized="1"
     inkscape:current-layer="layer2"
     showguides="true">
    <sodipodi:guide
       position="80,224.01994"
       orientation="-1,0"
       id="guide10922"
       inkscape:locked="false"
       inkscape:label=""
       inkscape:color="rgb(0,134,229)" />
    <sodipodi:guide
       position="23.716319,212.06212"
       orientation="0,-1"
       id="guide10930"
       inkscape:locked="false" />
    <sodipodi:guide
       position="35.98649,237.58201"
       orientation="0,-1"
       id="guide10959"
       inkscape:locked="false" />
  </sodipodi:namedview>
  <defs
     id="defs2" />
  <g
     inkscape:label="Layer 1"
     inkscape:groupmode="layer"
     id="layer1">
    <g
       id="g10920"
       transform="translate(-17.395721,35.620111)"
       inkscape:label="ESP">
      <rect
         style="fill:#000000;fill-opacity:1;stroke:none;stroke-width:0.154367;stroke-miterlimit:3"
         id="rect999"
         width="18"
         height="6"
         x="88.395721"
         y="13.725901"
         inkscape:label="ESP" />
      <rect
         style="fill:#f1d403;fill-opacity:1;stroke:none;stroke-width:1.25559;stroke-linecap:round;stroke-linejoin:round;stroke-miterlimit:3;stroke-dasharray:none;stroke-opacity:1"
         id="rect10916"
         width="18"
         height="19.5"
         x="88.396912"
         y="19.742792" />
    </g>
    <path
       id="path1064"
       style="fill:#d000f7;fill-opacity:1;stroke:none;stroke-width:0.231119px;stroke-linecap:butt;stroke-linejoin:miter;stroke-opacity:1"
       d="M 54.655983,46.428804 C 50.136725,46.752119 39.999326,56.305808 40,59.401245 c 1.504936,8.124338 3.921664,23.039823 11.142663,25.603871 -0.969395,0.06264 -3.070256,4.441841 -2.937479,9.265695 0.06996,2.54189 0.351936,11.993299 1.825735,21.567409 1.940915,12.60861 1.145752,17.22832 2.956168,18.79838 3.185118,2.76226 10.5963,1.53029 13.658454,0.5113 3.062155,-1.01899 2.340011,-4.8559 3.70807,-5.57098 1.323097,-0.69158 6.568616,-0.48111 9.550095,-0.5585 2.981478,-0.0774 6.2367,-0.13445 7.5959,0.576 1.368058,0.71508 0.645916,4.552 3.708075,5.57097 3.06215,1.01901 13.896459,2.37021 17.081579,-0.39206 1.17437,-1.01845 1.37938,-11.60515 2.37778,-19.34066 1.70946,-13.24481 1.54255,-17.946706 1.27352,-22.94425 -0.28119,-5.223603 -3.65619,-7.52124 -3.65619,-7.52124 3.93473,-2.193997 10.86321,-17.660448 11.70698,-25.566454 0.0165,-1.748153 -10.43971,-12.52487 -15.7165,-12.604179 -5.276789,-0.07931 -10.286793,2.805639 -13.993127,8.122795 0.04744,-0.04063 -20.649325,0.135361 -20.649325,0.135361 -4.080884,-6.278082 -10.457157,-8.949214 -14.976415,-8.625899 z"
       sodipodi:nodetypes="zccssssszssssscczccz"
       inkscape:label="Edges" />
    <g
       inkscape:groupmode="layer"
       id="layer2"
       inkscape:label="Silkscreen"
       transform="matrix(0.96757737,0,0,0.97062361,1.296905,1.350124)">
      <path
         style="fill:none;stroke:#ffffff;stroke-width:1.165;stroke-linecap:round;stroke-linejoin:miter;stroke-dasharray:none;stroke-opacity:1"
         d="m 51.308294,86.763476 c 0,0 3.217171,2.173664 9.601385,2.479916 6.384213,0.306252 6.464121,-2.765453 6.464121,-2.765453"
         id="path2001"
         sodipodi:nodetypes="czc"
         inkscape:label="OhrenL" />
      <path
         style="fill:none;stroke:#ffffff;stroke-width:1.165;stroke-linecap:round;stroke-linejoin:miter;stroke-dasharray:none;stroke-opacity:1"
         d="m 111.00867,86.705286 c 0,0 -3.35872,2.254962 -9.74293,2.561214 -6.384207,0.306252 -6.821448,-2.473944 -6.821448,-2.473944"
         id="path2001-7"
         sodipodi:nodetypes="czc"
         inkscape:label="OhrenR" />
      <path
         id="path5555-9"
         style="fill:#d2c6bd;fill-opacity:1;stroke:#ffffff;stroke-width:0.989799;stroke-linecap:round;stroke-linejoin:round;stroke-dasharray:none;stroke-opacity:1"
         inkscape:label="Rüssel"
         d="M 76.64216,131.94954 C 74.070474,127.24174 73.098291,106.08617 72.35274,100.25902 71.60719,94.4319 68.576942,89.229553 67.637948,85.758364 67.032324,78.119742 64.278929,70.710576 65.927973,65.963997 c 1.649045,-4.74658 5.326021,-8.167271 6.065612,-8.915615 7.138786,-0.12825 11.388164,0.06877 18.414084,-0.04096 0.601211,0.158497 3.801064,3.156786 5.156715,9.071186 1.355652,5.9144 -0.191121,12.431846 -1.220083,19.471748 -0.654955,3.994846 -3.66982,8.256487 -4.415371,14.083615 -0.745549,5.827139 -2.978782,27.362529 -4.639013,32.259349 z"
         sodipodi:nodetypes="csczcczcscc" />
      <path
         style="fill:#ffffff;fill-opacity:1;stroke:none;stroke-width:0.264583px;stroke-linecap:butt;stroke-linejoin:miter;stroke-opacity:1"
         d="m 112.69194,104.33718 c -18.939333,-2.99674 -17.149159,-7.089731 -21.841899,-8.064671 0.98269,-5.12932 3.812071,-10.481117 3.812071,-10.481117 0,0 2.873934,8.171878 6.762158,11.440658 3.88822,3.26877 11.83229,4.81091 11.99679,5.50433"
         id="path9647-4"
         sodipodi:nodetypes="ccczc" />
      <path
         style="fill:#ffffff;fill-opacity:1;stroke:none;stroke-width:0.264583px;stroke-linecap:butt;stroke-linejoin:miter;stroke-opacity:1"
         d="m 50.513364,104.6755 c 18.939327,-2.99674 16.12377,-7.468786 20.81651,-8.443726 -0.98269,-5.12932 -4.12215,-11.147922 -4.12215,-11.147922 0,0 -2.56386,8.838683 -6.452079,12.107463 -3.88822,3.268765 -10.806901,5.189965 -10.971401,5.883385"
         id="path9647-4-8"
         sodipodi:nodetypes="ccczc" />
      <rect
         style="fill:#5d0070;fill-opacity:1;stroke:none;stroke-width:0.687387;stroke-linecap:round;stroke-linejoin:round;stroke-miterlimit:3;stroke-dasharray:none;stroke-opacity:1"
         id="rect9794"
         width="27.936472"
         height="2.5161443"
         x="66.308327"
         y="55.19442" />
    </g>
    <g
       inkscape:groupmode="layer"
       id="layer3"
       inkscape:label="Pads"
       transform="matrix(0.96757737,0,0,0.97062361,1.296905,1.350124)">
      <path
         style="fill:#d2c6bd;fill-opacity:1;stroke:none;stroke-width:0.264583px;stroke-linecap:butt;stroke-linejoin:miter;stroke-opacity:1"
         d="m 120.17865,59.807665 c -0.53349,-1.285912 -8.75013,-8.888963 -11.42204,-9.888724 -2.67192,-0.999762 -6.14684,-1.170751 -9.152888,1.563852 -3.00605,2.734603 4.253918,14.110866 5.878218,19.179202 1.62431,5.068336 1.98403,13.157283 6.12527,8.850612 4.14124,-4.306672 9.10494,-18.41903 8.57144,-19.704942 z"
         id="path2146-5"
         sodipodi:nodetypes="zzzzzz"
         inkscape:label="OhrR" />
      <path
         style="fill:#d2c6bd;fill-opacity:1;stroke:none;stroke-width:0.264583px;stroke-linecap:butt;stroke-linejoin:miter;stroke-opacity:1"
         d="m 42.417769,59.807373 c 0.53349,-1.285912 8.75013,-8.888963 11.42204,-9.888724 2.67192,-0.999762 6.14684,-1.170751 9.15289,1.563852 3.00605,2.734603 -4.25392,14.110866 -5.87822,19.179202 -1.62431,5.068336 -1.98403,13.157283 -6.12527,8.850612 -4.14124,-4.306672 -9.10494,-18.41903 -8.57144,-19.704942 z"
         id="path2146-5-4"
         sodipodi:nodetypes="zzzzzz"
         inkscape:label="OhrR" />
      <path
         style="fill:#d2c6bd;fill-opacity:1;stroke:none;stroke-width:0.178391px;stroke-linecap:butt;stroke-linejoin:miter;stroke-opacity:1"
         d="m 55.463945,133.30163 c -0.02379,-3.34328 -0.490881,-9.20516 1.380929,-7.26648 1.871809,1.93865 2.198467,2.8295 2.150178,6.74412 -0.0483,3.91463 0.120113,5.01331 -1.91887,4.66754 -2.038981,-0.34578 -1.588447,-0.8019 -1.612237,-4.14518 z"
         id="path2146-3"
         sodipodi:nodetypes="zzzzz"
         inkscape:label="ZehLG1" />
      <path
         style="fill:#d2c6bd;fill-opacity:1;stroke:none;stroke-width:0.173805px;stroke-linecap:butt;stroke-linejoin:miter;stroke-opacity:1"
         d="m 52.860753,131.5725 c -0.17893,-3.25863 -0.165789,-4.37097 0.73474,-5.32301 0.90053,-0.95203 0.776746,1.87136 0.901599,6.17638 0.124854,4.30501 0.36116,4.43148 -0.543791,3.47514 -0.90495,-0.95634 -0.913617,-1.06989 -1.092548,-4.32851 z"
         id="path2146-3-6"
         sodipodi:nodetypes="zzzzz"
         inkscape:label="ZehLK1" />
      <path
         style="fill:#d2c6bd;fill-opacity:1;stroke:none;stroke-width:0.173805px;stroke-linecap:butt;stroke-linejoin:miter;stroke-opacity:1"
         d="m 69.070696,132.09527 c 0.178929,-3.25862 1.01875,-3.95458 -0.656239,-5.06956 -1.674986,-1.11498 -0.940583,1.70147 -1.065437,6.00649 -0.124853,4.30501 -0.197321,4.60137 0.70763,3.64502 0.90495,-0.95634 0.835114,-1.32333 1.014046,-4.58195 z"
         id="path2146-3-6-9"
         sodipodi:nodetypes="zzzzz"
         inkscape:label="ZehLK3" />
      <path
         style="fill:#d2c6bd;fill-opacity:1;stroke:none;stroke-width:0.173805px;stroke-linecap:butt;stroke-linejoin:miter;stroke-opacity:1"
         d="m 59.70996,132.5868 c -0.17893,-3.25862 -0.716506,-6.08255 0.862757,-5.51289 1.579264,0.56966 0.814354,2.2562 0.939207,6.56122 -0.03337,3.2869 0.735933,4.27094 -1.235401,4.13351 -1.559846,-0.13489 -0.387632,-1.9232 -0.566563,-5.18181 z"
         id="path2146-3-6-2"
         sodipodi:nodetypes="zzcczz"
         inkscape:label="ZehLK2" />
      <path
         style="fill:#d2c6bd;fill-opacity:1;stroke:none;stroke-width:0.173805px;stroke-linecap:butt;stroke-linejoin:miter;stroke-opacity:1"
         d="m 62.305702,133.94009 c 0.01276,-4.48472 -0.997435,-7.99991 2.244186,-7.81489 3.241621,0.18502 1.323968,1.45204 1.971562,6.75492 0.647596,5.30289 0.326162,4.53357 -2.057587,4.79383 -2.383749,0.26025 -2.170909,0.75085 -2.158161,-3.73386 z"
         id="path2146-3-5"
         sodipodi:nodetypes="zzzzz"
         inkscape:label="ZehLG2" />
      <path
         style="fill:#d2c6bd;fill-opacity:1;stroke:none;stroke-width:0.189334px;stroke-linecap:butt;stroke-linejoin:miter;stroke-opacity:1"
         d="m 107.61597,133.76774 c 0.0273,-3.28077 0.56348,-9.03306 -1.58517,-7.13063 -2.14865,1.90241 -2.52362,2.7766 -2.46819,6.61804 0.0555,3.84144 -0.13788,4.91957 2.20266,4.58027 2.34056,-0.33931 1.82339,-0.7869 1.8507,-4.06768 z"
         id="path2146-3-1"
         sodipodi:nodetypes="zzzzz"
         inkscape:label="ZehRG1" />
      <path
         style="fill:#d2c6bd;fill-opacity:1;stroke:none;stroke-width:0.184465px;stroke-linecap:butt;stroke-linejoin:miter;stroke-opacity:1"
         d="m 110.60417,132.07093 c 0.2054,-3.1977 0.19031,-4.28924 -0.8434,-5.22349 -1.03373,-0.93423 -0.89164,1.83638 -1.03496,6.06091 -0.14331,4.22453 -0.41457,4.34863 0.62422,3.41017 1.03879,-0.93846 1.04874,-1.04988 1.25414,-4.24759 z"
         id="path2146-3-6-27"
         sodipodi:nodetypes="zzzzz"
         inkscape:label="ZehRK1" />
      <path
         style="fill:#d2c6bd;fill-opacity:1;stroke:none;stroke-width:0.184465px;stroke-linecap:butt;stroke-linejoin:miter;stroke-opacity:1"
         d="m 91.996783,132.58393 c -0.205397,-3.19769 -1.169421,-3.88064 0.753304,-4.97478 1.922716,-1.09413 1.079698,1.66965 1.223013,5.89419 0.143315,4.22453 0.226504,4.51535 -0.812296,3.57688 -1.03879,-0.93846 -0.958625,-1.2986 -1.164021,-4.49629 z"
         id="path2146-3-6-9-0"
         sodipodi:nodetypes="zzzzz"
         inkscape:label="ZehRK3" />
      <path
         style="fill:#d2c6bd;fill-opacity:1;stroke:none;stroke-width:0.184465px;stroke-linecap:butt;stroke-linejoin:miter;stroke-opacity:1"
         d="m 102.74196,133.06627 c 0.2054,-3.19769 0.82248,-5.96883 -0.99035,-5.40982 -1.812833,0.55901 -0.9348,2.21402 -1.07811,6.43856 0.0383,3.22545 -0.844783,4.19109 1.41811,4.05623 1.79056,-0.13237 0.44496,-1.88725 0.65035,-5.08494 z"
         id="path2146-3-6-2-9"
         sodipodi:nodetypes="zzcczz"
         inkscape:label="ZehRK2" />
      <path
         style="fill:#d2c6bd;fill-opacity:1;stroke:none;stroke-width:0.184465px;stroke-linecap:butt;stroke-linejoin:miter;stroke-opacity:1"
         d="m 99.762327,134.39425 c -0.0147,-4.40086 1.144953,-7.85033 -2.576114,-7.66877 -3.721048,0.18154 -1.519772,1.42488 -2.263148,6.62863 -0.743376,5.20375 -0.374406,4.44881 2.361902,4.70421 2.736303,0.25538 2.49199,0.7368 2.47736,-3.66407 z"
         id="path2146-3-5-3"
         sodipodi:nodetypes="zzzzz"
         inkscape:label="ZehRG2" />
    </g>
    <g
       inkscape:groupmode="layer"
       id="layer4"
       inkscape:label="LEDMatrix"
       transform="translate(-2.0485756,-3.3632663)">
      <rect
         style="fill:#000000;fill-opacity:1;stroke:none;stroke-width:1.165;stroke-miterlimit:3;stroke-dasharray:none;stroke-opacity:1"
         id="rect2477"
         width="3.3"
         height="2.9000001"
         x="60.348576"
         y="90"
         inkscape:label="LED1" />
      <rect
         style="fill:#000000;fill-opacity:1;stroke:none;stroke-width:1.165;stroke-miterlimit:3;stroke-dasharray:none;stroke-opacity:1"
         id="rect2477-6"
         width="3.3"
         height="2.9000001"
         x="70.348572"
         y="90"
         inkscape:label="LED2" />
      <rect
         style="fill:#000000;fill-opacity:1;stroke:none;stroke-width:1.165;stroke-miterlimit:3;stroke-dasharray:none;stroke-opacity:1"
         id="rect2477-6-0"
         width="3.3"
         height="2.9000001"
         x="80.348206"
         y="90"
         inkscape:label="LED3" />
      <rect
         style="fill:#000000;fill-opacity:1;stroke:none;stroke-width:1.165;stroke-miterlimit:3;stroke-dasharray:none;stroke-opacity:1"
         id="rect2477-6-0-6"
         width="3.3"
         height="2.9000001"
         x="-93.648582"
         y="-92.900017"
         transform="scale(-1)"
         inkscape:label="LED4" />
      <rect
         style="fill:#000000;fill-opacity:1;stroke:none;stroke-width:1.165;stroke-miterlimit:3;stroke-dasharray:none;stroke-opacity:1"
         id="rect2477-6-0-6-2"
         width="3.3"
         height="2.9000001"
         x="100.34857"
         y="90"
         inkscape:label="LED5" />
      <rect
         style="fill:#000000;fill-opacity:1;stroke:none;stroke-width:1.165;stroke-miterlimit:3;stroke-dasharray:none;stroke-opacity:1"
         id="rect2477-61"
         width="3.3"
         height="2.9000001"
         x="60.348576"
         y="98" />
      <rect
         style="fill:#000000;fill-opacity:1;stroke:none;stroke-width:1.165;stroke-miterlimit:3;stroke-dasharray:none;stroke-opacity:1"
         id="rect2477-6-8"
         width="3.3"
         height="2.9000001"
         x="70.348572"
         y="98" />
      <rect
         style="fill:#000000;fill-opacity:1;stroke:none;stroke-width:1.165;stroke-miterlimit:3;stroke-dasharray:none;stroke-opacity:1"
         id="rect2477-6-0-7"
         width="3.3"
         height="2.9000001"
         x="80.348206"
         y="98" />
      <rect
         style="fill:#000000;fill-opacity:1;stroke:none;stroke-width:1.165;stroke-miterlimit:3;stroke-dasharray:none;stroke-opacity:1"
         id="rect2477-6-0-6-9"
         width="3.3"
         height="2.9000001"
         x="-93.648582"
         y="-100.90002"
         transform="scale(-1)" />
      <rect
         style="fill:#000000;fill-opacity:1;stroke:none;stroke-width:1.165;stroke-miterlimit:3;stroke-dasharray:none;stroke-opacity:1"
         id="rect2477-6-0-6-2-2"
         width="3.3"
         height="2.9000001"
         x="100.34857"
         y="98" />
      <rect
         style="fill:#000000;fill-opacity:1;stroke:none;stroke-width:1.165;stroke-miterlimit:3;stroke-dasharray:none;stroke-opacity:1"
         id="rect2477-0"
         width="3.3"
         height="2.9000001"
         x="60.348576"
         y="106" />
      <rect
         style="fill:#000000;fill-opacity:1;stroke:none;stroke-width:1.165;stroke-miterlimit:3;stroke-dasharray:none;stroke-opacity:1"
         id="rect2477-6-2"
         width="3.3"
         height="2.9000001"
         x="70.348572"
         y="106" />
      <rect
         style="fill:#000000;fill-opacity:1;stroke:none;stroke-width:1.165;stroke-miterlimit:3;stroke-dasharray:none;stroke-opacity:1"
         id="rect2477-6-0-3"
         width="3.3"
         height="2.9000001"
         x="80.348206"
         y="106" />
      <rect
         style="fill:#000000;fill-opacity:1;stroke:none;stroke-width:1.165;stroke-miterlimit:3;stroke-dasharray:none;stroke-opacity:1"
         id="rect2477-6-0-6-7"
         width="3.3"
         height="2.9000001"
         x="-93.648582"
         y="-108.90002"
         transform="scale(-1)" />
      <rect
         style="fill:#000000;fill-opacity:1;stroke:none;stroke-width:1.165;stroke-miterlimit:3;stroke-dasharray:none;stroke-opacity:1"
         id="rect2477-6-0-6-2-5"
         width="3.3"
         height="2.9000001"
         x="100.34857"
         y="106" />
      <rect
         style="fill:#000000;fill-opacity:1;stroke:none;stroke-width:1.165;stroke-miterlimit:3;stroke-dasharray:none;stroke-opacity:1"
         id="rect2477-61-9"
         width="3.3"
         height="2.9000001"
         x="60.348576"
         y="114" />
      <rect
         style="fill:#000000;fill-opacity:1;stroke:none;stroke-width:1.165;stroke-miterlimit:3;stroke-dasharray:none;stroke-opacity:1"
         id="rect2477-6-8-2"
         width="3.3"
         height="2.9000001"
         x="70.348572"
         y="114" />
      <rect
         style="fill:#000000;fill-opacity:1;stroke:none;stroke-width:1.165;stroke-miterlimit:3;stroke-dasharray:none;stroke-opacity:1"
         id="rect2477-6-0-7-2"
         width="3.3"
         height="2.9000001"
         x="80.348206"
         y="114" />
      <rect
         style="fill:#000000;fill-opacity:1;stroke:none;stroke-width:1.165;stroke-miterlimit:3;stroke-dasharray:none;stroke-opacity:1"
         id="rect2477-6-0-6-9-8"
         width="3.3"
         height="2.9000001"
         x="-93.648582"
         y="-116.90002"
         transform="scale(-1)" />
      <rect
         style="fill:#000000;fill-opacity:1;stroke:none;stroke-width:1.165;stroke-miterlimit:3;stroke-dasharray:none;stroke-opacity:1"
         id="rect2477-6-0-6-2-2-9"
         width="3.3"
         height="2.9000001"
         x="100.34857"
         y="114" />
      <rect
         style="fill:#000000;fill-opacity:1;stroke:none;stroke-width:1.165;stroke-miterlimit:3;stroke-dasharray:none;stroke-opacity:1"
         id="rect2477-61-9-7"
         width="3.3"
         height="2.9000001"
         x="60.348576"
         y="122" />
      <rect
         style="fill:#000000;fill-opacity:1;stroke:none;stroke-width:1.165;stroke-miterlimit:3;stroke-dasharray:none;stroke-opacity:1"
         id="rect2477-6-8-2-3"
         width="3.3"
         height="2.9000001"
         x="70.348572"
         y="122" />
      <rect
         style="fill:#000000;fill-opacity:1;stroke:none;stroke-width:1.165;stroke-miterlimit:3;stroke-dasharray:none;stroke-opacity:1"
         id="rect2477-6-0-7-2-6"
         width="3.3"
         height="2.9000001"
         x="80.348206"
         y="122" />
      <rect
         style="fill:#000000;fill-opacity:1;stroke:none;stroke-width:1.165;stroke-miterlimit:3;stroke-dasharray:none;stroke-opacity:1"
         id="rect2477-6-0-6-9-8-1"
         width="3.3"
         height="2.9000001"
         x="-93.648582"
         y="-124.90002"
         transform="scale(-1)" />
      <rect
         style="fill:#000000;fill-opacity:1;stroke:none;stroke-width:1.165;stroke-miterlimit:3;stroke-dasharray:none;stroke-opacity:1"
         id="rect2477-6-0-6-2-2-9-2"
         width="3.3"
         height="2.9000001"
         x="100.34857"
         y="122" />
    </g>
    <g
       inkscape:groupmode="layer"
       id="layer5"
       inkscape:label="AugenLEDs">
      <rect
         style="fill:#000000;fill-opacity:1;stroke:none;stroke-width:1.165;stroke-miterlimit:3;stroke-dasharray:none;stroke-opacity:1"
         id="rect2477-6-9"
         width="3.3"
         height="2.9000001"
         x="70"
         y="78.5"
         inkscape:label="AugeL" />
      <rect
         style="fill:#000000;fill-opacity:1;stroke:none;stroke-width:1.165;stroke-miterlimit:3;stroke-dasharray:none;stroke-opacity:1"
         id="rect2477-6-0-31"
         width="3.3"
         height="2.9000001"
         x="86.699997"
         y="78.5"
         inkscape:label="AugeR" />
    </g>
  </g>
</svg>
