<?xml version="1.0" encoding="UTF-8" standalone="no"?>
<!-- Created with Inkscape (http://www.inkscape.org/) -->

<svg
   width="210mm"
   height="297mm"
   viewBox="0 0 210 297"
   version="1.1"
   id="svg1"
   inkscape:version="1.3 (0e150ed6c4, 2023-07-21)"
   sodipodi:docname="footprint_mask.svg"
   xmlns:inkscape="http://www.inkscape.org/namespaces/inkscape"
   xmlns:sodipodi="http://sodipodi.sourceforge.net/DTD/sodipodi-0.dtd"
   xmlns="http://www.w3.org/2000/svg"
   xmlns:svg="http://www.w3.org/2000/svg">
  <sodipodi:namedview
     id="namedview1"
     pagecolor="#ffffff"
     bordercolor="#666666"
     borderopacity="1.0"
     inkscape:showpageshadow="2"
     inkscape:pageopacity="0.0"
     inkscape:pagecheckerboard="0"
     inkscape:deskcolor="#d1d1d1"
     inkscape:document-units="mm"
     inkscape:zoom="1.0378437"
     inkscape:cx="396.97692"
     inkscape:cy="561.25984"
     inkscape:window-width="2560"
     inkscape:window-height="1371"
     inkscape:window-x="0"
     inkscape:window-y="0"
     inkscape:window-maximized="1"
     inkscape:current-layer="layer1" />
  <defs
     id="defs1" />
  <g
     inkscape:label="Layer 1"
     inkscape:groupmode="layer"
     id="layer1">
    <path
       id="path5555-9-6"
       style="fill:#d2c6bd;fill-opacity:1;stroke:none;stroke-width:0;stroke-linecap:round;stroke-linejoin:round;stroke-dasharray:none;stroke-opacity:1"
       inkscape:label="Trunk"
       d="m 64.281254,21.960416 c 0,0 -1.65396,2.315751 -2.427242,4.548559 -0.745326,2.152087 -0.506047,5.03795 0.03049,8.318355 0.532537,3.255945 1.334596,6.895651 1.636593,10.618474 0.87419,3.23485 3.83625,8.351592 4.573364,14.13092 0.363822,2.852541 1.029243,9.815501 1.791105,16.434141 0.380932,3.30932 0.786814,6.52984 1.187008,9.09402 0.200097,1.28209 0.398918,2.40043 0.591695,3.27783 0.164495,0.74868 0.321827,1.21206 0.453202,1.53169 l 7.982459,-0.078 c 0.465906,-1.02404 0.978104,-2.91598 1.440222,-5.40277 0.4845,-2.60724 0.931173,-5.75874 1.313615,-8.98188 0.764885,-6.44626 1.26789,-13.19117 1.292428,-16.423288 0.02241,-2.951193 0.963977,-5.472289 1.955953,-7.711674 0.991975,-2.239384 2.02452,-4.209953 2.322338,-6.03219 v 0.0078 c 0.999414,-6.859267 2.463866,-13.13471 1.187008,-18.722888 -0.641453,-2.807328 -1.653646,-4.596619 -1.653646,-4.596619 z"
       sodipodi:nodetypes="csscssssccssssccscc" />
  </g>
</svg>
