<?xml version="1.0" encoding="UTF-8" standalone="no"?>
<!-- Created with Inkscape (http://www.inkscape.org/) -->

<svg
   width="210mm"
   height="297mm"
   viewBox="0 0 210 297"
   version="1.1"
   id="svg883"
   inkscape:version="1.3 (0e150ed6c4, 2023-07-21)"
   sodipodi:docname="footprint_pads.svg"
   xmlns:inkscape="http://www.inkscape.org/namespaces/inkscape"
   xmlns:sodipodi="http://sodipodi.sourceforge.net/DTD/sodipodi-0.dtd"
   xmlns="http://www.w3.org/2000/svg"
   xmlns:svg="http://www.w3.org/2000/svg">
  <sodipodi:namedview
     id="namedview885"
     pagecolor="#ffffff"
     bordercolor="#666666"
     borderopacity="1.0"
     inkscape:showpageshadow="2"
     inkscape:pageopacity="0.0"
     inkscape:pagecheckerboard="true"
     inkscape:deskcolor="#d1d1d1"
     inkscape:document-units="mm"
     showgrid="false"
     inkscape:zoom="0.98252487"
     inkscape:cx="497.69733"
     inkscape:cy="311.95139"
     inkscape:window-width="2560"
     inkscape:window-height="1371"
     inkscape:window-x="0"
     inkscape:window-y="0"
     inkscape:window-maximized="1"
     inkscape:current-layer="layer3-2" />
  <defs
     id="defs880" />
  <g
     inkscape:label="Layer 1"
     inkscape:groupmode="layer"
     id="layer1">
    <g
       inkscape:groupmode="layer"
       id="layer3"
       inkscape:label="Pads"
       transform="matrix(0.96757737,0,0,0.97062361,70.217488,-31.350487)">
      <g
         inkscape:groupmode="layer"
         id="layer3-6"
         inkscape:label="Pads"
         transform="translate(-33.119414,31.348644)">
        <g
           inkscape:groupmode="layer"
           id="layer3-9"
           inkscape:label="Pads"
           transform="translate(-55.57821,-23.493218)">
          <g
             inkscape:groupmode="layer"
             id="layer3-2"
             inkscape:label="Pads"
             transform="translate(37.462551,102.76684)">
            <path
               id="path2146-5-4-0"
               style="fill:#ffffff;fill-opacity:1;stroke:none;stroke-width:0.264583px;stroke-linecap:butt;stroke-linejoin:miter;stroke-opacity:1"
               inkscape:label="EarL"
               d="m 57.335336,49.249727 c -1.239099,0.0038 -2.430965,0.270358 -3.495557,0.6687 -2.671908,0.99976 -10.888359,8.60297 -11.421849,9.88888 -0.533499,1.285911 4.430224,15.398154 8.57146,19.704821 4.141236,4.306667 4.500528,-3.78236 6.124837,-8.850691 1.624298,-5.068331 8.884672,-16.444205 5.878625,-19.178805 -1.808325,-1.645033 -3.78672,-2.2387 -5.657516,-2.232905 z m -4.366866,28.72366 c -0.741049,0.823293 -2.071108,-1.416277 -2.8868,-2.296062 -0.988658,-1.066343 -0.732874,-2.797883 0.136045,-3.320707 0.868919,-0.522824 3.733595,-2.630339 3.818662,-0.0842 0.18711,3.137987 -0.266196,4.81028 -1.067907,5.700969 z"
               sodipodi:nodetypes="ssssssssszcs" />
            <path
               id="path2146-5-4-5-2"
               style="fill:#ffffff;fill-opacity:1;stroke:none;stroke-width:0.264583px;stroke-linecap:butt;stroke-linejoin:miter;stroke-opacity:1"
               inkscape:label="EarR"
               d="m 105.31088,49.393039 c 1.2391,0.0038 2.43097,0.270358 3.49556,0.6687 2.67191,0.99976 10.88836,8.60297 11.42185,9.88888 0.5335,1.285911 -4.43023,15.398154 -8.57146,19.704821 -4.14124,4.306667 -4.50053,-3.78236 -6.12484,-8.850691 -1.6243,-5.068331 -8.884669,-16.444205 -5.878619,-19.178805 1.808319,-1.645033 3.786719,-2.2387 5.657509,-2.232905 z m 4.36687,28.72366 c 0.74105,0.823293 1.95944,-1.53409 2.8868,-2.296062 1.98416,-1.630303 0.73287,-2.797883 -0.13605,-3.320707 -0.86892,-0.522824 -3.73359,-2.630339 -3.81866,-0.0842 -0.18711,3.137987 0.2662,4.81028 1.06791,5.700969 z"
               sodipodi:nodetypes="ssssssssszcs" />
            <path
               style="fill:#ffffff;fill-opacity:1;stroke:none;stroke-width:0.173805px;stroke-linecap:butt;stroke-linejoin:miter;stroke-opacity:1"
               d="m 52.455198,132.62294 c -0.178931,-3.25863 0.902108,-1.30522 2.185519,-1.03057 2.026728,0.43373 2.568393,1.38044 2.531965,3.29033 -0.08213,4.30603 0.373939,3.53204 -1.82955,2.73498 -1.406899,-0.50891 -2.709004,-1.73612 -2.887934,-4.99474 z"
               id="path2146-3-6-3"
               sodipodi:nodetypes="sssss"
               inkscape:label="Toe1" />
            <path
               style="fill:#ffffff;fill-opacity:1;stroke:none;stroke-width:0.178391px;stroke-linecap:butt;stroke-linejoin:miter;stroke-opacity:1"
               d="m 58.107431,134.3943 c 0.274149,-2.19912 1.155231,-1.76397 3.207267,-1.2289 2.207052,0.57549 4.237646,-1.88347 3.744033,0.49498 -0.493613,2.37845 0.503054,4.86145 -3.38594,4.8897 -3.089286,0.0224 -4.207922,0.9986 -3.56536,-4.15578 z"
               id="path2146-3-75"
               sodipodi:nodetypes="sszss"
               inkscape:label="Toe2" />
            <path
               style="fill:#ffffff;fill-opacity:1;stroke:none;stroke-width:0.173805px;stroke-linecap:butt;stroke-linejoin:miter;stroke-opacity:1"
               d="m 67.466399,132.35234 c 1.237235,-0.29023 2.400218,-1.01772 2.454882,0.045 0.110712,2.15242 -0.648409,4.08941 -2.874267,5.04372 -0.650772,0.27901 -1.867209,0.80301 -1.481757,-1.54303 0.311552,-1.89625 0.38084,-3.1891 1.901142,-3.54573 z"
               id="path2146-3-6-2-9"
               sodipodi:nodetypes="sssss"
               inkscape:label="Toe3" />
            <path
               style="fill:#ffffff;fill-opacity:1;stroke:none;stroke-width:0.178391px;stroke-linecap:butt;stroke-linejoin:miter;stroke-opacity:1"
               d="m 104.93852,133.68947 c -0.23763,-0.90376 -1.15523,-1.76397 -3.20727,-1.2289 -2.207053,0.57549 -3.936745,-0.97928 -3.765978,1.95983 0.170767,2.93912 -0.48084,3.47893 3.407888,3.42485 3.4381,-0.0478 5.11895,1.75284 3.56536,-4.15578 z"
               id="path2146-3-7-2"
               sodipodi:nodetypes="sszss"
               inkscape:label="Toe5" />
            <path
               style="fill:#ffffff;fill-opacity:1;stroke:none;stroke-width:0.173805px;stroke-linecap:butt;stroke-linejoin:miter;stroke-opacity:1"
               d="m 95.063333,131.91433 c -1.836149,-1.04647 -2.541424,-1.01424 -2.56507,-0.38431 -0.08085,2.15374 1.061304,4.41182 3.287154,5.36613 0.65078,0.27901 1.709359,0.67431 1.69527,-1.70295 -0.02449,-4.13295 -1.098446,-2.52718 -2.417354,-3.27887 z"
               id="path2146-3-6-2-5-2"
               sodipodi:nodetypes="sssss"
               inkscape:label="Toe4" />
            <path
               style="fill:#ffffff;fill-opacity:1;stroke:none;stroke-width:0.173805px;stroke-linecap:butt;stroke-linejoin:miter;stroke-opacity:1"
               d="m 111.23165,132.80524 c 0.53805,-2.14639 -1.68221,-1.55725 -2.96562,-1.28262 -2.02673,0.43373 -2.2464,0.69005 -2.20997,2.59994 0.0821,4.30603 0.88355,3.88216 3.08704,3.0851 1.60871,-0.58191 1.22586,-0.96101 2.08855,-4.40242 z"
               id="path2146-3-6-6-3-8"
               sodipodi:nodetypes="sssss"
               inkscape:label="Toe6" />
          </g>
        </g>
      </g>
    </g>
  </g>
</svg>
