<?xml version="1.0" encoding="UTF-8" standalone="no"?>
<!-- Created with Inkscape (http://www.inkscape.org/) -->

<svg
   width="210mm"
   height="297mm"
   viewBox="0 0 210 297"
   version="1.1"
   id="svg883"
   inkscape:version="1.2.2 (b0a8486541, 2022-12-01)"
   sodipodi:docname="footprint_pads.svg"
   xmlns:inkscape="http://www.inkscape.org/namespaces/inkscape"
   xmlns:sodipodi="http://sodipodi.sourceforge.net/DTD/sodipodi-0.dtd"
   xmlns="http://www.w3.org/2000/svg"
   xmlns:svg="http://www.w3.org/2000/svg">
  <sodipodi:namedview
     id="namedview885"
     pagecolor="#ffffff"
     bordercolor="#666666"
     borderopacity="1.0"
     inkscape:showpageshadow="2"
     inkscape:pageopacity="0.0"
     inkscape:pagecheckerboard="0"
     inkscape:deskcolor="#d1d1d1"
     inkscape:document-units="mm"
     showgrid="false"
     inkscape:zoom="0.69664703"
     inkscape:cx="399.77203"
     inkscape:cy="561.25984"
     inkscape:window-width="2560"
     inkscape:window-height="1371"
     inkscape:window-x="0"
     inkscape:window-y="0"
     inkscape:window-maximized="1"
     inkscape:current-layer="layer3-6" />
  <defs
     id="defs880" />
  <g
     inkscape:label="Layer 1"
     inkscape:groupmode="layer"
     id="layer1">
    <g
       inkscape:groupmode="layer"
       id="layer3"
       inkscape:label="Pads"
       transform="matrix(0.96757737,0,0,0.97062361,70.217488,-31.350487)">
      <g
         inkscape:groupmode="layer"
         id="layer3-6"
         inkscape:label="Pads"
         transform="translate(-33.119414,31.348644)">
        <path
           id="path2146-5-4"
           style="fill:#d2c6bd;fill-opacity:1;stroke:none;stroke-width:0.264583px;stroke-linecap:butt;stroke-linejoin:miter;stroke-opacity:1"
           inkscape:label="EarL"
           d="m 57.335336,49.249727 c -1.239099,0.0038 -2.430965,0.270358 -3.495557,0.6687 -2.671908,0.99976 -10.888359,8.60297 -11.421849,9.88888 -0.533499,1.285911 4.430224,15.398154 8.57146,19.704821 4.141236,4.306667 4.500528,-3.78236 6.124837,-8.850691 1.624298,-5.068331 8.884672,-16.444205 5.878625,-19.178805 -1.808325,-1.645033 -3.78672,-2.2387 -5.657516,-2.232905 z m -4.366866,28.72366 c -0.741049,0.823293 -2.071108,-1.416277 -2.8868,-2.296062 -0.988658,-1.066343 -0.732874,-2.797883 0.136045,-3.320707 0.868919,-0.522824 3.733595,-2.630339 3.818662,-0.0842 0.18711,3.137987 -0.266196,4.81028 -1.067907,5.700969 z"
           sodipodi:nodetypes="ssssssssszcs" />
        <path
           id="path2146-5-4-5"
           style="fill:#d2c6bd;fill-opacity:1;stroke:none;stroke-width:0.264583px;stroke-linecap:butt;stroke-linejoin:miter;stroke-opacity:1"
           inkscape:label="EarR"
           d="m 105.31088,49.393039 c 1.2391,0.0038 2.43097,0.270358 3.49556,0.6687 2.67191,0.99976 10.88836,8.60297 11.42185,9.88888 0.5335,1.285911 -4.43023,15.398154 -8.57146,19.704821 -4.14124,4.306667 -4.50053,-3.78236 -6.12484,-8.850691 -1.6243,-5.068331 -8.884669,-16.444205 -5.878619,-19.178805 1.808319,-1.645033 3.786719,-2.2387 5.657509,-2.232905 z m 4.36687,28.72366 c 0.74105,0.823293 1.95944,-1.53409 2.8868,-2.296062 1.98416,-1.630303 0.73287,-2.797883 -0.13605,-3.320707 -0.86892,-0.522824 -3.73359,-2.630339 -3.81866,-0.0842 -0.18711,3.137987 0.2662,4.81028 1.06791,5.700969 z"
           sodipodi:nodetypes="ssssssssszcs" />
        <path
           style="fill:#d2c6bd;fill-opacity:1;stroke:none;stroke-width:0.173805px;stroke-linecap:butt;stroke-linejoin:miter;stroke-opacity:1"
           d="m 52.860753,132.19067 c -0.17893,-3.25863 -0.165789,-4.37097 0.73474,-5.32301 0.90053,-0.95203 0.776746,1.87136 0.901599,6.17638 0.124854,4.30501 0.36116,4.43148 -0.543791,3.47514 -0.90495,-0.95634 -0.913617,-1.06989 -1.092548,-4.32851 z"
           id="path2146-3-6"
           sodipodi:nodetypes="zzzzz"
           inkscape:label="Toe1" />
        <path
           style="fill:#d2c6bd;fill-opacity:1;stroke:none;stroke-width:0.178391px;stroke-linecap:butt;stroke-linejoin:miter;stroke-opacity:1"
           d="m 55.463945,133.9198 c -0.02379,-3.34328 -0.490881,-9.20516 1.380929,-7.26648 1.871809,1.93865 2.198467,2.8295 2.150178,6.74412 -0.0483,3.91463 0.120113,5.01331 -1.91887,4.66754 -2.038981,-0.34578 -1.588447,-0.8019 -1.612237,-4.14518 z"
           id="path2146-3"
           sodipodi:nodetypes="zzzzz"
           inkscape:label="Toe2" />
        <path
           style="fill:#d2c6bd;fill-opacity:1;stroke:none;stroke-width:0.173805px;stroke-linecap:butt;stroke-linejoin:miter;stroke-opacity:1"
           d="m 59.70996,132.99927 c -0.17893,-3.25862 -0.716506,-6.08255 0.862757,-5.51289 1.579264,0.56966 0.814354,2.2562 0.939207,6.56122 -0.03337,3.2869 0.735933,4.27094 -1.235401,4.13351 -1.559846,-0.13489 -0.387632,-1.9232 -0.566563,-5.18181 z"
           id="path2146-3-6-2"
           sodipodi:nodetypes="zzcczz"
           inkscape:label="Toe3" />
        <path
           style="fill:#d2c6bd;fill-opacity:1;stroke:none;stroke-width:0.173805px;stroke-linecap:butt;stroke-linejoin:miter;stroke-opacity:1"
           d="m 62.305702,133.94009 c 0.01276,-4.48472 -0.997435,-7.99991 2.244186,-7.81489 3.241621,0.18502 1.323968,1.45204 1.971562,6.75492 0.647596,5.30289 0.146767,4.20074 -2.057587,4.79383 -2.204354,0.59309 -2.170909,0.75085 -2.158161,-3.73386 z"
           id="path2146-3-5"
           sodipodi:nodetypes="zzzzz"
           inkscape:label="Toe4" />
        <path
           style="fill:#d2c6bd;fill-opacity:1;stroke:none;stroke-width:0.173805px;stroke-linecap:butt;stroke-linejoin:miter;stroke-opacity:1"
           d="m 69.238208,131.70016 c 0.178929,-3.25862 1.01875,-3.95458 -0.656239,-5.06956 -1.674986,-1.11498 -0.940583,1.70147 -1.065437,6.00649 -0.124853,4.30501 -0.197321,4.60137 0.70763,3.64502 0.90495,-0.95634 0.835114,-1.32333 1.014046,-4.58195 z"
           id="path2146-3-6-9"
           sodipodi:nodetypes="zzzzz"
           inkscape:label="Toe5" />
        <path
           style="fill:#d2c6bd;fill-opacity:1;stroke:none;stroke-width:0.172879px;stroke-linecap:butt;stroke-linejoin:miter;stroke-opacity:1"
           d="m 96.241859,133.57523 c -0.023,-3.24507 -0.47497,-8.93475 1.33615,-7.05302 1.81112,1.8817 2.270366,2.80886 2.223641,6.60849 -0.0467,3.79963 -0.02695,4.80355 -1.999831,4.46794 -1.97287,-0.33562 -1.53694,-0.77834 -1.55996,-4.02341 z"
           id="path2146-3-1"
           sodipodi:nodetypes="zzzzz"
           inkscape:label="Toe7" />
        <path
           style="fill:#d2c6bd;fill-opacity:1;stroke:none;stroke-width:0.168434px;stroke-linecap:butt;stroke-linejoin:miter;stroke-opacity:1"
           d="m 93.090971,131.91945 c -0.17313,-3.16291 -0.16042,-4.24257 0.71092,-5.16664 0.87133,-0.92407 1.316002,2.23652 1.436802,6.41508 0.12081,4.17854 -0.214992,3.88116 -1.090602,2.95291 -0.87561,-0.92825 -0.88399,-1.03846 -1.05712,-4.20135 z"
           id="path2146-3-6-27"
           sodipodi:nodetypes="zzzzz"
           inkscape:label="Toe6" />
        <path
           style="fill:#d2c6bd;fill-opacity:1;stroke:none;stroke-width:0.168434px;stroke-linecap:butt;stroke-linejoin:miter;stroke-opacity:1"
           d="m 110.97236,132.5755 c 0.17313,-3.16289 0.18381,-3.79829 -1.43687,-4.88052 -1.62068,-1.08222 -0.91009,1.65149 -1.03089,5.83005 -0.12081,4.17854 -0.19093,4.46619 0.68468,3.53794 0.87561,-0.92825 1.60995,-1.32458 1.78308,-4.48747 z"
           id="path2146-3-6-9-0"
           sodipodi:nodetypes="zzzzz"
           inkscape:label="Toe10" />
        <path
           style="fill:#d2c6bd;fill-opacity:1;stroke:none;stroke-width:0.168434px;stroke-linecap:butt;stroke-linejoin:miter;stroke-opacity:1"
           d="m 100.66473,132.97827 c -0.17313,-3.16289 -0.693285,-5.90387 0.83478,-5.35094 1.52806,0.55292 1.40259,4.95554 1.24743,6.29931 -0.37696,3.2646 0.3734,4.21464 -1.53402,4.08125 -1.509275,-0.13093 -0.37506,-1.86671 -0.54819,-5.02959 z"
           id="path2146-3-6-2-9"
           sodipodi:nodetypes="zzsczz"
           inkscape:label="Toe8" />
        <path
           style="fill:#d2c6bd;fill-opacity:1;stroke:none;stroke-width:0.168434px;stroke-linecap:butt;stroke-linejoin:miter;stroke-opacity:1"
           d="m 103.6248,134.40624 c 0.0123,-4.35297 -0.9651,-7.7649 2.17142,-7.58531 3.13652,0.17958 1.28104,1.40938 1.90764,6.55648 0.6266,5.14711 0.31559,4.40039 -1.99088,4.65301 -2.30646,0.2526 -2.10052,0.72879 -2.08818,-3.62418 z"
           id="path2146-3-5-3"
           sodipodi:nodetypes="zzzzz"
           inkscape:label="Toe9" />
      </g>
    </g>
  </g>
</svg>
