<?xml version="1.0" encoding="UTF-8" standalone="no"?>
<!-- Created with Inkscape (http://www.inkscape.org/) -->

<svg
   width="210mm"
   height="297mm"
   viewBox="0 0 210 297"
   version="1.1"
   id="svg1457"
   inkscape:version="1.2.2 (b0a8486541, 2022-12-01)"
   sodipodi:docname="footprint_pads_ears.svg"
   xmlns:inkscape="http://www.inkscape.org/namespaces/inkscape"
   xmlns:sodipodi="http://sodipodi.sourceforge.net/DTD/sodipodi-0.dtd"
   xmlns="http://www.w3.org/2000/svg"
   xmlns:svg="http://www.w3.org/2000/svg">
  <sodipodi:namedview
     id="namedview1459"
     pagecolor="#ffffff"
     bordercolor="#666666"
     borderopacity="1.0"
     inkscape:showpageshadow="2"
     inkscape:pageopacity="0.0"
     inkscape:pagecheckerboard="0"
     inkscape:deskcolor="#d1d1d1"
     inkscape:document-units="mm"
     showgrid="false"
     inkscape:zoom="0.69664703"
     inkscape:cx="398.33659"
     inkscape:cy="561.25984"
     inkscape:window-width="2560"
     inkscape:window-height="1371"
     inkscape:window-x="0"
     inkscape:window-y="0"
     inkscape:window-maximized="1"
     inkscape:current-layer="layer1" />
  <defs
     id="defs1454" />
  <g
     inkscape:label="Layer 1"
     inkscape:groupmode="layer"
     id="layer1">
    <path
       id="path2146-5-4"
       style="fill:#d2c6bd;fill-opacity:1;stroke:none;stroke-width:0.256407px;stroke-linecap:butt;stroke-linejoin:miter;stroke-opacity:1"
       inkscape:label="OhrR"
       d="m 33.11244,18.116733 c -1.19892,0.0037 -2.35214,0.262416 -3.38222,0.649056 -2.58528,0.97039 -10.53533,8.350246 -11.05152,9.59838 -0.5162,1.248136 4.28658,14.945812 8.29355,19.125965 4.00697,4.180152 4.35461,-3.671248 5.92625,-8.59069 1.57164,-4.919442 8.59661,-15.961134 5.68803,-18.615401 -1.7497,-1.596708 -3.66395,-2.172935 -5.47409,-2.16731 z m -4.22528,27.879862 c -0.71702,0.799108 -2.00395,-1.374672 -2.7932,-2.228612 -0.9566,-1.035017 -0.70911,-2.715691 0.13163,-3.223156 0.84075,-0.507466 3.61255,-2.553069 3.69486,-0.08173 0.18104,3.045805 -0.25757,4.668972 -1.03329,5.533495 z"
       sodipodi:nodetypes="ssssssssszcs" />
    <path
       id="path2146-5-4-5"
       style="fill:#d2c6bd;fill-opacity:1;stroke:none;stroke-width:0.256407px;stroke-linecap:butt;stroke-linejoin:miter;stroke-opacity:1"
       inkscape:label="OhrL"
       d="m 79.532493,18.255835 c 1.198925,0.0037 2.352152,0.262416 3.382225,0.649056 2.58528,0.97039 10.535331,8.350246 11.051523,9.59838 0.516203,1.248136 -4.28659,14.945812 -8.29355,19.125965 -4.00697,4.180152 -4.354611,-3.671248 -5.926257,-8.59069 -1.571636,-4.919442 -8.596604,-15.961134 -5.688018,-18.615401 1.749688,-1.596708 3.663943,-2.172935 5.474077,-2.16731 z m 4.225285,27.879862 c 0.717023,0.799108 1.89591,-1.489024 2.793202,-2.228612 1.919828,-1.58241 0.709109,-2.715691 -0.131639,-3.223156 -0.840747,-0.507466 -3.612537,-2.553069 -3.694849,-0.08173 -0.181043,3.045805 0.257569,4.668972 1.033286,5.533495 z"
       sodipodi:nodetypes="ssssssssszcs" />
  </g>
</svg>
