<?xml version="1.0" encoding="UTF-8" standalone="no"?>
<!-- Created with Inkscape (http://www.inkscape.org/) -->

<svg
   width="1.1054221mm"
   height="3.1413462mm"
   viewBox="0 0 1.1054221 3.1413462"
   version="1.1"
   id="svg1"
   xml:space="preserve"
   inkscape:version="1.3 (0e150ed6c4, 2023-07-21)"
   sodipodi:docname="mic.svg"
   xmlns:inkscape="http://www.inkscape.org/namespaces/inkscape"
   xmlns:sodipodi="http://sodipodi.sourceforge.net/DTD/sodipodi-0.dtd"
   xmlns="http://www.w3.org/2000/svg"
   xmlns:svg="http://www.w3.org/2000/svg"><sodipodi:namedview
     id="namedview1"
     pagecolor="#ffffff"
     bordercolor="#666666"
     borderopacity="1.0"
     inkscape:showpageshadow="2"
     inkscape:pageopacity="0.0"
     inkscape:pagecheckerboard="0"
     inkscape:deskcolor="#d1d1d1"
     inkscape:document-units="mm"
     inkscape:zoom="0.38697662"
     inkscape:cx="-33.59376"
     inkscape:cy="244.2008"
     inkscape:window-width="1920"
     inkscape:window-height="1011"
     inkscape:window-x="0"
     inkscape:window-y="0"
     inkscape:window-maximized="1"
     inkscape:current-layer="layer1" /><defs
     id="defs1" /><g
     inkscape:label="Layer 1"
     inkscape:groupmode="layer"
     id="layer1"
     transform="translate(-252.17192,-73.904388)"><path
       style="fill:#000000;stroke-width:0.0252397"
       d="m 252.54844,74.4203 c -0.002,-0.0046 -0.002,-0.12261 -0.001,-0.262169 l 0.002,-0.253743 h 0.36395 0.36395 v 0.260442 0.260442 l -0.36247,0.0017 c -0.28689,0.0014 -0.36314,-2.6e-5 -0.3657,-0.0067 z"
       id="path12" /><path
       style="fill:#000000;stroke-width:0.0252397"
       d="m 252.93568,74.935569 c -0.002,-0.0035 -0.007,-0.0046 -0.0102,-0.0024 -0.003,0.0022 -0.005,0.0068 -0.002,0.01023 0.002,0.0035 0.007,0.0046 0.0102,0.0024 0.003,-0.0022 0.005,-0.0068 0.002,-0.01023 z"
       id="path11" /><path
       style="fill:#000000;stroke-width:0.0252397"
       d="m 252.54844,75.241695 c -0.002,-0.0046 -0.002,-0.122611 -0.001,-0.262169 l 0.002,-0.253744 h 0.36395 0.36395 v 0.260443 0.260442 l -0.36247,0.0017 c -0.28689,0.0014 -0.36314,-2.5e-5 -0.3657,-0.0067 z"
       id="path10" /><path
       style="fill:#000000;stroke-width:0.0252397"
       d="m 250.87341,75.235038 c -0.005,-0.01974 -0.005,-0.488279 -1.7e-4,-0.502031 0.004,-0.0095 0.0422,-0.01056 0.36736,-0.01056 h 0.36332 l -0.002,0.262111 -0.002,0.262112 -0.36149,0.0017 -0.36149,0.0017 z"
       id="path9" /><path
       style="fill:#000000;stroke-width:0.0252397"
       d="m 252.58331,76.133172 c -0.002,-0.0028 -0.008,-0.02288 -0.0143,-0.04473 -0.026,-0.09035 -0.0874,-0.178052 -0.17771,-0.253697 -0.0587,-0.04913 -0.0894,-0.0661 -0.16312,-0.09003 l -0.0534,-0.01735 -0.002,-0.148685 c -0.002,-0.170627 -0.006,-0.16155 0.0603,-0.148548 0.11021,0.02168 0.2432,0.0809 0.33207,0.147866 0.0643,0.04842 0.14843,0.136233 0.18851,0.196662 0.0639,0.09631 0.11884,0.235158 0.12972,0.327712 l 0.004,0.03581 h -0.15078 c -0.0829,0 -0.1521,-0.0023 -0.1537,-0.005 z"
       id="path8" /><path
       style="fill:#000000;stroke-width:0.0252397"
       d="m 251.26608,76.129403 c -0.005,-0.01354 0.0153,-0.104901 0.0381,-0.170422 0.0753,-0.215605 0.25355,-0.401969 0.46094,-0.481948 0.0635,-0.0245 0.1686,-0.05336 0.19435,-0.05338 l 0.0185,-1.7e-5 -0.002,0.151484 -0.002,0.151484 -0.0612,0.02119 c -0.0867,0.03 -0.11635,0.04957 -0.1963,0.129523 -0.0799,0.07995 -0.0995,0.109613 -0.12952,0.196302 l -0.0212,0.06122 -0.1483,0.0018 c -0.11974,0.0015 -0.14898,5.1e-5 -0.15178,-0.0072 z"
       id="path7" /><path
       style="fill:#000000;stroke-width:0.0252397"
       d="m 252.17439,77.037875 c -0.002,-0.0047 -0.002,-0.07265 -10e-4,-0.151035 l 0.002,-0.142523 0.06,-0.01957 c 0.0867,-0.02826 0.12269,-0.05144 0.20039,-0.129133 0.0777,-0.07769 0.10087,-0.113661 0.12913,-0.200383 l 0.0196,-0.06005 h 0.14936 c 0.17592,0 0.16288,-0.0094 0.13677,0.09889 -0.0701,0.290916 -0.30416,0.525631 -0.59423,0.595907 -0.0765,0.01854 -0.0967,0.02011 -0.1014,0.0079 z"
       id="path4" /><path
       style="fill:#000000;stroke-width:0.0252397"
       d="m 251.89426,77.035695 c -0.28064,-0.06711 -0.50575,-0.269037 -0.59443,-0.533209 -0.0209,-0.06223 -0.039,-0.148109 -0.034,-0.161137 0.003,-0.0082 0.027,-0.0095 0.15243,-0.008 l 0.14869,0.0018 0.0173,0.05342 c 0.01,0.02938 0.0241,0.06652 0.0323,0.08252 0.0378,0.07365 0.15425,0.18838 0.22989,0.226487 0.019,0.0095 0.0555,0.0238 0.0812,0.03167 l 0.0468,0.01431 0.002,0.151395 0.002,0.151396 -0.0218,-5.55e-4 c -0.012,-3.06e-4 -0.0399,-0.0049 -0.0619,-0.01014 z"
       id="path3" /></g></svg>
