<?xml version="1.0" encoding="UTF-8" standalone="no"?>
<!-- Created with Inkscape (http://www.inkscape.org/) -->

<svg
   width="210mm"
   height="297mm"
   viewBox="0 0 210 297"
   version="1.1"
   id="svg16877"
   inkscape:version="1.2.2 (b0a8486541, 2022-12-01)"
   sodipodi:docname="outline.svg"
   xmlns:inkscape="http://www.inkscape.org/namespaces/inkscape"
   xmlns:sodipodi="http://sodipodi.sourceforge.net/DTD/sodipodi-0.dtd"
   xmlns="http://www.w3.org/2000/svg"
   xmlns:svg="http://www.w3.org/2000/svg">
  <sodipodi:namedview
     id="namedview16879"
     pagecolor="#ffffff"
     bordercolor="#666666"
     borderopacity="1.0"
     inkscape:showpageshadow="2"
     inkscape:pageopacity="0.0"
     inkscape:pagecheckerboard="0"
     inkscape:deskcolor="#d1d1d1"
     inkscape:document-units="mm"
     showgrid="false"
     inkscape:zoom="0.69664703"
     inkscape:cx="398.33659"
     inkscape:cy="561.25984"
     inkscape:window-width="2560"
     inkscape:window-height="1371"
     inkscape:window-x="0"
     inkscape:window-y="0"
     inkscape:window-maximized="1"
     inkscape:current-layer="layer1" />
  <defs
     id="defs16874" />
  <g
     inkscape:label="Layer 1"
     inkscape:groupmode="layer"
     id="layer1">
    <path
       id="path1064"
       style="fill:#d000f7;fill-opacity:1;stroke:none;stroke-width:0.231119px;stroke-linecap:butt;stroke-linejoin:miter;stroke-opacity:1"
       d="m 154.68331,47.313164 c -4.51925,0.323315 -14.65665,9.877004 -14.65598,12.972441 1.50494,8.124338 3.92166,23.039823 11.14266,25.603871 -0.96939,0.06264 -3.07025,4.441841 -2.93748,9.265695 0.07,2.54189 0.35194,11.993299 1.82574,21.567409 1.94091,12.60861 1.14575,17.22832 2.95617,18.79838 3.18511,2.76226 10.5963,1.53029 13.65845,0.5113 3.06216,-1.01899 2.34001,-4.8559 3.70807,-5.57098 1.3231,-0.69158 6.56862,-0.48111 9.5501,-0.5585 2.98147,-0.0774 6.2367,-0.13445 7.5959,0.576 1.36805,0.71508 0.64591,4.552 3.70807,5.57097 3.06215,1.01901 13.89646,2.37021 17.08158,-0.39206 1.17437,-1.01845 1.37938,-11.60515 2.37778,-19.34066 1.70946,-13.24481 1.54255,-17.946706 1.27352,-22.94425 -0.28119,-5.223603 -3.65619,-7.52124 -3.65619,-7.52124 3.93473,-2.193997 10.86321,-17.660448 11.70698,-25.566454 0.0165,-1.748153 -10.43971,-12.52487 -15.7165,-12.604179 -5.27679,-0.07931 -10.28679,2.805639 -13.99313,8.122795 0.0474,-0.04063 -20.64932,0.135361 -20.64932,0.135361 -4.08089,-6.278082 -10.45716,-8.949214 -14.97642,-8.625899 z"
       sodipodi:nodetypes="zccssssszssssscczccz"
       inkscape:label="Edges" />
  </g>
</svg>
