<?xml version="1.0" encoding="UTF-8" standalone="no"?>
<!-- Created with Inkscape (http://www.inkscape.org/) -->

<svg
   width="210mm"
   height="297mm"
   viewBox="0 0 210 297"
   version="1.1"
   id="svg2340"
   inkscape:version="1.3 (0e150ed6c4, 2023-07-21)"
   sodipodi:docname="outline.svg"
   xmlns:inkscape="http://www.inkscape.org/namespaces/inkscape"
   xmlns:sodipodi="http://sodipodi.sourceforge.net/DTD/sodipodi-0.dtd"
   xmlns="http://www.w3.org/2000/svg"
   xmlns:svg="http://www.w3.org/2000/svg">
  <sodipodi:namedview
     id="namedview2342"
     pagecolor="#ffffff"
     bordercolor="#666666"
     borderopacity="1.0"
     inkscape:showpageshadow="2"
     inkscape:pageopacity="0.0"
     inkscape:pagecheckerboard="0"
     inkscape:deskcolor="#d1d1d1"
     inkscape:document-units="mm"
     showgrid="false"
     inkscape:zoom="2.7865882"
     inkscape:cx="431.71072"
     inkscape:cy="627.46982"
     inkscape:window-width="2560"
     inkscape:window-height="1371"
     inkscape:window-x="0"
     inkscape:window-y="0"
     inkscape:window-maximized="1"
     inkscape:current-layer="layer1" />
  <defs
     id="defs2337" />
  <g
     inkscape:label="Layer 1"
     inkscape:groupmode="layer"
     id="layer1">
    <path
       id="path1064"
       style="fill:#d000f7;fill-opacity:1;stroke:none;stroke-width:0.231119px;stroke-linecap:butt;stroke-linejoin:miter;stroke-opacity:1"
       inkscape:label="Edges"
       d="m 70.530059,116.11748 c -0.296637,-0.01 -0.586744,-0.005 -0.869198,0.015 -4.519243,0.32331 -14.656627,9.8769 -14.655953,12.97233 1.504933,8.12431 3.921495,23.04008 11.142473,25.60412 -0.969392,0.0626 -3.070066,4.44175 -2.937289,9.26559 0.06996,2.54188 0.351933,11.99359 1.825729,21.56767 1.940909,12.60855 1.145479,17.22827 2.955892,18.79833 3.185106,2.76226 10.596448,1.53007 13.658598,0.51108 3.06215,-1.01899 2.34025,-4.85564 3.7083,-5.57072 1.32309,-0.69158 4.68531,-0.54787 9.54981,-0.55862 4.86449,-0.0108 8.337359,-0.13426 9.696559,0.57619 1.36805,0.71508 0.64564,4.55175 3.70778,5.57072 3.06215,1.01901 11.79642,2.37005 14.98151,-0.39222 1.17438,-1.01845 1.37924,-11.60494 2.37764,-19.34042 1.70946,-13.24478 1.54234,-17.9468 1.2733,-22.94433 -0.28118,-5.22359 -3.65609,-7.52099 -3.65609,-7.52099 3.9347,-2.19399 10.86301,-17.66093 11.70677,-25.56691 0.0165,-1.74815 -10.43957,-12.52458 -15.71635,-12.60389 -5.2635,-0.0791 -9.82664,3.40667 -13.52942,8.70344 -0.3828,4.7e-4 -1.74536,-7e-5 -1.74536,-7e-5 v -8.70031 l -17.999989,3.1e-4 v 8.7 c 0,0 -1.2965,8.5e-4 -1.59254,8.5e-4 -3.8296,-5.73362 -9.496632,-8.93929 -13.882172,-9.08714 z"
       sodipodi:nodetypes="scccssssscscsssccsccccccss" />
  </g>
</svg>
