G04 #@! TF.GenerationSoftware,KiCad,Pcbnew,7.0.2.1-36-g582732918d-dirty-deb11*
G04 #@! TF.CreationDate,2024-01-19T22:58:33+00:00*
G04 #@! TF.ProjectId,unicorn_simple,756e6963-6f72-46e5-9f73-696d706c652e,rev?*
G04 #@! TF.SameCoordinates,Original*
G04 #@! TF.FileFunction,Soldermask,Bot*
G04 #@! TF.FilePolarity,Negative*
%FSLAX46Y46*%
G04 Gerber Fmt 4.6, Leading zero omitted, Abs format (unit mm)*
G04 Created by KiCad (PCBNEW 7.0.2.1-36-g582732918d-dirty-deb11) date 2024-01-19 22:58:33*
%MOMM*%
%LPD*%
G01*
G04 APERTURE LIST*
%ADD10C,0.010000*%
%ADD11R,5.000000X1.524000*%
%ADD12R,1.524000X5.000000*%
%ADD13R,3.350000X3.600000*%
%ADD14R,1.300000X3.150000*%
G04 APERTURE END LIST*
D10*
X213380257Y-54915942D02*
X213420398Y-55004211D01*
X213430524Y-55031139D01*
X213472001Y-55122557D01*
X213540512Y-55237412D01*
X213640973Y-55382177D01*
X213778304Y-55563321D01*
X213957420Y-55787317D01*
X214183239Y-56060635D01*
X214460678Y-56389746D01*
X214482032Y-56414891D01*
X214723645Y-56701688D01*
X214912831Y-56932314D01*
X215054149Y-57113215D01*
X215152158Y-57250839D01*
X215211416Y-57351634D01*
X215236481Y-57422047D01*
X215231913Y-57468525D01*
X215229783Y-57472478D01*
X215161003Y-57577456D01*
X215056824Y-57722772D01*
X214926529Y-57896792D01*
X214779399Y-58087880D01*
X214624714Y-58284401D01*
X214471756Y-58474719D01*
X214329805Y-58647199D01*
X214208144Y-58790207D01*
X214116053Y-58892106D01*
X214062814Y-58941261D01*
X214056001Y-58943989D01*
X214003496Y-58919835D01*
X213900193Y-58854827D01*
X213762434Y-58759692D01*
X213647000Y-58675520D01*
X213371718Y-58461736D01*
X213063167Y-58205343D01*
X212715643Y-57901338D01*
X212323439Y-57544724D01*
X211880852Y-57130500D01*
X211842818Y-57094459D01*
X211629138Y-56889958D01*
X211472171Y-56734764D01*
X211365582Y-56621680D01*
X211303032Y-56543505D01*
X211278186Y-56493042D01*
X211284706Y-56463091D01*
X211285927Y-56461818D01*
X211336955Y-56418541D01*
X211442670Y-56334095D01*
X211593056Y-56216146D01*
X211778098Y-56072362D01*
X211987779Y-55910411D01*
X212212084Y-55737959D01*
X212440998Y-55562674D01*
X212664503Y-55392223D01*
X212872585Y-55234273D01*
X213055228Y-55096491D01*
X213202416Y-54986546D01*
X213304134Y-54912103D01*
X213350364Y-54880830D01*
X213351832Y-54880334D01*
X213380257Y-54915942D01*
G36*
X213380257Y-54915942D02*
G01*
X213420398Y-55004211D01*
X213430524Y-55031139D01*
X213472001Y-55122557D01*
X213540512Y-55237412D01*
X213640973Y-55382177D01*
X213778304Y-55563321D01*
X213957420Y-55787317D01*
X214183239Y-56060635D01*
X214460678Y-56389746D01*
X214482032Y-56414891D01*
X214723645Y-56701688D01*
X214912831Y-56932314D01*
X215054149Y-57113215D01*
X215152158Y-57250839D01*
X215211416Y-57351634D01*
X215236481Y-57422047D01*
X215231913Y-57468525D01*
X215229783Y-57472478D01*
X215161003Y-57577456D01*
X215056824Y-57722772D01*
X214926529Y-57896792D01*
X214779399Y-58087880D01*
X214624714Y-58284401D01*
X214471756Y-58474719D01*
X214329805Y-58647199D01*
X214208144Y-58790207D01*
X214116053Y-58892106D01*
X214062814Y-58941261D01*
X214056001Y-58943989D01*
X214003496Y-58919835D01*
X213900193Y-58854827D01*
X213762434Y-58759692D01*
X213647000Y-58675520D01*
X213371718Y-58461736D01*
X213063167Y-58205343D01*
X212715643Y-57901338D01*
X212323439Y-57544724D01*
X211880852Y-57130500D01*
X211842818Y-57094459D01*
X211629138Y-56889958D01*
X211472171Y-56734764D01*
X211365582Y-56621680D01*
X211303032Y-56543505D01*
X211278186Y-56493042D01*
X211284706Y-56463091D01*
X211285927Y-56461818D01*
X211336955Y-56418541D01*
X211442670Y-56334095D01*
X211593056Y-56216146D01*
X211778098Y-56072362D01*
X211987779Y-55910411D01*
X212212084Y-55737959D01*
X212440998Y-55562674D01*
X212664503Y-55392223D01*
X212872585Y-55234273D01*
X213055228Y-55096491D01*
X213202416Y-54986546D01*
X213304134Y-54912103D01*
X213350364Y-54880830D01*
X213351832Y-54880334D01*
X213380257Y-54915942D01*
G37*
X221880538Y-48791153D02*
X221881190Y-48806335D01*
X221866067Y-48840539D01*
X221831597Y-48899054D01*
X221774212Y-48987172D01*
X221690343Y-49110180D01*
X221576420Y-49273369D01*
X221428875Y-49482030D01*
X221244137Y-49741451D01*
X221018638Y-50056922D01*
X220748809Y-50433734D01*
X220624988Y-50606555D01*
X220075516Y-51373162D01*
X219573512Y-52072982D01*
X219117372Y-52708222D01*
X218705490Y-53281088D01*
X218336264Y-53793790D01*
X218008087Y-54248532D01*
X217719356Y-54647524D01*
X217468465Y-54992972D01*
X217253811Y-55287084D01*
X217073788Y-55532066D01*
X216926792Y-55730127D01*
X216811219Y-55883473D01*
X216725463Y-55994313D01*
X216667921Y-56064852D01*
X216636987Y-56097299D01*
X216631500Y-56100094D01*
X216587293Y-56069513D01*
X216496900Y-55989672D01*
X216372934Y-55872228D01*
X216228007Y-55728841D01*
X216208167Y-55708784D01*
X216036297Y-55538839D01*
X215823676Y-55335010D01*
X215593364Y-55119064D01*
X215368421Y-54912767D01*
X215290879Y-54842979D01*
X215100789Y-54670080D01*
X214922597Y-54502743D01*
X214770608Y-54354791D01*
X214659129Y-54240047D01*
X214616317Y-54191254D01*
X214478045Y-54019192D01*
X214636129Y-53882538D01*
X214701056Y-53831854D01*
X214827966Y-53737870D01*
X215011198Y-53604580D01*
X215245090Y-53435978D01*
X215523982Y-53236056D01*
X215842212Y-53008808D01*
X216194119Y-52758228D01*
X216574041Y-52488308D01*
X216976319Y-52203042D01*
X217395290Y-51906423D01*
X217825293Y-51602444D01*
X218260667Y-51295099D01*
X218695751Y-50988381D01*
X219124883Y-50686284D01*
X219542403Y-50392800D01*
X219942649Y-50111923D01*
X220319961Y-49847647D01*
X220668676Y-49603964D01*
X220983134Y-49384868D01*
X221257674Y-49194352D01*
X221486634Y-49036410D01*
X221664352Y-48915035D01*
X221785169Y-48834219D01*
X221843423Y-48797957D01*
X221846180Y-48796695D01*
X221867678Y-48789703D01*
X221880538Y-48791153D01*
G36*
X221880538Y-48791153D02*
G01*
X221881190Y-48806335D01*
X221866067Y-48840539D01*
X221831597Y-48899054D01*
X221774212Y-48987172D01*
X221690343Y-49110180D01*
X221576420Y-49273369D01*
X221428875Y-49482030D01*
X221244137Y-49741451D01*
X221018638Y-50056922D01*
X220748809Y-50433734D01*
X220624988Y-50606555D01*
X220075516Y-51373162D01*
X219573512Y-52072982D01*
X219117372Y-52708222D01*
X218705490Y-53281088D01*
X218336264Y-53793790D01*
X218008087Y-54248532D01*
X217719356Y-54647524D01*
X217468465Y-54992972D01*
X217253811Y-55287084D01*
X217073788Y-55532066D01*
X216926792Y-55730127D01*
X216811219Y-55883473D01*
X216725463Y-55994313D01*
X216667921Y-56064852D01*
X216636987Y-56097299D01*
X216631500Y-56100094D01*
X216587293Y-56069513D01*
X216496900Y-55989672D01*
X216372934Y-55872228D01*
X216228007Y-55728841D01*
X216208167Y-55708784D01*
X216036297Y-55538839D01*
X215823676Y-55335010D01*
X215593364Y-55119064D01*
X215368421Y-54912767D01*
X215290879Y-54842979D01*
X215100789Y-54670080D01*
X214922597Y-54502743D01*
X214770608Y-54354791D01*
X214659129Y-54240047D01*
X214616317Y-54191254D01*
X214478045Y-54019192D01*
X214636129Y-53882538D01*
X214701056Y-53831854D01*
X214827966Y-53737870D01*
X215011198Y-53604580D01*
X215245090Y-53435978D01*
X215523982Y-53236056D01*
X215842212Y-53008808D01*
X216194119Y-52758228D01*
X216574041Y-52488308D01*
X216976319Y-52203042D01*
X217395290Y-51906423D01*
X217825293Y-51602444D01*
X218260667Y-51295099D01*
X218695751Y-50988381D01*
X219124883Y-50686284D01*
X219542403Y-50392800D01*
X219942649Y-50111923D01*
X220319961Y-49847647D01*
X220668676Y-49603964D01*
X220983134Y-49384868D01*
X221257674Y-49194352D01*
X221486634Y-49036410D01*
X221664352Y-48915035D01*
X221785169Y-48834219D01*
X221843423Y-48797957D01*
X221846180Y-48796695D01*
X221867678Y-48789703D01*
X221880538Y-48791153D01*
G37*
X205722048Y-56036614D02*
X206235098Y-56076529D01*
X206699877Y-56147736D01*
X207132731Y-56253507D01*
X207550010Y-56397114D01*
X207968062Y-56581828D01*
X207995613Y-56595316D01*
X208387686Y-56817401D01*
X208749650Y-57086180D01*
X209095867Y-57413804D01*
X209440704Y-57812423D01*
X209453288Y-57828270D01*
X209961231Y-58425546D01*
X210501447Y-58978251D01*
X211061738Y-59475177D01*
X211629909Y-59905118D01*
X211923173Y-60097717D01*
X212371172Y-60351922D01*
X212874882Y-60596024D01*
X213407012Y-60818847D01*
X213940271Y-61009215D01*
X214447368Y-61155948D01*
X214588917Y-61189477D01*
X214718674Y-61223280D01*
X214806977Y-61255548D01*
X214832334Y-61275051D01*
X214797720Y-61313769D01*
X214703134Y-61385189D01*
X214562460Y-61480615D01*
X214389580Y-61591350D01*
X214198379Y-61708698D01*
X214002738Y-61823961D01*
X213816542Y-61928444D01*
X213653674Y-62013450D01*
X213653068Y-62013749D01*
X213277850Y-62182295D01*
X212870006Y-62331688D01*
X212408139Y-62469420D01*
X212186500Y-62527200D01*
X211808551Y-62601274D01*
X211399338Y-62645433D01*
X210986187Y-62658786D01*
X210596420Y-62640438D01*
X210260334Y-62590154D01*
X209665021Y-62423258D01*
X209059442Y-62185423D01*
X208462164Y-61885314D01*
X207891755Y-61531597D01*
X207699167Y-61394727D01*
X207296913Y-61072696D01*
X206873443Y-60686636D01*
X206441272Y-60250175D01*
X206012914Y-59776942D01*
X205600882Y-59280567D01*
X205217691Y-58774677D01*
X204982744Y-58436334D01*
X204846341Y-58225602D01*
X204697417Y-57984481D01*
X204541541Y-57723130D01*
X204384280Y-57451709D01*
X204231203Y-57180381D01*
X204087879Y-56919304D01*
X203959874Y-56678639D01*
X203852758Y-56468546D01*
X203772097Y-56299187D01*
X203723462Y-56180721D01*
X203712419Y-56123309D01*
X203713891Y-56120998D01*
X203779549Y-56096896D01*
X203919595Y-56075134D01*
X204123769Y-56056405D01*
X204381809Y-56041397D01*
X204683452Y-56030802D01*
X205018438Y-56025312D01*
X205144377Y-56024719D01*
X205722048Y-56036614D01*
G36*
X205722048Y-56036614D02*
G01*
X206235098Y-56076529D01*
X206699877Y-56147736D01*
X207132731Y-56253507D01*
X207550010Y-56397114D01*
X207968062Y-56581828D01*
X207995613Y-56595316D01*
X208387686Y-56817401D01*
X208749650Y-57086180D01*
X209095867Y-57413804D01*
X209440704Y-57812423D01*
X209453288Y-57828270D01*
X209961231Y-58425546D01*
X210501447Y-58978251D01*
X211061738Y-59475177D01*
X211629909Y-59905118D01*
X211923173Y-60097717D01*
X212371172Y-60351922D01*
X212874882Y-60596024D01*
X213407012Y-60818847D01*
X213940271Y-61009215D01*
X214447368Y-61155948D01*
X214588917Y-61189477D01*
X214718674Y-61223280D01*
X214806977Y-61255548D01*
X214832334Y-61275051D01*
X214797720Y-61313769D01*
X214703134Y-61385189D01*
X214562460Y-61480615D01*
X214389580Y-61591350D01*
X214198379Y-61708698D01*
X214002738Y-61823961D01*
X213816542Y-61928444D01*
X213653674Y-62013450D01*
X213653068Y-62013749D01*
X213277850Y-62182295D01*
X212870006Y-62331688D01*
X212408139Y-62469420D01*
X212186500Y-62527200D01*
X211808551Y-62601274D01*
X211399338Y-62645433D01*
X210986187Y-62658786D01*
X210596420Y-62640438D01*
X210260334Y-62590154D01*
X209665021Y-62423258D01*
X209059442Y-62185423D01*
X208462164Y-61885314D01*
X207891755Y-61531597D01*
X207699167Y-61394727D01*
X207296913Y-61072696D01*
X206873443Y-60686636D01*
X206441272Y-60250175D01*
X206012914Y-59776942D01*
X205600882Y-59280567D01*
X205217691Y-58774677D01*
X204982744Y-58436334D01*
X204846341Y-58225602D01*
X204697417Y-57984481D01*
X204541541Y-57723130D01*
X204384280Y-57451709D01*
X204231203Y-57180381D01*
X204087879Y-56919304D01*
X203959874Y-56678639D01*
X203852758Y-56468546D01*
X203772097Y-56299187D01*
X203723462Y-56180721D01*
X203712419Y-56123309D01*
X203713891Y-56120998D01*
X203779549Y-56096896D01*
X203919595Y-56075134D01*
X204123769Y-56056405D01*
X204381809Y-56041397D01*
X204683452Y-56030802D01*
X205018438Y-56025312D01*
X205144377Y-56024719D01*
X205722048Y-56036614D01*
G37*
X197008583Y-58363443D02*
X197056566Y-58469466D01*
X197115254Y-58620342D01*
X197155565Y-58734107D01*
X197317546Y-59160921D01*
X197498253Y-59536308D01*
X197709122Y-59876100D01*
X197961586Y-60196128D01*
X198267080Y-60512225D01*
X198637039Y-60840224D01*
X198735084Y-60921162D01*
X198886910Y-61046264D01*
X199011308Y-61151051D01*
X199095490Y-61224589D01*
X199126666Y-61255942D01*
X199126667Y-61255982D01*
X199092347Y-61281895D01*
X199004135Y-61332192D01*
X198925584Y-61373266D01*
X198533881Y-61613902D01*
X198193815Y-61913696D01*
X197902243Y-62276603D01*
X197656025Y-62706574D01*
X197452016Y-63207562D01*
X197440647Y-63241167D01*
X197387472Y-63412006D01*
X197320397Y-63645577D01*
X197243822Y-63924752D01*
X197162146Y-64232401D01*
X197079766Y-64551396D01*
X197001083Y-64864606D01*
X196930494Y-65154903D01*
X196872399Y-65405159D01*
X196831196Y-65598243D01*
X196820047Y-65657818D01*
X196777668Y-65961117D01*
X196743137Y-66330616D01*
X196717177Y-66748146D01*
X196700508Y-67195543D01*
X196693852Y-67654638D01*
X196697931Y-68107265D01*
X196709211Y-68448167D01*
X196723079Y-68789994D01*
X196728645Y-69066676D01*
X196723640Y-69297515D01*
X196705797Y-69501819D01*
X196672850Y-69698891D01*
X196622529Y-69908037D01*
X196552569Y-70148561D01*
X196483747Y-70367738D01*
X196375639Y-70712889D01*
X196292846Y-70997058D01*
X196232122Y-71238965D01*
X196190221Y-71457333D01*
X196163898Y-71670882D01*
X196149907Y-71898334D01*
X196145002Y-72158411D01*
X196144999Y-72321667D01*
X196147216Y-72536542D01*
X196153008Y-72731378D01*
X196163880Y-72920940D01*
X196181337Y-73119989D01*
X196206885Y-73343290D01*
X196242030Y-73605606D01*
X196288278Y-73921701D01*
X196347133Y-74306337D01*
X196347907Y-74311334D01*
X196434335Y-74872378D01*
X196508051Y-75360013D01*
X196570151Y-75784364D01*
X196621731Y-76155554D01*
X196663887Y-76483708D01*
X196697715Y-76778950D01*
X196724310Y-77051404D01*
X196744769Y-77311194D01*
X196760187Y-77568445D01*
X196771660Y-77833281D01*
X196780285Y-78115826D01*
X196785772Y-78356654D01*
X196792345Y-78888339D01*
X196787699Y-79348602D01*
X196770290Y-79750131D01*
X196738574Y-80105618D01*
X196691007Y-80427752D01*
X196626045Y-80729223D01*
X196542143Y-81022720D01*
X196437757Y-81320934D01*
X196419103Y-81369798D01*
X196189714Y-81848542D01*
X195888651Y-82286033D01*
X195520813Y-82677142D01*
X195091099Y-83016737D01*
X194604410Y-83299688D01*
X194551635Y-83325223D01*
X194351074Y-83413476D01*
X194134610Y-83496952D01*
X193916271Y-83571667D01*
X193710090Y-83633634D01*
X193530095Y-83678868D01*
X193390317Y-83703384D01*
X193304787Y-83703197D01*
X193284667Y-83685104D01*
X193309984Y-83644530D01*
X193378529Y-83553435D01*
X193479188Y-83426226D01*
X193575805Y-83307615D01*
X193930315Y-82837962D01*
X194222680Y-82360199D01*
X194457510Y-81861950D01*
X194639419Y-81330841D01*
X194773017Y-80754495D01*
X194862917Y-80120537D01*
X194893343Y-79772195D01*
X194914478Y-79237096D01*
X194903319Y-78664436D01*
X194859110Y-78048611D01*
X194781097Y-77384022D01*
X194668524Y-76665066D01*
X194520638Y-75886142D01*
X194336683Y-75041649D01*
X194151623Y-74269000D01*
X193948913Y-73450891D01*
X193766172Y-72709131D01*
X193602284Y-72038069D01*
X193456131Y-71432055D01*
X193326597Y-70885440D01*
X193212565Y-70392572D01*
X193112919Y-69947803D01*
X193026542Y-69545480D01*
X192952317Y-69179955D01*
X192889127Y-68845576D01*
X192835857Y-68536695D01*
X192791389Y-68247659D01*
X192754607Y-67972820D01*
X192724394Y-67706527D01*
X192699633Y-67443130D01*
X192679208Y-67176978D01*
X192662002Y-66902421D01*
X192649599Y-66668794D01*
X192628308Y-65931375D01*
X192642390Y-65257925D01*
X192693241Y-64634864D01*
X192782259Y-64048609D01*
X192910840Y-63485580D01*
X193013038Y-63135894D01*
X193279804Y-62405133D01*
X193602206Y-61728513D01*
X193988364Y-61090105D01*
X194224798Y-60757589D01*
X194411477Y-60524578D01*
X194645600Y-60257218D01*
X194908909Y-59974562D01*
X195183145Y-59695663D01*
X195450049Y-59439571D01*
X195691362Y-59225339D01*
X195700928Y-59217322D01*
X195863774Y-59085730D01*
X196050322Y-58942237D01*
X196248132Y-58795577D01*
X196444762Y-58654483D01*
X196627771Y-58527689D01*
X196784717Y-58423930D01*
X196903160Y-58351939D01*
X196970658Y-58320451D01*
X196978927Y-58320143D01*
X197008583Y-58363443D01*
G36*
X197008583Y-58363443D02*
G01*
X197056566Y-58469466D01*
X197115254Y-58620342D01*
X197155565Y-58734107D01*
X197317546Y-59160921D01*
X197498253Y-59536308D01*
X197709122Y-59876100D01*
X197961586Y-60196128D01*
X198267080Y-60512225D01*
X198637039Y-60840224D01*
X198735084Y-60921162D01*
X198886910Y-61046264D01*
X199011308Y-61151051D01*
X199095490Y-61224589D01*
X199126666Y-61255942D01*
X199126667Y-61255982D01*
X199092347Y-61281895D01*
X199004135Y-61332192D01*
X198925584Y-61373266D01*
X198533881Y-61613902D01*
X198193815Y-61913696D01*
X197902243Y-62276603D01*
X197656025Y-62706574D01*
X197452016Y-63207562D01*
X197440647Y-63241167D01*
X197387472Y-63412006D01*
X197320397Y-63645577D01*
X197243822Y-63924752D01*
X197162146Y-64232401D01*
X197079766Y-64551396D01*
X197001083Y-64864606D01*
X196930494Y-65154903D01*
X196872399Y-65405159D01*
X196831196Y-65598243D01*
X196820047Y-65657818D01*
X196777668Y-65961117D01*
X196743137Y-66330616D01*
X196717177Y-66748146D01*
X196700508Y-67195543D01*
X196693852Y-67654638D01*
X196697931Y-68107265D01*
X196709211Y-68448167D01*
X196723079Y-68789994D01*
X196728645Y-69066676D01*
X196723640Y-69297515D01*
X196705797Y-69501819D01*
X196672850Y-69698891D01*
X196622529Y-69908037D01*
X196552569Y-70148561D01*
X196483747Y-70367738D01*
X196375639Y-70712889D01*
X196292846Y-70997058D01*
X196232122Y-71238965D01*
X196190221Y-71457333D01*
X196163898Y-71670882D01*
X196149907Y-71898334D01*
X196145002Y-72158411D01*
X196144999Y-72321667D01*
X196147216Y-72536542D01*
X196153008Y-72731378D01*
X196163880Y-72920940D01*
X196181337Y-73119989D01*
X196206885Y-73343290D01*
X196242030Y-73605606D01*
X196288278Y-73921701D01*
X196347133Y-74306337D01*
X196347907Y-74311334D01*
X196434335Y-74872378D01*
X196508051Y-75360013D01*
X196570151Y-75784364D01*
X196621731Y-76155554D01*
X196663887Y-76483708D01*
X196697715Y-76778950D01*
X196724310Y-77051404D01*
X196744769Y-77311194D01*
X196760187Y-77568445D01*
X196771660Y-77833281D01*
X196780285Y-78115826D01*
X196785772Y-78356654D01*
X196792345Y-78888339D01*
X196787699Y-79348602D01*
X196770290Y-79750131D01*
X196738574Y-80105618D01*
X196691007Y-80427752D01*
X196626045Y-80729223D01*
X196542143Y-81022720D01*
X196437757Y-81320934D01*
X196419103Y-81369798D01*
X196189714Y-81848542D01*
X195888651Y-82286033D01*
X195520813Y-82677142D01*
X195091099Y-83016737D01*
X194604410Y-83299688D01*
X194551635Y-83325223D01*
X194351074Y-83413476D01*
X194134610Y-83496952D01*
X193916271Y-83571667D01*
X193710090Y-83633634D01*
X193530095Y-83678868D01*
X193390317Y-83703384D01*
X193304787Y-83703197D01*
X193284667Y-83685104D01*
X193309984Y-83644530D01*
X193378529Y-83553435D01*
X193479188Y-83426226D01*
X193575805Y-83307615D01*
X193930315Y-82837962D01*
X194222680Y-82360199D01*
X194457510Y-81861950D01*
X194639419Y-81330841D01*
X194773017Y-80754495D01*
X194862917Y-80120537D01*
X194893343Y-79772195D01*
X194914478Y-79237096D01*
X194903319Y-78664436D01*
X194859110Y-78048611D01*
X194781097Y-77384022D01*
X194668524Y-76665066D01*
X194520638Y-75886142D01*
X194336683Y-75041649D01*
X194151623Y-74269000D01*
X193948913Y-73450891D01*
X193766172Y-72709131D01*
X193602284Y-72038069D01*
X193456131Y-71432055D01*
X193326597Y-70885440D01*
X193212565Y-70392572D01*
X193112919Y-69947803D01*
X193026542Y-69545480D01*
X192952317Y-69179955D01*
X192889127Y-68845576D01*
X192835857Y-68536695D01*
X192791389Y-68247659D01*
X192754607Y-67972820D01*
X192724394Y-67706527D01*
X192699633Y-67443130D01*
X192679208Y-67176978D01*
X192662002Y-66902421D01*
X192649599Y-66668794D01*
X192628308Y-65931375D01*
X192642390Y-65257925D01*
X192693241Y-64634864D01*
X192782259Y-64048609D01*
X192910840Y-63485580D01*
X193013038Y-63135894D01*
X193279804Y-62405133D01*
X193602206Y-61728513D01*
X193988364Y-61090105D01*
X194224798Y-60757589D01*
X194411477Y-60524578D01*
X194645600Y-60257218D01*
X194908909Y-59974562D01*
X195183145Y-59695663D01*
X195450049Y-59439571D01*
X195691362Y-59225339D01*
X195700928Y-59217322D01*
X195863774Y-59085730D01*
X196050322Y-58942237D01*
X196248132Y-58795577D01*
X196444762Y-58654483D01*
X196627771Y-58527689D01*
X196784717Y-58423930D01*
X196903160Y-58351939D01*
X196970658Y-58320451D01*
X196978927Y-58320143D01*
X197008583Y-58363443D01*
G37*
X169871732Y-75564098D02*
X170291752Y-75592063D01*
X170672425Y-75645831D01*
X170728733Y-75657029D01*
X171402594Y-75831100D01*
X172058153Y-76065985D01*
X172677420Y-76354075D01*
X173242405Y-76687760D01*
X173366834Y-76773012D01*
X173644119Y-76987499D01*
X173946764Y-77253668D01*
X174254882Y-77551641D01*
X174548582Y-77861537D01*
X174807978Y-78163477D01*
X174969890Y-78375334D01*
X175086995Y-78548727D01*
X175210375Y-78747182D01*
X175333027Y-78957446D01*
X175447947Y-79166267D01*
X175548132Y-79360393D01*
X175626577Y-79526574D01*
X175676280Y-79651557D01*
X175690236Y-79722091D01*
X175686256Y-79730788D01*
X175633978Y-79751649D01*
X175516735Y-79786348D01*
X175352128Y-79829983D01*
X175166000Y-79875701D01*
X174812618Y-79970912D01*
X174423131Y-80095478D01*
X174017512Y-80241486D01*
X173615736Y-80401023D01*
X173237776Y-80566175D01*
X172903606Y-80729028D01*
X172644341Y-80874747D01*
X172512375Y-80956306D01*
X172383025Y-80777070D01*
X172256925Y-80621972D01*
X172083830Y-80435528D01*
X171884094Y-80237700D01*
X171678069Y-80048449D01*
X171486109Y-79887739D01*
X171440667Y-79852831D01*
X171153937Y-79663828D01*
X170816574Y-79483850D01*
X170462209Y-79330166D01*
X170328356Y-79281662D01*
X169836997Y-79157401D01*
X169316054Y-79105725D01*
X168777663Y-79125543D01*
X168233957Y-79215764D01*
X167697071Y-79375298D01*
X167271828Y-79556386D01*
X166921473Y-79748007D01*
X166651448Y-79942988D01*
X166457431Y-80146242D01*
X166335099Y-80362682D01*
X166280131Y-80597222D01*
X166276000Y-80688325D01*
X166315875Y-81002118D01*
X166432104Y-81283903D01*
X166619596Y-81524800D01*
X166861200Y-81708935D01*
X166999620Y-81778710D01*
X167134378Y-81814126D01*
X167306176Y-81825146D01*
X167336681Y-81825310D01*
X167466041Y-81821777D01*
X167577062Y-81806389D01*
X167692137Y-81772262D01*
X167833664Y-81712513D01*
X168024037Y-81620259D01*
X168056347Y-81604115D01*
X168252979Y-81510301D01*
X168442635Y-81427897D01*
X168601084Y-81366999D01*
X168689000Y-81340567D01*
X168952926Y-81303453D01*
X169235217Y-81299128D01*
X169502738Y-81326301D01*
X169713995Y-81380479D01*
X169906430Y-81473967D01*
X170122744Y-81612135D01*
X170337071Y-81775372D01*
X170523543Y-81944070D01*
X170650643Y-82090559D01*
X170779154Y-82270952D01*
X170697160Y-82371874D01*
X170638739Y-82442418D01*
X170539141Y-82561289D01*
X170411989Y-82712275D01*
X170270908Y-82879164D01*
X170261745Y-82889982D01*
X169652615Y-83669124D01*
X169120160Y-84479038D01*
X168662956Y-85322981D01*
X168279581Y-86204208D01*
X167968611Y-87125975D01*
X167728625Y-88091538D01*
X167563458Y-89064500D01*
X167530317Y-89385938D01*
X167506699Y-89770800D01*
X167492619Y-90198378D01*
X167488092Y-90647965D01*
X167493131Y-91098854D01*
X167507750Y-91530336D01*
X167531966Y-91921705D01*
X167561267Y-92216831D01*
X167727871Y-93270241D01*
X167962232Y-94278639D01*
X168266959Y-95251092D01*
X168644662Y-96196666D01*
X168810207Y-96555719D01*
X169058124Y-97073990D01*
X168939146Y-97400333D01*
X168731802Y-97895760D01*
X168464003Y-98417710D01*
X168146669Y-98947161D01*
X167790719Y-99465093D01*
X167636697Y-99669000D01*
X167459951Y-99881903D01*
X167231373Y-100135077D01*
X166964616Y-100415124D01*
X166673330Y-100708646D01*
X166371168Y-101002245D01*
X166071782Y-101282523D01*
X165788823Y-101536083D01*
X165535944Y-101749525D01*
X165436787Y-101828000D01*
X165235443Y-101980223D01*
X165003446Y-102150738D01*
X164753809Y-102330465D01*
X164499545Y-102510325D01*
X164253665Y-102681238D01*
X164029181Y-102834125D01*
X163839107Y-102959907D01*
X163696453Y-103049504D01*
X163640750Y-103081217D01*
X163555931Y-103113790D01*
X163524334Y-103097932D01*
X163524334Y-103097878D01*
X163532319Y-103041225D01*
X163554098Y-102919216D01*
X163586408Y-102749426D01*
X163625984Y-102549429D01*
X163628715Y-102535874D01*
X163695371Y-102196126D01*
X163749440Y-101894154D01*
X163792195Y-101614830D01*
X163824910Y-101343029D01*
X163848856Y-101063623D01*
X163865307Y-100761487D01*
X163875536Y-100421492D01*
X163880816Y-100028514D01*
X163882419Y-99567424D01*
X163882427Y-99520834D01*
X163881116Y-99059527D01*
X163876934Y-98670074D01*
X163869424Y-98339696D01*
X163858129Y-98055615D01*
X163842593Y-97805052D01*
X163822359Y-97575227D01*
X163808302Y-97446500D01*
X163741339Y-96898280D01*
X163671527Y-96383452D01*
X163595805Y-95884355D01*
X163511108Y-95383327D01*
X163414374Y-94862707D01*
X163302541Y-94304831D01*
X163172545Y-93692039D01*
X163098625Y-93354307D01*
X162939147Y-92618120D01*
X162801832Y-91951414D01*
X162685211Y-91342368D01*
X162587815Y-90779159D01*
X162508176Y-90249968D01*
X162444825Y-89742972D01*
X162396292Y-89246351D01*
X162361109Y-88748283D01*
X162337807Y-88236947D01*
X162324917Y-87700522D01*
X162320971Y-87127187D01*
X162320983Y-87096000D01*
X162330966Y-86294800D01*
X162360949Y-85559665D01*
X162412767Y-84873969D01*
X162488256Y-84221081D01*
X162589249Y-83584374D01*
X162717583Y-82947218D01*
X162832517Y-82460500D01*
X163074095Y-81613595D01*
X163367588Y-80792719D01*
X163708300Y-80006797D01*
X164091533Y-79264751D01*
X164512590Y-78575503D01*
X164966775Y-77947978D01*
X165449391Y-77391098D01*
X165561266Y-77276599D01*
X166045282Y-76848918D01*
X166589962Y-76468913D01*
X167181596Y-76143801D01*
X167806472Y-75880800D01*
X168450882Y-75687125D01*
X168674638Y-75637822D01*
X169033270Y-75586698D01*
X169442269Y-75562216D01*
X169871732Y-75564098D01*
G36*
X169871732Y-75564098D02*
G01*
X170291752Y-75592063D01*
X170672425Y-75645831D01*
X170728733Y-75657029D01*
X171402594Y-75831100D01*
X172058153Y-76065985D01*
X172677420Y-76354075D01*
X173242405Y-76687760D01*
X173366834Y-76773012D01*
X173644119Y-76987499D01*
X173946764Y-77253668D01*
X174254882Y-77551641D01*
X174548582Y-77861537D01*
X174807978Y-78163477D01*
X174969890Y-78375334D01*
X175086995Y-78548727D01*
X175210375Y-78747182D01*
X175333027Y-78957446D01*
X175447947Y-79166267D01*
X175548132Y-79360393D01*
X175626577Y-79526574D01*
X175676280Y-79651557D01*
X175690236Y-79722091D01*
X175686256Y-79730788D01*
X175633978Y-79751649D01*
X175516735Y-79786348D01*
X175352128Y-79829983D01*
X175166000Y-79875701D01*
X174812618Y-79970912D01*
X174423131Y-80095478D01*
X174017512Y-80241486D01*
X173615736Y-80401023D01*
X173237776Y-80566175D01*
X172903606Y-80729028D01*
X172644341Y-80874747D01*
X172512375Y-80956306D01*
X172383025Y-80777070D01*
X172256925Y-80621972D01*
X172083830Y-80435528D01*
X171884094Y-80237700D01*
X171678069Y-80048449D01*
X171486109Y-79887739D01*
X171440667Y-79852831D01*
X171153937Y-79663828D01*
X170816574Y-79483850D01*
X170462209Y-79330166D01*
X170328356Y-79281662D01*
X169836997Y-79157401D01*
X169316054Y-79105725D01*
X168777663Y-79125543D01*
X168233957Y-79215764D01*
X167697071Y-79375298D01*
X167271828Y-79556386D01*
X166921473Y-79748007D01*
X166651448Y-79942988D01*
X166457431Y-80146242D01*
X166335099Y-80362682D01*
X166280131Y-80597222D01*
X166276000Y-80688325D01*
X166315875Y-81002118D01*
X166432104Y-81283903D01*
X166619596Y-81524800D01*
X166861200Y-81708935D01*
X166999620Y-81778710D01*
X167134378Y-81814126D01*
X167306176Y-81825146D01*
X167336681Y-81825310D01*
X167466041Y-81821777D01*
X167577062Y-81806389D01*
X167692137Y-81772262D01*
X167833664Y-81712513D01*
X168024037Y-81620259D01*
X168056347Y-81604115D01*
X168252979Y-81510301D01*
X168442635Y-81427897D01*
X168601084Y-81366999D01*
X168689000Y-81340567D01*
X168952926Y-81303453D01*
X169235217Y-81299128D01*
X169502738Y-81326301D01*
X169713995Y-81380479D01*
X169906430Y-81473967D01*
X170122744Y-81612135D01*
X170337071Y-81775372D01*
X170523543Y-81944070D01*
X170650643Y-82090559D01*
X170779154Y-82270952D01*
X170697160Y-82371874D01*
X170638739Y-82442418D01*
X170539141Y-82561289D01*
X170411989Y-82712275D01*
X170270908Y-82879164D01*
X170261745Y-82889982D01*
X169652615Y-83669124D01*
X169120160Y-84479038D01*
X168662956Y-85322981D01*
X168279581Y-86204208D01*
X167968611Y-87125975D01*
X167728625Y-88091538D01*
X167563458Y-89064500D01*
X167530317Y-89385938D01*
X167506699Y-89770800D01*
X167492619Y-90198378D01*
X167488092Y-90647965D01*
X167493131Y-91098854D01*
X167507750Y-91530336D01*
X167531966Y-91921705D01*
X167561267Y-92216831D01*
X167727871Y-93270241D01*
X167962232Y-94278639D01*
X168266959Y-95251092D01*
X168644662Y-96196666D01*
X168810207Y-96555719D01*
X169058124Y-97073990D01*
X168939146Y-97400333D01*
X168731802Y-97895760D01*
X168464003Y-98417710D01*
X168146669Y-98947161D01*
X167790719Y-99465093D01*
X167636697Y-99669000D01*
X167459951Y-99881903D01*
X167231373Y-100135077D01*
X166964616Y-100415124D01*
X166673330Y-100708646D01*
X166371168Y-101002245D01*
X166071782Y-101282523D01*
X165788823Y-101536083D01*
X165535944Y-101749525D01*
X165436787Y-101828000D01*
X165235443Y-101980223D01*
X165003446Y-102150738D01*
X164753809Y-102330465D01*
X164499545Y-102510325D01*
X164253665Y-102681238D01*
X164029181Y-102834125D01*
X163839107Y-102959907D01*
X163696453Y-103049504D01*
X163640750Y-103081217D01*
X163555931Y-103113790D01*
X163524334Y-103097932D01*
X163524334Y-103097878D01*
X163532319Y-103041225D01*
X163554098Y-102919216D01*
X163586408Y-102749426D01*
X163625984Y-102549429D01*
X163628715Y-102535874D01*
X163695371Y-102196126D01*
X163749440Y-101894154D01*
X163792195Y-101614830D01*
X163824910Y-101343029D01*
X163848856Y-101063623D01*
X163865307Y-100761487D01*
X163875536Y-100421492D01*
X163880816Y-100028514D01*
X163882419Y-99567424D01*
X163882427Y-99520834D01*
X163881116Y-99059527D01*
X163876934Y-98670074D01*
X163869424Y-98339696D01*
X163858129Y-98055615D01*
X163842593Y-97805052D01*
X163822359Y-97575227D01*
X163808302Y-97446500D01*
X163741339Y-96898280D01*
X163671527Y-96383452D01*
X163595805Y-95884355D01*
X163511108Y-95383327D01*
X163414374Y-94862707D01*
X163302541Y-94304831D01*
X163172545Y-93692039D01*
X163098625Y-93354307D01*
X162939147Y-92618120D01*
X162801832Y-91951414D01*
X162685211Y-91342368D01*
X162587815Y-90779159D01*
X162508176Y-90249968D01*
X162444825Y-89742972D01*
X162396292Y-89246351D01*
X162361109Y-88748283D01*
X162337807Y-88236947D01*
X162324917Y-87700522D01*
X162320971Y-87127187D01*
X162320983Y-87096000D01*
X162330966Y-86294800D01*
X162360949Y-85559665D01*
X162412767Y-84873969D01*
X162488256Y-84221081D01*
X162589249Y-83584374D01*
X162717583Y-82947218D01*
X162832517Y-82460500D01*
X163074095Y-81613595D01*
X163367588Y-80792719D01*
X163708300Y-80006797D01*
X164091533Y-79264751D01*
X164512590Y-78575503D01*
X164966775Y-77947978D01*
X165449391Y-77391098D01*
X165561266Y-77276599D01*
X166045282Y-76848918D01*
X166589962Y-76468913D01*
X167181596Y-76143801D01*
X167806472Y-75880800D01*
X168450882Y-75687125D01*
X168674638Y-75637822D01*
X169033270Y-75586698D01*
X169442269Y-75562216D01*
X169871732Y-75564098D01*
G37*
D11*
X173750000Y-91900000D03*
X173750000Y-94840000D03*
D12*
X211300000Y-68150000D03*
X208360000Y-68150000D03*
G36*
X200295840Y-69266051D02*
G01*
X204625968Y-71766051D01*
X203863968Y-73085873D01*
X199533840Y-70585873D01*
X200295840Y-69266051D01*
G37*
G36*
X198825840Y-71812166D02*
G01*
X203155968Y-74312166D01*
X202393968Y-75631988D01*
X198063840Y-73131988D01*
X198825840Y-71812166D01*
G37*
G36*
X174937774Y-83138824D02*
G01*
X178473308Y-86674358D01*
X177395678Y-87751988D01*
X173860144Y-84216454D01*
X174937774Y-83138824D01*
G37*
G36*
X172858880Y-85217718D02*
G01*
X176394414Y-88753252D01*
X175316784Y-89830882D01*
X171781250Y-86295348D01*
X172858880Y-85217718D01*
G37*
D13*
X179983500Y-93853000D03*
X209658500Y-93853000D03*
D14*
X205210000Y-106980000D03*
X202710000Y-106980000D03*
X200210000Y-106980000D03*
X205210000Y-113730000D03*
X202710000Y-113730000D03*
X200210000Y-113730000D03*
M02*
