%TF.GenerationSoftware,KiCad,Pcbnew,7.0.2.1-36-g582732918d-dirty-deb11*%
%TF.CreationDate,2024-01-19T22:58:33+00:00*%
%TF.ProjectId,unicorn_simple,756e6963-6f72-46e5-9f73-696d706c652e,rev?*%
%TF.SameCoordinates,Original*%
%TF.FileFunction,Drillmap*%
%TF.FilePolarity,Positive*%
%FSLAX45Y45*%
G04 Gerber Fmt 4.5, Leading zero omitted, Abs format (unit mm)*
G04 Created by KiCad (PCBNEW 7.0.2.1-36-g582732918d-dirty-deb11) date 2024-01-19 22:58:33*
%MOMM*%
%LPD*%
G01*
G04 APERTURE LIST*
%ADD10C,0.200000*%
%ADD11C,0.040000*%
G04 APERTURE END LIST*
D10*
X19724778Y-11620392D02*
G75*
G03*
X19774778Y-11670392I50002J2D01*
G01*
X20758914Y-11670394D02*
G75*
G03*
X20808914Y-11620392I-4J50004D01*
G01*
X22174352Y-8538625D02*
X22239758Y-8516422D01*
X22175106Y-5221161D02*
X22337419Y-4997113D01*
X16866930Y-10264464D02*
X16934502Y-10191719D01*
X22381705Y-4570536D02*
X22363209Y-4565844D01*
X15876403Y-10625861D02*
X15880997Y-10648042D01*
X18523764Y-8124750D02*
X18440683Y-8084927D01*
X17701564Y-11670392D02*
X18665411Y-11670392D01*
X21817877Y-6206892D02*
X21842311Y-6180084D01*
X16110698Y-10044806D02*
X16105613Y-10103661D01*
X19220505Y-7979062D02*
X19220395Y-8008047D01*
X16216610Y-7716059D02*
X16182389Y-7772267D01*
X17648184Y-7624370D02*
X17601328Y-7573598D01*
X19151194Y-8195647D02*
X19132764Y-8217773D01*
X22218517Y-4610798D02*
X22170174Y-4642532D01*
X21372458Y-8993483D02*
X21376549Y-8894816D01*
X21937030Y-4817602D02*
X21017416Y-5491987D01*
X20149580Y-5307195D02*
X20108575Y-5297096D01*
X15965973Y-9001784D02*
X15978633Y-9101677D01*
X22123667Y-4677628D02*
X22032383Y-4751100D01*
X17257683Y-10207283D02*
X17331281Y-10257180D01*
X22691641Y-8098937D02*
X22712302Y-8045289D01*
X21741391Y-5828586D02*
X21745186Y-5811611D01*
X22750408Y-7821278D02*
X22747706Y-7764983D01*
X19426830Y-5692797D02*
X19385245Y-5725577D01*
X18979716Y-6648636D02*
X18985206Y-6742600D01*
X16992427Y-7296934D02*
X16925992Y-7297022D01*
X22492906Y-4768872D02*
X22497150Y-4749815D01*
X18985633Y-6458400D02*
X18981772Y-6505978D01*
X16795530Y-7313548D02*
X16732005Y-7329506D01*
X19215649Y-7906055D02*
X19220505Y-7979062D01*
X19018030Y-6978784D02*
X19032456Y-7050316D01*
X21938550Y-6026894D02*
X21939644Y-6006266D01*
X16795147Y-10333108D02*
X16866930Y-10264464D01*
X20700195Y-5359733D02*
X20651359Y-5351987D01*
X18991244Y-6410975D02*
X18985633Y-6458400D01*
X18721197Y-8221930D02*
X18687849Y-8207700D01*
X20932880Y-5439184D02*
X20888441Y-5417503D01*
X20808914Y-11620392D02*
X20808488Y-10082530D01*
X17026934Y-10074753D02*
X17055131Y-10033617D01*
X17331281Y-10257180D02*
X17407647Y-10302702D01*
X19712834Y-5484897D02*
X19695936Y-5524884D01*
X16097355Y-10162155D02*
X16085654Y-10220200D01*
X16129063Y-7875823D02*
X16107414Y-7921444D01*
X15949516Y-8700205D02*
X15951165Y-8800819D01*
X16719623Y-10397770D02*
X16795147Y-10333108D01*
X18050149Y-7953753D02*
X18004397Y-7946808D01*
X22479573Y-8379605D02*
X22532533Y-8332552D01*
X22706789Y-7601926D02*
X22681469Y-7550892D01*
X18995170Y-6834650D02*
X19005484Y-6906914D01*
X17651564Y-10410655D02*
X17651564Y-11620392D01*
X22039142Y-8569830D02*
X22107370Y-8556377D01*
X21865258Y-6152128D02*
X21886542Y-6122925D01*
X18356574Y-8047695D02*
X18271163Y-8014150D01*
X19598866Y-10477417D02*
X19724778Y-10471325D01*
X20796084Y-5383044D02*
X20748495Y-5370049D01*
X17062230Y-7300653D02*
X16992427Y-7296934D01*
X16070238Y-10277731D02*
X16050837Y-10334672D01*
X17324478Y-7374350D02*
X17261806Y-7347783D01*
X16182389Y-7772267D02*
X16152283Y-7830739D01*
X22649958Y-7502209D02*
X22598027Y-7441998D01*
X17187005Y-10153241D02*
X17257683Y-10207283D01*
X21168113Y-9666631D02*
X21206427Y-9597703D01*
X16551103Y-7405423D02*
X16494841Y-7439286D01*
X21620564Y-8570103D02*
X21689875Y-8578788D01*
X17869374Y-7928083D02*
X17848964Y-7922559D01*
X21867686Y-5877291D02*
X21851509Y-5866298D01*
X21531172Y-6432992D02*
X21650030Y-6349036D01*
X19132764Y-8217773D02*
X19112519Y-8238095D01*
X21358447Y-8541578D02*
X21360777Y-8532905D01*
X19008208Y-6317044D02*
X18998736Y-6363823D01*
X19306222Y-5795642D02*
X19269089Y-5832994D01*
X15876172Y-10580777D02*
X15874731Y-10603319D01*
X20066608Y-5292070D02*
X20024214Y-5291956D01*
X21882714Y-5889519D02*
X21867686Y-5877291D01*
X20503277Y-5343090D02*
X20453949Y-5344545D01*
X15978344Y-10442800D02*
X15932238Y-10489219D01*
X16296436Y-7611344D02*
X16254706Y-7662334D01*
X22324567Y-4564222D02*
X22296589Y-4573222D01*
X20808488Y-10082530D02*
X20868819Y-10031463D01*
X22431973Y-4597709D02*
X22416256Y-4586670D01*
X15940954Y-10740923D02*
X15958984Y-10753381D01*
X21322255Y-9305016D02*
X21341253Y-9228475D01*
X22494131Y-4692806D02*
X22488422Y-4674531D01*
X22170174Y-4642532D02*
X22123667Y-4677628D01*
X18184166Y-7985417D02*
X18140000Y-7973200D01*
X22497598Y-4711580D02*
X22494131Y-4692806D01*
X20981005Y-9920294D02*
X21032619Y-9860531D01*
X21779300Y-5835498D02*
X21741391Y-5828586D01*
X21927525Y-5949970D02*
X21919005Y-5933203D01*
X21905967Y-6092387D02*
X21923369Y-6060406D01*
X18841827Y-10450216D02*
X18968177Y-10462138D01*
X18687849Y-8207700D02*
X18523764Y-8124750D01*
X21765245Y-6257456D02*
X21817877Y-6206892D01*
X21689875Y-8578788D02*
X21759777Y-8584202D01*
X21939644Y-6006266D02*
X21938036Y-5986534D01*
X20975919Y-5463976D02*
X20932880Y-5439184D01*
X16226768Y-10704939D02*
X16277212Y-10679105D01*
X20356397Y-5353436D02*
X20308491Y-5360656D01*
X21361061Y-8567577D02*
X21358458Y-8553041D01*
X21847003Y-5666809D02*
X22010213Y-5443549D01*
X17913922Y-7933978D02*
X17869374Y-7928083D01*
X17407647Y-10302702D02*
X17486594Y-10343608D01*
X20226536Y-5343274D02*
X20189075Y-5322534D01*
X19207839Y-7833539D02*
X19215649Y-7906055D01*
X17443052Y-7441791D02*
X17384952Y-7405806D01*
X19083173Y-7263575D02*
X19119497Y-7405259D01*
X16035929Y-8108639D02*
X16008813Y-8204659D01*
X16934502Y-10191719D02*
X16997392Y-10114806D01*
X16058345Y-9512008D02*
X16080189Y-9629411D01*
X16112881Y-9985678D02*
X16110698Y-10044806D01*
X21435239Y-8530072D02*
X21484939Y-8543623D01*
X21379447Y-8520808D02*
X21388777Y-8520469D01*
X21886542Y-6122925D02*
X21905967Y-6092387D01*
X18979574Y-6553622D02*
X18979716Y-6648636D01*
X19761025Y-5414905D02*
X19734709Y-5448183D01*
X22739689Y-7709387D02*
X22726116Y-7654897D01*
X22427336Y-7275814D02*
X22309123Y-7169217D01*
X15999522Y-10769295D02*
X16021645Y-10772030D01*
X20552725Y-5343774D02*
X20503277Y-5343090D01*
X21919005Y-5933203D02*
X21908559Y-5917519D01*
X19472877Y-10480403D02*
X19598866Y-10477417D01*
X16640841Y-10458528D02*
X16719623Y-10397770D01*
X16376433Y-10623695D02*
X16475357Y-10568734D01*
X15994464Y-9200891D02*
X16013215Y-9299175D01*
X22638506Y-8200536D02*
X22666977Y-8150825D01*
X21933934Y-5967755D02*
X21927525Y-5949970D01*
X20842788Y-5398826D02*
X20796084Y-5383044D01*
X15932238Y-10489219D02*
X15909875Y-10512680D01*
X19184805Y-7689744D02*
X19197427Y-7761461D01*
X21900127Y-8584573D02*
X21969952Y-8579181D01*
X19791245Y-5385229D02*
X19761025Y-5414905D01*
X18958497Y-8310698D02*
X18922217Y-8308019D01*
X16925992Y-7297022D02*
X16860280Y-7302644D01*
X18095331Y-7962591D02*
X18050149Y-7953753D01*
X21816531Y-5848175D02*
X21779300Y-5835498D01*
X16609546Y-7375684D02*
X16551103Y-7405423D01*
X19513400Y-5631517D02*
X19469595Y-5661461D01*
X15952037Y-8599788D02*
X15949516Y-8700205D01*
X18887206Y-8299903D02*
X18853169Y-8287598D01*
X22446433Y-4610459D02*
X22431973Y-4597709D01*
X19212323Y-8065414D02*
X19204580Y-8093381D01*
X19182147Y-8146855D02*
X19167688Y-8171945D01*
X17601328Y-7573598D02*
X17551409Y-7526031D01*
X19233728Y-5871975D02*
X19200314Y-5912597D01*
X17567958Y-10379669D02*
X17651564Y-10410655D01*
X22747706Y-7764983D02*
X22739689Y-7709387D01*
X21366475Y-9072528D02*
X21372458Y-8993483D01*
X21366475Y-8585459D02*
X21361061Y-8567577D01*
X18985206Y-6742600D02*
X18995170Y-6834650D01*
X22324567Y-4564222D02*
X22324567Y-4564222D01*
X21376549Y-8894816D02*
X21376570Y-8791522D01*
X19385245Y-5725577D02*
X19344984Y-5759844D01*
X22399445Y-4577545D02*
X22381705Y-4570536D01*
X16105613Y-10103661D02*
X16097355Y-10162155D01*
X21818161Y-5708087D02*
X21833977Y-5686967D01*
X18819820Y-8272395D02*
X18754119Y-8238292D01*
X18140000Y-7973200D02*
X18095331Y-7962591D01*
X21032619Y-9860531D02*
X21081094Y-9798220D01*
X22726116Y-7654897D02*
X22706789Y-7601926D01*
X21745186Y-5811611D02*
X21754406Y-5792766D01*
X16112431Y-9926342D02*
X16112881Y-9985678D01*
X16341557Y-7563306D02*
X16296436Y-7611344D01*
X21388777Y-8520469D02*
X21410652Y-8523652D01*
X19048359Y-7121584D02*
X19083173Y-7263575D01*
X20108575Y-5297096D02*
X20066608Y-5292070D01*
X15951165Y-8800819D02*
X15956734Y-8901422D01*
X20602141Y-5346703D02*
X20552725Y-5343774D01*
X18987525Y-8305514D02*
X18958497Y-8310698D01*
X21341253Y-9228475D02*
X21356030Y-9150917D01*
X17498592Y-7481975D02*
X17443052Y-7441791D01*
X15909875Y-10512680D02*
X15889175Y-10537125D01*
X16000285Y-10418606D02*
X15978344Y-10442800D01*
X19049563Y-6180030D02*
X19033517Y-6225037D01*
X21783653Y-5751334D02*
X21818161Y-5708087D01*
X22194881Y-7058639D02*
X21862545Y-6746341D01*
X19197427Y-7761461D02*
X19207839Y-7833539D01*
X21650030Y-6349036D02*
X21708808Y-6304586D01*
X19469595Y-5661461D02*
X19426830Y-5692797D01*
X21923369Y-6060406D02*
X21938550Y-6026894D01*
X19940324Y-5305805D02*
X19899899Y-5319441D01*
X18440683Y-8084927D02*
X18356574Y-8047695D01*
X16109622Y-9866886D02*
X16112431Y-9926342D01*
X20926372Y-9977322D02*
X20981005Y-9920294D01*
X16085654Y-10220200D02*
X16070238Y-10277731D01*
X17732009Y-7734128D02*
X17691803Y-7677986D01*
X20453949Y-5344545D02*
X20404938Y-5348029D01*
X22666506Y-7526228D02*
X22649958Y-7502209D01*
X22459470Y-4624718D02*
X22446433Y-4610459D01*
X19005484Y-6906914D02*
X19018030Y-6978784D01*
X15910351Y-10708811D02*
X15924679Y-10725950D01*
X16441000Y-7477053D02*
X16389825Y-7518462D01*
X16475357Y-10568734D02*
X16559260Y-10515491D01*
X21851509Y-5866298D02*
X21816531Y-5848175D01*
X21896397Y-5902939D02*
X21882714Y-5889519D01*
X21985691Y-4786073D02*
X21937030Y-4817602D01*
X22416256Y-4586670D02*
X22399445Y-4577545D01*
X22571066Y-8291809D02*
X22606470Y-8247676D01*
X22269672Y-4584127D02*
X22243684Y-4596723D01*
X19112519Y-8238095D02*
X19090545Y-8256416D01*
X19774778Y-11670392D02*
X20758914Y-11670392D01*
X19724778Y-10471325D02*
X19724778Y-11620392D01*
X18271163Y-8014150D02*
X18184166Y-7985417D01*
X17130502Y-7310595D02*
X17062230Y-7300653D01*
X16037433Y-10365155D02*
X16020282Y-10392936D01*
X21767684Y-5772520D02*
X21783653Y-5751334D01*
X22416289Y-4883676D02*
X22492906Y-4768872D01*
X19603503Y-5575660D02*
X19513400Y-5631517D01*
X17551409Y-7526031D02*
X17498592Y-7481975D01*
X21754406Y-5792766D02*
X21767684Y-5772520D01*
X19090545Y-8256416D02*
X19066964Y-8272526D01*
X22747991Y-7877869D02*
X22750408Y-7821278D01*
X22337419Y-4997113D02*
X22416289Y-4883676D01*
X16494841Y-7439286D02*
X16441000Y-7477053D01*
X18853169Y-8287598D02*
X18819820Y-8272395D01*
X19139884Y-5998992D02*
X19113175Y-6044842D01*
X16008813Y-8204659D02*
X15987116Y-8302014D01*
X21938036Y-5986534D02*
X21933934Y-5967755D01*
X21862545Y-6746341D02*
X21531172Y-6432992D01*
X16389825Y-7518462D02*
X16341557Y-7563306D01*
X16098003Y-9747919D02*
X16104722Y-9807386D01*
X19041863Y-8286220D02*
X19015350Y-8297289D01*
X19019769Y-6270745D02*
X19008208Y-6317044D01*
X22712302Y-8045289D02*
X22728719Y-7990284D01*
X22344102Y-4563672D02*
X22324567Y-4564222D01*
X21484939Y-8543623D02*
X21552150Y-8558323D01*
X19220669Y-10477231D02*
X19346811Y-10480327D01*
X16997392Y-10114806D02*
X17026934Y-10074753D01*
X20404938Y-5348029D02*
X20356397Y-5353436D01*
X15987116Y-8302014D02*
X15970587Y-8400473D01*
X19269089Y-5832994D02*
X19233728Y-5871975D01*
X19899899Y-5319441D02*
X19861224Y-5337333D01*
X21708808Y-6304586D02*
X21765245Y-6257456D01*
X19094450Y-10471150D02*
X19220669Y-10477231D01*
X20261394Y-5369581D02*
X20226536Y-5343274D01*
X18968177Y-10462138D02*
X19094450Y-10471150D01*
X19695936Y-5524884D02*
X19603503Y-5575660D01*
X17651558Y-11620392D02*
G75*
G03*
X17701564Y-11670392I50002J2D01*
G01*
X16559260Y-10515491D02*
X16640841Y-10458528D01*
X20748495Y-5370049D02*
X20700195Y-5359733D01*
X15880997Y-10648042D02*
X15888315Y-10669502D01*
X17960231Y-7938145D02*
X17913922Y-7933978D01*
X22470922Y-4640285D02*
X22459470Y-4624718D01*
X18922217Y-8308019D02*
X18887206Y-8299903D01*
X21908559Y-5917519D02*
X21896397Y-5902939D01*
X19217639Y-8036900D02*
X19212323Y-8065414D01*
X18665411Y-11670391D02*
G75*
G03*
X18715411Y-11620392I-1J50001D01*
G01*
X18715411Y-10435439D02*
X18841827Y-10450216D01*
X19167688Y-8171945D02*
X19151194Y-8195647D01*
X16020282Y-10392936D02*
X16000285Y-10418606D01*
X16277212Y-10679105D02*
X16376433Y-10623695D01*
X16175380Y-10728455D02*
X16226768Y-10704939D01*
X21356030Y-9150917D02*
X21366475Y-9072528D01*
X17982817Y-7941525D02*
X17960231Y-7938145D01*
X19344984Y-5759844D02*
X19306222Y-5795642D01*
X16152283Y-7830739D02*
X16129063Y-7875823D01*
X19113175Y-6044842D02*
X19088992Y-6092508D01*
X22010213Y-5443549D02*
X22175106Y-5221161D01*
X15874731Y-10603319D02*
X15876403Y-10625861D01*
X17119433Y-10095272D02*
X17187005Y-10153241D01*
X15958984Y-10753381D02*
X15978572Y-10762952D01*
X22532533Y-8332552D02*
X22571066Y-8291809D01*
X16669923Y-7350298D02*
X16609546Y-7375684D01*
X22363209Y-4565844D02*
X22344102Y-4563672D01*
X21126299Y-9733536D02*
X21168113Y-9666631D01*
X20024214Y-5291956D02*
X19981941Y-5296589D01*
X19200314Y-5912597D02*
X19168978Y-5954925D01*
X22107370Y-8556377D02*
X22174352Y-8538625D01*
X17830458Y-7914269D02*
X17801506Y-7852603D01*
X16034638Y-9396333D02*
X16058345Y-9512008D01*
X21365206Y-8526747D02*
X21371517Y-8522809D01*
X15889175Y-10537125D02*
X15880922Y-10558595D01*
X20651359Y-5351987D02*
X20602141Y-5346703D01*
X15958977Y-8499808D02*
X15952037Y-8599788D01*
X21373027Y-8687200D02*
X21366475Y-8585459D01*
X21358458Y-8553041D02*
X21358447Y-8541578D01*
X18715411Y-11620392D02*
X18715411Y-10435439D01*
X22606470Y-8247676D02*
X22638506Y-8200536D01*
X17055131Y-10033617D02*
X17119433Y-10095272D01*
X15978572Y-10762952D02*
X15999522Y-10769295D01*
X17197089Y-7326411D02*
X17130502Y-7310595D01*
X15888315Y-10669502D02*
X15898165Y-10689878D01*
X22480623Y-4656957D02*
X22470922Y-4640285D01*
X22740695Y-7934339D02*
X22747991Y-7877869D01*
X21299155Y-9380386D02*
X21322255Y-9305016D01*
X20308491Y-5360656D02*
X20261394Y-5369581D01*
X22239758Y-8516422D02*
X22303294Y-8489592D01*
X22498659Y-4730650D02*
X22497598Y-4711580D01*
X19032456Y-7050316D02*
X19048359Y-7121584D01*
X22309123Y-7169217D02*
X22251111Y-7114814D01*
X21241120Y-9526894D02*
X21272063Y-9454400D01*
X18004397Y-7946808D02*
X17982817Y-7941525D01*
X19824824Y-5359317D02*
X19791245Y-5385229D01*
X17691803Y-7677986D02*
X17648184Y-7624370D01*
X18981772Y-6505978D02*
X18979574Y-6553622D01*
X22243684Y-4596723D02*
X22218517Y-4610798D01*
X15956734Y-8901422D02*
X15965973Y-9001784D01*
X16021645Y-10772030D02*
X16044741Y-10770805D01*
X19346811Y-10480327D02*
X19472877Y-10480403D01*
X17801506Y-7852603D02*
X17768639Y-7792447D01*
X19194484Y-8120605D02*
X19182147Y-8146855D01*
X19981941Y-5296589D02*
X19940324Y-5305805D01*
X16122761Y-10748842D02*
X16175380Y-10728455D01*
X21842311Y-6180084D02*
X21865258Y-6152128D01*
X19220395Y-8008047D02*
X19217639Y-8036900D01*
X16050837Y-10334672D02*
X16037433Y-10365155D01*
X22598027Y-7441998D02*
X22543077Y-7384719D01*
X17768639Y-7792447D02*
X17732009Y-7734128D01*
X22666977Y-8150825D02*
X22691641Y-8098937D01*
X16107414Y-7921444D02*
X16068713Y-8014150D01*
X18754119Y-8238292D02*
X18721197Y-8221930D01*
X21206427Y-9597703D02*
X21241120Y-9526894D01*
X17486594Y-10343608D02*
X17567958Y-10379669D01*
X22485917Y-7329583D02*
X22427336Y-7275814D01*
X18998736Y-6363823D02*
X18991244Y-6410975D01*
X22032383Y-4751100D02*
X21985691Y-4786073D01*
X22543077Y-7384719D02*
X22485917Y-7329583D01*
X19066964Y-8272526D02*
X19041863Y-8286220D01*
X16013215Y-9299175D02*
X16034638Y-9396333D01*
X21376570Y-8791522D02*
X21373027Y-8687200D01*
X15978633Y-9101677D02*
X15994464Y-9200891D01*
X16080189Y-9629411D02*
X16098003Y-9747919D01*
X20888441Y-5417503D02*
X20842788Y-5398826D01*
X21272063Y-9454400D02*
X21299155Y-9380386D01*
X15924679Y-10725950D02*
X15940954Y-10740923D01*
X19154366Y-7547152D02*
X19184805Y-7689744D01*
X22423508Y-8421353D02*
X22479573Y-8379605D01*
X16068713Y-8014150D02*
X16035929Y-8108639D01*
X21552150Y-8558323D02*
X21620564Y-8570103D01*
X21360777Y-8532905D02*
X21365206Y-8526747D01*
X19015350Y-8297289D02*
X18987525Y-8305514D01*
X16104722Y-9807386D02*
X16109622Y-9866886D01*
X21017416Y-5491987D02*
X20975919Y-5463976D01*
X20868819Y-10031463D02*
X20926372Y-9977322D01*
X16732005Y-7329506D02*
X16669923Y-7350298D01*
X22681469Y-7550892D02*
X22666506Y-7526228D01*
X16254706Y-7662334D02*
X16216610Y-7716059D01*
X21371517Y-8522809D02*
X21379447Y-8520808D01*
X19119497Y-7405259D02*
X19154366Y-7547152D01*
X22728719Y-7990284D02*
X22740695Y-7934339D01*
X15970587Y-8400473D02*
X15958977Y-8499808D01*
X19204580Y-8093381D02*
X19194484Y-8120605D01*
X22364653Y-8457961D02*
X22423508Y-8421353D01*
X21410652Y-8523652D02*
X21435239Y-8530072D01*
X21833977Y-5686967D02*
X21847003Y-5666809D01*
X16860280Y-7302644D02*
X16795530Y-7313548D01*
X22296589Y-4573222D02*
X22269672Y-4584127D01*
X20189075Y-5322534D02*
X20149580Y-5307195D01*
X21969952Y-8579181D02*
X22039142Y-8569830D01*
X19068025Y-6135809D02*
X19049563Y-6180030D01*
X19088992Y-6092508D02*
X19068025Y-6135809D01*
X22488422Y-4674531D02*
X22480623Y-4656957D01*
X22497150Y-4749815D02*
X22498659Y-4730650D01*
X19734709Y-5448183D02*
X19712834Y-5484897D01*
X21829963Y-8586192D02*
X21900127Y-8584573D01*
X19033517Y-6225037D02*
X19019769Y-6270745D01*
X22251111Y-7114814D02*
X22194881Y-7058639D01*
X16044741Y-10770805D02*
X16068619Y-10765270D01*
X22303294Y-8489592D02*
X22364653Y-8457961D01*
X19168978Y-5954925D02*
X19139884Y-5998992D01*
X15880922Y-10558595D02*
X15876172Y-10580777D01*
X15898165Y-10689878D02*
X15910351Y-10708811D01*
X16068619Y-10765270D02*
X16122761Y-10748842D01*
X21081094Y-9798220D02*
X21126299Y-9733536D01*
X19861224Y-5337333D02*
X19824824Y-5359317D01*
X17848964Y-7922559D02*
X17830458Y-7914269D01*
X17261806Y-7347783D02*
X17197089Y-7326411D01*
X17384952Y-7405806D02*
X17324478Y-7374350D01*
X21759777Y-8584202D02*
X21829963Y-8586192D01*
D11*
X18301000Y-9299000D02*
X18341000Y-9339000D01*
X18341000Y-9299000D02*
X18301000Y-9339000D01*
X18301000Y-9733000D02*
X18341000Y-9773000D01*
X18341000Y-9733000D02*
X18301000Y-9773000D01*
X18790000Y-9961000D02*
X18830000Y-10001000D01*
X18830000Y-9961000D02*
X18790000Y-10001000D01*
X18937000Y-8688000D02*
X18977000Y-8728000D01*
X18977000Y-8688000D02*
X18937000Y-8728000D01*
X19210000Y-9962000D02*
X19250000Y-10002000D01*
X19250000Y-9962000D02*
X19210000Y-10002000D01*
X19370000Y-8688000D02*
X19410000Y-8728000D01*
X19410000Y-8688000D02*
X19370000Y-8728000D01*
X19576000Y-9196000D02*
X19616000Y-9236000D01*
X19616000Y-9196000D02*
X19576000Y-9236000D01*
X19576000Y-9614000D02*
X19616000Y-9654000D01*
X19616000Y-9614000D02*
X19576000Y-9654000D01*
D10*
X16112350Y-11992916D02*
X16112350Y-11792916D01*
X16112350Y-11792916D02*
X16159969Y-11792916D01*
X16159969Y-11792916D02*
X16188541Y-11802440D01*
X16188541Y-11802440D02*
X16207588Y-11821487D01*
X16207588Y-11821487D02*
X16217112Y-11840535D01*
X16217112Y-11840535D02*
X16226636Y-11878630D01*
X16226636Y-11878630D02*
X16226636Y-11907202D01*
X16226636Y-11907202D02*
X16217112Y-11945297D01*
X16217112Y-11945297D02*
X16207588Y-11964344D01*
X16207588Y-11964344D02*
X16188541Y-11983392D01*
X16188541Y-11983392D02*
X16159969Y-11992916D01*
X16159969Y-11992916D02*
X16112350Y-11992916D01*
X16312350Y-11992916D02*
X16312350Y-11859583D01*
X16312350Y-11897678D02*
X16321874Y-11878630D01*
X16321874Y-11878630D02*
X16331398Y-11869106D01*
X16331398Y-11869106D02*
X16350445Y-11859583D01*
X16350445Y-11859583D02*
X16369493Y-11859583D01*
X16436160Y-11992916D02*
X16436160Y-11859583D01*
X16436160Y-11792916D02*
X16426636Y-11802440D01*
X16426636Y-11802440D02*
X16436160Y-11811964D01*
X16436160Y-11811964D02*
X16445683Y-11802440D01*
X16445683Y-11802440D02*
X16436160Y-11792916D01*
X16436160Y-11792916D02*
X16436160Y-11811964D01*
X16559969Y-11992916D02*
X16540921Y-11983392D01*
X16540921Y-11983392D02*
X16531398Y-11964344D01*
X16531398Y-11964344D02*
X16531398Y-11792916D01*
X16664731Y-11992916D02*
X16645683Y-11983392D01*
X16645683Y-11983392D02*
X16636160Y-11964344D01*
X16636160Y-11964344D02*
X16636160Y-11792916D01*
X16893303Y-11992916D02*
X16893303Y-11792916D01*
X16893303Y-11792916D02*
X16959969Y-11935773D01*
X16959969Y-11935773D02*
X17026636Y-11792916D01*
X17026636Y-11792916D02*
X17026636Y-11992916D01*
X17207588Y-11992916D02*
X17207588Y-11888154D01*
X17207588Y-11888154D02*
X17198064Y-11869106D01*
X17198064Y-11869106D02*
X17179017Y-11859583D01*
X17179017Y-11859583D02*
X17140922Y-11859583D01*
X17140922Y-11859583D02*
X17121874Y-11869106D01*
X17207588Y-11983392D02*
X17188541Y-11992916D01*
X17188541Y-11992916D02*
X17140922Y-11992916D01*
X17140922Y-11992916D02*
X17121874Y-11983392D01*
X17121874Y-11983392D02*
X17112350Y-11964344D01*
X17112350Y-11964344D02*
X17112350Y-11945297D01*
X17112350Y-11945297D02*
X17121874Y-11926249D01*
X17121874Y-11926249D02*
X17140922Y-11916725D01*
X17140922Y-11916725D02*
X17188541Y-11916725D01*
X17188541Y-11916725D02*
X17207588Y-11907202D01*
X17302826Y-11859583D02*
X17302826Y-12059583D01*
X17302826Y-11869106D02*
X17321874Y-11859583D01*
X17321874Y-11859583D02*
X17359969Y-11859583D01*
X17359969Y-11859583D02*
X17379017Y-11869106D01*
X17379017Y-11869106D02*
X17388541Y-11878630D01*
X17388541Y-11878630D02*
X17398064Y-11897678D01*
X17398064Y-11897678D02*
X17398064Y-11954821D01*
X17398064Y-11954821D02*
X17388541Y-11973868D01*
X17388541Y-11973868D02*
X17379017Y-11983392D01*
X17379017Y-11983392D02*
X17359969Y-11992916D01*
X17359969Y-11992916D02*
X17321874Y-11992916D01*
X17321874Y-11992916D02*
X17302826Y-11983392D01*
X17483779Y-11973868D02*
X17493303Y-11983392D01*
X17493303Y-11983392D02*
X17483779Y-11992916D01*
X17483779Y-11992916D02*
X17474255Y-11983392D01*
X17474255Y-11983392D02*
X17483779Y-11973868D01*
X17483779Y-11973868D02*
X17483779Y-11992916D01*
X17483779Y-11869106D02*
X17493303Y-11878630D01*
X17493303Y-11878630D02*
X17483779Y-11888154D01*
X17483779Y-11888154D02*
X17474255Y-11878630D01*
X17474255Y-11878630D02*
X17483779Y-11869106D01*
X17483779Y-11869106D02*
X17483779Y-11888154D01*
D11*
X15824731Y-12300392D02*
X15864731Y-12340392D01*
X15864731Y-12300392D02*
X15824731Y-12340392D01*
D10*
X16150445Y-12212916D02*
X16169493Y-12212916D01*
X16169493Y-12212916D02*
X16188541Y-12222440D01*
X16188541Y-12222440D02*
X16198064Y-12231964D01*
X16198064Y-12231964D02*
X16207588Y-12251011D01*
X16207588Y-12251011D02*
X16217112Y-12289106D01*
X16217112Y-12289106D02*
X16217112Y-12336725D01*
X16217112Y-12336725D02*
X16207588Y-12374821D01*
X16207588Y-12374821D02*
X16198064Y-12393868D01*
X16198064Y-12393868D02*
X16188541Y-12403392D01*
X16188541Y-12403392D02*
X16169493Y-12412916D01*
X16169493Y-12412916D02*
X16150445Y-12412916D01*
X16150445Y-12412916D02*
X16131398Y-12403392D01*
X16131398Y-12403392D02*
X16121874Y-12393868D01*
X16121874Y-12393868D02*
X16112350Y-12374821D01*
X16112350Y-12374821D02*
X16102826Y-12336725D01*
X16102826Y-12336725D02*
X16102826Y-12289106D01*
X16102826Y-12289106D02*
X16112350Y-12251011D01*
X16112350Y-12251011D02*
X16121874Y-12231964D01*
X16121874Y-12231964D02*
X16131398Y-12222440D01*
X16131398Y-12222440D02*
X16150445Y-12212916D01*
X16302826Y-12393868D02*
X16312350Y-12403392D01*
X16312350Y-12403392D02*
X16302826Y-12412916D01*
X16302826Y-12412916D02*
X16293302Y-12403392D01*
X16293302Y-12403392D02*
X16302826Y-12393868D01*
X16302826Y-12393868D02*
X16302826Y-12412916D01*
X16483779Y-12279583D02*
X16483779Y-12412916D01*
X16436160Y-12203392D02*
X16388541Y-12346249D01*
X16388541Y-12346249D02*
X16512350Y-12346249D01*
X16626636Y-12212916D02*
X16645683Y-12212916D01*
X16645683Y-12212916D02*
X16664731Y-12222440D01*
X16664731Y-12222440D02*
X16674255Y-12231964D01*
X16674255Y-12231964D02*
X16683779Y-12251011D01*
X16683779Y-12251011D02*
X16693302Y-12289106D01*
X16693302Y-12289106D02*
X16693302Y-12336725D01*
X16693302Y-12336725D02*
X16683779Y-12374821D01*
X16683779Y-12374821D02*
X16674255Y-12393868D01*
X16674255Y-12393868D02*
X16664731Y-12403392D01*
X16664731Y-12403392D02*
X16645683Y-12412916D01*
X16645683Y-12412916D02*
X16626636Y-12412916D01*
X16626636Y-12412916D02*
X16607588Y-12403392D01*
X16607588Y-12403392D02*
X16598064Y-12393868D01*
X16598064Y-12393868D02*
X16588541Y-12374821D01*
X16588541Y-12374821D02*
X16579017Y-12336725D01*
X16579017Y-12336725D02*
X16579017Y-12289106D01*
X16579017Y-12289106D02*
X16588541Y-12251011D01*
X16588541Y-12251011D02*
X16598064Y-12231964D01*
X16598064Y-12231964D02*
X16607588Y-12222440D01*
X16607588Y-12222440D02*
X16626636Y-12212916D01*
X16817112Y-12212916D02*
X16836160Y-12212916D01*
X16836160Y-12212916D02*
X16855207Y-12222440D01*
X16855207Y-12222440D02*
X16864731Y-12231964D01*
X16864731Y-12231964D02*
X16874255Y-12251011D01*
X16874255Y-12251011D02*
X16883779Y-12289106D01*
X16883779Y-12289106D02*
X16883779Y-12336725D01*
X16883779Y-12336725D02*
X16874255Y-12374821D01*
X16874255Y-12374821D02*
X16864731Y-12393868D01*
X16864731Y-12393868D02*
X16855207Y-12403392D01*
X16855207Y-12403392D02*
X16836160Y-12412916D01*
X16836160Y-12412916D02*
X16817112Y-12412916D01*
X16817112Y-12412916D02*
X16798064Y-12403392D01*
X16798064Y-12403392D02*
X16788541Y-12393868D01*
X16788541Y-12393868D02*
X16779017Y-12374821D01*
X16779017Y-12374821D02*
X16769493Y-12336725D01*
X16769493Y-12336725D02*
X16769493Y-12289106D01*
X16769493Y-12289106D02*
X16779017Y-12251011D01*
X16779017Y-12251011D02*
X16788541Y-12231964D01*
X16788541Y-12231964D02*
X16798064Y-12222440D01*
X16798064Y-12222440D02*
X16817112Y-12212916D01*
X16969493Y-12412916D02*
X16969493Y-12279583D01*
X16969493Y-12298630D02*
X16979017Y-12289106D01*
X16979017Y-12289106D02*
X16998064Y-12279583D01*
X16998064Y-12279583D02*
X17026636Y-12279583D01*
X17026636Y-12279583D02*
X17045684Y-12289106D01*
X17045684Y-12289106D02*
X17055207Y-12308154D01*
X17055207Y-12308154D02*
X17055207Y-12412916D01*
X17055207Y-12308154D02*
X17064731Y-12289106D01*
X17064731Y-12289106D02*
X17083779Y-12279583D01*
X17083779Y-12279583D02*
X17112350Y-12279583D01*
X17112350Y-12279583D02*
X17131398Y-12289106D01*
X17131398Y-12289106D02*
X17140922Y-12308154D01*
X17140922Y-12308154D02*
X17140922Y-12412916D01*
X17236160Y-12412916D02*
X17236160Y-12279583D01*
X17236160Y-12298630D02*
X17245684Y-12289106D01*
X17245684Y-12289106D02*
X17264731Y-12279583D01*
X17264731Y-12279583D02*
X17293303Y-12279583D01*
X17293303Y-12279583D02*
X17312350Y-12289106D01*
X17312350Y-12289106D02*
X17321874Y-12308154D01*
X17321874Y-12308154D02*
X17321874Y-12412916D01*
X17321874Y-12308154D02*
X17331398Y-12289106D01*
X17331398Y-12289106D02*
X17350445Y-12279583D01*
X17350445Y-12279583D02*
X17379017Y-12279583D01*
X17379017Y-12279583D02*
X17398065Y-12289106D01*
X17398065Y-12289106D02*
X17407588Y-12308154D01*
X17407588Y-12308154D02*
X17407588Y-12412916D01*
X17798065Y-12203392D02*
X17626636Y-12460535D01*
X18055207Y-12212916D02*
X18074255Y-12212916D01*
X18074255Y-12212916D02*
X18093303Y-12222440D01*
X18093303Y-12222440D02*
X18102827Y-12231964D01*
X18102827Y-12231964D02*
X18112350Y-12251011D01*
X18112350Y-12251011D02*
X18121874Y-12289106D01*
X18121874Y-12289106D02*
X18121874Y-12336725D01*
X18121874Y-12336725D02*
X18112350Y-12374821D01*
X18112350Y-12374821D02*
X18102827Y-12393868D01*
X18102827Y-12393868D02*
X18093303Y-12403392D01*
X18093303Y-12403392D02*
X18074255Y-12412916D01*
X18074255Y-12412916D02*
X18055207Y-12412916D01*
X18055207Y-12412916D02*
X18036160Y-12403392D01*
X18036160Y-12403392D02*
X18026636Y-12393868D01*
X18026636Y-12393868D02*
X18017112Y-12374821D01*
X18017112Y-12374821D02*
X18007588Y-12336725D01*
X18007588Y-12336725D02*
X18007588Y-12289106D01*
X18007588Y-12289106D02*
X18017112Y-12251011D01*
X18017112Y-12251011D02*
X18026636Y-12231964D01*
X18026636Y-12231964D02*
X18036160Y-12222440D01*
X18036160Y-12222440D02*
X18055207Y-12212916D01*
X18207588Y-12393868D02*
X18217112Y-12403392D01*
X18217112Y-12403392D02*
X18207588Y-12412916D01*
X18207588Y-12412916D02*
X18198065Y-12403392D01*
X18198065Y-12403392D02*
X18207588Y-12393868D01*
X18207588Y-12393868D02*
X18207588Y-12412916D01*
X18340922Y-12212916D02*
X18359969Y-12212916D01*
X18359969Y-12212916D02*
X18379017Y-12222440D01*
X18379017Y-12222440D02*
X18388541Y-12231964D01*
X18388541Y-12231964D02*
X18398065Y-12251011D01*
X18398065Y-12251011D02*
X18407588Y-12289106D01*
X18407588Y-12289106D02*
X18407588Y-12336725D01*
X18407588Y-12336725D02*
X18398065Y-12374821D01*
X18398065Y-12374821D02*
X18388541Y-12393868D01*
X18388541Y-12393868D02*
X18379017Y-12403392D01*
X18379017Y-12403392D02*
X18359969Y-12412916D01*
X18359969Y-12412916D02*
X18340922Y-12412916D01*
X18340922Y-12412916D02*
X18321874Y-12403392D01*
X18321874Y-12403392D02*
X18312350Y-12393868D01*
X18312350Y-12393868D02*
X18302827Y-12374821D01*
X18302827Y-12374821D02*
X18293303Y-12336725D01*
X18293303Y-12336725D02*
X18293303Y-12289106D01*
X18293303Y-12289106D02*
X18302827Y-12251011D01*
X18302827Y-12251011D02*
X18312350Y-12231964D01*
X18312350Y-12231964D02*
X18321874Y-12222440D01*
X18321874Y-12222440D02*
X18340922Y-12212916D01*
X18598065Y-12412916D02*
X18483779Y-12412916D01*
X18540922Y-12412916D02*
X18540922Y-12212916D01*
X18540922Y-12212916D02*
X18521874Y-12241487D01*
X18521874Y-12241487D02*
X18502827Y-12260535D01*
X18502827Y-12260535D02*
X18483779Y-12270059D01*
X18779017Y-12212916D02*
X18683779Y-12212916D01*
X18683779Y-12212916D02*
X18674255Y-12308154D01*
X18674255Y-12308154D02*
X18683779Y-12298630D01*
X18683779Y-12298630D02*
X18702827Y-12289106D01*
X18702827Y-12289106D02*
X18750446Y-12289106D01*
X18750446Y-12289106D02*
X18769493Y-12298630D01*
X18769493Y-12298630D02*
X18779017Y-12308154D01*
X18779017Y-12308154D02*
X18788541Y-12327202D01*
X18788541Y-12327202D02*
X18788541Y-12374821D01*
X18788541Y-12374821D02*
X18779017Y-12393868D01*
X18779017Y-12393868D02*
X18769493Y-12403392D01*
X18769493Y-12403392D02*
X18750446Y-12412916D01*
X18750446Y-12412916D02*
X18702827Y-12412916D01*
X18702827Y-12412916D02*
X18683779Y-12403392D01*
X18683779Y-12403392D02*
X18674255Y-12393868D01*
X18855208Y-12212916D02*
X18988541Y-12212916D01*
X18988541Y-12212916D02*
X18902827Y-12412916D01*
X19055208Y-12212916D02*
X19055208Y-12251011D01*
X19131398Y-12212916D02*
X19131398Y-12251011D01*
X19426636Y-12489106D02*
X19417112Y-12479583D01*
X19417112Y-12479583D02*
X19398065Y-12451011D01*
X19398065Y-12451011D02*
X19388541Y-12431964D01*
X19388541Y-12431964D02*
X19379017Y-12403392D01*
X19379017Y-12403392D02*
X19369493Y-12355773D01*
X19369493Y-12355773D02*
X19369493Y-12317678D01*
X19369493Y-12317678D02*
X19379017Y-12270059D01*
X19379017Y-12270059D02*
X19388541Y-12241487D01*
X19388541Y-12241487D02*
X19398065Y-12222440D01*
X19398065Y-12222440D02*
X19417112Y-12193868D01*
X19417112Y-12193868D02*
X19426636Y-12184344D01*
X19531398Y-12298630D02*
X19512350Y-12289106D01*
X19512350Y-12289106D02*
X19502827Y-12279583D01*
X19502827Y-12279583D02*
X19493303Y-12260535D01*
X19493303Y-12260535D02*
X19493303Y-12251011D01*
X19493303Y-12251011D02*
X19502827Y-12231964D01*
X19502827Y-12231964D02*
X19512350Y-12222440D01*
X19512350Y-12222440D02*
X19531398Y-12212916D01*
X19531398Y-12212916D02*
X19569493Y-12212916D01*
X19569493Y-12212916D02*
X19588541Y-12222440D01*
X19588541Y-12222440D02*
X19598065Y-12231964D01*
X19598065Y-12231964D02*
X19607589Y-12251011D01*
X19607589Y-12251011D02*
X19607589Y-12260535D01*
X19607589Y-12260535D02*
X19598065Y-12279583D01*
X19598065Y-12279583D02*
X19588541Y-12289106D01*
X19588541Y-12289106D02*
X19569493Y-12298630D01*
X19569493Y-12298630D02*
X19531398Y-12298630D01*
X19531398Y-12298630D02*
X19512350Y-12308154D01*
X19512350Y-12308154D02*
X19502827Y-12317678D01*
X19502827Y-12317678D02*
X19493303Y-12336725D01*
X19493303Y-12336725D02*
X19493303Y-12374821D01*
X19493303Y-12374821D02*
X19502827Y-12393868D01*
X19502827Y-12393868D02*
X19512350Y-12403392D01*
X19512350Y-12403392D02*
X19531398Y-12412916D01*
X19531398Y-12412916D02*
X19569493Y-12412916D01*
X19569493Y-12412916D02*
X19588541Y-12403392D01*
X19588541Y-12403392D02*
X19598065Y-12393868D01*
X19598065Y-12393868D02*
X19607589Y-12374821D01*
X19607589Y-12374821D02*
X19607589Y-12336725D01*
X19607589Y-12336725D02*
X19598065Y-12317678D01*
X19598065Y-12317678D02*
X19588541Y-12308154D01*
X19588541Y-12308154D02*
X19569493Y-12298630D01*
X19845684Y-12412916D02*
X19845684Y-12212916D01*
X19931398Y-12412916D02*
X19931398Y-12308154D01*
X19931398Y-12308154D02*
X19921874Y-12289106D01*
X19921874Y-12289106D02*
X19902827Y-12279583D01*
X19902827Y-12279583D02*
X19874255Y-12279583D01*
X19874255Y-12279583D02*
X19855208Y-12289106D01*
X19855208Y-12289106D02*
X19845684Y-12298630D01*
X20055208Y-12412916D02*
X20036160Y-12403392D01*
X20036160Y-12403392D02*
X20026636Y-12393868D01*
X20026636Y-12393868D02*
X20017112Y-12374821D01*
X20017112Y-12374821D02*
X20017112Y-12317678D01*
X20017112Y-12317678D02*
X20026636Y-12298630D01*
X20026636Y-12298630D02*
X20036160Y-12289106D01*
X20036160Y-12289106D02*
X20055208Y-12279583D01*
X20055208Y-12279583D02*
X20083779Y-12279583D01*
X20083779Y-12279583D02*
X20102827Y-12289106D01*
X20102827Y-12289106D02*
X20112351Y-12298630D01*
X20112351Y-12298630D02*
X20121874Y-12317678D01*
X20121874Y-12317678D02*
X20121874Y-12374821D01*
X20121874Y-12374821D02*
X20112351Y-12393868D01*
X20112351Y-12393868D02*
X20102827Y-12403392D01*
X20102827Y-12403392D02*
X20083779Y-12412916D01*
X20083779Y-12412916D02*
X20055208Y-12412916D01*
X20236160Y-12412916D02*
X20217112Y-12403392D01*
X20217112Y-12403392D02*
X20207589Y-12384344D01*
X20207589Y-12384344D02*
X20207589Y-12212916D01*
X20388541Y-12403392D02*
X20369493Y-12412916D01*
X20369493Y-12412916D02*
X20331398Y-12412916D01*
X20331398Y-12412916D02*
X20312351Y-12403392D01*
X20312351Y-12403392D02*
X20302827Y-12384344D01*
X20302827Y-12384344D02*
X20302827Y-12308154D01*
X20302827Y-12308154D02*
X20312351Y-12289106D01*
X20312351Y-12289106D02*
X20331398Y-12279583D01*
X20331398Y-12279583D02*
X20369493Y-12279583D01*
X20369493Y-12279583D02*
X20388541Y-12289106D01*
X20388541Y-12289106D02*
X20398065Y-12308154D01*
X20398065Y-12308154D02*
X20398065Y-12327202D01*
X20398065Y-12327202D02*
X20302827Y-12346249D01*
X20474255Y-12403392D02*
X20493303Y-12412916D01*
X20493303Y-12412916D02*
X20531398Y-12412916D01*
X20531398Y-12412916D02*
X20550446Y-12403392D01*
X20550446Y-12403392D02*
X20559970Y-12384344D01*
X20559970Y-12384344D02*
X20559970Y-12374821D01*
X20559970Y-12374821D02*
X20550446Y-12355773D01*
X20550446Y-12355773D02*
X20531398Y-12346249D01*
X20531398Y-12346249D02*
X20502827Y-12346249D01*
X20502827Y-12346249D02*
X20483779Y-12336725D01*
X20483779Y-12336725D02*
X20474255Y-12317678D01*
X20474255Y-12317678D02*
X20474255Y-12308154D01*
X20474255Y-12308154D02*
X20483779Y-12289106D01*
X20483779Y-12289106D02*
X20502827Y-12279583D01*
X20502827Y-12279583D02*
X20531398Y-12279583D01*
X20531398Y-12279583D02*
X20550446Y-12289106D01*
X20626636Y-12489106D02*
X20636160Y-12479583D01*
X20636160Y-12479583D02*
X20655208Y-12451011D01*
X20655208Y-12451011D02*
X20664732Y-12431964D01*
X20664732Y-12431964D02*
X20674255Y-12403392D01*
X20674255Y-12403392D02*
X20683779Y-12355773D01*
X20683779Y-12355773D02*
X20683779Y-12317678D01*
X20683779Y-12317678D02*
X20674255Y-12270059D01*
X20674255Y-12270059D02*
X20664732Y-12241487D01*
X20664732Y-12241487D02*
X20655208Y-12222440D01*
X20655208Y-12222440D02*
X20636160Y-12193868D01*
X20636160Y-12193868D02*
X20626636Y-12184344D01*
M02*
