G04 #@! TF.GenerationSoftware,KiCad,Pcbnew,7.0.2.1-36-g582732918d-dirty-deb11*
G04 #@! TF.CreationDate,2024-01-19T22:58:33+00:00*
G04 #@! TF.ProjectId,unicorn_simple,756e6963-6f72-46e5-9f73-696d706c652e,rev?*
G04 #@! TF.SameCoordinates,Original*
G04 #@! TF.FileFunction,Copper,L2,Bot*
G04 #@! TF.FilePolarity,Positive*
%FSLAX46Y46*%
G04 Gerber Fmt 4.6, Leading zero omitted, Abs format (unit mm)*
G04 Created by KiCad (PCBNEW 7.0.2.1-36-g582732918d-dirty-deb11) date 2024-01-19 22:58:33*
%MOMM*%
%LPD*%
G01*
G04 APERTURE LIST*
G04 #@! TA.AperFunction,SMDPad,CuDef*
%ADD10R,5.000000X1.524000*%
G04 #@! TD*
G04 #@! TA.AperFunction,SMDPad,CuDef*
%ADD11R,1.524000X5.000000*%
G04 #@! TD*
G04 #@! TA.AperFunction,SMDPad,CuDef*
%ADD12R,3.350000X3.600000*%
G04 #@! TD*
G04 #@! TA.AperFunction,SMDPad,CuDef*
%ADD13R,1.300000X3.150000*%
G04 #@! TD*
G04 #@! TA.AperFunction,ViaPad*
%ADD14C,0.800000*%
G04 #@! TD*
G04 #@! TA.AperFunction,Conductor*
%ADD15C,0.500000*%
G04 #@! TD*
G04 APERTURE END LIST*
D10*
X173750000Y-91900000D03*
X173750000Y-94840000D03*
D11*
X211300000Y-68150000D03*
X208360000Y-68150000D03*
G04 #@! TA.AperFunction,SMDPad,CuDef*
G36*
X200295840Y-69266051D02*
G01*
X204625968Y-71766051D01*
X203863968Y-73085873D01*
X199533840Y-70585873D01*
X200295840Y-69266051D01*
G37*
G04 #@! TD.AperFunction*
G04 #@! TA.AperFunction,SMDPad,CuDef*
G36*
X198825840Y-71812166D02*
G01*
X203155968Y-74312166D01*
X202393968Y-75631988D01*
X198063840Y-73131988D01*
X198825840Y-71812166D01*
G37*
G04 #@! TD.AperFunction*
G04 #@! TA.AperFunction,SMDPad,CuDef*
G36*
X174937774Y-83138824D02*
G01*
X178473308Y-86674358D01*
X177395678Y-87751988D01*
X173860144Y-84216454D01*
X174937774Y-83138824D01*
G37*
G04 #@! TD.AperFunction*
G04 #@! TA.AperFunction,SMDPad,CuDef*
G36*
X172858880Y-85217718D02*
G01*
X176394414Y-88753252D01*
X175316784Y-89830882D01*
X171781250Y-86295348D01*
X172858880Y-85217718D01*
G37*
G04 #@! TD.AperFunction*
D12*
X179983500Y-93853000D03*
X209658500Y-93853000D03*
D13*
X205210000Y-106980000D03*
X202710000Y-106980000D03*
X200210000Y-106980000D03*
X205210000Y-113730000D03*
X202710000Y-113730000D03*
X200210000Y-113730000D03*
D14*
X193900000Y-87080000D03*
X183210000Y-93190000D03*
X192300000Y-99820000D03*
X183210000Y-97530000D03*
X189570000Y-87080000D03*
X195960000Y-92160000D03*
X188100000Y-99810000D03*
X195960000Y-96340000D03*
D15*
X205210000Y-106980000D02*
X205210000Y-105335000D01*
X205210000Y-105335000D02*
X200965499Y-101090499D01*
X200965499Y-101090499D02*
X181060499Y-101090499D01*
X181060499Y-101090499D02*
X179983500Y-100013500D01*
X179983500Y-100013500D02*
X179983500Y-93853000D01*
X177610000Y-89778000D02*
X177610000Y-86888680D01*
X191000000Y-94870000D02*
X208641500Y-94870000D01*
X209658500Y-78754558D02*
X202079904Y-71175962D01*
X211300000Y-69888000D02*
X211300000Y-68150000D01*
X202079904Y-71175962D02*
X202303942Y-71400000D01*
X177610000Y-86888680D02*
X176166726Y-85445406D01*
X181575406Y-85445406D02*
X191000000Y-94870000D01*
X209788000Y-71400000D02*
X211300000Y-69888000D01*
X173750000Y-91900000D02*
X175488000Y-91900000D01*
X208641500Y-94870000D02*
X209658500Y-93853000D01*
X175488000Y-91900000D02*
X177610000Y-89778000D01*
X209658500Y-93853000D02*
X209658500Y-78754558D01*
X176166726Y-85445406D02*
X181575406Y-85445406D01*
X202303942Y-71400000D02*
X209788000Y-71400000D01*
X173110144Y-83689856D02*
X175250000Y-81550000D01*
X199975000Y-102600000D02*
X180400000Y-102600000D01*
X202710000Y-105335000D02*
X199975000Y-102600000D01*
X174087832Y-87524300D02*
X173110144Y-86546612D01*
X201142077Y-73722077D02*
X200609904Y-73722077D01*
X208320000Y-80900000D02*
X201142077Y-73722077D01*
X172110000Y-94840000D02*
X173750000Y-94840000D01*
X202710000Y-106980000D02*
X202710000Y-105335000D01*
X175250000Y-81550000D02*
X179650000Y-81550000D01*
X173750000Y-95950000D02*
X173750000Y-94840000D01*
X170500000Y-90034502D02*
X170500000Y-93230000D01*
X174087832Y-87524300D02*
X173010202Y-87524300D01*
X198783840Y-69717391D02*
X200351231Y-68150000D01*
X204730000Y-93490000D02*
X208320000Y-89900000D01*
X170500000Y-93230000D02*
X172110000Y-94840000D01*
X198783840Y-71896013D02*
X198783840Y-69717391D01*
X208320000Y-89900000D02*
X208320000Y-80900000D01*
X173010202Y-87524300D02*
X170500000Y-90034502D01*
X200351231Y-68150000D02*
X208360000Y-68150000D01*
X180400000Y-102600000D02*
X173750000Y-95950000D01*
X173110144Y-86546612D02*
X173110144Y-83689856D01*
X179650000Y-81550000D02*
X191590000Y-93490000D01*
X200609904Y-73722077D02*
X198783840Y-71896013D01*
X191590000Y-93490000D02*
X204730000Y-93490000D01*
M02*
