G04 #@! TF.GenerationSoftware,KiCad,Pcbnew,7.0.2.1-36-g582732918d-dirty-deb11*
G04 #@! TF.CreationDate,2024-01-19T22:58:33+00:00*
G04 #@! TF.ProjectId,unicorn_simple,756e6963-6f72-46e5-9f73-696d706c652e,rev?*
G04 #@! TF.SameCoordinates,Original*
G04 #@! TF.FileFunction,Soldermask,Top*
G04 #@! TF.FilePolarity,Negative*
%FSLAX46Y46*%
G04 Gerber Fmt 4.6, Leading zero omitted, Abs format (unit mm)*
G04 Created by KiCad (PCBNEW 7.0.2.1-36-g582732918d-dirty-deb11) date 2024-01-19 22:58:33*
%MOMM*%
%LPD*%
G01*
G04 APERTURE LIST*
%ADD10C,0.010000*%
G04 APERTURE END LIST*
D10*
X219182406Y-76245576D02*
X219388877Y-76289087D01*
X219453002Y-76315351D01*
X219702511Y-76480180D01*
X219883849Y-76694335D01*
X219995195Y-76954549D01*
X220034729Y-77257553D01*
X220032372Y-77355287D01*
X220015550Y-77535304D01*
X219982514Y-77665861D01*
X219922723Y-77781974D01*
X219888704Y-77832577D01*
X219771924Y-77970830D01*
X219629901Y-78102855D01*
X219579647Y-78141159D01*
X219470535Y-78209923D01*
X219366065Y-78250837D01*
X219235300Y-78272539D01*
X219072829Y-78282649D01*
X218891402Y-78285839D01*
X218759903Y-78273207D01*
X218644142Y-78238548D01*
X218524733Y-78183181D01*
X218293600Y-78024079D01*
X218124377Y-77820610D01*
X218016979Y-77586069D01*
X217971321Y-77333755D01*
X217987319Y-77076962D01*
X218064889Y-76828989D01*
X218203946Y-76603131D01*
X218404406Y-76412686D01*
X218536500Y-76330130D01*
X218721194Y-76266663D01*
X218948171Y-76238290D01*
X219182406Y-76245576D01*
G36*
X219182406Y-76245576D02*
G01*
X219388877Y-76289087D01*
X219453002Y-76315351D01*
X219702511Y-76480180D01*
X219883849Y-76694335D01*
X219995195Y-76954549D01*
X220034729Y-77257553D01*
X220032372Y-77355287D01*
X220015550Y-77535304D01*
X219982514Y-77665861D01*
X219922723Y-77781974D01*
X219888704Y-77832577D01*
X219771924Y-77970830D01*
X219629901Y-78102855D01*
X219579647Y-78141159D01*
X219470535Y-78209923D01*
X219366065Y-78250837D01*
X219235300Y-78272539D01*
X219072829Y-78282649D01*
X218891402Y-78285839D01*
X218759903Y-78273207D01*
X218644142Y-78238548D01*
X218524733Y-78183181D01*
X218293600Y-78024079D01*
X218124377Y-77820610D01*
X218016979Y-77586069D01*
X217971321Y-77333755D01*
X217987319Y-77076962D01*
X218064889Y-76828989D01*
X218203946Y-76603131D01*
X218404406Y-76412686D01*
X218536500Y-76330130D01*
X218721194Y-76266663D01*
X218948171Y-76238290D01*
X219182406Y-76245576D01*
G37*
X207834513Y-65832593D02*
X208177281Y-65870295D01*
X208410761Y-65921164D01*
X208898943Y-66100816D01*
X209340124Y-66345736D01*
X209729260Y-66649695D01*
X210061310Y-67006465D01*
X210331229Y-67409820D01*
X210533976Y-67853530D01*
X210664508Y-68331370D01*
X210715274Y-68767211D01*
X210722928Y-68977580D01*
X210720846Y-69127893D01*
X210706323Y-69242468D01*
X210676652Y-69345625D01*
X210641053Y-69434269D01*
X210488712Y-69683303D01*
X210268861Y-69884531D01*
X210054321Y-70004557D01*
X209868224Y-70055385D01*
X209640811Y-70072471D01*
X209407010Y-70056807D01*
X209201751Y-70009385D01*
X209128588Y-69978253D01*
X208885222Y-69806079D01*
X208700310Y-69574454D01*
X208576554Y-69287646D01*
X208523502Y-69022256D01*
X208486943Y-68785592D01*
X208433693Y-68607754D01*
X208353662Y-68463158D01*
X208257487Y-68347747D01*
X208038038Y-68171903D01*
X207791998Y-68071361D01*
X207532882Y-68046857D01*
X207274203Y-68099129D01*
X207029475Y-68228911D01*
X206967396Y-68277461D01*
X206850093Y-68394422D01*
X206764373Y-68529345D01*
X206700886Y-68702845D01*
X206650284Y-68935538D01*
X206639243Y-69001092D01*
X206567764Y-69319366D01*
X206462902Y-69569644D01*
X206315834Y-69764955D01*
X206117736Y-69918328D01*
X205963500Y-69998949D01*
X205794942Y-70047949D01*
X205582100Y-70071608D01*
X205361969Y-70068286D01*
X205171549Y-70036343D01*
X205164824Y-70034372D01*
X204978237Y-69947913D01*
X204791884Y-69811236D01*
X204641085Y-69651180D01*
X204618800Y-69619483D01*
X204515323Y-69437734D01*
X204452811Y-69256225D01*
X204425659Y-69048978D01*
X204428267Y-68790017D01*
X204430725Y-68747547D01*
X204502588Y-68251538D01*
X204651038Y-67781293D01*
X204870063Y-67344000D01*
X205153646Y-66946846D01*
X205495773Y-66597019D01*
X205890429Y-66301707D01*
X206331598Y-66068098D01*
X206810167Y-65904174D01*
X207118400Y-65849187D01*
X207470701Y-65825442D01*
X207834513Y-65832593D01*
G36*
X207834513Y-65832593D02*
G01*
X208177281Y-65870295D01*
X208410761Y-65921164D01*
X208898943Y-66100816D01*
X209340124Y-66345736D01*
X209729260Y-66649695D01*
X210061310Y-67006465D01*
X210331229Y-67409820D01*
X210533976Y-67853530D01*
X210664508Y-68331370D01*
X210715274Y-68767211D01*
X210722928Y-68977580D01*
X210720846Y-69127893D01*
X210706323Y-69242468D01*
X210676652Y-69345625D01*
X210641053Y-69434269D01*
X210488712Y-69683303D01*
X210268861Y-69884531D01*
X210054321Y-70004557D01*
X209868224Y-70055385D01*
X209640811Y-70072471D01*
X209407010Y-70056807D01*
X209201751Y-70009385D01*
X209128588Y-69978253D01*
X208885222Y-69806079D01*
X208700310Y-69574454D01*
X208576554Y-69287646D01*
X208523502Y-69022256D01*
X208486943Y-68785592D01*
X208433693Y-68607754D01*
X208353662Y-68463158D01*
X208257487Y-68347747D01*
X208038038Y-68171903D01*
X207791998Y-68071361D01*
X207532882Y-68046857D01*
X207274203Y-68099129D01*
X207029475Y-68228911D01*
X206967396Y-68277461D01*
X206850093Y-68394422D01*
X206764373Y-68529345D01*
X206700886Y-68702845D01*
X206650284Y-68935538D01*
X206639243Y-69001092D01*
X206567764Y-69319366D01*
X206462902Y-69569644D01*
X206315834Y-69764955D01*
X206117736Y-69918328D01*
X205963500Y-69998949D01*
X205794942Y-70047949D01*
X205582100Y-70071608D01*
X205361969Y-70068286D01*
X205171549Y-70036343D01*
X205164824Y-70034372D01*
X204978237Y-69947913D01*
X204791884Y-69811236D01*
X204641085Y-69651180D01*
X204618800Y-69619483D01*
X204515323Y-69437734D01*
X204452811Y-69256225D01*
X204425659Y-69048978D01*
X204428267Y-68790017D01*
X204430725Y-68747547D01*
X204502588Y-68251538D01*
X204651038Y-67781293D01*
X204870063Y-67344000D01*
X205153646Y-66946846D01*
X205495773Y-66597019D01*
X205890429Y-66301707D01*
X206331598Y-66068098D01*
X206810167Y-65904174D01*
X207118400Y-65849187D01*
X207470701Y-65825442D01*
X207834513Y-65832593D01*
G37*
X223731331Y-46037771D02*
X223880512Y-46087215D01*
X224138302Y-46268063D01*
X224334825Y-46492463D01*
X224465694Y-46748386D01*
X224526524Y-47023799D01*
X224512927Y-47306670D01*
X224423982Y-47577834D01*
X224388059Y-47634755D01*
X224304654Y-47756144D01*
X224176466Y-47938277D01*
X224006195Y-48177428D01*
X223796539Y-48469872D01*
X223550199Y-48811886D01*
X223269872Y-49199742D01*
X222958259Y-49629718D01*
X222618058Y-50098088D01*
X222251968Y-50601126D01*
X221862690Y-51135108D01*
X221452921Y-51696310D01*
X221025362Y-52281006D01*
X220582711Y-52885471D01*
X220175349Y-53441000D01*
X216028575Y-59092500D01*
X216203038Y-59106603D01*
X216402032Y-59104595D01*
X216652025Y-59075107D01*
X216925690Y-59022806D01*
X217195700Y-58952357D01*
X217298185Y-58919589D01*
X217649088Y-58833310D01*
X217966993Y-58823272D01*
X218249527Y-58888605D01*
X218494316Y-59028434D01*
X218698986Y-59241887D01*
X218842934Y-59487589D01*
X218906809Y-59647644D01*
X218933165Y-59792724D01*
X218930674Y-59971065D01*
X218930449Y-59974423D01*
X218913060Y-60132187D01*
X218878606Y-60272790D01*
X218818940Y-60411244D01*
X218725913Y-60562563D01*
X218591378Y-60741759D01*
X218407186Y-60963845D01*
X218369536Y-61007892D01*
X217714909Y-61711153D01*
X216995064Y-62373202D01*
X216224051Y-62982576D01*
X215415921Y-63527812D01*
X214932751Y-63811804D01*
X214491926Y-64056947D01*
X216556547Y-65999696D01*
X216879964Y-66303916D01*
X217257610Y-66658957D01*
X217681942Y-67057738D01*
X218145417Y-67493175D01*
X218640493Y-67958188D01*
X219159628Y-68445693D01*
X219695279Y-68948608D01*
X220239905Y-69459851D01*
X220785963Y-69972340D01*
X221325910Y-70478992D01*
X221852205Y-70972725D01*
X222156000Y-71257668D01*
X222622032Y-71694984D01*
X223073238Y-72118847D01*
X223505481Y-72525348D01*
X223914622Y-72910575D01*
X224296524Y-73270618D01*
X224647050Y-73601564D01*
X224962061Y-73899504D01*
X225237421Y-74160526D01*
X225468992Y-74380719D01*
X225652635Y-74556172D01*
X225784214Y-74682974D01*
X225859591Y-74757215D01*
X225872056Y-74770196D01*
X226224005Y-75213903D01*
X226521356Y-75715748D01*
X226759572Y-76265592D01*
X226934120Y-76853294D01*
X227025693Y-77349932D01*
X227052867Y-77661921D01*
X227060330Y-78027621D01*
X227049278Y-78418698D01*
X227020904Y-78806820D01*
X226976402Y-79163652D01*
X226941091Y-79357424D01*
X226749653Y-80072006D01*
X226485472Y-80747405D01*
X226146582Y-81387169D01*
X225731019Y-81994847D01*
X225236819Y-82573986D01*
X225058501Y-82757095D01*
X224658992Y-83135747D01*
X224275019Y-83456638D01*
X223883043Y-83737120D01*
X223459526Y-83994541D01*
X223163457Y-84153959D01*
X222527228Y-84453945D01*
X221881407Y-84698719D01*
X221205659Y-84894748D01*
X220479652Y-85048500D01*
X220208667Y-85093717D01*
X219996206Y-85118484D01*
X219715263Y-85138662D01*
X219381904Y-85154149D01*
X219012194Y-85164843D01*
X218622200Y-85170643D01*
X218227987Y-85171447D01*
X217845620Y-85167154D01*
X217491165Y-85157660D01*
X217180689Y-85142865D01*
X216930256Y-85122667D01*
X216864334Y-85114903D01*
X215902494Y-84969037D01*
X215007800Y-84790677D01*
X214168164Y-84577177D01*
X213572917Y-84394263D01*
X213363241Y-84325945D01*
X213185238Y-84270055D01*
X213052755Y-84230770D01*
X212979638Y-84212272D01*
X212969667Y-84212162D01*
X212978125Y-84257357D01*
X213001532Y-84371238D01*
X213036938Y-84539735D01*
X213081394Y-84748780D01*
X213117324Y-84916382D01*
X213294192Y-85894513D01*
X213412070Y-86899814D01*
X213470290Y-87914219D01*
X213468182Y-88919663D01*
X213405076Y-89898081D01*
X213325889Y-90546167D01*
X213261529Y-90941902D01*
X213185433Y-91343193D01*
X213100840Y-91737315D01*
X213010985Y-92111540D01*
X212919106Y-92453142D01*
X212828440Y-92749395D01*
X212742223Y-92987573D01*
X212663693Y-93154949D01*
X212661286Y-93159091D01*
X212494954Y-93366903D01*
X212284670Y-93513834D01*
X212043777Y-93601339D01*
X211785618Y-93630875D01*
X211523532Y-93603899D01*
X211270863Y-93521865D01*
X211040953Y-93386231D01*
X210847143Y-93198453D01*
X210702774Y-92959987D01*
X210696191Y-92944613D01*
X210646398Y-92735669D01*
X210644860Y-92473250D01*
X210690823Y-92172924D01*
X210743163Y-91973465D01*
X210890747Y-91448432D01*
X211006906Y-90944281D01*
X211094258Y-90441634D01*
X211155426Y-89921117D01*
X211193029Y-89363354D01*
X211209688Y-88748968D01*
X211211060Y-88514167D01*
X211194543Y-87671376D01*
X211141092Y-86866866D01*
X211047688Y-86082037D01*
X210911312Y-85298292D01*
X210728945Y-84497031D01*
X210497569Y-83659657D01*
X210341170Y-83154606D01*
X210307996Y-83077667D01*
X210253122Y-83008501D01*
X210161570Y-82933953D01*
X210018362Y-82840874D01*
X209909024Y-82775163D01*
X209183484Y-82305370D01*
X208474433Y-81767623D01*
X207802781Y-81178521D01*
X207414145Y-80794599D01*
X206959790Y-80323881D01*
X206390880Y-80237093D01*
X205516871Y-80073808D01*
X204709895Y-79860922D01*
X203970364Y-79598616D01*
X203298695Y-79287073D01*
X202695301Y-78926472D01*
X202160597Y-78516996D01*
X201896285Y-78271361D01*
X201557923Y-77904336D01*
X201281286Y-77533524D01*
X201055940Y-77140157D01*
X200871452Y-76705469D01*
X200717388Y-76210693D01*
X200688106Y-76098121D01*
X200589527Y-75661956D01*
X200525820Y-75258957D01*
X200493609Y-74855868D01*
X200489515Y-74419435D01*
X200495859Y-74205500D01*
X200547129Y-73565702D01*
X200652229Y-72970403D01*
X200817103Y-72394283D01*
X201047691Y-71812019D01*
X201068091Y-71766754D01*
X201231040Y-71478883D01*
X201425714Y-71267831D01*
X201657186Y-71130055D01*
X201930531Y-71062010D01*
X202090000Y-71053010D01*
X202400020Y-71090171D01*
X202675642Y-71204105D01*
X202920991Y-71396642D01*
X202962816Y-71440397D01*
X203114874Y-71644032D01*
X203203405Y-71861028D01*
X203229105Y-72102025D01*
X203192670Y-72377660D01*
X203094795Y-72698571D01*
X203052252Y-72808500D01*
X202923120Y-73152484D01*
X202830688Y-73461408D01*
X202765661Y-73771294D01*
X202722052Y-74088180D01*
X202702547Y-74476749D01*
X202724072Y-74890037D01*
X202782795Y-75303618D01*
X202874885Y-75693064D01*
X202996512Y-76033950D01*
X203042563Y-76131790D01*
X203153419Y-76308517D01*
X203313743Y-76510544D01*
X203503166Y-76715306D01*
X203701318Y-76900237D01*
X203826120Y-76999833D01*
X204221433Y-77249707D01*
X204691075Y-77475595D01*
X205227502Y-77675068D01*
X205823168Y-77845696D01*
X206470526Y-77985051D01*
X207162031Y-78090704D01*
X207246776Y-78100903D01*
X207531580Y-78135892D01*
X207748570Y-78169510D01*
X207914208Y-78208503D01*
X208044956Y-78259620D01*
X208157276Y-78329608D01*
X208267630Y-78425216D01*
X208392479Y-78553191D01*
X208418834Y-78581332D01*
X208859598Y-79046159D01*
X209259767Y-79451390D01*
X209629479Y-79805213D01*
X209978870Y-80115815D01*
X210318080Y-80391383D01*
X210657245Y-80640104D01*
X211006504Y-80870166D01*
X211375995Y-81089757D01*
X211775856Y-81307063D01*
X211826869Y-81333638D01*
X212210208Y-81524678D01*
X212584711Y-81693695D01*
X212969645Y-81848041D01*
X213384274Y-81995066D01*
X213847862Y-82142122D01*
X214266530Y-82264615D01*
X214919418Y-82443160D01*
X215511962Y-82589284D01*
X216060807Y-82705792D01*
X216582600Y-82795491D01*
X217093987Y-82861185D01*
X217611613Y-82905681D01*
X218152124Y-82931785D01*
X218240205Y-82934398D01*
X218686904Y-82941697D01*
X219077964Y-82937964D01*
X219402687Y-82923410D01*
X219573705Y-82908179D01*
X220333780Y-82793301D01*
X221029209Y-82627877D01*
X221664749Y-82409859D01*
X222245158Y-82137196D01*
X222775192Y-81807838D01*
X223259607Y-81419736D01*
X223452742Y-81236593D01*
X223875919Y-80759349D01*
X224222657Y-80246337D01*
X224492485Y-79698416D01*
X224684933Y-79116446D01*
X224736822Y-78890752D01*
X224784180Y-78656482D01*
X224812604Y-78492763D01*
X224818978Y-78386971D01*
X224800188Y-78326483D01*
X224753119Y-78298672D01*
X224674656Y-78290916D01*
X224588760Y-78290667D01*
X224314192Y-78252470D01*
X224073578Y-78145767D01*
X223874144Y-77982390D01*
X223723120Y-77774171D01*
X223627732Y-77532941D01*
X223595208Y-77270534D01*
X223632777Y-76998780D01*
X223695531Y-76828437D01*
X223808606Y-76640983D01*
X223951281Y-76484656D01*
X224101981Y-76381698D01*
X224145438Y-76364573D01*
X224213859Y-76330309D01*
X224230334Y-76307007D01*
X224200297Y-76273289D01*
X224113798Y-76186952D01*
X223976252Y-76053167D01*
X223793075Y-75877104D01*
X223569684Y-75663932D01*
X223311493Y-75418822D01*
X223023920Y-75146943D01*
X222712380Y-74853465D01*
X222420584Y-74579459D01*
X222068026Y-74248801D01*
X221664896Y-73870573D01*
X221222303Y-73455205D01*
X220751353Y-73013126D01*
X220263156Y-72554766D01*
X219768819Y-72090554D01*
X219279452Y-71630920D01*
X218806162Y-71186294D01*
X218360057Y-70767105D01*
X218263048Y-70675933D01*
X217887888Y-70323681D01*
X217530500Y-69988792D01*
X217195687Y-69675725D01*
X216888252Y-69388939D01*
X216612998Y-69132892D01*
X216374725Y-68912044D01*
X216178239Y-68730854D01*
X216028339Y-68593780D01*
X215929830Y-68505281D01*
X215887514Y-68469816D01*
X215886395Y-68469334D01*
X215848172Y-68506770D01*
X215804090Y-68601937D01*
X215762620Y-68729119D01*
X215732229Y-68862599D01*
X215721334Y-68970507D01*
X215683281Y-69264395D01*
X215575334Y-69533438D01*
X215406806Y-69762808D01*
X215187013Y-69937680D01*
X215079442Y-69992262D01*
X214824829Y-70062885D01*
X214543717Y-70076970D01*
X214266697Y-70036173D01*
X214024356Y-69942153D01*
X214010688Y-69934330D01*
X213783890Y-69760576D01*
X213623183Y-69541964D01*
X213527158Y-69274808D01*
X213494406Y-68955422D01*
X213515493Y-68638345D01*
X213559816Y-68381991D01*
X213626053Y-68108653D01*
X213705573Y-67848716D01*
X213789743Y-67632565D01*
X213817576Y-67575043D01*
X213865466Y-67492230D01*
X213944965Y-67364028D01*
X214040542Y-67215378D01*
X214060441Y-67185052D01*
X214153292Y-67041816D01*
X214204441Y-66950933D01*
X214219356Y-66894449D01*
X214203508Y-66854410D01*
X214171293Y-66821161D01*
X214121765Y-66774886D01*
X214018395Y-66678257D01*
X213869181Y-66538751D01*
X213682119Y-66363844D01*
X213465205Y-66161014D01*
X213226438Y-65937737D01*
X213075500Y-65796587D01*
X212059500Y-64846456D01*
X211678500Y-64874215D01*
X211394884Y-64884039D01*
X211059464Y-64878636D01*
X210701988Y-64859858D01*
X210352203Y-64829557D01*
X210039854Y-64789583D01*
X209887883Y-64762760D01*
X209097574Y-64561438D01*
X208326716Y-64280041D01*
X207573455Y-63917661D01*
X206835932Y-63473387D01*
X206112293Y-62946311D01*
X206005834Y-62860867D01*
X205792942Y-62677740D01*
X205541026Y-62444575D01*
X205265018Y-62176582D01*
X204979848Y-61888969D01*
X204700447Y-61596949D01*
X204441744Y-61315730D01*
X204218672Y-61060523D01*
X204114368Y-60934000D01*
X203574880Y-60221508D01*
X203042423Y-59442552D01*
X202527989Y-58615242D01*
X202042571Y-57757688D01*
X201902319Y-57483834D01*
X215213334Y-57483834D01*
X215234500Y-57505000D01*
X215255667Y-57483834D01*
X215234500Y-57462667D01*
X215213334Y-57483834D01*
X201902319Y-57483834D01*
X201597164Y-56887999D01*
X201386567Y-56440387D01*
X201279772Y-56215784D01*
X201173932Y-56010308D01*
X201078437Y-55841088D01*
X201002678Y-55725248D01*
X200978443Y-55696048D01*
X200789338Y-55550771D01*
X200582099Y-55482072D01*
X200365051Y-55486103D01*
X200146518Y-55559015D01*
X199934826Y-55696961D01*
X199738300Y-55896091D01*
X199565264Y-56152558D01*
X199446193Y-56404334D01*
X199292566Y-56875371D01*
X199217485Y-57316465D01*
X199221015Y-57729449D01*
X199303224Y-58116156D01*
X199464179Y-58478419D01*
X199525941Y-58579698D01*
X199573832Y-58652105D01*
X199621205Y-58718011D01*
X199674865Y-58783514D01*
X199741620Y-58854714D01*
X199828274Y-58937710D01*
X199941634Y-59038601D01*
X200088505Y-59163487D01*
X200275693Y-59318467D01*
X200510003Y-59509640D01*
X200798243Y-59743106D01*
X201060605Y-59955036D01*
X201330849Y-60174710D01*
X201584747Y-60383903D01*
X201813458Y-60575116D01*
X202008140Y-60740851D01*
X202159951Y-60873607D01*
X202260049Y-60965884D01*
X202292868Y-61000210D01*
X202429654Y-61229311D01*
X202501302Y-61492124D01*
X202508726Y-61769389D01*
X202452838Y-62041851D01*
X202334552Y-62290251D01*
X202225088Y-62429216D01*
X202095700Y-62548005D01*
X201954179Y-62637782D01*
X201780653Y-62707188D01*
X201555246Y-62764861D01*
X201372158Y-62800034D01*
X200796665Y-62934595D01*
X200277800Y-63127017D01*
X199806377Y-63381901D01*
X199373211Y-63703847D01*
X199142464Y-63916589D01*
X198753374Y-64356284D01*
X198439434Y-64829453D01*
X198202899Y-65332118D01*
X198049431Y-65844667D01*
X197986751Y-66119326D01*
X197932452Y-66326560D01*
X197879960Y-66482282D01*
X197822706Y-66602403D01*
X197754117Y-66702835D01*
X197667623Y-66799489D01*
X197646113Y-66821252D01*
X197407887Y-67004011D01*
X197134383Y-67118713D01*
X196854956Y-67157000D01*
X196750875Y-67170762D01*
X196700927Y-67222906D01*
X196690999Y-67253744D01*
X196685220Y-67324466D01*
X196683273Y-67465254D01*
X196685009Y-67661601D01*
X196690280Y-67898998D01*
X196698938Y-68162940D01*
X196700776Y-68210404D01*
X196734834Y-69070321D01*
X196959515Y-69087775D01*
X197218378Y-69130691D01*
X197434688Y-69223610D01*
X197623390Y-69363621D01*
X197726124Y-69466588D01*
X197807844Y-69582958D01*
X197873294Y-69726382D01*
X197927218Y-69910506D01*
X197974360Y-70148981D01*
X198019464Y-70455454D01*
X198029363Y-70531625D01*
X198053850Y-70713610D01*
X198089788Y-70967151D01*
X198135377Y-71280185D01*
X198188818Y-71640645D01*
X198248314Y-72036466D01*
X198312064Y-72455580D01*
X198378271Y-72885924D01*
X198428749Y-73210667D01*
X198526907Y-73843309D01*
X198612201Y-74402578D01*
X198686020Y-74898560D01*
X198749753Y-75341340D01*
X198804791Y-75741004D01*
X198852522Y-76107636D01*
X198894336Y-76451323D01*
X198931622Y-76782150D01*
X198965281Y-77105334D01*
X198984281Y-77350076D01*
X198999056Y-77652523D01*
X199009610Y-77996999D01*
X199015949Y-78367828D01*
X199018079Y-78749335D01*
X199016006Y-79125844D01*
X199009733Y-79481680D01*
X198999268Y-79801167D01*
X198984615Y-80068630D01*
X198965779Y-80268394D01*
X198964181Y-80280334D01*
X198833277Y-81038472D01*
X198656820Y-81729014D01*
X198431377Y-82357808D01*
X198153517Y-82930700D01*
X197819811Y-83453541D01*
X197426825Y-83932177D01*
X196971129Y-84372456D01*
X196449291Y-84780228D01*
X196240053Y-84923182D01*
X195661728Y-85263533D01*
X195047304Y-85543506D01*
X194391300Y-85764507D01*
X193688234Y-85927941D01*
X192932626Y-86035215D01*
X192118994Y-86087734D01*
X191676000Y-86093882D01*
X190961076Y-86069386D01*
X190264960Y-85996473D01*
X189572142Y-85871891D01*
X188867113Y-85692391D01*
X188134363Y-85454721D01*
X187527334Y-85224355D01*
X187276292Y-85118897D01*
X186971002Y-84983123D01*
X186627790Y-84824944D01*
X186262978Y-84652276D01*
X185892893Y-84473032D01*
X185533858Y-84295126D01*
X185202198Y-84126472D01*
X184914238Y-83974983D01*
X184686302Y-83848573D01*
X184670694Y-83839515D01*
X184389565Y-83688167D01*
X193242334Y-83688167D01*
X193263500Y-83709334D01*
X193284667Y-83688167D01*
X193263500Y-83667000D01*
X193242334Y-83688167D01*
X184389565Y-83688167D01*
X183818083Y-83380506D01*
X182928235Y-82973398D01*
X182012464Y-82621421D01*
X181082081Y-82327801D01*
X180148399Y-82095766D01*
X179222731Y-81928545D01*
X178316389Y-81829366D01*
X177526360Y-81800948D01*
X176708609Y-81841718D01*
X175922439Y-81960090D01*
X175170289Y-82154174D01*
X174454596Y-82422078D01*
X173777798Y-82761914D01*
X173142331Y-83171790D01*
X172550634Y-83649816D01*
X172005143Y-84194101D01*
X171508297Y-84802756D01*
X171062533Y-85473890D01*
X170670288Y-86205612D01*
X170333999Y-86996032D01*
X170153263Y-87519187D01*
X169987560Y-88091615D01*
X169861783Y-88644358D01*
X169772702Y-89199812D01*
X169717089Y-89780371D01*
X169691714Y-90408431D01*
X169689332Y-90736667D01*
X169703636Y-91393396D01*
X169746514Y-91994276D01*
X169822045Y-92564501D01*
X169934305Y-93129267D01*
X170087372Y-93713768D01*
X170261396Y-94271500D01*
X170601652Y-95164233D01*
X171018244Y-96020590D01*
X171510698Y-96839809D01*
X172078537Y-97621129D01*
X172721288Y-98363787D01*
X172983516Y-98634142D01*
X173704103Y-99297847D01*
X174465193Y-99888996D01*
X175264280Y-100406115D01*
X176098860Y-100847730D01*
X176966425Y-101212367D01*
X177840201Y-101491964D01*
X178055106Y-101550624D01*
X178263160Y-101607522D01*
X178437445Y-101655290D01*
X178532637Y-101681475D01*
X178772285Y-101787508D01*
X178989783Y-101958091D01*
X179161849Y-102173117D01*
X179214180Y-102270146D01*
X179313840Y-102484167D01*
X179314253Y-106008417D01*
X179314667Y-109532667D01*
X181473667Y-109532667D01*
X181473667Y-105518541D01*
X181473600Y-104824750D01*
X181473613Y-104210456D01*
X181474030Y-103670490D01*
X181475174Y-103199681D01*
X181475731Y-103096387D01*
X183675000Y-103096387D01*
X183675000Y-109532667D01*
X184479876Y-109532667D01*
X184469021Y-106391906D01*
X184458167Y-103251146D01*
X184161834Y-103197056D01*
X183998751Y-103166472D01*
X183857668Y-103138581D01*
X183770250Y-103119677D01*
X183675000Y-103096387D01*
X181475731Y-103096387D01*
X181477366Y-102792862D01*
X181480931Y-102444861D01*
X181486190Y-102150510D01*
X181493466Y-101904639D01*
X181503082Y-101702080D01*
X181515362Y-101537662D01*
X181530627Y-101406216D01*
X181549200Y-101302572D01*
X181571405Y-101221562D01*
X181597563Y-101158016D01*
X181627998Y-101106764D01*
X181663033Y-101062637D01*
X181702990Y-101020466D01*
X181748192Y-100975080D01*
X181757970Y-100965080D01*
X181885506Y-100851315D01*
X182025656Y-100751232D01*
X182077142Y-100721819D01*
X182200329Y-100666678D01*
X182324798Y-100631100D01*
X182463901Y-100615485D01*
X182630992Y-100620235D01*
X182839425Y-100645750D01*
X183102553Y-100692431D01*
X183433730Y-100760679D01*
X183443790Y-100762835D01*
X184927285Y-101061570D01*
X186369391Y-101311154D01*
X187790144Y-101513851D01*
X189209576Y-101671926D01*
X190647725Y-101787643D01*
X192124623Y-101863264D01*
X193496334Y-101898807D01*
X193991433Y-101903745D01*
X194501455Y-101904296D01*
X195014564Y-101900745D01*
X195518927Y-101893381D01*
X196002710Y-101882490D01*
X196454079Y-101868358D01*
X196861200Y-101851273D01*
X197212239Y-101831521D01*
X197495363Y-101809389D01*
X197589819Y-101799608D01*
X197809805Y-101774542D01*
X197822653Y-99779854D01*
X197825989Y-99308286D01*
X197829586Y-98913901D01*
X197833727Y-98589215D01*
X197838696Y-98326746D01*
X197844780Y-98119009D01*
X197852261Y-97958522D01*
X197861426Y-97837800D01*
X197872559Y-97749361D01*
X197885944Y-97685721D01*
X197901865Y-97639395D01*
X197904288Y-97633921D01*
X198063898Y-97379415D01*
X198280064Y-97184130D01*
X198544001Y-97053446D01*
X198846921Y-96992745D01*
X198957334Y-96989006D01*
X199271359Y-97027143D01*
X199540838Y-97137241D01*
X199765418Y-97319090D01*
X199944741Y-97572480D01*
X199945293Y-97573500D01*
X200036834Y-97742834D01*
X200047998Y-103637750D01*
X200059162Y-109532667D01*
X202301269Y-109532667D01*
X204544858Y-109532667D01*
X205349667Y-109532667D01*
X205349667Y-101906479D01*
X204958084Y-102118813D01*
X204566500Y-102331147D01*
X204544858Y-109532667D01*
X202301269Y-109532667D01*
X202312051Y-105186926D01*
X202322834Y-100841185D01*
X202979000Y-100574341D01*
X203975240Y-100129452D01*
X204907057Y-99630671D01*
X205776817Y-99076139D01*
X206586891Y-98463992D01*
X207339646Y-97792371D01*
X208037452Y-97059413D01*
X208682678Y-96263259D01*
X208965955Y-95870289D01*
X209178036Y-95590013D01*
X209374045Y-95385234D01*
X209560565Y-95249868D01*
X209704008Y-95188464D01*
X209988802Y-95143501D01*
X210268085Y-95172734D01*
X210529775Y-95267510D01*
X210761790Y-95419173D01*
X210952048Y-95619069D01*
X211088468Y-95858544D01*
X211158969Y-96128944D01*
X211165935Y-96235677D01*
X211160915Y-96384854D01*
X211136976Y-96520337D01*
X211086911Y-96659446D01*
X211003516Y-96819502D01*
X210879584Y-97017823D01*
X210776686Y-97171334D01*
X210256739Y-97878364D01*
X209670452Y-98574038D01*
X209035782Y-99239076D01*
X208370683Y-99854196D01*
X207963840Y-100191801D01*
X207635847Y-100452167D01*
X207635757Y-108252084D01*
X207635667Y-116052000D01*
X197814334Y-116052000D01*
X197814334Y-111776334D01*
X200058000Y-111776334D01*
X200058000Y-113808334D01*
X202301667Y-113808334D01*
X202301667Y-111776334D01*
X204545334Y-111776334D01*
X204545334Y-113808334D01*
X205392000Y-113808334D01*
X205392000Y-111776334D01*
X204545334Y-111776334D01*
X202301667Y-111776334D01*
X200058000Y-111776334D01*
X197814334Y-111776334D01*
X197814334Y-104020521D01*
X197486250Y-104047262D01*
X197009138Y-104080060D01*
X196463645Y-104106995D01*
X195865868Y-104127868D01*
X195231904Y-104142484D01*
X194577849Y-104150646D01*
X193919799Y-104152156D01*
X193273851Y-104146818D01*
X192656102Y-104134434D01*
X192082648Y-104114807D01*
X192057000Y-104113701D01*
X191393468Y-104080167D01*
X190703313Y-104036730D01*
X190003219Y-103984866D01*
X189309873Y-103926052D01*
X188639960Y-103861763D01*
X188010165Y-103793475D01*
X187437174Y-103722666D01*
X187093417Y-103674556D01*
X186723000Y-103619726D01*
X186723000Y-116052000D01*
X177113334Y-116052000D01*
X177113334Y-111776334D01*
X179314667Y-111776334D01*
X179314667Y-113808334D01*
X181473667Y-113808334D01*
X181473667Y-111776334D01*
X183675000Y-111776334D01*
X183675000Y-113808334D01*
X184479334Y-113808334D01*
X184479334Y-111776334D01*
X183675000Y-111776334D01*
X181473667Y-111776334D01*
X179314667Y-111776334D01*
X177113334Y-111776334D01*
X177113334Y-103579129D01*
X176869917Y-103505053D01*
X176011610Y-103204898D01*
X175151924Y-102829178D01*
X174303349Y-102385848D01*
X173478374Y-101882868D01*
X172689487Y-101328195D01*
X171949177Y-100729786D01*
X171269933Y-100095599D01*
X170892722Y-99696584D01*
X170535277Y-99298918D01*
X170319354Y-99663876D01*
X169793895Y-100473602D01*
X169188834Y-101260837D01*
X168503753Y-102025974D01*
X167738237Y-102769405D01*
X166891870Y-103491523D01*
X165964234Y-104192722D01*
X164954914Y-104873395D01*
X164498000Y-105158462D01*
X164125392Y-105379740D01*
X163728634Y-105604635D01*
X163317046Y-105828656D01*
X162899945Y-106047313D01*
X162486652Y-106256116D01*
X162086485Y-106450574D01*
X161708763Y-106626198D01*
X161362805Y-106778497D01*
X161057930Y-106902982D01*
X160803458Y-106995160D01*
X160608706Y-107050544D01*
X160548299Y-107061570D01*
X160284185Y-107057339D01*
X160021101Y-106980757D01*
X159778154Y-106842186D01*
X159574453Y-106651992D01*
X159450925Y-106466388D01*
X159367943Y-106225715D01*
X159338809Y-105955285D01*
X159364789Y-105689272D01*
X159416027Y-105524969D01*
X159482860Y-105389144D01*
X159564044Y-105272011D01*
X159675435Y-105156198D01*
X159832890Y-105024329D01*
X159964565Y-104923927D01*
X160264139Y-104653963D01*
X160545092Y-104308063D01*
X160803169Y-103893730D01*
X161034115Y-103418467D01*
X161233675Y-102889778D01*
X161360113Y-102463000D01*
X161519335Y-101750344D01*
X161630632Y-100997120D01*
X161693829Y-100200072D01*
X161708750Y-99355942D01*
X161675219Y-98461473D01*
X161593060Y-97513406D01*
X161462097Y-96508485D01*
X161282155Y-95443452D01*
X161053058Y-94315049D01*
X160879070Y-93551834D01*
X160633896Y-92440507D01*
X160437878Y-91375719D01*
X160288552Y-90336897D01*
X160183454Y-89303467D01*
X160120120Y-88254859D01*
X160096087Y-87170499D01*
X160095718Y-87011334D01*
X160126160Y-85750259D01*
X160217909Y-84544255D01*
X160371730Y-83389206D01*
X160588388Y-82280994D01*
X160868647Y-81215504D01*
X161213271Y-80188620D01*
X161492288Y-79492728D01*
X161797906Y-78835859D01*
X162146756Y-78184960D01*
X162530175Y-77552609D01*
X162939498Y-76951382D01*
X163366063Y-76393856D01*
X163801205Y-75892607D01*
X164236260Y-75460211D01*
X164324687Y-75381184D01*
X164978605Y-74862995D01*
X165672889Y-74417050D01*
X166402431Y-74045286D01*
X167162121Y-73749644D01*
X167946849Y-73532062D01*
X168751505Y-73394481D01*
X169570981Y-73338838D01*
X169708837Y-73337667D01*
X170559088Y-73377518D01*
X171380383Y-73496551D01*
X172171588Y-73693982D01*
X172931570Y-73969029D01*
X173659199Y-74320908D01*
X174353340Y-74748838D01*
X175012863Y-75252036D01*
X175636634Y-75829718D01*
X176223521Y-76481103D01*
X176772392Y-77205406D01*
X177282115Y-78001847D01*
X177751556Y-78869641D01*
X177772155Y-78911247D01*
X177893929Y-79150744D01*
X178000487Y-79345726D01*
X178086258Y-79486710D01*
X178145673Y-79564216D01*
X178162626Y-79575943D01*
X178235123Y-79587578D01*
X178369110Y-79602122D01*
X178541578Y-79617224D01*
X178637334Y-79624413D01*
X178831314Y-79642032D01*
X179079699Y-79670261D01*
X179353427Y-79705518D01*
X179623433Y-79744220D01*
X179680493Y-79753004D01*
X180874957Y-79982268D01*
X182050119Y-80293264D01*
X183200980Y-80684275D01*
X184322542Y-81153583D01*
X185409807Y-81699471D01*
X185516500Y-81758231D01*
X186270579Y-82164526D01*
X186999227Y-82532392D01*
X187693586Y-82857730D01*
X188344800Y-83136441D01*
X188944011Y-83364423D01*
X189109357Y-83421324D01*
X189611881Y-83589686D01*
X189934857Y-83476561D01*
X190441426Y-83272557D01*
X190913615Y-83029934D01*
X191335207Y-82758095D01*
X191689989Y-82466443D01*
X191710702Y-82446686D01*
X191870160Y-82267244D01*
X195919713Y-82267244D01*
X195925503Y-82270000D01*
X195964136Y-82240198D01*
X195972834Y-82227667D01*
X195983621Y-82188090D01*
X195977830Y-82185334D01*
X195939198Y-82215135D01*
X195930500Y-82227667D01*
X195919713Y-82267244D01*
X191870160Y-82267244D01*
X192036996Y-82079500D01*
X196036334Y-82079500D01*
X196057500Y-82100667D01*
X196078667Y-82079500D01*
X196057500Y-82058334D01*
X196036334Y-82079500D01*
X192036996Y-82079500D01*
X192042352Y-82073473D01*
X192119537Y-81952500D01*
X196121000Y-81952500D01*
X196142167Y-81973667D01*
X196163334Y-81952500D01*
X196142167Y-81931334D01*
X196121000Y-81952500D01*
X192119537Y-81952500D01*
X192311090Y-81652281D01*
X192517899Y-81180355D01*
X192663761Y-80654943D01*
X192749658Y-80073290D01*
X192776615Y-79457957D01*
X192772395Y-79163120D01*
X192758999Y-78863802D01*
X192735247Y-78553629D01*
X192699960Y-78226224D01*
X192651958Y-77875213D01*
X192590061Y-77494221D01*
X192513091Y-77076871D01*
X192419866Y-76616789D01*
X192309209Y-76107600D01*
X192179938Y-75542927D01*
X192030874Y-74916397D01*
X191860839Y-74221634D01*
X191668652Y-73452261D01*
X191656336Y-73403372D01*
X191539730Y-72938353D01*
X191424970Y-72476290D01*
X191314566Y-72027580D01*
X191211030Y-71602618D01*
X191116871Y-71211800D01*
X191034601Y-70865524D01*
X190966730Y-70574185D01*
X190915769Y-70348180D01*
X190894161Y-70247334D01*
X190690421Y-69174951D01*
X190537178Y-68164566D01*
X190434315Y-67210309D01*
X190384408Y-66352667D01*
X192618864Y-66352667D01*
X192622166Y-66444227D01*
X192630609Y-66469362D01*
X192637210Y-66447917D01*
X192644213Y-66324558D01*
X192637210Y-66257417D01*
X192626741Y-66237356D01*
X192620098Y-66290543D01*
X192618864Y-66352667D01*
X190384408Y-66352667D01*
X190381710Y-66306306D01*
X190379294Y-65463667D01*
X192607334Y-65463667D01*
X192622823Y-65498512D01*
X192635556Y-65491889D01*
X192640622Y-65441649D01*
X192635556Y-65435445D01*
X192610389Y-65441256D01*
X192607334Y-65463667D01*
X190379294Y-65463667D01*
X190379245Y-65446688D01*
X190426800Y-64625583D01*
X190524257Y-63837118D01*
X190671495Y-63075422D01*
X190742434Y-62784159D01*
X191005318Y-61931971D01*
X191345679Y-61113722D01*
X191763340Y-60329614D01*
X192258126Y-59579848D01*
X192829858Y-58864627D01*
X193478361Y-58184153D01*
X194203457Y-57538625D01*
X195004969Y-56928247D01*
X195882720Y-56353221D01*
X196836534Y-55813747D01*
X196871620Y-55795340D01*
X197447189Y-55494167D01*
X197577845Y-55194540D01*
X197826260Y-54720084D01*
X198129897Y-54305877D01*
X198484962Y-53955269D01*
X198887663Y-53671609D01*
X199334208Y-53458246D01*
X199661051Y-53354999D01*
X199955365Y-53301359D01*
X200292408Y-53274633D01*
X200639035Y-53275166D01*
X200962102Y-53303301D01*
X201155962Y-53339478D01*
X201513791Y-53455799D01*
X201877076Y-53625198D01*
X202206716Y-53828757D01*
X202279900Y-53883243D01*
X202407495Y-53977053D01*
X202513706Y-54045629D01*
X202577657Y-54075627D01*
X202581465Y-54076000D01*
X202647690Y-54067717D01*
X202770171Y-54045996D01*
X202922464Y-54015529D01*
X202923316Y-54015350D01*
X203291618Y-53948749D01*
X203718193Y-53889842D01*
X204176782Y-53841603D01*
X204641121Y-53807007D01*
X204859125Y-53796087D01*
X205680077Y-53796060D01*
X206482557Y-53863204D01*
X207256858Y-53995720D01*
X207993272Y-54191810D01*
X208682093Y-54449675D01*
X208884835Y-54542061D01*
X209080369Y-54643983D01*
X209314413Y-54779211D01*
X209562138Y-54932148D01*
X209798716Y-55087195D01*
X209999320Y-55228753D01*
X210091000Y-55299837D01*
X210173136Y-55360188D01*
X210226570Y-55387296D01*
X210227807Y-55387392D01*
X210266653Y-55363196D01*
X210367555Y-55293200D01*
X210524401Y-55181819D01*
X210731076Y-55033467D01*
X210981468Y-54852559D01*
X211269464Y-54643509D01*
X211588952Y-54410732D01*
X211933819Y-54158642D01*
X212190935Y-53970167D01*
X214493667Y-53970167D01*
X214514834Y-53991334D01*
X214536000Y-53970167D01*
X214514834Y-53949000D01*
X214493667Y-53970167D01*
X212190935Y-53970167D01*
X212238640Y-53935198D01*
X212535904Y-53717020D01*
X212894438Y-53453876D01*
X213307257Y-53150892D01*
X213767374Y-52813196D01*
X214267803Y-52445916D01*
X214801556Y-52054179D01*
X215361649Y-51643113D01*
X215941094Y-51217844D01*
X216532906Y-50783501D01*
X217130097Y-50345211D01*
X217725682Y-49908101D01*
X218312675Y-49477299D01*
X218520594Y-49324704D01*
X219059368Y-48929509D01*
X219290706Y-48760009D01*
X221865779Y-48760009D01*
X221875761Y-48782098D01*
X221899502Y-48784334D01*
X221956907Y-48753588D01*
X221965200Y-48742485D01*
X221958387Y-48718429D01*
X221925366Y-48725848D01*
X221865779Y-48760009D01*
X219290706Y-48760009D01*
X219580908Y-48547380D01*
X220080965Y-48181408D01*
X220555292Y-47834684D01*
X220999641Y-47510299D01*
X221409766Y-47211342D01*
X221781419Y-46940906D01*
X222110352Y-46702079D01*
X222392319Y-46497954D01*
X222623071Y-46331621D01*
X222798362Y-46206170D01*
X222913943Y-46124692D01*
X222965568Y-46090277D01*
X222965594Y-46090264D01*
X223117427Y-46039536D01*
X223317140Y-46013806D01*
X223532515Y-46013182D01*
X223731331Y-46037771D01*
G36*
X223731331Y-46037771D02*
G01*
X223880512Y-46087215D01*
X224138302Y-46268063D01*
X224334825Y-46492463D01*
X224465694Y-46748386D01*
X224526524Y-47023799D01*
X224512927Y-47306670D01*
X224423982Y-47577834D01*
X224388059Y-47634755D01*
X224304654Y-47756144D01*
X224176466Y-47938277D01*
X224006195Y-48177428D01*
X223796539Y-48469872D01*
X223550199Y-48811886D01*
X223269872Y-49199742D01*
X222958259Y-49629718D01*
X222618058Y-50098088D01*
X222251968Y-50601126D01*
X221862690Y-51135108D01*
X221452921Y-51696310D01*
X221025362Y-52281006D01*
X220582711Y-52885471D01*
X220175349Y-53441000D01*
X216028575Y-59092500D01*
X216203038Y-59106603D01*
X216402032Y-59104595D01*
X216652025Y-59075107D01*
X216925690Y-59022806D01*
X217195700Y-58952357D01*
X217298185Y-58919589D01*
X217649088Y-58833310D01*
X217966993Y-58823272D01*
X218249527Y-58888605D01*
X218494316Y-59028434D01*
X218698986Y-59241887D01*
X218842934Y-59487589D01*
X218906809Y-59647644D01*
X218933165Y-59792724D01*
X218930674Y-59971065D01*
X218930449Y-59974423D01*
X218913060Y-60132187D01*
X218878606Y-60272790D01*
X218818940Y-60411244D01*
X218725913Y-60562563D01*
X218591378Y-60741759D01*
X218407186Y-60963845D01*
X218369536Y-61007892D01*
X217714909Y-61711153D01*
X216995064Y-62373202D01*
X216224051Y-62982576D01*
X215415921Y-63527812D01*
X214932751Y-63811804D01*
X214491926Y-64056947D01*
X216556547Y-65999696D01*
X216879964Y-66303916D01*
X217257610Y-66658957D01*
X217681942Y-67057738D01*
X218145417Y-67493175D01*
X218640493Y-67958188D01*
X219159628Y-68445693D01*
X219695279Y-68948608D01*
X220239905Y-69459851D01*
X220785963Y-69972340D01*
X221325910Y-70478992D01*
X221852205Y-70972725D01*
X222156000Y-71257668D01*
X222622032Y-71694984D01*
X223073238Y-72118847D01*
X223505481Y-72525348D01*
X223914622Y-72910575D01*
X224296524Y-73270618D01*
X224647050Y-73601564D01*
X224962061Y-73899504D01*
X225237421Y-74160526D01*
X225468992Y-74380719D01*
X225652635Y-74556172D01*
X225784214Y-74682974D01*
X225859591Y-74757215D01*
X225872056Y-74770196D01*
X226224005Y-75213903D01*
X226521356Y-75715748D01*
X226759572Y-76265592D01*
X226934120Y-76853294D01*
X227025693Y-77349932D01*
X227052867Y-77661921D01*
X227060330Y-78027621D01*
X227049278Y-78418698D01*
X227020904Y-78806820D01*
X226976402Y-79163652D01*
X226941091Y-79357424D01*
X226749653Y-80072006D01*
X226485472Y-80747405D01*
X226146582Y-81387169D01*
X225731019Y-81994847D01*
X225236819Y-82573986D01*
X225058501Y-82757095D01*
X224658992Y-83135747D01*
X224275019Y-83456638D01*
X223883043Y-83737120D01*
X223459526Y-83994541D01*
X223163457Y-84153959D01*
X222527228Y-84453945D01*
X221881407Y-84698719D01*
X221205659Y-84894748D01*
X220479652Y-85048500D01*
X220208667Y-85093717D01*
X219996206Y-85118484D01*
X219715263Y-85138662D01*
X219381904Y-85154149D01*
X219012194Y-85164843D01*
X218622200Y-85170643D01*
X218227987Y-85171447D01*
X217845620Y-85167154D01*
X217491165Y-85157660D01*
X217180689Y-85142865D01*
X216930256Y-85122667D01*
X216864334Y-85114903D01*
X215902494Y-84969037D01*
X215007800Y-84790677D01*
X214168164Y-84577177D01*
X213572917Y-84394263D01*
X213363241Y-84325945D01*
X213185238Y-84270055D01*
X213052755Y-84230770D01*
X212979638Y-84212272D01*
X212969667Y-84212162D01*
X212978125Y-84257357D01*
X213001532Y-84371238D01*
X213036938Y-84539735D01*
X213081394Y-84748780D01*
X213117324Y-84916382D01*
X213294192Y-85894513D01*
X213412070Y-86899814D01*
X213470290Y-87914219D01*
X213468182Y-88919663D01*
X213405076Y-89898081D01*
X213325889Y-90546167D01*
X213261529Y-90941902D01*
X213185433Y-91343193D01*
X213100840Y-91737315D01*
X213010985Y-92111540D01*
X212919106Y-92453142D01*
X212828440Y-92749395D01*
X212742223Y-92987573D01*
X212663693Y-93154949D01*
X212661286Y-93159091D01*
X212494954Y-93366903D01*
X212284670Y-93513834D01*
X212043777Y-93601339D01*
X211785618Y-93630875D01*
X211523532Y-93603899D01*
X211270863Y-93521865D01*
X211040953Y-93386231D01*
X210847143Y-93198453D01*
X210702774Y-92959987D01*
X210696191Y-92944613D01*
X210646398Y-92735669D01*
X210644860Y-92473250D01*
X210690823Y-92172924D01*
X210743163Y-91973465D01*
X210890747Y-91448432D01*
X211006906Y-90944281D01*
X211094258Y-90441634D01*
X211155426Y-89921117D01*
X211193029Y-89363354D01*
X211209688Y-88748968D01*
X211211060Y-88514167D01*
X211194543Y-87671376D01*
X211141092Y-86866866D01*
X211047688Y-86082037D01*
X210911312Y-85298292D01*
X210728945Y-84497031D01*
X210497569Y-83659657D01*
X210341170Y-83154606D01*
X210307996Y-83077667D01*
X210253122Y-83008501D01*
X210161570Y-82933953D01*
X210018362Y-82840874D01*
X209909024Y-82775163D01*
X209183484Y-82305370D01*
X208474433Y-81767623D01*
X207802781Y-81178521D01*
X207414145Y-80794599D01*
X206959790Y-80323881D01*
X206390880Y-80237093D01*
X205516871Y-80073808D01*
X204709895Y-79860922D01*
X203970364Y-79598616D01*
X203298695Y-79287073D01*
X202695301Y-78926472D01*
X202160597Y-78516996D01*
X201896285Y-78271361D01*
X201557923Y-77904336D01*
X201281286Y-77533524D01*
X201055940Y-77140157D01*
X200871452Y-76705469D01*
X200717388Y-76210693D01*
X200688106Y-76098121D01*
X200589527Y-75661956D01*
X200525820Y-75258957D01*
X200493609Y-74855868D01*
X200489515Y-74419435D01*
X200495859Y-74205500D01*
X200547129Y-73565702D01*
X200652229Y-72970403D01*
X200817103Y-72394283D01*
X201047691Y-71812019D01*
X201068091Y-71766754D01*
X201231040Y-71478883D01*
X201425714Y-71267831D01*
X201657186Y-71130055D01*
X201930531Y-71062010D01*
X202090000Y-71053010D01*
X202400020Y-71090171D01*
X202675642Y-71204105D01*
X202920991Y-71396642D01*
X202962816Y-71440397D01*
X203114874Y-71644032D01*
X203203405Y-71861028D01*
X203229105Y-72102025D01*
X203192670Y-72377660D01*
X203094795Y-72698571D01*
X203052252Y-72808500D01*
X202923120Y-73152484D01*
X202830688Y-73461408D01*
X202765661Y-73771294D01*
X202722052Y-74088180D01*
X202702547Y-74476749D01*
X202724072Y-74890037D01*
X202782795Y-75303618D01*
X202874885Y-75693064D01*
X202996512Y-76033950D01*
X203042563Y-76131790D01*
X203153419Y-76308517D01*
X203313743Y-76510544D01*
X203503166Y-76715306D01*
X203701318Y-76900237D01*
X203826120Y-76999833D01*
X204221433Y-77249707D01*
X204691075Y-77475595D01*
X205227502Y-77675068D01*
X205823168Y-77845696D01*
X206470526Y-77985051D01*
X207162031Y-78090704D01*
X207246776Y-78100903D01*
X207531580Y-78135892D01*
X207748570Y-78169510D01*
X207914208Y-78208503D01*
X208044956Y-78259620D01*
X208157276Y-78329608D01*
X208267630Y-78425216D01*
X208392479Y-78553191D01*
X208418834Y-78581332D01*
X208859598Y-79046159D01*
X209259767Y-79451390D01*
X209629479Y-79805213D01*
X209978870Y-80115815D01*
X210318080Y-80391383D01*
X210657245Y-80640104D01*
X211006504Y-80870166D01*
X211375995Y-81089757D01*
X211775856Y-81307063D01*
X211826869Y-81333638D01*
X212210208Y-81524678D01*
X212584711Y-81693695D01*
X212969645Y-81848041D01*
X213384274Y-81995066D01*
X213847862Y-82142122D01*
X214266530Y-82264615D01*
X214919418Y-82443160D01*
X215511962Y-82589284D01*
X216060807Y-82705792D01*
X216582600Y-82795491D01*
X217093987Y-82861185D01*
X217611613Y-82905681D01*
X218152124Y-82931785D01*
X218240205Y-82934398D01*
X218686904Y-82941697D01*
X219077964Y-82937964D01*
X219402687Y-82923410D01*
X219573705Y-82908179D01*
X220333780Y-82793301D01*
X221029209Y-82627877D01*
X221664749Y-82409859D01*
X222245158Y-82137196D01*
X222775192Y-81807838D01*
X223259607Y-81419736D01*
X223452742Y-81236593D01*
X223875919Y-80759349D01*
X224222657Y-80246337D01*
X224492485Y-79698416D01*
X224684933Y-79116446D01*
X224736822Y-78890752D01*
X224784180Y-78656482D01*
X224812604Y-78492763D01*
X224818978Y-78386971D01*
X224800188Y-78326483D01*
X224753119Y-78298672D01*
X224674656Y-78290916D01*
X224588760Y-78290667D01*
X224314192Y-78252470D01*
X224073578Y-78145767D01*
X223874144Y-77982390D01*
X223723120Y-77774171D01*
X223627732Y-77532941D01*
X223595208Y-77270534D01*
X223632777Y-76998780D01*
X223695531Y-76828437D01*
X223808606Y-76640983D01*
X223951281Y-76484656D01*
X224101981Y-76381698D01*
X224145438Y-76364573D01*
X224213859Y-76330309D01*
X224230334Y-76307007D01*
X224200297Y-76273289D01*
X224113798Y-76186952D01*
X223976252Y-76053167D01*
X223793075Y-75877104D01*
X223569684Y-75663932D01*
X223311493Y-75418822D01*
X223023920Y-75146943D01*
X222712380Y-74853465D01*
X222420584Y-74579459D01*
X222068026Y-74248801D01*
X221664896Y-73870573D01*
X221222303Y-73455205D01*
X220751353Y-73013126D01*
X220263156Y-72554766D01*
X219768819Y-72090554D01*
X219279452Y-71630920D01*
X218806162Y-71186294D01*
X218360057Y-70767105D01*
X218263048Y-70675933D01*
X217887888Y-70323681D01*
X217530500Y-69988792D01*
X217195687Y-69675725D01*
X216888252Y-69388939D01*
X216612998Y-69132892D01*
X216374725Y-68912044D01*
X216178239Y-68730854D01*
X216028339Y-68593780D01*
X215929830Y-68505281D01*
X215887514Y-68469816D01*
X215886395Y-68469334D01*
X215848172Y-68506770D01*
X215804090Y-68601937D01*
X215762620Y-68729119D01*
X215732229Y-68862599D01*
X215721334Y-68970507D01*
X215683281Y-69264395D01*
X215575334Y-69533438D01*
X215406806Y-69762808D01*
X215187013Y-69937680D01*
X215079442Y-69992262D01*
X214824829Y-70062885D01*
X214543717Y-70076970D01*
X214266697Y-70036173D01*
X214024356Y-69942153D01*
X214010688Y-69934330D01*
X213783890Y-69760576D01*
X213623183Y-69541964D01*
X213527158Y-69274808D01*
X213494406Y-68955422D01*
X213515493Y-68638345D01*
X213559816Y-68381991D01*
X213626053Y-68108653D01*
X213705573Y-67848716D01*
X213789743Y-67632565D01*
X213817576Y-67575043D01*
X213865466Y-67492230D01*
X213944965Y-67364028D01*
X214040542Y-67215378D01*
X214060441Y-67185052D01*
X214153292Y-67041816D01*
X214204441Y-66950933D01*
X214219356Y-66894449D01*
X214203508Y-66854410D01*
X214171293Y-66821161D01*
X214121765Y-66774886D01*
X214018395Y-66678257D01*
X213869181Y-66538751D01*
X213682119Y-66363844D01*
X213465205Y-66161014D01*
X213226438Y-65937737D01*
X213075500Y-65796587D01*
X212059500Y-64846456D01*
X211678500Y-64874215D01*
X211394884Y-64884039D01*
X211059464Y-64878636D01*
X210701988Y-64859858D01*
X210352203Y-64829557D01*
X210039854Y-64789583D01*
X209887883Y-64762760D01*
X209097574Y-64561438D01*
X208326716Y-64280041D01*
X207573455Y-63917661D01*
X206835932Y-63473387D01*
X206112293Y-62946311D01*
X206005834Y-62860867D01*
X205792942Y-62677740D01*
X205541026Y-62444575D01*
X205265018Y-62176582D01*
X204979848Y-61888969D01*
X204700447Y-61596949D01*
X204441744Y-61315730D01*
X204218672Y-61060523D01*
X204114368Y-60934000D01*
X203574880Y-60221508D01*
X203042423Y-59442552D01*
X202527989Y-58615242D01*
X202042571Y-57757688D01*
X201902319Y-57483834D01*
X215213334Y-57483834D01*
X215234500Y-57505000D01*
X215255667Y-57483834D01*
X215234500Y-57462667D01*
X215213334Y-57483834D01*
X201902319Y-57483834D01*
X201597164Y-56887999D01*
X201386567Y-56440387D01*
X201279772Y-56215784D01*
X201173932Y-56010308D01*
X201078437Y-55841088D01*
X201002678Y-55725248D01*
X200978443Y-55696048D01*
X200789338Y-55550771D01*
X200582099Y-55482072D01*
X200365051Y-55486103D01*
X200146518Y-55559015D01*
X199934826Y-55696961D01*
X199738300Y-55896091D01*
X199565264Y-56152558D01*
X199446193Y-56404334D01*
X199292566Y-56875371D01*
X199217485Y-57316465D01*
X199221015Y-57729449D01*
X199303224Y-58116156D01*
X199464179Y-58478419D01*
X199525941Y-58579698D01*
X199573832Y-58652105D01*
X199621205Y-58718011D01*
X199674865Y-58783514D01*
X199741620Y-58854714D01*
X199828274Y-58937710D01*
X199941634Y-59038601D01*
X200088505Y-59163487D01*
X200275693Y-59318467D01*
X200510003Y-59509640D01*
X200798243Y-59743106D01*
X201060605Y-59955036D01*
X201330849Y-60174710D01*
X201584747Y-60383903D01*
X201813458Y-60575116D01*
X202008140Y-60740851D01*
X202159951Y-60873607D01*
X202260049Y-60965884D01*
X202292868Y-61000210D01*
X202429654Y-61229311D01*
X202501302Y-61492124D01*
X202508726Y-61769389D01*
X202452838Y-62041851D01*
X202334552Y-62290251D01*
X202225088Y-62429216D01*
X202095700Y-62548005D01*
X201954179Y-62637782D01*
X201780653Y-62707188D01*
X201555246Y-62764861D01*
X201372158Y-62800034D01*
X200796665Y-62934595D01*
X200277800Y-63127017D01*
X199806377Y-63381901D01*
X199373211Y-63703847D01*
X199142464Y-63916589D01*
X198753374Y-64356284D01*
X198439434Y-64829453D01*
X198202899Y-65332118D01*
X198049431Y-65844667D01*
X197986751Y-66119326D01*
X197932452Y-66326560D01*
X197879960Y-66482282D01*
X197822706Y-66602403D01*
X197754117Y-66702835D01*
X197667623Y-66799489D01*
X197646113Y-66821252D01*
X197407887Y-67004011D01*
X197134383Y-67118713D01*
X196854956Y-67157000D01*
X196750875Y-67170762D01*
X196700927Y-67222906D01*
X196690999Y-67253744D01*
X196685220Y-67324466D01*
X196683273Y-67465254D01*
X196685009Y-67661601D01*
X196690280Y-67898998D01*
X196698938Y-68162940D01*
X196700776Y-68210404D01*
X196734834Y-69070321D01*
X196959515Y-69087775D01*
X197218378Y-69130691D01*
X197434688Y-69223610D01*
X197623390Y-69363621D01*
X197726124Y-69466588D01*
X197807844Y-69582958D01*
X197873294Y-69726382D01*
X197927218Y-69910506D01*
X197974360Y-70148981D01*
X198019464Y-70455454D01*
X198029363Y-70531625D01*
X198053850Y-70713610D01*
X198089788Y-70967151D01*
X198135377Y-71280185D01*
X198188818Y-71640645D01*
X198248314Y-72036466D01*
X198312064Y-72455580D01*
X198378271Y-72885924D01*
X198428749Y-73210667D01*
X198526907Y-73843309D01*
X198612201Y-74402578D01*
X198686020Y-74898560D01*
X198749753Y-75341340D01*
X198804791Y-75741004D01*
X198852522Y-76107636D01*
X198894336Y-76451323D01*
X198931622Y-76782150D01*
X198965281Y-77105334D01*
X198984281Y-77350076D01*
X198999056Y-77652523D01*
X199009610Y-77996999D01*
X199015949Y-78367828D01*
X199018079Y-78749335D01*
X199016006Y-79125844D01*
X199009733Y-79481680D01*
X198999268Y-79801167D01*
X198984615Y-80068630D01*
X198965779Y-80268394D01*
X198964181Y-80280334D01*
X198833277Y-81038472D01*
X198656820Y-81729014D01*
X198431377Y-82357808D01*
X198153517Y-82930700D01*
X197819811Y-83453541D01*
X197426825Y-83932177D01*
X196971129Y-84372456D01*
X196449291Y-84780228D01*
X196240053Y-84923182D01*
X195661728Y-85263533D01*
X195047304Y-85543506D01*
X194391300Y-85764507D01*
X193688234Y-85927941D01*
X192932626Y-86035215D01*
X192118994Y-86087734D01*
X191676000Y-86093882D01*
X190961076Y-86069386D01*
X190264960Y-85996473D01*
X189572142Y-85871891D01*
X188867113Y-85692391D01*
X188134363Y-85454721D01*
X187527334Y-85224355D01*
X187276292Y-85118897D01*
X186971002Y-84983123D01*
X186627790Y-84824944D01*
X186262978Y-84652276D01*
X185892893Y-84473032D01*
X185533858Y-84295126D01*
X185202198Y-84126472D01*
X184914238Y-83974983D01*
X184686302Y-83848573D01*
X184670694Y-83839515D01*
X184389565Y-83688167D01*
X193242334Y-83688167D01*
X193263500Y-83709334D01*
X193284667Y-83688167D01*
X193263500Y-83667000D01*
X193242334Y-83688167D01*
X184389565Y-83688167D01*
X183818083Y-83380506D01*
X182928235Y-82973398D01*
X182012464Y-82621421D01*
X181082081Y-82327801D01*
X180148399Y-82095766D01*
X179222731Y-81928545D01*
X178316389Y-81829366D01*
X177526360Y-81800948D01*
X176708609Y-81841718D01*
X175922439Y-81960090D01*
X175170289Y-82154174D01*
X174454596Y-82422078D01*
X173777798Y-82761914D01*
X173142331Y-83171790D01*
X172550634Y-83649816D01*
X172005143Y-84194101D01*
X171508297Y-84802756D01*
X171062533Y-85473890D01*
X170670288Y-86205612D01*
X170333999Y-86996032D01*
X170153263Y-87519187D01*
X169987560Y-88091615D01*
X169861783Y-88644358D01*
X169772702Y-89199812D01*
X169717089Y-89780371D01*
X169691714Y-90408431D01*
X169689332Y-90736667D01*
X169703636Y-91393396D01*
X169746514Y-91994276D01*
X169822045Y-92564501D01*
X169934305Y-93129267D01*
X170087372Y-93713768D01*
X170261396Y-94271500D01*
X170601652Y-95164233D01*
X171018244Y-96020590D01*
X171510698Y-96839809D01*
X172078537Y-97621129D01*
X172721288Y-98363787D01*
X172983516Y-98634142D01*
X173704103Y-99297847D01*
X174465193Y-99888996D01*
X175264280Y-100406115D01*
X176098860Y-100847730D01*
X176966425Y-101212367D01*
X177840201Y-101491964D01*
X178055106Y-101550624D01*
X178263160Y-101607522D01*
X178437445Y-101655290D01*
X178532637Y-101681475D01*
X178772285Y-101787508D01*
X178989783Y-101958091D01*
X179161849Y-102173117D01*
X179214180Y-102270146D01*
X179313840Y-102484167D01*
X179314253Y-106008417D01*
X179314667Y-109532667D01*
X181473667Y-109532667D01*
X181473667Y-105518541D01*
X181473600Y-104824750D01*
X181473613Y-104210456D01*
X181474030Y-103670490D01*
X181475174Y-103199681D01*
X181475731Y-103096387D01*
X183675000Y-103096387D01*
X183675000Y-109532667D01*
X184479876Y-109532667D01*
X184469021Y-106391906D01*
X184458167Y-103251146D01*
X184161834Y-103197056D01*
X183998751Y-103166472D01*
X183857668Y-103138581D01*
X183770250Y-103119677D01*
X183675000Y-103096387D01*
X181475731Y-103096387D01*
X181477366Y-102792862D01*
X181480931Y-102444861D01*
X181486190Y-102150510D01*
X181493466Y-101904639D01*
X181503082Y-101702080D01*
X181515362Y-101537662D01*
X181530627Y-101406216D01*
X181549200Y-101302572D01*
X181571405Y-101221562D01*
X181597563Y-101158016D01*
X181627998Y-101106764D01*
X181663033Y-101062637D01*
X181702990Y-101020466D01*
X181748192Y-100975080D01*
X181757970Y-100965080D01*
X181885506Y-100851315D01*
X182025656Y-100751232D01*
X182077142Y-100721819D01*
X182200329Y-100666678D01*
X182324798Y-100631100D01*
X182463901Y-100615485D01*
X182630992Y-100620235D01*
X182839425Y-100645750D01*
X183102553Y-100692431D01*
X183433730Y-100760679D01*
X183443790Y-100762835D01*
X184927285Y-101061570D01*
X186369391Y-101311154D01*
X187790144Y-101513851D01*
X189209576Y-101671926D01*
X190647725Y-101787643D01*
X192124623Y-101863264D01*
X193496334Y-101898807D01*
X193991433Y-101903745D01*
X194501455Y-101904296D01*
X195014564Y-101900745D01*
X195518927Y-101893381D01*
X196002710Y-101882490D01*
X196454079Y-101868358D01*
X196861200Y-101851273D01*
X197212239Y-101831521D01*
X197495363Y-101809389D01*
X197589819Y-101799608D01*
X197809805Y-101774542D01*
X197822653Y-99779854D01*
X197825989Y-99308286D01*
X197829586Y-98913901D01*
X197833727Y-98589215D01*
X197838696Y-98326746D01*
X197844780Y-98119009D01*
X197852261Y-97958522D01*
X197861426Y-97837800D01*
X197872559Y-97749361D01*
X197885944Y-97685721D01*
X197901865Y-97639395D01*
X197904288Y-97633921D01*
X198063898Y-97379415D01*
X198280064Y-97184130D01*
X198544001Y-97053446D01*
X198846921Y-96992745D01*
X198957334Y-96989006D01*
X199271359Y-97027143D01*
X199540838Y-97137241D01*
X199765418Y-97319090D01*
X199944741Y-97572480D01*
X199945293Y-97573500D01*
X200036834Y-97742834D01*
X200047998Y-103637750D01*
X200059162Y-109532667D01*
X202301269Y-109532667D01*
X204544858Y-109532667D01*
X205349667Y-109532667D01*
X205349667Y-101906479D01*
X204958084Y-102118813D01*
X204566500Y-102331147D01*
X204544858Y-109532667D01*
X202301269Y-109532667D01*
X202312051Y-105186926D01*
X202322834Y-100841185D01*
X202979000Y-100574341D01*
X203975240Y-100129452D01*
X204907057Y-99630671D01*
X205776817Y-99076139D01*
X206586891Y-98463992D01*
X207339646Y-97792371D01*
X208037452Y-97059413D01*
X208682678Y-96263259D01*
X208965955Y-95870289D01*
X209178036Y-95590013D01*
X209374045Y-95385234D01*
X209560565Y-95249868D01*
X209704008Y-95188464D01*
X209988802Y-95143501D01*
X210268085Y-95172734D01*
X210529775Y-95267510D01*
X210761790Y-95419173D01*
X210952048Y-95619069D01*
X211088468Y-95858544D01*
X211158969Y-96128944D01*
X211165935Y-96235677D01*
X211160915Y-96384854D01*
X211136976Y-96520337D01*
X211086911Y-96659446D01*
X211003516Y-96819502D01*
X210879584Y-97017823D01*
X210776686Y-97171334D01*
X210256739Y-97878364D01*
X209670452Y-98574038D01*
X209035782Y-99239076D01*
X208370683Y-99854196D01*
X207963840Y-100191801D01*
X207635847Y-100452167D01*
X207635757Y-108252084D01*
X207635667Y-116052000D01*
X197814334Y-116052000D01*
X197814334Y-111776334D01*
X200058000Y-111776334D01*
X200058000Y-113808334D01*
X202301667Y-113808334D01*
X202301667Y-111776334D01*
X204545334Y-111776334D01*
X204545334Y-113808334D01*
X205392000Y-113808334D01*
X205392000Y-111776334D01*
X204545334Y-111776334D01*
X202301667Y-111776334D01*
X200058000Y-111776334D01*
X197814334Y-111776334D01*
X197814334Y-104020521D01*
X197486250Y-104047262D01*
X197009138Y-104080060D01*
X196463645Y-104106995D01*
X195865868Y-104127868D01*
X195231904Y-104142484D01*
X194577849Y-104150646D01*
X193919799Y-104152156D01*
X193273851Y-104146818D01*
X192656102Y-104134434D01*
X192082648Y-104114807D01*
X192057000Y-104113701D01*
X191393468Y-104080167D01*
X190703313Y-104036730D01*
X190003219Y-103984866D01*
X189309873Y-103926052D01*
X188639960Y-103861763D01*
X188010165Y-103793475D01*
X187437174Y-103722666D01*
X187093417Y-103674556D01*
X186723000Y-103619726D01*
X186723000Y-116052000D01*
X177113334Y-116052000D01*
X177113334Y-111776334D01*
X179314667Y-111776334D01*
X179314667Y-113808334D01*
X181473667Y-113808334D01*
X181473667Y-111776334D01*
X183675000Y-111776334D01*
X183675000Y-113808334D01*
X184479334Y-113808334D01*
X184479334Y-111776334D01*
X183675000Y-111776334D01*
X181473667Y-111776334D01*
X179314667Y-111776334D01*
X177113334Y-111776334D01*
X177113334Y-103579129D01*
X176869917Y-103505053D01*
X176011610Y-103204898D01*
X175151924Y-102829178D01*
X174303349Y-102385848D01*
X173478374Y-101882868D01*
X172689487Y-101328195D01*
X171949177Y-100729786D01*
X171269933Y-100095599D01*
X170892722Y-99696584D01*
X170535277Y-99298918D01*
X170319354Y-99663876D01*
X169793895Y-100473602D01*
X169188834Y-101260837D01*
X168503753Y-102025974D01*
X167738237Y-102769405D01*
X166891870Y-103491523D01*
X165964234Y-104192722D01*
X164954914Y-104873395D01*
X164498000Y-105158462D01*
X164125392Y-105379740D01*
X163728634Y-105604635D01*
X163317046Y-105828656D01*
X162899945Y-106047313D01*
X162486652Y-106256116D01*
X162086485Y-106450574D01*
X161708763Y-106626198D01*
X161362805Y-106778497D01*
X161057930Y-106902982D01*
X160803458Y-106995160D01*
X160608706Y-107050544D01*
X160548299Y-107061570D01*
X160284185Y-107057339D01*
X160021101Y-106980757D01*
X159778154Y-106842186D01*
X159574453Y-106651992D01*
X159450925Y-106466388D01*
X159367943Y-106225715D01*
X159338809Y-105955285D01*
X159364789Y-105689272D01*
X159416027Y-105524969D01*
X159482860Y-105389144D01*
X159564044Y-105272011D01*
X159675435Y-105156198D01*
X159832890Y-105024329D01*
X159964565Y-104923927D01*
X160264139Y-104653963D01*
X160545092Y-104308063D01*
X160803169Y-103893730D01*
X161034115Y-103418467D01*
X161233675Y-102889778D01*
X161360113Y-102463000D01*
X161519335Y-101750344D01*
X161630632Y-100997120D01*
X161693829Y-100200072D01*
X161708750Y-99355942D01*
X161675219Y-98461473D01*
X161593060Y-97513406D01*
X161462097Y-96508485D01*
X161282155Y-95443452D01*
X161053058Y-94315049D01*
X160879070Y-93551834D01*
X160633896Y-92440507D01*
X160437878Y-91375719D01*
X160288552Y-90336897D01*
X160183454Y-89303467D01*
X160120120Y-88254859D01*
X160096087Y-87170499D01*
X160095718Y-87011334D01*
X160126160Y-85750259D01*
X160217909Y-84544255D01*
X160371730Y-83389206D01*
X160588388Y-82280994D01*
X160868647Y-81215504D01*
X161213271Y-80188620D01*
X161492288Y-79492728D01*
X161797906Y-78835859D01*
X162146756Y-78184960D01*
X162530175Y-77552609D01*
X162939498Y-76951382D01*
X163366063Y-76393856D01*
X163801205Y-75892607D01*
X164236260Y-75460211D01*
X164324687Y-75381184D01*
X164978605Y-74862995D01*
X165672889Y-74417050D01*
X166402431Y-74045286D01*
X167162121Y-73749644D01*
X167946849Y-73532062D01*
X168751505Y-73394481D01*
X169570981Y-73338838D01*
X169708837Y-73337667D01*
X170559088Y-73377518D01*
X171380383Y-73496551D01*
X172171588Y-73693982D01*
X172931570Y-73969029D01*
X173659199Y-74320908D01*
X174353340Y-74748838D01*
X175012863Y-75252036D01*
X175636634Y-75829718D01*
X176223521Y-76481103D01*
X176772392Y-77205406D01*
X177282115Y-78001847D01*
X177751556Y-78869641D01*
X177772155Y-78911247D01*
X177893929Y-79150744D01*
X178000487Y-79345726D01*
X178086258Y-79486710D01*
X178145673Y-79564216D01*
X178162626Y-79575943D01*
X178235123Y-79587578D01*
X178369110Y-79602122D01*
X178541578Y-79617224D01*
X178637334Y-79624413D01*
X178831314Y-79642032D01*
X179079699Y-79670261D01*
X179353427Y-79705518D01*
X179623433Y-79744220D01*
X179680493Y-79753004D01*
X180874957Y-79982268D01*
X182050119Y-80293264D01*
X183200980Y-80684275D01*
X184322542Y-81153583D01*
X185409807Y-81699471D01*
X185516500Y-81758231D01*
X186270579Y-82164526D01*
X186999227Y-82532392D01*
X187693586Y-82857730D01*
X188344800Y-83136441D01*
X188944011Y-83364423D01*
X189109357Y-83421324D01*
X189611881Y-83589686D01*
X189934857Y-83476561D01*
X190441426Y-83272557D01*
X190913615Y-83029934D01*
X191335207Y-82758095D01*
X191689989Y-82466443D01*
X191710702Y-82446686D01*
X191870160Y-82267244D01*
X195919713Y-82267244D01*
X195925503Y-82270000D01*
X195964136Y-82240198D01*
X195972834Y-82227667D01*
X195983621Y-82188090D01*
X195977830Y-82185334D01*
X195939198Y-82215135D01*
X195930500Y-82227667D01*
X195919713Y-82267244D01*
X191870160Y-82267244D01*
X192036996Y-82079500D01*
X196036334Y-82079500D01*
X196057500Y-82100667D01*
X196078667Y-82079500D01*
X196057500Y-82058334D01*
X196036334Y-82079500D01*
X192036996Y-82079500D01*
X192042352Y-82073473D01*
X192119537Y-81952500D01*
X196121000Y-81952500D01*
X196142167Y-81973667D01*
X196163334Y-81952500D01*
X196142167Y-81931334D01*
X196121000Y-81952500D01*
X192119537Y-81952500D01*
X192311090Y-81652281D01*
X192517899Y-81180355D01*
X192663761Y-80654943D01*
X192749658Y-80073290D01*
X192776615Y-79457957D01*
X192772395Y-79163120D01*
X192758999Y-78863802D01*
X192735247Y-78553629D01*
X192699960Y-78226224D01*
X192651958Y-77875213D01*
X192590061Y-77494221D01*
X192513091Y-77076871D01*
X192419866Y-76616789D01*
X192309209Y-76107600D01*
X192179938Y-75542927D01*
X192030874Y-74916397D01*
X191860839Y-74221634D01*
X191668652Y-73452261D01*
X191656336Y-73403372D01*
X191539730Y-72938353D01*
X191424970Y-72476290D01*
X191314566Y-72027580D01*
X191211030Y-71602618D01*
X191116871Y-71211800D01*
X191034601Y-70865524D01*
X190966730Y-70574185D01*
X190915769Y-70348180D01*
X190894161Y-70247334D01*
X190690421Y-69174951D01*
X190537178Y-68164566D01*
X190434315Y-67210309D01*
X190384408Y-66352667D01*
X192618864Y-66352667D01*
X192622166Y-66444227D01*
X192630609Y-66469362D01*
X192637210Y-66447917D01*
X192644213Y-66324558D01*
X192637210Y-66257417D01*
X192626741Y-66237356D01*
X192620098Y-66290543D01*
X192618864Y-66352667D01*
X190384408Y-66352667D01*
X190381710Y-66306306D01*
X190379294Y-65463667D01*
X192607334Y-65463667D01*
X192622823Y-65498512D01*
X192635556Y-65491889D01*
X192640622Y-65441649D01*
X192635556Y-65435445D01*
X192610389Y-65441256D01*
X192607334Y-65463667D01*
X190379294Y-65463667D01*
X190379245Y-65446688D01*
X190426800Y-64625583D01*
X190524257Y-63837118D01*
X190671495Y-63075422D01*
X190742434Y-62784159D01*
X191005318Y-61931971D01*
X191345679Y-61113722D01*
X191763340Y-60329614D01*
X192258126Y-59579848D01*
X192829858Y-58864627D01*
X193478361Y-58184153D01*
X194203457Y-57538625D01*
X195004969Y-56928247D01*
X195882720Y-56353221D01*
X196836534Y-55813747D01*
X196871620Y-55795340D01*
X197447189Y-55494167D01*
X197577845Y-55194540D01*
X197826260Y-54720084D01*
X198129897Y-54305877D01*
X198484962Y-53955269D01*
X198887663Y-53671609D01*
X199334208Y-53458246D01*
X199661051Y-53354999D01*
X199955365Y-53301359D01*
X200292408Y-53274633D01*
X200639035Y-53275166D01*
X200962102Y-53303301D01*
X201155962Y-53339478D01*
X201513791Y-53455799D01*
X201877076Y-53625198D01*
X202206716Y-53828757D01*
X202279900Y-53883243D01*
X202407495Y-53977053D01*
X202513706Y-54045629D01*
X202577657Y-54075627D01*
X202581465Y-54076000D01*
X202647690Y-54067717D01*
X202770171Y-54045996D01*
X202922464Y-54015529D01*
X202923316Y-54015350D01*
X203291618Y-53948749D01*
X203718193Y-53889842D01*
X204176782Y-53841603D01*
X204641121Y-53807007D01*
X204859125Y-53796087D01*
X205680077Y-53796060D01*
X206482557Y-53863204D01*
X207256858Y-53995720D01*
X207993272Y-54191810D01*
X208682093Y-54449675D01*
X208884835Y-54542061D01*
X209080369Y-54643983D01*
X209314413Y-54779211D01*
X209562138Y-54932148D01*
X209798716Y-55087195D01*
X209999320Y-55228753D01*
X210091000Y-55299837D01*
X210173136Y-55360188D01*
X210226570Y-55387296D01*
X210227807Y-55387392D01*
X210266653Y-55363196D01*
X210367555Y-55293200D01*
X210524401Y-55181819D01*
X210731076Y-55033467D01*
X210981468Y-54852559D01*
X211269464Y-54643509D01*
X211588952Y-54410732D01*
X211933819Y-54158642D01*
X212190935Y-53970167D01*
X214493667Y-53970167D01*
X214514834Y-53991334D01*
X214536000Y-53970167D01*
X214514834Y-53949000D01*
X214493667Y-53970167D01*
X212190935Y-53970167D01*
X212238640Y-53935198D01*
X212535904Y-53717020D01*
X212894438Y-53453876D01*
X213307257Y-53150892D01*
X213767374Y-52813196D01*
X214267803Y-52445916D01*
X214801556Y-52054179D01*
X215361649Y-51643113D01*
X215941094Y-51217844D01*
X216532906Y-50783501D01*
X217130097Y-50345211D01*
X217725682Y-49908101D01*
X218312675Y-49477299D01*
X218520594Y-49324704D01*
X219059368Y-48929509D01*
X219290706Y-48760009D01*
X221865779Y-48760009D01*
X221875761Y-48782098D01*
X221899502Y-48784334D01*
X221956907Y-48753588D01*
X221965200Y-48742485D01*
X221958387Y-48718429D01*
X221925366Y-48725848D01*
X221865779Y-48760009D01*
X219290706Y-48760009D01*
X219580908Y-48547380D01*
X220080965Y-48181408D01*
X220555292Y-47834684D01*
X220999641Y-47510299D01*
X221409766Y-47211342D01*
X221781419Y-46940906D01*
X222110352Y-46702079D01*
X222392319Y-46497954D01*
X222623071Y-46331621D01*
X222798362Y-46206170D01*
X222913943Y-46124692D01*
X222965568Y-46090277D01*
X222965594Y-46090264D01*
X223117427Y-46039536D01*
X223317140Y-46013806D01*
X223532515Y-46013182D01*
X223731331Y-46037771D01*
G37*
M02*
