G04 #@! TF.GenerationSoftware,KiCad,Pcbnew,7.0.2.1-36-g582732918d-dirty-deb11*
G04 #@! TF.CreationDate,2024-01-19T22:58:33+00:00*
G04 #@! TF.ProjectId,unicorn_simple,756e6963-6f72-46e5-9f73-696d706c652e,rev?*
G04 #@! TF.SameCoordinates,Original*
G04 #@! TF.FileFunction,Legend,Bot*
G04 #@! TF.FilePolarity,Positive*
%FSLAX46Y46*%
G04 Gerber Fmt 4.6, Leading zero omitted, Abs format (unit mm)*
G04 Created by KiCad (PCBNEW 7.0.2.1-36-g582732918d-dirty-deb11) date 2024-01-19 22:58:33*
%MOMM*%
%LPD*%
G01*
G04 APERTURE LIST*
%ADD10C,0.000000*%
%ADD11C,0.150000*%
%ADD12C,0.200000*%
%ADD13C,0.300000*%
%ADD14C,0.120000*%
%ADD15C,0.010000*%
%ADD16R,5.000000X1.524000*%
%ADD17R,1.524000X5.000000*%
%ADD18R,3.350000X3.600000*%
%ADD19R,1.300000X3.150000*%
G04 APERTURE END LIST*
D10*
G36*
X210309167Y-78049584D02*
G01*
X209938750Y-78049584D01*
X209938750Y-77679167D01*
X210309167Y-77679167D01*
X210309167Y-78049584D01*
G37*
G36*
X215124583Y-75827084D02*
G01*
X214013333Y-75827084D01*
X214013333Y-74715834D01*
X215124583Y-74715834D01*
X215124583Y-75827084D01*
G37*
G36*
X215865417Y-76567917D02*
G01*
X213272500Y-76567917D01*
X213272500Y-74345418D01*
X213642917Y-74345418D01*
X213642917Y-76197501D01*
X215495000Y-76197501D01*
X215495000Y-74345418D01*
X213642917Y-74345418D01*
X213272500Y-74345418D01*
X213272500Y-73975001D01*
X215865417Y-73975001D01*
X215865417Y-76567917D01*
G37*
G36*
X208827501Y-79901667D02*
G01*
X208457084Y-79901667D01*
X208457084Y-79531250D01*
X208827501Y-79531250D01*
X208827501Y-79901667D01*
G37*
G36*
X209938750Y-83235417D02*
G01*
X209568334Y-83235417D01*
X209568334Y-82865000D01*
X209568334Y-82494584D01*
X209938750Y-82494584D01*
X209938750Y-83235417D01*
G37*
G36*
X208457084Y-80272084D02*
G01*
X208086668Y-80272084D01*
X208086668Y-79901667D01*
X208457084Y-79901667D01*
X208457084Y-80272084D01*
G37*
G36*
X215495000Y-81753750D02*
G01*
X215865417Y-81753750D01*
X215865417Y-83235417D01*
X215495000Y-83235417D01*
X215495000Y-82865000D01*
X214754166Y-82865000D01*
X214754166Y-83235417D01*
X214383750Y-83235417D01*
X214383750Y-82865000D01*
X213642917Y-82865000D01*
X213642917Y-82494584D01*
X214013333Y-82494584D01*
X214383750Y-82494584D01*
X214383750Y-82865000D01*
X214754166Y-82865000D01*
X214754166Y-82494584D01*
X214383750Y-82494584D01*
X214013333Y-82494584D01*
X214013333Y-82124167D01*
X215124583Y-82124167D01*
X215124583Y-81383334D01*
X215495000Y-81383334D01*
X215495000Y-81753750D01*
G37*
G36*
X210309167Y-75086251D02*
G01*
X209938750Y-75086251D01*
X209938750Y-74715834D01*
X210309167Y-74715834D01*
X210309167Y-75086251D01*
G37*
G36*
X211790833Y-80272084D02*
G01*
X211420417Y-80272084D01*
X211420417Y-79901667D01*
X211790833Y-79901667D01*
X211790833Y-80272084D01*
G37*
G36*
X213642917Y-81012917D02*
G01*
X213272500Y-81012917D01*
X213272500Y-80642500D01*
X213642917Y-80642500D01*
X213642917Y-81012917D01*
G37*
G36*
X212161250Y-74345418D02*
G01*
X211420417Y-74345418D01*
X211420417Y-73975001D01*
X212161250Y-73975001D01*
X212161250Y-74345418D01*
G37*
G36*
X210309167Y-76197501D02*
G01*
X209938750Y-76197501D01*
X209938750Y-75827084D01*
X210309167Y-75827084D01*
X210309167Y-76197501D01*
G37*
G36*
X211050000Y-74345418D02*
G01*
X211420417Y-74345418D01*
X211420417Y-74715834D01*
X211050000Y-74715834D01*
X211050000Y-75086251D01*
X211420417Y-75086251D01*
X211420417Y-74715834D01*
X211790833Y-74715834D01*
X211790833Y-75456668D01*
X211420417Y-75456668D01*
X211420417Y-75827084D01*
X211050000Y-75827084D01*
X211050000Y-76197501D01*
X210679584Y-76197501D01*
X210679584Y-75827084D01*
X210309167Y-75827084D01*
X210309167Y-75086251D01*
X210679584Y-75086251D01*
X210679584Y-74345418D01*
X209568334Y-74345418D01*
X209568334Y-73975001D01*
X211050000Y-73975001D01*
X211050000Y-74345418D01*
G37*
G36*
X207345834Y-77308750D02*
G01*
X207716251Y-77308750D01*
X207716251Y-76938334D01*
X208457084Y-76938334D01*
X208457084Y-77308750D01*
X208086667Y-77308750D01*
X208086667Y-78420000D01*
X211050000Y-78420000D01*
X211050000Y-79160834D01*
X210309167Y-79160834D01*
X210309167Y-78790417D01*
X208086667Y-78790417D01*
X208086667Y-79531250D01*
X207716251Y-79531250D01*
X207716251Y-80272084D01*
X207345834Y-80272084D01*
X207345834Y-79531250D01*
X206975417Y-79531250D01*
X206975417Y-80272084D01*
X206605001Y-80272084D01*
X206605001Y-78790417D01*
X207345834Y-78790417D01*
X207345834Y-79531250D01*
X207716251Y-79531250D01*
X207716251Y-78790417D01*
X207345834Y-78790417D01*
X206605001Y-78790417D01*
X206605001Y-78420000D01*
X207345834Y-78420000D01*
X207345834Y-78049584D01*
X207716251Y-78049584D01*
X207716251Y-77679167D01*
X206975417Y-77679167D01*
X206975417Y-78049584D01*
X206605001Y-78049584D01*
X206605001Y-76938334D01*
X207345834Y-76938334D01*
X207345834Y-77308750D01*
G37*
G36*
X209938750Y-76567917D02*
G01*
X210309167Y-76567917D01*
X210309167Y-77308750D01*
X209938750Y-77308750D01*
X209938750Y-76938334D01*
X209568334Y-76938334D01*
X209568334Y-76197501D01*
X209938750Y-76197501D01*
X209938750Y-76567917D01*
G37*
G36*
X208457084Y-75827084D02*
G01*
X207345834Y-75827084D01*
X207345834Y-74715834D01*
X208457084Y-74715834D01*
X208457084Y-75827084D01*
G37*
G36*
X212161250Y-76567917D02*
G01*
X211790833Y-76567917D01*
X211790833Y-76938334D01*
X211420417Y-76938334D01*
X211420417Y-77308750D01*
X212161250Y-77308750D01*
X212161250Y-76567917D01*
X212531667Y-76567917D01*
X212531667Y-77679167D01*
X212902083Y-77679167D01*
X212902083Y-78790417D01*
X213272500Y-78790417D01*
X213272500Y-79160834D01*
X213642917Y-79160834D01*
X213642917Y-79531250D01*
X213272500Y-79531250D01*
X213272500Y-79901667D01*
X213642917Y-79901667D01*
X213642917Y-79531250D01*
X214013333Y-79531250D01*
X214013333Y-79901667D01*
X214383750Y-79901667D01*
X214383750Y-79531250D01*
X215124583Y-79531250D01*
X215124583Y-79901667D01*
X215495000Y-79901667D01*
X215495000Y-79531250D01*
X215124583Y-79531250D01*
X214383750Y-79531250D01*
X214013333Y-79531250D01*
X214013333Y-78790417D01*
X214383750Y-78790417D01*
X214383750Y-79160834D01*
X215124583Y-79160834D01*
X215124583Y-78790417D01*
X215495000Y-78790417D01*
X215495000Y-78420000D01*
X214383750Y-78420000D01*
X214383750Y-77679167D01*
X214013333Y-77679167D01*
X214013333Y-78420000D01*
X213642917Y-78420000D01*
X213642917Y-78049584D01*
X213272500Y-78049584D01*
X213272500Y-77679167D01*
X212902083Y-77679167D01*
X212902083Y-77308750D01*
X213272500Y-77308750D01*
X213272500Y-76938334D01*
X213642917Y-76938334D01*
X213642917Y-77308750D01*
X213272500Y-77308750D01*
X213272500Y-77679167D01*
X213642917Y-77679167D01*
X213642917Y-77308750D01*
X215495000Y-77308750D01*
X215495000Y-77679167D01*
X214754166Y-77679167D01*
X214754166Y-78049584D01*
X215495000Y-78049584D01*
X215495000Y-77679167D01*
X215865417Y-77679167D01*
X215865417Y-78790417D01*
X215495000Y-78790417D01*
X215495000Y-79160834D01*
X215865417Y-79160834D01*
X215865417Y-79901667D01*
X215495000Y-79901667D01*
X215495000Y-80642500D01*
X214754166Y-80642500D01*
X214754166Y-79901667D01*
X214383750Y-79901667D01*
X214383750Y-81753750D01*
X213642917Y-81753750D01*
X213642917Y-82124167D01*
X213272500Y-82124167D01*
X213272500Y-82494584D01*
X212161250Y-82494584D01*
X212161250Y-82865000D01*
X211790833Y-82865000D01*
X211790833Y-82494584D01*
X211420417Y-82494584D01*
X211420417Y-83235417D01*
X211050000Y-83235417D01*
X211050000Y-82494584D01*
X210679584Y-82494584D01*
X210679584Y-82124167D01*
X210309167Y-82124167D01*
X210309167Y-81753750D01*
X210679584Y-81753750D01*
X210679584Y-81383334D01*
X209938751Y-81383334D01*
X209938751Y-81012917D01*
X210679584Y-81012917D01*
X210679584Y-81383334D01*
X211050000Y-81383334D01*
X211050000Y-81012917D01*
X210679584Y-81012917D01*
X209938751Y-81012917D01*
X209938751Y-80642500D01*
X210309167Y-80642500D01*
X210309167Y-80272084D01*
X209938750Y-80272084D01*
X209938750Y-80642500D01*
X209568334Y-80642500D01*
X209568334Y-80272084D01*
X208827501Y-80272084D01*
X208827501Y-79901667D01*
X209197917Y-79901667D01*
X209197917Y-79531250D01*
X208827501Y-79531250D01*
X208827501Y-79160834D01*
X209938751Y-79160834D01*
X209938751Y-79901667D01*
X210309167Y-79901667D01*
X210309167Y-79531250D01*
X210679584Y-79531250D01*
X210679584Y-79901667D01*
X211050001Y-79901667D01*
X211050001Y-80272084D01*
X210679584Y-80272084D01*
X210679584Y-80642500D01*
X211050001Y-80642500D01*
X211050001Y-81012917D01*
X211420417Y-81012917D01*
X211420417Y-80642500D01*
X211790833Y-80642500D01*
X211790833Y-81383334D01*
X211420417Y-81383334D01*
X211420417Y-81753750D01*
X211050000Y-81753750D01*
X211050000Y-82494584D01*
X211420417Y-82494584D01*
X211420417Y-82124167D01*
X211790833Y-82124167D01*
X211790833Y-82494584D01*
X212161250Y-82494584D01*
X212161250Y-82124167D01*
X211790833Y-82124167D01*
X211420417Y-82124167D01*
X211420417Y-81753750D01*
X212161250Y-81753750D01*
X212161250Y-82124167D01*
X212531667Y-82124167D01*
X212531667Y-81753750D01*
X212902083Y-81753750D01*
X212902083Y-82124167D01*
X213272500Y-82124167D01*
X213272500Y-81753750D01*
X212902083Y-81753750D01*
X212531667Y-81753750D01*
X212161250Y-81753750D01*
X212161250Y-81012917D01*
X212531667Y-81012917D01*
X212531667Y-80272084D01*
X212902083Y-80272084D01*
X212902083Y-81383334D01*
X214013333Y-81383334D01*
X214013333Y-80272084D01*
X212902083Y-80272084D01*
X212531667Y-80272084D01*
X212161250Y-80272084D01*
X212161250Y-79901667D01*
X212531667Y-79901667D01*
X212531667Y-79531250D01*
X212902083Y-79531250D01*
X212902083Y-79160834D01*
X212531667Y-79160834D01*
X212531667Y-79531250D01*
X212161250Y-79531250D01*
X212161250Y-79901667D01*
X211790833Y-79901667D01*
X211790833Y-79531250D01*
X211050000Y-79531250D01*
X211050000Y-79160834D01*
X211420417Y-79160834D01*
X211420417Y-78790417D01*
X212161250Y-78790417D01*
X212161250Y-77679167D01*
X211790833Y-77679167D01*
X211790833Y-78049584D01*
X211420417Y-78049584D01*
X211420417Y-77679167D01*
X211050000Y-77679167D01*
X211050000Y-78049584D01*
X210679584Y-78049584D01*
X210679584Y-77679167D01*
X210309167Y-77679167D01*
X210309167Y-77308750D01*
X210679584Y-77308750D01*
X210679584Y-76567917D01*
X211050000Y-76567917D01*
X211050000Y-76938334D01*
X211420417Y-76938334D01*
X211420417Y-76567917D01*
X211050000Y-76567917D01*
X211050000Y-76197501D01*
X211420417Y-76197501D01*
X211420417Y-76567917D01*
X211790833Y-76567917D01*
X211790833Y-75827084D01*
X212161250Y-75827084D01*
X212161250Y-76567917D01*
G37*
G36*
X209197917Y-83235417D02*
G01*
X206605001Y-83235417D01*
X206605001Y-81012917D01*
X206975418Y-81012917D01*
X206975418Y-82865000D01*
X208827501Y-82865000D01*
X208827501Y-81012917D01*
X206975418Y-81012917D01*
X206605001Y-81012917D01*
X206605001Y-80642500D01*
X209197917Y-80642500D01*
X209197917Y-83235417D01*
G37*
G36*
X215865417Y-77308750D02*
G01*
X215495000Y-77308750D01*
X215495000Y-76938334D01*
X215865417Y-76938334D01*
X215865417Y-77308750D01*
G37*
G36*
X213272500Y-83235417D02*
G01*
X212531667Y-83235417D01*
X212531667Y-82865000D01*
X213272500Y-82865000D01*
X213272500Y-83235417D01*
G37*
G36*
X212902083Y-76567917D02*
G01*
X212531667Y-76567917D01*
X212531667Y-75086251D01*
X212161250Y-75086251D01*
X212161250Y-74715834D01*
X212531667Y-74715834D01*
X212531667Y-74345417D01*
X212902083Y-74345417D01*
X212902083Y-76567917D01*
G37*
G36*
X209938750Y-82124167D02*
G01*
X209568334Y-82124167D01*
X209568334Y-81383334D01*
X209938750Y-81383334D01*
X209938750Y-82124167D01*
G37*
G36*
X215865417Y-81383334D02*
G01*
X215495000Y-81383334D01*
X215495000Y-80642500D01*
X215865417Y-80642500D01*
X215865417Y-81383334D01*
G37*
G36*
X210309167Y-82494584D02*
G01*
X209938751Y-82494584D01*
X209938751Y-82124167D01*
X210309167Y-82124167D01*
X210309167Y-82494584D01*
G37*
G36*
X209197917Y-77308750D02*
G01*
X208827501Y-77308750D01*
X208827501Y-77679167D01*
X209197917Y-77679167D01*
X209197917Y-77308750D01*
X209938750Y-77308750D01*
X209938750Y-77679167D01*
X209568334Y-77679167D01*
X209568334Y-78049584D01*
X208457084Y-78049584D01*
X208457084Y-77308750D01*
X208827501Y-77308750D01*
X208827501Y-76938334D01*
X209197917Y-76938334D01*
X209197917Y-77308750D01*
G37*
G36*
X208457084Y-82494584D02*
G01*
X207345834Y-82494584D01*
X207345834Y-81383334D01*
X208457084Y-81383334D01*
X208457084Y-82494584D01*
G37*
G36*
X210679584Y-76567917D02*
G01*
X210309167Y-76567917D01*
X210309167Y-76197501D01*
X210679584Y-76197501D01*
X210679584Y-76567917D01*
G37*
G36*
X209197917Y-76567917D02*
G01*
X206605001Y-76567917D01*
X206605001Y-74345418D01*
X206975418Y-74345418D01*
X206975418Y-76197501D01*
X208827501Y-76197501D01*
X208827501Y-74345418D01*
X206975418Y-74345418D01*
X206605001Y-74345418D01*
X206605001Y-73975001D01*
X209197917Y-73975001D01*
X209197917Y-76567917D01*
G37*
G36*
X211420417Y-78420000D02*
G01*
X211050000Y-78420000D01*
X211050000Y-78049584D01*
X211420417Y-78049584D01*
X211420417Y-78420000D01*
G37*
G36*
X213642917Y-78790417D02*
G01*
X213272500Y-78790417D01*
X213272500Y-78420000D01*
X213642917Y-78420000D01*
X213642917Y-78790417D01*
G37*
D11*
X186657642Y-115985714D02*
X185929071Y-115985714D01*
X185929071Y-115985714D02*
X185843357Y-115942857D01*
X185843357Y-115942857D02*
X185800500Y-115900000D01*
X185800500Y-115900000D02*
X185757642Y-115814285D01*
X185757642Y-115814285D02*
X185757642Y-115642857D01*
X185757642Y-115642857D02*
X185800500Y-115557142D01*
X185800500Y-115557142D02*
X185843357Y-115514285D01*
X185843357Y-115514285D02*
X185929071Y-115471428D01*
X185929071Y-115471428D02*
X186657642Y-115471428D01*
X186357642Y-115042857D02*
X185757642Y-115042857D01*
X186271928Y-115042857D02*
X186314785Y-115000000D01*
X186314785Y-115000000D02*
X186357642Y-114914285D01*
X186357642Y-114914285D02*
X186357642Y-114785714D01*
X186357642Y-114785714D02*
X186314785Y-114700000D01*
X186314785Y-114700000D02*
X186229071Y-114657143D01*
X186229071Y-114657143D02*
X185757642Y-114657143D01*
X185757642Y-114228571D02*
X186357642Y-114228571D01*
X186657642Y-114228571D02*
X186614785Y-114271428D01*
X186614785Y-114271428D02*
X186571928Y-114228571D01*
X186571928Y-114228571D02*
X186614785Y-114185714D01*
X186614785Y-114185714D02*
X186657642Y-114228571D01*
X186657642Y-114228571D02*
X186571928Y-114228571D01*
X185800500Y-113414286D02*
X185757642Y-113500000D01*
X185757642Y-113500000D02*
X185757642Y-113671428D01*
X185757642Y-113671428D02*
X185800500Y-113757143D01*
X185800500Y-113757143D02*
X185843357Y-113800000D01*
X185843357Y-113800000D02*
X185929071Y-113842857D01*
X185929071Y-113842857D02*
X186186214Y-113842857D01*
X186186214Y-113842857D02*
X186271928Y-113800000D01*
X186271928Y-113800000D02*
X186314785Y-113757143D01*
X186314785Y-113757143D02*
X186357642Y-113671428D01*
X186357642Y-113671428D02*
X186357642Y-113500000D01*
X186357642Y-113500000D02*
X186314785Y-113414286D01*
X185757642Y-112899999D02*
X185800500Y-112985714D01*
X185800500Y-112985714D02*
X185843357Y-113028571D01*
X185843357Y-113028571D02*
X185929071Y-113071428D01*
X185929071Y-113071428D02*
X186186214Y-113071428D01*
X186186214Y-113071428D02*
X186271928Y-113028571D01*
X186271928Y-113028571D02*
X186314785Y-112985714D01*
X186314785Y-112985714D02*
X186357642Y-112899999D01*
X186357642Y-112899999D02*
X186357642Y-112771428D01*
X186357642Y-112771428D02*
X186314785Y-112685714D01*
X186314785Y-112685714D02*
X186271928Y-112642857D01*
X186271928Y-112642857D02*
X186186214Y-112599999D01*
X186186214Y-112599999D02*
X185929071Y-112599999D01*
X185929071Y-112599999D02*
X185843357Y-112642857D01*
X185843357Y-112642857D02*
X185800500Y-112685714D01*
X185800500Y-112685714D02*
X185757642Y-112771428D01*
X185757642Y-112771428D02*
X185757642Y-112899999D01*
X185757642Y-112214285D02*
X186357642Y-112214285D01*
X186186214Y-112214285D02*
X186271928Y-112171428D01*
X186271928Y-112171428D02*
X186314785Y-112128571D01*
X186314785Y-112128571D02*
X186357642Y-112042856D01*
X186357642Y-112042856D02*
X186357642Y-111957142D01*
X186357642Y-111657142D02*
X185757642Y-111657142D01*
X186271928Y-111657142D02*
X186314785Y-111614285D01*
X186314785Y-111614285D02*
X186357642Y-111528570D01*
X186357642Y-111528570D02*
X186357642Y-111399999D01*
X186357642Y-111399999D02*
X186314785Y-111314285D01*
X186314785Y-111314285D02*
X186229071Y-111271428D01*
X186229071Y-111271428D02*
X185757642Y-111271428D01*
X185800500Y-110199999D02*
X185757642Y-110071428D01*
X185757642Y-110071428D02*
X185757642Y-109857142D01*
X185757642Y-109857142D02*
X185800500Y-109771428D01*
X185800500Y-109771428D02*
X185843357Y-109728570D01*
X185843357Y-109728570D02*
X185929071Y-109685713D01*
X185929071Y-109685713D02*
X186014785Y-109685713D01*
X186014785Y-109685713D02*
X186100500Y-109728570D01*
X186100500Y-109728570D02*
X186143357Y-109771428D01*
X186143357Y-109771428D02*
X186186214Y-109857142D01*
X186186214Y-109857142D02*
X186229071Y-110028570D01*
X186229071Y-110028570D02*
X186271928Y-110114285D01*
X186271928Y-110114285D02*
X186314785Y-110157142D01*
X186314785Y-110157142D02*
X186400500Y-110199999D01*
X186400500Y-110199999D02*
X186486214Y-110199999D01*
X186486214Y-110199999D02*
X186571928Y-110157142D01*
X186571928Y-110157142D02*
X186614785Y-110114285D01*
X186614785Y-110114285D02*
X186657642Y-110028570D01*
X186657642Y-110028570D02*
X186657642Y-109814285D01*
X186657642Y-109814285D02*
X186614785Y-109685713D01*
X185113928Y-116028571D02*
X185156785Y-115985714D01*
X185156785Y-115985714D02*
X185199642Y-115900000D01*
X185199642Y-115900000D02*
X185199642Y-115685714D01*
X185199642Y-115685714D02*
X185156785Y-115600000D01*
X185156785Y-115600000D02*
X185113928Y-115557142D01*
X185113928Y-115557142D02*
X185028214Y-115514285D01*
X185028214Y-115514285D02*
X184942500Y-115514285D01*
X184942500Y-115514285D02*
X184813928Y-115557142D01*
X184813928Y-115557142D02*
X184299642Y-116071428D01*
X184299642Y-116071428D02*
X184299642Y-115514285D01*
X185199642Y-114957142D02*
X185199642Y-114871428D01*
X185199642Y-114871428D02*
X185156785Y-114785714D01*
X185156785Y-114785714D02*
X185113928Y-114742857D01*
X185113928Y-114742857D02*
X185028214Y-114699999D01*
X185028214Y-114699999D02*
X184856785Y-114657142D01*
X184856785Y-114657142D02*
X184642500Y-114657142D01*
X184642500Y-114657142D02*
X184471071Y-114699999D01*
X184471071Y-114699999D02*
X184385357Y-114742857D01*
X184385357Y-114742857D02*
X184342500Y-114785714D01*
X184342500Y-114785714D02*
X184299642Y-114871428D01*
X184299642Y-114871428D02*
X184299642Y-114957142D01*
X184299642Y-114957142D02*
X184342500Y-115042857D01*
X184342500Y-115042857D02*
X184385357Y-115085714D01*
X184385357Y-115085714D02*
X184471071Y-115128571D01*
X184471071Y-115128571D02*
X184642500Y-115171428D01*
X184642500Y-115171428D02*
X184856785Y-115171428D01*
X184856785Y-115171428D02*
X185028214Y-115128571D01*
X185028214Y-115128571D02*
X185113928Y-115085714D01*
X185113928Y-115085714D02*
X185156785Y-115042857D01*
X185156785Y-115042857D02*
X185199642Y-114957142D01*
X185113928Y-114314285D02*
X185156785Y-114271428D01*
X185156785Y-114271428D02*
X185199642Y-114185714D01*
X185199642Y-114185714D02*
X185199642Y-113971428D01*
X185199642Y-113971428D02*
X185156785Y-113885714D01*
X185156785Y-113885714D02*
X185113928Y-113842856D01*
X185113928Y-113842856D02*
X185028214Y-113799999D01*
X185028214Y-113799999D02*
X184942500Y-113799999D01*
X184942500Y-113799999D02*
X184813928Y-113842856D01*
X184813928Y-113842856D02*
X184299642Y-114357142D01*
X184299642Y-114357142D02*
X184299642Y-113799999D01*
X185199642Y-113499999D02*
X185199642Y-112942856D01*
X185199642Y-112942856D02*
X184856785Y-113242856D01*
X184856785Y-113242856D02*
X184856785Y-113114285D01*
X184856785Y-113114285D02*
X184813928Y-113028571D01*
X184813928Y-113028571D02*
X184771071Y-112985713D01*
X184771071Y-112985713D02*
X184685357Y-112942856D01*
X184685357Y-112942856D02*
X184471071Y-112942856D01*
X184471071Y-112942856D02*
X184385357Y-112985713D01*
X184385357Y-112985713D02*
X184342500Y-113028571D01*
X184342500Y-113028571D02*
X184299642Y-113114285D01*
X184299642Y-113114285D02*
X184299642Y-113371428D01*
X184299642Y-113371428D02*
X184342500Y-113457142D01*
X184342500Y-113457142D02*
X184385357Y-113499999D01*
X184642500Y-112557142D02*
X184642500Y-111871428D01*
X184299642Y-110971427D02*
X184299642Y-111485713D01*
X184299642Y-111228570D02*
X185199642Y-111228570D01*
X185199642Y-111228570D02*
X185071071Y-111314284D01*
X185071071Y-111314284D02*
X184985357Y-111399999D01*
X184985357Y-111399999D02*
X184942500Y-111485713D01*
X185199642Y-110414284D02*
X185199642Y-110328570D01*
X185199642Y-110328570D02*
X185156785Y-110242856D01*
X185156785Y-110242856D02*
X185113928Y-110199999D01*
X185113928Y-110199999D02*
X185028214Y-110157141D01*
X185028214Y-110157141D02*
X184856785Y-110114284D01*
X184856785Y-110114284D02*
X184642500Y-110114284D01*
X184642500Y-110114284D02*
X184471071Y-110157141D01*
X184471071Y-110157141D02*
X184385357Y-110199999D01*
X184385357Y-110199999D02*
X184342500Y-110242856D01*
X184342500Y-110242856D02*
X184299642Y-110328570D01*
X184299642Y-110328570D02*
X184299642Y-110414284D01*
X184299642Y-110414284D02*
X184342500Y-110499999D01*
X184342500Y-110499999D02*
X184385357Y-110542856D01*
X184385357Y-110542856D02*
X184471071Y-110585713D01*
X184471071Y-110585713D02*
X184642500Y-110628570D01*
X184642500Y-110628570D02*
X184856785Y-110628570D01*
X184856785Y-110628570D02*
X185028214Y-110585713D01*
X185028214Y-110585713D02*
X185113928Y-110542856D01*
X185113928Y-110542856D02*
X185156785Y-110499999D01*
X185156785Y-110499999D02*
X185199642Y-110414284D01*
X184642500Y-109728570D02*
X184642500Y-109042856D01*
X185113928Y-108657141D02*
X185156785Y-108614284D01*
X185156785Y-108614284D02*
X185199642Y-108528570D01*
X185199642Y-108528570D02*
X185199642Y-108314284D01*
X185199642Y-108314284D02*
X185156785Y-108228570D01*
X185156785Y-108228570D02*
X185113928Y-108185712D01*
X185113928Y-108185712D02*
X185028214Y-108142855D01*
X185028214Y-108142855D02*
X184942500Y-108142855D01*
X184942500Y-108142855D02*
X184813928Y-108185712D01*
X184813928Y-108185712D02*
X184299642Y-108699998D01*
X184299642Y-108699998D02*
X184299642Y-108142855D01*
X184813928Y-107628569D02*
X184856785Y-107714284D01*
X184856785Y-107714284D02*
X184899642Y-107757141D01*
X184899642Y-107757141D02*
X184985357Y-107799998D01*
X184985357Y-107799998D02*
X185028214Y-107799998D01*
X185028214Y-107799998D02*
X185113928Y-107757141D01*
X185113928Y-107757141D02*
X185156785Y-107714284D01*
X185156785Y-107714284D02*
X185199642Y-107628569D01*
X185199642Y-107628569D02*
X185199642Y-107457141D01*
X185199642Y-107457141D02*
X185156785Y-107371427D01*
X185156785Y-107371427D02*
X185113928Y-107328569D01*
X185113928Y-107328569D02*
X185028214Y-107285712D01*
X185028214Y-107285712D02*
X184985357Y-107285712D01*
X184985357Y-107285712D02*
X184899642Y-107328569D01*
X184899642Y-107328569D02*
X184856785Y-107371427D01*
X184856785Y-107371427D02*
X184813928Y-107457141D01*
X184813928Y-107457141D02*
X184813928Y-107628569D01*
X184813928Y-107628569D02*
X184771071Y-107714284D01*
X184771071Y-107714284D02*
X184728214Y-107757141D01*
X184728214Y-107757141D02*
X184642500Y-107799998D01*
X184642500Y-107799998D02*
X184471071Y-107799998D01*
X184471071Y-107799998D02*
X184385357Y-107757141D01*
X184385357Y-107757141D02*
X184342500Y-107714284D01*
X184342500Y-107714284D02*
X184299642Y-107628569D01*
X184299642Y-107628569D02*
X184299642Y-107457141D01*
X184299642Y-107457141D02*
X184342500Y-107371427D01*
X184342500Y-107371427D02*
X184385357Y-107328569D01*
X184385357Y-107328569D02*
X184471071Y-107285712D01*
X184471071Y-107285712D02*
X184642500Y-107285712D01*
X184642500Y-107285712D02*
X184728214Y-107328569D01*
X184728214Y-107328569D02*
X184771071Y-107371427D01*
X184771071Y-107371427D02*
X184813928Y-107457141D01*
X182927357Y-115471428D02*
X182884500Y-115514285D01*
X182884500Y-115514285D02*
X182841642Y-115642857D01*
X182841642Y-115642857D02*
X182841642Y-115728571D01*
X182841642Y-115728571D02*
X182884500Y-115857142D01*
X182884500Y-115857142D02*
X182970214Y-115942857D01*
X182970214Y-115942857D02*
X183055928Y-115985714D01*
X183055928Y-115985714D02*
X183227357Y-116028571D01*
X183227357Y-116028571D02*
X183355928Y-116028571D01*
X183355928Y-116028571D02*
X183527357Y-115985714D01*
X183527357Y-115985714D02*
X183613071Y-115942857D01*
X183613071Y-115942857D02*
X183698785Y-115857142D01*
X183698785Y-115857142D02*
X183741642Y-115728571D01*
X183741642Y-115728571D02*
X183741642Y-115642857D01*
X183741642Y-115642857D02*
X183698785Y-115514285D01*
X183698785Y-115514285D02*
X183655928Y-115471428D01*
X182927357Y-114571428D02*
X182884500Y-114614285D01*
X182884500Y-114614285D02*
X182841642Y-114742857D01*
X182841642Y-114742857D02*
X182841642Y-114828571D01*
X182841642Y-114828571D02*
X182884500Y-114957142D01*
X182884500Y-114957142D02*
X182970214Y-115042857D01*
X182970214Y-115042857D02*
X183055928Y-115085714D01*
X183055928Y-115085714D02*
X183227357Y-115128571D01*
X183227357Y-115128571D02*
X183355928Y-115128571D01*
X183355928Y-115128571D02*
X183527357Y-115085714D01*
X183527357Y-115085714D02*
X183613071Y-115042857D01*
X183613071Y-115042857D02*
X183698785Y-114957142D01*
X183698785Y-114957142D02*
X183741642Y-114828571D01*
X183741642Y-114828571D02*
X183741642Y-114742857D01*
X183741642Y-114742857D02*
X183698785Y-114614285D01*
X183698785Y-114614285D02*
X183655928Y-114571428D01*
X183184500Y-114185714D02*
X183184500Y-113500000D01*
X183313071Y-112771428D02*
X183270214Y-112642856D01*
X183270214Y-112642856D02*
X183227357Y-112599999D01*
X183227357Y-112599999D02*
X183141642Y-112557142D01*
X183141642Y-112557142D02*
X183013071Y-112557142D01*
X183013071Y-112557142D02*
X182927357Y-112599999D01*
X182927357Y-112599999D02*
X182884500Y-112642856D01*
X182884500Y-112642856D02*
X182841642Y-112728571D01*
X182841642Y-112728571D02*
X182841642Y-113071428D01*
X182841642Y-113071428D02*
X183741642Y-113071428D01*
X183741642Y-113071428D02*
X183741642Y-112771428D01*
X183741642Y-112771428D02*
X183698785Y-112685714D01*
X183698785Y-112685714D02*
X183655928Y-112642856D01*
X183655928Y-112642856D02*
X183570214Y-112599999D01*
X183570214Y-112599999D02*
X183484500Y-112599999D01*
X183484500Y-112599999D02*
X183398785Y-112642856D01*
X183398785Y-112642856D02*
X183355928Y-112685714D01*
X183355928Y-112685714D02*
X183313071Y-112771428D01*
X183313071Y-112771428D02*
X183313071Y-113071428D01*
X183270214Y-111999999D02*
X182841642Y-111999999D01*
X183741642Y-112299999D02*
X183270214Y-111999999D01*
X183270214Y-111999999D02*
X183741642Y-111699999D01*
X183184500Y-111399999D02*
X183184500Y-110714285D01*
X182884500Y-110328570D02*
X182841642Y-110199999D01*
X182841642Y-110199999D02*
X182841642Y-109985713D01*
X182841642Y-109985713D02*
X182884500Y-109899999D01*
X182884500Y-109899999D02*
X182927357Y-109857141D01*
X182927357Y-109857141D02*
X183013071Y-109814284D01*
X183013071Y-109814284D02*
X183098785Y-109814284D01*
X183098785Y-109814284D02*
X183184500Y-109857141D01*
X183184500Y-109857141D02*
X183227357Y-109899999D01*
X183227357Y-109899999D02*
X183270214Y-109985713D01*
X183270214Y-109985713D02*
X183313071Y-110157141D01*
X183313071Y-110157141D02*
X183355928Y-110242856D01*
X183355928Y-110242856D02*
X183398785Y-110285713D01*
X183398785Y-110285713D02*
X183484500Y-110328570D01*
X183484500Y-110328570D02*
X183570214Y-110328570D01*
X183570214Y-110328570D02*
X183655928Y-110285713D01*
X183655928Y-110285713D02*
X183698785Y-110242856D01*
X183698785Y-110242856D02*
X183741642Y-110157141D01*
X183741642Y-110157141D02*
X183741642Y-109942856D01*
X183741642Y-109942856D02*
X183698785Y-109814284D01*
X183098785Y-109471427D02*
X183098785Y-109042856D01*
X182841642Y-109557141D02*
X183741642Y-109257141D01*
X183741642Y-109257141D02*
X182841642Y-108957141D01*
X183441642Y-107585713D02*
X182841642Y-107585713D01*
X183784500Y-107799998D02*
X183141642Y-108014284D01*
X183141642Y-108014284D02*
X183141642Y-107457141D01*
X182927357Y-107114284D02*
X182884500Y-107071427D01*
X182884500Y-107071427D02*
X182841642Y-107114284D01*
X182841642Y-107114284D02*
X182884500Y-107157141D01*
X182884500Y-107157141D02*
X182927357Y-107114284D01*
X182927357Y-107114284D02*
X182841642Y-107114284D01*
X183741642Y-106514284D02*
X183741642Y-106428570D01*
X183741642Y-106428570D02*
X183698785Y-106342856D01*
X183698785Y-106342856D02*
X183655928Y-106299999D01*
X183655928Y-106299999D02*
X183570214Y-106257141D01*
X183570214Y-106257141D02*
X183398785Y-106214284D01*
X183398785Y-106214284D02*
X183184500Y-106214284D01*
X183184500Y-106214284D02*
X183013071Y-106257141D01*
X183013071Y-106257141D02*
X182927357Y-106299999D01*
X182927357Y-106299999D02*
X182884500Y-106342856D01*
X182884500Y-106342856D02*
X182841642Y-106428570D01*
X182841642Y-106428570D02*
X182841642Y-106514284D01*
X182841642Y-106514284D02*
X182884500Y-106599999D01*
X182884500Y-106599999D02*
X182927357Y-106642856D01*
X182927357Y-106642856D02*
X183013071Y-106685713D01*
X183013071Y-106685713D02*
X183184500Y-106728570D01*
X183184500Y-106728570D02*
X183398785Y-106728570D01*
X183398785Y-106728570D02*
X183570214Y-106685713D01*
X183570214Y-106685713D02*
X183655928Y-106642856D01*
X183655928Y-106642856D02*
X183698785Y-106599999D01*
X183698785Y-106599999D02*
X183741642Y-106514284D01*
X181855071Y-115685714D02*
X181812214Y-115557142D01*
X181812214Y-115557142D02*
X181769357Y-115514285D01*
X181769357Y-115514285D02*
X181683642Y-115471428D01*
X181683642Y-115471428D02*
X181555071Y-115471428D01*
X181555071Y-115471428D02*
X181469357Y-115514285D01*
X181469357Y-115514285D02*
X181426500Y-115557142D01*
X181426500Y-115557142D02*
X181383642Y-115642857D01*
X181383642Y-115642857D02*
X181383642Y-115985714D01*
X181383642Y-115985714D02*
X182283642Y-115985714D01*
X182283642Y-115985714D02*
X182283642Y-115685714D01*
X182283642Y-115685714D02*
X182240785Y-115600000D01*
X182240785Y-115600000D02*
X182197928Y-115557142D01*
X182197928Y-115557142D02*
X182112214Y-115514285D01*
X182112214Y-115514285D02*
X182026500Y-115514285D01*
X182026500Y-115514285D02*
X181940785Y-115557142D01*
X181940785Y-115557142D02*
X181897928Y-115600000D01*
X181897928Y-115600000D02*
X181855071Y-115685714D01*
X181855071Y-115685714D02*
X181855071Y-115985714D01*
X181383642Y-115085714D02*
X181983642Y-115085714D01*
X182283642Y-115085714D02*
X182240785Y-115128571D01*
X182240785Y-115128571D02*
X182197928Y-115085714D01*
X182197928Y-115085714D02*
X182240785Y-115042857D01*
X182240785Y-115042857D02*
X182283642Y-115085714D01*
X182283642Y-115085714D02*
X182197928Y-115085714D01*
X181983642Y-114657143D02*
X181383642Y-114657143D01*
X181897928Y-114657143D02*
X181940785Y-114614286D01*
X181940785Y-114614286D02*
X181983642Y-114528571D01*
X181983642Y-114528571D02*
X181983642Y-114400000D01*
X181983642Y-114400000D02*
X181940785Y-114314286D01*
X181940785Y-114314286D02*
X181855071Y-114271429D01*
X181855071Y-114271429D02*
X181383642Y-114271429D01*
X181383642Y-113457143D02*
X181855071Y-113457143D01*
X181855071Y-113457143D02*
X181940785Y-113500000D01*
X181940785Y-113500000D02*
X181983642Y-113585714D01*
X181983642Y-113585714D02*
X181983642Y-113757143D01*
X181983642Y-113757143D02*
X181940785Y-113842857D01*
X181426500Y-113457143D02*
X181383642Y-113542857D01*
X181383642Y-113542857D02*
X181383642Y-113757143D01*
X181383642Y-113757143D02*
X181426500Y-113842857D01*
X181426500Y-113842857D02*
X181512214Y-113885714D01*
X181512214Y-113885714D02*
X181597928Y-113885714D01*
X181597928Y-113885714D02*
X181683642Y-113842857D01*
X181683642Y-113842857D02*
X181726500Y-113757143D01*
X181726500Y-113757143D02*
X181726500Y-113542857D01*
X181726500Y-113542857D02*
X181769357Y-113457143D01*
X181383642Y-113028571D02*
X181983642Y-113028571D01*
X181812214Y-113028571D02*
X181897928Y-112985714D01*
X181897928Y-112985714D02*
X181940785Y-112942857D01*
X181940785Y-112942857D02*
X181983642Y-112857142D01*
X181983642Y-112857142D02*
X181983642Y-112771428D01*
X181983642Y-112557142D02*
X181383642Y-112342856D01*
X181983642Y-112128571D02*
X181383642Y-112342856D01*
X181383642Y-112342856D02*
X181169357Y-112428571D01*
X181169357Y-112428571D02*
X181126500Y-112471428D01*
X181126500Y-112471428D02*
X181083642Y-112557142D01*
X181383642Y-111100000D02*
X182283642Y-111100000D01*
X181383642Y-110585714D02*
X181897928Y-110971428D01*
X182283642Y-110585714D02*
X181769357Y-111100000D01*
X181383642Y-110200000D02*
X181983642Y-110200000D01*
X182283642Y-110200000D02*
X182240785Y-110242857D01*
X182240785Y-110242857D02*
X182197928Y-110200000D01*
X182197928Y-110200000D02*
X182240785Y-110157143D01*
X182240785Y-110157143D02*
X182283642Y-110200000D01*
X182283642Y-110200000D02*
X182197928Y-110200000D01*
X181983642Y-109900000D02*
X181983642Y-109557143D01*
X182283642Y-109771429D02*
X181512214Y-109771429D01*
X181512214Y-109771429D02*
X181426500Y-109728572D01*
X181426500Y-109728572D02*
X181383642Y-109642857D01*
X181383642Y-109642857D02*
X181383642Y-109557143D01*
X181426500Y-108871429D02*
X181383642Y-108957143D01*
X181383642Y-108957143D02*
X181383642Y-109128571D01*
X181383642Y-109128571D02*
X181426500Y-109214286D01*
X181426500Y-109214286D02*
X181469357Y-109257143D01*
X181469357Y-109257143D02*
X181555071Y-109300000D01*
X181555071Y-109300000D02*
X181812214Y-109300000D01*
X181812214Y-109300000D02*
X181897928Y-109257143D01*
X181897928Y-109257143D02*
X181940785Y-109214286D01*
X181940785Y-109214286D02*
X181983642Y-109128571D01*
X181983642Y-109128571D02*
X181983642Y-108957143D01*
X181983642Y-108957143D02*
X181940785Y-108871429D01*
X181383642Y-108485714D02*
X182283642Y-108485714D01*
X181383642Y-108100000D02*
X181855071Y-108100000D01*
X181855071Y-108100000D02*
X181940785Y-108142857D01*
X181940785Y-108142857D02*
X181983642Y-108228571D01*
X181983642Y-108228571D02*
X181983642Y-108357142D01*
X181983642Y-108357142D02*
X181940785Y-108442857D01*
X181940785Y-108442857D02*
X181897928Y-108485714D01*
X181426500Y-107328571D02*
X181383642Y-107414285D01*
X181383642Y-107414285D02*
X181383642Y-107585714D01*
X181383642Y-107585714D02*
X181426500Y-107671428D01*
X181426500Y-107671428D02*
X181512214Y-107714285D01*
X181512214Y-107714285D02*
X181855071Y-107714285D01*
X181855071Y-107714285D02*
X181940785Y-107671428D01*
X181940785Y-107671428D02*
X181983642Y-107585714D01*
X181983642Y-107585714D02*
X181983642Y-107414285D01*
X181983642Y-107414285D02*
X181940785Y-107328571D01*
X181940785Y-107328571D02*
X181855071Y-107285714D01*
X181855071Y-107285714D02*
X181769357Y-107285714D01*
X181769357Y-107285714D02*
X181683642Y-107714285D01*
X181983642Y-106899999D02*
X181383642Y-106899999D01*
X181897928Y-106899999D02*
X181940785Y-106857142D01*
X181940785Y-106857142D02*
X181983642Y-106771427D01*
X181983642Y-106771427D02*
X181983642Y-106642856D01*
X181983642Y-106642856D02*
X181940785Y-106557142D01*
X181940785Y-106557142D02*
X181855071Y-106514285D01*
X181855071Y-106514285D02*
X181383642Y-106514285D01*
X181426500Y-105057142D02*
X181383642Y-105142856D01*
X181383642Y-105142856D02*
X181383642Y-105314285D01*
X181383642Y-105314285D02*
X181426500Y-105399999D01*
X181426500Y-105399999D02*
X181512214Y-105442856D01*
X181512214Y-105442856D02*
X181855071Y-105442856D01*
X181855071Y-105442856D02*
X181940785Y-105399999D01*
X181940785Y-105399999D02*
X181983642Y-105314285D01*
X181983642Y-105314285D02*
X181983642Y-105142856D01*
X181983642Y-105142856D02*
X181940785Y-105057142D01*
X181940785Y-105057142D02*
X181855071Y-105014285D01*
X181855071Y-105014285D02*
X181769357Y-105014285D01*
X181769357Y-105014285D02*
X181683642Y-105442856D01*
X181469357Y-104628570D02*
X181426500Y-104585713D01*
X181426500Y-104585713D02*
X181383642Y-104628570D01*
X181383642Y-104628570D02*
X181426500Y-104671427D01*
X181426500Y-104671427D02*
X181469357Y-104628570D01*
X181469357Y-104628570D02*
X181383642Y-104628570D01*
X182283642Y-104328570D02*
X181383642Y-104028570D01*
X181383642Y-104028570D02*
X182283642Y-103728570D01*
X181469357Y-103428570D02*
X181426500Y-103385713D01*
X181426500Y-103385713D02*
X181383642Y-103428570D01*
X181383642Y-103428570D02*
X181426500Y-103471427D01*
X181426500Y-103471427D02*
X181469357Y-103428570D01*
X181469357Y-103428570D02*
X181383642Y-103428570D01*
X179925642Y-115985714D02*
X180825642Y-115985714D01*
X180397071Y-115985714D02*
X180397071Y-115471428D01*
X179925642Y-115471428D02*
X180825642Y-115471428D01*
X179925642Y-114657143D02*
X180397071Y-114657143D01*
X180397071Y-114657143D02*
X180482785Y-114700000D01*
X180482785Y-114700000D02*
X180525642Y-114785714D01*
X180525642Y-114785714D02*
X180525642Y-114957143D01*
X180525642Y-114957143D02*
X180482785Y-115042857D01*
X179968500Y-114657143D02*
X179925642Y-114742857D01*
X179925642Y-114742857D02*
X179925642Y-114957143D01*
X179925642Y-114957143D02*
X179968500Y-115042857D01*
X179968500Y-115042857D02*
X180054214Y-115085714D01*
X180054214Y-115085714D02*
X180139928Y-115085714D01*
X180139928Y-115085714D02*
X180225642Y-115042857D01*
X180225642Y-115042857D02*
X180268500Y-114957143D01*
X180268500Y-114957143D02*
X180268500Y-114742857D01*
X180268500Y-114742857D02*
X180311357Y-114657143D01*
X180011357Y-113714285D02*
X179968500Y-113757142D01*
X179968500Y-113757142D02*
X179925642Y-113885714D01*
X179925642Y-113885714D02*
X179925642Y-113971428D01*
X179925642Y-113971428D02*
X179968500Y-114099999D01*
X179968500Y-114099999D02*
X180054214Y-114185714D01*
X180054214Y-114185714D02*
X180139928Y-114228571D01*
X180139928Y-114228571D02*
X180311357Y-114271428D01*
X180311357Y-114271428D02*
X180439928Y-114271428D01*
X180439928Y-114271428D02*
X180611357Y-114228571D01*
X180611357Y-114228571D02*
X180697071Y-114185714D01*
X180697071Y-114185714D02*
X180782785Y-114099999D01*
X180782785Y-114099999D02*
X180825642Y-113971428D01*
X180825642Y-113971428D02*
X180825642Y-113885714D01*
X180825642Y-113885714D02*
X180782785Y-113757142D01*
X180782785Y-113757142D02*
X180739928Y-113714285D01*
X179925642Y-113328571D02*
X180525642Y-113328571D01*
X180354214Y-113328571D02*
X180439928Y-113285714D01*
X180439928Y-113285714D02*
X180482785Y-113242857D01*
X180482785Y-113242857D02*
X180525642Y-113157142D01*
X180525642Y-113157142D02*
X180525642Y-113071428D01*
X179925642Y-112385714D02*
X180397071Y-112385714D01*
X180397071Y-112385714D02*
X180482785Y-112428571D01*
X180482785Y-112428571D02*
X180525642Y-112514285D01*
X180525642Y-112514285D02*
X180525642Y-112685714D01*
X180525642Y-112685714D02*
X180482785Y-112771428D01*
X179968500Y-112385714D02*
X179925642Y-112471428D01*
X179925642Y-112471428D02*
X179925642Y-112685714D01*
X179925642Y-112685714D02*
X179968500Y-112771428D01*
X179968500Y-112771428D02*
X180054214Y-112814285D01*
X180054214Y-112814285D02*
X180139928Y-112814285D01*
X180139928Y-112814285D02*
X180225642Y-112771428D01*
X180225642Y-112771428D02*
X180268500Y-112685714D01*
X180268500Y-112685714D02*
X180268500Y-112471428D01*
X180268500Y-112471428D02*
X180311357Y-112385714D01*
X180397071Y-111657142D02*
X180397071Y-111957142D01*
X179925642Y-111957142D02*
X180825642Y-111957142D01*
X180825642Y-111957142D02*
X180825642Y-111528570D01*
X180525642Y-110799999D02*
X179925642Y-110799999D01*
X180525642Y-111185713D02*
X180054214Y-111185713D01*
X180054214Y-111185713D02*
X179968500Y-111142856D01*
X179968500Y-111142856D02*
X179925642Y-111057141D01*
X179925642Y-111057141D02*
X179925642Y-110928570D01*
X179925642Y-110928570D02*
X179968500Y-110842856D01*
X179968500Y-110842856D02*
X180011357Y-110799999D01*
X179968500Y-109342856D02*
X179925642Y-109428570D01*
X179925642Y-109428570D02*
X179925642Y-109599999D01*
X179925642Y-109599999D02*
X179968500Y-109685713D01*
X179968500Y-109685713D02*
X180054214Y-109728570D01*
X180054214Y-109728570D02*
X180397071Y-109728570D01*
X180397071Y-109728570D02*
X180482785Y-109685713D01*
X180482785Y-109685713D02*
X180525642Y-109599999D01*
X180525642Y-109599999D02*
X180525642Y-109428570D01*
X180525642Y-109428570D02*
X180482785Y-109342856D01*
X180482785Y-109342856D02*
X180397071Y-109299999D01*
X180397071Y-109299999D02*
X180311357Y-109299999D01*
X180311357Y-109299999D02*
X180225642Y-109728570D01*
X180011357Y-108914284D02*
X179968500Y-108871427D01*
X179968500Y-108871427D02*
X179925642Y-108914284D01*
X179925642Y-108914284D02*
X179968500Y-108957141D01*
X179968500Y-108957141D02*
X180011357Y-108914284D01*
X180011357Y-108914284D02*
X179925642Y-108914284D01*
X180825642Y-108614284D02*
X179925642Y-108314284D01*
X179925642Y-108314284D02*
X180825642Y-108014284D01*
X180011357Y-107714284D02*
X179968500Y-107671427D01*
X179968500Y-107671427D02*
X179925642Y-107714284D01*
X179925642Y-107714284D02*
X179968500Y-107757141D01*
X179968500Y-107757141D02*
X180011357Y-107714284D01*
X180011357Y-107714284D02*
X179925642Y-107714284D01*
X178467642Y-115985714D02*
X179367642Y-115985714D01*
X179367642Y-115985714D02*
X178724785Y-115685714D01*
X178724785Y-115685714D02*
X179367642Y-115385714D01*
X179367642Y-115385714D02*
X178467642Y-115385714D01*
X178467642Y-114571429D02*
X178939071Y-114571429D01*
X178939071Y-114571429D02*
X179024785Y-114614286D01*
X179024785Y-114614286D02*
X179067642Y-114700000D01*
X179067642Y-114700000D02*
X179067642Y-114871429D01*
X179067642Y-114871429D02*
X179024785Y-114957143D01*
X178510500Y-114571429D02*
X178467642Y-114657143D01*
X178467642Y-114657143D02*
X178467642Y-114871429D01*
X178467642Y-114871429D02*
X178510500Y-114957143D01*
X178510500Y-114957143D02*
X178596214Y-115000000D01*
X178596214Y-115000000D02*
X178681928Y-115000000D01*
X178681928Y-115000000D02*
X178767642Y-114957143D01*
X178767642Y-114957143D02*
X178810500Y-114871429D01*
X178810500Y-114871429D02*
X178810500Y-114657143D01*
X178810500Y-114657143D02*
X178853357Y-114571429D01*
X178467642Y-114142857D02*
X179067642Y-114142857D01*
X178896214Y-114142857D02*
X178981928Y-114100000D01*
X178981928Y-114100000D02*
X179024785Y-114057143D01*
X179024785Y-114057143D02*
X179067642Y-113971428D01*
X179067642Y-113971428D02*
X179067642Y-113885714D01*
X179067642Y-113714285D02*
X179067642Y-113371428D01*
X179367642Y-113585714D02*
X178596214Y-113585714D01*
X178596214Y-113585714D02*
X178510500Y-113542857D01*
X178510500Y-113542857D02*
X178467642Y-113457142D01*
X178467642Y-113457142D02*
X178467642Y-113371428D01*
X178467642Y-113071428D02*
X179067642Y-113071428D01*
X179367642Y-113071428D02*
X179324785Y-113114285D01*
X179324785Y-113114285D02*
X179281928Y-113071428D01*
X179281928Y-113071428D02*
X179324785Y-113028571D01*
X179324785Y-113028571D02*
X179367642Y-113071428D01*
X179367642Y-113071428D02*
X179281928Y-113071428D01*
X179067642Y-112642857D02*
X178467642Y-112642857D01*
X178981928Y-112642857D02*
X179024785Y-112600000D01*
X179024785Y-112600000D02*
X179067642Y-112514285D01*
X179067642Y-112514285D02*
X179067642Y-112385714D01*
X179067642Y-112385714D02*
X179024785Y-112300000D01*
X179024785Y-112300000D02*
X178939071Y-112257143D01*
X178939071Y-112257143D02*
X178467642Y-112257143D01*
X178467642Y-111142857D02*
X179367642Y-111142857D01*
X179367642Y-111142857D02*
X178724785Y-110842857D01*
X178724785Y-110842857D02*
X179367642Y-110542857D01*
X179367642Y-110542857D02*
X178467642Y-110542857D01*
X179067642Y-109728572D02*
X178467642Y-109728572D01*
X179067642Y-110114286D02*
X178596214Y-110114286D01*
X178596214Y-110114286D02*
X178510500Y-110071429D01*
X178510500Y-110071429D02*
X178467642Y-109985714D01*
X178467642Y-109985714D02*
X178467642Y-109857143D01*
X178467642Y-109857143D02*
X178510500Y-109771429D01*
X178510500Y-109771429D02*
X178553357Y-109728572D01*
X179367642Y-110071429D02*
X179324785Y-110028572D01*
X179324785Y-110028572D02*
X179281928Y-110071429D01*
X179281928Y-110071429D02*
X179324785Y-110114286D01*
X179324785Y-110114286D02*
X179367642Y-110071429D01*
X179367642Y-110071429D02*
X179281928Y-110071429D01*
X179367642Y-109728572D02*
X179324785Y-109685714D01*
X179324785Y-109685714D02*
X179281928Y-109728572D01*
X179281928Y-109728572D02*
X179324785Y-109771429D01*
X179324785Y-109771429D02*
X179367642Y-109728572D01*
X179367642Y-109728572D02*
X179281928Y-109728572D01*
X178467642Y-109171428D02*
X178510500Y-109257143D01*
X178510500Y-109257143D02*
X178596214Y-109300000D01*
X178596214Y-109300000D02*
X179367642Y-109300000D01*
X178467642Y-108699999D02*
X178510500Y-108785714D01*
X178510500Y-108785714D02*
X178596214Y-108828571D01*
X178596214Y-108828571D02*
X179367642Y-108828571D01*
X178510500Y-108014285D02*
X178467642Y-108099999D01*
X178467642Y-108099999D02*
X178467642Y-108271428D01*
X178467642Y-108271428D02*
X178510500Y-108357142D01*
X178510500Y-108357142D02*
X178596214Y-108399999D01*
X178596214Y-108399999D02*
X178939071Y-108399999D01*
X178939071Y-108399999D02*
X179024785Y-108357142D01*
X179024785Y-108357142D02*
X179067642Y-108271428D01*
X179067642Y-108271428D02*
X179067642Y-108099999D01*
X179067642Y-108099999D02*
X179024785Y-108014285D01*
X179024785Y-108014285D02*
X178939071Y-107971428D01*
X178939071Y-107971428D02*
X178853357Y-107971428D01*
X178853357Y-107971428D02*
X178767642Y-108399999D01*
X179067642Y-107585713D02*
X178467642Y-107585713D01*
X178981928Y-107585713D02*
X179024785Y-107542856D01*
X179024785Y-107542856D02*
X179067642Y-107457141D01*
X179067642Y-107457141D02*
X179067642Y-107328570D01*
X179067642Y-107328570D02*
X179024785Y-107242856D01*
X179024785Y-107242856D02*
X178939071Y-107199999D01*
X178939071Y-107199999D02*
X178467642Y-107199999D01*
X178467642Y-106771427D02*
X179367642Y-106771427D01*
X178467642Y-106385713D02*
X178939071Y-106385713D01*
X178939071Y-106385713D02*
X179024785Y-106428570D01*
X179024785Y-106428570D02*
X179067642Y-106514284D01*
X179067642Y-106514284D02*
X179067642Y-106642855D01*
X179067642Y-106642855D02*
X179024785Y-106728570D01*
X179024785Y-106728570D02*
X178981928Y-106771427D01*
X178467642Y-105571427D02*
X178939071Y-105571427D01*
X178939071Y-105571427D02*
X179024785Y-105614284D01*
X179024785Y-105614284D02*
X179067642Y-105699998D01*
X179067642Y-105699998D02*
X179067642Y-105871427D01*
X179067642Y-105871427D02*
X179024785Y-105957141D01*
X178510500Y-105571427D02*
X178467642Y-105657141D01*
X178467642Y-105657141D02*
X178467642Y-105871427D01*
X178467642Y-105871427D02*
X178510500Y-105957141D01*
X178510500Y-105957141D02*
X178596214Y-105999998D01*
X178596214Y-105999998D02*
X178681928Y-105999998D01*
X178681928Y-105999998D02*
X178767642Y-105957141D01*
X178767642Y-105957141D02*
X178810500Y-105871427D01*
X178810500Y-105871427D02*
X178810500Y-105657141D01*
X178810500Y-105657141D02*
X178853357Y-105571427D01*
X179067642Y-104757141D02*
X178467642Y-104757141D01*
X179067642Y-105142855D02*
X178596214Y-105142855D01*
X178596214Y-105142855D02*
X178510500Y-105099998D01*
X178510500Y-105099998D02*
X178467642Y-105014283D01*
X178467642Y-105014283D02*
X178467642Y-104885712D01*
X178467642Y-104885712D02*
X178510500Y-104799998D01*
X178510500Y-104799998D02*
X178553357Y-104757141D01*
X179067642Y-104328569D02*
X178167642Y-104328569D01*
X179024785Y-104328569D02*
X179067642Y-104242855D01*
X179067642Y-104242855D02*
X179067642Y-104071426D01*
X179067642Y-104071426D02*
X179024785Y-103985712D01*
X179024785Y-103985712D02*
X178981928Y-103942855D01*
X178981928Y-103942855D02*
X178896214Y-103899997D01*
X178896214Y-103899997D02*
X178639071Y-103899997D01*
X178639071Y-103899997D02*
X178553357Y-103942855D01*
X178553357Y-103942855D02*
X178510500Y-103985712D01*
X178510500Y-103985712D02*
X178467642Y-104071426D01*
X178467642Y-104071426D02*
X178467642Y-104242855D01*
X178467642Y-104242855D02*
X178510500Y-104328569D01*
X179067642Y-103642854D02*
X179067642Y-103299997D01*
X179367642Y-103514283D02*
X178596214Y-103514283D01*
X178596214Y-103514283D02*
X178510500Y-103471426D01*
X178510500Y-103471426D02*
X178467642Y-103385711D01*
X178467642Y-103385711D02*
X178467642Y-103299997D01*
X177009642Y-115985714D02*
X177909642Y-115985714D01*
X177009642Y-115600000D02*
X177481071Y-115600000D01*
X177481071Y-115600000D02*
X177566785Y-115642857D01*
X177566785Y-115642857D02*
X177609642Y-115728571D01*
X177609642Y-115728571D02*
X177609642Y-115857142D01*
X177609642Y-115857142D02*
X177566785Y-115942857D01*
X177566785Y-115942857D02*
X177523928Y-115985714D01*
X177609642Y-115299999D02*
X177609642Y-114957142D01*
X177909642Y-115171428D02*
X177138214Y-115171428D01*
X177138214Y-115171428D02*
X177052500Y-115128571D01*
X177052500Y-115128571D02*
X177009642Y-115042856D01*
X177009642Y-115042856D02*
X177009642Y-114957142D01*
X177609642Y-114785713D02*
X177609642Y-114442856D01*
X177909642Y-114657142D02*
X177138214Y-114657142D01*
X177138214Y-114657142D02*
X177052500Y-114614285D01*
X177052500Y-114614285D02*
X177009642Y-114528570D01*
X177009642Y-114528570D02*
X177009642Y-114442856D01*
X177609642Y-114142856D02*
X176709642Y-114142856D01*
X177566785Y-114142856D02*
X177609642Y-114057142D01*
X177609642Y-114057142D02*
X177609642Y-113885713D01*
X177609642Y-113885713D02*
X177566785Y-113799999D01*
X177566785Y-113799999D02*
X177523928Y-113757142D01*
X177523928Y-113757142D02*
X177438214Y-113714284D01*
X177438214Y-113714284D02*
X177181071Y-113714284D01*
X177181071Y-113714284D02*
X177095357Y-113757142D01*
X177095357Y-113757142D02*
X177052500Y-113799999D01*
X177052500Y-113799999D02*
X177009642Y-113885713D01*
X177009642Y-113885713D02*
X177009642Y-114057142D01*
X177009642Y-114057142D02*
X177052500Y-114142856D01*
X177052500Y-113371427D02*
X177009642Y-113285713D01*
X177009642Y-113285713D02*
X177009642Y-113114284D01*
X177009642Y-113114284D02*
X177052500Y-113028570D01*
X177052500Y-113028570D02*
X177138214Y-112985713D01*
X177138214Y-112985713D02*
X177181071Y-112985713D01*
X177181071Y-112985713D02*
X177266785Y-113028570D01*
X177266785Y-113028570D02*
X177309642Y-113114284D01*
X177309642Y-113114284D02*
X177309642Y-113242856D01*
X177309642Y-113242856D02*
X177352500Y-113328570D01*
X177352500Y-113328570D02*
X177438214Y-113371427D01*
X177438214Y-113371427D02*
X177481071Y-113371427D01*
X177481071Y-113371427D02*
X177566785Y-113328570D01*
X177566785Y-113328570D02*
X177609642Y-113242856D01*
X177609642Y-113242856D02*
X177609642Y-113114284D01*
X177609642Y-113114284D02*
X177566785Y-113028570D01*
X177095357Y-112599999D02*
X177052500Y-112557142D01*
X177052500Y-112557142D02*
X177009642Y-112599999D01*
X177009642Y-112599999D02*
X177052500Y-112642856D01*
X177052500Y-112642856D02*
X177095357Y-112599999D01*
X177095357Y-112599999D02*
X177009642Y-112599999D01*
X177566785Y-112599999D02*
X177523928Y-112557142D01*
X177523928Y-112557142D02*
X177481071Y-112599999D01*
X177481071Y-112599999D02*
X177523928Y-112642856D01*
X177523928Y-112642856D02*
X177566785Y-112599999D01*
X177566785Y-112599999D02*
X177481071Y-112599999D01*
X177952500Y-111528571D02*
X176795357Y-112299999D01*
X177952500Y-110585714D02*
X176795357Y-111357142D01*
X177009642Y-110285714D02*
X177909642Y-110285714D01*
X177009642Y-109900000D02*
X177481071Y-109900000D01*
X177481071Y-109900000D02*
X177566785Y-109942857D01*
X177566785Y-109942857D02*
X177609642Y-110028571D01*
X177609642Y-110028571D02*
X177609642Y-110157142D01*
X177609642Y-110157142D02*
X177566785Y-110242857D01*
X177566785Y-110242857D02*
X177523928Y-110285714D01*
X177009642Y-109085714D02*
X177481071Y-109085714D01*
X177481071Y-109085714D02*
X177566785Y-109128571D01*
X177566785Y-109128571D02*
X177609642Y-109214285D01*
X177609642Y-109214285D02*
X177609642Y-109385714D01*
X177609642Y-109385714D02*
X177566785Y-109471428D01*
X177052500Y-109085714D02*
X177009642Y-109171428D01*
X177009642Y-109171428D02*
X177009642Y-109385714D01*
X177009642Y-109385714D02*
X177052500Y-109471428D01*
X177052500Y-109471428D02*
X177138214Y-109514285D01*
X177138214Y-109514285D02*
X177223928Y-109514285D01*
X177223928Y-109514285D02*
X177309642Y-109471428D01*
X177309642Y-109471428D02*
X177352500Y-109385714D01*
X177352500Y-109385714D02*
X177352500Y-109171428D01*
X177352500Y-109171428D02*
X177395357Y-109085714D01*
X177052500Y-108271428D02*
X177009642Y-108357142D01*
X177009642Y-108357142D02*
X177009642Y-108528570D01*
X177009642Y-108528570D02*
X177052500Y-108614285D01*
X177052500Y-108614285D02*
X177095357Y-108657142D01*
X177095357Y-108657142D02*
X177181071Y-108699999D01*
X177181071Y-108699999D02*
X177438214Y-108699999D01*
X177438214Y-108699999D02*
X177523928Y-108657142D01*
X177523928Y-108657142D02*
X177566785Y-108614285D01*
X177566785Y-108614285D02*
X177609642Y-108528570D01*
X177609642Y-108528570D02*
X177609642Y-108357142D01*
X177609642Y-108357142D02*
X177566785Y-108271428D01*
X177009642Y-107885713D02*
X177609642Y-107885713D01*
X177438214Y-107885713D02*
X177523928Y-107842856D01*
X177523928Y-107842856D02*
X177566785Y-107799999D01*
X177566785Y-107799999D02*
X177609642Y-107714284D01*
X177609642Y-107714284D02*
X177609642Y-107628570D01*
X177009642Y-106942856D02*
X177481071Y-106942856D01*
X177481071Y-106942856D02*
X177566785Y-106985713D01*
X177566785Y-106985713D02*
X177609642Y-107071427D01*
X177609642Y-107071427D02*
X177609642Y-107242856D01*
X177609642Y-107242856D02*
X177566785Y-107328570D01*
X177052500Y-106942856D02*
X177009642Y-107028570D01*
X177009642Y-107028570D02*
X177009642Y-107242856D01*
X177009642Y-107242856D02*
X177052500Y-107328570D01*
X177052500Y-107328570D02*
X177138214Y-107371427D01*
X177138214Y-107371427D02*
X177223928Y-107371427D01*
X177223928Y-107371427D02*
X177309642Y-107328570D01*
X177309642Y-107328570D02*
X177352500Y-107242856D01*
X177352500Y-107242856D02*
X177352500Y-107028570D01*
X177352500Y-107028570D02*
X177395357Y-106942856D01*
X177609642Y-106642855D02*
X177609642Y-106299998D01*
X177009642Y-106514284D02*
X177781071Y-106514284D01*
X177781071Y-106514284D02*
X177866785Y-106471427D01*
X177866785Y-106471427D02*
X177909642Y-106385712D01*
X177909642Y-106385712D02*
X177909642Y-106299998D01*
X177609642Y-105614284D02*
X177009642Y-105614284D01*
X177609642Y-105999998D02*
X177138214Y-105999998D01*
X177138214Y-105999998D02*
X177052500Y-105957141D01*
X177052500Y-105957141D02*
X177009642Y-105871426D01*
X177009642Y-105871426D02*
X177009642Y-105742855D01*
X177009642Y-105742855D02*
X177052500Y-105657141D01*
X177052500Y-105657141D02*
X177095357Y-105614284D01*
X177095357Y-105185712D02*
X177052500Y-105142855D01*
X177052500Y-105142855D02*
X177009642Y-105185712D01*
X177009642Y-105185712D02*
X177052500Y-105228569D01*
X177052500Y-105228569D02*
X177095357Y-105185712D01*
X177095357Y-105185712D02*
X177009642Y-105185712D01*
X177009642Y-104371427D02*
X177909642Y-104371427D01*
X177052500Y-104371427D02*
X177009642Y-104457141D01*
X177009642Y-104457141D02*
X177009642Y-104628569D01*
X177009642Y-104628569D02*
X177052500Y-104714284D01*
X177052500Y-104714284D02*
X177095357Y-104757141D01*
X177095357Y-104757141D02*
X177181071Y-104799998D01*
X177181071Y-104799998D02*
X177438214Y-104799998D01*
X177438214Y-104799998D02*
X177523928Y-104757141D01*
X177523928Y-104757141D02*
X177566785Y-104714284D01*
X177566785Y-104714284D02*
X177609642Y-104628569D01*
X177609642Y-104628569D02*
X177609642Y-104457141D01*
X177609642Y-104457141D02*
X177566785Y-104371427D01*
X177052500Y-103599998D02*
X177009642Y-103685712D01*
X177009642Y-103685712D02*
X177009642Y-103857141D01*
X177009642Y-103857141D02*
X177052500Y-103942855D01*
X177052500Y-103942855D02*
X177138214Y-103985712D01*
X177138214Y-103985712D02*
X177481071Y-103985712D01*
X177481071Y-103985712D02*
X177566785Y-103942855D01*
X177566785Y-103942855D02*
X177609642Y-103857141D01*
X177609642Y-103857141D02*
X177609642Y-103685712D01*
X177609642Y-103685712D02*
X177566785Y-103599998D01*
X177566785Y-103599998D02*
X177481071Y-103557141D01*
X177481071Y-103557141D02*
X177395357Y-103557141D01*
X177395357Y-103557141D02*
X177309642Y-103985712D01*
X177952500Y-102528569D02*
X176795357Y-103299997D01*
X177009642Y-102228569D02*
X177909642Y-102228569D01*
X177352500Y-102142855D02*
X177009642Y-101885712D01*
X177609642Y-101885712D02*
X177266785Y-102228569D01*
X177009642Y-101499998D02*
X177609642Y-101499998D01*
X177909642Y-101499998D02*
X177866785Y-101542855D01*
X177866785Y-101542855D02*
X177823928Y-101499998D01*
X177823928Y-101499998D02*
X177866785Y-101457141D01*
X177866785Y-101457141D02*
X177909642Y-101499998D01*
X177909642Y-101499998D02*
X177823928Y-101499998D01*
X177609642Y-101199998D02*
X177609642Y-100857141D01*
X177909642Y-101071427D02*
X177138214Y-101071427D01*
X177138214Y-101071427D02*
X177052500Y-101028570D01*
X177052500Y-101028570D02*
X177009642Y-100942855D01*
X177009642Y-100942855D02*
X177009642Y-100857141D01*
X177052500Y-100599998D02*
X177009642Y-100514284D01*
X177009642Y-100514284D02*
X177009642Y-100342855D01*
X177009642Y-100342855D02*
X177052500Y-100257141D01*
X177052500Y-100257141D02*
X177138214Y-100214284D01*
X177138214Y-100214284D02*
X177181071Y-100214284D01*
X177181071Y-100214284D02*
X177266785Y-100257141D01*
X177266785Y-100257141D02*
X177309642Y-100342855D01*
X177309642Y-100342855D02*
X177309642Y-100471427D01*
X177309642Y-100471427D02*
X177352500Y-100557141D01*
X177352500Y-100557141D02*
X177438214Y-100599998D01*
X177438214Y-100599998D02*
X177481071Y-100599998D01*
X177481071Y-100599998D02*
X177566785Y-100557141D01*
X177566785Y-100557141D02*
X177609642Y-100471427D01*
X177609642Y-100471427D02*
X177609642Y-100342855D01*
X177609642Y-100342855D02*
X177566785Y-100257141D01*
D12*
X204126190Y-88037619D02*
X204126190Y-88751904D01*
X204126190Y-88751904D02*
X204173809Y-88894761D01*
X204173809Y-88894761D02*
X204269047Y-88990000D01*
X204269047Y-88990000D02*
X204411904Y-89037619D01*
X204411904Y-89037619D02*
X204507142Y-89037619D01*
X203173809Y-89037619D02*
X203649999Y-89037619D01*
X203649999Y-89037619D02*
X203649999Y-88037619D01*
X202269047Y-88942380D02*
X202316666Y-88990000D01*
X202316666Y-88990000D02*
X202459523Y-89037619D01*
X202459523Y-89037619D02*
X202554761Y-89037619D01*
X202554761Y-89037619D02*
X202697618Y-88990000D01*
X202697618Y-88990000D02*
X202792856Y-88894761D01*
X202792856Y-88894761D02*
X202840475Y-88799523D01*
X202840475Y-88799523D02*
X202888094Y-88609047D01*
X202888094Y-88609047D02*
X202888094Y-88466190D01*
X202888094Y-88466190D02*
X202840475Y-88275714D01*
X202840475Y-88275714D02*
X202792856Y-88180476D01*
X202792856Y-88180476D02*
X202697618Y-88085238D01*
X202697618Y-88085238D02*
X202554761Y-88037619D01*
X202554761Y-88037619D02*
X202459523Y-88037619D01*
X202459523Y-88037619D02*
X202316666Y-88085238D01*
X202316666Y-88085238D02*
X202269047Y-88132857D01*
X201554761Y-88037619D02*
X201554761Y-88751904D01*
X201554761Y-88751904D02*
X201602380Y-88894761D01*
X201602380Y-88894761D02*
X201697618Y-88990000D01*
X201697618Y-88990000D02*
X201840475Y-89037619D01*
X201840475Y-89037619D02*
X201935713Y-89037619D01*
X200602380Y-89037619D02*
X201078570Y-89037619D01*
X201078570Y-89037619D02*
X201078570Y-88037619D01*
X199697618Y-88942380D02*
X199745237Y-88990000D01*
X199745237Y-88990000D02*
X199888094Y-89037619D01*
X199888094Y-89037619D02*
X199983332Y-89037619D01*
X199983332Y-89037619D02*
X200126189Y-88990000D01*
X200126189Y-88990000D02*
X200221427Y-88894761D01*
X200221427Y-88894761D02*
X200269046Y-88799523D01*
X200269046Y-88799523D02*
X200316665Y-88609047D01*
X200316665Y-88609047D02*
X200316665Y-88466190D01*
X200316665Y-88466190D02*
X200269046Y-88275714D01*
X200269046Y-88275714D02*
X200221427Y-88180476D01*
X200221427Y-88180476D02*
X200126189Y-88085238D01*
X200126189Y-88085238D02*
X199983332Y-88037619D01*
X199983332Y-88037619D02*
X199888094Y-88037619D01*
X199888094Y-88037619D02*
X199745237Y-88085238D01*
X199745237Y-88085238D02*
X199697618Y-88132857D01*
X198983332Y-88037619D02*
X198983332Y-88751904D01*
X198983332Y-88751904D02*
X199030951Y-88894761D01*
X199030951Y-88894761D02*
X199126189Y-88990000D01*
X199126189Y-88990000D02*
X199269046Y-89037619D01*
X199269046Y-89037619D02*
X199364284Y-89037619D01*
X198030951Y-89037619D02*
X198507141Y-89037619D01*
X198507141Y-89037619D02*
X198507141Y-88037619D01*
X197126189Y-88942380D02*
X197173808Y-88990000D01*
X197173808Y-88990000D02*
X197316665Y-89037619D01*
X197316665Y-89037619D02*
X197411903Y-89037619D01*
X197411903Y-89037619D02*
X197554760Y-88990000D01*
X197554760Y-88990000D02*
X197649998Y-88894761D01*
X197649998Y-88894761D02*
X197697617Y-88799523D01*
X197697617Y-88799523D02*
X197745236Y-88609047D01*
X197745236Y-88609047D02*
X197745236Y-88466190D01*
X197745236Y-88466190D02*
X197697617Y-88275714D01*
X197697617Y-88275714D02*
X197649998Y-88180476D01*
X197649998Y-88180476D02*
X197554760Y-88085238D01*
X197554760Y-88085238D02*
X197411903Y-88037619D01*
X197411903Y-88037619D02*
X197316665Y-88037619D01*
X197316665Y-88037619D02*
X197173808Y-88085238D01*
X197173808Y-88085238D02*
X197126189Y-88132857D01*
X196411903Y-88037619D02*
X196411903Y-88751904D01*
X196411903Y-88751904D02*
X196459522Y-88894761D01*
X196459522Y-88894761D02*
X196554760Y-88990000D01*
X196554760Y-88990000D02*
X196697617Y-89037619D01*
X196697617Y-89037619D02*
X196792855Y-89037619D01*
X195459522Y-89037619D02*
X195935712Y-89037619D01*
X195935712Y-89037619D02*
X195935712Y-88037619D01*
X194554760Y-88942380D02*
X194602379Y-88990000D01*
X194602379Y-88990000D02*
X194745236Y-89037619D01*
X194745236Y-89037619D02*
X194840474Y-89037619D01*
X194840474Y-89037619D02*
X194983331Y-88990000D01*
X194983331Y-88990000D02*
X195078569Y-88894761D01*
X195078569Y-88894761D02*
X195126188Y-88799523D01*
X195126188Y-88799523D02*
X195173807Y-88609047D01*
X195173807Y-88609047D02*
X195173807Y-88466190D01*
X195173807Y-88466190D02*
X195126188Y-88275714D01*
X195126188Y-88275714D02*
X195078569Y-88180476D01*
X195078569Y-88180476D02*
X194983331Y-88085238D01*
X194983331Y-88085238D02*
X194840474Y-88037619D01*
X194840474Y-88037619D02*
X194745236Y-88037619D01*
X194745236Y-88037619D02*
X194602379Y-88085238D01*
X194602379Y-88085238D02*
X194554760Y-88132857D01*
D13*
X206231428Y-103063928D02*
X205945714Y-103063928D01*
X205945714Y-103063928D02*
X205802857Y-103135357D01*
X205802857Y-103135357D02*
X205660000Y-103278214D01*
X205660000Y-103278214D02*
X205588571Y-103563928D01*
X205588571Y-103563928D02*
X205588571Y-104063928D01*
X205588571Y-104063928D02*
X205660000Y-104349642D01*
X205660000Y-104349642D02*
X205802857Y-104492500D01*
X205802857Y-104492500D02*
X205945714Y-104563928D01*
X205945714Y-104563928D02*
X206231428Y-104563928D01*
X206231428Y-104563928D02*
X206374286Y-104492500D01*
X206374286Y-104492500D02*
X206517143Y-104349642D01*
X206517143Y-104349642D02*
X206588571Y-104063928D01*
X206588571Y-104063928D02*
X206588571Y-103563928D01*
X206588571Y-103563928D02*
X206517143Y-103278214D01*
X206517143Y-103278214D02*
X206374286Y-103135357D01*
X206374286Y-103135357D02*
X206231428Y-103063928D01*
X204945714Y-104563928D02*
X204945714Y-103063928D01*
X204945714Y-103063928D02*
X204088571Y-104563928D01*
X204088571Y-104563928D02*
X204088571Y-103063928D01*
X201945713Y-103063928D02*
X201659999Y-103063928D01*
X201659999Y-103063928D02*
X201517142Y-103135357D01*
X201517142Y-103135357D02*
X201374285Y-103278214D01*
X201374285Y-103278214D02*
X201302856Y-103563928D01*
X201302856Y-103563928D02*
X201302856Y-104063928D01*
X201302856Y-104063928D02*
X201374285Y-104349642D01*
X201374285Y-104349642D02*
X201517142Y-104492500D01*
X201517142Y-104492500D02*
X201659999Y-104563928D01*
X201659999Y-104563928D02*
X201945713Y-104563928D01*
X201945713Y-104563928D02*
X202088571Y-104492500D01*
X202088571Y-104492500D02*
X202231428Y-104349642D01*
X202231428Y-104349642D02*
X202302856Y-104063928D01*
X202302856Y-104063928D02*
X202302856Y-103563928D01*
X202302856Y-103563928D02*
X202231428Y-103278214D01*
X202231428Y-103278214D02*
X202088571Y-103135357D01*
X202088571Y-103135357D02*
X201945713Y-103063928D01*
X200159999Y-103778214D02*
X200659999Y-103778214D01*
X200659999Y-104563928D02*
X200659999Y-103063928D01*
X200659999Y-103063928D02*
X199945713Y-103063928D01*
X198874285Y-103778214D02*
X199374285Y-103778214D01*
X199374285Y-104563928D02*
X199374285Y-103063928D01*
X199374285Y-103063928D02*
X198659999Y-103063928D01*
D11*
X177662619Y-92561905D02*
X176662619Y-92561905D01*
X176662619Y-92561905D02*
X176662619Y-92800000D01*
X176662619Y-92800000D02*
X176710238Y-92942857D01*
X176710238Y-92942857D02*
X176805476Y-93038095D01*
X176805476Y-93038095D02*
X176900714Y-93085714D01*
X176900714Y-93085714D02*
X177091190Y-93133333D01*
X177091190Y-93133333D02*
X177234047Y-93133333D01*
X177234047Y-93133333D02*
X177424523Y-93085714D01*
X177424523Y-93085714D02*
X177519761Y-93038095D01*
X177519761Y-93038095D02*
X177615000Y-92942857D01*
X177615000Y-92942857D02*
X177662619Y-92800000D01*
X177662619Y-92800000D02*
X177662619Y-92561905D01*
X177662619Y-94085714D02*
X177662619Y-93514286D01*
X177662619Y-93800000D02*
X176662619Y-93800000D01*
X176662619Y-93800000D02*
X176805476Y-93704762D01*
X176805476Y-93704762D02*
X176900714Y-93609524D01*
X176900714Y-93609524D02*
X176948333Y-93514286D01*
X173581666Y-95919048D02*
X173581666Y-96680953D01*
X173962619Y-96300000D02*
X173200714Y-96300000D01*
X210638094Y-72062619D02*
X210638094Y-71062619D01*
X210638094Y-71062619D02*
X210399999Y-71062619D01*
X210399999Y-71062619D02*
X210257142Y-71110238D01*
X210257142Y-71110238D02*
X210161904Y-71205476D01*
X210161904Y-71205476D02*
X210114285Y-71300714D01*
X210114285Y-71300714D02*
X210066666Y-71491190D01*
X210066666Y-71491190D02*
X210066666Y-71634047D01*
X210066666Y-71634047D02*
X210114285Y-71824523D01*
X210114285Y-71824523D02*
X210161904Y-71919761D01*
X210161904Y-71919761D02*
X210257142Y-72015000D01*
X210257142Y-72015000D02*
X210399999Y-72062619D01*
X210399999Y-72062619D02*
X210638094Y-72062619D01*
X209685713Y-71157857D02*
X209638094Y-71110238D01*
X209638094Y-71110238D02*
X209542856Y-71062619D01*
X209542856Y-71062619D02*
X209304761Y-71062619D01*
X209304761Y-71062619D02*
X209209523Y-71110238D01*
X209209523Y-71110238D02*
X209161904Y-71157857D01*
X209161904Y-71157857D02*
X209114285Y-71253095D01*
X209114285Y-71253095D02*
X209114285Y-71348333D01*
X209114285Y-71348333D02*
X209161904Y-71491190D01*
X209161904Y-71491190D02*
X209733332Y-72062619D01*
X209733332Y-72062619D02*
X209114285Y-72062619D01*
X207280951Y-67981666D02*
X206519047Y-67981666D01*
X206899999Y-68362619D02*
X206899999Y-67600714D01*
X205137378Y-73705497D02*
X204271352Y-73205497D01*
X204271352Y-73205497D02*
X204152305Y-73411694D01*
X204152305Y-73411694D02*
X204122115Y-73559221D01*
X204122115Y-73559221D02*
X204156975Y-73689319D01*
X204156975Y-73689319D02*
X204215644Y-73778177D01*
X204215644Y-73778177D02*
X204356792Y-73914655D01*
X204356792Y-73914655D02*
X204480510Y-73986083D01*
X204480510Y-73986083D02*
X204669276Y-74040082D01*
X204669276Y-74040082D02*
X204775565Y-74046462D01*
X204775565Y-74046462D02*
X204905662Y-74011602D01*
X204905662Y-74011602D02*
X205018330Y-73911694D01*
X205018330Y-73911694D02*
X205137378Y-73705497D01*
X203818971Y-73989044D02*
X203509448Y-74525155D01*
X203509448Y-74525155D02*
X204006029Y-74426956D01*
X204006029Y-74426956D02*
X203934600Y-74550674D01*
X203934600Y-74550674D02*
X203928220Y-74656962D01*
X203928220Y-74656962D02*
X203945650Y-74722011D01*
X203945650Y-74722011D02*
X204004319Y-74810869D01*
X204004319Y-74810869D02*
X204210516Y-74929917D01*
X204210516Y-74929917D02*
X204316804Y-74936297D01*
X204316804Y-74936297D02*
X204381853Y-74918867D01*
X204381853Y-74918867D02*
X204470711Y-74860198D01*
X204470711Y-74860198D02*
X204613568Y-74612762D01*
X204613568Y-74612762D02*
X204619948Y-74506474D01*
X204619948Y-74506474D02*
X204602518Y-74441425D01*
X199924598Y-74572393D02*
X199543645Y-75232222D01*
X200064036Y-75092784D02*
X199404207Y-74711831D01*
X178465327Y-88680083D02*
X177758221Y-87972976D01*
X177758221Y-87972976D02*
X177589862Y-88141335D01*
X177589862Y-88141335D02*
X177522518Y-88276022D01*
X177522518Y-88276022D02*
X177522518Y-88410709D01*
X177522518Y-88410709D02*
X177556190Y-88511724D01*
X177556190Y-88511724D02*
X177657205Y-88680083D01*
X177657205Y-88680083D02*
X177758221Y-88781098D01*
X177758221Y-88781098D02*
X177926579Y-88882113D01*
X177926579Y-88882113D02*
X178027595Y-88915785D01*
X178027595Y-88915785D02*
X178162282Y-88915785D01*
X178162282Y-88915785D02*
X178296969Y-88848442D01*
X178296969Y-88848442D02*
X178465327Y-88680083D01*
X176983770Y-89218831D02*
X177455175Y-89690235D01*
X176882755Y-88781098D02*
X177556190Y-89117816D01*
X177556190Y-89117816D02*
X177118457Y-89555548D01*
X173205800Y-88168272D02*
X172667052Y-88707020D01*
X173205800Y-88707020D02*
X172667052Y-88168272D01*
X181669214Y-99091809D02*
X181526357Y-99139428D01*
X181526357Y-99139428D02*
X181478738Y-99187047D01*
X181478738Y-99187047D02*
X181431119Y-99282285D01*
X181431119Y-99282285D02*
X181431119Y-99425142D01*
X181431119Y-99425142D02*
X181478738Y-99520380D01*
X181478738Y-99520380D02*
X181526357Y-99568000D01*
X181526357Y-99568000D02*
X181621595Y-99615619D01*
X181621595Y-99615619D02*
X182002547Y-99615619D01*
X182002547Y-99615619D02*
X182002547Y-98615619D01*
X182002547Y-98615619D02*
X181669214Y-98615619D01*
X181669214Y-98615619D02*
X181573976Y-98663238D01*
X181573976Y-98663238D02*
X181526357Y-98710857D01*
X181526357Y-98710857D02*
X181478738Y-98806095D01*
X181478738Y-98806095D02*
X181478738Y-98901333D01*
X181478738Y-98901333D02*
X181526357Y-98996571D01*
X181526357Y-98996571D02*
X181573976Y-99044190D01*
X181573976Y-99044190D02*
X181669214Y-99091809D01*
X181669214Y-99091809D02*
X182002547Y-99091809D01*
X181145404Y-98615619D02*
X180573976Y-98615619D01*
X180859690Y-99615619D02*
X180859690Y-98615619D01*
X179716833Y-99615619D02*
X180288261Y-99615619D01*
X180002547Y-99615619D02*
X180002547Y-98615619D01*
X180002547Y-98615619D02*
X180097785Y-98758476D01*
X180097785Y-98758476D02*
X180193023Y-98853714D01*
X180193023Y-98853714D02*
X180288261Y-98901333D01*
X202925000Y-109096667D02*
X202972619Y-109239524D01*
X202972619Y-109239524D02*
X202972619Y-109477619D01*
X202972619Y-109477619D02*
X202925000Y-109572857D01*
X202925000Y-109572857D02*
X202877380Y-109620476D01*
X202877380Y-109620476D02*
X202782142Y-109668095D01*
X202782142Y-109668095D02*
X202686904Y-109668095D01*
X202686904Y-109668095D02*
X202591666Y-109620476D01*
X202591666Y-109620476D02*
X202544047Y-109572857D01*
X202544047Y-109572857D02*
X202496428Y-109477619D01*
X202496428Y-109477619D02*
X202448809Y-109287143D01*
X202448809Y-109287143D02*
X202401190Y-109191905D01*
X202401190Y-109191905D02*
X202353571Y-109144286D01*
X202353571Y-109144286D02*
X202258333Y-109096667D01*
X202258333Y-109096667D02*
X202163095Y-109096667D01*
X202163095Y-109096667D02*
X202067857Y-109144286D01*
X202067857Y-109144286D02*
X202020238Y-109191905D01*
X202020238Y-109191905D02*
X201972619Y-109287143D01*
X201972619Y-109287143D02*
X201972619Y-109525238D01*
X201972619Y-109525238D02*
X202020238Y-109668095D01*
X201972619Y-110001429D02*
X202972619Y-110239524D01*
X202972619Y-110239524D02*
X202258333Y-110430000D01*
X202258333Y-110430000D02*
X202972619Y-110620476D01*
X202972619Y-110620476D02*
X201972619Y-110858572D01*
X202972619Y-111763333D02*
X202972619Y-111191905D01*
X202972619Y-111477619D02*
X201972619Y-111477619D01*
X201972619Y-111477619D02*
X202115476Y-111382381D01*
X202115476Y-111382381D02*
X202210714Y-111287143D01*
X202210714Y-111287143D02*
X202258333Y-111191905D01*
D14*
X172950000Y-92800000D02*
X172950000Y-93900000D01*
X172450000Y-92800000D02*
X172950000Y-92800000D01*
X172950000Y-93000000D02*
X174150000Y-93000000D01*
X172950000Y-93700000D02*
X175050000Y-93700000D01*
X172950000Y-93900000D02*
X172450000Y-93900000D01*
X172450000Y-92800000D02*
G75*
G03*
X172450000Y-93900000I0J-550000D01*
G01*
X210400000Y-67350000D02*
X209300000Y-67350000D01*
X210400000Y-66850000D02*
X210400000Y-67350000D01*
X210200000Y-67350000D02*
X210200000Y-68550000D01*
X209500000Y-67350000D02*
X209500000Y-69450000D01*
X209300000Y-67350000D02*
X209300000Y-66850000D01*
X210400000Y-66850000D02*
G75*
G03*
X209300000Y-66850000I-550000J0D01*
G01*
X200937083Y-71555385D02*
X200387083Y-72508013D01*
X200504071Y-71305385D02*
X200937083Y-71555385D01*
X200837083Y-71728590D02*
X201876314Y-72328590D01*
X200487083Y-72334808D02*
X202305737Y-73384808D01*
X200387083Y-72508013D02*
X199954071Y-72258013D01*
X200504071Y-71305385D02*
G75*
G03*
X199954071Y-72258013I-275000J-476314D01*
G01*
X174964645Y-85516117D02*
X174186827Y-86293934D01*
X174611091Y-85162563D02*
X174964645Y-85516117D01*
X174823223Y-85657538D02*
X175671751Y-86506066D01*
X174328249Y-86152513D02*
X175813173Y-87637437D01*
X174186827Y-86293934D02*
X173833274Y-85940381D01*
X174611091Y-85162563D02*
G75*
G03*
X173833274Y-85940381I-388908J-388909D01*
G01*
X180458500Y-90003000D02*
X180458500Y-91553000D01*
X180458500Y-97703000D02*
X180458500Y-96153000D01*
X182008500Y-88853000D02*
X182008500Y-86853000D01*
X183008500Y-87853000D02*
X181008500Y-87853000D01*
X183658500Y-87303000D02*
X183658500Y-90003000D01*
X183658500Y-90003000D02*
X180458500Y-90003000D01*
X183658500Y-97703000D02*
X180458500Y-97703000D01*
X183658500Y-102203000D02*
X183658500Y-97703000D01*
X183658500Y-102203000D02*
X206358500Y-102203000D01*
X185458500Y-85503000D02*
X183658500Y-87303000D01*
X206358500Y-85503000D02*
X185458500Y-85503000D01*
X206358500Y-85503000D02*
X206358500Y-90003000D01*
X206358500Y-90003000D02*
X209558500Y-90003000D01*
X206358500Y-97703000D02*
X209558500Y-97703000D01*
X206358500Y-102203000D02*
X206358500Y-97703000D01*
X209558500Y-90003000D02*
X209558500Y-91553000D01*
X209558500Y-97703000D02*
X209558500Y-96153000D01*
X204310000Y-105530000D02*
X204310000Y-106630000D01*
X206110000Y-105580000D02*
X206110000Y-113730000D01*
X203510000Y-106630000D02*
X204310000Y-106630000D01*
X201110000Y-106630000D02*
X201910000Y-106630000D01*
X198910000Y-106630000D02*
X199360000Y-106630000D01*
X198910000Y-106630000D02*
X198910000Y-113630000D01*
X203510000Y-113630000D02*
X204310000Y-113630000D01*
X201110000Y-113630000D02*
X201910000Y-113630000D01*
X198910000Y-113630000D02*
X199310000Y-113630000D01*
%LPC*%
D15*
X213380257Y-54915942D02*
X213420398Y-55004211D01*
X213430524Y-55031139D01*
X213472001Y-55122557D01*
X213540512Y-55237412D01*
X213640973Y-55382177D01*
X213778304Y-55563321D01*
X213957420Y-55787317D01*
X214183239Y-56060635D01*
X214460678Y-56389746D01*
X214482032Y-56414891D01*
X214723645Y-56701688D01*
X214912831Y-56932314D01*
X215054149Y-57113215D01*
X215152158Y-57250839D01*
X215211416Y-57351634D01*
X215236481Y-57422047D01*
X215231913Y-57468525D01*
X215229783Y-57472478D01*
X215161003Y-57577456D01*
X215056824Y-57722772D01*
X214926529Y-57896792D01*
X214779399Y-58087880D01*
X214624714Y-58284401D01*
X214471756Y-58474719D01*
X214329805Y-58647199D01*
X214208144Y-58790207D01*
X214116053Y-58892106D01*
X214062814Y-58941261D01*
X214056001Y-58943989D01*
X214003496Y-58919835D01*
X213900193Y-58854827D01*
X213762434Y-58759692D01*
X213647000Y-58675520D01*
X213371718Y-58461736D01*
X213063167Y-58205343D01*
X212715643Y-57901338D01*
X212323439Y-57544724D01*
X211880852Y-57130500D01*
X211842818Y-57094459D01*
X211629138Y-56889958D01*
X211472171Y-56734764D01*
X211365582Y-56621680D01*
X211303032Y-56543505D01*
X211278186Y-56493042D01*
X211284706Y-56463091D01*
X211285927Y-56461818D01*
X211336955Y-56418541D01*
X211442670Y-56334095D01*
X211593056Y-56216146D01*
X211778098Y-56072362D01*
X211987779Y-55910411D01*
X212212084Y-55737959D01*
X212440998Y-55562674D01*
X212664503Y-55392223D01*
X212872585Y-55234273D01*
X213055228Y-55096491D01*
X213202416Y-54986546D01*
X213304134Y-54912103D01*
X213350364Y-54880830D01*
X213351832Y-54880334D01*
X213380257Y-54915942D01*
G36*
X213380257Y-54915942D02*
G01*
X213420398Y-55004211D01*
X213430524Y-55031139D01*
X213472001Y-55122557D01*
X213540512Y-55237412D01*
X213640973Y-55382177D01*
X213778304Y-55563321D01*
X213957420Y-55787317D01*
X214183239Y-56060635D01*
X214460678Y-56389746D01*
X214482032Y-56414891D01*
X214723645Y-56701688D01*
X214912831Y-56932314D01*
X215054149Y-57113215D01*
X215152158Y-57250839D01*
X215211416Y-57351634D01*
X215236481Y-57422047D01*
X215231913Y-57468525D01*
X215229783Y-57472478D01*
X215161003Y-57577456D01*
X215056824Y-57722772D01*
X214926529Y-57896792D01*
X214779399Y-58087880D01*
X214624714Y-58284401D01*
X214471756Y-58474719D01*
X214329805Y-58647199D01*
X214208144Y-58790207D01*
X214116053Y-58892106D01*
X214062814Y-58941261D01*
X214056001Y-58943989D01*
X214003496Y-58919835D01*
X213900193Y-58854827D01*
X213762434Y-58759692D01*
X213647000Y-58675520D01*
X213371718Y-58461736D01*
X213063167Y-58205343D01*
X212715643Y-57901338D01*
X212323439Y-57544724D01*
X211880852Y-57130500D01*
X211842818Y-57094459D01*
X211629138Y-56889958D01*
X211472171Y-56734764D01*
X211365582Y-56621680D01*
X211303032Y-56543505D01*
X211278186Y-56493042D01*
X211284706Y-56463091D01*
X211285927Y-56461818D01*
X211336955Y-56418541D01*
X211442670Y-56334095D01*
X211593056Y-56216146D01*
X211778098Y-56072362D01*
X211987779Y-55910411D01*
X212212084Y-55737959D01*
X212440998Y-55562674D01*
X212664503Y-55392223D01*
X212872585Y-55234273D01*
X213055228Y-55096491D01*
X213202416Y-54986546D01*
X213304134Y-54912103D01*
X213350364Y-54880830D01*
X213351832Y-54880334D01*
X213380257Y-54915942D01*
G37*
X221880538Y-48791153D02*
X221881190Y-48806335D01*
X221866067Y-48840539D01*
X221831597Y-48899054D01*
X221774212Y-48987172D01*
X221690343Y-49110180D01*
X221576420Y-49273369D01*
X221428875Y-49482030D01*
X221244137Y-49741451D01*
X221018638Y-50056922D01*
X220748809Y-50433734D01*
X220624988Y-50606555D01*
X220075516Y-51373162D01*
X219573512Y-52072982D01*
X219117372Y-52708222D01*
X218705490Y-53281088D01*
X218336264Y-53793790D01*
X218008087Y-54248532D01*
X217719356Y-54647524D01*
X217468465Y-54992972D01*
X217253811Y-55287084D01*
X217073788Y-55532066D01*
X216926792Y-55730127D01*
X216811219Y-55883473D01*
X216725463Y-55994313D01*
X216667921Y-56064852D01*
X216636987Y-56097299D01*
X216631500Y-56100094D01*
X216587293Y-56069513D01*
X216496900Y-55989672D01*
X216372934Y-55872228D01*
X216228007Y-55728841D01*
X216208167Y-55708784D01*
X216036297Y-55538839D01*
X215823676Y-55335010D01*
X215593364Y-55119064D01*
X215368421Y-54912767D01*
X215290879Y-54842979D01*
X215100789Y-54670080D01*
X214922597Y-54502743D01*
X214770608Y-54354791D01*
X214659129Y-54240047D01*
X214616317Y-54191254D01*
X214478045Y-54019192D01*
X214636129Y-53882538D01*
X214701056Y-53831854D01*
X214827966Y-53737870D01*
X215011198Y-53604580D01*
X215245090Y-53435978D01*
X215523982Y-53236056D01*
X215842212Y-53008808D01*
X216194119Y-52758228D01*
X216574041Y-52488308D01*
X216976319Y-52203042D01*
X217395290Y-51906423D01*
X217825293Y-51602444D01*
X218260667Y-51295099D01*
X218695751Y-50988381D01*
X219124883Y-50686284D01*
X219542403Y-50392800D01*
X219942649Y-50111923D01*
X220319961Y-49847647D01*
X220668676Y-49603964D01*
X220983134Y-49384868D01*
X221257674Y-49194352D01*
X221486634Y-49036410D01*
X221664352Y-48915035D01*
X221785169Y-48834219D01*
X221843423Y-48797957D01*
X221846180Y-48796695D01*
X221867678Y-48789703D01*
X221880538Y-48791153D01*
G36*
X221880538Y-48791153D02*
G01*
X221881190Y-48806335D01*
X221866067Y-48840539D01*
X221831597Y-48899054D01*
X221774212Y-48987172D01*
X221690343Y-49110180D01*
X221576420Y-49273369D01*
X221428875Y-49482030D01*
X221244137Y-49741451D01*
X221018638Y-50056922D01*
X220748809Y-50433734D01*
X220624988Y-50606555D01*
X220075516Y-51373162D01*
X219573512Y-52072982D01*
X219117372Y-52708222D01*
X218705490Y-53281088D01*
X218336264Y-53793790D01*
X218008087Y-54248532D01*
X217719356Y-54647524D01*
X217468465Y-54992972D01*
X217253811Y-55287084D01*
X217073788Y-55532066D01*
X216926792Y-55730127D01*
X216811219Y-55883473D01*
X216725463Y-55994313D01*
X216667921Y-56064852D01*
X216636987Y-56097299D01*
X216631500Y-56100094D01*
X216587293Y-56069513D01*
X216496900Y-55989672D01*
X216372934Y-55872228D01*
X216228007Y-55728841D01*
X216208167Y-55708784D01*
X216036297Y-55538839D01*
X215823676Y-55335010D01*
X215593364Y-55119064D01*
X215368421Y-54912767D01*
X215290879Y-54842979D01*
X215100789Y-54670080D01*
X214922597Y-54502743D01*
X214770608Y-54354791D01*
X214659129Y-54240047D01*
X214616317Y-54191254D01*
X214478045Y-54019192D01*
X214636129Y-53882538D01*
X214701056Y-53831854D01*
X214827966Y-53737870D01*
X215011198Y-53604580D01*
X215245090Y-53435978D01*
X215523982Y-53236056D01*
X215842212Y-53008808D01*
X216194119Y-52758228D01*
X216574041Y-52488308D01*
X216976319Y-52203042D01*
X217395290Y-51906423D01*
X217825293Y-51602444D01*
X218260667Y-51295099D01*
X218695751Y-50988381D01*
X219124883Y-50686284D01*
X219542403Y-50392800D01*
X219942649Y-50111923D01*
X220319961Y-49847647D01*
X220668676Y-49603964D01*
X220983134Y-49384868D01*
X221257674Y-49194352D01*
X221486634Y-49036410D01*
X221664352Y-48915035D01*
X221785169Y-48834219D01*
X221843423Y-48797957D01*
X221846180Y-48796695D01*
X221867678Y-48789703D01*
X221880538Y-48791153D01*
G37*
X205722048Y-56036614D02*
X206235098Y-56076529D01*
X206699877Y-56147736D01*
X207132731Y-56253507D01*
X207550010Y-56397114D01*
X207968062Y-56581828D01*
X207995613Y-56595316D01*
X208387686Y-56817401D01*
X208749650Y-57086180D01*
X209095867Y-57413804D01*
X209440704Y-57812423D01*
X209453288Y-57828270D01*
X209961231Y-58425546D01*
X210501447Y-58978251D01*
X211061738Y-59475177D01*
X211629909Y-59905118D01*
X211923173Y-60097717D01*
X212371172Y-60351922D01*
X212874882Y-60596024D01*
X213407012Y-60818847D01*
X213940271Y-61009215D01*
X214447368Y-61155948D01*
X214588917Y-61189477D01*
X214718674Y-61223280D01*
X214806977Y-61255548D01*
X214832334Y-61275051D01*
X214797720Y-61313769D01*
X214703134Y-61385189D01*
X214562460Y-61480615D01*
X214389580Y-61591350D01*
X214198379Y-61708698D01*
X214002738Y-61823961D01*
X213816542Y-61928444D01*
X213653674Y-62013450D01*
X213653068Y-62013749D01*
X213277850Y-62182295D01*
X212870006Y-62331688D01*
X212408139Y-62469420D01*
X212186500Y-62527200D01*
X211808551Y-62601274D01*
X211399338Y-62645433D01*
X210986187Y-62658786D01*
X210596420Y-62640438D01*
X210260334Y-62590154D01*
X209665021Y-62423258D01*
X209059442Y-62185423D01*
X208462164Y-61885314D01*
X207891755Y-61531597D01*
X207699167Y-61394727D01*
X207296913Y-61072696D01*
X206873443Y-60686636D01*
X206441272Y-60250175D01*
X206012914Y-59776942D01*
X205600882Y-59280567D01*
X205217691Y-58774677D01*
X204982744Y-58436334D01*
X204846341Y-58225602D01*
X204697417Y-57984481D01*
X204541541Y-57723130D01*
X204384280Y-57451709D01*
X204231203Y-57180381D01*
X204087879Y-56919304D01*
X203959874Y-56678639D01*
X203852758Y-56468546D01*
X203772097Y-56299187D01*
X203723462Y-56180721D01*
X203712419Y-56123309D01*
X203713891Y-56120998D01*
X203779549Y-56096896D01*
X203919595Y-56075134D01*
X204123769Y-56056405D01*
X204381809Y-56041397D01*
X204683452Y-56030802D01*
X205018438Y-56025312D01*
X205144377Y-56024719D01*
X205722048Y-56036614D01*
G36*
X205722048Y-56036614D02*
G01*
X206235098Y-56076529D01*
X206699877Y-56147736D01*
X207132731Y-56253507D01*
X207550010Y-56397114D01*
X207968062Y-56581828D01*
X207995613Y-56595316D01*
X208387686Y-56817401D01*
X208749650Y-57086180D01*
X209095867Y-57413804D01*
X209440704Y-57812423D01*
X209453288Y-57828270D01*
X209961231Y-58425546D01*
X210501447Y-58978251D01*
X211061738Y-59475177D01*
X211629909Y-59905118D01*
X211923173Y-60097717D01*
X212371172Y-60351922D01*
X212874882Y-60596024D01*
X213407012Y-60818847D01*
X213940271Y-61009215D01*
X214447368Y-61155948D01*
X214588917Y-61189477D01*
X214718674Y-61223280D01*
X214806977Y-61255548D01*
X214832334Y-61275051D01*
X214797720Y-61313769D01*
X214703134Y-61385189D01*
X214562460Y-61480615D01*
X214389580Y-61591350D01*
X214198379Y-61708698D01*
X214002738Y-61823961D01*
X213816542Y-61928444D01*
X213653674Y-62013450D01*
X213653068Y-62013749D01*
X213277850Y-62182295D01*
X212870006Y-62331688D01*
X212408139Y-62469420D01*
X212186500Y-62527200D01*
X211808551Y-62601274D01*
X211399338Y-62645433D01*
X210986187Y-62658786D01*
X210596420Y-62640438D01*
X210260334Y-62590154D01*
X209665021Y-62423258D01*
X209059442Y-62185423D01*
X208462164Y-61885314D01*
X207891755Y-61531597D01*
X207699167Y-61394727D01*
X207296913Y-61072696D01*
X206873443Y-60686636D01*
X206441272Y-60250175D01*
X206012914Y-59776942D01*
X205600882Y-59280567D01*
X205217691Y-58774677D01*
X204982744Y-58436334D01*
X204846341Y-58225602D01*
X204697417Y-57984481D01*
X204541541Y-57723130D01*
X204384280Y-57451709D01*
X204231203Y-57180381D01*
X204087879Y-56919304D01*
X203959874Y-56678639D01*
X203852758Y-56468546D01*
X203772097Y-56299187D01*
X203723462Y-56180721D01*
X203712419Y-56123309D01*
X203713891Y-56120998D01*
X203779549Y-56096896D01*
X203919595Y-56075134D01*
X204123769Y-56056405D01*
X204381809Y-56041397D01*
X204683452Y-56030802D01*
X205018438Y-56025312D01*
X205144377Y-56024719D01*
X205722048Y-56036614D01*
G37*
X197008583Y-58363443D02*
X197056566Y-58469466D01*
X197115254Y-58620342D01*
X197155565Y-58734107D01*
X197317546Y-59160921D01*
X197498253Y-59536308D01*
X197709122Y-59876100D01*
X197961586Y-60196128D01*
X198267080Y-60512225D01*
X198637039Y-60840224D01*
X198735084Y-60921162D01*
X198886910Y-61046264D01*
X199011308Y-61151051D01*
X199095490Y-61224589D01*
X199126666Y-61255942D01*
X199126667Y-61255982D01*
X199092347Y-61281895D01*
X199004135Y-61332192D01*
X198925584Y-61373266D01*
X198533881Y-61613902D01*
X198193815Y-61913696D01*
X197902243Y-62276603D01*
X197656025Y-62706574D01*
X197452016Y-63207562D01*
X197440647Y-63241167D01*
X197387472Y-63412006D01*
X197320397Y-63645577D01*
X197243822Y-63924752D01*
X197162146Y-64232401D01*
X197079766Y-64551396D01*
X197001083Y-64864606D01*
X196930494Y-65154903D01*
X196872399Y-65405159D01*
X196831196Y-65598243D01*
X196820047Y-65657818D01*
X196777668Y-65961117D01*
X196743137Y-66330616D01*
X196717177Y-66748146D01*
X196700508Y-67195543D01*
X196693852Y-67654638D01*
X196697931Y-68107265D01*
X196709211Y-68448167D01*
X196723079Y-68789994D01*
X196728645Y-69066676D01*
X196723640Y-69297515D01*
X196705797Y-69501819D01*
X196672850Y-69698891D01*
X196622529Y-69908037D01*
X196552569Y-70148561D01*
X196483747Y-70367738D01*
X196375639Y-70712889D01*
X196292846Y-70997058D01*
X196232122Y-71238965D01*
X196190221Y-71457333D01*
X196163898Y-71670882D01*
X196149907Y-71898334D01*
X196145002Y-72158411D01*
X196144999Y-72321667D01*
X196147216Y-72536542D01*
X196153008Y-72731378D01*
X196163880Y-72920940D01*
X196181337Y-73119989D01*
X196206885Y-73343290D01*
X196242030Y-73605606D01*
X196288278Y-73921701D01*
X196347133Y-74306337D01*
X196347907Y-74311334D01*
X196434335Y-74872378D01*
X196508051Y-75360013D01*
X196570151Y-75784364D01*
X196621731Y-76155554D01*
X196663887Y-76483708D01*
X196697715Y-76778950D01*
X196724310Y-77051404D01*
X196744769Y-77311194D01*
X196760187Y-77568445D01*
X196771660Y-77833281D01*
X196780285Y-78115826D01*
X196785772Y-78356654D01*
X196792345Y-78888339D01*
X196787699Y-79348602D01*
X196770290Y-79750131D01*
X196738574Y-80105618D01*
X196691007Y-80427752D01*
X196626045Y-80729223D01*
X196542143Y-81022720D01*
X196437757Y-81320934D01*
X196419103Y-81369798D01*
X196189714Y-81848542D01*
X195888651Y-82286033D01*
X195520813Y-82677142D01*
X195091099Y-83016737D01*
X194604410Y-83299688D01*
X194551635Y-83325223D01*
X194351074Y-83413476D01*
X194134610Y-83496952D01*
X193916271Y-83571667D01*
X193710090Y-83633634D01*
X193530095Y-83678868D01*
X193390317Y-83703384D01*
X193304787Y-83703197D01*
X193284667Y-83685104D01*
X193309984Y-83644530D01*
X193378529Y-83553435D01*
X193479188Y-83426226D01*
X193575805Y-83307615D01*
X193930315Y-82837962D01*
X194222680Y-82360199D01*
X194457510Y-81861950D01*
X194639419Y-81330841D01*
X194773017Y-80754495D01*
X194862917Y-80120537D01*
X194893343Y-79772195D01*
X194914478Y-79237096D01*
X194903319Y-78664436D01*
X194859110Y-78048611D01*
X194781097Y-77384022D01*
X194668524Y-76665066D01*
X194520638Y-75886142D01*
X194336683Y-75041649D01*
X194151623Y-74269000D01*
X193948913Y-73450891D01*
X193766172Y-72709131D01*
X193602284Y-72038069D01*
X193456131Y-71432055D01*
X193326597Y-70885440D01*
X193212565Y-70392572D01*
X193112919Y-69947803D01*
X193026542Y-69545480D01*
X192952317Y-69179955D01*
X192889127Y-68845576D01*
X192835857Y-68536695D01*
X192791389Y-68247659D01*
X192754607Y-67972820D01*
X192724394Y-67706527D01*
X192699633Y-67443130D01*
X192679208Y-67176978D01*
X192662002Y-66902421D01*
X192649599Y-66668794D01*
X192628308Y-65931375D01*
X192642390Y-65257925D01*
X192693241Y-64634864D01*
X192782259Y-64048609D01*
X192910840Y-63485580D01*
X193013038Y-63135894D01*
X193279804Y-62405133D01*
X193602206Y-61728513D01*
X193988364Y-61090105D01*
X194224798Y-60757589D01*
X194411477Y-60524578D01*
X194645600Y-60257218D01*
X194908909Y-59974562D01*
X195183145Y-59695663D01*
X195450049Y-59439571D01*
X195691362Y-59225339D01*
X195700928Y-59217322D01*
X195863774Y-59085730D01*
X196050322Y-58942237D01*
X196248132Y-58795577D01*
X196444762Y-58654483D01*
X196627771Y-58527689D01*
X196784717Y-58423930D01*
X196903160Y-58351939D01*
X196970658Y-58320451D01*
X196978927Y-58320143D01*
X197008583Y-58363443D01*
G36*
X197008583Y-58363443D02*
G01*
X197056566Y-58469466D01*
X197115254Y-58620342D01*
X197155565Y-58734107D01*
X197317546Y-59160921D01*
X197498253Y-59536308D01*
X197709122Y-59876100D01*
X197961586Y-60196128D01*
X198267080Y-60512225D01*
X198637039Y-60840224D01*
X198735084Y-60921162D01*
X198886910Y-61046264D01*
X199011308Y-61151051D01*
X199095490Y-61224589D01*
X199126666Y-61255942D01*
X199126667Y-61255982D01*
X199092347Y-61281895D01*
X199004135Y-61332192D01*
X198925584Y-61373266D01*
X198533881Y-61613902D01*
X198193815Y-61913696D01*
X197902243Y-62276603D01*
X197656025Y-62706574D01*
X197452016Y-63207562D01*
X197440647Y-63241167D01*
X197387472Y-63412006D01*
X197320397Y-63645577D01*
X197243822Y-63924752D01*
X197162146Y-64232401D01*
X197079766Y-64551396D01*
X197001083Y-64864606D01*
X196930494Y-65154903D01*
X196872399Y-65405159D01*
X196831196Y-65598243D01*
X196820047Y-65657818D01*
X196777668Y-65961117D01*
X196743137Y-66330616D01*
X196717177Y-66748146D01*
X196700508Y-67195543D01*
X196693852Y-67654638D01*
X196697931Y-68107265D01*
X196709211Y-68448167D01*
X196723079Y-68789994D01*
X196728645Y-69066676D01*
X196723640Y-69297515D01*
X196705797Y-69501819D01*
X196672850Y-69698891D01*
X196622529Y-69908037D01*
X196552569Y-70148561D01*
X196483747Y-70367738D01*
X196375639Y-70712889D01*
X196292846Y-70997058D01*
X196232122Y-71238965D01*
X196190221Y-71457333D01*
X196163898Y-71670882D01*
X196149907Y-71898334D01*
X196145002Y-72158411D01*
X196144999Y-72321667D01*
X196147216Y-72536542D01*
X196153008Y-72731378D01*
X196163880Y-72920940D01*
X196181337Y-73119989D01*
X196206885Y-73343290D01*
X196242030Y-73605606D01*
X196288278Y-73921701D01*
X196347133Y-74306337D01*
X196347907Y-74311334D01*
X196434335Y-74872378D01*
X196508051Y-75360013D01*
X196570151Y-75784364D01*
X196621731Y-76155554D01*
X196663887Y-76483708D01*
X196697715Y-76778950D01*
X196724310Y-77051404D01*
X196744769Y-77311194D01*
X196760187Y-77568445D01*
X196771660Y-77833281D01*
X196780285Y-78115826D01*
X196785772Y-78356654D01*
X196792345Y-78888339D01*
X196787699Y-79348602D01*
X196770290Y-79750131D01*
X196738574Y-80105618D01*
X196691007Y-80427752D01*
X196626045Y-80729223D01*
X196542143Y-81022720D01*
X196437757Y-81320934D01*
X196419103Y-81369798D01*
X196189714Y-81848542D01*
X195888651Y-82286033D01*
X195520813Y-82677142D01*
X195091099Y-83016737D01*
X194604410Y-83299688D01*
X194551635Y-83325223D01*
X194351074Y-83413476D01*
X194134610Y-83496952D01*
X193916271Y-83571667D01*
X193710090Y-83633634D01*
X193530095Y-83678868D01*
X193390317Y-83703384D01*
X193304787Y-83703197D01*
X193284667Y-83685104D01*
X193309984Y-83644530D01*
X193378529Y-83553435D01*
X193479188Y-83426226D01*
X193575805Y-83307615D01*
X193930315Y-82837962D01*
X194222680Y-82360199D01*
X194457510Y-81861950D01*
X194639419Y-81330841D01*
X194773017Y-80754495D01*
X194862917Y-80120537D01*
X194893343Y-79772195D01*
X194914478Y-79237096D01*
X194903319Y-78664436D01*
X194859110Y-78048611D01*
X194781097Y-77384022D01*
X194668524Y-76665066D01*
X194520638Y-75886142D01*
X194336683Y-75041649D01*
X194151623Y-74269000D01*
X193948913Y-73450891D01*
X193766172Y-72709131D01*
X193602284Y-72038069D01*
X193456131Y-71432055D01*
X193326597Y-70885440D01*
X193212565Y-70392572D01*
X193112919Y-69947803D01*
X193026542Y-69545480D01*
X192952317Y-69179955D01*
X192889127Y-68845576D01*
X192835857Y-68536695D01*
X192791389Y-68247659D01*
X192754607Y-67972820D01*
X192724394Y-67706527D01*
X192699633Y-67443130D01*
X192679208Y-67176978D01*
X192662002Y-66902421D01*
X192649599Y-66668794D01*
X192628308Y-65931375D01*
X192642390Y-65257925D01*
X192693241Y-64634864D01*
X192782259Y-64048609D01*
X192910840Y-63485580D01*
X193013038Y-63135894D01*
X193279804Y-62405133D01*
X193602206Y-61728513D01*
X193988364Y-61090105D01*
X194224798Y-60757589D01*
X194411477Y-60524578D01*
X194645600Y-60257218D01*
X194908909Y-59974562D01*
X195183145Y-59695663D01*
X195450049Y-59439571D01*
X195691362Y-59225339D01*
X195700928Y-59217322D01*
X195863774Y-59085730D01*
X196050322Y-58942237D01*
X196248132Y-58795577D01*
X196444762Y-58654483D01*
X196627771Y-58527689D01*
X196784717Y-58423930D01*
X196903160Y-58351939D01*
X196970658Y-58320451D01*
X196978927Y-58320143D01*
X197008583Y-58363443D01*
G37*
X169871732Y-75564098D02*
X170291752Y-75592063D01*
X170672425Y-75645831D01*
X170728733Y-75657029D01*
X171402594Y-75831100D01*
X172058153Y-76065985D01*
X172677420Y-76354075D01*
X173242405Y-76687760D01*
X173366834Y-76773012D01*
X173644119Y-76987499D01*
X173946764Y-77253668D01*
X174254882Y-77551641D01*
X174548582Y-77861537D01*
X174807978Y-78163477D01*
X174969890Y-78375334D01*
X175086995Y-78548727D01*
X175210375Y-78747182D01*
X175333027Y-78957446D01*
X175447947Y-79166267D01*
X175548132Y-79360393D01*
X175626577Y-79526574D01*
X175676280Y-79651557D01*
X175690236Y-79722091D01*
X175686256Y-79730788D01*
X175633978Y-79751649D01*
X175516735Y-79786348D01*
X175352128Y-79829983D01*
X175166000Y-79875701D01*
X174812618Y-79970912D01*
X174423131Y-80095478D01*
X174017512Y-80241486D01*
X173615736Y-80401023D01*
X173237776Y-80566175D01*
X172903606Y-80729028D01*
X172644341Y-80874747D01*
X172512375Y-80956306D01*
X172383025Y-80777070D01*
X172256925Y-80621972D01*
X172083830Y-80435528D01*
X171884094Y-80237700D01*
X171678069Y-80048449D01*
X171486109Y-79887739D01*
X171440667Y-79852831D01*
X171153937Y-79663828D01*
X170816574Y-79483850D01*
X170462209Y-79330166D01*
X170328356Y-79281662D01*
X169836997Y-79157401D01*
X169316054Y-79105725D01*
X168777663Y-79125543D01*
X168233957Y-79215764D01*
X167697071Y-79375298D01*
X167271828Y-79556386D01*
X166921473Y-79748007D01*
X166651448Y-79942988D01*
X166457431Y-80146242D01*
X166335099Y-80362682D01*
X166280131Y-80597222D01*
X166276000Y-80688325D01*
X166315875Y-81002118D01*
X166432104Y-81283903D01*
X166619596Y-81524800D01*
X166861200Y-81708935D01*
X166999620Y-81778710D01*
X167134378Y-81814126D01*
X167306176Y-81825146D01*
X167336681Y-81825310D01*
X167466041Y-81821777D01*
X167577062Y-81806389D01*
X167692137Y-81772262D01*
X167833664Y-81712513D01*
X168024037Y-81620259D01*
X168056347Y-81604115D01*
X168252979Y-81510301D01*
X168442635Y-81427897D01*
X168601084Y-81366999D01*
X168689000Y-81340567D01*
X168952926Y-81303453D01*
X169235217Y-81299128D01*
X169502738Y-81326301D01*
X169713995Y-81380479D01*
X169906430Y-81473967D01*
X170122744Y-81612135D01*
X170337071Y-81775372D01*
X170523543Y-81944070D01*
X170650643Y-82090559D01*
X170779154Y-82270952D01*
X170697160Y-82371874D01*
X170638739Y-82442418D01*
X170539141Y-82561289D01*
X170411989Y-82712275D01*
X170270908Y-82879164D01*
X170261745Y-82889982D01*
X169652615Y-83669124D01*
X169120160Y-84479038D01*
X168662956Y-85322981D01*
X168279581Y-86204208D01*
X167968611Y-87125975D01*
X167728625Y-88091538D01*
X167563458Y-89064500D01*
X167530317Y-89385938D01*
X167506699Y-89770800D01*
X167492619Y-90198378D01*
X167488092Y-90647965D01*
X167493131Y-91098854D01*
X167507750Y-91530336D01*
X167531966Y-91921705D01*
X167561267Y-92216831D01*
X167727871Y-93270241D01*
X167962232Y-94278639D01*
X168266959Y-95251092D01*
X168644662Y-96196666D01*
X168810207Y-96555719D01*
X169058124Y-97073990D01*
X168939146Y-97400333D01*
X168731802Y-97895760D01*
X168464003Y-98417710D01*
X168146669Y-98947161D01*
X167790719Y-99465093D01*
X167636697Y-99669000D01*
X167459951Y-99881903D01*
X167231373Y-100135077D01*
X166964616Y-100415124D01*
X166673330Y-100708646D01*
X166371168Y-101002245D01*
X166071782Y-101282523D01*
X165788823Y-101536083D01*
X165535944Y-101749525D01*
X165436787Y-101828000D01*
X165235443Y-101980223D01*
X165003446Y-102150738D01*
X164753809Y-102330465D01*
X164499545Y-102510325D01*
X164253665Y-102681238D01*
X164029181Y-102834125D01*
X163839107Y-102959907D01*
X163696453Y-103049504D01*
X163640750Y-103081217D01*
X163555931Y-103113790D01*
X163524334Y-103097932D01*
X163524334Y-103097878D01*
X163532319Y-103041225D01*
X163554098Y-102919216D01*
X163586408Y-102749426D01*
X163625984Y-102549429D01*
X163628715Y-102535874D01*
X163695371Y-102196126D01*
X163749440Y-101894154D01*
X163792195Y-101614830D01*
X163824910Y-101343029D01*
X163848856Y-101063623D01*
X163865307Y-100761487D01*
X163875536Y-100421492D01*
X163880816Y-100028514D01*
X163882419Y-99567424D01*
X163882427Y-99520834D01*
X163881116Y-99059527D01*
X163876934Y-98670074D01*
X163869424Y-98339696D01*
X163858129Y-98055615D01*
X163842593Y-97805052D01*
X163822359Y-97575227D01*
X163808302Y-97446500D01*
X163741339Y-96898280D01*
X163671527Y-96383452D01*
X163595805Y-95884355D01*
X163511108Y-95383327D01*
X163414374Y-94862707D01*
X163302541Y-94304831D01*
X163172545Y-93692039D01*
X163098625Y-93354307D01*
X162939147Y-92618120D01*
X162801832Y-91951414D01*
X162685211Y-91342368D01*
X162587815Y-90779159D01*
X162508176Y-90249968D01*
X162444825Y-89742972D01*
X162396292Y-89246351D01*
X162361109Y-88748283D01*
X162337807Y-88236947D01*
X162324917Y-87700522D01*
X162320971Y-87127187D01*
X162320983Y-87096000D01*
X162330966Y-86294800D01*
X162360949Y-85559665D01*
X162412767Y-84873969D01*
X162488256Y-84221081D01*
X162589249Y-83584374D01*
X162717583Y-82947218D01*
X162832517Y-82460500D01*
X163074095Y-81613595D01*
X163367588Y-80792719D01*
X163708300Y-80006797D01*
X164091533Y-79264751D01*
X164512590Y-78575503D01*
X164966775Y-77947978D01*
X165449391Y-77391098D01*
X165561266Y-77276599D01*
X166045282Y-76848918D01*
X166589962Y-76468913D01*
X167181596Y-76143801D01*
X167806472Y-75880800D01*
X168450882Y-75687125D01*
X168674638Y-75637822D01*
X169033270Y-75586698D01*
X169442269Y-75562216D01*
X169871732Y-75564098D01*
G36*
X169871732Y-75564098D02*
G01*
X170291752Y-75592063D01*
X170672425Y-75645831D01*
X170728733Y-75657029D01*
X171402594Y-75831100D01*
X172058153Y-76065985D01*
X172677420Y-76354075D01*
X173242405Y-76687760D01*
X173366834Y-76773012D01*
X173644119Y-76987499D01*
X173946764Y-77253668D01*
X174254882Y-77551641D01*
X174548582Y-77861537D01*
X174807978Y-78163477D01*
X174969890Y-78375334D01*
X175086995Y-78548727D01*
X175210375Y-78747182D01*
X175333027Y-78957446D01*
X175447947Y-79166267D01*
X175548132Y-79360393D01*
X175626577Y-79526574D01*
X175676280Y-79651557D01*
X175690236Y-79722091D01*
X175686256Y-79730788D01*
X175633978Y-79751649D01*
X175516735Y-79786348D01*
X175352128Y-79829983D01*
X175166000Y-79875701D01*
X174812618Y-79970912D01*
X174423131Y-80095478D01*
X174017512Y-80241486D01*
X173615736Y-80401023D01*
X173237776Y-80566175D01*
X172903606Y-80729028D01*
X172644341Y-80874747D01*
X172512375Y-80956306D01*
X172383025Y-80777070D01*
X172256925Y-80621972D01*
X172083830Y-80435528D01*
X171884094Y-80237700D01*
X171678069Y-80048449D01*
X171486109Y-79887739D01*
X171440667Y-79852831D01*
X171153937Y-79663828D01*
X170816574Y-79483850D01*
X170462209Y-79330166D01*
X170328356Y-79281662D01*
X169836997Y-79157401D01*
X169316054Y-79105725D01*
X168777663Y-79125543D01*
X168233957Y-79215764D01*
X167697071Y-79375298D01*
X167271828Y-79556386D01*
X166921473Y-79748007D01*
X166651448Y-79942988D01*
X166457431Y-80146242D01*
X166335099Y-80362682D01*
X166280131Y-80597222D01*
X166276000Y-80688325D01*
X166315875Y-81002118D01*
X166432104Y-81283903D01*
X166619596Y-81524800D01*
X166861200Y-81708935D01*
X166999620Y-81778710D01*
X167134378Y-81814126D01*
X167306176Y-81825146D01*
X167336681Y-81825310D01*
X167466041Y-81821777D01*
X167577062Y-81806389D01*
X167692137Y-81772262D01*
X167833664Y-81712513D01*
X168024037Y-81620259D01*
X168056347Y-81604115D01*
X168252979Y-81510301D01*
X168442635Y-81427897D01*
X168601084Y-81366999D01*
X168689000Y-81340567D01*
X168952926Y-81303453D01*
X169235217Y-81299128D01*
X169502738Y-81326301D01*
X169713995Y-81380479D01*
X169906430Y-81473967D01*
X170122744Y-81612135D01*
X170337071Y-81775372D01*
X170523543Y-81944070D01*
X170650643Y-82090559D01*
X170779154Y-82270952D01*
X170697160Y-82371874D01*
X170638739Y-82442418D01*
X170539141Y-82561289D01*
X170411989Y-82712275D01*
X170270908Y-82879164D01*
X170261745Y-82889982D01*
X169652615Y-83669124D01*
X169120160Y-84479038D01*
X168662956Y-85322981D01*
X168279581Y-86204208D01*
X167968611Y-87125975D01*
X167728625Y-88091538D01*
X167563458Y-89064500D01*
X167530317Y-89385938D01*
X167506699Y-89770800D01*
X167492619Y-90198378D01*
X167488092Y-90647965D01*
X167493131Y-91098854D01*
X167507750Y-91530336D01*
X167531966Y-91921705D01*
X167561267Y-92216831D01*
X167727871Y-93270241D01*
X167962232Y-94278639D01*
X168266959Y-95251092D01*
X168644662Y-96196666D01*
X168810207Y-96555719D01*
X169058124Y-97073990D01*
X168939146Y-97400333D01*
X168731802Y-97895760D01*
X168464003Y-98417710D01*
X168146669Y-98947161D01*
X167790719Y-99465093D01*
X167636697Y-99669000D01*
X167459951Y-99881903D01*
X167231373Y-100135077D01*
X166964616Y-100415124D01*
X166673330Y-100708646D01*
X166371168Y-101002245D01*
X166071782Y-101282523D01*
X165788823Y-101536083D01*
X165535944Y-101749525D01*
X165436787Y-101828000D01*
X165235443Y-101980223D01*
X165003446Y-102150738D01*
X164753809Y-102330465D01*
X164499545Y-102510325D01*
X164253665Y-102681238D01*
X164029181Y-102834125D01*
X163839107Y-102959907D01*
X163696453Y-103049504D01*
X163640750Y-103081217D01*
X163555931Y-103113790D01*
X163524334Y-103097932D01*
X163524334Y-103097878D01*
X163532319Y-103041225D01*
X163554098Y-102919216D01*
X163586408Y-102749426D01*
X163625984Y-102549429D01*
X163628715Y-102535874D01*
X163695371Y-102196126D01*
X163749440Y-101894154D01*
X163792195Y-101614830D01*
X163824910Y-101343029D01*
X163848856Y-101063623D01*
X163865307Y-100761487D01*
X163875536Y-100421492D01*
X163880816Y-100028514D01*
X163882419Y-99567424D01*
X163882427Y-99520834D01*
X163881116Y-99059527D01*
X163876934Y-98670074D01*
X163869424Y-98339696D01*
X163858129Y-98055615D01*
X163842593Y-97805052D01*
X163822359Y-97575227D01*
X163808302Y-97446500D01*
X163741339Y-96898280D01*
X163671527Y-96383452D01*
X163595805Y-95884355D01*
X163511108Y-95383327D01*
X163414374Y-94862707D01*
X163302541Y-94304831D01*
X163172545Y-93692039D01*
X163098625Y-93354307D01*
X162939147Y-92618120D01*
X162801832Y-91951414D01*
X162685211Y-91342368D01*
X162587815Y-90779159D01*
X162508176Y-90249968D01*
X162444825Y-89742972D01*
X162396292Y-89246351D01*
X162361109Y-88748283D01*
X162337807Y-88236947D01*
X162324917Y-87700522D01*
X162320971Y-87127187D01*
X162320983Y-87096000D01*
X162330966Y-86294800D01*
X162360949Y-85559665D01*
X162412767Y-84873969D01*
X162488256Y-84221081D01*
X162589249Y-83584374D01*
X162717583Y-82947218D01*
X162832517Y-82460500D01*
X163074095Y-81613595D01*
X163367588Y-80792719D01*
X163708300Y-80006797D01*
X164091533Y-79264751D01*
X164512590Y-78575503D01*
X164966775Y-77947978D01*
X165449391Y-77391098D01*
X165561266Y-77276599D01*
X166045282Y-76848918D01*
X166589962Y-76468913D01*
X167181596Y-76143801D01*
X167806472Y-75880800D01*
X168450882Y-75687125D01*
X168674638Y-75637822D01*
X169033270Y-75586698D01*
X169442269Y-75562216D01*
X169871732Y-75564098D01*
G37*
D16*
X173750000Y-91900000D03*
X173750000Y-94840000D03*
D17*
X211300000Y-68150000D03*
X208360000Y-68150000D03*
G36*
X200295840Y-69266051D02*
G01*
X204625968Y-71766051D01*
X203863968Y-73085873D01*
X199533840Y-70585873D01*
X200295840Y-69266051D01*
G37*
G36*
X198825840Y-71812166D02*
G01*
X203155968Y-74312166D01*
X202393968Y-75631988D01*
X198063840Y-73131988D01*
X198825840Y-71812166D01*
G37*
G36*
X174937774Y-83138824D02*
G01*
X178473308Y-86674358D01*
X177395678Y-87751988D01*
X173860144Y-84216454D01*
X174937774Y-83138824D01*
G37*
G36*
X172858880Y-85217718D02*
G01*
X176394414Y-88753252D01*
X175316784Y-89830882D01*
X171781250Y-86295348D01*
X172858880Y-85217718D01*
G37*
D18*
X179983500Y-93853000D03*
X209658500Y-93853000D03*
D19*
X205210000Y-106980000D03*
X202710000Y-106980000D03*
X200210000Y-106980000D03*
X205210000Y-113730000D03*
X202710000Y-113730000D03*
X200210000Y-113730000D03*
%LPD*%
M02*
